<svg width="148" height="80" viewBox="0 0 148 80" fill="none" xmlns="http://www.w3.org/2000/svg">
<path fill-rule="evenodd" clip-rule="evenodd" d="M2 0C0.895431 0 0 0.895429 0 2V78C0 79.1046 0.895429 80 2 80H146C147.105 80 148 79.1046 148 78V2C148 0.895431 147.105 0 146 0H2Z" fill="#D1D5DB"/>
<path fill-rule="evenodd" clip-rule="evenodd" d="M2 1C1.44772 1 1 1.44771 1 2V78C1 78.5523 1.44771 79 2 79H146C146.552 79 147 78.5523 147 78V2C147 1.44772 146.552 1 146 1H2ZM48 16H40V24H48V16ZM40 26H48V34H40V26ZM48 36H40V44H48V36ZM40 46H48V54H40V46ZM48 56H40V64H48V56Z" fill="#FAFBFB"/>
<path fill-rule="evenodd" clip-rule="evenodd" d="M98 16H50V64H98V16ZM71.1604 28.8571C69.5828 29.137 65.2445 30.0783 64.3769 31.1468C63.5092 32.2153 61.5372 35.8532 61.1429 37.4814C61.9316 38.0411 65.9544 39.4658 65.9544 39.4658C66.2699 38.8043 66.9798 36.7182 66.9798 36.7182C67.1902 38.1683 67.5793 41.6027 67.4531 43.7397C67.2954 46.411 66.9798 51.1429 66.9798 51.1429H81.7143C81.7143 48.3762 81.6472 47.7526 81.3398 44.8948C81.3139 44.6538 81.2862 44.3968 81.2568 44.1213C80.7835 39.6947 80.9239 37.0932 80.9239 37.0932C81.1605 38.009 82.0298 39.4658 82.2822 39.4658C84.6475 39.4658 86.8571 37.2524 86.8571 37.2524C86.8571 37.2524 84.2542 30.9941 83.1499 30.6125C82.0456 30.2309 76.9974 28.8571 76.9974 28.8571C75.9982 29.7221 73.4321 30.9331 71.1604 28.8571Z" fill="#5D6B82"/>
</svg>
