<svg width="148" height="80" viewBox="0 0 148 80" fill="none" xmlns="http://www.w3.org/2000/svg">
<path fill-rule="evenodd" clip-rule="evenodd" d="M2 0C0.895431 0 0 0.895429 0 2V78C0 79.1046 0.895429 80 2 80H146C147.105 80 148 79.1046 148 78V2C148 0.895431 147.105 0 146 0H2Z" fill="#D1D5DB"/>
<path fill-rule="evenodd" clip-rule="evenodd" d="M2 1C1.44772 1 1 1.44771 1 2V78C1 78.5523 1.44771 79 2 79H146C146.552 79 147 78.5523 147 78V2C147 1.44772 146.552 1 146 1H2ZM58 61H50V69H58V61ZM60 61H68V69H60V61ZM78 61H70V69H78V61ZM80 61H88V69H80V61ZM98 61H90V69H98V61Z" fill="#FAFBFB"/>
<path fill-rule="evenodd" clip-rule="evenodd" d="M98 11H50V59H98V11ZM71.1604 23.8571C69.5828 24.137 65.2445 25.0783 64.3769 26.1468C63.5092 27.2153 61.5372 30.8532 61.1429 32.4814C61.9316 33.0411 65.9544 34.4658 65.9544 34.4658C66.2699 33.8043 66.9798 31.7182 66.9798 31.7182C67.1902 33.1683 67.5793 36.6027 67.4531 38.7397C67.2954 41.411 66.9798 46.1429 66.9798 46.1429H81.7143C81.7143 43.3762 81.6472 42.7526 81.3398 39.8948C81.3139 39.6538 81.2862 39.3968 81.2568 39.1213C80.7835 34.6947 80.9239 32.0932 80.9239 32.0932C81.1605 33.009 82.0298 34.4658 82.2822 34.4658C84.6475 34.4658 86.8571 32.2524 86.8571 32.2524C86.8571 32.2524 84.2542 25.9941 83.1499 25.6125C82.0456 25.2309 76.9974 23.8571 76.9974 23.8571C75.9982 24.7221 73.4321 25.9331 71.1604 23.8571Z" fill="#5D6B82"/>
</svg>
