<?xml version="1.0" encoding="UTF-8"?>
<svg width="148px" height="80px" viewBox="0 0 148 80" version="1.1" xmlns="http://www.w3.org/2000/svg" xmlns:xlink="http://www.w3.org/1999/xlink">
    <!-- Generator: Sketch 50.2 (55047) - http://www.bohemiancoding.com/sketch -->
    <title>JSN Uniform Copy 2</title>
    <desc>Created with Sketch.</desc>
    <defs></defs>
    <g id="JSN-Uniform-Copy-2" stroke="none" stroke-width="1" fill="none" fill-rule="evenodd">
        <rect id="Rectangle-4" fill="#D1D5DB" x="0" y="0" width="148" height="80" rx="2"></rect>
        <rect id="Rectangle-3" fill="#FAFBFB" x="1" y="1" width="146" height="78" rx="1"></rect>
        <g id="Group" transform="translate(9.000000, 30.000000)" fill="#5D6B82">
            <path d="M52.0859375,3.046875 L53.8085938,3.046875 L53.8085938,10.0263672 C53.8085938,10.9788459 53.5112334,11.7353488 52.9165039,12.2958984 C52.3217744,12.8564481 51.5367887,13.1367188 50.5615234,13.1367188 C49.5224557,13.1367188 48.7203804,12.8746771 48.1552734,12.3505859 C47.5901664,11.8264948 47.3076172,11.0973354 47.3076172,10.1630859 L49.0302734,10.1630859 C49.0302734,10.6917344 49.1612943,11.0893541 49.4233398,11.355957 C49.6853854,11.6225599 50.0647762,11.7558594 50.5615234,11.7558594 C51.0263695,11.7558594 51.3966458,11.6020523 51.6723633,11.2944336 C51.9480808,10.9868149 52.0859375,10.5618517 52.0859375,10.0195312 L52.0859375,3.046875 Z M60.9863281,10.4365234 C60.9863281,9.99902125 60.8325211,9.66178504 60.5249023,9.42480469 C60.2172836,9.18782434 59.6624389,8.94856892 58.8603516,8.70703125 C58.0582642,8.46549358 57.4202498,8.19661606 56.9462891,7.90039062 C56.0393835,7.33072632 55.5859375,6.58789521 55.5859375,5.671875 C55.5859375,4.86978766 55.9129199,4.20898697 56.5668945,3.68945312 C57.2208692,3.16991928 58.0696562,2.91015625 59.1132812,2.91015625 C59.805993,2.91015625 60.4234999,3.03775914 60.9658203,3.29296875 C61.5081407,3.54817836 61.9342432,3.91161874 62.2441406,4.38330078 C62.554038,4.85498283 62.7089844,5.37792682 62.7089844,5.95214844 L60.9863281,5.95214844 C60.9863281,5.43261459 60.8234066,5.02588038 60.4975586,4.73193359 C60.1717106,4.43798681 59.7057322,4.29101562 59.0996094,4.29101562 C58.5345024,4.29101562 58.0958674,4.41178265 57.7836914,4.65332031 C57.4715154,4.89485798 57.3154297,5.23209419 57.3154297,5.66503906 C57.3154297,6.02962422 57.4840478,6.3338204 57.8212891,6.57763672 C58.1585303,6.82145304 58.7145144,7.05842984 59.4892578,7.28857422 C60.2640013,7.5187186 60.8860654,7.78076025 61.3554688,8.07470703 C61.8248721,8.36865381 62.1689442,8.70589002 62.3876953,9.08642578 C62.6064464,9.46696154 62.7158203,9.91243234 62.7158203,10.4228516 C62.7158203,11.2522828 62.3979524,11.9119442 61.762207,12.4018555 C61.1264617,12.8917668 60.2640028,13.1367188 59.1748047,13.1367188 C58.454749,13.1367188 57.792809,13.0034193 57.1889648,12.7368164 C56.5851207,12.4702135 56.1157243,12.1022159 55.7807617,11.6328125 C55.4457991,11.1634091 55.2783203,10.6165396 55.2783203,9.9921875 L57.0078125,9.9921875 C57.0078125,10.5572945 57.1946596,10.9947901 57.5683594,11.3046875 C57.9420592,11.6145849 58.4775356,11.7695312 59.1748047,11.7695312 C59.7763702,11.7695312 60.2286769,11.6476249 60.5317383,11.4038086 C60.8347997,11.1599923 60.9863281,10.8375671 60.9863281,10.4365234 Z M72.1289062,13 L70.3994141,13 L65.9628906,5.93847656 L65.9628906,13 L64.2333984,13 L64.2333984,3.046875 L65.9628906,3.046875 L70.4130859,10.1357422 L70.4130859,3.046875 L72.1289062,3.046875 L72.1289062,13 Z M49.8369141,28 L48.1142578,28 L48.1142578,18.046875 L49.8369141,18.046875 L49.8369141,28 Z M54.2050781,18.046875 L57.0761719,25.6757812 L59.9404297,18.046875 L62.1757812,18.046875 L62.1757812,28 L60.453125,28 L60.453125,24.71875 L60.6240234,20.3300781 L57.6845703,28 L56.4472656,28 L53.5146484,20.3369141 L53.6855469,24.71875 L53.6855469,28 L51.9628906,28 L51.9628906,18.046875 L54.2050781,18.046875 Z M69.9140625,25.6826172 L66.0585938,25.6826172 L65.2519531,28 L63.4541016,28 L67.2138672,18.046875 L68.765625,18.046875 L72.5322266,28 L70.7275391,28 L69.9140625,25.6826172 Z M66.5439453,24.2880859 L69.4287109,24.2880859 L67.9863281,20.1591797 L66.5439453,24.2880859 Z M81.1455078,26.7080078 C80.78548,27.1774112 80.2864615,27.5328764 79.6484375,27.7744141 C79.0104135,28.0159517 78.2858113,28.1367188 77.4746094,28.1367188 C76.6406208,28.1367188 75.902347,27.947593 75.2597656,27.5693359 C74.6171843,27.1910788 74.1215838,26.6499059 73.7729492,25.9458008 C73.4243147,25.2416957 73.2431641,24.4202521 73.2294922,23.4814453 L73.2294922,22.7021484 C73.2294922,21.1982347 73.5895146,20.0236045 74.3095703,19.1782227 C75.029626,18.3328408 76.0344988,17.9101562 77.3242188,17.9101562 C78.4316462,17.9101562 79.3111947,18.183591 79.9628906,18.7304688 C80.6145866,19.2773465 81.0065098,20.0657501 81.1386719,21.0957031 L79.4433594,21.0957031 C79.2519522,19.8971294 78.5569721,19.2978516 77.3583984,19.2978516 C76.583655,19.2978516 75.9946309,19.5769829 75.5913086,20.1352539 C75.1879863,20.6935249 74.9794923,21.5126899 74.9658203,22.5927734 L74.9658203,23.3583984 C74.9658203,24.4339246 75.1925433,25.26904 75.6459961,25.8637695 C76.0994489,26.4584991 76.7294882,26.7558594 77.5361328,26.7558594 C78.4202518,26.7558594 79.0491518,26.5553405 79.4228516,26.1542969 L79.4228516,24.2060547 L77.3720703,24.2060547 L77.3720703,22.8935547 L81.1455078,22.8935547 L81.1455078,26.7080078 Z M88.8632812,23.5566406 L84.7753906,23.5566406 L84.7753906,26.6191406 L89.5537109,26.6191406 L89.5537109,28 L83.0458984,28 L83.0458984,18.046875 L89.5058594,18.046875 L89.5058594,19.4414062 L84.7753906,19.4414062 L84.7753906,22.1894531 L88.8632812,22.1894531 L88.8632812,23.5566406 Z M96.1640625,25.4365234 C96.1640625,24.9990212 96.0102554,24.661785 95.7026367,24.4248047 C95.395018,24.1878243 94.8401733,23.9485689 94.0380859,23.7070312 C93.2359986,23.4654936 92.5979841,23.1966161 92.1240234,22.9003906 C91.2171179,22.3307263 90.7636719,21.5878952 90.7636719,20.671875 C90.7636719,19.8697877 91.0906543,19.208987 91.7446289,18.6894531 C92.3986035,18.1699193 93.2473906,17.9101562 94.2910156,17.9101562 C94.9837274,17.9101562 95.6012343,18.0377591 96.1435547,18.2929688 C96.6858751,18.5481784 97.1119776,18.9116187 97.421875,19.3833008 C97.7317724,19.8549828 97.8867188,20.3779268 97.8867188,20.9521484 L96.1640625,20.9521484 C96.1640625,20.4326146 96.001141,20.0258804 95.675293,19.7319336 C95.349445,19.4379868 94.8834666,19.2910156 94.2773438,19.2910156 C93.7122368,19.2910156 93.2736018,19.4117826 92.9614258,19.6533203 C92.6492497,19.894858 92.4931641,20.2320942 92.4931641,20.6650391 C92.4931641,21.0296242 92.6617822,21.3338204 92.9990234,21.5776367 C93.3362647,21.821453 93.8922487,22.0584298 94.6669922,22.2885742 C95.4417356,22.5187186 96.0637997,22.7807602 96.5332031,23.074707 C97.0026065,23.3686538 97.3466786,23.70589 97.5654297,24.0864258 C97.7841808,24.4669615 97.8935547,24.9124323 97.8935547,25.4228516 C97.8935547,26.2522828 97.5756868,26.9119442 96.9399414,27.4018555 C96.304196,27.8917668 95.4417372,28.1367188 94.3525391,28.1367188 C93.6324834,28.1367188 92.9705434,28.0034193 92.3666992,27.7368164 C91.7628551,27.4702135 91.2934587,27.1022159 90.9584961,26.6328125 C90.6235335,26.1634091 90.4560547,25.6165396 90.4560547,24.9921875 L92.1855469,24.9921875 C92.1855469,25.5572945 92.372394,25.9947901 92.7460938,26.3046875 C93.1197935,26.6145849 93.65527,26.7695312 94.3525391,26.7695312 C94.9541046,26.7695312 95.4064112,26.6476249 95.7094727,26.4038086 C96.0125341,26.1599923 96.1640625,25.8375671 96.1640625,25.4365234 Z M107.313477,28 L105.59082,28 L105.59082,23.5771484 L101.140625,23.5771484 L101.140625,28 L99.4111328,28 L99.4111328,18.046875 L101.140625,18.046875 L101.140625,22.1894531 L105.59082,22.1894531 L105.59082,18.046875 L107.313477,18.046875 L107.313477,28 Z M117.300781,23.2832031 C117.300781,24.2584684 117.132163,25.1140914 116.794922,25.8500977 C116.457681,26.5861039 115.975752,27.1512025 115.349121,27.5454102 C114.72249,27.9396179 114.001306,28.1367188 113.185547,28.1367188 C112.378902,28.1367188 111.659997,27.9396179 111.028809,27.5454102 C110.397621,27.1512025 109.909995,26.5895219 109.565918,25.8603516 C109.221841,25.1311812 109.047526,24.2903693 109.042969,23.3378906 L109.042969,22.7773438 C109.042969,21.8066358 109.215005,20.9498735 109.559082,20.2070312 C109.903159,19.464189 110.388506,18.8956725 111.015137,18.5014648 C111.641767,18.1072571 112.360673,17.9101562 113.171875,17.9101562 C113.983077,17.9101562 114.701983,18.1049785 115.328613,18.4946289 C115.955244,18.8842793 116.439451,19.4448206 116.78125,20.1762695 C117.123049,20.9077185 117.296224,21.7587842 117.300781,22.7294922 L117.300781,23.2832031 Z M115.571289,22.7636719 C115.571289,21.6608018 115.362795,20.8154326 114.945801,20.2275391 C114.528807,19.6396455 113.937504,19.3457031 113.171875,19.3457031 C112.424475,19.3457031 111.840009,19.6385062 111.418457,20.2241211 C110.996905,20.809736 110.781576,21.6380155 110.772461,22.7089844 L110.772461,23.2832031 C110.772461,24.3769586 110.985512,25.2223277 111.411621,25.8193359 C111.83773,26.4163441 112.429033,26.7148438 113.185547,26.7148438 C113.951176,26.7148438 114.5402,26.42318 114.952637,25.8398438 C115.365074,25.2565075 115.571289,24.4043025 115.571289,23.2832031 L115.571289,22.7636719 Z M126.830078,25.5390625 L128.361328,18.046875 L130.077148,18.046875 L127.780273,28 L126.125977,28 L124.232422,20.7333984 L122.297852,28 L120.636719,28 L118.339844,18.046875 L120.055664,18.046875 L121.600586,25.5253906 L123.500977,18.046875 L124.950195,18.046875 L126.830078,25.5390625 Z" id="JSN-IMAGESHOW"></path>
            <g id="Asset-30" fill-rule="nonzero">
                <path d="M34.9704839,0.000273373679 L6.02953273,0.000273373679 C4.42556045,-0.014969716 2.88281361,0.608383795 1.74871198,1.72995746 C0.614610352,2.85153112 -0.0154961698,4.37702832 0.000289616185,5.96291383 L0.000289616185,25.0384457 C-0.0154477008,26.6241915 0.614719494,28.149521 1.7488513,29.2708666 C2.88298311,30.3922122 4.42570535,31.0152749 6.02953273,30.999715 L34.9704668,30.999715 C36.5742977,31.0152864 38.1170268,30.3922275 39.2511612,29.2708794 C40.3852955,28.1495312 41.015459,26.6241949 40.99971,25.0384457 L40.99971,5.96291383 C41.0155074,4.3770278 40.3854069,2.85152647 39.2513064,1.72995078 C38.1172059,0.608375087 36.5744567,-0.0149767212 34.9704839,0.000273373679 Z M38.587783,19.9856671 C33.0987896,19.7543188 29.9352803,18.011685 27.0113895,16.4554516 C23.8762597,14.7856793 20.7410561,13.1159491 15.4364508,13.1159491 C9.55890304,13.1159491 4.95192038,16.2101199 2.4123215,18.3972524 L2.4123215,5.96291383 C2.45997894,4.00732648 4.05166525,2.43297535 6.02953273,2.38509795 L34.9704668,2.38509795 C36.948149,2.43343873 38.5395933,4.00751344 38.587766,5.96291664 L38.587783,19.9856671 Z M31.3532585,6.91486629 C29.3750717,6.96262925 27.7828858,8.5368648 27.7345782,10.4927495 C27.7363462,12.4671274 29.3556422,14.0667506 31.3525339,14.0667506 C33.3494256,14.0667506 34.9687216,12.4671274 34.9704895,10.4927495 C34.9223495,8.5373476 33.3309348,6.9632478 31.3532556,6.9148719 L31.3532585,6.91486629 Z" id="Shape"></path>
            </g>
        </g>
    </g>
</svg>