<svg width="148" height="80" viewBox="0 0 148 80" fill="none" xmlns="http://www.w3.org/2000/svg">
<rect width="148" height="80" rx="2" fill="#D1D5DB"/>
<rect width="146" height="78" rx="1" transform="matrix(1 0 0 -1 1 79)" fill="#FAFBFB"/>
<path d="M36.1719 42.5234L39.0625 33.625H41.2344L37.1406 45H35.2266L31.1484 33.625H33.3125L36.1719 42.5234ZM44.3594 45H42.4609V36.5469H44.3594V45ZM42.3438 34.3516C42.3438 34.0599 42.4349 33.8177 42.6172 33.625C42.8047 33.4323 43.0703 33.3359 43.4141 33.3359C43.7578 33.3359 44.0234 33.4323 44.2109 33.625C44.3984 33.8177 44.4922 34.0599 44.4922 34.3516C44.4922 34.638 44.3984 34.8776 44.2109 35.0703C44.0234 35.2578 43.7578 35.3516 43.4141 35.3516C43.0703 35.3516 42.8047 35.2578 42.6172 35.0703C42.4349 34.8776 42.3438 34.638 42.3438 34.3516ZM50.1562 45.1562C48.9531 45.1562 47.9766 44.7786 47.2266 44.0234C46.4818 43.263 46.1094 42.2526 46.1094 40.9922V40.7578C46.1094 39.9141 46.2708 39.1615 46.5938 38.5C46.9219 37.8333 47.3802 37.3151 47.9688 36.9453C48.5573 36.5755 49.2135 36.3906 49.9375 36.3906C51.0885 36.3906 51.9766 36.7578 52.6016 37.4922C53.2318 38.2266 53.5469 39.2656 53.5469 40.6094V41.375H48.0234C48.0807 42.0729 48.3125 42.625 48.7188 43.0312C49.1302 43.4375 49.6458 43.6406 50.2656 43.6406C51.1354 43.6406 51.8438 43.2891 52.3906 42.5859L53.4141 43.5625C53.0755 44.0677 52.6224 44.4609 52.0547 44.7422C51.4922 45.0182 50.8594 45.1562 50.1562 45.1562ZM49.9297 37.9141C49.4089 37.9141 48.987 38.0964 48.6641 38.4609C48.3464 38.8255 48.1432 39.3333 48.0547 39.9844H51.6719V39.8438C51.6302 39.2083 51.4609 38.7292 51.1641 38.4062C50.8672 38.0781 50.4557 37.9141 49.9297 37.9141ZM62.4531 42.3828L63.7969 36.5469H65.6484L63.3438 45H61.7812L59.9688 39.1953L58.1875 45H56.625L54.3125 36.5469H56.1641L57.5312 42.3203L59.2656 36.5469H60.6953L62.4531 42.3828ZM70.5469 40.7109C70.5469 39.4089 70.849 38.3646 71.4531 37.5781C72.0573 36.7865 72.8672 36.3906 73.8828 36.3906C74.7786 36.3906 75.5026 36.7031 76.0547 37.3281V33H77.9531V45H76.2344L76.1406 44.125C75.5729 44.8125 74.8151 45.1562 73.8672 45.1562C72.8776 45.1562 72.0755 44.7578 71.4609 43.9609C70.8516 43.1641 70.5469 42.0807 70.5469 40.7109ZM72.4453 40.875C72.4453 41.7344 72.6094 42.4062 72.9375 42.8906C73.2708 43.3698 73.7422 43.6094 74.3516 43.6094C75.1276 43.6094 75.6953 43.263 76.0547 42.5703V38.9609C75.7057 38.2839 75.1432 37.9453 74.3672 37.9453C73.7526 37.9453 73.2786 38.1901 72.9453 38.6797C72.612 39.1641 72.4453 39.8958 72.4453 40.875ZM83.6562 45.1562C82.4531 45.1562 81.4766 44.7786 80.7266 44.0234C79.9818 43.263 79.6094 42.2526 79.6094 40.9922V40.7578C79.6094 39.9141 79.7708 39.1615 80.0938 38.5C80.4219 37.8333 80.8802 37.3151 81.4688 36.9453C82.0573 36.5755 82.7135 36.3906 83.4375 36.3906C84.5885 36.3906 85.4766 36.7578 86.1016 37.4922C86.7318 38.2266 87.0469 39.2656 87.0469 40.6094V41.375H81.5234C81.5807 42.0729 81.8125 42.625 82.2188 43.0312C82.6302 43.4375 83.1458 43.6406 83.7656 43.6406C84.6354 43.6406 85.3438 43.2891 85.8906 42.5859L86.9141 43.5625C86.5755 44.0677 86.1224 44.4609 85.5547 44.7422C84.9922 45.0182 84.3594 45.1562 83.6562 45.1562ZM83.4297 37.9141C82.9089 37.9141 82.487 38.0964 82.1641 38.4609C81.8464 38.8255 81.6432 39.3333 81.5547 39.9844H85.1719V39.8438C85.1302 39.2083 84.9609 38.7292 84.6641 38.4062C84.3672 38.0781 83.9557 37.9141 83.4297 37.9141ZM90.9062 34.4922V36.5469H92.3984V37.9531H90.9062V42.6719C90.9062 42.9948 90.9688 43.2292 91.0938 43.375C91.224 43.5156 91.4531 43.5859 91.7812 43.5859C92 43.5859 92.2214 43.5599 92.4453 43.5078V44.9766C92.013 45.0964 91.5964 45.1562 91.1953 45.1562C89.737 45.1562 89.0078 44.3516 89.0078 42.7422V37.9531H87.6172V36.5469H89.0078V34.4922H90.9062ZM98.9062 45C98.8229 44.8385 98.75 44.5755 98.6875 44.2109C98.0833 44.8411 97.3438 45.1562 96.4688 45.1562C95.6198 45.1562 94.9271 44.9141 94.3906 44.4297C93.8542 43.9453 93.5859 43.3464 93.5859 42.6328C93.5859 41.7318 93.9193 41.0417 94.5859 40.5625C95.2578 40.0781 96.2161 39.8359 97.4609 39.8359H98.625V39.2812C98.625 38.8438 98.5026 38.4948 98.2578 38.2344C98.013 37.9688 97.6406 37.8359 97.1406 37.8359C96.7083 37.8359 96.3542 37.9453 96.0781 38.1641C95.8021 38.3776 95.6641 38.651 95.6641 38.9844H93.7656C93.7656 38.5208 93.9193 38.0885 94.2266 37.6875C94.5339 37.2812 94.9505 36.9635 95.4766 36.7344C96.0078 36.5052 96.599 36.3906 97.25 36.3906C98.2396 36.3906 99.0286 36.6406 99.6172 37.1406C100.206 37.6354 100.508 38.3333 100.523 39.2344V43.0469C100.523 43.8073 100.63 44.4141 100.844 44.8672V45H98.9062ZM96.8203 43.6328C97.1953 43.6328 97.5469 43.5417 97.875 43.3594C98.2083 43.1771 98.4583 42.9323 98.625 42.625V41.0312H97.6016C96.8984 41.0312 96.3698 41.1536 96.0156 41.3984C95.6615 41.6432 95.4844 41.9896 95.4844 42.4375C95.4844 42.8021 95.6042 43.0938 95.8438 43.3125C96.0885 43.526 96.4141 43.6328 96.8203 43.6328ZM104.531 45H102.633V36.5469H104.531V45ZM102.516 34.3516C102.516 34.0599 102.607 33.8177 102.789 33.625C102.977 33.4323 103.242 33.3359 103.586 33.3359C103.93 33.3359 104.195 33.4323 104.383 33.625C104.57 33.8177 104.664 34.0599 104.664 34.3516C104.664 34.638 104.57 34.8776 104.383 35.0703C104.195 35.2578 103.93 35.3516 103.586 35.3516C103.242 35.3516 102.977 35.2578 102.789 35.0703C102.607 34.8776 102.516 34.638 102.516 34.3516ZM108.625 45H106.727V33H108.625V45ZM115.438 42.7031C115.438 42.3646 115.297 42.1068 115.016 41.9297C114.74 41.7526 114.279 41.5964 113.633 41.4609C112.987 41.3255 112.448 41.1536 112.016 40.9453C111.068 40.487 110.594 39.8229 110.594 38.9531C110.594 38.224 110.901 37.6146 111.516 37.125C112.13 36.6354 112.911 36.3906 113.859 36.3906C114.87 36.3906 115.685 36.6406 116.305 37.1406C116.93 37.6406 117.242 38.2891 117.242 39.0859H115.344C115.344 38.7214 115.208 38.4193 114.938 38.1797C114.667 37.9349 114.307 37.8125 113.859 37.8125C113.443 37.8125 113.102 37.9089 112.836 38.1016C112.576 38.2943 112.445 38.5521 112.445 38.875C112.445 39.1667 112.568 39.3932 112.812 39.5547C113.057 39.7161 113.552 39.8802 114.297 40.0469C115.042 40.2083 115.625 40.4036 116.047 40.6328C116.474 40.8568 116.789 41.1276 116.992 41.4453C117.201 41.763 117.305 42.1484 117.305 42.6016C117.305 43.362 116.99 43.9792 116.359 44.4531C115.729 44.9219 114.904 45.1562 113.883 45.1562C113.19 45.1562 112.573 45.0312 112.031 44.7812C111.49 44.5312 111.068 44.1875 110.766 43.75C110.464 43.3125 110.312 42.8411 110.312 42.3359H112.156C112.182 42.7839 112.352 43.1302 112.664 43.375C112.977 43.6146 113.391 43.7344 113.906 43.7344C114.406 43.7344 114.786 43.6406 115.047 43.4531C115.307 43.2604 115.438 43.0104 115.438 42.7031Z" fill="#5D6B82"/>
<path d="M31.0078 46.5625H117.984V47.3438H31.0078V46.5625Z" fill="#5D6B82"/>
</svg>
