<svg width="148" height="80" viewBox="0 0 148 80" fill="none" xmlns="http://www.w3.org/2000/svg">
<rect width="148" height="80" rx="2" fill="#D1D5DB"/>
<rect width="146" height="78" rx="1" transform="matrix(1 0 0 -1 1 79)" fill="#FAFBFB"/>
<path fill-rule="evenodd" clip-rule="evenodd" d="M49.0623 33.625L46.1717 42.5234L43.3123 33.625H41.1483L45.2264 45H47.1405L51.2342 33.625H49.0623ZM52.4608 45H54.3592V36.5469H52.4608V45ZM52.617 33.625C52.4347 33.8177 52.3436 34.0599 52.3436 34.3516C52.3436 34.638 52.4347 34.8776 52.617 35.0703C52.8045 35.2578 53.0702 35.3516 53.4139 35.3516C53.7577 35.3516 54.0233 35.2578 54.2108 35.0703C54.3983 34.8776 54.492 34.638 54.492 34.3516C54.492 34.0599 54.3983 33.8177 54.2108 33.625C54.0233 33.4323 53.7577 33.3359 53.4139 33.3359C53.0702 33.3359 52.8045 33.4323 52.617 33.625ZM57.2264 44.0234C57.9764 44.7786 58.953 45.1562 60.1561 45.1562C60.8592 45.1562 61.492 45.0182 62.0545 44.7422C62.6222 44.4609 63.0754 44.0677 63.4139 43.5625L62.3905 42.5859C61.8436 43.2891 61.1353 43.6406 60.2655 43.6406C59.6457 43.6406 59.1301 43.4375 58.7186 43.0312C58.3123 42.625 58.0806 42.0729 58.0233 41.375H63.5467V40.6094C63.5467 39.2656 63.2316 38.2266 62.6014 37.4922C61.9764 36.7578 61.0884 36.3906 59.9373 36.3906C59.2134 36.3906 58.5571 36.5755 57.9686 36.9453C57.3801 37.3151 56.9217 37.8333 56.5936 38.5C56.2707 39.1615 56.1092 39.9141 56.1092 40.7578V40.9922C56.1092 42.2526 56.4816 43.263 57.2264 44.0234ZM58.6639 38.4609C58.9868 38.0964 59.4087 37.9141 59.9295 37.9141C60.4556 37.9141 60.867 38.0781 61.1639 38.4062C61.4608 38.7292 61.6301 39.2083 61.6717 39.8438V39.9844H58.0545C58.1431 39.3333 58.3462 38.8255 58.6639 38.4609ZM73.7967 36.5469L72.453 42.3828L70.6952 36.5469H69.2655L67.5311 42.3203L66.1639 36.5469H64.3123L66.6248 45H68.1873L69.9686 39.1953L71.7811 45H73.3436L75.6483 36.5469H73.7967ZM81.453 37.5781C80.8488 38.3646 80.5467 39.4089 80.5467 40.7109C80.5467 42.0807 80.8514 43.1641 81.4608 43.9609C82.0754 44.7578 82.8774 45.1562 83.867 45.1562C84.8149 45.1562 85.5728 44.8125 86.1405 44.125L86.2342 45H87.953V33H86.0545V37.3281C85.5024 36.7031 84.7785 36.3906 83.8827 36.3906C82.867 36.3906 82.0571 36.7865 81.453 37.5781ZM82.9373 42.8906C82.6092 42.4062 82.4452 41.7344 82.4452 40.875C82.4452 39.8958 82.6118 39.1641 82.9452 38.6797C83.2785 38.1901 83.7524 37.9453 84.367 37.9453C85.1431 37.9453 85.7056 38.2839 86.0545 38.9609V42.5703C85.6952 43.263 85.1274 43.6094 84.3514 43.6094C83.742 43.6094 83.2707 43.3698 82.9373 42.8906ZM90.7264 44.0234C91.4764 44.7786 92.453 45.1562 93.6561 45.1562C94.3592 45.1562 94.992 45.0182 95.5545 44.7422C96.1222 44.4609 96.5754 44.0677 96.9139 43.5625L95.8905 42.5859C95.3436 43.2891 94.6353 43.6406 93.7655 43.6406C93.1457 43.6406 92.6301 43.4375 92.2186 43.0312C91.8123 42.625 91.5806 42.0729 91.5233 41.375H97.0467V40.6094C97.0467 39.2656 96.7316 38.2266 96.1014 37.4922C95.4764 36.7578 94.5884 36.3906 93.4373 36.3906C92.7134 36.3906 92.0571 36.5755 91.4686 36.9453C90.8801 37.3151 90.4217 37.8333 90.0936 38.5C89.7707 39.1615 89.6092 39.9141 89.6092 40.7578V40.9922C89.6092 42.2526 89.9816 43.263 90.7264 44.0234ZM92.1639 38.4609C92.4868 38.0964 92.9087 37.9141 93.4295 37.9141C93.9556 37.9141 94.367 38.0781 94.6639 38.4062C94.9608 38.7292 95.1301 39.2083 95.1717 39.8438V39.9844H91.5545C91.6431 39.3333 91.8462 38.8255 92.1639 38.4609ZM100.906 36.5469V34.4922H99.0077V36.5469H97.617V37.9531H99.0077V42.7422C99.0077 44.3516 99.7368 45.1562 101.195 45.1562C101.596 45.1562 102.013 45.0964 102.445 44.9766V43.5078C102.221 43.5599 102 43.5859 101.781 43.5859C101.453 43.5859 101.224 43.5156 101.094 43.375C100.969 43.2292 100.906 42.9948 100.906 42.6719V37.9531H102.398V36.5469H100.906ZM108.687 44.2109C108.75 44.5755 108.823 44.8385 108.906 45H110.844V44.8672C110.63 44.4141 110.523 43.8073 110.523 43.0469V39.2344C110.508 38.3333 110.206 37.6354 109.617 37.1406C109.028 36.6406 108.239 36.3906 107.25 36.3906C106.599 36.3906 106.008 36.5052 105.476 36.7344C104.95 36.9635 104.534 37.2812 104.226 37.6875C103.919 38.0885 103.765 38.5208 103.765 38.9844H105.664C105.664 38.651 105.802 38.3776 106.078 38.1641C106.354 37.9453 106.708 37.8359 107.14 37.8359C107.64 37.8359 108.013 37.9688 108.258 38.2344C108.502 38.4948 108.625 38.8438 108.625 39.2812V39.8359H107.461C106.216 39.8359 105.258 40.0781 104.586 40.5625C103.919 41.0417 103.586 41.7318 103.586 42.6328C103.586 43.3464 103.854 43.9453 104.39 44.4297C104.927 44.9141 105.62 45.1562 106.469 45.1562C107.344 45.1562 108.083 44.8411 108.687 44.2109ZM107.875 43.3594C107.547 43.5417 107.195 43.6328 106.82 43.6328C106.414 43.6328 106.088 43.526 105.844 43.3125C105.604 43.0938 105.484 42.8021 105.484 42.4375C105.484 41.9896 105.661 41.6432 106.015 41.3984C106.37 41.1536 106.898 41.0312 107.601 41.0312H108.625V42.625C108.458 42.9323 108.208 43.1771 107.875 43.3594ZM112.633 45H114.531V36.5469H112.633V45ZM112.789 33.625C112.607 33.8177 112.515 34.0599 112.515 34.3516C112.515 34.638 112.607 34.8776 112.789 35.0703C112.976 35.2578 113.242 35.3516 113.586 35.3516C113.93 35.3516 114.195 35.2578 114.383 35.0703C114.57 34.8776 114.664 34.638 114.664 34.3516C114.664 34.0599 114.57 33.8177 114.383 33.625C114.195 33.4323 113.93 33.3359 113.586 33.3359C113.242 33.3359 112.976 33.4323 112.789 33.625ZM116.726 45H118.625V33H116.726V45ZM125.015 41.9297C125.297 42.1068 125.437 42.3646 125.437 42.7031C125.437 43.0104 125.307 43.2604 125.047 43.4531C124.786 43.6406 124.406 43.7344 123.906 43.7344C123.39 43.7344 122.976 43.6146 122.664 43.375C122.351 43.1302 122.182 42.7839 122.156 42.3359H120.312C120.312 42.8411 120.463 43.3125 120.765 43.75C121.068 44.1875 121.489 44.5312 122.031 44.7812C122.573 45.0312 123.19 45.1562 123.883 45.1562C124.903 45.1562 125.729 44.9219 126.359 44.4531C126.989 43.9792 127.305 43.362 127.305 42.6016C127.305 42.1484 127.2 41.763 126.992 41.4453C126.789 41.1276 126.474 40.8568 126.047 40.6328C125.625 40.4036 125.042 40.2083 124.297 40.0469C123.552 39.8802 123.057 39.7161 122.812 39.5547C122.568 39.3932 122.445 39.1667 122.445 38.875C122.445 38.5521 122.575 38.2943 122.836 38.1016C123.101 37.9089 123.443 37.8125 123.859 37.8125C124.307 37.8125 124.667 37.9349 124.937 38.1797C125.208 38.4193 125.344 38.7214 125.344 39.0859H127.242C127.242 38.2891 126.93 37.6406 126.305 37.1406C125.685 36.6406 124.87 36.3906 123.859 36.3906C122.911 36.3906 122.13 36.6354 121.515 37.125C120.901 37.6146 120.594 38.224 120.594 38.9531C120.594 39.8229 121.068 40.487 122.015 40.9453C122.448 41.1536 122.987 41.3255 123.633 41.4609C124.278 41.5964 124.739 41.7526 125.015 41.9297ZM127.984 46.5625H41.0077V47.3438H127.984V46.5625ZM28.1582 36.175L29.3332 35L34.3332 40L29.3332 45L28.1582 43.825L31.9749 40L28.1582 36.175Z" fill="#5D6B82"/>
</svg>
