<svg width="148" height="80" viewBox="0 0 148 80" fill="none" xmlns="http://www.w3.org/2000/svg">
<rect width="148" height="80" rx="2" fill="#D1D5DB"/>
<rect width="146" height="78" rx="1" transform="matrix(1 0 0 -1 1 79)" fill="#FAFBFB"/>
<path fill-rule="evenodd" clip-rule="evenodd" d="M29.0625 33.625L26.1719 42.5234L23.3125 33.625H21.1484L25.2266 45H27.1406L31.2344 33.625H29.0625ZM32.4609 45H34.3594V36.5469H32.4609V45ZM32.6172 33.625C32.4349 33.8177 32.3438 34.0599 32.3438 34.3516C32.3438 34.638 32.4349 34.8776 32.6172 35.0703C32.8047 35.2578 33.0703 35.3516 33.4141 35.3516C33.7578 35.3516 34.0234 35.2578 34.2109 35.0703C34.3984 34.8776 34.4922 34.638 34.4922 34.3516C34.4922 34.0599 34.3984 33.8177 34.2109 33.625C34.0234 33.4323 33.7578 33.3359 33.4141 33.3359C33.0703 33.3359 32.8047 33.4323 32.6172 33.625ZM37.2266 44.0234C37.9766 44.7786 38.9531 45.1562 40.1562 45.1562C40.8594 45.1562 41.4922 45.0182 42.0547 44.7422C42.6224 44.4609 43.0755 44.0677 43.4141 43.5625L42.3906 42.5859C41.8438 43.2891 41.1354 43.6406 40.2656 43.6406C39.6458 43.6406 39.1302 43.4375 38.7188 43.0312C38.3125 42.625 38.0807 42.0729 38.0234 41.375H43.5469V40.6094C43.5469 39.2656 43.2318 38.2266 42.6016 37.4922C41.9766 36.7578 41.0885 36.3906 39.9375 36.3906C39.2135 36.3906 38.5573 36.5755 37.9688 36.9453C37.3802 37.3151 36.9219 37.8333 36.5938 38.5C36.2708 39.1615 36.1094 39.9141 36.1094 40.7578V40.9922C36.1094 42.2526 36.4818 43.263 37.2266 44.0234ZM38.6641 38.4609C38.987 38.0964 39.4089 37.9141 39.9297 37.9141C40.4557 37.9141 40.8672 38.0781 41.1641 38.4062C41.4609 38.7292 41.6302 39.2083 41.6719 39.8438V39.9844H38.0547C38.1432 39.3333 38.3464 38.8255 38.6641 38.4609ZM53.7969 36.5469L52.4531 42.3828L50.6953 36.5469H49.2656L47.5312 42.3203L46.1641 36.5469H44.3125L46.625 45H48.1875L49.9688 39.1953L51.7812 45H53.3438L55.6484 36.5469H53.7969ZM61.4531 37.5781C60.849 38.3646 60.5469 39.4089 60.5469 40.7109C60.5469 42.0807 60.8516 43.1641 61.4609 43.9609C62.0755 44.7578 62.8776 45.1562 63.8672 45.1562C64.8151 45.1562 65.5729 44.8125 66.1406 44.125L66.2344 45H67.9531V33H66.0547V37.3281C65.5026 36.7031 64.7786 36.3906 63.8828 36.3906C62.8672 36.3906 62.0573 36.7865 61.4531 37.5781ZM62.9375 42.8906C62.6094 42.4062 62.4453 41.7344 62.4453 40.875C62.4453 39.8958 62.612 39.1641 62.9453 38.6797C63.2786 38.1901 63.7526 37.9453 64.3672 37.9453C65.1432 37.9453 65.7057 38.2839 66.0547 38.9609V42.5703C65.6953 43.263 65.1276 43.6094 64.3516 43.6094C63.7422 43.6094 63.2708 43.3698 62.9375 42.8906ZM70.7266 44.0234C71.4766 44.7786 72.4531 45.1562 73.6562 45.1562C74.3594 45.1562 74.9922 45.0182 75.5547 44.7422C76.1224 44.4609 76.5755 44.0677 76.9141 43.5625L75.8906 42.5859C75.3438 43.2891 74.6354 43.6406 73.7656 43.6406C73.1458 43.6406 72.6302 43.4375 72.2188 43.0312C71.8125 42.625 71.5807 42.0729 71.5234 41.375H77.0469V40.6094C77.0469 39.2656 76.7318 38.2266 76.1016 37.4922C75.4766 36.7578 74.5885 36.3906 73.4375 36.3906C72.7135 36.3906 72.0573 36.5755 71.4688 36.9453C70.8802 37.3151 70.4219 37.8333 70.0938 38.5C69.7708 39.1615 69.6094 39.9141 69.6094 40.7578V40.9922C69.6094 42.2526 69.9818 43.263 70.7266 44.0234ZM72.1641 38.4609C72.487 38.0964 72.9089 37.9141 73.4297 37.9141C73.9557 37.9141 74.3672 38.0781 74.6641 38.4062C74.9609 38.7292 75.1302 39.2083 75.1719 39.8438V39.9844H71.5547C71.6432 39.3333 71.8464 38.8255 72.1641 38.4609ZM80.9062 36.5469V34.4922H79.0078V36.5469H77.6172V37.9531H79.0078V42.7422C79.0078 44.3516 79.737 45.1562 81.1953 45.1562C81.5964 45.1562 82.013 45.0964 82.4453 44.9766V43.5078C82.2214 43.5599 82 43.5859 81.7812 43.5859C81.4531 43.5859 81.224 43.5156 81.0938 43.375C80.9688 43.2292 80.9062 42.9948 80.9062 42.6719V37.9531H82.3984V36.5469H80.9062ZM88.6875 44.2109C88.75 44.5755 88.8229 44.8385 88.9062 45H90.8438V44.8672C90.6302 44.4141 90.5234 43.8073 90.5234 43.0469V39.2344C90.5078 38.3333 90.2057 37.6354 89.6172 37.1406C89.0286 36.6406 88.2396 36.3906 87.25 36.3906C86.599 36.3906 86.0078 36.5052 85.4766 36.7344C84.9505 36.9635 84.5339 37.2812 84.2266 37.6875C83.9193 38.0885 83.7656 38.5208 83.7656 38.9844H85.6641C85.6641 38.651 85.8021 38.3776 86.0781 38.1641C86.3542 37.9453 86.7083 37.8359 87.1406 37.8359C87.6406 37.8359 88.013 37.9688 88.2578 38.2344C88.5026 38.4948 88.625 38.8438 88.625 39.2812V39.8359H87.4609C86.2161 39.8359 85.2578 40.0781 84.5859 40.5625C83.9193 41.0417 83.5859 41.7318 83.5859 42.6328C83.5859 43.3464 83.8542 43.9453 84.3906 44.4297C84.9271 44.9141 85.6198 45.1562 86.4688 45.1562C87.3438 45.1562 88.0833 44.8411 88.6875 44.2109ZM87.875 43.3594C87.5469 43.5417 87.1953 43.6328 86.8203 43.6328C86.4141 43.6328 86.0885 43.526 85.8438 43.3125C85.6042 43.0938 85.4844 42.8021 85.4844 42.4375C85.4844 41.9896 85.6615 41.6432 86.0156 41.3984C86.3698 41.1536 86.8984 41.0312 87.6016 41.0312H88.625V42.625C88.4583 42.9323 88.2083 43.1771 87.875 43.3594ZM92.6328 45H94.5312V36.5469H92.6328V45ZM92.7891 33.625C92.6068 33.8177 92.5156 34.0599 92.5156 34.3516C92.5156 34.638 92.6068 34.8776 92.7891 35.0703C92.9766 35.2578 93.2422 35.3516 93.5859 35.3516C93.9297 35.3516 94.1953 35.2578 94.3828 35.0703C94.5703 34.8776 94.6641 34.638 94.6641 34.3516C94.6641 34.0599 94.5703 33.8177 94.3828 33.625C94.1953 33.4323 93.9297 33.3359 93.5859 33.3359C93.2422 33.3359 92.9766 33.4323 92.7891 33.625ZM96.7266 45H98.625V33H96.7266V45ZM105.016 41.9297C105.297 42.1068 105.438 42.3646 105.438 42.7031C105.438 43.0104 105.307 43.2604 105.047 43.4531C104.786 43.6406 104.406 43.7344 103.906 43.7344C103.391 43.7344 102.977 43.6146 102.664 43.375C102.352 43.1302 102.182 42.7839 102.156 42.3359H100.312C100.312 42.8411 100.464 43.3125 100.766 43.75C101.068 44.1875 101.49 44.5312 102.031 44.7812C102.573 45.0312 103.19 45.1562 103.883 45.1562C104.904 45.1562 105.729 44.9219 106.359 44.4531C106.99 43.9792 107.305 43.362 107.305 42.6016C107.305 42.1484 107.201 41.763 106.992 41.4453C106.789 41.1276 106.474 40.8568 106.047 40.6328C105.625 40.4036 105.042 40.2083 104.297 40.0469C103.552 39.8802 103.057 39.7161 102.812 39.5547C102.568 39.3932 102.445 39.1667 102.445 38.875C102.445 38.5521 102.576 38.2943 102.836 38.1016C103.102 37.9089 103.443 37.8125 103.859 37.8125C104.307 37.8125 104.667 37.9349 104.938 38.1797C105.208 38.4193 105.344 38.7214 105.344 39.0859H107.242C107.242 38.2891 106.93 37.6406 106.305 37.1406C105.685 36.6406 104.87 36.3906 103.859 36.3906C102.911 36.3906 102.13 36.6354 101.516 37.125C100.901 37.6146 100.594 38.224 100.594 38.9531C100.594 39.8229 101.068 40.487 102.016 40.9453C102.448 41.1536 102.987 41.3255 103.633 41.4609C104.279 41.5964 104.74 41.7526 105.016 41.9297ZM107.984 46.5625H21.0078V47.3438H107.984V46.5625ZM115.158 36.175L116.333 35L121.333 40L116.333 45L115.158 43.825L118.975 40L115.158 36.175Z" fill="#5D6B82"/>
</svg>
