<?xml version="1.0" encoding="UTF-8"?>
<svg width="148px" height="80px" viewBox="0 0 148 80" version="1.1" xmlns="http://www.w3.org/2000/svg" xmlns:xlink="http://www.w3.org/1999/xlink">
    <!-- Generator: Sketch 50.2 (55047) - http://www.bohemiancoding.com/sketch -->
    <title>K2 Read More Copy</title>
    <desc>Created with Sketch.</desc>
    <defs></defs>
    <g id="K2-Read-More-Copy" stroke="none" stroke-width="1" fill="none" fill-rule="evenodd">
        <rect id="Rectangle-4" fill="#D1D5DB" x="0" y="0" width="148" height="80" rx="2"></rect>
        <rect id="Rectangle-3" fill="#FAFBFB" x="1" y="1" width="146" height="78" rx="1"></rect>
        <path d="M28.265625,41.0859375 L26.9765625,42.453125 L26.9765625,46 L25,46 L25,34.625 L26.9765625,34.625 L26.9765625,39.9609375 L28.0703125,38.609375 L31.3984375,34.625 L33.7890625,34.625 L29.5625,39.6640625 L34.03125,46 L31.6875,46 L28.265625,41.0859375 Z M42.4296875,46 L34.78125,46 L34.78125,44.6953125 L38.5703125,40.5625 C39.1171902,39.953122 39.5065093,39.4440125 39.7382812,39.0351562 C39.9700532,38.6263 40.0859375,38.2161479 40.0859375,37.8046875 C40.0859375,37.2630181 39.9335953,36.8255225 39.6289062,36.4921875 C39.3242172,36.1588525 38.9140651,35.9921875 38.3984375,35.9921875 C37.7838511,35.9921875 37.3072934,36.1796856 36.96875,36.5546875 C36.6302066,36.9296894 36.4609375,37.4427051 36.4609375,38.09375 L34.5625,38.09375 C34.5625,37.4010382 34.7200505,36.7773465 35.0351562,36.2226562 C35.350262,35.667966 35.8007783,35.2369807 36.3867188,34.9296875 C36.9726592,34.6223943 37.6484337,34.46875 38.4140625,34.46875 C39.5182347,34.46875 40.3893197,34.746091 41.0273438,35.3007812 C41.6653678,35.8554715 41.984375,36.6223909 41.984375,37.6015625 C41.984375,38.1692737 41.8242204,38.7643198 41.5039062,39.3867188 C41.1835921,40.0091177 40.6588578,40.7161419 39.9296875,41.5078125 L37.1484375,44.484375 L42.4296875,44.484375 L42.4296875,46 Z M52.34375,41.6171875 L50.140625,41.6171875 L50.140625,46 L48.1640625,46 L48.1640625,34.625 L52.1640625,34.625 C53.4765691,34.625 54.4895798,34.9192679 55.203125,35.5078125 C55.9166702,36.0963571 56.2734375,36.9479111 56.2734375,38.0625 C56.2734375,38.8229205 56.0898456,39.4596329 55.7226562,39.9726562 C55.3554669,40.4856796 54.8437533,40.880207 54.1875,41.15625 L56.7421875,45.8984375 L56.7421875,46 L54.625,46 L52.34375,41.6171875 Z M50.140625,40.03125 L52.171875,40.03125 C52.838545,40.03125 53.3593731,39.8632829 53.734375,39.5273438 C54.1093769,39.1914046 54.296875,38.7317738 54.296875,38.1484375 C54.296875,37.5390595 54.1236996,37.06771 53.7773438,36.734375 C53.4309879,36.40104 52.9140659,36.2291667 52.2265625,36.21875 L50.140625,36.21875 L50.140625,40.03125 Z M61.6875,46.15625 C60.484369,46.15625 59.5091183,45.7773475 58.7617188,45.0195312 C58.0143192,44.261715 57.640625,43.2526105 57.640625,41.9921875 L57.640625,41.7578125 C57.640625,40.9140583 57.8033838,40.1601596 58.1289062,39.4960938 C58.4544287,38.8320279 58.9114554,38.315106 59.5,37.9453125 C60.0885446,37.575519 60.744788,37.390625 61.46875,37.390625 C62.6197974,37.390625 63.5091114,37.7578088 64.1367188,38.4921875 C64.7643261,39.2265662 65.078125,40.2656183 65.078125,41.609375 L65.078125,42.375 L59.5546875,42.375 C59.6119795,43.0729202 59.84505,43.624998 60.2539062,44.03125 C60.6627625,44.437502 61.1770802,44.640625 61.796875,44.640625 C62.666671,44.640625 63.3749973,44.289066 63.921875,43.5859375 L64.9453125,44.5625 C64.6067691,45.0677109 64.1549507,45.459634 63.5898438,45.7382812 C63.0247368,46.0169285 62.3906285,46.15625 61.6875,46.15625 Z M61.4609375,38.9140625 C60.9401016,38.9140625 60.5195329,39.0963523 60.1992188,39.4609375 C59.8789046,39.8255227 59.6744796,40.3333301 59.5859375,40.984375 L63.203125,40.984375 L63.203125,40.84375 C63.1614581,40.2083302 62.992189,39.7278662 62.6953125,39.4023438 C62.398436,39.0768213 61.9869818,38.9140625 61.4609375,38.9140625 Z M71.6015625,46 C71.5182287,45.8385409 71.4453128,45.5755227 71.3828125,45.2109375 C70.7786428,45.841149 70.0390669,46.15625 69.1640625,46.15625 C68.3150999,46.15625 67.6223985,45.9140649 67.0859375,45.4296875 C66.5494765,44.9453101 66.28125,44.3463577 66.28125,43.6328125 C66.28125,42.7317663 66.6158821,42.040367 67.2851562,41.5585938 C67.9544304,41.0768205 68.9114521,40.8359375 70.15625,40.8359375 L71.3203125,40.8359375 L71.3203125,40.28125 C71.3203125,39.8437478 71.1979179,39.4934909 70.953125,39.2304688 C70.7083321,38.9674466 70.33594,38.8359375 69.8359375,38.8359375 C69.4036437,38.8359375 69.0494805,38.9440093 68.7734375,39.1601562 C68.4973945,39.3763032 68.359375,39.65104 68.359375,39.984375 L66.4609375,39.984375 C66.4609375,39.520831 66.6145818,39.0872416 66.921875,38.6835938 C67.2291682,38.2799459 67.6471328,37.9635428 68.1757812,37.734375 C68.7044297,37.5052072 69.2942676,37.390625 69.9453125,37.390625 C70.9349008,37.390625 71.7239554,37.6393204 72.3125,38.1367188 C72.9010446,38.6341171 73.2031249,39.3333288 73.21875,40.234375 L73.21875,44.046875 C73.21875,44.8072955 73.3255198,45.4140602 73.5390625,45.8671875 L73.5390625,46 L71.6015625,46 Z M69.515625,44.6328125 C69.8906269,44.6328125 70.2434879,44.5416676 70.5742188,44.359375 C70.9049496,44.1770824 71.153645,43.9322932 71.3203125,43.625 L71.3203125,42.03125 L70.296875,42.03125 C69.5937465,42.03125 69.0651059,42.1536446 68.7109375,42.3984375 C68.3567691,42.6432304 68.1796875,42.9895811 68.1796875,43.4375 C68.1796875,43.8020852 68.30078,44.0924468 68.5429688,44.3085938 C68.7851575,44.5247407 69.109373,44.6328125 69.515625,44.6328125 Z M74.8515625,41.7109375 C74.8515625,40.4088477 75.1536428,39.3632852 75.7578125,38.5742188 C76.3619822,37.7851523 77.1718699,37.390625 78.1875,37.390625 C79.0833378,37.390625 79.8072889,37.7031219 80.359375,38.328125 L80.359375,34 L82.2578125,34 L82.2578125,46 L80.5390625,46 L80.4453125,45.125 C79.8776013,45.8125034 79.1197964,46.15625 78.171875,46.15625 C77.1822867,46.15625 76.3815135,45.7578165 75.7695312,44.9609375 C75.157549,44.1640585 74.8515625,43.080736 74.8515625,41.7109375 Z M76.75,41.875 C76.75,42.7343793 76.9153629,43.4049455 77.2460938,43.8867188 C77.5768246,44.368492 78.046872,44.609375 78.65625,44.609375 C79.4322955,44.609375 79.9999982,44.2630243 80.359375,43.5703125 L80.359375,39.9609375 C80.0104149,39.2838508 79.4479205,38.9453125 78.671875,38.9453125 C78.0572886,38.9453125 77.583335,39.1887996 77.25,39.6757812 C76.916665,40.1627629 76.75,40.8958284 76.75,41.875 Z M90.96875,34.625 L94.25,43.34375 L97.5234375,34.625 L100.078125,34.625 L100.078125,46 L98.109375,46 L98.109375,42.25 L98.3046875,37.234375 L94.9453125,46 L93.53125,46 L90.1796875,37.2421875 L90.375,42.25 L90.375,46 L88.40625,46 L88.40625,34.625 L90.96875,34.625 Z M101.875,41.6953125 C101.875,40.8671834 102.039061,40.1210971 102.367188,39.4570312 C102.695314,38.7929654 103.156247,38.2825539 103.75,37.9257812 C104.343753,37.5690086 105.026038,37.390625 105.796875,37.390625 C106.937506,37.390625 107.863278,37.7578088 108.574219,38.4921875 C109.28516,39.2265662 109.669271,40.2005148 109.726562,41.4140625 L109.734375,41.859375 C109.734375,42.6927125 109.57422,43.4374967 109.253906,44.09375 C108.933592,44.7500033 108.475263,45.2578107 107.878906,45.6171875 C107.282549,45.9765643 106.593754,46.15625 105.8125,46.15625 C104.619786,46.15625 103.665368,45.7591186 102.949219,44.9648438 C102.233069,44.1705689 101.875,43.1119858 101.875,41.7890625 L101.875,41.6953125 Z M103.773438,41.859375 C103.773438,42.729171 103.953123,43.4101538 104.3125,43.9023438 C104.671877,44.3945337 105.171872,44.640625 105.8125,44.640625 C106.453128,44.640625 106.951821,44.3906275 107.308594,43.890625 C107.665366,43.3906225 107.84375,42.658859 107.84375,41.6953125 C107.84375,40.8411416 107.660158,40.164065 107.292969,39.6640625 C106.925779,39.16406 106.427086,38.9140625 105.796875,38.9140625 C105.17708,38.9140625 104.684898,39.1601538 104.320312,39.6523438 C103.955727,40.1445337 103.773438,40.8802034 103.773438,41.859375 Z M115.765625,39.28125 C115.515624,39.2395831 115.257814,39.21875 114.992188,39.21875 C114.122391,39.21875 113.53646,39.55208 113.234375,40.21875 L113.234375,46 L111.335938,46 L111.335938,37.546875 L113.148438,37.546875 L113.195312,38.4921875 C113.653648,37.7578088 114.289058,37.390625 115.101562,37.390625 C115.372397,37.390625 115.596353,37.427083 115.773438,37.5 L115.765625,39.28125 Z M120.539062,46.15625 C119.335931,46.15625 118.360681,45.7773475 117.613281,45.0195312 C116.865882,44.261715 116.492188,43.2526105 116.492188,41.9921875 L116.492188,41.7578125 C116.492188,40.9140583 116.654946,40.1601596 116.980469,39.4960938 C117.305991,38.8320279 117.763018,38.315106 118.351562,37.9453125 C118.940107,37.575519 119.596351,37.390625 120.320312,37.390625 C121.47136,37.390625 122.360674,37.7578088 122.988281,38.4921875 C123.615889,39.2265662 123.929688,40.2656183 123.929688,41.609375 L123.929688,42.375 L118.40625,42.375 C118.463542,43.0729202 118.696613,43.624998 119.105469,44.03125 C119.514325,44.437502 120.028643,44.640625 120.648438,44.640625 C121.518234,44.640625 122.22656,44.289066 122.773438,43.5859375 L123.796875,44.5625 C123.458332,45.0677109 123.006513,45.459634 122.441406,45.7382812 C121.876299,46.0169285 121.242191,46.15625 120.539062,46.15625 Z M120.3125,38.9140625 C119.791664,38.9140625 119.371095,39.0963523 119.050781,39.4609375 C118.730467,39.8255227 118.526042,40.3333301 118.4375,40.984375 L122.054688,40.984375 L122.054688,40.84375 C122.013021,40.2083302 121.843751,39.7278662 121.546875,39.4023438 C121.249999,39.0768213 120.838544,38.9140625 120.3125,38.9140625 Z" id="K2-Read-More" fill="#5D6B82"></path>
    </g>
</svg>