<svg width="148" height="80" viewBox="0 0 148 80" fill="none" xmlns="http://www.w3.org/2000/svg">
<rect width="148" height="80" rx="2" fill="#D1D5DB"/>
<path fill-rule="evenodd" clip-rule="evenodd" d="M2 1C1.44772 1 1 1.44771 1 2V78C1 78.5523 1.44771 79 2 79H146C146.552 79 147 78.5523 147 78V2C147 1.44772 146.552 1 146 1H2ZM12 31H112V51H12V31ZM20 39H104V43H20V39Z" fill="#FAFBFB"/>
<path fill-rule="evenodd" clip-rule="evenodd" d="M136 31H112V51H136V31ZM127.232 39.7438C127.131 39.8081 126.826 39.999 126.317 40.3164C125.808 40.6338 125.418 40.8782 125.147 41.0496C125.117 41.0684 125.054 41.1092 124.958 41.1722C124.861 41.2352 124.78 41.2861 124.716 41.3249C124.652 41.3637 124.575 41.4073 124.484 41.4555C124.394 41.5036 124.308 41.5398 124.228 41.5638C124.147 41.588 124.073 41.6 124.004 41.6H124H123.995C123.927 41.6 123.853 41.588 123.772 41.5638C123.692 41.5398 123.606 41.5036 123.515 41.4555C123.425 41.4072 123.347 41.3637 123.283 41.3249C123.219 41.2861 123.139 41.2352 123.042 41.1722C122.946 41.1092 122.882 41.0684 122.853 41.0496C122.579 40.8782 121.882 40.4429 120.763 39.7437C120.546 39.6072 120.365 39.4424 120.219 39.2495C120.073 39.0567 120 38.8545 120 38.6429C120 38.4661 120.071 38.3147 120.212 38.1888C120.353 38.0629 120.521 38 120.714 38H127.286C127.515 38 127.691 38.0696 127.815 38.2089C127.938 38.3482 128 38.5223 128 38.7312C128 38.9 127.918 39.0829 127.754 39.2797C127.591 39.4766 127.416 39.6313 127.232 39.7438ZM120.447 40.7283C121.423 41.2867 122.164 41.7207 122.67 42.0302C122.839 42.1358 122.977 42.2183 123.083 42.2774C123.188 42.3365 123.329 42.3969 123.505 42.4585C123.68 42.5202 123.844 42.5509 123.996 42.5509H124H124.005C124.156 42.5509 124.32 42.5202 124.496 42.4585C124.671 42.3969 124.812 42.3365 124.918 42.2774C125.023 42.2183 125.161 42.1358 125.33 42.0302C125.732 41.7812 126.472 41.3472 127.549 40.7283C127.719 40.6328 127.869 40.5233 128 40.4V43.3962C128 43.5623 127.93 43.7044 127.79 43.8226C127.65 43.9409 127.482 44 127.286 44H120.714C120.518 44 120.35 43.9409 120.21 43.8226C120.07 43.7043 120 43.5623 120 43.3962V40.4C120.128 40.5207 120.277 40.6302 120.447 40.7283Z" fill="#5D6B82"/>
</svg>
