<svg width="148" height="80" viewBox="0 0 148 80" fill="none" xmlns="http://www.w3.org/2000/svg">
<rect width="148" height="80" rx="2" fill="#D1D5DB"/>
<path fill-rule="evenodd" clip-rule="evenodd" d="M2 1C1.44772 1 1 1.44771 1 2V78C1 78.5523 1.44771 79 2 79H146C146.552 79 147 78.5523 147 78V2C147 1.44772 146.552 1 146 1H2ZM12 30H92V50H12V30ZM20 38H84V42H20V38Z" fill="#FAFBFB"/>
<path fill-rule="evenodd" clip-rule="evenodd" d="M136 30H92V50H136V30ZM127 38H109V42H127V38ZM106.424 39.1626C106.348 39.2054 106.119 39.3327 105.738 39.5443C105.356 39.7559 105.064 39.9188 104.861 40.0331C104.838 40.0456 104.791 40.0728 104.718 40.1148C104.646 40.1568 104.585 40.1907 104.538 40.2166C104.49 40.2425 104.431 40.2715 104.363 40.3037C104.295 40.3358 104.231 40.3599 104.171 40.3759C104.111 40.392 104.055 40.4 104.003 40.4H104H103.997C103.945 40.4 103.89 40.392 103.829 40.3759C103.769 40.3599 103.705 40.3357 103.637 40.3037C103.569 40.2715 103.511 40.2425 103.463 40.2166C103.415 40.1907 103.354 40.1568 103.282 40.1148C103.209 40.0728 103.162 40.0456 103.14 40.0331C102.934 39.9188 102.412 39.6286 101.573 39.1625C101.41 39.0715 101.274 38.9616 101.164 38.833C101.055 38.7045 101 38.5697 101 38.4286C101 38.3107 101.053 38.2098 101.159 38.1259C101.265 38.0419 101.391 38 101.536 38H106.464C106.636 38 106.768 38.0464 106.861 38.1393C106.954 38.2321 107 38.3482 107 38.4875C107 38.6 106.939 38.7219 106.816 38.8532C106.693 38.9844 106.562 39.0876 106.424 39.1626ZM103.002 40.6868C102.623 40.4805 102.067 40.1912 101.335 39.8189C101.208 39.7535 101.096 39.6805 101 39.6V41.5974C101 41.7082 101.053 41.8029 101.158 41.8817C101.262 41.9606 101.389 42 101.536 42H106.464C106.612 42 106.738 41.9606 106.843 41.8817C106.948 41.8029 107 41.7082 107 41.5974V39.6C106.902 39.6822 106.789 39.7552 106.662 39.8189C105.854 40.2314 105.299 40.5208 104.998 40.6868C104.871 40.7572 104.767 40.8122 104.688 40.8516C104.609 40.891 104.503 40.9312 104.372 40.9723C104.24 41.0134 104.117 41.0339 104.003 41.0339H104H103.997C103.883 41.0339 103.76 41.0134 103.628 40.9723C103.497 40.9312 103.391 40.891 103.312 40.8516C103.233 40.8122 103.13 40.7572 103.002 40.6868Z" fill="#5D6B82"/>
</svg>
