<svg width="148" height="80" viewBox="0 0 148 80" fill="none" xmlns="http://www.w3.org/2000/svg">
<rect width="148" height="80" rx="2" fill="#D1D5DB"/>
<path fill-rule="evenodd" clip-rule="evenodd" d="M2 1C1.44772 1 1 1.44771 1 2V78C1 78.5523 1.44771 79 2 79H146C146.552 79 147 78.5523 147 78V2C147 1.44772 146.552 1 146 1H2ZM60 30H12V50H60V30ZM52.0001 38H20.0001V42H52.0001V38ZM112 30H64V50H112V30ZM104 38H72V42H104V38Z" fill="#FAFBFB"/>
<path fill-rule="evenodd" clip-rule="evenodd" d="M116 30H136V50H116V30ZM129.232 38.7438C129.131 38.8081 128.826 38.999 128.317 39.3164C127.808 39.6338 127.418 39.8782 127.147 40.0496C127.117 40.0684 127.054 40.1092 126.958 40.1722C126.861 40.2352 126.78 40.2861 126.716 40.3249C126.652 40.3637 126.575 40.4073 126.484 40.4555C126.394 40.5036 126.308 40.5399 126.228 40.5638C126.147 40.588 126.073 40.6 126.004 40.6H126H125.995C125.927 40.6 125.853 40.588 125.772 40.5638C125.692 40.5399 125.606 40.5036 125.515 40.4555C125.425 40.4072 125.347 40.3637 125.283 40.3249C125.219 40.2861 125.139 40.2352 125.042 40.1722C124.946 40.1092 124.882 40.0684 124.853 40.0496C124.579 39.8782 123.882 39.4429 122.763 38.7437C122.546 38.6072 122.365 38.4424 122.219 38.2495C122.073 38.0567 122 37.8545 122 37.6429C122 37.4661 122.071 37.3147 122.212 37.1888C122.353 37.0629 122.521 37 122.714 37H129.286C129.515 37 129.691 37.0696 129.815 37.2089C129.938 37.3482 130 37.5223 130 37.7312C130 37.9 129.918 38.0829 129.754 38.2797C129.591 38.4766 129.416 38.6313 129.232 38.7438ZM124.67 41.0302C124.164 40.7207 123.423 40.2867 122.447 39.7283C122.277 39.6302 122.128 39.5207 122 39.4V42.3962C122 42.5623 122.07 42.7043 122.21 42.8226C122.35 42.9409 122.518 43 122.714 43H129.286C129.482 43 129.65 42.9409 129.79 42.8226C129.93 42.7044 130 42.5623 130 42.3962V39.4C129.869 39.5233 129.719 39.6328 129.549 39.7283C128.472 40.3471 127.732 40.7812 127.33 41.0302C127.161 41.1358 127.023 41.2183 126.917 41.2774C126.812 41.3365 126.671 41.3969 126.496 41.4585C126.32 41.5202 126.156 41.5509 126.005 41.5509H126H125.996C125.844 41.5509 125.68 41.5202 125.505 41.4585C125.329 41.3969 125.188 41.3365 125.083 41.2774C124.977 41.2183 124.839 41.1358 124.67 41.0302Z" fill="#5D6B82"/>
</svg>
