<svg width="148" height="80" viewBox="0 0 148 80" fill="none" xmlns="http://www.w3.org/2000/svg">
<rect width="148" height="80" rx="2" fill="#D1D5DB"/>
<path fill-rule="evenodd" clip-rule="evenodd" d="M2 1C1.44772 1 1 1.44771 1 2V78C1 78.5523 1.44771 79 2 79H146C146.552 79 147 78.5523 147 78V2C147 1.44772 146.552 1 146 1H2ZM136 12H12V28H136V12ZM130 18H18V22H130V18ZM136 32H12V48H136V32ZM130 38H18V42H130V38Z" fill="#FAFBFB"/>
<path fill-rule="evenodd" clip-rule="evenodd" d="M136 52H12V68H136V52ZM110 58H54V62H110V58ZM46.2322 58.7438C46.131 58.8081 45.8259 58.999 45.317 59.3164C44.8081 59.6338 44.4182 59.8782 44.1473 60.0496C44.1176 60.0684 44.0544 60.1092 43.9577 60.1722C43.8609 60.2352 43.7806 60.2861 43.7166 60.3249C43.6526 60.3637 43.5752 60.4073 43.4844 60.4555C43.3936 60.5036 43.3081 60.5399 43.2277 60.5638C43.1473 60.588 43.0729 60.6 43.0045 60.6H43H42.9955C42.9271 60.6 42.8526 60.588 42.7723 60.5638C42.6919 60.5399 42.6063 60.5036 42.5156 60.4555C42.4248 60.4072 42.3474 60.3637 42.2834 60.3249C42.2194 60.2861 42.1391 60.2352 42.0424 60.1722C41.9457 60.1092 41.8824 60.0684 41.8526 60.0496C41.5789 59.8782 40.8824 59.4429 39.7634 58.7437C39.5461 58.6072 39.3646 58.4424 39.2188 58.2495C39.0729 58.0567 39 57.8545 39 57.6429C39 57.4661 39.0707 57.3147 39.2121 57.1888C39.3535 57.0629 39.5209 57 39.7143 57H46.2857C46.5149 57 46.6912 57.0696 46.8148 57.2089C46.9383 57.3482 47 57.5223 47 57.7312C47 57.9 46.9181 58.0829 46.7545 58.2797C46.5908 58.4766 46.4167 58.6313 46.2322 58.7438ZM41.6696 61.0302C41.1637 60.7207 40.4226 60.2867 39.4465 59.7283C39.2768 59.6302 39.128 59.5207 39 59.4V62.3961C39 62.5623 39.0699 62.7043 39.2098 62.8226C39.3497 62.9409 39.5179 63 39.7143 63H46.2857C46.4821 63 46.6503 62.9409 46.7902 62.8226C46.9301 62.7044 47 62.5623 47 62.3961V59.4C46.869 59.5233 46.7188 59.6328 46.5491 59.7283C45.4717 60.3471 44.7321 60.7812 44.3303 61.0302C44.1607 61.1358 44.023 61.2183 43.9174 61.2773C43.8118 61.3365 43.6711 61.3968 43.4955 61.4585C43.32 61.5202 43.1563 61.5509 43.0045 61.5509H43H42.9954C42.8436 61.5509 42.68 61.5202 42.5044 61.4585C42.3288 61.3968 42.1883 61.3365 42.0826 61.2773C41.9769 61.2183 41.8393 61.1358 41.6696 61.0302Z" fill="#5D6B82"/>
</svg>
