<?xml version="1.0" encoding="UTF-8"?>
<svg width="148px" height="80px" viewBox="0 0 148 80" version="1.1" xmlns="http://www.w3.org/2000/svg" xmlns:xlink="http://www.w3.org/1999/xlink">
    <!-- Generator: Sketch 50.2 (55047) - http://www.bohemiancoding.com/sketch -->
    <title>Article Author Copy</title>
    <desc>Created with Sketch.</desc>
    <defs></defs>
    <g id="Article-Author-Copy" stroke="none" stroke-width="1" fill="none" fill-rule="evenodd">
        <rect id="Rectangle-4" fill="#D1D5DB" x="0" y="0" width="148" height="80" rx="2"></rect>
        <rect id="Rectangle-3" fill="#FAFBFB" x="1" y="1" width="146" height="78" rx="1"></rect>
        <path d="M31.3828125,43.3515625 L26.9765625,43.3515625 L26.0546875,46 L24,46 L28.296875,34.625 L30.0703125,34.625 L34.375,46 L32.3125,46 L31.3828125,43.3515625 Z M27.53125,41.7578125 L30.828125,41.7578125 L29.1796875,37.0390625 L27.53125,41.7578125 Z M39.90625,39.28125 C39.6562488,39.2395831 39.3984388,39.21875 39.1328125,39.21875 C38.2630165,39.21875 37.6770848,39.55208 37.375,40.21875 L37.375,46 L35.4765625,46 L35.4765625,37.546875 L37.2890625,37.546875 L37.3359375,38.4921875 C37.7942731,37.7578088 38.4296834,37.390625 39.2421875,37.390625 C39.5130222,37.390625 39.7369783,37.427083 39.9140625,37.5 L39.90625,39.28125 Z M43.875,35.4921875 L43.875,37.546875 L45.3671875,37.546875 L45.3671875,38.953125 L43.875,38.953125 L43.875,43.671875 C43.875,43.9947933 43.9388014,44.2278639 44.0664062,44.3710938 C44.1940111,44.5143236 44.4218734,44.5859375 44.75,44.5859375 C44.9687511,44.5859375 45.190103,44.5598961 45.4140625,44.5078125 L45.4140625,45.9765625 C44.9817687,46.0963548 44.5651062,46.15625 44.1640625,46.15625 C42.7057219,46.15625 41.9765625,45.3515705 41.9765625,43.7421875 L41.9765625,38.953125 L40.5859375,38.953125 L40.5859375,37.546875 L41.9765625,37.546875 L41.9765625,35.4921875 L43.875,35.4921875 Z M48.8359375,46 L46.9375,46 L46.9375,37.546875 L48.8359375,37.546875 L48.8359375,46 Z M46.8203125,35.3515625 C46.8203125,35.0598944 46.9127595,34.8177093 47.0976562,34.625 C47.282553,34.4322907 47.5468733,34.3359375 47.890625,34.3359375 C48.2343767,34.3359375 48.4999991,34.4322907 48.6875,34.625 C48.8750009,34.8177093 48.96875,35.0598944 48.96875,35.3515625 C48.96875,35.6380223 48.8750009,35.8763011 48.6875,36.0664062 C48.4999991,36.2565114 48.2343767,36.3515625 47.890625,36.3515625 C47.5468733,36.3515625 47.282553,36.2565114 47.0976562,36.0664062 C46.9127595,35.8763011 46.8203125,35.6380223 46.8203125,35.3515625 Z M54.375,44.640625 C54.8489607,44.640625 55.2421859,44.5026055 55.5546875,44.2265625 C55.8671891,43.9505195 56.0338541,43.609377 56.0546875,43.203125 L57.84375,43.203125 C57.8229166,43.7291693 57.6588557,44.2200498 57.3515625,44.6757812 C57.0442693,45.1315127 56.6276068,45.4921862 56.1015625,45.7578125 C55.5755182,46.0234388 55.0078155,46.15625 54.3984375,46.15625 C53.2161399,46.15625 52.2786493,45.7734413 51.5859375,45.0078125 C50.8932257,44.2421837 50.546875,43.1849026 50.546875,41.8359375 L50.546875,41.640625 C50.546875,40.3541602 50.8906216,39.3242226 51.578125,38.5507812 C52.2656284,37.7773399 53.2031191,37.390625 54.390625,37.390625 C55.3958384,37.390625 56.2148406,37.6835908 56.8476562,38.2695312 C57.4804719,38.8554717 57.8124998,39.6249952 57.84375,40.578125 L56.0546875,40.578125 C56.0338541,40.0937476 55.8684911,39.6953141 55.5585938,39.3828125 C55.2486964,39.0703109 54.8541691,38.9140625 54.375,38.9140625 C53.7604136,38.9140625 53.28646,39.1367165 52.953125,39.5820312 C52.61979,40.027346 52.4505209,40.7031205 52.4453125,41.609375 L52.4453125,41.9140625 C52.4453125,42.8307338 52.6106754,43.5143207 52.9414062,43.9648438 C53.2721371,44.4153668 53.7499969,44.640625 54.375,44.640625 Z M61.296875,46 L59.3984375,46 L59.3984375,34 L61.296875,34 L61.296875,46 Z M67.0859375,46.15625 C65.8828065,46.15625 64.9075558,45.7773475 64.1601562,45.0195312 C63.4127567,44.261715 63.0390625,43.2526105 63.0390625,41.9921875 L63.0390625,41.7578125 C63.0390625,40.9140583 63.2018213,40.1601596 63.5273438,39.4960938 C63.8528662,38.8320279 64.3098929,38.315106 64.8984375,37.9453125 C65.4869821,37.575519 66.1432255,37.390625 66.8671875,37.390625 C68.0182349,37.390625 68.9075489,37.7578088 69.5351562,38.4921875 C70.1627636,39.2265662 70.4765625,40.2656183 70.4765625,41.609375 L70.4765625,42.375 L64.953125,42.375 C65.010417,43.0729202 65.2434875,43.624998 65.6523438,44.03125 C66.0612,44.437502 66.5755177,44.640625 67.1953125,44.640625 C68.0651085,44.640625 68.7734348,44.289066 69.3203125,43.5859375 L70.34375,44.5625 C70.0052066,45.0677109 69.5533882,45.459634 68.9882812,45.7382812 C68.4231743,46.0169285 67.789066,46.15625 67.0859375,46.15625 Z M66.859375,38.9140625 C66.3385391,38.9140625 65.9179704,39.0963523 65.5976562,39.4609375 C65.2773421,39.8255227 65.0729171,40.3333301 64.984375,40.984375 L68.6015625,40.984375 L68.6015625,40.84375 C68.5598956,40.2083302 68.3906265,39.7278662 68.09375,39.4023438 C67.7968735,39.0768213 67.3854193,38.9140625 66.859375,38.9140625 Z M82.484375,43.3515625 L78.078125,43.3515625 L77.15625,46 L75.1015625,46 L79.3984375,34.625 L81.171875,34.625 L85.4765625,46 L83.4140625,46 L82.484375,43.3515625 Z M78.6328125,41.7578125 L81.9296875,41.7578125 L80.28125,37.0390625 L78.6328125,41.7578125 Z M91.6171875,45.171875 C91.059893,45.8281283 90.2682343,46.15625 89.2421875,46.15625 C88.3255163,46.15625 87.6315128,45.8880235 87.1601562,45.3515625 C86.6887997,44.8151015 86.453125,44.0390676 86.453125,43.0234375 L86.453125,37.546875 L88.3515625,37.546875 L88.3515625,43 C88.3515625,44.072922 88.7968705,44.609375 89.6875,44.609375 C90.6093796,44.609375 91.2317692,44.2786491 91.5546875,43.6171875 L91.5546875,37.546875 L93.453125,37.546875 L93.453125,46 L91.6640625,46 L91.6171875,45.171875 Z M97.765625,35.4921875 L97.765625,37.546875 L99.2578125,37.546875 L99.2578125,38.953125 L97.765625,38.953125 L97.765625,43.671875 C97.765625,43.9947933 97.8294264,44.2278639 97.9570312,44.3710938 C98.0846361,44.5143236 98.3124984,44.5859375 98.640625,44.5859375 C98.8593761,44.5859375 99.080728,44.5598961 99.3046875,44.5078125 L99.3046875,45.9765625 C98.8723937,46.0963548 98.4557312,46.15625 98.0546875,46.15625 C96.5963469,46.15625 95.8671875,45.3515705 95.8671875,43.7421875 L95.8671875,38.953125 L94.4765625,38.953125 L94.4765625,37.546875 L95.8671875,37.546875 L95.8671875,35.4921875 L97.765625,35.4921875 Z M102.578125,38.46875 C103.19792,37.7499964 103.981766,37.390625 104.929688,37.390625 C106.73178,37.390625 107.645833,38.4192605 107.671875,40.4765625 L107.671875,46 L105.773438,46 L105.773438,40.546875 C105.773438,39.9635387 105.647137,39.5507825 105.394531,39.3085938 C105.141926,39.066405 104.770836,38.9453125 104.28125,38.9453125 C103.52083,38.9453125 102.953127,39.2838508 102.578125,39.9609375 L102.578125,46 L100.679688,46 L100.679688,34 L102.578125,34 L102.578125,38.46875 Z M109.234375,41.6953125 C109.234375,40.8671834 109.398436,40.1210971 109.726562,39.4570312 C110.054689,38.7929654 110.515622,38.2825539 111.109375,37.9257812 C111.703128,37.5690086 112.385413,37.390625 113.15625,37.390625 C114.296881,37.390625 115.222653,37.7578088 115.933594,38.4921875 C116.644535,39.2265662 117.028646,40.2005148 117.085938,41.4140625 L117.09375,41.859375 C117.09375,42.6927125 116.933595,43.4374967 116.613281,44.09375 C116.292967,44.7500033 115.834638,45.2578107 115.238281,45.6171875 C114.641924,45.9765643 113.953129,46.15625 113.171875,46.15625 C111.979161,46.15625 111.024743,45.7591186 110.308594,44.9648438 C109.592444,44.1705689 109.234375,43.1119858 109.234375,41.7890625 L109.234375,41.6953125 Z M111.132812,41.859375 C111.132812,42.729171 111.312498,43.4101538 111.671875,43.9023438 C112.031252,44.3945337 112.531247,44.640625 113.171875,44.640625 C113.812503,44.640625 114.311196,44.3906275 114.667969,43.890625 C115.024741,43.3906225 115.203125,42.658859 115.203125,41.6953125 C115.203125,40.8411416 115.019533,40.164065 114.652344,39.6640625 C114.285154,39.16406 113.786461,38.9140625 113.15625,38.9140625 C112.536455,38.9140625 112.044273,39.1601538 111.679688,39.6523438 C111.315102,40.1445337 111.132812,40.8802034 111.132812,41.859375 Z M123.125,39.28125 C122.874999,39.2395831 122.617189,39.21875 122.351562,39.21875 C121.481766,39.21875 120.895835,39.55208 120.59375,40.21875 L120.59375,46 L118.695312,46 L118.695312,37.546875 L120.507812,37.546875 L120.554688,38.4921875 C121.013023,37.7578088 121.648433,37.390625 122.460938,37.390625 C122.731772,37.390625 122.955728,37.427083 123.132812,37.5 L123.125,39.28125 Z" id="Article-Author" fill="#5D6B82"></path>
    </g>
</svg>