<svg width="148" height="80" viewBox="0 0 148 80" fill="none" xmlns="http://www.w3.org/2000/svg">
<rect width="148" height="80" rx="2" fill="#D1D5DB"/>
<rect x="1" y="1" width="146" height="78" rx="1" fill="#FAFBFB"/>
<path fill-rule="evenodd" clip-rule="evenodd" d="M19.9922 38H18.1016V28.8672L15.3125 29.8203V28.2188L19.75 26.5859H19.9922V38ZM31.5938 38H23.9453V36.6953L27.7344 32.5625C28.2812 31.9531 28.6693 31.4453 28.8984 31.0391C29.1328 30.6276 29.25 30.2161 29.25 29.8047C29.25 29.263 29.0964 28.8255 28.7891 28.4922C28.487 28.1589 28.0781 27.9922 27.5625 27.9922C26.9479 27.9922 26.4714 28.1797 26.1328 28.5547C25.7943 28.9297 25.625 29.4427 25.625 30.0938H23.7266C23.7266 29.401 23.8828 28.7786 24.1953 28.2266C24.513 27.6693 24.9635 27.237 25.5469 26.9297C26.1354 26.6224 26.8125 26.4688 27.5781 26.4688C28.6823 26.4688 29.5521 26.7474 30.1875 27.3047C30.8281 27.8568 31.1484 28.6224 31.1484 29.6016C31.1484 30.1693 30.987 30.7656 30.6641 31.3906C30.3464 32.0104 29.8229 32.7161 29.0938 33.5078L26.3125 36.4844H31.5938V38ZM12.7227 55V47.8906H14.8223C15.4505 47.8906 16.0072 48.0306 16.4922 48.3105C16.9805 48.5905 17.3581 48.9876 17.625 49.502C17.8919 50.0163 18.0254 50.6055 18.0254 51.2695V51.626C18.0254 52.2998 17.8903 52.8923 17.6201 53.4033C17.3532 53.9144 16.9707 54.3083 16.4727 54.585C15.9779 54.8617 15.4098 55 14.7686 55H12.7227ZM13.958 48.8867V54.0137H14.7637C15.4115 54.0137 15.9079 53.8118 16.2529 53.4082C16.6012 53.0013 16.7786 52.4186 16.7852 51.6602V51.2646C16.7852 50.4932 16.6175 49.904 16.2822 49.4971C15.9469 49.0902 15.4603 48.8867 14.8223 48.8867H13.958ZM22.2979 55C22.2458 54.8991 22.2002 54.7347 22.1611 54.5068C21.7835 54.9007 21.3213 55.0977 20.7744 55.0977C20.2438 55.0977 19.8109 54.9463 19.4756 54.6436C19.1403 54.3408 18.9727 53.9665 18.9727 53.5205C18.9727 52.9574 19.181 52.526 19.5977 52.2266C20.0176 51.9238 20.6165 51.7725 21.3945 51.7725H22.1221V51.4258C22.1221 51.1523 22.0456 50.9342 21.8926 50.7715C21.7396 50.6055 21.5068 50.5225 21.1943 50.5225C20.9242 50.5225 20.7028 50.5908 20.5303 50.7275C20.3577 50.861 20.2715 51.0319 20.2715 51.2402H19.085C19.085 50.9505 19.181 50.6803 19.373 50.4297C19.5651 50.1758 19.8255 49.9772 20.1543 49.834C20.4863 49.6908 20.8558 49.6191 21.2627 49.6191C21.8812 49.6191 22.3743 49.7754 22.7422 50.0879C23.11 50.3971 23.2988 50.8333 23.3086 51.3965V53.7793C23.3086 54.2546 23.3753 54.6338 23.5088 54.917V55H22.2979ZM20.9941 54.1455C21.2285 54.1455 21.4482 54.0885 21.6533 53.9746C21.8617 53.8607 22.0179 53.7077 22.1221 53.5156V52.5195H21.4824C21.043 52.5195 20.7126 52.596 20.4912 52.749C20.2699 52.902 20.1592 53.1185 20.1592 53.3984C20.1592 53.6263 20.234 53.8086 20.3838 53.9453C20.5368 54.0788 20.7402 54.1455 20.9941 54.1455ZM26.3213 53.3008L27.3955 49.7168H28.6602L26.5605 55.8008C26.2383 56.6895 25.6914 57.1338 24.9199 57.1338C24.7474 57.1338 24.557 57.1045 24.3486 57.0459V56.1279L24.5732 56.1426C24.8727 56.1426 25.0973 56.0872 25.2471 55.9766C25.4001 55.8691 25.5205 55.6868 25.6084 55.4297L25.7793 54.9756L23.9238 49.7168H25.2031L26.3213 53.3008ZM32.3076 53.5645C32.3076 53.3529 32.2197 53.1917 32.0439 53.0811C31.8714 52.9704 31.5833 52.8727 31.1797 52.7881C30.776 52.7035 30.4391 52.596 30.1689 52.4658C29.5765 52.1794 29.2803 51.7643 29.2803 51.2207C29.2803 50.765 29.4723 50.3841 29.8564 50.0781C30.2406 49.7721 30.7288 49.6191 31.3213 49.6191C31.9528 49.6191 32.4622 49.7754 32.8496 50.0879C33.2402 50.4004 33.4355 50.8057 33.4355 51.3037H32.249C32.249 51.0758 32.1644 50.887 31.9951 50.7373C31.8258 50.5843 31.6012 50.5078 31.3213 50.5078C31.0609 50.5078 30.8477 50.568 30.6816 50.6885C30.5189 50.8089 30.4375 50.9701 30.4375 51.1719C30.4375 51.3542 30.514 51.4958 30.667 51.5967C30.82 51.6976 31.1292 51.8001 31.5947 51.9043C32.0602 52.0052 32.4248 52.1273 32.6885 52.2705C32.9554 52.4105 33.1523 52.5798 33.2793 52.7783C33.4095 52.9769 33.4746 53.2178 33.4746 53.501C33.4746 53.9762 33.2777 54.362 32.8838 54.6582C32.4899 54.9512 31.974 55.0977 31.3359 55.0977C30.903 55.0977 30.5173 55.0195 30.1787 54.8633C29.8402 54.707 29.5765 54.4922 29.3877 54.2188C29.1989 53.9453 29.1045 53.6507 29.1045 53.335H30.2568C30.2731 53.6149 30.3789 53.8314 30.5742 53.9844C30.7695 54.1341 31.0283 54.209 31.3506 54.209C31.6631 54.209 31.9007 54.1504 32.0635 54.0332C32.2262 53.9128 32.3076 53.7565 32.3076 53.5645ZM41.9375 36.3047C41.7448 36.1016 41.4714 36 41.1172 36C40.7682 36 40.4974 36.1016 40.3047 36.3047C40.112 36.5026 40.0156 36.7526 40.0156 37.0547C40.0156 37.3568 40.1146 37.6042 40.3125 37.7969C40.5104 37.9896 40.7786 38.0859 41.1172 38.0859C41.4714 38.0859 41.7448 37.9896 41.9375 37.7969C42.1302 37.599 42.2266 37.3516 42.2266 37.0547C42.2266 36.7526 42.1302 36.5026 41.9375 36.3047ZM41.9375 29.6719C41.7448 29.4688 41.4714 29.3672 41.1172 29.3672C40.7682 29.3672 40.4974 29.4688 40.3047 29.6719C40.112 29.8698 40.0156 30.1198 40.0156 30.4219C40.0156 30.724 40.1146 30.9714 40.3125 31.1641C40.5104 31.3568 40.7786 31.4531 41.1172 31.4531C41.4714 31.4531 41.7448 31.3568 41.9375 31.1641C42.1302 30.9661 42.2266 30.7188 42.2266 30.4219C42.2266 30.1198 42.1302 29.8698 41.9375 29.6719ZM76.1172 36C76.4714 36 76.7448 36.1016 76.9375 36.3047C77.1302 36.5026 77.2266 36.7526 77.2266 37.0547C77.2266 37.3516 77.1302 37.599 76.9375 37.7969C76.7448 37.9896 76.4714 38.0859 76.1172 38.0859C75.7786 38.0859 75.5104 37.9896 75.3125 37.7969C75.1146 37.6042 75.0156 37.3568 75.0156 37.0547C75.0156 36.7526 75.112 36.5026 75.3047 36.3047C75.4974 36.1016 75.7682 36 76.1172 36ZM76.1172 29.3672C76.4714 29.3672 76.7448 29.4688 76.9375 29.6719C77.1302 29.8698 77.2266 30.1198 77.2266 30.4219C77.2266 30.7188 77.1302 30.9661 76.9375 31.1641C76.7448 31.3568 76.4714 31.4531 76.1172 31.4531C75.7786 31.4531 75.5104 31.3568 75.3125 31.1641C75.1146 30.9714 75.0156 30.724 75.0156 30.4219C75.0156 30.1198 75.112 29.8698 75.3047 29.6719C75.4974 29.4688 75.7682 29.3672 76.1172 29.3672ZM110.938 36.3047C110.745 36.1016 110.471 36 110.117 36C109.768 36 109.497 36.1016 109.305 36.3047C109.112 36.5026 109.016 36.7526 109.016 37.0547C109.016 37.3568 109.115 37.6042 109.312 37.7969C109.51 37.9896 109.779 38.0859 110.117 38.0859C110.471 38.0859 110.745 37.9896 110.938 37.7969C111.13 37.599 111.227 37.3516 111.227 37.0547C111.227 36.7526 111.13 36.5026 110.938 36.3047ZM110.938 29.6719C110.745 29.4688 110.471 29.3672 110.117 29.3672C109.768 29.3672 109.497 29.4688 109.305 29.6719C109.112 29.8698 109.016 30.1198 109.016 30.4219C109.016 30.724 109.115 30.9714 109.312 31.1641C109.51 31.3568 109.779 31.4531 110.117 31.4531C110.471 31.4531 110.745 31.3568 110.938 31.1641C111.13 30.9661 111.227 30.7188 111.227 30.4219C111.227 30.1198 111.13 29.8698 110.938 29.6719ZM57.2656 33.2109C57.2656 34.8464 56.9583 36.0807 56.3438 36.9141C55.7344 37.7422 54.8047 38.1562 53.5547 38.1562C52.3255 38.1562 51.3984 37.7526 50.7734 36.9453C50.1536 36.1328 49.8359 34.9323 49.8203 33.3438V31.375C49.8203 29.7396 50.125 28.513 50.7344 27.6953C51.349 26.8776 52.2839 26.4688 53.5391 26.4688C54.7839 26.4688 55.7109 26.8672 56.3203 27.6641C56.9349 28.4609 57.25 29.6536 57.2656 31.2422V33.2109ZM55.3672 31.0859C55.3672 30.0182 55.2214 29.237 54.9297 28.7422C54.638 28.2422 54.1745 27.9922 53.5391 27.9922C52.9193 27.9922 52.4635 28.2292 52.1719 28.7031C51.8802 29.1719 51.7266 29.9062 51.7109 30.9062V33.4844C51.7109 34.5469 51.8594 35.3385 52.1562 35.8594C52.4531 36.3802 52.9193 36.6406 53.5547 36.6406C54.1641 36.6406 54.6146 36.401 54.9062 35.9219C55.1979 35.4375 55.3516 34.6823 55.3672 33.6562V31.0859ZM64.3281 33.2422C63.6927 33.9141 62.9505 34.25 62.1016 34.25C61.1016 34.25 60.3047 33.901 59.7109 33.2031C59.1172 32.5 58.8203 31.5781 58.8203 30.4375C58.8203 29.6875 58.9714 29.0078 59.2734 28.3984C59.5755 27.7891 60.0052 27.3151 60.5625 26.9766C61.1198 26.638 61.7656 26.4688 62.5 26.4688C63.6458 26.4688 64.5547 26.8958 65.2266 27.75C65.8984 28.6042 66.2344 29.7474 66.2344 31.1797V31.7109C66.2344 33.763 65.7708 35.3281 64.8438 36.4062C63.9167 37.4844 62.5339 38.0312 60.6953 38.0469H60.4688V36.4766H60.7422C61.862 36.4609 62.7214 36.1927 63.3203 35.6719C63.9193 35.1458 64.2552 34.3359 64.3281 33.2422ZM62.5 32.7656C62.8802 32.7656 63.237 32.6562 63.5703 32.4375C63.9036 32.2188 64.1615 31.9167 64.3438 31.5312V30.7891C64.3438 29.9505 64.1719 29.276 63.8281 28.7656C63.4844 28.2552 63.0391 28 62.4922 28C61.9453 28 61.5078 28.2266 61.1797 28.6797C60.8568 29.1276 60.6953 29.6953 60.6953 30.3828C60.6953 31.0964 60.8594 31.6719 61.1875 32.1094C61.5156 32.5469 61.9531 32.7656 62.5 32.7656ZM92.6875 33.9453H91.2734V26.625H89.3125L84.4062 34.3125L84.4609 35.4688H89.375V38H91.2734V35.4688H92.6875V33.9453ZM89.375 33.9453H86.3984L89.2344 29.4453L89.375 29.1953V33.9453ZM95.0703 26.625L94.4531 32.3594L95.9688 32.7344C96.25 32.4688 96.5104 32.2917 96.75 32.2031C96.9896 32.1094 97.2812 32.0625 97.625 32.0625C98.2552 32.0625 98.75 32.2656 99.1094 32.6719C99.4688 33.0729 99.6484 33.6198 99.6484 34.3125C99.6484 35.0312 99.4844 35.599 99.1562 36.0156C98.8333 36.4323 98.3802 36.6406 97.7969 36.6406C97.276 36.6406 96.8542 36.4948 96.5312 36.2031C96.2083 35.9062 96.0104 35.4818 95.9375 34.9297H94.1016C94.1589 35.8984 94.5286 36.6797 95.2109 37.2734C95.8984 37.862 96.763 38.1562 97.8047 38.1562C98.9661 38.1562 99.8802 37.8151 100.547 37.1328C101.214 36.4453 101.547 35.5234 101.547 34.3672C101.547 33.1953 101.245 32.263 100.641 31.5703C100.042 30.8776 99.2005 30.5312 98.1172 30.5312C97.4557 30.5312 96.862 30.6823 96.3359 30.9844L96.6484 28.2656H101.18V26.625H95.0703ZM119.047 31.4453H120.203C120.786 31.4401 121.247 31.2891 121.586 30.9922C121.93 30.6953 122.102 30.2656 122.102 29.7031C122.102 29.1615 121.958 28.7422 121.672 28.4453C121.391 28.1432 120.958 27.9922 120.375 27.9922C119.865 27.9922 119.445 28.1406 119.117 28.4375C118.789 28.7292 118.625 29.112 118.625 29.5859H116.727C116.727 29.0026 116.88 28.4714 117.188 27.9922C117.5 27.513 117.932 27.1406 118.484 26.875C119.042 26.6042 119.664 26.4688 120.352 26.4688C121.487 26.4688 122.378 26.7552 123.023 27.3281C123.674 27.8958 124 28.6875 124 29.7031C124 30.2135 123.836 30.6953 123.508 31.1484C123.185 31.5964 122.766 31.9349 122.25 32.1641C122.875 32.3776 123.349 32.7135 123.672 33.1719C124 33.6302 124.164 34.1771 124.164 34.8125C124.164 35.8333 123.812 36.6458 123.109 37.25C122.411 37.8542 121.492 38.1562 120.352 38.1562C119.258 38.1562 118.362 37.8646 117.664 37.2812C116.966 36.6979 116.617 35.9219 116.617 34.9531H118.516C118.516 35.4531 118.682 35.8594 119.016 36.1719C119.354 36.4844 119.807 36.6406 120.375 36.6406C120.964 36.6406 121.427 36.4844 121.766 36.1719C122.104 35.8594 122.273 35.4062 122.273 34.8125C122.273 34.2135 122.096 33.7526 121.742 33.4297C121.388 33.1068 120.862 32.9453 120.164 32.9453H119.047V31.4453ZM131.852 26.5703V28.1406H131.617C130.555 28.1562 129.706 28.4479 129.07 29.0156C128.435 29.5833 128.057 30.388 127.938 31.4297C128.547 30.7891 129.326 30.4688 130.273 30.4688C131.279 30.4688 132.07 30.8229 132.648 31.5312C133.232 32.2396 133.523 33.1536 133.523 34.2734C133.523 35.4297 133.182 36.3672 132.5 37.0859C131.823 37.7995 130.932 38.1562 129.828 38.1562C128.693 38.1562 127.771 37.737 127.062 36.8984C126.359 36.0599 126.008 34.9609 126.008 33.6016V32.9531C126.008 30.9583 126.492 29.3958 127.461 28.2656C128.435 27.1354 129.833 26.5703 131.656 26.5703H131.852ZM129.812 32C129.396 32 129.013 32.1172 128.664 32.3516C128.32 32.5859 128.068 32.8984 127.906 33.2891V33.8672C127.906 34.7109 128.083 35.3828 128.438 35.8828C128.792 36.3776 129.25 36.625 129.812 36.625C130.375 36.625 130.82 36.4141 131.148 35.9922C131.477 35.5703 131.641 35.0156 131.641 34.3281C131.641 33.6406 131.474 33.0807 131.141 32.6484C130.807 32.2161 130.365 32 129.812 32ZM49.1367 55H50.3672V47.8906H49.1367V50.8496H45.958V47.8906H44.7227V55H45.958V51.8408H49.1367V55ZM51.8027 50.9131C51.5977 51.3265 51.4951 51.792 51.4951 52.3096V52.3682C51.4951 53.195 51.7181 53.8574 52.1641 54.3555C52.6133 54.8503 53.2106 55.0977 53.9561 55.0977C54.4443 55.0977 54.874 54.9854 55.2451 54.7607C55.6195 54.5361 55.9059 54.2188 56.1045 53.8086C56.3063 53.3984 56.4072 52.9329 56.4072 52.4121L56.4023 52.1338C56.3665 51.3753 56.1257 50.7666 55.6797 50.3076C55.237 49.8486 54.6592 49.6191 53.9463 49.6191C53.4645 49.6191 53.0381 49.7314 52.667 49.9561C52.2959 50.1774 52.0078 50.4964 51.8027 50.9131ZM53.0186 53.6914C52.7939 53.3822 52.6816 52.9557 52.6816 52.4121C52.6816 51.8001 52.7956 51.3411 53.0234 51.0352C53.2513 50.7259 53.5589 50.5713 53.9463 50.5713C54.3402 50.5713 54.651 50.7275 54.8789 51.04C55.11 51.3525 55.2256 51.7757 55.2256 52.3096C55.2256 52.9118 55.1133 53.3691 54.8887 53.6816C54.6673 53.9941 54.3564 54.1504 53.9561 54.1504C53.5557 54.1504 53.2432 53.9974 53.0186 53.6914ZM59.127 55.0977C59.7682 55.0977 60.263 54.8926 60.6113 54.4824L60.6406 55H61.7588V49.7168H60.5723V53.5107C60.3704 53.9242 59.9814 54.1309 59.4053 54.1309C58.8486 54.1309 58.5703 53.7956 58.5703 53.125V49.7168H57.3838V53.1396C57.3838 53.7744 57.5303 54.2594 57.8232 54.5947C58.1195 54.93 58.554 55.0977 59.127 55.0977ZM65.25 50.7617C65.416 50.7617 65.5771 50.7747 65.7334 50.8008L65.7383 49.6875C65.6276 49.6419 65.4876 49.6191 65.3184 49.6191C64.8105 49.6191 64.4134 49.8486 64.127 50.3076L64.0977 49.7168H62.9648V55H64.1514V51.3867C64.3402 50.9701 64.7064 50.7617 65.25 50.7617ZM69.1807 53.0811C69.3564 53.1917 69.4443 53.3529 69.4443 53.5645C69.4443 53.7565 69.363 53.9128 69.2002 54.0332C69.0374 54.1504 68.7998 54.209 68.4873 54.209C68.165 54.209 67.9062 54.1341 67.7109 53.9844C67.5156 53.8314 67.4098 53.6149 67.3936 53.335H66.2412C66.2412 53.6507 66.3356 53.9453 66.5244 54.2188C66.7132 54.4922 66.9769 54.707 67.3154 54.8633C67.654 55.0195 68.0397 55.0977 68.4727 55.0977C69.1107 55.0977 69.6266 54.9512 70.0205 54.6582C70.4144 54.362 70.6113 53.9762 70.6113 53.501C70.6113 53.2178 70.5462 52.9769 70.416 52.7783C70.2891 52.5798 70.0921 52.4105 69.8252 52.2705C69.5615 52.1273 69.1969 52.0052 68.7314 51.9043C68.2659 51.8001 67.9567 51.6976 67.8037 51.5967C67.6507 51.4958 67.5742 51.3542 67.5742 51.1719C67.5742 50.9701 67.6556 50.8089 67.8184 50.6885C67.9844 50.568 68.1976 50.5078 68.458 50.5078C68.738 50.5078 68.9626 50.5843 69.1318 50.7373C69.3011 50.887 69.3857 51.0758 69.3857 51.3037H70.5723C70.5723 50.8057 70.377 50.4004 69.9863 50.0879C69.599 49.7754 69.0895 49.6191 68.458 49.6191C67.8656 49.6191 67.3773 49.7721 66.9932 50.0781C66.6091 50.3841 66.417 50.765 66.417 51.2207C66.417 51.7643 66.7132 52.1794 67.3057 52.4658C67.5758 52.596 67.9128 52.7035 68.3164 52.7881C68.7201 52.8727 69.0081 52.9704 69.1807 53.0811ZM84.3242 47.8906L86.375 53.3398L88.4209 47.8906H90.0176V55H88.7871V52.6562L88.9092 49.5215L86.8096 55H85.9258L83.8311 49.5264L83.9531 52.6562V55H82.7227V47.8906H84.3242ZM92.6299 55H91.4434V49.7168H92.6299V55ZM91.3701 48.3447C91.3701 48.1624 91.4271 48.0111 91.541 47.8906C91.6582 47.7702 91.8242 47.71 92.0391 47.71C92.2539 47.71 92.4199 47.7702 92.5371 47.8906C92.6543 48.0111 92.7129 48.1624 92.7129 48.3447C92.7129 48.5238 92.6543 48.6735 92.5371 48.7939C92.4199 48.9111 92.2539 48.9697 92.0391 48.9697C91.8242 48.9697 91.6582 48.9111 91.541 48.7939C91.4271 48.6735 91.3701 48.5238 91.3701 48.3447ZM95.0273 49.7168L95.0615 50.3271C95.4521 49.8551 95.9648 49.6191 96.5996 49.6191C97.6999 49.6191 98.2598 50.249 98.2793 51.5088V55H97.0928V51.5771C97.0928 51.2419 97.0195 50.9945 96.873 50.835C96.7298 50.6722 96.4938 50.5908 96.165 50.5908C95.6865 50.5908 95.3301 50.8073 95.0957 51.2402V55H93.9092V49.7168H95.0273ZM102.454 53.5645C102.454 53.3529 102.366 53.1917 102.19 53.0811C102.018 52.9704 101.73 52.8727 101.326 52.7881C100.923 52.7035 100.586 52.596 100.315 52.4658C99.723 52.1794 99.4268 51.7643 99.4268 51.2207C99.4268 50.765 99.6188 50.3841 100.003 50.0781C100.387 49.7721 100.875 49.6191 101.468 49.6191C102.099 49.6191 102.609 49.7754 102.996 50.0879C103.387 50.4004 103.582 50.8057 103.582 51.3037H102.396C102.396 51.0758 102.311 50.887 102.142 50.7373C101.972 50.5843 101.748 50.5078 101.468 50.5078C101.207 50.5078 100.994 50.568 100.828 50.6885C100.665 50.8089 100.584 50.9701 100.584 51.1719C100.584 51.3542 100.66 51.4958 100.813 51.5967C100.966 51.6976 101.276 51.8001 101.741 51.9043C102.207 52.0052 102.571 52.1273 102.835 52.2705C103.102 52.4105 103.299 52.5798 103.426 52.7783C103.556 52.9769 103.621 53.2178 103.621 53.501C103.621 53.9762 103.424 54.362 103.03 54.6582C102.636 54.9512 102.12 55.0977 101.482 55.0977C101.049 55.0977 100.664 55.0195 100.325 54.8633C99.9867 54.707 99.723 54.4922 99.5342 54.2188C99.3454 53.9453 99.251 53.6507 99.251 53.335H100.403C100.42 53.6149 100.525 53.8314 100.721 53.9844C100.916 54.1341 101.175 54.209 101.497 54.209C101.81 54.209 102.047 54.1504 102.21 54.0332C102.373 53.9128 102.454 53.7565 102.454 53.5645ZM118.106 52.4463C118.328 52.6156 118.438 52.8564 118.438 53.1689C118.438 53.4554 118.329 53.6865 118.111 53.8623C117.896 54.0348 117.574 54.1211 117.145 54.1211C116.646 54.1211 116.264 54.0104 115.997 53.7891C115.73 53.5677 115.597 53.2552 115.597 52.8516H114.361C114.361 53.2975 114.48 53.6882 114.718 54.0234C114.959 54.3587 115.294 54.6224 115.724 54.8145C116.157 55.0033 116.63 55.0977 117.145 55.0977C117.923 55.0977 118.538 54.9235 118.99 54.5752C119.446 54.2236 119.674 53.7516 119.674 53.1592C119.674 52.7946 119.596 52.4772 119.439 52.207C119.283 51.9336 119.037 51.6927 118.702 51.4844C118.367 51.2728 117.923 51.0856 117.369 50.9229C116.816 50.7568 116.419 50.5876 116.178 50.415C115.937 50.2393 115.816 50.0212 115.816 49.7607C115.816 49.4515 115.927 49.2106 116.148 49.0381C116.373 48.8656 116.687 48.7793 117.091 48.7793C117.524 48.7793 117.856 48.8851 118.087 49.0967C118.321 49.305 118.438 49.5947 118.438 49.9658H119.669C119.669 49.5557 119.558 49.1829 119.337 48.8477C119.116 48.5091 118.811 48.2487 118.424 48.0664C118.036 47.8841 117.595 47.793 117.101 47.793C116.355 47.793 115.748 47.9785 115.279 48.3496C114.814 48.7207 114.581 49.1927 114.581 49.7656C114.581 50.4199 114.905 50.9505 115.553 51.3574C115.891 51.569 116.347 51.7611 116.92 51.9336C117.493 52.1061 117.888 52.277 118.106 52.4463ZM121.139 54.3896C121.607 54.8617 122.218 55.0977 122.97 55.0977C123.409 55.0977 123.805 55.0114 124.156 54.8389C124.511 54.6631 124.794 54.4173 125.006 54.1016L124.366 53.4912C124.024 53.9307 123.582 54.1504 123.038 54.1504C122.651 54.1504 122.328 54.0234 122.071 53.7695C121.817 53.5156 121.673 53.1706 121.637 52.7344H125.089V52.2559C125.089 51.416 124.892 50.7666 124.498 50.3076C124.107 49.8486 123.552 49.6191 122.833 49.6191C122.381 49.6191 121.97 49.7347 121.603 49.9658C121.235 50.1969 120.948 50.5208 120.743 50.9375C120.541 51.3509 120.44 51.8213 120.44 52.3486V52.4951C120.44 53.2829 120.673 53.9144 121.139 54.3896ZM122.037 50.9131C122.239 50.6852 122.503 50.5713 122.828 50.5713C123.157 50.5713 123.414 50.6738 123.6 50.8789C123.785 51.0807 123.891 51.3802 123.917 51.7773V51.8652H121.656C121.712 51.4583 121.839 51.141 122.037 50.9131ZM128.922 53.8916C128.727 54.0641 128.481 54.1504 128.185 54.1504C127.794 54.1504 127.494 54.0104 127.286 53.7305C127.081 53.4473 126.979 53.0192 126.979 52.4463V52.2559C126.982 51.6895 127.088 51.2679 127.296 50.9912C127.504 50.7113 127.8 50.5713 128.185 50.5713C128.484 50.5713 128.73 50.6689 128.922 50.8643C129.117 51.0596 129.221 51.3086 129.234 51.6113H130.353C130.333 51.0156 130.125 50.5355 129.728 50.1709C129.334 49.8031 128.823 49.6191 128.194 49.6191C127.452 49.6191 126.866 49.8617 126.437 50.3467C126.007 50.8285 125.792 51.4714 125.792 52.2754V52.3975C125.792 53.2406 126.008 53.9014 126.441 54.3799C126.874 54.8584 127.46 55.0977 128.199 55.0977C128.58 55.0977 128.935 55.0146 129.264 54.8486C129.592 54.6826 129.853 54.458 130.045 54.1748C130.237 53.8883 130.34 53.5807 130.353 53.252H129.234C129.221 53.5059 129.117 53.7191 128.922 53.8916ZM133.946 53.0811C134.122 53.1917 134.21 53.3529 134.21 53.5645C134.21 53.7565 134.129 53.9128 133.966 54.0332C133.803 54.1504 133.565 54.209 133.253 54.209C132.931 54.209 132.672 54.1341 132.477 53.9844C132.281 53.8314 132.175 53.6149 132.159 53.335H131.007C131.007 53.6507 131.101 53.9453 131.29 54.2188C131.479 54.4922 131.743 54.707 132.081 54.8633C132.42 55.0195 132.805 55.0977 133.238 55.0977C133.876 55.0977 134.392 54.9512 134.786 54.6582C135.18 54.362 135.377 53.9762 135.377 53.501C135.377 53.2178 135.312 52.9769 135.182 52.7783C135.055 52.5798 134.858 52.4105 134.591 52.2705C134.327 52.1273 133.963 52.0052 133.497 51.9043C133.032 51.8001 132.722 51.6976 132.569 51.5967C132.416 51.4958 132.34 51.3542 132.34 51.1719C132.34 50.9701 132.421 50.8089 132.584 50.6885C132.75 50.568 132.963 50.5078 133.224 50.5078C133.504 50.5078 133.728 50.5843 133.897 50.7373C134.067 50.887 134.151 51.0758 134.151 51.3037H135.338C135.338 50.8057 135.143 50.4004 134.752 50.0879C134.365 49.7754 133.855 49.6191 133.224 49.6191C132.631 49.6191 132.143 49.7721 131.759 50.0781C131.375 50.3841 131.183 50.765 131.183 51.2207C131.183 51.7643 131.479 52.1794 132.071 52.4658C132.341 52.596 132.678 52.7035 133.082 52.7881C133.486 52.8727 133.774 52.9704 133.946 53.0811Z" fill="#5D6B82"/>
</svg>
