<svg width="148" height="80" viewBox="0 0 148 80" fill="none" xmlns="http://www.w3.org/2000/svg">
<rect width="148" height="80" rx="2" fill="#D1D5DB"/>
<rect x="1" y="1" width="146" height="78" rx="1" fill="#FAFBFB"/>
<path fill-rule="evenodd" clip-rule="evenodd" d="M14 19H134V61H14V19ZM12 17H14H134H136V19V61V63H134H14H12V61V19V17ZM42 23H44V58H42V23ZM23.0078 38H24.8984V26.5859H24.6562L20.2188 28.2188V29.8203L23.0078 28.8672V38ZM28.8516 38H36.5V36.4844H31.2188L34 33.5078C34.7292 32.7161 35.2526 32.0104 35.5703 31.3906C35.8932 30.7656 36.0547 30.1693 36.0547 29.6016C36.0547 28.6224 35.7344 27.8568 35.0938 27.3047C34.4583 26.7474 33.5885 26.4688 32.4844 26.4688C31.7188 26.4688 31.0417 26.6224 30.4531 26.9297C29.8698 27.237 29.4193 27.6693 29.1016 28.2266C28.7891 28.7786 28.6328 29.401 28.6328 30.0938H30.5312C30.5312 29.4427 30.7005 28.9297 31.0391 28.5547C31.3776 28.1797 31.8542 27.9922 32.4688 27.9922C32.9844 27.9922 33.3932 28.1589 33.6953 28.4922C34.0026 28.8255 34.1562 29.263 34.1562 29.8047C34.1562 30.2161 34.0391 30.6276 33.8047 31.0391C33.5755 31.4453 33.1875 31.9531 32.6406 32.5625L28.8516 36.6953V38ZM17.7705 47.8906V55H19.8164C20.4577 55 21.0257 54.8617 21.5205 54.585C22.0186 54.3083 22.401 53.9144 22.668 53.4033C22.9382 52.8923 23.0732 52.2998 23.0732 51.626V51.2695C23.0732 50.6055 22.9398 50.0163 22.6729 49.502C22.4059 48.9876 22.0283 48.5905 21.54 48.3105C21.055 48.0306 20.4984 47.8906 19.8701 47.8906H17.7705ZM19.0059 54.0137V48.8867H19.8701C20.5081 48.8867 20.9948 49.0902 21.3301 49.4971C21.6654 49.904 21.833 50.4932 21.833 51.2646V51.6602C21.8265 52.4186 21.6491 53.0013 21.3008 53.4082C20.9557 53.8118 20.4593 54.0137 19.8115 54.0137H19.0059ZM27.209 54.5068C27.248 54.7347 27.2936 54.8991 27.3457 55H28.5566V54.917C28.4232 54.6338 28.3564 54.2546 28.3564 53.7793V51.3965C28.3467 50.8333 28.1579 50.3971 27.79 50.0879C27.4222 49.7754 26.929 49.6191 26.3105 49.6191C25.9036 49.6191 25.5342 49.6908 25.2021 49.834C24.8734 49.9772 24.613 50.1758 24.4209 50.4297C24.2288 50.6803 24.1328 50.9505 24.1328 51.2402H25.3193C25.3193 51.0319 25.4056 50.861 25.5781 50.7275C25.7507 50.5908 25.972 50.5225 26.2422 50.5225C26.5547 50.5225 26.7874 50.6055 26.9404 50.7715C27.0934 50.9342 27.1699 51.1523 27.1699 51.4258V51.7725H26.4424C25.6644 51.7725 25.0654 51.9238 24.6455 52.2266C24.2288 52.526 24.0205 52.9574 24.0205 53.5205C24.0205 53.9665 24.1882 54.3408 24.5234 54.6436C24.8587 54.9463 25.2917 55.0977 25.8223 55.0977C26.3691 55.0977 26.8314 54.9007 27.209 54.5068ZM26.7012 53.9746C26.4961 54.0885 26.2764 54.1455 26.042 54.1455C25.7881 54.1455 25.5846 54.0788 25.4316 53.9453C25.2819 53.8086 25.207 53.6263 25.207 53.3984C25.207 53.1185 25.3177 52.902 25.5391 52.749C25.7604 52.596 26.0908 52.5195 26.5303 52.5195H27.1699V53.5156C27.0658 53.7077 26.9095 53.8607 26.7012 53.9746ZM32.4434 49.7168L31.3691 53.3008L30.251 49.7168H28.9717L30.8271 54.9756L30.6562 55.4297C30.5684 55.6868 30.4479 55.8691 30.2949 55.9766C30.1452 56.0872 29.9206 56.1426 29.6211 56.1426L29.3965 56.1279V57.0459C29.6048 57.1045 29.7952 57.1338 29.9678 57.1338C30.7393 57.1338 31.2861 56.6895 31.6084 55.8008L33.708 49.7168H32.4434ZM37.0918 53.0811C37.2676 53.1917 37.3555 53.3529 37.3555 53.5645C37.3555 53.7565 37.2741 53.9128 37.1113 54.0332C36.9486 54.1504 36.7109 54.209 36.3984 54.209C36.0762 54.209 35.8174 54.1341 35.6221 53.9844C35.4268 53.8314 35.321 53.6149 35.3047 53.335H34.1523C34.1523 53.6507 34.2467 53.9453 34.4355 54.2188C34.6243 54.4922 34.888 54.707 35.2266 54.8633C35.5651 55.0195 35.9508 55.0977 36.3838 55.0977C37.0218 55.0977 37.5378 54.9512 37.9316 54.6582C38.3255 54.362 38.5225 53.9762 38.5225 53.501C38.5225 53.2178 38.4574 52.9769 38.3271 52.7783C38.2002 52.5798 38.0033 52.4105 37.7363 52.2705C37.4727 52.1273 37.1081 52.0052 36.6426 51.9043C36.1771 51.8001 35.8678 51.6976 35.7148 51.5967C35.5618 51.4958 35.4854 51.3542 35.4854 51.1719C35.4854 50.9701 35.5667 50.8089 35.7295 50.6885C35.8955 50.568 36.1087 50.5078 36.3691 50.5078C36.6491 50.5078 36.8737 50.5843 37.043 50.7373C37.2122 50.887 37.2969 51.0758 37.2969 51.3037H38.4834C38.4834 50.8057 38.2881 50.4004 37.8975 50.0879C37.5101 49.7754 37.0007 49.6191 36.3691 49.6191C35.7767 49.6191 35.2884 49.7721 34.9043 50.0781C34.5202 50.3841 34.3281 50.765 34.3281 51.2207C34.3281 51.7643 34.6243 52.1794 35.2168 52.4658C35.487 52.596 35.8239 52.7034 36.2275 52.7881C36.6312 52.8727 36.9193 52.9704 37.0918 53.0811ZM57.6719 33.2109C57.6719 34.8464 57.3646 36.0807 56.75 36.9141C56.1406 37.7422 55.2109 38.1562 53.9609 38.1562C52.7318 38.1562 51.8047 37.7526 51.1797 36.9453C50.5599 36.1328 50.2422 34.9323 50.2266 33.3438V31.375C50.2266 29.7396 50.5312 28.513 51.1406 27.6953C51.7552 26.8776 52.6901 26.4688 53.9453 26.4688C55.1901 26.4688 56.1172 26.8672 56.7266 27.6641C57.3411 28.4609 57.6562 29.6536 57.6719 31.2422V33.2109ZM55.7734 31.0859C55.7734 30.0182 55.6276 29.237 55.3359 28.7422C55.0443 28.2422 54.5807 27.9922 53.9453 27.9922C53.3255 27.9922 52.8698 28.2292 52.5781 28.7031C52.2865 29.1719 52.1328 29.9062 52.1172 30.9062V33.4844C52.1172 34.5469 52.2656 35.3385 52.5625 35.8594C52.8594 36.3802 53.3255 36.6406 53.9609 36.6406C54.5703 36.6406 55.0208 36.401 55.3125 35.9219C55.6042 35.4375 55.7578 34.6823 55.7734 33.6562V31.0859ZM64.7344 33.2422C64.099 33.9141 63.3568 34.25 62.5078 34.25C61.5078 34.25 60.7109 33.901 60.1172 33.2031C59.5234 32.5 59.2266 31.5781 59.2266 30.4375C59.2266 29.6875 59.3776 29.0078 59.6797 28.3984C59.9818 27.7891 60.4115 27.3151 60.9688 26.9766C61.526 26.638 62.1719 26.4688 62.9062 26.4688C64.0521 26.4688 64.9609 26.8958 65.6328 27.75C66.3047 28.6042 66.6406 29.7474 66.6406 31.1797V31.7109C66.6406 33.763 66.1771 35.3281 65.25 36.4062C64.3229 37.4844 62.9401 38.0312 61.1016 38.0469H60.875V36.4766H61.1484C62.2682 36.4609 63.1276 36.1927 63.7266 35.6719C64.3255 35.1458 64.6615 34.3359 64.7344 33.2422ZM62.9062 32.7656C63.2865 32.7656 63.6432 32.6562 63.9766 32.4375C64.3099 32.2188 64.5677 31.9167 64.75 31.5312V30.7891C64.75 29.9505 64.5781 29.276 64.2344 28.7656C63.8906 28.2552 63.4453 28 62.8984 28C62.3516 28 61.9141 28.2266 61.5859 28.6797C61.263 29.1276 61.1016 29.6953 61.1016 30.3828C61.1016 31.0964 61.2656 31.6719 61.5938 32.1094C61.9219 32.5469 62.3594 32.7656 62.9062 32.7656ZM89.0938 33.9453H87.6797V26.625H85.7188L80.8125 34.3125L80.8672 35.4688H85.7812V38H87.6797V35.4688H89.0938V33.9453ZM85.7812 33.9453H82.8047L85.6406 29.4453L85.7812 29.1953V33.9453ZM91.4766 26.625L90.8594 32.3594L92.375 32.7344C92.6562 32.4688 92.9167 32.2917 93.1562 32.2031C93.3958 32.1094 93.6875 32.0625 94.0312 32.0625C94.6615 32.0625 95.1562 32.2656 95.5156 32.6719C95.875 33.0729 96.0547 33.6198 96.0547 34.3125C96.0547 35.0312 95.8906 35.599 95.5625 36.0156C95.2396 36.4323 94.7865 36.6406 94.2031 36.6406C93.6823 36.6406 93.2604 36.4948 92.9375 36.2031C92.6146 35.9062 92.4167 35.4818 92.3438 34.9297H90.5078C90.5651 35.8984 90.9349 36.6797 91.6172 37.2734C92.3047 37.862 93.1693 38.1562 94.2109 38.1562C95.3724 38.1562 96.2865 37.8151 96.9531 37.1328C97.6198 36.4453 97.9531 35.5234 97.9531 34.3672C97.9531 33.1953 97.651 32.263 97.0469 31.5703C96.4479 30.8776 95.6068 30.5312 94.5234 30.5312C93.862 30.5312 93.2682 30.6823 92.7422 30.9844L93.0547 28.2656H97.5859V26.625H91.4766ZM113.953 31.4453H115.109C115.693 31.4401 116.154 31.2891 116.492 30.9922C116.836 30.6953 117.008 30.2656 117.008 29.7031C117.008 29.1615 116.865 28.7422 116.578 28.4453C116.297 28.1432 115.865 27.9922 115.281 27.9922C114.771 27.9922 114.352 28.1406 114.023 28.4375C113.695 28.7292 113.531 29.112 113.531 29.5859H111.633C111.633 29.0026 111.786 28.4714 112.094 27.9922C112.406 27.513 112.839 27.1406 113.391 26.875C113.948 26.6042 114.57 26.4688 115.258 26.4688C116.393 26.4688 117.284 26.7552 117.93 27.3281C118.581 27.8958 118.906 28.6875 118.906 29.7031C118.906 30.2135 118.742 30.6953 118.414 31.1484C118.091 31.5964 117.672 31.9349 117.156 32.1641C117.781 32.3776 118.255 32.7135 118.578 33.1719C118.906 33.6302 119.07 34.1771 119.07 34.8125C119.07 35.8333 118.719 36.6458 118.016 37.25C117.318 37.8542 116.398 38.1562 115.258 38.1562C114.164 38.1562 113.268 37.8646 112.57 37.2812C111.872 36.6979 111.523 35.9219 111.523 34.9531H113.422C113.422 35.4531 113.589 35.8594 113.922 36.1719C114.26 36.4844 114.714 36.6406 115.281 36.6406C115.87 36.6406 116.333 36.4844 116.672 36.1719C117.01 35.8594 117.18 35.4062 117.18 34.8125C117.18 34.2135 117.003 33.7526 116.648 33.4297C116.294 33.1068 115.768 32.9453 115.07 32.9453H113.953V31.4453ZM126.758 26.5703V28.1406H126.523C125.461 28.1562 124.612 28.4479 123.977 29.0156C123.341 29.5833 122.964 30.388 122.844 31.4297C123.453 30.7891 124.232 30.4688 125.18 30.4688C126.185 30.4688 126.977 30.8229 127.555 31.5312C128.138 32.2396 128.43 33.1536 128.43 34.2734C128.43 35.4297 128.089 36.3672 127.406 37.0859C126.729 37.7995 125.839 38.1562 124.734 38.1562C123.599 38.1562 122.677 37.737 121.969 36.8984C121.266 36.0599 120.914 34.9609 120.914 33.6016V32.9531C120.914 30.9583 121.398 29.3958 122.367 28.2656C123.341 27.1354 124.74 26.5703 126.562 26.5703H126.758ZM124.719 32C124.302 32 123.919 32.1172 123.57 32.3516C123.227 32.5859 122.974 32.8984 122.812 33.2891V33.8672C122.812 34.7109 122.99 35.3828 123.344 35.8828C123.698 36.3776 124.156 36.625 124.719 36.625C125.281 36.625 125.727 36.4141 126.055 35.9922C126.383 35.5703 126.547 35.0156 126.547 34.3281C126.547 33.6406 126.38 33.0807 126.047 32.6484C125.714 32.2161 125.271 32 124.719 32ZM50.1162 55H51.3467V47.8906H50.1162V50.8496H46.9375V47.8906H45.7021V55H46.9375V51.8408H50.1162V55ZM52.7822 50.9131C52.5771 51.3265 52.4746 51.792 52.4746 52.3096V52.3682C52.4746 53.195 52.6976 53.8574 53.1436 54.3555C53.5928 54.8503 54.1901 55.0977 54.9355 55.0977C55.4238 55.0977 55.8535 54.9854 56.2246 54.7607C56.599 54.5361 56.8854 54.2188 57.084 53.8086C57.2858 53.3984 57.3867 52.9329 57.3867 52.4121L57.3818 52.1338C57.346 51.3753 57.1051 50.7666 56.6592 50.3076C56.2165 49.8486 55.6387 49.6191 54.9258 49.6191C54.444 49.6191 54.0176 49.7314 53.6465 49.9561C53.2754 50.1774 52.9873 50.4964 52.7822 50.9131ZM53.998 53.6914C53.7734 53.3822 53.6611 52.9557 53.6611 52.4121C53.6611 51.8001 53.7751 51.3411 54.0029 51.0352C54.2308 50.7259 54.5384 50.5713 54.9258 50.5713C55.3197 50.5713 55.6305 50.7275 55.8584 51.04C56.0895 51.3525 56.2051 51.7757 56.2051 52.3096C56.2051 52.9118 56.0928 53.3691 55.8682 53.6816C55.6468 53.9941 55.3359 54.1504 54.9355 54.1504C54.5352 54.1504 54.2227 53.9974 53.998 53.6914ZM60.1064 55.0977C60.7477 55.0977 61.2425 54.8926 61.5908 54.4824L61.6201 55H62.7383V49.7168H61.5518V53.5107C61.3499 53.9242 60.9609 54.1309 60.3848 54.1309C59.8281 54.1309 59.5498 53.7956 59.5498 53.125V49.7168H58.3633V53.1396C58.3633 53.7744 58.5098 54.2594 58.8027 54.5947C59.099 54.93 59.5335 55.0977 60.1064 55.0977ZM66.2295 50.7617C66.3955 50.7617 66.5566 50.7747 66.7129 50.8008L66.7178 49.6875C66.6071 49.6419 66.4671 49.6191 66.2979 49.6191C65.79 49.6191 65.3929 49.8486 65.1064 50.3076L65.0771 49.7168H63.9443V55H65.1309V51.3867C65.3197 50.9701 65.6859 50.7617 66.2295 50.7617ZM70.1602 53.0811C70.3359 53.1917 70.4238 53.3529 70.4238 53.5645C70.4238 53.7565 70.3424 53.9128 70.1797 54.0332C70.0169 54.1504 69.7793 54.209 69.4668 54.209C69.1445 54.209 68.8857 54.1341 68.6904 53.9844C68.4951 53.8314 68.3893 53.6149 68.373 53.335H67.2207C67.2207 53.6507 67.3151 53.9453 67.5039 54.2188C67.6927 54.4922 67.9564 54.707 68.2949 54.8633C68.6335 55.0195 69.0192 55.0977 69.4521 55.0977C70.0902 55.0977 70.6061 54.9512 71 54.6582C71.3939 54.362 71.5908 53.9762 71.5908 53.501C71.5908 53.2178 71.5257 52.9769 71.3955 52.7783C71.2686 52.5798 71.0716 52.4105 70.8047 52.2705C70.541 52.1273 70.1764 52.0052 69.7109 51.9043C69.2454 51.8001 68.9362 51.6976 68.7832 51.5967C68.6302 51.4958 68.5537 51.3542 68.5537 51.1719C68.5537 50.9701 68.6351 50.8089 68.7979 50.6885C68.9639 50.568 69.1771 50.5078 69.4375 50.5078C69.7174 50.5078 69.9421 50.5843 70.1113 50.7373C70.2806 50.887 70.3652 51.0758 70.3652 51.3037H71.5518C71.5518 50.8057 71.3564 50.4004 70.9658 50.0879C70.5784 49.7754 70.069 49.6191 69.4375 49.6191C68.8451 49.6191 68.3568 49.7721 67.9727 50.0781C67.5885 50.3841 67.3965 50.765 67.3965 51.2207C67.3965 51.7643 67.6927 52.1794 68.2852 52.4658C68.5553 52.596 68.8923 52.7034 69.2959 52.7881C69.6995 52.8727 69.9876 52.9704 70.1602 53.0811ZM80.7988 47.8906L82.8496 53.3398L84.8955 47.8906H86.4922V55H85.2617V52.6562L85.3838 49.5215L83.2842 55H82.4004L80.3057 49.5264L80.4277 52.6562V55H79.1973V47.8906H80.7988ZM89.1045 55H87.918V49.7168H89.1045V55ZM87.8447 48.3447C87.8447 48.1624 87.9017 48.0111 88.0156 47.8906C88.1328 47.7702 88.2988 47.71 88.5137 47.71C88.7285 47.71 88.8945 47.7702 89.0117 47.8906C89.1289 48.0111 89.1875 48.1624 89.1875 48.3447C89.1875 48.5238 89.1289 48.6735 89.0117 48.7939C88.8945 48.9111 88.7285 48.9697 88.5137 48.9697C88.2988 48.9697 88.1328 48.9111 88.0156 48.7939C87.9017 48.6735 87.8447 48.5238 87.8447 48.3447ZM91.502 49.7168L91.5361 50.3271C91.9268 49.8551 92.4395 49.6191 93.0742 49.6191C94.1745 49.6191 94.7344 50.249 94.7539 51.5088V55H93.5674V51.5771C93.5674 51.2419 93.4941 50.9945 93.3477 50.835C93.2044 50.6722 92.9684 50.5908 92.6396 50.5908C92.1611 50.5908 91.8047 50.8073 91.5703 51.2402V55H90.3838V49.7168H91.502ZM98.9287 53.5645C98.9287 53.3529 98.8408 53.1917 98.665 53.0811C98.4925 52.9704 98.2044 52.8727 97.8008 52.7881C97.3971 52.7034 97.0602 52.596 96.79 52.4658C96.1976 52.1794 95.9014 51.7643 95.9014 51.2207C95.9014 50.765 96.0934 50.3841 96.4775 50.0781C96.8617 49.7721 97.3499 49.6191 97.9424 49.6191C98.5739 49.6191 99.0833 49.7754 99.4707 50.0879C99.8613 50.4004 100.057 50.8057 100.057 51.3037H98.8701C98.8701 51.0758 98.7855 50.887 98.6162 50.7373C98.4469 50.5843 98.2223 50.5078 97.9424 50.5078C97.682 50.5078 97.4688 50.568 97.3027 50.6885C97.14 50.8089 97.0586 50.9701 97.0586 51.1719C97.0586 51.3542 97.1351 51.4958 97.2881 51.5967C97.4411 51.6976 97.7503 51.8001 98.2158 51.9043C98.6813 52.0052 99.0459 52.1273 99.3096 52.2705C99.5765 52.4105 99.7734 52.5798 99.9004 52.7783C100.031 52.9769 100.096 53.2178 100.096 53.501C100.096 53.9762 99.8988 54.362 99.5049 54.6582C99.111 54.9512 98.5951 55.0977 97.957 55.0977C97.5241 55.0977 97.1383 55.0195 96.7998 54.8633C96.4613 54.707 96.1976 54.4922 96.0088 54.2188C95.82 53.9453 95.7256 53.6507 95.7256 53.335H96.8779C96.8942 53.6149 97 53.8314 97.1953 53.9844C97.3906 54.1341 97.6494 54.209 97.9717 54.209C98.2842 54.209 98.5218 54.1504 98.6846 54.0332C98.8473 53.9128 98.9287 53.7565 98.9287 53.5645ZM113.203 52.4463C113.424 52.6156 113.535 52.8564 113.535 53.1689C113.535 53.4554 113.426 53.6865 113.208 53.8623C112.993 54.0348 112.671 54.1211 112.241 54.1211C111.743 54.1211 111.361 54.0104 111.094 53.7891C110.827 53.5677 110.693 53.2552 110.693 52.8516H109.458C109.458 53.2975 109.577 53.6882 109.814 54.0234C110.055 54.3587 110.391 54.6224 110.82 54.8145C111.253 55.0033 111.727 55.0977 112.241 55.0977C113.019 55.0977 113.634 54.9235 114.087 54.5752C114.543 54.2236 114.771 53.7516 114.771 53.1592C114.771 52.7946 114.692 52.4772 114.536 52.207C114.38 51.9336 114.134 51.6927 113.799 51.4844C113.464 51.2728 113.019 51.0856 112.466 50.9229C111.912 50.7568 111.515 50.5876 111.274 50.415C111.034 50.2393 110.913 50.0212 110.913 49.7607C110.913 49.4515 111.024 49.2106 111.245 49.0381C111.47 48.8656 111.784 48.7793 112.188 48.7793C112.62 48.7793 112.952 48.8851 113.184 49.0967C113.418 49.305 113.535 49.5947 113.535 49.9658H114.766C114.766 49.5557 114.655 49.1829 114.434 48.8477C114.212 48.5091 113.908 48.2487 113.521 48.0664C113.133 47.8841 112.692 47.793 112.197 47.793C111.452 47.793 110.845 47.9785 110.376 48.3496C109.91 48.7207 109.678 49.1927 109.678 49.7656C109.678 50.4199 110.002 50.9505 110.649 51.3574C110.988 51.569 111.444 51.7611 112.017 51.9336C112.59 52.1061 112.985 52.277 113.203 52.4463ZM116.235 54.3896C116.704 54.8617 117.314 55.0977 118.066 55.0977C118.506 55.0977 118.901 55.0114 119.253 54.8389C119.608 54.6631 119.891 54.4173 120.103 54.1016L119.463 53.4912C119.121 53.9307 118.678 54.1504 118.135 54.1504C117.747 54.1504 117.425 54.0234 117.168 53.7695C116.914 53.5156 116.769 53.1706 116.733 52.7344H120.186V52.2559C120.186 51.416 119.989 50.7666 119.595 50.3076C119.204 49.8486 118.649 49.6191 117.93 49.6191C117.477 49.6191 117.067 49.7347 116.699 49.9658C116.331 50.1969 116.045 50.5208 115.84 50.9375C115.638 51.3509 115.537 51.8213 115.537 52.3486V52.4951C115.537 53.2829 115.77 53.9144 116.235 54.3896ZM117.134 50.9131C117.336 50.6852 117.599 50.5713 117.925 50.5713C118.254 50.5713 118.511 50.6738 118.696 50.8789C118.882 51.0807 118.988 51.3802 119.014 51.7773V51.8652H116.753C116.808 51.4583 116.935 51.1409 117.134 50.9131ZM124.019 53.8916C123.823 54.0641 123.577 54.1504 123.281 54.1504C122.891 54.1504 122.591 54.0104 122.383 53.7305C122.178 53.4473 122.075 53.0192 122.075 52.4463V52.2559C122.078 51.6895 122.184 51.2679 122.393 50.9912C122.601 50.7113 122.897 50.5713 123.281 50.5713C123.581 50.5713 123.826 50.6689 124.019 50.8643C124.214 51.0596 124.318 51.3086 124.331 51.6113H125.449C125.43 51.0156 125.221 50.5355 124.824 50.1709C124.43 49.8031 123.919 49.6191 123.291 49.6191C122.549 49.6191 121.963 49.8617 121.533 50.3467C121.104 50.8284 120.889 51.4714 120.889 52.2754V52.3975C120.889 53.2406 121.105 53.9014 121.538 54.3799C121.971 54.8584 122.557 55.0977 123.296 55.0977C123.677 55.0977 124.032 55.0146 124.36 54.8486C124.689 54.6826 124.95 54.458 125.142 54.1748C125.334 53.8883 125.436 53.5807 125.449 53.252H124.331C124.318 53.5059 124.214 53.7191 124.019 53.8916ZM129.043 53.0811C129.219 53.1917 129.307 53.3529 129.307 53.5645C129.307 53.7565 129.225 53.9128 129.062 54.0332C128.9 54.1504 128.662 54.209 128.35 54.209C128.027 54.209 127.769 54.1341 127.573 53.9844C127.378 53.8314 127.272 53.6149 127.256 53.335H126.104C126.104 53.6507 126.198 53.9453 126.387 54.2188C126.576 54.4922 126.839 54.707 127.178 54.8633C127.516 55.0195 127.902 55.0977 128.335 55.0977C128.973 55.0977 129.489 54.9512 129.883 54.6582C130.277 54.362 130.474 53.9762 130.474 53.501C130.474 53.2178 130.409 52.9769 130.278 52.7783C130.151 52.5798 129.954 52.4105 129.688 52.2705C129.424 52.1273 129.059 52.0052 128.594 51.9043C128.128 51.8001 127.819 51.6976 127.666 51.5967C127.513 51.4958 127.437 51.3542 127.437 51.1719C127.437 50.9701 127.518 50.8089 127.681 50.6885C127.847 50.568 128.06 50.5078 128.32 50.5078C128.6 50.5078 128.825 50.5843 128.994 50.7373C129.163 50.887 129.248 51.0758 129.248 51.3037H130.435C130.435 50.8057 130.239 50.4004 129.849 50.0879C129.461 49.7754 128.952 49.6191 128.32 49.6191C127.728 49.6191 127.24 49.7721 126.855 50.0781C126.471 50.3841 126.279 50.765 126.279 51.2207C126.279 51.7643 126.576 52.1794 127.168 52.4658C127.438 52.596 127.775 52.7034 128.179 52.7881C128.582 52.8727 128.87 52.9704 129.043 53.0811ZM75 23H73V58H75V23ZM104 23H106V58H104V23Z" fill="#5D6B82"/>
</svg>
