<?xml version="1.0" encoding="UTF-8"?>
<svg width="148px" height="80px" viewBox="0 0 148 80" version="1.1" xmlns="http://www.w3.org/2000/svg" xmlns:xlink="http://www.w3.org/1999/xlink">
    <!-- Generator: Sketch 50.2 (55047) - http://www.bohemiancoding.com/sketch -->
    <title>HTML</title>
    <desc>Created with Sketch.</desc>
    <defs></defs>
    <g id="HTML" stroke="none" stroke-width="1" fill="none" fill-rule="evenodd">
        <rect id="Rectangle-4" fill="#D1D5DB" x="0" y="0" width="148" height="80" rx="2"></rect>
        <rect id="Rectangle-3" fill="#FAFBFB" x="1" y="1" width="146" height="78" rx="1"></rect>
        <g id="Group" transform="translate(25.000000, 20.000000)" fill="#5D6B82">
            <path d="M49.9091797,20.8496094 C49.8089188,21.9114636 49.4169956,22.7397431 48.7333984,23.3344727 C48.0498013,23.9292022 47.1406307,24.2265625 46.0058594,24.2265625 C45.2128867,24.2265625 44.5144887,24.0385761 43.9106445,23.6625977 C43.3068004,23.2866192 42.840822,22.7522821 42.5126953,22.0595703 C42.1845687,21.3668585 42.0136719,20.5625046 42,19.6464844 L42,18.7167969 C42,17.7779901 42.1663395,16.9508499 42.4990234,16.2353516 C42.8317074,15.5198532 43.3090789,14.9684264 43.9311523,14.5810547 C44.5532258,14.193683 45.2721313,14 46.0878906,14 C47.1862034,14 48.0703092,14.2984996 48.7402344,14.8955078 C49.4101596,15.492516 49.7998041,16.3356065 49.9091797,17.4248047 L48.1865234,17.4248047 C48.1044918,16.7093063 47.8959978,16.1931982 47.5610352,15.8764648 C47.2260725,15.5597315 46.7350293,15.4013672 46.0878906,15.4013672 C45.3359337,15.4013672 44.7583028,15.6759413 44.3549805,16.2250977 C43.9516581,16.774254 43.7454428,17.5797473 43.7363281,18.6416016 L43.7363281,19.5234375 C43.7363281,20.5989637 43.9288718,21.419268 44.3139648,21.984375 C44.6990579,22.549482 45.2630171,22.8320312 46.0058594,22.8320312 C46.6848992,22.8320312 47.1953108,22.6793635 47.5371094,22.3740234 C47.878908,22.0686834 48.0953771,21.5605504 48.1865234,20.8496094 L49.9091797,20.8496094 Z M58.734375,14.1367188 L58.734375,20.7880859 C58.734375,21.8453829 58.3959995,22.6827769 57.7192383,23.300293 C57.0424771,23.9178091 56.1412817,24.2265625 55.015625,24.2265625 C53.8762964,24.2265625 52.971683,23.9223663 52.3017578,23.3139648 C51.6318326,22.7055634 51.296875,21.8613335 51.296875,20.78125 L51.296875,14.1367188 L53.0195312,14.1367188 L53.0195312,20.7949219 C53.0195312,21.4602898 53.1881494,21.9684227 53.5253906,22.3193359 C53.8626319,22.6702492 54.3593717,22.8457031 55.015625,22.8457031 C56.3463608,22.8457031 57.0117188,22.1438872 57.0117188,20.7402344 L57.0117188,14.1367188 L58.734375,14.1367188 Z M65.7822266,21.5263672 C65.7822266,21.088865 65.6284195,20.7516288 65.3208008,20.5146484 C65.0131821,20.2776681 64.4583373,20.0384127 63.65625,19.796875 C62.8541627,19.5553373 62.2161482,19.2864598 61.7421875,18.9902344 C60.8352819,18.4205701 60.3818359,17.677739 60.3818359,16.7617188 C60.3818359,15.9596314 60.7088183,15.2988307 61.362793,14.7792969 C62.0167676,14.259763 62.8655547,14 63.9091797,14 C64.6018915,14 65.2193983,14.1276029 65.7617188,14.3828125 C66.3040392,14.6380221 66.7301417,15.0014625 67.0400391,15.4731445 C67.3499364,15.9448266 67.5048828,16.4677706 67.5048828,17.0419922 L65.7822266,17.0419922 C65.7822266,16.5224583 65.619305,16.1157241 65.293457,15.8217773 C64.967609,15.5278306 64.5016306,15.3808594 63.8955078,15.3808594 C63.3304008,15.3808594 62.8917659,15.5016264 62.5795898,15.7431641 C62.2674138,15.9847017 62.1113281,16.3219379 62.1113281,16.7548828 C62.1113281,17.119468 62.2799462,17.4236641 62.6171875,17.6674805 C62.9544288,17.9112968 63.5104128,18.1482736 64.2851562,18.378418 C65.0598997,18.6085623 65.6819638,18.870604 66.1513672,19.1645508 C66.6207706,19.4584976 66.9648427,19.7957338 67.1835938,20.1762695 C67.4023448,20.5568053 67.5117188,21.0022761 67.5117188,21.5126953 C67.5117188,22.3421265 67.1938508,23.0017879 66.5581055,23.4916992 C65.9223601,23.9816105 65.0599013,24.2265625 63.9707031,24.2265625 C63.2506474,24.2265625 62.5887074,24.0932631 61.9848633,23.8266602 C61.3810191,23.5600573 60.9116228,23.1920596 60.5766602,22.7226562 C60.2416975,22.2532529 60.0742188,21.7063833 60.0742188,21.0820312 L61.8037109,21.0820312 C61.8037109,21.6471382 61.990558,22.0846339 62.3642578,22.3945312 C62.7379576,22.7044286 63.273434,22.859375 63.9707031,22.859375 C64.5722686,22.859375 65.0245753,22.7374687 65.3276367,22.4936523 C65.6306981,22.249836 65.7822266,21.9274109 65.7822266,21.5263672 Z M76.2207031,15.53125 L73.1171875,15.53125 L73.1171875,24.0898438 L71.4013672,24.0898438 L71.4013672,15.53125 L68.3251953,15.53125 L68.3251953,14.1367188 L76.2207031,14.1367188 L76.2207031,15.53125 Z M85.2783203,19.3730469 C85.2783203,20.3483122 85.1097022,21.2039351 84.7724609,21.9399414 C84.4352197,22.6759477 83.9532909,23.2410462 83.3266602,23.6352539 C82.7000294,24.0294616 81.9788452,24.2265625 81.1630859,24.2265625 C80.3564413,24.2265625 79.6375357,24.0294616 79.0063477,23.6352539 C78.3751596,23.2410462 77.8875343,22.6793656 77.543457,21.9501953 C77.1993798,21.221025 77.0250651,20.3802131 77.0205078,19.4277344 L77.0205078,18.8671875 C77.0205078,17.8964795 77.1925439,17.0397173 77.5366211,16.296875 C77.8806983,15.5540327 78.366045,14.9855163 78.9926758,14.5913086 C79.6193065,14.1971009 80.3382121,14 81.1494141,14 C81.960616,14 82.6795216,14.1948223 83.3061523,14.5844727 C83.9327831,14.974123 84.4169905,15.5346643 84.7587891,16.2661133 C85.1005876,16.9975623 85.273763,17.848628 85.2783203,18.8193359 L85.2783203,19.3730469 Z M83.5488281,18.8535156 C83.5488281,17.7506455 83.3403341,16.9052764 82.9233398,16.3173828 C82.5063456,15.7294892 81.9150429,15.4355469 81.1494141,15.4355469 C80.4020145,15.4355469 79.8175477,15.7283499 79.3959961,16.3139648 C78.9744445,16.8995798 78.7591146,17.7278592 78.75,18.7988281 L78.75,19.3730469 C78.75,20.4668023 78.9630513,21.3121715 79.3891602,21.9091797 C79.8152691,22.5061879 80.4065717,22.8046875 81.1630859,22.8046875 C81.9287148,22.8046875 82.5177388,22.5130238 82.9301758,21.9296875 C83.3426127,21.3463512 83.5488281,20.4941462 83.5488281,19.3730469 L83.5488281,18.8535156 Z M89.2431641,14.1367188 L92.1142578,21.765625 L94.9785156,14.1367188 L97.2138672,14.1367188 L97.2138672,24.0898438 L95.4912109,24.0898438 L95.4912109,20.8085938 L95.6621094,16.4199219 L92.7226562,24.0898438 L91.4853516,24.0898438 L88.5527344,16.4267578 L88.7236328,20.8085938 L88.7236328,24.0898438 L87.0009766,24.0898438 L87.0009766,14.1367188 L89.2431641,14.1367188 Z M50.2167969,39.0898438 L48.4941406,39.0898438 L48.4941406,34.6669922 L44.0439453,34.6669922 L44.0439453,39.0898438 L42.3144531,39.0898438 L42.3144531,29.1367188 L44.0439453,29.1367188 L44.0439453,33.2792969 L48.4941406,33.2792969 L48.4941406,29.1367188 L50.2167969,29.1367188 L50.2167969,39.0898438 Z M59.2539062,30.53125 L56.1503906,30.53125 L56.1503906,39.0898438 L54.4345703,39.0898438 L54.4345703,30.53125 L51.3583984,30.53125 L51.3583984,29.1367188 L59.2539062,29.1367188 L59.2539062,30.53125 Z M62.8017578,29.1367188 L65.6728516,36.765625 L68.5371094,29.1367188 L70.7724609,29.1367188 L70.7724609,39.0898438 L69.0498047,39.0898438 L69.0498047,35.8085938 L69.2207031,31.4199219 L66.28125,39.0898438 L65.0439453,39.0898438 L62.1113281,31.4267578 L62.2822266,35.8085938 L62.2822266,39.0898438 L60.5595703,39.0898438 L60.5595703,29.1367188 L62.8017578,29.1367188 Z M74.5458984,37.7089844 L79.0644531,37.7089844 L79.0644531,39.0898438 L72.8164062,39.0898438 L72.8164062,29.1367188 L74.5458984,29.1367188 L74.5458984,37.7089844 Z" id="CUSTOM-HTML"></path>
            <path d="M0.624796755,0 C0.248796755,0 -0.0312032448,0.307 0.00279675519,0.683 L3.16779676,36.316 C3.20079676,36.69 3.52479676,37.08 3.88779676,37.181 L17.3177968,40.925 C17.6807968,41.025 18.2727968,41.025 18.6347968,40.925 L32.1087968,37.175 C32.4687968,37.075 32.7927968,36.685 32.8257968,36.311 L35.9957968,0.684 C36.0297968,0.308 35.7497968,0.001 35.3757968,0.001 L0.623796755,0.001 L0.624796755,0 Z M29.9977968,8.615 L29.8797968,9.922 L29.7947968,10.869 L29.6847968,12.074 C29.6607968,12.358 29.6367968,12.59 29.6317968,12.59 L12.6837968,12.59 C12.3007968,12.59 12.0137968,12.902 12.0487968,13.282 L12.3467968,16.604 C12.3807968,16.984 12.7217968,17.294 13.1047968,17.294 L28.5997968,17.294 C28.9397968,17.294 29.1937968,17.571 29.1617968,17.911 L29.0447968,19.218 L28.0847968,29.928 C28.0497968,30.308 28.0067968,30.792 27.9887968,31.005 C27.9687968,31.219 27.6507968,31.477 27.2807968,31.578 L19.1837968,33.813 L18.5017968,34.001 C18.4957968,34.001 18.1887968,33.921 17.8217968,33.818 L9.71379676,31.578 C9.34379676,31.478 9.01379676,31.083 8.98079676,30.703 L8.45879676,24.873 C8.42479676,24.493 8.71079676,24.183 9.09379676,24.183 L12.3297968,24.183 C12.7137968,24.183 13.0547968,24.493 13.0897968,24.873 L13.2937968,27.155 C13.3277968,27.535 13.6587968,27.927 14.0287968,28.025 L17.8187968,29.045 C18.1887968,29.145 18.4927968,29.225 18.4947968,29.225 C18.4947968,29.225 18.7997968,29.145 19.1697968,29.045 L22.9697968,28.023 C23.3397968,27.923 23.6697968,27.533 23.7037968,27.153 L24.1157968,22.579 C24.1497968,22.199 23.8657968,21.889 23.4817968,21.889 L8.88779676,21.889 C8.50479676,21.889 8.16379676,21.579 8.12979676,21.199 L7.11979676,9.92 L6.99979676,8.615 C6.96979676,8.277 7.25779676,8 7.64179676,8 L29.3537968,8 C29.7367968,8 30.0257968,8.277 29.9957968,8.615 L29.9977968,8.615 Z" id="Shape-Copy" fill-rule="nonzero"></path>
        </g>
    </g>
</svg>