<?xml version="1.0" encoding="UTF-8"?>
<svg width="148px" height="80px" viewBox="0 0 148 80" version="1.1" xmlns="http://www.w3.org/2000/svg" xmlns:xlink="http://www.w3.org/1999/xlink">
    <!-- Generator: Sketch 50.2 (55047) - http://www.bohemiancoding.com/sketch -->
    <title>Article list 2</title>
    <desc>Created with Sketch.</desc>
    <defs></defs>
    <g id="Article-list-2" stroke="none" stroke-width="1" fill="none" fill-rule="evenodd">
        <rect id="Rectangle-4" fill="#D1D5DB" x="0" y="0" width="148" height="80" rx="2"></rect>
        <rect id="Rectangle-3" fill="#FAFBFB" x="1" y="1" width="146" height="78" rx="1"></rect>
        <g id="Group" transform="translate(55.000000, 11.000000)">
            <g id="1" transform="translate(1.000000, 0.000000)" fill-rule="nonzero">
                <polygon id="Shape" fill="#D2D8DE" points="0 0 36 0 36 36 0 36"></polygon>
                <path d="M11.3307534,11.5705951 C11.8750951,12.0506826 12.5885585,12.3428571 13.3711255,12.3428571 C14.1530863,12.3428571 14.8671559,12.0506826 15.4114976,11.5712013 C16.0522205,11.0062497 16.4571429,10.1794323 16.4571429,9.25744594 C16.4571429,8.99073063 16.4238034,8.73250172 16.3601555,8.48579006 C16.0176688,7.15463819 14.8095696,6.17142857 13.3717317,6.17142857 C11.9338937,6.17142857 10.7251884,7.15403202 10.3827017,8.48518389 C10.3190537,8.73189555 10.2857143,8.99012446 10.2857143,9.25683977 C10.2857143,10.1782199 10.6900304,11.0056436 11.3307534,11.5712013 L11.3307534,11.5705951 Z" id="Shape" fill="#FFFFFF"></path>
                <path d="M31.3328457,21.2322124 L29.5831273,19.4605974 L28.9998878,18.8696261 L28.3163459,18.1779949 C27.8606514,17.7169074 27.2637906,17.4857143 26.6663106,17.4857143 C26.0688307,17.4857143 25.4713507,17.7169074 25.0162753,18.1786443 L24.3327335,18.8702756 L23.749494,19.4612468 L21.9991564,21.2341606 L21.4159169,21.8238331 L19.6661984,23.5967469 L19.0817206,24.1864193 L17.3320021,25.9593331 L16.7481435,26.5503044 L16.4571429,26.8451406 L25.4992125,36 L36,36 L36,25.9580343 L33.6658037,23.5954481 L31.9167044,21.8225342 L31.3328457,21.231563 L31.3328457,21.2322124 Z" id="Shape" fill="#717F8E"></path>
                <path d="M16.8736023,27.486361 L16.5551333,27.211203 L15.2812574,26.1130724 L14.0073816,25.0143164 L12.734819,23.9155605 L11.9888793,23.2714406 C11.7603696,23.0750778 11.499028,22.9237409 11.2206139,22.8174299 C10.8922954,22.6923581 10.5403379,22.6285714 10.1877238,22.6285714 C9.83576637,22.6285714 9.48380892,22.6911073 9.15680366,22.8174299 C8.87707628,22.9237409 8.61573474,23.0750778 8.38722504,23.272066 L7.64062872,23.9161858 L6.36675284,25.0143164 L5.09287696,26.1130724 L3.82031436,27.211203 L2.54643848,28.309959 L0,30.5074709 L0,36 L26.7428571,36 L16.8736023,27.486361 Z" id="Shape" fill="#919DA9"></path>
            </g>
            <rect id="Rectangle-9" fill="#5D6B82" x="8" y="41" width="22" height="3"></rect>
            <rect id="Rectangle-7" fill="#D1D5DB" x="4" y="47" width="30" height="3"></rect>
            <rect id="Rectangle-7-Copy" fill="#D1D5DB" x="0" y="51" width="38" height="3"></rect>
            <rect id="Rectangle-7-Copy-2" fill="#D1D5DB" x="4" y="55" width="30" height="3"></rect>
        </g>
        <g id="Group-Copy-2" transform="translate(98.000000, 11.000000)">
            <g id="1" transform="translate(1.000000, 0.000000)" fill-rule="nonzero">
                <polygon id="Shape" fill="#D2D8DE" points="0 0 36 0 36 36 0 36"></polygon>
                <path d="M11.3307534,11.5705951 C11.8750951,12.0506826 12.5885585,12.3428571 13.3711255,12.3428571 C14.1530863,12.3428571 14.8671559,12.0506826 15.4114976,11.5712013 C16.0522205,11.0062497 16.4571429,10.1794323 16.4571429,9.25744594 C16.4571429,8.99073063 16.4238034,8.73250172 16.3601555,8.48579006 C16.0176688,7.15463819 14.8095696,6.17142857 13.3717317,6.17142857 C11.9338937,6.17142857 10.7251884,7.15403202 10.3827017,8.48518389 C10.3190537,8.73189555 10.2857143,8.99012446 10.2857143,9.25683977 C10.2857143,10.1782199 10.6900304,11.0056436 11.3307534,11.5712013 L11.3307534,11.5705951 Z" id="Shape" fill="#FFFFFF"></path>
                <path d="M31.3328457,21.2322124 L29.5831273,19.4605974 L28.9998878,18.8696261 L28.3163459,18.1779949 C27.8606514,17.7169074 27.2637906,17.4857143 26.6663106,17.4857143 C26.0688307,17.4857143 25.4713507,17.7169074 25.0162753,18.1786443 L24.3327335,18.8702756 L23.749494,19.4612468 L21.9991564,21.2341606 L21.4159169,21.8238331 L19.6661984,23.5967469 L19.0817206,24.1864193 L17.3320021,25.9593331 L16.7481435,26.5503044 L16.4571429,26.8451406 L25.4992125,36 L36,36 L36,25.9580343 L33.6658037,23.5954481 L31.9167044,21.8225342 L31.3328457,21.231563 L31.3328457,21.2322124 Z" id="Shape" fill="#717F8E"></path>
                <path d="M16.8736023,27.486361 L16.5551333,27.211203 L15.2812574,26.1130724 L14.0073816,25.0143164 L12.734819,23.9155605 L11.9888793,23.2714406 C11.7603696,23.0750778 11.499028,22.9237409 11.2206139,22.8174299 C10.8922954,22.6923581 10.5403379,22.6285714 10.1877238,22.6285714 C9.83576637,22.6285714 9.48380892,22.6911073 9.15680366,22.8174299 C8.87707628,22.9237409 8.61573474,23.0750778 8.38722504,23.272066 L7.64062872,23.9161858 L6.36675284,25.0143164 L5.09287696,26.1130724 L3.82031436,27.211203 L2.54643848,28.309959 L0,30.5074709 L0,36 L26.7428571,36 L16.8736023,27.486361 Z" id="Shape" fill="#919DA9"></path>
            </g>
            <rect id="Rectangle-9" fill="#5D6B82" x="8" y="41" width="22" height="3"></rect>
            <rect id="Rectangle-7" fill="#D1D5DB" x="4" y="47" width="30" height="3"></rect>
            <rect id="Rectangle-7-Copy" fill="#D1D5DB" x="0" y="51" width="38" height="3"></rect>
            <rect id="Rectangle-7-Copy-2" fill="#D1D5DB" x="4" y="55" width="30" height="3"></rect>
        </g>
        <g id="Group-Copy" transform="translate(12.000000, 11.000000)">
            <g id="1" transform="translate(1.000000, 0.000000)" fill-rule="nonzero">
                <polygon id="Shape" fill="#D2D8DE" points="0 0 36 0 36 36 0 36"></polygon>
                <path d="M11.3307534,11.5705951 C11.8750951,12.0506826 12.5885585,12.3428571 13.3711255,12.3428571 C14.1530863,12.3428571 14.8671559,12.0506826 15.4114976,11.5712013 C16.0522205,11.0062497 16.4571429,10.1794323 16.4571429,9.25744594 C16.4571429,8.99073063 16.4238034,8.73250172 16.3601555,8.48579006 C16.0176688,7.15463819 14.8095696,6.17142857 13.3717317,6.17142857 C11.9338937,6.17142857 10.7251884,7.15403202 10.3827017,8.48518389 C10.3190537,8.73189555 10.2857143,8.99012446 10.2857143,9.25683977 C10.2857143,10.1782199 10.6900304,11.0056436 11.3307534,11.5712013 L11.3307534,11.5705951 Z" id="Shape" fill="#FFFFFF"></path>
                <path d="M31.3328457,21.2322124 L29.5831273,19.4605974 L28.9998878,18.8696261 L28.3163459,18.1779949 C27.8606514,17.7169074 27.2637906,17.4857143 26.6663106,17.4857143 C26.0688307,17.4857143 25.4713507,17.7169074 25.0162753,18.1786443 L24.3327335,18.8702756 L23.749494,19.4612468 L21.9991564,21.2341606 L21.4159169,21.8238331 L19.6661984,23.5967469 L19.0817206,24.1864193 L17.3320021,25.9593331 L16.7481435,26.5503044 L16.4571429,26.8451406 L25.4992125,36 L36,36 L36,25.9580343 L33.6658037,23.5954481 L31.9167044,21.8225342 L31.3328457,21.231563 L31.3328457,21.2322124 Z" id="Shape" fill="#717F8E"></path>
                <path d="M16.8736023,27.486361 L16.5551333,27.211203 L15.2812574,26.1130724 L14.0073816,25.0143164 L12.734819,23.9155605 L11.9888793,23.2714406 C11.7603696,23.0750778 11.499028,22.9237409 11.2206139,22.8174299 C10.8922954,22.6923581 10.5403379,22.6285714 10.1877238,22.6285714 C9.83576637,22.6285714 9.48380892,22.6911073 9.15680366,22.8174299 C8.87707628,22.9237409 8.61573474,23.0750778 8.38722504,23.272066 L7.64062872,23.9161858 L6.36675284,25.0143164 L5.09287696,26.1130724 L3.82031436,27.211203 L2.54643848,28.309959 L0,30.5074709 L0,36 L26.7428571,36 L16.8736023,27.486361 Z" id="Shape" fill="#919DA9"></path>
            </g>
            <rect id="Rectangle-9" fill="#5D6B82" x="8" y="41" width="22" height="3"></rect>
            <rect id="Rectangle-7" fill="#D1D5DB" x="4" y="47" width="30" height="3"></rect>
            <rect id="Rectangle-7-Copy" fill="#D1D5DB" x="0" y="51" width="38" height="3"></rect>
            <rect id="Rectangle-7-Copy-2" fill="#D1D5DB" x="4" y="55" width="30" height="3"></rect>
        </g>
    </g>
</svg>