<?xml version="1.0" encoding="UTF-8"?>
<svg width="148px" height="80px" viewBox="0 0 148 80" version="1.1" xmlns="http://www.w3.org/2000/svg" xmlns:xlink="http://www.w3.org/1999/xlink">
    <!-- Generator: Sketch 50.2 (55047) - http://www.bohemiancoding.com/sketch -->
    <title>EasyBlog Date Copy</title>
    <desc>Created with Sketch.</desc>
    <defs></defs>
    <g id="EasyBlog-Date-Copy" stroke="none" stroke-width="1" fill="none" fill-rule="evenodd">
        <rect id="Rectangle-4" fill="#D1D5DB" x="0" y="0" width="148" height="80" rx="2"></rect>
        <rect id="Rectangle-3" fill="#FAFBFB" x="1" y="1" width="146" height="78" rx="1"></rect>
        <path d="M29.6484375,38.921875 L24.9765625,38.921875 L24.9765625,42.421875 L30.4375,42.421875 L30.4375,44 L23,44 L23,32.625 L30.3828125,32.625 L30.3828125,34.21875 L24.9765625,34.21875 L24.9765625,37.359375 L29.6484375,37.359375 L29.6484375,38.921875 Z M36.9140625,44 C36.8307287,43.8385409 36.7578128,43.5755227 36.6953125,43.2109375 C36.0911428,43.841149 35.3515669,44.15625 34.4765625,44.15625 C33.6275999,44.15625 32.9348985,43.9140649 32.3984375,43.4296875 C31.8619765,42.9453101 31.59375,42.3463577 31.59375,41.6328125 C31.59375,40.7317663 31.9283821,40.040367 32.5976562,39.5585938 C33.2669304,39.0768205 34.2239521,38.8359375 35.46875,38.8359375 L36.6328125,38.8359375 L36.6328125,38.28125 C36.6328125,37.8437478 36.5104179,37.4934909 36.265625,37.2304688 C36.0208321,36.9674466 35.64844,36.8359375 35.1484375,36.8359375 C34.7161437,36.8359375 34.3619805,36.9440093 34.0859375,37.1601562 C33.8098945,37.3763032 33.671875,37.65104 33.671875,37.984375 L31.7734375,37.984375 C31.7734375,37.520831 31.9270818,37.0872416 32.234375,36.6835938 C32.5416682,36.2799459 32.9596328,35.9635428 33.4882812,35.734375 C34.0169297,35.5052072 34.6067676,35.390625 35.2578125,35.390625 C36.2474008,35.390625 37.0364554,35.6393204 37.625,36.1367188 C38.2135446,36.6341171 38.5156249,37.3333288 38.53125,38.234375 L38.53125,42.046875 C38.53125,42.8072955 38.6380198,43.4140602 38.8515625,43.8671875 L38.8515625,44 L36.9140625,44 Z M34.828125,42.6328125 C35.2031269,42.6328125 35.5559879,42.5416676 35.8867188,42.359375 C36.2174496,42.1770824 36.466145,41.9322932 36.6328125,41.625 L36.6328125,40.03125 L35.609375,40.03125 C34.9062465,40.03125 34.3776059,40.1536446 34.0234375,40.3984375 C33.6692691,40.6432304 33.4921875,40.9895811 33.4921875,41.4375 C33.4921875,41.8020852 33.61328,42.0924468 33.8554688,42.3085938 C34.0976575,42.5247407 34.421873,42.6328125 34.828125,42.6328125 Z M45.2578125,41.703125 C45.2578125,41.3645816 45.118491,41.1067717 44.8398438,40.9296875 C44.5611965,40.7526033 44.0989616,40.5963548 43.453125,40.4609375 C42.8072884,40.3255202 42.2682313,40.1536469 41.8359375,39.9453125 C40.8880161,39.4869769 40.4140625,38.822921 40.4140625,37.953125 C40.4140625,37.2239547 40.7213511,36.6145858 41.3359375,36.125 C41.9505239,35.6354142 42.7317661,35.390625 43.6796875,35.390625 C44.6901092,35.390625 45.5065073,35.6406225 46.1289062,36.140625 C46.7513052,36.6406275 47.0625,37.2890585 47.0625,38.0859375 L45.1640625,38.0859375 C45.1640625,37.7213523 45.0286472,37.41797 44.7578125,37.1757812 C44.4869778,36.9335925 44.1276064,36.8125 43.6796875,36.8125 C43.2630188,36.8125 42.9231784,36.9088532 42.6601562,37.1015625 C42.3971341,37.2942718 42.265625,37.5520817 42.265625,37.875 C42.265625,38.1666681 42.3880196,38.3932284 42.6328125,38.5546875 C42.8776054,38.7161466 43.3723921,38.8789054 44.1171875,39.0429688 C44.8619829,39.2070321 45.4466125,39.4023426 45.8710938,39.6289062 C46.295575,39.8554699 46.6106761,40.1276026 46.8164062,40.4453125 C47.0221364,40.7630224 47.125,41.1484352 47.125,41.6015625 C47.125,42.361983 46.809899,42.9778622 46.1796875,43.4492188 C45.549476,43.9205753 44.7239634,44.15625 43.703125,44.15625 C43.0104132,44.15625 42.3932319,44.0312512 41.8515625,43.78125 C41.3098931,43.5312488 40.8880223,43.1875022 40.5859375,42.75 C40.2838527,42.3124978 40.1328125,41.8411484 40.1328125,41.3359375 L41.9765625,41.3359375 C42.0026043,41.7838564 42.1718734,42.128905 42.484375,42.3710938 C42.7968766,42.6132825 43.2109349,42.734375 43.7265625,42.734375 C44.226565,42.734375 44.6067695,42.6393239 44.8671875,42.4492188 C45.1276055,42.2591136 45.2578125,42.0104182 45.2578125,41.703125 Z M51.734375,41.28125 L53.453125,35.546875 L55.4765625,35.546875 L52.1171875,45.28125 C51.6015599,46.7031321 50.7265687,47.4140625 49.4921875,47.4140625 C49.2161445,47.4140625 48.91146,47.367188 48.578125,47.2734375 L48.578125,45.8046875 L48.9375,45.828125 C49.4166691,45.828125 49.7773425,45.7408863 50.0195312,45.5664062 C50.26172,45.3919262 50.4531243,45.0989604 50.59375,44.6875 L50.8671875,43.9609375 L47.8984375,35.546875 L49.9453125,35.546875 L51.734375,41.28125 Z M56.75,44 L56.75,32.625 L60.6484375,32.625 C61.9349023,32.625 62.9140591,32.8828099 63.5859375,33.3984375 C64.2578159,33.9140651 64.59375,34.6822866 64.59375,35.703125 C64.59375,36.2239609 64.4531264,36.6927063 64.171875,37.109375 C63.8906236,37.5260437 63.4791694,37.8489572 62.9375,38.078125 C63.5520864,38.2447925 64.0273421,38.5585914 64.3632812,39.0195312 C64.6992204,39.4804711 64.8671875,40.0338509 64.8671875,40.6796875 C64.8671875,41.7474012 64.524743,42.5677055 63.8398438,43.140625 C63.1549445,43.7135445 62.1744855,44 60.8984375,44 L56.75,44 Z M58.7265625,38.8671875 L58.7265625,42.421875 L60.921875,42.421875 C61.5416698,42.421875 62.0260399,42.2682307 62.375,41.9609375 C62.7239601,41.6536443 62.8984375,41.2265652 62.8984375,40.6796875 C62.8984375,39.4973899 62.2942769,38.8932293 61.0859375,38.8671875 L58.7265625,38.8671875 Z M58.7265625,37.4140625 L60.6640625,37.4140625 C61.2786489,37.4140625 61.7591129,37.274741 62.1054688,36.9960938 C62.4518246,36.7174465 62.625,36.3229192 62.625,35.8125 C62.625,35.2499972 62.4648454,34.8437512 62.1445312,34.59375 C61.8242171,34.3437488 61.3255242,34.21875 60.6484375,34.21875 L58.7265625,34.21875 L58.7265625,37.4140625 Z M68.6796875,44 L66.78125,44 L66.78125,32 L68.6796875,32 L68.6796875,44 Z M70.390625,39.6953125 C70.390625,38.8671834 70.5546859,38.1210971 70.8828125,37.4570312 C71.2109391,36.7929654 71.671872,36.2825539 72.265625,35.9257812 C72.859378,35.5690086 73.5416628,35.390625 74.3125,35.390625 C75.4531307,35.390625 76.3789027,35.7578088 77.0898438,36.4921875 C77.8007848,37.2265662 78.1848955,38.2005148 78.2421875,39.4140625 L78.25,39.859375 C78.25,40.6927125 78.0898454,41.4374967 77.7695312,42.09375 C77.4492171,42.7500033 76.9908884,43.2578107 76.3945312,43.6171875 C75.7981741,43.9765643 75.1093789,44.15625 74.328125,44.15625 C73.1354107,44.15625 72.1809932,43.7591186 71.4648438,42.9648438 C70.7486943,42.1705689 70.390625,41.1119858 70.390625,39.7890625 L70.390625,39.6953125 Z M72.2890625,39.859375 C72.2890625,40.729171 72.4687482,41.4101538 72.828125,41.9023438 C73.1875018,42.3945337 73.6874968,42.640625 74.328125,42.640625 C74.9687532,42.640625 75.4674461,42.3906275 75.8242188,41.890625 C76.1809914,41.3906225 76.359375,40.658859 76.359375,39.6953125 C76.359375,38.8411416 76.1757831,38.164065 75.8085938,37.6640625 C75.4414044,37.16406 74.9427115,36.9140625 74.3125,36.9140625 C73.6927052,36.9140625 73.2005227,37.1601538 72.8359375,37.6523438 C72.4713523,38.1445337 72.2890625,38.8802034 72.2890625,39.859375 Z M79.5234375,39.7109375 C79.5234375,38.3984309 79.8320282,37.3502643 80.4492188,36.5664062 C81.0664093,35.7825482 81.8854116,35.390625 82.90625,35.390625 C83.8697965,35.390625 84.6276014,35.7265591 85.1796875,36.3984375 L85.265625,35.546875 L86.9765625,35.546875 L86.9765625,43.7421875 C86.9765625,44.851568 86.6315139,45.7265593 85.9414062,46.3671875 C85.2512986,47.0078157 84.3203184,47.328125 83.1484375,47.328125 C82.5286427,47.328125 81.92318,47.19922 81.3320312,46.9414062 C80.7408825,46.6835925 80.2916682,46.3463562 79.984375,45.9296875 L80.8828125,44.7890625 C81.4661488,45.4817743 82.1848916,45.828125 83.0390625,45.828125 C83.669274,45.828125 84.1666648,45.6575538 84.53125,45.3164062 C84.8958352,44.9752587 85.078125,44.4739616 85.078125,43.8125 L85.078125,43.2421875 C84.5312473,43.8515655 83.8020879,44.15625 82.890625,44.15625 C81.9010367,44.15625 81.0924511,43.7630248 80.4648438,42.9765625 C79.8372364,42.1901002 79.5234375,41.1015695 79.5234375,39.7109375 Z M81.4140625,39.875 C81.4140625,40.7239626 81.5872379,41.3919246 81.9335938,41.8789062 C82.2799496,42.3658879 82.7604136,42.609375 83.375,42.609375 C84.1406288,42.609375 84.7083315,42.2812533 85.078125,41.625 L85.078125,37.90625 C84.7187482,37.2656218 84.1562538,36.9453125 83.390625,36.9453125 C82.7656219,36.9453125 82.2799496,37.1927059 81.9335938,37.6875 C81.5872379,38.1822941 81.4140625,38.9114535 81.4140625,39.875 Z M93.09375,44 L93.09375,32.625 L96.453125,32.625 C97.4583384,32.625 98.3502565,32.8489561 99.1289062,33.296875 C99.907556,33.7447939 100.510415,34.3802042 100.9375,35.203125 C101.364585,36.0260458 101.578125,36.9687447 101.578125,38.03125 L101.578125,38.6015625 C101.578125,39.6796929 101.363283,40.6276001 100.933594,41.4453125 C100.503904,42.2630249 99.8919311,42.893227 99.0976562,43.3359375 C98.3033814,43.778648 97.3932343,44 96.3671875,44 L93.09375,44 Z M95.0703125,34.21875 L95.0703125,42.421875 L96.359375,42.421875 C97.3958385,42.421875 98.1914035,42.0976595 98.7460938,41.4492188 C99.300784,40.800778 99.5833333,39.8697977 99.59375,38.65625 L99.59375,38.0234375 C99.59375,36.7890563 99.3255235,35.8463574 98.7890625,35.1953125 C98.2526015,34.5442676 97.4739634,34.21875 96.453125,34.21875 L95.0703125,34.21875 Z M108.414062,44 C108.330729,43.8385409 108.257813,43.5755227 108.195312,43.2109375 C107.591143,43.841149 106.851567,44.15625 105.976562,44.15625 C105.1276,44.15625 104.434899,43.9140649 103.898438,43.4296875 C103.361976,42.9453101 103.09375,42.3463577 103.09375,41.6328125 C103.09375,40.7317663 103.428382,40.040367 104.097656,39.5585938 C104.76693,39.0768205 105.723952,38.8359375 106.96875,38.8359375 L108.132812,38.8359375 L108.132812,38.28125 C108.132812,37.8437478 108.010418,37.4934909 107.765625,37.2304688 C107.520832,36.9674466 107.14844,36.8359375 106.648438,36.8359375 C106.216144,36.8359375 105.861981,36.9440093 105.585938,37.1601562 C105.309894,37.3763032 105.171875,37.65104 105.171875,37.984375 L103.273438,37.984375 C103.273438,37.520831 103.427082,37.0872416 103.734375,36.6835938 C104.041668,36.2799459 104.459633,35.9635428 104.988281,35.734375 C105.51693,35.5052072 106.106768,35.390625 106.757812,35.390625 C107.747401,35.390625 108.536455,35.6393204 109.125,36.1367188 C109.713545,36.6341171 110.015625,37.3333288 110.03125,38.234375 L110.03125,42.046875 C110.03125,42.8072955 110.13802,43.4140602 110.351562,43.8671875 L110.351562,44 L108.414062,44 Z M106.328125,42.6328125 C106.703127,42.6328125 107.055988,42.5416676 107.386719,42.359375 C107.71745,42.1770824 107.966145,41.9322932 108.132812,41.625 L108.132812,40.03125 L107.109375,40.03125 C106.406246,40.03125 105.877606,40.1536446 105.523438,40.3984375 C105.169269,40.6432304 104.992188,40.9895811 104.992188,41.4375 C104.992188,41.8020852 105.11328,42.0924468 105.355469,42.3085938 C105.597657,42.5247407 105.921873,42.6328125 106.328125,42.6328125 Z M114.398438,33.4921875 L114.398438,35.546875 L115.890625,35.546875 L115.890625,36.953125 L114.398438,36.953125 L114.398438,41.671875 C114.398438,41.9947933 114.462239,42.2278639 114.589844,42.3710938 C114.717449,42.5143236 114.945311,42.5859375 115.273438,42.5859375 C115.492189,42.5859375 115.713541,42.5598961 115.9375,42.5078125 L115.9375,43.9765625 C115.505206,44.0963548 115.088544,44.15625 114.6875,44.15625 C113.229159,44.15625 112.5,43.3515705 112.5,41.7421875 L112.5,36.953125 L111.109375,36.953125 L111.109375,35.546875 L112.5,35.546875 L112.5,33.4921875 L114.398438,33.4921875 Z M121.0625,44.15625 C119.859369,44.15625 118.884118,43.7773475 118.136719,43.0195312 C117.389319,42.261715 117.015625,41.2526105 117.015625,39.9921875 L117.015625,39.7578125 C117.015625,38.9140583 117.178384,38.1601596 117.503906,37.4960938 C117.829429,36.8320279 118.286455,36.315106 118.875,35.9453125 C119.463545,35.575519 120.119788,35.390625 120.84375,35.390625 C121.994797,35.390625 122.884111,35.7578088 123.511719,36.4921875 C124.139326,37.2265662 124.453125,38.2656183 124.453125,39.609375 L124.453125,40.375 L118.929688,40.375 C118.986979,41.0729202 119.22005,41.624998 119.628906,42.03125 C120.037762,42.437502 120.55208,42.640625 121.171875,42.640625 C122.041671,42.640625 122.749997,42.289066 123.296875,41.5859375 L124.320312,42.5625 C123.981769,43.0677109 123.529951,43.459634 122.964844,43.7382812 C122.399737,44.0169285 121.765629,44.15625 121.0625,44.15625 Z M120.835938,36.9140625 C120.315102,36.9140625 119.894533,37.0963523 119.574219,37.4609375 C119.253905,37.8255227 119.04948,38.3333301 118.960938,38.984375 L122.578125,38.984375 L122.578125,38.84375 C122.536458,38.2083302 122.367189,37.7278662 122.070312,37.4023438 C121.773436,37.0768213 121.361982,36.9140625 120.835938,36.9140625 Z" id="EasyBlog-Date" fill="#5D6B82"></path>
    </g>
</svg>