<?xml version="1.0" encoding="UTF-8"?>
<svg width="148px" height="80px" viewBox="0 0 148 80" version="1.1" xmlns="http://www.w3.org/2000/svg" xmlns:xlink="http://www.w3.org/1999/xlink">
    <!-- Generator: Sketch 50.2 (55047) - http://www.bohemiancoding.com/sketch -->
    <title>EasyBlog Read More Copy</title>
    <desc>Created with Sketch.</desc>
    <defs></defs>
    <g id="EasyBlog-Read-More-Copy" stroke="none" stroke-width="1" fill="none" fill-rule="evenodd">
        <rect id="Rectangle-4" fill="#D1D5DB" x="0" y="0" width="148" height="80" rx="2"></rect>
        <rect id="Rectangle-3" fill="#FAFBFB" x="1" y="1" width="146" height="78" rx="1"></rect>
        <path d="M48.3046875,28.921875 L43.6328125,28.921875 L43.6328125,32.421875 L49.09375,32.421875 L49.09375,34 L41.65625,34 L41.65625,22.625 L49.0390625,22.625 L49.0390625,24.21875 L43.6328125,24.21875 L43.6328125,27.359375 L48.3046875,27.359375 L48.3046875,28.921875 Z M55.5703125,34 C55.4869787,33.8385409 55.4140628,33.5755227 55.3515625,33.2109375 C54.7473928,33.841149 54.0078169,34.15625 53.1328125,34.15625 C52.2838499,34.15625 51.5911485,33.9140649 51.0546875,33.4296875 C50.5182265,32.9453101 50.25,32.3463577 50.25,31.6328125 C50.25,30.7317663 50.5846321,30.040367 51.2539062,29.5585938 C51.9231804,29.0768205 52.8802021,28.8359375 54.125,28.8359375 L55.2890625,28.8359375 L55.2890625,28.28125 C55.2890625,27.8437478 55.1666679,27.4934909 54.921875,27.2304688 C54.6770821,26.9674466 54.30469,26.8359375 53.8046875,26.8359375 C53.3723937,26.8359375 53.0182305,26.9440093 52.7421875,27.1601562 C52.4661445,27.3763032 52.328125,27.65104 52.328125,27.984375 L50.4296875,27.984375 C50.4296875,27.520831 50.5833318,27.0872416 50.890625,26.6835938 C51.1979182,26.2799459 51.6158828,25.9635428 52.1445312,25.734375 C52.6731797,25.5052072 53.2630176,25.390625 53.9140625,25.390625 C54.9036508,25.390625 55.6927054,25.6393204 56.28125,26.1367188 C56.8697946,26.6341171 57.1718749,27.3333288 57.1875,28.234375 L57.1875,32.046875 C57.1875,32.8072955 57.2942698,33.4140602 57.5078125,33.8671875 L57.5078125,34 L55.5703125,34 Z M53.484375,32.6328125 C53.8593769,32.6328125 54.2122379,32.5416676 54.5429688,32.359375 C54.8736996,32.1770824 55.122395,31.9322932 55.2890625,31.625 L55.2890625,30.03125 L54.265625,30.03125 C53.5624965,30.03125 53.0338559,30.1536446 52.6796875,30.3984375 C52.3255191,30.6432304 52.1484375,30.9895811 52.1484375,31.4375 C52.1484375,31.8020852 52.26953,32.0924468 52.5117188,32.3085938 C52.7539075,32.5247407 53.078123,32.6328125 53.484375,32.6328125 Z M63.9140625,31.703125 C63.9140625,31.3645816 63.774741,31.1067717 63.4960938,30.9296875 C63.2174465,30.7526033 62.7552116,30.5963548 62.109375,30.4609375 C61.4635384,30.3255202 60.9244813,30.1536469 60.4921875,29.9453125 C59.5442661,29.4869769 59.0703125,28.822921 59.0703125,27.953125 C59.0703125,27.2239547 59.3776011,26.6145858 59.9921875,26.125 C60.6067739,25.6354142 61.3880161,25.390625 62.3359375,25.390625 C63.3463592,25.390625 64.1627573,25.6406225 64.7851562,26.140625 C65.4075552,26.6406275 65.71875,27.2890585 65.71875,28.0859375 L63.8203125,28.0859375 C63.8203125,27.7213523 63.6848972,27.41797 63.4140625,27.1757812 C63.1432278,26.9335925 62.7838564,26.8125 62.3359375,26.8125 C61.9192688,26.8125 61.5794284,26.9088532 61.3164062,27.1015625 C61.0533841,27.2942718 60.921875,27.5520817 60.921875,27.875 C60.921875,28.1666681 61.0442696,28.3932284 61.2890625,28.5546875 C61.5338554,28.7161466 62.0286421,28.8789054 62.7734375,29.0429688 C63.5182329,29.2070321 64.1028625,29.4023426 64.5273438,29.6289062 C64.951825,29.8554699 65.2669261,30.1276026 65.4726562,30.4453125 C65.6783864,30.7630224 65.78125,31.1484352 65.78125,31.6015625 C65.78125,32.361983 65.466149,32.9778622 64.8359375,33.4492188 C64.205726,33.9205753 63.3802134,34.15625 62.359375,34.15625 C61.6666632,34.15625 61.0494819,34.0312512 60.5078125,33.78125 C59.9661431,33.5312488 59.5442723,33.1875022 59.2421875,32.75 C58.9401027,32.3124978 58.7890625,31.8411484 58.7890625,31.3359375 L60.6328125,31.3359375 C60.6588543,31.7838564 60.8281234,32.128905 61.140625,32.3710938 C61.4531266,32.6132825 61.8671849,32.734375 62.3828125,32.734375 C62.882815,32.734375 63.2630195,32.6393239 63.5234375,32.4492188 C63.7838555,32.2591136 63.9140625,32.0104182 63.9140625,31.703125 Z M70.390625,31.28125 L72.109375,25.546875 L74.1328125,25.546875 L70.7734375,35.28125 C70.2578099,36.7031321 69.3828187,37.4140625 68.1484375,37.4140625 C67.8723945,37.4140625 67.56771,37.367188 67.234375,37.2734375 L67.234375,35.8046875 L67.59375,35.828125 C68.0729191,35.828125 68.4335925,35.7408863 68.6757812,35.5664062 C68.91797,35.3919262 69.1093743,35.0989604 69.25,34.6875 L69.5234375,33.9609375 L66.5546875,25.546875 L68.6015625,25.546875 L70.390625,31.28125 Z M75.40625,34 L75.40625,22.625 L79.3046875,22.625 C80.5911523,22.625 81.5703091,22.8828099 82.2421875,23.3984375 C82.9140659,23.9140651 83.25,24.6822866 83.25,25.703125 C83.25,26.2239609 83.1093764,26.6927063 82.828125,27.109375 C82.5468736,27.5260437 82.1354194,27.8489572 81.59375,28.078125 C82.2083364,28.2447925 82.6835921,28.5585914 83.0195312,29.0195312 C83.3554704,29.4804711 83.5234375,30.0338509 83.5234375,30.6796875 C83.5234375,31.7474012 83.180993,32.5677055 82.4960938,33.140625 C81.8111945,33.7135445 80.8307355,34 79.5546875,34 L75.40625,34 Z M77.3828125,28.8671875 L77.3828125,32.421875 L79.578125,32.421875 C80.1979198,32.421875 80.6822899,32.2682307 81.03125,31.9609375 C81.3802101,31.6536443 81.5546875,31.2265652 81.5546875,30.6796875 C81.5546875,29.4973899 80.9505269,28.8932293 79.7421875,28.8671875 L77.3828125,28.8671875 Z M77.3828125,27.4140625 L79.3203125,27.4140625 C79.9348989,27.4140625 80.4153629,27.274741 80.7617188,26.9960938 C81.1080746,26.7174465 81.28125,26.3229192 81.28125,25.8125 C81.28125,25.2499972 81.1210954,24.8437512 80.8007812,24.59375 C80.4804671,24.3437488 79.9817742,24.21875 79.3046875,24.21875 L77.3828125,24.21875 L77.3828125,27.4140625 Z M87.3359375,34 L85.4375,34 L85.4375,22 L87.3359375,22 L87.3359375,34 Z M89.046875,29.6953125 C89.046875,28.8671834 89.2109359,28.1210971 89.5390625,27.4570312 C89.8671891,26.7929654 90.328122,26.2825539 90.921875,25.9257812 C91.515628,25.5690086 92.1979128,25.390625 92.96875,25.390625 C94.1093807,25.390625 95.0351527,25.7578088 95.7460938,26.4921875 C96.4570348,27.2265662 96.8411455,28.2005148 96.8984375,29.4140625 L96.90625,29.859375 C96.90625,30.6927125 96.7460954,31.4374967 96.4257812,32.09375 C96.1054671,32.7500033 95.6471384,33.2578107 95.0507812,33.6171875 C94.4544241,33.9765643 93.7656289,34.15625 92.984375,34.15625 C91.7916607,34.15625 90.8372432,33.7591186 90.1210938,32.9648438 C89.4049443,32.1705689 89.046875,31.1119858 89.046875,29.7890625 L89.046875,29.6953125 Z M90.9453125,29.859375 C90.9453125,30.729171 91.1249982,31.4101538 91.484375,31.9023438 C91.8437518,32.3945337 92.3437468,32.640625 92.984375,32.640625 C93.6250032,32.640625 94.1236961,32.3906275 94.4804688,31.890625 C94.8372414,31.3906225 95.015625,30.658859 95.015625,29.6953125 C95.015625,28.8411416 94.8320331,28.164065 94.4648438,27.6640625 C94.0976544,27.16406 93.5989615,26.9140625 92.96875,26.9140625 C92.3489552,26.9140625 91.8567727,27.1601538 91.4921875,27.6523438 C91.1276023,28.1445337 90.9453125,28.8802034 90.9453125,29.859375 Z M98.1796875,29.7109375 C98.1796875,28.3984309 98.4882782,27.3502643 99.1054688,26.5664062 C99.7226593,25.7825482 100.541662,25.390625 101.5625,25.390625 C102.526046,25.390625 103.283851,25.7265591 103.835938,26.3984375 L103.921875,25.546875 L105.632812,25.546875 L105.632812,33.7421875 C105.632812,34.851568 105.287764,35.7265593 104.597656,36.3671875 C103.907549,37.0078157 102.976568,37.328125 101.804688,37.328125 C101.184893,37.328125 100.57943,37.19922 99.9882812,36.9414062 C99.3971325,36.6835925 98.9479182,36.3463562 98.640625,35.9296875 L99.5390625,34.7890625 C100.122399,35.4817743 100.841142,35.828125 101.695312,35.828125 C102.325524,35.828125 102.822915,35.6575538 103.1875,35.3164062 C103.552085,34.9752587 103.734375,34.4739616 103.734375,33.8125 L103.734375,33.2421875 C103.187497,33.8515655 102.458338,34.15625 101.546875,34.15625 C100.557287,34.15625 99.7487011,33.7630248 99.1210938,32.9765625 C98.4934864,32.1901002 98.1796875,31.1015695 98.1796875,29.7109375 Z M100.070312,29.875 C100.070312,30.7239626 100.243488,31.3919246 100.589844,31.8789062 C100.9362,32.3658879 101.416664,32.609375 102.03125,32.609375 C102.796879,32.609375 103.364581,32.2812533 103.734375,31.625 L103.734375,27.90625 C103.374998,27.2656218 102.812504,26.9453125 102.046875,26.9453125 C101.421872,26.9453125 100.9362,27.1927059 100.589844,27.6875 C100.243488,28.1822941 100.070312,28.9114535 100.070312,29.875 Z M40.1796875,53.6171875 L37.9765625,53.6171875 L37.9765625,58 L36,58 L36,46.625 L40,46.625 C41.3125066,46.625 42.3255173,46.9192679 43.0390625,47.5078125 C43.7526077,48.0963571 44.109375,48.9479111 44.109375,50.0625 C44.109375,50.8229205 43.9257831,51.4596329 43.5585938,51.9726562 C43.1914044,52.4856796 42.6796908,52.880207 42.0234375,53.15625 L44.578125,57.8984375 L44.578125,58 L42.4609375,58 L40.1796875,53.6171875 Z M37.9765625,52.03125 L40.0078125,52.03125 C40.6744825,52.03125 41.1953106,51.8632829 41.5703125,51.5273438 C41.9453144,51.1914046 42.1328125,50.7317738 42.1328125,50.1484375 C42.1328125,49.5390595 41.9596371,49.06771 41.6132812,48.734375 C41.2669254,48.40104 40.7500034,48.2291667 40.0625,48.21875 L37.9765625,48.21875 L37.9765625,52.03125 Z M49.5234375,58.15625 C48.3203065,58.15625 47.3450558,57.7773475 46.5976562,57.0195312 C45.8502567,56.261715 45.4765625,55.2526105 45.4765625,53.9921875 L45.4765625,53.7578125 C45.4765625,52.9140583 45.6393213,52.1601596 45.9648438,51.4960938 C46.2903662,50.8320279 46.7473929,50.315106 47.3359375,49.9453125 C47.9244821,49.575519 48.5807255,49.390625 49.3046875,49.390625 C50.4557349,49.390625 51.3450489,49.7578088 51.9726562,50.4921875 C52.6002636,51.2265662 52.9140625,52.2656183 52.9140625,53.609375 L52.9140625,54.375 L47.390625,54.375 C47.447917,55.0729202 47.6809875,55.624998 48.0898438,56.03125 C48.4987,56.437502 49.0130177,56.640625 49.6328125,56.640625 C50.5026085,56.640625 51.2109348,56.289066 51.7578125,55.5859375 L52.78125,56.5625 C52.4427066,57.0677109 51.9908882,57.459634 51.4257812,57.7382812 C50.8606743,58.0169285 50.226566,58.15625 49.5234375,58.15625 Z M49.296875,50.9140625 C48.7760391,50.9140625 48.3554704,51.0963523 48.0351562,51.4609375 C47.7148421,51.8255227 47.5104171,52.3333301 47.421875,52.984375 L51.0390625,52.984375 L51.0390625,52.84375 C50.9973956,52.2083302 50.8281265,51.7278662 50.53125,51.4023438 C50.2343735,51.0768213 49.8229193,50.9140625 49.296875,50.9140625 Z M59.4375,58 C59.3541662,57.8385409 59.2812503,57.5755227 59.21875,57.2109375 C58.6145803,57.841149 57.8750044,58.15625 57,58.15625 C56.1510374,58.15625 55.458336,57.9140649 54.921875,57.4296875 C54.385414,56.9453101 54.1171875,56.3463577 54.1171875,55.6328125 C54.1171875,54.7317663 54.4518196,54.040367 55.1210938,53.5585938 C55.7903679,53.0768205 56.7473896,52.8359375 57.9921875,52.8359375 L59.15625,52.8359375 L59.15625,52.28125 C59.15625,51.8437478 59.0338554,51.4934909 58.7890625,51.2304688 C58.5442696,50.9674466 58.1718775,50.8359375 57.671875,50.8359375 C57.2395812,50.8359375 56.885418,50.9440093 56.609375,51.1601562 C56.333332,51.3763032 56.1953125,51.65104 56.1953125,51.984375 L54.296875,51.984375 C54.296875,51.520831 54.4505193,51.0872416 54.7578125,50.6835938 C55.0651057,50.2799459 55.4830703,49.9635428 56.0117188,49.734375 C56.5403672,49.5052072 57.1302051,49.390625 57.78125,49.390625 C58.7708383,49.390625 59.5598929,49.6393204 60.1484375,50.1367188 C60.7369821,50.6341171 61.0390624,51.3333288 61.0546875,52.234375 L61.0546875,56.046875 C61.0546875,56.8072955 61.1614573,57.4140602 61.375,57.8671875 L61.375,58 L59.4375,58 Z M57.3515625,56.6328125 C57.7265644,56.6328125 58.0794254,56.5416676 58.4101562,56.359375 C58.7408871,56.1770824 58.9895825,55.9322932 59.15625,55.625 L59.15625,54.03125 L58.1328125,54.03125 C57.429684,54.03125 56.9010434,54.1536446 56.546875,54.3984375 C56.1927066,54.6432304 56.015625,54.9895811 56.015625,55.4375 C56.015625,55.8020852 56.1367175,56.0924468 56.3789062,56.3085938 C56.621095,56.5247407 56.9453105,56.6328125 57.3515625,56.6328125 Z M62.6875,53.7109375 C62.6875,52.4088477 62.9895803,51.3632852 63.59375,50.5742188 C64.1979197,49.7851523 65.0078074,49.390625 66.0234375,49.390625 C66.9192753,49.390625 67.6432264,49.7031219 68.1953125,50.328125 L68.1953125,46 L70.09375,46 L70.09375,58 L68.375,58 L68.28125,57.125 C67.7135388,57.8125034 66.9557339,58.15625 66.0078125,58.15625 C65.0182242,58.15625 64.217451,57.7578165 63.6054688,56.9609375 C62.9934865,56.1640585 62.6875,55.080736 62.6875,53.7109375 Z M64.5859375,53.875 C64.5859375,54.7343793 64.7513004,55.4049455 65.0820312,55.8867188 C65.4127621,56.368492 65.8828095,56.609375 66.4921875,56.609375 C67.268233,56.609375 67.8359357,56.2630243 68.1953125,55.5703125 L68.1953125,51.9609375 C67.8463524,51.2838508 67.283858,50.9453125 66.5078125,50.9453125 C65.8932261,50.9453125 65.4192725,51.1887996 65.0859375,51.6757812 C64.7526025,52.1627629 64.5859375,52.8958284 64.5859375,53.875 Z M78.8046875,46.625 L82.0859375,55.34375 L85.359375,46.625 L87.9140625,46.625 L87.9140625,58 L85.9453125,58 L85.9453125,54.25 L86.140625,49.234375 L82.78125,58 L81.3671875,58 L78.015625,49.2421875 L78.2109375,54.25 L78.2109375,58 L76.2421875,58 L76.2421875,46.625 L78.8046875,46.625 Z M89.7109375,53.6953125 C89.7109375,52.8671834 89.8749984,52.1210971 90.203125,51.4570312 C90.5312516,50.7929654 90.9921845,50.2825539 91.5859375,49.9257812 C92.1796905,49.5690086 92.8619753,49.390625 93.6328125,49.390625 C94.7734432,49.390625 95.6992152,49.7578088 96.4101562,50.4921875 C97.1210973,51.2265662 97.505208,52.2005148 97.5625,53.4140625 L97.5703125,53.859375 C97.5703125,54.6927125 97.4101579,55.4374967 97.0898438,56.09375 C96.7695296,56.7500033 96.3112009,57.2578107 95.7148438,57.6171875 C95.1184866,57.9765643 94.4296914,58.15625 93.6484375,58.15625 C92.4557232,58.15625 91.5013057,57.7591186 90.7851562,56.9648438 C90.0690068,56.1705689 89.7109375,55.1119858 89.7109375,53.7890625 L89.7109375,53.6953125 Z M91.609375,53.859375 C91.609375,54.729171 91.7890607,55.4101538 92.1484375,55.9023438 C92.5078143,56.3945337 93.0078093,56.640625 93.6484375,56.640625 C94.2890657,56.640625 94.7877586,56.3906275 95.1445312,55.890625 C95.5013039,55.3906225 95.6796875,54.658859 95.6796875,53.6953125 C95.6796875,52.8411416 95.4960956,52.164065 95.1289062,51.6640625 C94.7617169,51.16406 94.263024,50.9140625 93.6328125,50.9140625 C93.0130177,50.9140625 92.5208352,51.1601538 92.15625,51.6523438 C91.7916648,52.1445337 91.609375,52.8802034 91.609375,53.859375 Z M103.601562,51.28125 C103.351561,51.2395831 103.093751,51.21875 102.828125,51.21875 C101.958329,51.21875 101.372397,51.55208 101.070312,52.21875 L101.070312,58 L99.171875,58 L99.171875,49.546875 L100.984375,49.546875 L101.03125,50.4921875 C101.489586,49.7578088 102.124996,49.390625 102.9375,49.390625 C103.208335,49.390625 103.432291,49.427083 103.609375,49.5 L103.601562,51.28125 Z M108.375,58.15625 C107.171869,58.15625 106.196618,57.7773475 105.449219,57.0195312 C104.701819,56.261715 104.328125,55.2526105 104.328125,53.9921875 L104.328125,53.7578125 C104.328125,52.9140583 104.490884,52.1601596 104.816406,51.4960938 C105.141929,50.8320279 105.598955,50.315106 106.1875,49.9453125 C106.776045,49.575519 107.432288,49.390625 108.15625,49.390625 C109.307297,49.390625 110.196611,49.7578088 110.824219,50.4921875 C111.451826,51.2265662 111.765625,52.2656183 111.765625,53.609375 L111.765625,54.375 L106.242188,54.375 C106.299479,55.0729202 106.53255,55.624998 106.941406,56.03125 C107.350262,56.437502 107.86458,56.640625 108.484375,56.640625 C109.354171,56.640625 110.062497,56.289066 110.609375,55.5859375 L111.632812,56.5625 C111.294269,57.0677109 110.842451,57.459634 110.277344,57.7382812 C109.712237,58.0169285 109.078129,58.15625 108.375,58.15625 Z M108.148438,50.9140625 C107.627602,50.9140625 107.207033,51.0963523 106.886719,51.4609375 C106.566405,51.8255227 106.36198,52.3333301 106.273438,52.984375 L109.890625,52.984375 L109.890625,52.84375 C109.848958,52.2083302 109.679689,51.7278662 109.382812,51.4023438 C109.085936,51.0768213 108.674482,50.9140625 108.148438,50.9140625 Z" id="EasyBlog-Read-More" fill="#5D6B82"></path>
    </g>
</svg>