<svg width="148" height="80" viewBox="0 0 148 80" fill="none" xmlns="http://www.w3.org/2000/svg">
<rect width="148" height="80" rx="2" fill="#D1D5DB"/>
<rect x="1" y="1" width="146" height="78" rx="1" fill="#FAFBFB"/>
<path fill-rule="evenodd" clip-rule="evenodd" d="M76.9785 58.2355C75.1108 57.2084 72.8892 57.2084 71.0215 58.2355L60.8957 63.8036C59.7071 64.4573 58.3272 63.3841 58.5567 61.9847L60.4632 50.3581C60.8321 48.1079 60.1229 45.8102 58.5707 44.2277L50.4988 35.9979C49.5267 35.0067 50.056 33.2626 51.3906 33.0598L62.6448 31.3493C64.7455 31.03 66.5652 29.6385 67.5153 27.625L72.5529 16.9484C73.1496 15.6839 74.8504 15.6839 75.4471 16.9484L80.4847 27.625C81.4348 29.6385 83.2546 31.03 85.3552 31.3493L96.6094 33.0598C97.944 33.2626 98.4733 35.0067 97.5012 35.9979L89.4293 44.2277C87.8771 45.8102 87.1679 48.1079 87.5368 50.3581L89.4433 61.9847C89.6728 63.3842 88.2929 64.4573 87.1043 63.8037L76.9785 58.2355Z" fill="#5D6B82"/>
</svg>
