<svg width="148" height="80" viewBox="0 0 148 80" fill="none" xmlns="http://www.w3.org/2000/svg">
<rect width="148" height="80" rx="2" fill="#D1D5DB"/>
<path fill-rule="evenodd" clip-rule="evenodd" d="M2 1C1.44772 1 1 1.44771 1 2V78C1 78.5523 1.44771 79 2 79H146C146.552 79 147 78.5523 147 78V2C147 1.44772 146.552 1 146 1H2ZM98 40C98 53.2548 87.2548 64 74 64C60.7452 64 50 53.2548 50 40C50 26.7452 60.7452 16 74 16C87.2548 16 98 26.7452 98 40Z" fill="#FAFBFB"/>
<path fill-rule="evenodd" clip-rule="evenodd" d="M75.2834 48.9508C74.4784 48.5079 73.5216 48.5079 72.7166 48.9508L67.3278 51.9153C66.8145 52.1977 66.2193 51.7327 66.3186 51.1267L67.3337 44.9335C67.4938 43.9571 67.1864 42.9599 66.5141 42.2741L62.2161 37.8901C61.7954 37.461 62.0239 36.7045 62.6007 36.6168L68.5913 35.7059C69.4977 35.5681 70.2832 34.9665 70.694 34.0955L73.3755 28.4101C73.6334 27.8633 74.3666 27.8633 74.6245 28.4101L77.306 34.0955C77.7168 34.9665 78.5023 35.5681 79.4087 35.7059L85.3993 36.6168C85.9761 36.7045 86.2046 37.461 85.7839 37.8901L81.4859 42.2741C80.8136 42.9599 80.5062 43.9571 80.6663 44.9335L81.6814 51.1267C81.7807 51.7327 81.1855 52.1977 80.6722 51.9153L75.2834 48.9508Z" fill="#5D6B82"/>
</svg>
