<svg width="148" height="80" viewBox="0 0 148 80" fill="none" xmlns="http://www.w3.org/2000/svg">
<rect width="148" height="80" rx="2" fill="#D1D5DB"/>
<path fill-rule="evenodd" clip-rule="evenodd" d="M2 1C1.44772 1 1 1.44771 1 2V78C1 78.5523 1.44771 79 2 79H146C146.552 79 147 78.5523 147 78V2C147 1.44772 146.552 1 146 1H2ZM75.6985 13.4142C74.9174 12.6332 73.6511 12.6332 72.8701 13.4142L47.4142 38.8701C46.6332 39.6511 46.6332 40.9174 47.4142 41.6985L72.8701 67.1543C73.6511 67.9354 74.9174 67.9354 75.6985 67.1543L101.154 41.6985C101.935 40.9174 101.935 39.6511 101.154 38.8701L75.6985 13.4142Z" fill="#FAFBFB"/>
<path fill-rule="evenodd" clip-rule="evenodd" d="M75.4893 49.1177C74.5554 48.6042 73.4446 48.6042 72.5107 49.1177L67.4478 51.9018C66.8536 52.2286 66.1636 51.6921 66.2783 50.9923L67.2316 45.179C67.4161 44.0539 67.0614 42.9051 66.2854 42.1139L62.2494 37.9989C61.7633 37.5033 62.028 36.6313 62.6953 36.5299L68.3224 35.6746C69.3727 35.515 70.2826 34.8192 70.7576 33.8125L73.2765 28.4742C73.5748 27.8419 74.4252 27.8419 74.7235 28.4742L77.2424 33.8125C77.7174 34.8192 78.6273 35.515 79.6776 35.6746L85.3047 36.5299C85.972 36.6313 86.2367 37.5033 85.7506 37.9989L81.7146 42.1139C80.9386 42.9051 80.5839 44.0539 80.7684 45.179L81.7217 50.9923C81.8364 51.6921 81.1465 52.2286 80.5522 51.9018L75.4893 49.1177Z" fill="#5D6B82"/>
</svg>
