<svg width="148" height="80" viewBox="0 0 148 80" fill="none" xmlns="http://www.w3.org/2000/svg">
<rect width="148" height="80" rx="2" fill="#D1D5DB"/>
<rect x="1" y="1" width="146" height="78" rx="1" fill="#FAFBFB"/>
<path fill-rule="evenodd" clip-rule="evenodd" d="M96 40C96 52.1503 86.1503 62 74 62C61.8497 62 52 52.1503 52 40C52 27.8497 61.8497 18 74 18C86.1503 18 96 27.8497 96 40ZM74 64C87.2548 64 98 53.2548 98 40C98 26.7452 87.2548 16 74 16C60.7452 16 50 26.7452 50 40C50 53.2548 60.7452 64 74 64ZM67.4271 51.9039L72.5419 49.0951C73.4574 48.5923 74.5426 48.5923 75.4581 49.0951L80.5728 51.9039C81.1606 52.2266 81.8392 51.6897 81.7248 50.9925L80.7725 45.1931C80.5866 44.0611 80.9423 42.9046 81.7197 42.1131L85.7502 38.0093C86.2351 37.5156 85.9739 36.6398 85.3117 36.5393L79.6528 35.6804C78.6182 35.5234 77.7204 34.8344 77.2482 33.8351L74.7132 28.4698C74.4173 27.8434 73.5827 27.8434 73.2868 28.4698L70.7518 33.8351C70.2796 34.8344 69.3818 35.5234 68.3472 35.6804L62.6883 36.5393C62.0261 36.6398 61.7649 37.5156 62.2498 38.0093L66.2803 42.1131C67.0577 42.9046 67.4134 44.0611 67.2275 45.1931L66.2752 50.9925C66.1608 51.6897 66.8394 52.2266 67.4271 51.9039Z" fill="#5D6B82"/>
</svg>
