<svg width="148" height="80" viewBox="0 0 148 80" fill="none" xmlns="http://www.w3.org/2000/svg">
<rect width="148" height="80" rx="2" fill="#D1D5DB"/>
<rect x="1" y="1" width="146" height="78" rx="1" fill="#FAFBFB"/>
<path fill-rule="evenodd" clip-rule="evenodd" d="M74.2842 14.8284L99.7401 40.2843L74.2842 65.7401L48.8284 40.2843L74.2842 14.8284ZM72.87 13.4142C73.651 12.6332 74.9174 12.6332 75.6984 13.4142L101.154 38.8701C101.935 39.6511 101.935 40.9174 101.154 41.6985L75.6984 67.1543C74.9174 67.9354 73.651 67.9354 72.87 67.1543L47.4142 41.6985C46.6331 40.9174 46.6331 39.6511 47.4142 38.8701L72.87 13.4142ZM72.5108 49.1177C73.4446 48.6042 74.5554 48.6042 75.4893 49.1177L80.5522 51.9018C81.1465 52.2286 81.8364 51.6921 81.7217 50.9923L80.7685 45.1791C80.584 44.0539 80.9386 42.9051 81.7147 42.1139L85.7506 37.9989C86.2367 37.5033 85.972 36.6313 85.3047 36.5299L79.6777 35.6746C78.6273 35.515 77.7174 34.8192 77.2424 33.8125L74.7236 28.4742C74.4252 27.8419 73.5748 27.8419 73.2765 28.4742L70.7577 33.8125C70.2827 34.8192 69.3728 35.515 68.3224 35.6746L62.6954 36.5299C62.0281 36.6313 61.7634 37.5033 62.2495 37.9989L66.2854 42.1139C67.0615 42.9051 67.4161 44.0539 67.2316 45.1791L66.2784 50.9923C66.1636 51.6921 66.8536 52.2286 67.4479 51.9018L72.5108 49.1177Z" fill="#5D6B82"/>
</svg>
