<svg width="148" height="80" viewBox="0 0 148 80" fill="none" xmlns="http://www.w3.org/2000/svg">
<rect width="148" height="80" rx="2" fill="#D1D5DB"/>
<path fill-rule="evenodd" clip-rule="evenodd" d="M2 1C1.44772 1 1 1.44771 1 2V78C1 78.5523 1.44771 79 2 79H146C146.552 79 147 78.5523 147 78V2C147 1.44772 146.552 1 146 1H2ZM54 18C52.8954 18 52 18.8954 52 20V60C52 61.1046 52.8954 62 54 62H94C95.1046 62 96 61.1046 96 60V20C96 18.8954 95.1046 18 94 18H54Z" fill="#FAFBFB"/>
<path fill-rule="evenodd" clip-rule="evenodd" d="M54 20H94V60H54V20ZM52 20C52 18.8954 52.8954 18 54 18H94C95.1046 18 96 18.8954 96 20V60C96 61.1046 95.1046 62 94 62H54C52.8954 62 52 61.1046 52 60V20ZM72.5107 49.1177C73.4446 48.6042 74.5554 48.6042 75.4893 49.1177L80.5522 51.9018C81.1465 52.2286 81.8364 51.6921 81.7217 50.9923L80.7684 45.179C80.5839 44.0539 80.9386 42.9051 81.7146 42.1139L85.7506 37.9989C86.2367 37.5033 85.972 36.6313 85.3047 36.5299L79.6776 35.6746C78.6273 35.515 77.7174 34.8192 77.2424 33.8125L74.7235 28.4742C74.4252 27.8419 73.5748 27.8419 73.2765 28.4742L70.7576 33.8125C70.2826 34.8192 69.3727 35.515 68.3224 35.6746L62.6953 36.5299C62.028 36.6313 61.7633 37.5033 62.2494 37.9989L66.2854 42.1139C67.0614 42.9051 67.4161 44.0539 67.2316 45.179L66.2783 50.9923C66.1636 51.6921 66.8536 52.2286 67.4478 51.9018L72.5107 49.1177Z" fill="#5D6B82"/>
</svg>
