<?xml version="1.0" encoding="UTF-8"?>
<svg width="350px" height="290px" viewBox="0 0 350 290" version="1.1" xmlns="http://www.w3.org/2000/svg" xmlns:xlink="http://www.w3.org/1999/xlink">
    <!-- Generator: Sketch 50.2 (55047) - http://www.bohemiancoding.com/sketch -->
    <title>Joomla Custom Module</title>
    <desc>Created with Sketch.</desc>
    <defs></defs>
    <g id="Joomla-Custom-Module" stroke="none" stroke-width="1" fill="none" fill-rule="evenodd">
        <g id="Group-5" transform="translate(175.000000, 145.500000) rotate(-45.000000) translate(-175.000000, -145.500000) translate(63.000000, 34.000000)">
            <path d="M212.870842,136.82178 C210.029978,133.980363 205.802666,133.196238 201.680899,134.319101 L224,112 L201.086865,89.0863125 C202.59212,93.4854797 201.919618,98.1294442 198.870428,101.179187 C194.278959,105.770656 186.069133,105.004213 180.532183,99.4678166 C174.995787,93.9308671 174.229897,85.7210408 178.820813,81.1295724 C181.870556,78.0803821 186.515073,77.4078803 190.913687,78.9131349 L168,56 L145.669847,78.3301527 C149.79714,77.199554 154.032188,77.9831263 156.878026,80.828411 C161.468941,85.4193268 160.702499,93.6297056 155.166103,99.1661026 C149.629706,104.702499 141.419879,105.468941 136.828411,100.877473 C133.983126,98.0321884 133.200107,93.7971403 134.330153,89.6698473 L112,112 L168,168 L190.319101,145.680899 C189.196238,149.802666 189.980363,154.029978 192.82178,156.870842 C197.412696,161.46231 205.623075,160.695868 211.159471,155.159471 C216.695868,149.623075 217.46231,141.412696 212.870842,136.82178" id="Fill-5" fill="#78C239"></path>
            <path d="M56.0002763,56 L33.509431,78.4913979 C34.6433396,74.3608097 33.8603238,70.1213619 31.0128427,67.2738809 C26.4219495,62.6829877 18.2116112,63.4488734 12.6752416,68.985243 C7.13887203,74.5221652 6.3724338,82.7319509 10.9638796,87.3233966 C13.8113606,90.1708777 18.0508084,90.9533409 22.180844,89.8194323 L0,112.000276 L22.9135744,134.913298 C21.4083273,130.514705 22.0808257,125.870211 25.130001,122.821036 C29.7214468,118.22959 37.9312325,118.996028 43.4676021,124.532398 C49.0045243,130.068767 49.77041,138.279106 45.1795168,142.869999 C42.1297889,145.919727 37.4852948,146.592225 33.0867019,145.086426 L56.0002763,168 L112,112.000276 L56.0002763,56" id="Fill-6" fill="#F13E2C"></path>
            <path d="M156.870897,80.8213812 C154.029494,77.9799786 149.802756,77.1958576 145.681009,78.3187144 L168,55.9997237 L145.681009,33.680733 C149.802756,34.8041424 154.029494,34.0194688 156.870897,31.1786188 C161.46179,26.5871731 160.695352,18.3768348 155.158982,12.8404652 C149.622613,7.30409556 141.412827,6.53765733 136.821381,11.1291031 C133.979979,13.9705057 133.195858,18.197244 134.318714,22.3189907 L111.999724,0 L56,55.9997237 L78.3189907,78.3187144 C74.197244,77.1958576 69.9705057,77.9799786 67.1291031,80.8213812 C62.5376573,85.4122743 63.3040956,93.6226127 68.8404652,99.1589823 C74.3768348,104.695352 82.5871731,105.46179 87.1786188,100.870897 C90.0194688,98.0294943 90.8041424,93.802756 89.680733,89.6810093 L111.999724,112 L134.318714,89.6810093 C133.195858,93.802756 133.979979,98.0294943 136.821381,100.870344 C141.412827,105.46179 149.622613,104.695352 155.158982,99.1589823 C160.695352,93.6226127 161.46179,85.4122743 156.870897,80.8213812" id="Fill-7" fill="#FBAF32"></path>
            <path d="M142.869999,177.821036 C145.919727,180.870211 146.592225,185.514705 145.086426,189.913298 L168,166.999724 L145.681009,144.681286 C149.802756,145.804142 154.029494,145.019469 156.870897,142.178619 C161.462343,137.587173 160.695904,129.377387 155.159535,123.840465 C149.623165,118.304096 141.412827,117.53821 136.821381,122.129103 C133.980531,124.970506 133.195858,129.197244 134.319267,133.318991 L112.000276,111 L89.696758,133.303518 C90.8096683,129.189508 90.0238895,124.974374 87.1885654,122.13905 C82.5971196,117.547604 74.3867813,118.314042 68.8504117,123.850412 C63.3140421,129.386781 62.5476039,137.59712 67.1390496,142.188013 C69.9743738,145.023337 74.1895078,145.809668 78.3035183,144.696758 L56,166.999724 L79.2302068,190.230483 C74.6945723,188.507517 69.8213072,189.129177 66.662167,192.288317 C62.0712739,196.879763 62.8371595,205.089549 68.3735291,210.626471 C73.9104513,216.16284 82.120237,216.929279 86.7116828,212.337833 C89.8708229,209.178693 90.4930359,204.30598 88.7700695,199.769793 L112.000276,223 L134.913298,200.086426 C130.514705,201.591673 125.870211,200.919727 122.821036,197.869999 C118.22959,193.279106 118.996028,185.068767 124.532398,179.532398 C130.068767,173.996028 138.279106,173.22959 142.869999,177.821036" id="Fill-8" fill="#4C90CF"></path>
        </g>
        <g id="cms" transform="translate(126.000000, 96.000000)" fill="#FFFFFF" fill-rule="nonzero">
            <path d="M0.12480222,13.1264874 C0.12480222,5.88363468 5.99050656,0 13.2328172,0 C19.7490058,0.0075722454 25.1571021,4.76672848 26.1706474,11.0024726 C33.2427732,9.3403647 40.9842927,11.2712873 46.4982817,16.7914542 L47.2508769,17.5486787 L37.5768139,27.2335806 L36.8280006,26.4801422 C33.6890356,23.3376603 28.5986178,23.3376603 25.455871,26.4839283 C22.3055604,29.6339824 22.3093423,34.745248 25.4407435,37.8801576 L27.3354681,39.773219 L37.0095311,49.4505486 L47.2433131,59.6882244 L37.5768139,69.3769124 L27.3354681,59.1316643 L17.6576232,49.4505486 L15.7704623,47.5612734 C9.92366744,41.7079277 8.11592619,33.3481688 10.3321111,25.9349405 C4.48909804,24.6135837 0.12480222,19.3849482 0.12480222,13.1264874 Z M28.4813794,38.6222377 L38.1554424,48.3033534 L48.3930063,38.0694638 L58.0670693,28.388348 L59.958012,26.4990728 C63.1083226,23.3452326 68.1873948,23.3490187 71.315014,26.4839283 C74.453979,29.622624 74.453979,34.7225313 71.3112322,37.8650131 L70.5662007,38.6184516 L80.2364818,48.3033534 L80.989077,47.5461289 C86.7715799,41.749575 88.6133581,33.5033998 86.4992841,26.1469634 C92.9247075,25.302658 97.8827594,19.7976356 97.8827594,13.1302735 C97.8865412,5.88363468 92.017055,0.0037861227 84.7747444,0.0037861227 C78.1488811,0.0037861227 72.668929,4.92953176 71.7839678,11.3205069 C64.4092912,9.15484469 56.1080526,10.9873281 50.2877309,16.8103848 L48.3967882,18.6958739 L38.7189433,28.3807758 L28.4813794,38.6222377 Z M86.733761,71.8795395 C88.4696465,64.7540566 86.5484487,56.9167826 80.9852951,51.3511822 L79.0867886,49.4467625 L69.4165075,39.7618606 L59.2091987,29.5317571 L49.5313538,39.2090867 L59.7462264,49.4467625 L69.4165075,59.1316643 L71.3074503,61.0285118 C74.4615427,64.1861382 74.453979,69.2709009 71.3263597,72.4020244 C68.1873948,75.5445063 63.0931951,75.5445063 59.9542301,72.3982383 L59.2091987,71.6561582 L49.5426995,81.3486324 L50.283949,82.0869263 C56.1723447,87.9781332 64.6021674,89.7803276 72.0449179,87.4935095 C73.2513394,93.4907279 78.545979,98 84.8882009,98 C92.1267297,98 97.9999978,92.1239376 97.9999978,84.8735126 C98.0037797,78.251584 93.106238,72.7730644 86.733761,71.8795395 Z M68.2743781,60.2788595 L58.604097,50.5939577 L48.3892244,60.8316334 L38.7189433,70.5127492 L36.8280006,72.4095967 C33.6965994,75.5482924 28.5948359,75.5520785 25.4445253,72.3982383 C22.3055604,69.2519703 22.3017785,64.1596353 25.4407435,61.0133673 L26.1895568,60.2712873 L16.5117119,50.5939577 L15.7704623,51.3284655 C10.1467987,56.9584299 8.25207406,64.9055015 10.0825066,72.0915624 C4.30378565,73.4545665 0,78.6566991 0,84.8659403 C0,92.1125792 5.86948623,97.9924278 13.1117969,97.9924278 C19.3405622,97.9848555 24.5557823,93.6459589 25.8907878,87.8115438 C33.0385513,89.5872354 40.9162187,87.6866018 46.5020636,82.0944985 L48.3967882,80.1938649 L58.0632874,70.5013908 L68.2743781,60.2788595 Z" id="Shape"></path>
        </g>
    </g>
</svg>