<svg width="148" height="80" viewBox="0 0 148 80" fill="none" xmlns="http://www.w3.org/2000/svg">
<rect width="148" height="80" rx="2" fill="#D1D5DB"/>
<rect x="1" y="1" width="146" height="78" rx="1" fill="#FAFBFB"/>
<path fill-rule="evenodd" clip-rule="evenodd" d="M53 12C49.134 12 46 15.134 46 19V61C46 64.866 49.134 68 53 68H95C98.866 68 102 64.866 102 61V19C102 15.134 98.866 12 95 12H53ZM82.9113 47.3211V67.9998L74.4274 68V47.3213H67.3334V39.2624H74.4276V33.3192C74.4276 26.4221 78.7218 22.6667 84.9941 22.6667C87.9984 22.6667 90.5806 22.886 91.3334 22.9839V30.1916L86.983 30.1935C83.5719 30.1935 82.9113 31.7837 82.9113 34.1169V39.2622H91.0466L89.9872 47.3211H82.9113Z" fill="#5D6B82"/>
</svg>
