<svg width="148" height="80" viewBox="0 0 148 80" fill="none" xmlns="http://www.w3.org/2000/svg">
<rect width="148" height="80" rx="2" fill="#D1D5DB"/>
<rect x="1" y="1" width="146" height="78" rx="1" fill="#FAFBFB"/>
<path fill-rule="evenodd" clip-rule="evenodd" d="M87.4971 26.2963V13.0799C87.4971 12.4836 87.9529 12 88.5157 12H100.981C101.544 12 102 12.4836 102 13.0799V26.2963C102 26.8926 101.544 27.3762 100.981 27.3762H94.9382C94.3755 27.3762 93.9196 27.8608 93.9196 28.4575V32.9201C93.9196 33.5167 93.4635 34 92.901 34H82.2676C81.7052 34 81.2478 33.5167 81.2478 32.9201V28.4783C81.2478 27.882 80.7919 27.3984 80.2291 27.3984H76.0199C75.4562 27.3984 75 26.9138 75 26.3171V21.8545C75 21.2579 75.4562 20.7746 76.0199 20.7746H80.2291C80.7919 20.7746 81.2478 21.2579 81.2478 21.8545V26.2963C81.2478 26.8926 81.7052 27.3762 82.2676 27.3762H86.4772C87.0397 27.3762 87.4971 26.8926 87.4971 26.2963ZM67.9808 41H58.0192C57.4564 41 57 40.5619 57 40.0218V35.9782C57 35.4381 57.4564 35 58.0192 35H67.9808C68.5436 35 69 35.4381 69 35.9782V40.0218C69 40.5619 68.5436 41 67.9808 41ZM73.9704 12H66.0283C65.4605 12 65 12.4381 65 12.9782V17.0218C65 17.5619 65.4605 18 66.0283 18H73.9704C74.5385 18 75 17.5619 75 17.0218V12.9782C74.9987 12.4381 74.5385 12 73.9704 12ZM81 49.9782V54.0218C81 54.5622 80.5622 55 80.0221 55H75.9782C75.4381 55 75 54.5622 75 54.0218V49.9782C75 49.4381 75.4381 49 75.9782 49H80.0221C80.5622 49 81 49.4381 81 49.9782ZM94.3334 47.5755V42.072C94.3334 41.4798 93.8819 41 93.3253 41H83.0082C82.4515 41 82 41.4798 82 42.072V46.5034C82 47.0957 82.4515 47.5755 83.0082 47.5755H86.6361C87.1931 47.5755 87.6443 48.0556 87.6443 48.6475V66.928C87.6443 67.5199 88.0967 68 88.6537 68H100.991C101.549 68 102 67.5199 102 66.928V53.8081C102 53.2161 101.549 52.736 100.991 52.736H95.3416C94.7846 52.736 94.3334 52.2563 94.3334 51.664V47.5755ZM94 40.0218V35.9782C94 35.4378 94.4378 35 94.9782 35H99.0218C99.5622 35 100 35.4378 100 35.9782V40.0218C100 40.5622 99.5622 41 99.0218 41H94.9782C94.4378 41 94 40.5622 94 40.0218ZM53.0142 47.5751H55.2355C55.7788 47.5751 56.2188 47.0954 56.2188 46.5032V42.072C56.2188 41.4797 55.7788 41 55.2355 41H51.1711C50.6279 41 50.1878 41.4797 50.1878 42.072V45.0883C50.1878 45.6802 49.7463 46.1603 49.2034 46.1603H46.9833C46.4403 46.1603 46 46.64 46 47.2323V66.9267C46 67.5186 46.4403 68 46.9833 68H59.0167C59.5597 68 60 67.5186 60 66.9267V53.8088C60 53.2155 59.5597 52.7354 59.0167 52.7354H53.0142C52.4713 52.7354 52.031 52.2557 52.031 51.6635V48.6485C52.031 48.0552 52.4713 47.5751 53.0142 47.5751ZM72.5575 50.3611V55.5648H72.5588V60.7689C72.5588 61.3286 73.0103 61.7826 73.5669 61.7826H83.9907C84.5476 61.7826 85 62.2362 85 62.7975V66.9863C85 67.546 84.5476 68 83.9907 68H73.5264C72.9698 68 72.517 67.546 72.517 66.9863V62.7975C72.517 62.2362 72.0659 61.7826 71.5093 61.7826H67.3838C66.8269 61.7826 66.3745 61.3286 66.3745 60.7689V56.5798C66.3745 56.0201 65.9233 55.5648 65.3664 55.5648H63.0093C62.4527 55.5648 62 55.1112 62 54.5512V50.3611C62 49.8014 62.4527 49.3474 63.0093 49.3474H67.3838C67.9404 49.3474 68.3919 48.8938 68.3919 48.3337V44.1436C68.3919 43.5836 68.843 43.13 69.3999 43.13H73.3584C73.9153 43.13 74.3665 42.676 74.3665 42.1163V38.0137C74.3665 37.4536 74.8179 37 75.3758 37H79.5415C80.0984 37 80.5496 37.4536 80.5496 38.0137V42.2038C80.5496 42.7638 80.0984 43.2174 79.5415 43.2174H75.583C75.0264 43.2174 74.5749 43.6714 74.5749 44.2311V48.3337C74.5749 48.8938 74.1238 49.3474 73.5669 49.3474C73.0103 49.3474 72.5575 49.8014 72.5575 50.3611ZM75 32.0218V27.9782C75 27.4381 74.5622 27 74.0218 27H69.9794C69.439 27 69 27.4381 69 27.9782V32.0218C69 32.5622 69.439 33 69.9794 33H74.0218C74.5622 33 75 32.5622 75 32.0218ZM55.2213 34H51.1631C50.6207 34 50.1814 33.5167 50.1814 32.9201V28.4561C50.1814 27.8598 49.7405 27.3762 49.1984 27.3762H46.9817C46.4397 27.3762 46 26.8929 46 26.2963V13.0799C46 12.4836 46.4397 12 46.9817 12H58.9966C59.5387 12 59.9784 12.4836 59.9784 13.0799V19.6725C59.9784 20.2688 60.4189 20.7524 60.9613 20.7524H65.0183C65.5606 20.7524 66 21.2357 66 21.8323V26.2949C66 26.8929 65.5606 27.3762 65.0183 27.3762H57.1848C56.6427 27.3762 56.203 27.8598 56.203 28.4561V32.9201C56.203 33.5167 55.7637 34 55.2213 34Z" fill="#5D6B82"/>
</svg>
