<svg width="148" height="80" viewBox="0 0 148 80" fill="none" xmlns="http://www.w3.org/2000/svg">
<rect width="148" height="80" rx="2" fill="#D1D5DB"/>
<path fill-rule="evenodd" clip-rule="evenodd" d="M2 1C1.44772 1 1 1.44771 1 2V78C1 78.5523 1.44771 79 2 79H146C146.552 79 147 78.5523 147 78V2C147 1.44772 146.552 1 146 1H2ZM62 18H86V26H62V18ZM90 18H114V26H90V18Z" fill="#FAFBFB"/>
<path fill-rule="evenodd" clip-rule="evenodd" d="M58 18H34V26H58V18ZM136 33.7187H12V41.7187H136V33.7187ZM136 45.7187H12V53.7187H136V45.7187ZM12 58H136V62H12V58Z" fill="#5D6B82"/>
</svg>
