<svg width="148" height="80" viewBox="0 0 148 80" fill="none" xmlns="http://www.w3.org/2000/svg">
<rect width="148" height="80" rx="2" fill="#D1D5DB"/>
<path fill-rule="evenodd" clip-rule="evenodd" d="M2 1C1.44772 1 1 1.44771 1 2V78C1 78.5523 1.44771 79 2 79H146C146.552 79 147 78.5523 147 78V2C147 1.44772 146.552 1 146 1H2ZM62 54.2813H86V62.2813H62V54.2813ZM90 54.2813H114V62.2813H90V54.2813Z" fill="#FAFBFB"/>
<path fill-rule="evenodd" clip-rule="evenodd" d="M136 18H12V26H136V18ZM136 30H12V38H136V30ZM12 42.2813H136V46.2813H12V42.2813ZM58 54.2813H34V62.2813H58V54.2813Z" fill="#5D6B82"/>
</svg>
