<svg width="148" height="80" viewBox="0 0 148 80" fill="none" xmlns="http://www.w3.org/2000/svg">
<rect width="148" height="80" rx="2" fill="#D1D5DB"/>
<path fill-rule="evenodd" clip-rule="evenodd" d="M2 1C1.44772 1 1 1.44771 1 2V78C1 78.5523 1.44771 79 2 79H146C146.552 79 147 78.5523 147 78V2C147 1.44772 146.552 1 146 1H2ZM112 32H136V40H112V32ZM112 44H136V52H112V44Z" fill="#FAFBFB"/>
<path fill-rule="evenodd" clip-rule="evenodd" d="M12 20H108V28H12V20ZM12 32H108V40H12V32ZM108 44H12V52H108V44ZM12 56H108V60H12V56ZM136 20H112V28H136V20Z" fill="#5D6B82"/>
</svg>
