<?xml version="1.0" encoding="UTF-8"?>
<svg width="148px" height="80px" viewBox="0 0 148 80" version="1.1" xmlns="http://www.w3.org/2000/svg" xmlns:xlink="http://www.w3.org/1999/xlink">
    <!-- Generator: Sketch 50.2 (55047) - http://www.bohemiancoding.com/sketch -->
    <title>Article Intro Text Copy</title>
    <desc>Created with Sketch.</desc>
    <defs></defs>
    <g id="Article-Intro-Text-Copy" stroke="none" stroke-width="1" fill="none" fill-rule="evenodd">
        <rect id="Rectangle-4" fill="#D1D5DB" x="0" y="0" width="148" height="80" rx="2"></rect>
        <rect id="Rectangle-3" fill="#FAFBFB" x="1" y="1" width="146" height="78" rx="1"></rect>
        <path d="M22.3828125,43.3515625 L17.9765625,43.3515625 L17.0546875,46 L15,46 L19.296875,34.625 L21.0703125,34.625 L25.375,46 L23.3125,46 L22.3828125,43.3515625 Z M18.53125,41.7578125 L21.828125,41.7578125 L20.1796875,37.0390625 L18.53125,41.7578125 Z M30.90625,39.28125 C30.6562487,39.2395831 30.3984388,39.21875 30.1328125,39.21875 C29.2630165,39.21875 28.6770848,39.55208 28.375,40.21875 L28.375,46 L26.4765625,46 L26.4765625,37.546875 L28.2890625,37.546875 L28.3359375,38.4921875 C28.7942731,37.7578088 29.4296834,37.390625 30.2421875,37.390625 C30.5130222,37.390625 30.7369783,37.427083 30.9140625,37.5 L30.90625,39.28125 Z M34.875,35.4921875 L34.875,37.546875 L36.3671875,37.546875 L36.3671875,38.953125 L34.875,38.953125 L34.875,43.671875 C34.875,43.9947933 34.9388014,44.2278639 35.0664062,44.3710938 C35.1940111,44.5143236 35.4218734,44.5859375 35.75,44.5859375 C35.9687511,44.5859375 36.190103,44.5598961 36.4140625,44.5078125 L36.4140625,45.9765625 C35.9817687,46.0963548 35.5651062,46.15625 35.1640625,46.15625 C33.7057219,46.15625 32.9765625,45.3515705 32.9765625,43.7421875 L32.9765625,38.953125 L31.5859375,38.953125 L31.5859375,37.546875 L32.9765625,37.546875 L32.9765625,35.4921875 L34.875,35.4921875 Z M39.8359375,46 L37.9375,46 L37.9375,37.546875 L39.8359375,37.546875 L39.8359375,46 Z M37.8203125,35.3515625 C37.8203125,35.0598944 37.9127595,34.8177093 38.0976562,34.625 C38.282553,34.4322907 38.5468733,34.3359375 38.890625,34.3359375 C39.2343767,34.3359375 39.4999991,34.4322907 39.6875,34.625 C39.8750009,34.8177093 39.96875,35.0598944 39.96875,35.3515625 C39.96875,35.6380223 39.8750009,35.8763011 39.6875,36.0664062 C39.4999991,36.2565114 39.2343767,36.3515625 38.890625,36.3515625 C38.5468733,36.3515625 38.282553,36.2565114 38.0976562,36.0664062 C37.9127595,35.8763011 37.8203125,35.6380223 37.8203125,35.3515625 Z M45.375,44.640625 C45.8489607,44.640625 46.2421859,44.5026055 46.5546875,44.2265625 C46.8671891,43.9505195 47.0338541,43.609377 47.0546875,43.203125 L48.84375,43.203125 C48.8229166,43.7291693 48.6588557,44.2200498 48.3515625,44.6757812 C48.0442693,45.1315127 47.6276068,45.4921862 47.1015625,45.7578125 C46.5755182,46.0234388 46.0078155,46.15625 45.3984375,46.15625 C44.2161399,46.15625 43.2786493,45.7734413 42.5859375,45.0078125 C41.8932257,44.2421837 41.546875,43.1849026 41.546875,41.8359375 L41.546875,41.640625 C41.546875,40.3541602 41.8906216,39.3242226 42.578125,38.5507812 C43.2656284,37.7773399 44.2031191,37.390625 45.390625,37.390625 C46.3958384,37.390625 47.2148406,37.6835908 47.8476562,38.2695312 C48.4804719,38.8554717 48.8124998,39.6249952 48.84375,40.578125 L47.0546875,40.578125 C47.0338541,40.0937476 46.8684911,39.6953141 46.5585938,39.3828125 C46.2486964,39.0703109 45.8541691,38.9140625 45.375,38.9140625 C44.7604136,38.9140625 44.28646,39.1367165 43.953125,39.5820312 C43.61979,40.027346 43.4505209,40.7031205 43.4453125,41.609375 L43.4453125,41.9140625 C43.4453125,42.8307338 43.6106754,43.5143207 43.9414062,43.9648438 C44.2721371,44.4153668 44.7499969,44.640625 45.375,44.640625 Z M52.296875,46 L50.3984375,46 L50.3984375,34 L52.296875,34 L52.296875,46 Z M58.0859375,46.15625 C56.8828065,46.15625 55.9075558,45.7773475 55.1601562,45.0195312 C54.4127567,44.261715 54.0390625,43.2526105 54.0390625,41.9921875 L54.0390625,41.7578125 C54.0390625,40.9140583 54.2018213,40.1601596 54.5273438,39.4960938 C54.8528662,38.8320279 55.3098929,38.315106 55.8984375,37.9453125 C56.4869821,37.575519 57.1432255,37.390625 57.8671875,37.390625 C59.0182349,37.390625 59.9075489,37.7578088 60.5351562,38.4921875 C61.1627636,39.2265662 61.4765625,40.2656183 61.4765625,41.609375 L61.4765625,42.375 L55.953125,42.375 C56.010417,43.0729202 56.2434875,43.624998 56.6523438,44.03125 C57.0612,44.437502 57.5755177,44.640625 58.1953125,44.640625 C59.0651085,44.640625 59.7734348,44.289066 60.3203125,43.5859375 L61.34375,44.5625 C61.0052066,45.0677109 60.5533882,45.459634 59.9882812,45.7382812 C59.4231743,46.0169285 58.789066,46.15625 58.0859375,46.15625 Z M57.859375,38.9140625 C57.3385391,38.9140625 56.9179704,39.0963523 56.5976562,39.4609375 C56.2773421,39.8255227 56.0729171,40.3333301 55.984375,40.984375 L59.6015625,40.984375 L59.6015625,40.84375 C59.5598956,40.2083302 59.3906265,39.7278662 59.09375,39.4023438 C58.7968735,39.0768213 58.3854193,38.9140625 57.859375,38.9140625 Z M69.203125,46 L67.234375,46 L67.234375,34.625 L69.203125,34.625 L69.203125,46 Z M73.2109375,37.546875 L73.265625,38.5234375 C73.8906281,37.7682254 74.7109324,37.390625 75.7265625,37.390625 C77.486988,37.390625 78.3828123,38.3984274 78.4140625,40.4140625 L78.4140625,46 L76.515625,46 L76.515625,40.5234375 C76.515625,39.9869765 76.3997407,39.589845 76.1679688,39.3320312 C75.9361968,39.0742175 75.5572943,38.9453125 75.03125,38.9453125 C74.2656212,38.9453125 73.6953144,39.2916632 73.3203125,39.984375 L73.3203125,46 L71.421875,46 L71.421875,37.546875 L73.2109375,37.546875 Z M82.7265625,35.4921875 L82.7265625,37.546875 L84.21875,37.546875 L84.21875,38.953125 L82.7265625,38.953125 L82.7265625,43.671875 C82.7265625,43.9947933 82.7903639,44.2278639 82.9179688,44.3710938 C83.0455736,44.5143236 83.2734359,44.5859375 83.6015625,44.5859375 C83.8203136,44.5859375 84.0416655,44.5598961 84.265625,44.5078125 L84.265625,45.9765625 C83.8333312,46.0963548 83.4166687,46.15625 83.015625,46.15625 C81.5572844,46.15625 80.828125,45.3515705 80.828125,43.7421875 L80.828125,38.953125 L79.4375,38.953125 L79.4375,37.546875 L80.828125,37.546875 L80.828125,35.4921875 L82.7265625,35.4921875 Z M90.09375,39.28125 C89.8437488,39.2395831 89.5859388,39.21875 89.3203125,39.21875 C88.4505165,39.21875 87.8645848,39.55208 87.5625,40.21875 L87.5625,46 L85.6640625,46 L85.6640625,37.546875 L87.4765625,37.546875 L87.5234375,38.4921875 C87.9817731,37.7578088 88.6171834,37.390625 89.4296875,37.390625 C89.7005222,37.390625 89.9244783,37.427083 90.1015625,37.5 L90.09375,39.28125 Z M90.65625,41.6953125 C90.65625,40.8671834 90.8203109,40.1210971 91.1484375,39.4570312 C91.4765641,38.7929654 91.937497,38.2825539 92.53125,37.9257812 C93.125003,37.5690086 93.8072878,37.390625 94.578125,37.390625 C95.7187557,37.390625 96.6445277,37.7578088 97.3554688,38.4921875 C98.0664098,39.2265662 98.4505205,40.2005148 98.5078125,41.4140625 L98.515625,41.859375 C98.515625,42.6927125 98.3554704,43.4374967 98.0351562,44.09375 C97.7148421,44.7500033 97.2565134,45.2578107 96.6601562,45.6171875 C96.0637991,45.9765643 95.3750039,46.15625 94.59375,46.15625 C93.4010357,46.15625 92.4466182,45.7591186 91.7304688,44.9648438 C91.0143193,44.1705689 90.65625,43.1119858 90.65625,41.7890625 L90.65625,41.6953125 Z M92.5546875,41.859375 C92.5546875,42.729171 92.7343732,43.4101538 93.09375,43.9023438 C93.4531268,44.3945337 93.9531218,44.640625 94.59375,44.640625 C95.2343782,44.640625 95.7330711,44.3906275 96.0898438,43.890625 C96.4466164,43.3906225 96.625,42.658859 96.625,41.6953125 C96.625,40.8411416 96.4414081,40.164065 96.0742188,39.6640625 C95.7070294,39.16406 95.2083365,38.9140625 94.578125,38.9140625 C93.9583302,38.9140625 93.4661477,39.1601538 93.1015625,39.6523438 C92.7369773,40.1445337 92.5546875,40.8802034 92.5546875,41.859375 Z M112.039062,36.21875 L108.492188,36.21875 L108.492188,46 L106.53125,46 L106.53125,36.21875 L103.015625,36.21875 L103.015625,34.625 L112.039062,34.625 L112.039062,36.21875 Z M116.375,46.15625 C115.171869,46.15625 114.196618,45.7773475 113.449219,45.0195312 C112.701819,44.261715 112.328125,43.2526105 112.328125,41.9921875 L112.328125,41.7578125 C112.328125,40.9140583 112.490884,40.1601596 112.816406,39.4960938 C113.141929,38.8320279 113.598955,38.315106 114.1875,37.9453125 C114.776045,37.575519 115.432288,37.390625 116.15625,37.390625 C117.307297,37.390625 118.196611,37.7578088 118.824219,38.4921875 C119.451826,39.2265662 119.765625,40.2656183 119.765625,41.609375 L119.765625,42.375 L114.242188,42.375 C114.299479,43.0729202 114.53255,43.624998 114.941406,44.03125 C115.350262,44.437502 115.86458,44.640625 116.484375,44.640625 C117.354171,44.640625 118.062497,44.289066 118.609375,43.5859375 L119.632812,44.5625 C119.294269,45.0677109 118.842451,45.459634 118.277344,45.7382812 C117.712237,46.0169285 117.078129,46.15625 116.375,46.15625 Z M116.148438,38.9140625 C115.627602,38.9140625 115.207033,39.0963523 114.886719,39.4609375 C114.566405,39.8255227 114.36198,40.3333301 114.273438,40.984375 L117.890625,40.984375 L117.890625,40.84375 C117.848958,40.2083302 117.679689,39.7278662 117.382812,39.4023438 C117.085936,39.0768213 116.674482,38.9140625 116.148438,38.9140625 Z M124.273438,40.328125 L125.882812,37.546875 L127.992188,37.546875 L125.40625,41.7109375 L128.078125,46 L125.984375,46 L124.296875,43.109375 L122.617188,46 L120.507812,46 L123.179688,41.7109375 L120.601562,37.546875 L122.695312,37.546875 L124.273438,40.328125 Z M131.664062,35.4921875 L131.664062,37.546875 L133.15625,37.546875 L133.15625,38.953125 L131.664062,38.953125 L131.664062,43.671875 C131.664062,43.9947933 131.727864,44.2278639 131.855469,44.3710938 C131.983074,44.5143236 132.210936,44.5859375 132.539062,44.5859375 C132.757814,44.5859375 132.979166,44.5598961 133.203125,44.5078125 L133.203125,45.9765625 C132.770831,46.0963548 132.354169,46.15625 131.953125,46.15625 C130.494784,46.15625 129.765625,45.3515705 129.765625,43.7421875 L129.765625,38.953125 L128.375,38.953125 L128.375,37.546875 L129.765625,37.546875 L129.765625,35.4921875 L131.664062,35.4921875 Z" id="Article-Intro-Text" fill="#5D6B82"></path>
    </g>
</svg>