<svg width="148" height="80" viewBox="0 0 148 80" fill="none" xmlns="http://www.w3.org/2000/svg">
<rect width="148" height="80" rx="2" fill="#D1D5DB"/>
<rect x="1" y="1" width="146" height="78" rx="1" fill="#FAFBFB"/>
<path fill-rule="evenodd" clip-rule="evenodd" d="M53 12C49.134 12 46 15.134 46 19V61C46 64.866 49.134 68 53 68H95C98.866 68 102 64.866 102 61V19C102 15.134 98.866 12 95 12H53ZM86.8345 30.6842C88.2203 30.5412 89.5634 30.1737 90.8 29.6633C89.8619 30.97 88.6893 32.1337 87.3461 33.0729C87.3675 33.3587 87.3675 33.6446 87.3675 33.9304C87.3675 42.6483 80.4385 52.6933 67.7746 52.6933C63.873 52.6933 60.2487 51.6112 57.2 49.7329C57.7543 49.7942 58.2873 49.8146 58.8629 49.8146C62.0822 49.8146 65.0456 48.7733 67.4121 46.9971C64.3847 46.9358 61.8477 45.0371 60.9736 42.4237C61.4 42.485 61.8263 42.5258 62.2741 42.5258C62.8923 42.5258 63.5106 42.4442 64.0862 42.3012C60.9309 41.6887 58.5644 39.0346 58.5644 35.8292V35.7475C59.4812 36.2375 60.5472 36.5437 61.6771 36.5846C59.8223 35.4004 58.6071 33.3792 58.6071 31.0925C58.6071 29.8675 58.9482 28.7446 59.5451 27.7646C62.935 31.7662 68.0304 34.3796 73.7441 34.6654C73.6375 34.1754 73.5736 33.665 73.5736 33.1546C73.5736 29.5204 76.6436 26.56 80.4599 26.56C82.4426 26.56 84.2335 27.3562 85.4913 28.6425C87.0477 28.3567 88.5401 27.8054 89.8619 27.05C89.3502 28.5812 88.2629 29.8675 86.8345 30.6842Z" fill="#5D6B82"/>
</svg>
