<?xml version="1.0" encoding="UTF-8"?>
<svg width="148px" height="80px" viewBox="0 0 148 80" version="1.1" xmlns="http://www.w3.org/2000/svg" xmlns:xlink="http://www.w3.org/1999/xlink">
    <!-- Generator: Sketch 50.2 (55047) - http://www.bohemiancoding.com/sketch -->
    <title>Image 3</title>
    <desc>Created with Sketch.</desc>
    <defs></defs>
    <g id="Image-3" stroke="none" stroke-width="1" fill="none" fill-rule="evenodd">
        <rect id="Rectangle-4" fill="#D1D5DB" x="0" y="0" width="148" height="80" rx="2"></rect>
        <rect id="Rectangle-3" fill="#FAFBFB" x="1" y="1" width="146" height="78" rx="1"></rect>
        <g id="1-copy" transform="translate(35.000000, 22.000000)" fill-rule="nonzero">
            <polygon id="Shape" fill="#D2D8DE" points="0 0 36 0 36 36 0 36"></polygon>
            <path d="M11.1565802,9.64216257 C11.6101983,10.0422355 12.2047511,10.2857143 12.8568903,10.2857143 C13.5085243,10.2857143 14.1035823,10.0422355 14.5572004,9.64266771 C15.0911361,9.17187478 15.4285714,8.48286023 15.4285714,7.71453829 C15.4285714,7.49227553 15.4007886,7.27708477 15.3477486,7.07149171 C15.062343,5.96219849 14.0555938,5.14285714 12.8573954,5.14285714 C11.6591971,5.14285714 10.6519427,5.96169335 10.3665371,7.07098657 C10.3134971,7.27657962 10.2857143,7.49177038 10.2857143,7.71403314 C10.2857143,8.48184994 10.6226444,9.17136964 11.1565802,9.64266771 L11.1565802,9.64216257 Z" id="Shape" fill="#FFFFFF"></path>
            <path d="M31.087206,21.6424287 L29.2453971,19.9200253 L28.6314608,19.3454699 L27.9119431,18.6730506 C27.4322646,18.2247711 26.8039901,18 26.1750638,18 C25.5461376,18 24.9172113,18.2247711 24.4381846,18.673682 L23.7186668,19.3461012 L23.1047305,19.9206566 L21.2622699,21.6443228 L20.6483335,22.2176155 L18.8065246,23.9412817 L18.1912848,24.5145743 L16.3494759,26.2382406 L15.7348878,26.812796 L15.4285714,27.0994423 L24.9465395,36 L36,36 L36,26.2369778 L33.5429513,23.9400189 L31.7017941,22.2163527 L31.087206,21.6417973 L31.087206,21.6424287 Z" id="Shape" fill="#717F8E"></path>
            <path d="M16.2246176,27.8138087 L15.9183974,27.5492337 L14.6935168,26.4933389 L13.4686361,25.4368427 L12.2450182,24.3803466 L11.5277685,23.7610006 C11.3080477,23.5721902 11.0567577,23.426674 10.7890518,23.3244518 C10.473361,23.2041904 10.1349403,23.1428571 9.7958883,23.1428571 C9.45746767,23.1428571 9.11904703,23.2029878 8.80461891,23.3244518 C8.53565027,23.426674 8.28436032,23.5721902 8.06463946,23.7616019 L7.34675838,24.3809479 L6.12187773,25.4368427 L4.89699708,26.4933389 L3.67337919,27.5492337 L2.44849854,28.6057298 L0,30.718722 L0,36 L25.7142857,36 L16.2246176,27.8138087 Z" id="Shape" fill="#919DA9"></path>
        </g>
        <rect id="Rectangle-9-Copy" fill="#5D6B82" x="76" y="22" width="22" height="3"></rect>
        <rect id="Rectangle-7-Copy-3" fill="#D1D5DB" x="76" y="28" width="38" height="3"></rect>
        <rect id="Rectangle-7-Copy-5" fill="#D1D5DB" x="76" y="36" width="38" height="3"></rect>
        <rect id="Rectangle-7-Copy-7" fill="#D1D5DB" x="76" y="44" width="38" height="3"></rect>
        <rect id="Rectangle-7-Copy-4" fill="#D1D5DB" x="76" y="32" width="30" height="3"></rect>
        <rect id="Rectangle-7-Copy-6" fill="#D1D5DB" x="76" y="40" width="30" height="3"></rect>
        <rect id="Rectangle-7-Copy-8" fill="#D1D5DB" x="76" y="48" width="30" height="3"></rect>
        <rect id="Rectangle-7-Copy-10" fill="#D1D5DB" x="76" y="52" width="38" height="3"></rect>
    </g>
</svg>