<svg width="148" height="80" viewBox="0 0 148 80" fill="none" xmlns="http://www.w3.org/2000/svg">
<rect width="148" height="80" rx="2" fill="#D1D5DB"/>
<rect x="1" y="1" width="146" height="78" rx="1" fill="#FAFBFB"/>
<path fill-rule="evenodd" clip-rule="evenodd" d="M136 14H48V18H136V14ZM136 26H48V30H136V26ZM48 38H136V42H48V38ZM136 50H12V54H136V50ZM12 62H136V66H12V62ZM29.6704 31.4192H22.1689L25.9798 20.4016L29.6704 31.4192ZM29.5301 14H22.5501L12 42H18.4585L20.5043 36.2442H31.3954L33.3009 42H40L29.5301 14Z" fill="#5D6B82"/>
</svg>
