<svg width="148" height="80" viewBox="0 0 148 80" fill="none" xmlns="http://www.w3.org/2000/svg">
<rect width="148" height="80" rx="2" fill="#D1D5DB"/>
<rect x="1" y="1" width="146" height="78" rx="1" fill="#FAFBFB"/>
<path fill-rule="evenodd" clip-rule="evenodd" d="M48 14H136V18H48V14ZM48 26H136V30H48V26ZM136 38H48V42H136V38ZM12 50H136V54H12V50ZM136 62H12V66H136V62ZM12 14H40V42H12V14ZM25.9872 22.9826L28.9743 30.719H23L25.9872 22.9826ZM28.2693 19H23.7822L17 37H21.1519L22.467 33.2999H29.4685L30.6934 37H35L28.2693 19Z" fill="#5D6B82"/>
</svg>
