<svg width="148" height="80" viewBox="0 0 148 80" fill="none" xmlns="http://www.w3.org/2000/svg">
<rect width="148" height="80" rx="2" fill="#D1D5DB"/>
<rect x="1" y="1" width="146" height="78" rx="1" fill="#FAFBFB"/>
<path fill-rule="evenodd" clip-rule="evenodd" d="M48 14H136V18H48V14ZM48 26H136V30H48V26ZM136 38H48V42H136V38ZM12 50H136V54H12V50ZM136 62H12V66H136V62ZM12 28C12 20.268 18.268 14 26 14C33.732 14 40 20.268 40 28C40 35.732 33.732 42 26 42C18.268 42 12 35.732 12 28ZM26 21.9091L28.4545 28.4545H23.5454L26 21.9091ZM28.2693 17H23.7822L17 35H21.1519L22.467 31.2999H29.4685L30.6934 35H35L28.2693 17Z" fill="#5D6B82"/>
</svg>
