<svg width="148" height="80" viewBox="0 0 148 80" fill="none" xmlns="http://www.w3.org/2000/svg">
<rect width="148" height="80" rx="2" fill="#D1D5DB"/>
<rect x="1" y="1" width="146" height="78" rx="1" fill="#FAFBFB"/>
<path fill-rule="evenodd" clip-rule="evenodd" d="M136 24H12V56H136V24ZM31.4697 46L32.5068 43.0205H37.4639L38.5098 46H40.8301L35.9873 33.2031H33.9922L29.1582 46H31.4697ZM34.9854 35.9189L36.8398 41.2275H33.1309L34.9854 35.9189ZM42.7021 37.6504C42.0225 38.5352 41.6826 39.71 41.6826 41.1748C41.6826 42.7158 42.0254 43.9346 42.7109 44.8311C43.4023 45.7275 44.3047 46.1758 45.418 46.1758C46.4844 46.1758 47.3369 45.7891 47.9756 45.0156L48.0811 46H50.0146V32.5H47.8789V37.3691C47.2578 36.666 46.4434 36.3145 45.4355 36.3145C44.293 36.3145 43.3818 36.7598 42.7021 37.6504ZM44.3721 43.627C44.0029 43.082 43.8184 42.3262 43.8184 41.3594C43.8184 40.2578 44.0059 39.4346 44.3809 38.8896C44.7559 38.3389 45.2891 38.0635 45.9805 38.0635C46.8535 38.0635 47.4863 38.4443 47.8789 39.2061V43.2666C47.4746 44.0459 46.8359 44.4355 45.9629 44.4355C45.2773 44.4355 44.7471 44.166 44.3721 43.627ZM52.8623 37.6504C52.1826 38.5352 51.8428 39.71 51.8428 41.1748C51.8428 42.7158 52.1855 43.9346 52.8711 44.8311C53.5625 45.7275 54.4648 46.1758 55.5781 46.1758C56.6445 46.1758 57.4971 45.7891 58.1357 45.0156L58.2412 46H60.1748V32.5H58.0391V37.3691C57.418 36.666 56.6035 36.3145 55.5957 36.3145C54.4531 36.3145 53.542 36.7598 52.8623 37.6504ZM54.5322 43.627C54.1631 43.082 53.9785 42.3262 53.9785 41.3594C53.9785 40.2578 54.166 39.4346 54.541 38.8896C54.916 38.3389 55.4492 38.0635 56.1406 38.0635C57.0137 38.0635 57.6465 38.4443 58.0391 39.2061V43.2666C57.6348 44.0459 56.9961 44.4355 56.123 44.4355C55.4375 44.4355 54.9072 44.166 54.5322 43.627ZM69.5615 36.4902V34.1787H67.4258V36.4902H65.8613V38.0723H67.4258V43.46C67.4258 45.2705 68.2461 46.1758 69.8867 46.1758C70.3379 46.1758 70.8066 46.1084 71.293 45.9736V44.3213C71.041 44.3799 70.792 44.4092 70.5459 44.4092C70.1768 44.4092 69.9189 44.3301 69.7725 44.1719C69.6318 44.0078 69.5615 43.7441 69.5615 43.3809V38.0723H71.2402V36.4902H69.5615ZM72.7695 38.6436C72.4004 39.3877 72.2158 40.2256 72.2158 41.1572V41.2627C72.2158 42.751 72.6172 43.9434 73.4199 44.8398C74.2285 45.7305 75.3037 46.1758 76.6455 46.1758C77.5244 46.1758 78.2979 45.9736 78.9658 45.5693C79.6396 45.165 80.1553 44.5938 80.5127 43.8555C80.876 43.1172 81.0576 42.2793 81.0576 41.3418L81.0488 40.8408C80.9844 39.4756 80.5508 38.3799 79.748 37.5537C78.9512 36.7275 77.9111 36.3145 76.6279 36.3145C75.7607 36.3145 74.9932 36.5166 74.3252 36.9209C73.6572 37.3193 73.1387 37.8936 72.7695 38.6436ZM74.958 43.6445C74.5537 43.0879 74.3516 42.3203 74.3516 41.3418C74.3516 40.2402 74.5566 39.4141 74.9668 38.8633C75.377 38.3066 75.9307 38.0283 76.6279 38.0283C77.3369 38.0283 77.8965 38.3096 78.3066 38.8721C78.7227 39.4346 78.9307 40.1963 78.9307 41.1572C78.9307 42.2412 78.7285 43.0645 78.3242 43.627C77.9258 44.1895 77.3662 44.4707 76.6455 44.4707C75.9248 44.4707 75.3623 44.1953 74.958 43.6445ZM92.5801 44.0049C92.2285 44.3154 91.7861 44.4707 91.2529 44.4707C90.5498 44.4707 90.0107 44.2188 89.6357 43.7148C89.2666 43.2051 89.082 42.4346 89.082 41.4033V41.0605C89.0879 40.041 89.2783 39.2822 89.6533 38.7842C90.0283 38.2803 90.5615 38.0283 91.2529 38.0283C91.792 38.0283 92.2344 38.2041 92.5801 38.5557C92.9316 38.9072 93.1191 39.3555 93.1426 39.9004H95.1553C95.1201 38.8281 94.7451 37.9639 94.0303 37.3076C93.3213 36.6455 92.4014 36.3145 91.2705 36.3145C89.9346 36.3145 88.8799 36.751 88.1064 37.624C87.333 38.4912 86.9463 39.6484 86.9463 41.0957V41.3154C86.9463 42.833 87.3359 44.0225 88.1152 44.8838C88.8945 45.7451 89.9492 46.1758 91.2793 46.1758C91.9648 46.1758 92.6035 46.0264 93.1953 45.7275C93.7871 45.4287 94.2559 45.0244 94.6016 44.5146C94.9473 43.999 95.1318 43.4453 95.1553 42.8535H93.1426C93.1191 43.3105 92.9316 43.6943 92.5801 44.0049ZM102.204 45.1123C102.274 45.5225 102.356 45.8184 102.45 46H104.63V45.8506C104.39 45.3408 104.27 44.6582 104.27 43.8027V39.5137C104.252 38.5 103.912 37.7148 103.25 37.1582C102.588 36.5957 101.7 36.3145 100.587 36.3145C99.8545 36.3145 99.1895 36.4434 98.5918 36.7012C98 36.959 97.5312 37.3164 97.1855 37.7734C96.8398 38.2246 96.667 38.7109 96.667 39.2324H98.8027C98.8027 38.8574 98.958 38.5498 99.2686 38.3096C99.5791 38.0635 99.9775 37.9404 100.464 37.9404C101.026 37.9404 101.445 38.0898 101.721 38.3887C101.996 38.6816 102.134 39.0742 102.134 39.5664V40.1904H100.824C99.4238 40.1904 98.3457 40.4629 97.5898 41.0078C96.8398 41.5469 96.4648 42.3232 96.4648 43.3369C96.4648 44.1396 96.7666 44.8135 97.3701 45.3584C97.9736 45.9033 98.7529 46.1758 99.708 46.1758C100.692 46.1758 101.524 45.8213 102.204 45.1123ZM101.29 44.1543C100.921 44.3594 100.525 44.4619 100.104 44.4619C99.6465 44.4619 99.2803 44.3418 99.0049 44.1016C98.7354 43.8555 98.6006 43.5273 98.6006 43.1172C98.6006 42.6133 98.7998 42.2236 99.1982 41.9482C99.5967 41.6729 100.191 41.5352 100.982 41.5352H102.134V43.3281C101.946 43.6738 101.665 43.9492 101.29 44.1543ZM110.615 38.3711C110.914 38.3711 111.204 38.3945 111.485 38.4414L111.494 36.4375C111.295 36.3555 111.043 36.3145 110.738 36.3145C109.824 36.3145 109.109 36.7275 108.594 37.5537L108.541 36.4902H106.502V46H108.638V39.4961C108.978 38.7461 109.637 38.3711 110.615 38.3711ZM115.95 36.4902V34.1787H113.814V36.4902H112.25V38.0723H113.814V43.46C113.814 45.2705 114.635 46.1758 116.275 46.1758C116.727 46.1758 117.195 46.1084 117.682 45.9736V44.3213C117.43 44.3799 117.181 44.4092 116.935 44.4092C116.565 44.4092 116.308 44.3301 116.161 44.1719C116.021 44.0078 115.95 43.7441 115.95 43.3809V38.0723H117.629V36.4902H115.95Z" fill="#5D6B82"/>
</svg>
