<svg width="148" height="80" viewBox="0 0 148 80" fill="none" xmlns="http://www.w3.org/2000/svg">
<rect width="148" height="80" rx="2" fill="#D1D5DB"/>
<rect x="1" y="1" width="146" height="78" rx="1" fill="#FAFBFB"/>
<path fill-rule="evenodd" clip-rule="evenodd" d="M12 24H136V56H12V24ZM44.5068 43.0205L43.4697 46H41.1582L45.9922 33.2031H47.9873L52.8301 46H50.5098L49.4639 43.0205H44.5068ZM48.8398 41.2275L46.9854 35.9189L45.1309 41.2275H48.8398ZM53.6826 41.1748C53.6826 39.71 54.0225 38.5352 54.7021 37.6504C55.3818 36.7598 56.293 36.3145 57.4355 36.3145C58.4434 36.3145 59.2578 36.666 59.8789 37.3691V32.5H62.0146V46H60.0811L59.9756 45.0156C59.3369 45.7891 58.4844 46.1758 57.418 46.1758C56.3047 46.1758 55.4023 45.7275 54.7109 44.8311C54.0254 43.9346 53.6826 42.7158 53.6826 41.1748ZM55.8184 41.3594C55.8184 42.3262 56.0029 43.082 56.3721 43.627C56.7471 44.166 57.2773 44.4355 57.9629 44.4355C58.8359 44.4355 59.4746 44.0459 59.8789 43.2666V39.2061C59.4863 38.4443 58.8535 38.0635 57.9805 38.0635C57.2891 38.0635 56.7559 38.3389 56.3809 38.8896C56.0059 39.4346 55.8184 40.2578 55.8184 41.3594ZM63.8428 41.1748C63.8428 39.71 64.1826 38.5352 64.8623 37.6504C65.542 36.7598 66.4531 36.3145 67.5957 36.3145C68.6035 36.3145 69.418 36.666 70.0391 37.3691V32.5H72.1748V46H70.2412L70.1357 45.0156C69.4971 45.7891 68.6445 46.1758 67.5781 46.1758C66.4648 46.1758 65.5625 45.7275 64.8711 44.8311C64.1855 43.9346 63.8428 42.7158 63.8428 41.1748ZM65.9785 41.3594C65.9785 42.3262 66.1631 43.082 66.5322 43.627C66.9072 44.166 67.4375 44.4355 68.123 44.4355C68.9961 44.4355 69.6348 44.0459 70.0391 43.2666V39.2061C69.6465 38.4443 69.0137 38.0635 68.1406 38.0635C67.4492 38.0635 66.916 38.3389 66.541 38.8896C66.166 39.4346 65.9785 40.2578 65.9785 41.3594ZM81.5615 34.1787V36.4902H83.2402V38.0723H81.5615V43.3809C81.5615 43.7441 81.6318 44.0078 81.7725 44.1719C81.9189 44.3301 82.1768 44.4092 82.5459 44.4092C82.792 44.4092 83.041 44.3799 83.293 44.3213V45.9736C82.8066 46.1084 82.3379 46.1758 81.8867 46.1758C80.2461 46.1758 79.4258 45.2705 79.4258 43.46V38.0723H77.8613V36.4902H79.4258V34.1787H81.5615ZM84.2158 41.1572C84.2158 40.2256 84.4004 39.3877 84.7695 38.6436C85.1387 37.8936 85.6572 37.3193 86.3252 36.9209C86.9932 36.5166 87.7607 36.3145 88.6279 36.3145C89.9111 36.3145 90.9512 36.7275 91.748 37.5537C92.5508 38.3799 92.9844 39.4756 93.0488 40.8408L93.0576 41.3418C93.0576 42.2793 92.876 43.1172 92.5127 43.8555C92.1553 44.5938 91.6396 45.165 90.9658 45.5693C90.2979 45.9736 89.5244 46.1758 88.6455 46.1758C87.3037 46.1758 86.2285 45.7305 85.4199 44.8398C84.6172 43.9434 84.2158 42.751 84.2158 41.2627V41.1572ZM86.3516 41.3418C86.3516 42.3203 86.5537 43.0879 86.958 43.6445C87.3623 44.1953 87.9248 44.4707 88.6455 44.4707C89.3662 44.4707 89.9258 44.1895 90.3242 43.627C90.7285 43.0645 90.9307 42.2412 90.9307 41.1572C90.9307 40.1963 90.7227 39.4346 90.3066 38.8721C89.8965 38.3096 89.3369 38.0283 88.6279 38.0283C87.9307 38.0283 87.377 38.3066 86.9668 38.8633C86.5566 39.4141 86.3516 40.2402 86.3516 41.3418ZM103.253 44.4707C103.786 44.4707 104.229 44.3154 104.58 44.0049C104.932 43.6943 105.119 43.3105 105.143 42.8535H107.155C107.132 43.4453 106.947 43.999 106.602 44.5146C106.256 45.0244 105.787 45.4287 105.195 45.7275C104.604 46.0264 103.965 46.1758 103.279 46.1758C101.949 46.1758 100.895 45.7451 100.115 44.8838C99.3359 44.0225 98.9463 42.833 98.9463 41.3154V41.0957C98.9463 39.6484 99.333 38.4912 100.106 37.624C100.88 36.751 101.935 36.3145 103.271 36.3145C104.401 36.3145 105.321 36.6455 106.03 37.3076C106.745 37.9639 107.12 38.8281 107.155 39.9004H105.143C105.119 39.3555 104.932 38.9072 104.58 38.5557C104.234 38.2041 103.792 38.0283 103.253 38.0283C102.562 38.0283 102.028 38.2803 101.653 38.7842C101.278 39.2822 101.088 40.041 101.082 41.0605V41.4033C101.082 42.4346 101.267 43.2051 101.636 43.7148C102.011 44.2188 102.55 44.4707 103.253 44.4707ZM114.45 46C114.356 45.8184 114.274 45.5225 114.204 45.1123C113.524 45.8213 112.692 46.1758 111.708 46.1758C110.753 46.1758 109.974 45.9033 109.37 45.3584C108.767 44.8135 108.465 44.1396 108.465 43.3369C108.465 42.3232 108.84 41.5469 109.59 41.0078C110.346 40.4629 111.424 40.1904 112.824 40.1904H114.134V39.5664C114.134 39.0742 113.996 38.6816 113.721 38.3887C113.445 38.0898 113.026 37.9404 112.464 37.9404C111.978 37.9404 111.579 38.0635 111.269 38.3096C110.958 38.5498 110.803 38.8574 110.803 39.2324H108.667C108.667 38.7109 108.84 38.2246 109.186 37.7734C109.531 37.3164 110 36.959 110.592 36.7012C111.189 36.4434 111.854 36.3145 112.587 36.3145C113.7 36.3145 114.588 36.5957 115.25 37.1582C115.912 37.7148 116.252 38.5 116.27 39.5137V43.8027C116.27 44.6582 116.39 45.3408 116.63 45.8506V46H114.45ZM112.104 44.4619C112.525 44.4619 112.921 44.3594 113.29 44.1543C113.665 43.9492 113.946 43.6738 114.134 43.3281V41.5352H112.982C112.191 41.5352 111.597 41.6729 111.198 41.9482C110.8 42.2236 110.601 42.6133 110.601 43.1172C110.601 43.5273 110.735 43.8555 111.005 44.1016C111.28 44.3418 111.646 44.4619 112.104 44.4619ZM123.485 38.4414C123.204 38.3945 122.914 38.3711 122.615 38.3711C121.637 38.3711 120.978 38.7461 120.638 39.4961V46H118.502V36.4902H120.541L120.594 37.5537C121.109 36.7275 121.824 36.3145 122.738 36.3145C123.043 36.3145 123.295 36.3555 123.494 36.4375L123.485 38.4414ZM127.95 34.1787V36.4902H129.629V38.0723H127.95V43.3809C127.95 43.7441 128.021 44.0078 128.161 44.1719C128.308 44.3301 128.565 44.4092 128.935 44.4092C129.181 44.4092 129.43 44.3799 129.682 44.3213V45.9736C129.195 46.1084 128.727 46.1758 128.275 46.1758C126.635 46.1758 125.814 45.2705 125.814 43.46V38.0723H124.25V36.4902H125.814V34.1787H127.95ZM23 46.3333C23 47.2538 22.2538 48 21.3333 48C20.4128 48 19.6666 47.2538 19.6666 46.3333C19.6666 45.4129 20.4128 44.6667 21.3333 44.6667C22.2538 44.6667 23 45.4129 23 46.3333ZM30 48C30.9205 48 31.6667 47.2538 31.6667 46.3333C31.6667 45.4129 30.9205 44.6667 30 44.6667C29.0796 44.6667 28.3334 45.4129 28.3334 46.3333C28.3334 47.2538 29.0796 48 30 48ZM21 43.3333H30.3333C30.6273 43.3333 30.8873 43.14 30.972 42.858L32.972 36.1913C33.0327 35.99 32.994 35.7713 32.868 35.602C32.7427 35.4327 32.544 35.3333 32.3333 35.3333H20.6947L20.3273 32.5787C20.2833 32.2473 20.0007 32 19.6667 32H17V33.3333H19.0833L20.3393 42.7547C20.3833 43.086 20.666 43.3333 21 43.3333Z" fill="#5D6B82"/>
</svg>
