<svg width="148" height="80" viewBox="0 0 148 80" fill="none" xmlns="http://www.w3.org/2000/svg">
<rect width="148" height="80" rx="2" fill="#D1D5DB"/>
<rect x="1" y="1" width="146" height="78" rx="1" fill="#FAFBFB"/>
<path fill-rule="evenodd" clip-rule="evenodd" d="M12 24H136V56H12V24ZM20.5068 43.0205L19.4697 46H17.1582L21.9922 33.2031H23.9873L28.8301 46H26.5098L25.4639 43.0205H20.5068ZM24.8398 41.2275L22.9854 35.9189L21.1309 41.2275H24.8398ZM29.6826 41.1748C29.6826 39.71 30.0225 38.5352 30.7021 37.6504C31.3818 36.7598 32.293 36.3145 33.4355 36.3145C34.4434 36.3145 35.2578 36.666 35.8789 37.3691V32.5H38.0146V46H36.0811L35.9756 45.0156C35.3369 45.7891 34.4844 46.1758 33.418 46.1758C32.3047 46.1758 31.4023 45.7275 30.7109 44.8311C30.0254 43.9346 29.6826 42.7158 29.6826 41.1748ZM31.8184 41.3594C31.8184 42.3262 32.0029 43.082 32.3721 43.627C32.7471 44.166 33.2773 44.4355 33.9629 44.4355C34.8359 44.4355 35.4746 44.0459 35.8789 43.2666V39.2061C35.4863 38.4443 34.8535 38.0635 33.9805 38.0635C33.2891 38.0635 32.7559 38.3389 32.3809 38.8896C32.0059 39.4346 31.8184 40.2578 31.8184 41.3594ZM39.8428 41.1748C39.8428 39.71 40.1826 38.5352 40.8623 37.6504C41.542 36.7598 42.4531 36.3145 43.5957 36.3145C44.6035 36.3145 45.418 36.666 46.0391 37.3691V32.5H48.1748V46H46.2412L46.1357 45.0156C45.4971 45.7891 44.6445 46.1758 43.5781 46.1758C42.4648 46.1758 41.5625 45.7275 40.8711 44.8311C40.1855 43.9346 39.8428 42.7158 39.8428 41.1748ZM41.9785 41.3594C41.9785 42.3262 42.1631 43.082 42.5322 43.627C42.9072 44.166 43.4375 44.4355 44.123 44.4355C44.9961 44.4355 45.6348 44.0459 46.0391 43.2666V39.2061C45.6465 38.4443 45.0137 38.0635 44.1406 38.0635C43.4492 38.0635 42.916 38.3389 42.541 38.8896C42.166 39.4346 41.9785 40.2578 41.9785 41.3594ZM57.5615 34.1787V36.4902H59.2402V38.0723H57.5615V43.3809C57.5615 43.7441 57.6318 44.0078 57.7725 44.1719C57.9189 44.3301 58.1768 44.4092 58.5459 44.4092C58.792 44.4092 59.041 44.3799 59.293 44.3213V45.9736C58.8066 46.1084 58.3379 46.1758 57.8867 46.1758C56.2461 46.1758 55.4258 45.2705 55.4258 43.46V38.0723H53.8613V36.4902H55.4258V34.1787H57.5615ZM60.2158 41.1572C60.2158 40.2256 60.4004 39.3877 60.7695 38.6436C61.1387 37.8936 61.6572 37.3193 62.3252 36.9209C62.9932 36.5166 63.7607 36.3145 64.6279 36.3145C65.9111 36.3145 66.9512 36.7275 67.748 37.5537C68.5508 38.3799 68.9844 39.4756 69.0488 40.8408L69.0576 41.3418C69.0576 42.2793 68.876 43.1172 68.5127 43.8555C68.1553 44.5938 67.6396 45.165 66.9658 45.5693C66.2979 45.9736 65.5244 46.1758 64.6455 46.1758C63.3037 46.1758 62.2285 45.7305 61.4199 44.8398C60.6172 43.9434 60.2158 42.751 60.2158 41.2627V41.1572ZM62.3516 41.3418C62.3516 42.3203 62.5537 43.0879 62.958 43.6445C63.3623 44.1953 63.9248 44.4707 64.6455 44.4707C65.3662 44.4707 65.9258 44.1895 66.3242 43.627C66.7285 43.0645 66.9307 42.2412 66.9307 41.1572C66.9307 40.1963 66.7227 39.4346 66.3066 38.8721C65.8965 38.3096 65.3369 38.0283 64.6279 38.0283C63.9307 38.0283 63.377 38.3066 62.9668 38.8633C62.5566 39.4141 62.3516 40.2402 62.3516 41.3418ZM79.2529 44.4707C79.7861 44.4707 80.2285 44.3154 80.5801 44.0049C80.9316 43.6943 81.1191 43.3105 81.1426 42.8535H83.1553C83.1318 43.4453 82.9473 43.999 82.6016 44.5146C82.2559 45.0244 81.7871 45.4287 81.1953 45.7275C80.6035 46.0264 79.9648 46.1758 79.2793 46.1758C77.9492 46.1758 76.8945 45.7451 76.1152 44.8838C75.3359 44.0225 74.9463 42.833 74.9463 41.3154V41.0957C74.9463 39.6484 75.333 38.4912 76.1064 37.624C76.8799 36.751 77.9346 36.3145 79.2705 36.3145C80.4014 36.3145 81.3213 36.6455 82.0303 37.3076C82.7451 37.9639 83.1201 38.8281 83.1553 39.9004H81.1426C81.1191 39.3555 80.9316 38.9072 80.5801 38.5557C80.2344 38.2041 79.792 38.0283 79.2529 38.0283C78.5615 38.0283 78.0283 38.2803 77.6533 38.7842C77.2783 39.2822 77.0879 40.041 77.082 41.0605V41.4033C77.082 42.4346 77.2666 43.2051 77.6357 43.7148C78.0107 44.2188 78.5498 44.4707 79.2529 44.4707ZM90.4502 46C90.3564 45.8184 90.2744 45.5225 90.2041 45.1123C89.5244 45.8213 88.6924 46.1758 87.708 46.1758C86.7529 46.1758 85.9736 45.9033 85.3701 45.3584C84.7666 44.8135 84.4648 44.1396 84.4648 43.3369C84.4648 42.3232 84.8398 41.5469 85.5898 41.0078C86.3457 40.4629 87.4238 40.1904 88.8242 40.1904H90.1338V39.5664C90.1338 39.0742 89.9961 38.6816 89.7207 38.3887C89.4453 38.0898 89.0264 37.9404 88.4639 37.9404C87.9775 37.9404 87.5791 38.0635 87.2686 38.3096C86.958 38.5498 86.8027 38.8574 86.8027 39.2324H84.667C84.667 38.7109 84.8398 38.2246 85.1855 37.7734C85.5312 37.3164 86 36.959 86.5918 36.7012C87.1895 36.4434 87.8545 36.3145 88.5869 36.3145C89.7002 36.3145 90.5879 36.5957 91.25 37.1582C91.9121 37.7148 92.252 38.5 92.2695 39.5137V43.8027C92.2695 44.6582 92.3896 45.3408 92.6299 45.8506V46H90.4502ZM88.1035 44.4619C88.5254 44.4619 88.9209 44.3594 89.29 44.1543C89.665 43.9492 89.9463 43.6738 90.1338 43.3281V41.5352H88.9824C88.1914 41.5352 87.5967 41.6729 87.1982 41.9482C86.7998 42.2236 86.6006 42.6133 86.6006 43.1172C86.6006 43.5273 86.7354 43.8555 87.0049 44.1016C87.2803 44.3418 87.6465 44.4619 88.1035 44.4619ZM99.4854 38.4414C99.2041 38.3945 98.9141 38.3711 98.6152 38.3711C97.6367 38.3711 96.9775 38.7461 96.6377 39.4961V46H94.502V36.4902H96.541L96.5938 37.5537C97.1094 36.7275 97.8242 36.3145 98.7383 36.3145C99.043 36.3145 99.2949 36.3555 99.4941 36.4375L99.4854 38.4414ZM103.95 34.1787V36.4902H105.629V38.0723H103.95V43.3809C103.95 43.7441 104.021 44.0078 104.161 44.1719C104.308 44.3301 104.565 44.4092 104.935 44.4092C105.181 44.4092 105.43 44.3799 105.682 44.3213V45.9736C105.195 46.1084 104.727 46.1758 104.275 46.1758C102.635 46.1758 101.814 45.2705 101.814 43.46V38.0723H100.25V36.4902H101.814V34.1787H103.95ZM121 46.3333C121 47.2538 120.254 48 119.333 48C118.413 48 117.667 47.2538 117.667 46.3333C117.667 45.4129 118.413 44.6667 119.333 44.6667C120.254 44.6667 121 45.4129 121 46.3333ZM128 48C128.921 48 129.667 47.2538 129.667 46.3333C129.667 45.4129 128.921 44.6667 128 44.6667C127.08 44.6667 126.333 45.4129 126.333 46.3333C126.333 47.2538 127.08 48 128 48ZM119 43.3333H128.333C128.627 43.3333 128.887 43.14 128.972 42.858L130.972 36.1913C131.033 35.99 130.994 35.7713 130.868 35.602C130.743 35.4327 130.544 35.3333 130.333 35.3333H118.695L118.327 32.5787C118.283 32.2473 118.001 32 117.667 32H115V33.3333H117.083L118.339 42.7547C118.383 43.086 118.666 43.3333 119 43.3333Z" fill="#5D6B82"/>
</svg>
