<?xml version="1.0" encoding="UTF-8"?>
<svg width="148px" height="80px" viewBox="0 0 148 80" version="1.1" xmlns="http://www.w3.org/2000/svg" xmlns:xlink="http://www.w3.org/1999/xlink">
    <!-- Generator: Sketch 50.2 (55047) - http://www.bohemiancoding.com/sketch -->
    <title>K2 Intro Text Copy</title>
    <desc>Created with Sketch.</desc>
    <defs></defs>
    <g id="K2-Intro-Text-Copy" stroke="none" stroke-width="1" fill="none" fill-rule="evenodd">
        <rect id="Rectangle-4" fill="#D1D5DB" x="0" y="0" width="148" height="80" rx="2"></rect>
        <rect id="Rectangle-3" fill="#FAFBFB" x="1" y="1" width="146" height="78" rx="1"></rect>
        <path d="M32.265625,40.6171875 L30.9765625,41.984375 L30.9765625,45.53125 L29,45.53125 L29,34.15625 L30.9765625,34.15625 L30.9765625,39.4921875 L32.0703125,38.140625 L35.3984375,34.15625 L37.7890625,34.15625 L33.5625,39.1953125 L38.03125,45.53125 L35.6875,45.53125 L32.265625,40.6171875 Z M46.4296875,45.53125 L38.78125,45.53125 L38.78125,44.2265625 L42.5703125,40.09375 C43.1171902,39.484372 43.5065093,38.9752625 43.7382812,38.5664062 C43.9700532,38.15755 44.0859375,37.7473979 44.0859375,37.3359375 C44.0859375,36.7942681 43.9335953,36.3567725 43.6289062,36.0234375 C43.3242172,35.6901025 42.9140651,35.5234375 42.3984375,35.5234375 C41.7838511,35.5234375 41.3072934,35.7109356 40.96875,36.0859375 C40.6302066,36.4609394 40.4609375,36.9739551 40.4609375,37.625 L38.5625,37.625 C38.5625,36.9322882 38.7200505,36.3085965 39.0351562,35.7539062 C39.350262,35.199216 39.8007783,34.7682307 40.3867188,34.4609375 C40.9726592,34.1536443 41.6484337,34 42.4140625,34 C43.5182347,34 44.3893197,34.277341 45.0273438,34.8320312 C45.6653678,35.3867215 45.984375,36.1536409 45.984375,37.1328125 C45.984375,37.7005237 45.8242204,38.2955698 45.5039062,38.9179688 C45.1835921,39.5403677 44.6588578,40.2473919 43.9296875,41.0390625 L41.1484375,44.015625 L46.4296875,44.015625 L46.4296875,45.53125 Z M54.25,45.53125 L52.28125,45.53125 L52.28125,34.15625 L54.25,34.15625 L54.25,45.53125 Z M58.2578125,37.078125 L58.3125,38.0546875 C58.9375031,37.2994754 59.7578074,36.921875 60.7734375,36.921875 C62.533863,36.921875 63.4296873,37.9296774 63.4609375,39.9453125 L63.4609375,45.53125 L61.5625,45.53125 L61.5625,40.0546875 C61.5625,39.5182265 61.4466157,39.121095 61.2148438,38.8632812 C60.9830718,38.6054675 60.6041693,38.4765625 60.078125,38.4765625 C59.3124962,38.4765625 58.7421894,38.8229132 58.3671875,39.515625 L58.3671875,45.53125 L56.46875,45.53125 L56.46875,37.078125 L58.2578125,37.078125 Z M67.7734375,35.0234375 L67.7734375,37.078125 L69.265625,37.078125 L69.265625,38.484375 L67.7734375,38.484375 L67.7734375,43.203125 C67.7734375,43.5260433 67.8372389,43.7591139 67.9648438,43.9023438 C68.0924486,44.0455736 68.3203109,44.1171875 68.6484375,44.1171875 C68.8671886,44.1171875 69.0885405,44.0911461 69.3125,44.0390625 L69.3125,45.5078125 C68.8802062,45.6276048 68.4635437,45.6875 68.0625,45.6875 C66.6041594,45.6875 65.875,44.8828205 65.875,43.2734375 L65.875,38.484375 L64.484375,38.484375 L64.484375,37.078125 L65.875,37.078125 L65.875,35.0234375 L67.7734375,35.0234375 Z M75.140625,38.8125 C74.8906238,38.7708331 74.6328138,38.75 74.3671875,38.75 C73.4973915,38.75 72.9114598,39.08333 72.609375,39.75 L72.609375,45.53125 L70.7109375,45.53125 L70.7109375,37.078125 L72.5234375,37.078125 L72.5703125,38.0234375 C73.0286481,37.2890588 73.6640584,36.921875 74.4765625,36.921875 C74.7473972,36.921875 74.9713533,36.958333 75.1484375,37.03125 L75.140625,38.8125 Z M75.703125,41.2265625 C75.703125,40.3984334 75.8671859,39.6523471 76.1953125,38.9882812 C76.5234391,38.3242154 76.984372,37.8138039 77.578125,37.4570312 C78.171878,37.1002586 78.8541628,36.921875 79.625,36.921875 C80.7656307,36.921875 81.6914027,37.2890588 82.4023438,38.0234375 C83.1132848,38.7578162 83.4973955,39.7317648 83.5546875,40.9453125 L83.5625,41.390625 C83.5625,42.2239625 83.4023454,42.9687467 83.0820312,43.625 C82.7617171,44.2812533 82.3033884,44.7890607 81.7070312,45.1484375 C81.1106741,45.5078143 80.4218789,45.6875 79.640625,45.6875 C78.4479107,45.6875 77.4934932,45.2903686 76.7773438,44.4960938 C76.0611943,43.7018189 75.703125,42.6432358 75.703125,41.3203125 L75.703125,41.2265625 Z M77.6015625,41.390625 C77.6015625,42.260421 77.7812482,42.9414038 78.140625,43.4335938 C78.5000018,43.9257837 78.9999968,44.171875 79.640625,44.171875 C80.2812532,44.171875 80.7799461,43.9218775 81.1367188,43.421875 C81.4934914,42.9218725 81.671875,42.190109 81.671875,41.2265625 C81.671875,40.3723916 81.4882831,39.695315 81.1210938,39.1953125 C80.7539044,38.69531 80.2552115,38.4453125 79.625,38.4453125 C79.0052052,38.4453125 78.5130227,38.6914038 78.1484375,39.1835938 C77.7838523,39.6757837 77.6015625,40.4114534 77.6015625,41.390625 Z M97.0859375,35.75 L93.5390625,35.75 L93.5390625,45.53125 L91.578125,45.53125 L91.578125,35.75 L88.0625,35.75 L88.0625,34.15625 L97.0859375,34.15625 L97.0859375,35.75 Z M101.421875,45.6875 C100.218744,45.6875 99.2434933,45.3085975 98.4960938,44.5507812 C97.7486942,43.792965 97.375,42.7838605 97.375,41.5234375 L97.375,41.2890625 C97.375,40.4453083 97.5377588,39.6914096 97.8632812,39.0273438 C98.1888037,38.3632779 98.6458304,37.846356 99.234375,37.4765625 C99.8229196,37.106769 100.479163,36.921875 101.203125,36.921875 C102.354172,36.921875 103.243486,37.2890588 103.871094,38.0234375 C104.498701,38.7578162 104.8125,39.7968683 104.8125,41.140625 L104.8125,41.90625 L99.2890625,41.90625 C99.3463545,42.6041702 99.579425,43.156248 99.9882812,43.5625 C100.397137,43.968752 100.911455,44.171875 101.53125,44.171875 C102.401046,44.171875 103.109372,43.820316 103.65625,43.1171875 L104.679688,44.09375 C104.341144,44.5989609 103.889326,44.990884 103.324219,45.2695312 C102.759112,45.5481785 102.125004,45.6875 101.421875,45.6875 Z M101.195312,38.4453125 C100.674477,38.4453125 100.253908,38.6276023 99.9335938,38.9921875 C99.6132796,39.3567727 99.4088546,39.8645801 99.3203125,40.515625 L102.9375,40.515625 L102.9375,40.375 C102.895833,39.7395802 102.726564,39.2591162 102.429688,38.9335938 C102.132811,38.6080713 101.721357,38.4453125 101.195312,38.4453125 Z M109.320312,39.859375 L110.929688,37.078125 L113.039062,37.078125 L110.453125,41.2421875 L113.125,45.53125 L111.03125,45.53125 L109.34375,42.640625 L107.664062,45.53125 L105.554688,45.53125 L108.226562,41.2421875 L105.648438,37.078125 L107.742188,37.078125 L109.320312,39.859375 Z M116.710938,35.0234375 L116.710938,37.078125 L118.203125,37.078125 L118.203125,38.484375 L116.710938,38.484375 L116.710938,43.203125 C116.710938,43.5260433 116.774739,43.7591139 116.902344,43.9023438 C117.029949,44.0455736 117.257811,44.1171875 117.585938,44.1171875 C117.804689,44.1171875 118.026041,44.0911461 118.25,44.0390625 L118.25,45.5078125 C117.817706,45.6276048 117.401044,45.6875 117,45.6875 C115.541659,45.6875 114.8125,44.8828205 114.8125,43.2734375 L114.8125,38.484375 L113.421875,38.484375 L113.421875,37.078125 L114.8125,37.078125 L114.8125,35.0234375 L116.710938,35.0234375 Z" id="K2-Intro-Text" fill="#5D6B82"></path>
    </g>
</svg>