<?xml version="1.0" encoding="UTF-8"?>
<svg width="148px" height="80px" viewBox="0 0 148 80" version="1.1" xmlns="http://www.w3.org/2000/svg" xmlns:xlink="http://www.w3.org/1999/xlink">
    <!-- Generator: Sketch 50.2 (55047) - http://www.bohemiancoding.com/sketch -->
    <title>EasyBlog Author Copy</title>
    <desc>Created with Sketch.</desc>
    <defs></defs>
    <g id="EasyBlog-Author-Copy" stroke="none" stroke-width="1" fill="none" fill-rule="evenodd">
        <rect id="Rectangle-4" fill="#D1D5DB" x="0" y="0" width="148" height="80" rx="2"></rect>
        <rect id="Rectangle-3" fill="#FAFBFB" x="1" y="1" width="146" height="78" rx="1"></rect>
        <path d="M21.6484375,38.921875 L16.9765625,38.921875 L16.9765625,42.421875 L22.4375,42.421875 L22.4375,44 L15,44 L15,32.625 L22.3828125,32.625 L22.3828125,34.21875 L16.9765625,34.21875 L16.9765625,37.359375 L21.6484375,37.359375 L21.6484375,38.921875 Z M28.9140625,44 C28.8307287,43.8385409 28.7578128,43.5755227 28.6953125,43.2109375 C28.0911428,43.841149 27.3515669,44.15625 26.4765625,44.15625 C25.6275999,44.15625 24.9348985,43.9140649 24.3984375,43.4296875 C23.8619765,42.9453101 23.59375,42.3463577 23.59375,41.6328125 C23.59375,40.7317663 23.9283821,40.040367 24.5976562,39.5585938 C25.2669304,39.0768205 26.2239521,38.8359375 27.46875,38.8359375 L28.6328125,38.8359375 L28.6328125,38.28125 C28.6328125,37.8437478 28.5104179,37.4934909 28.265625,37.2304688 C28.0208321,36.9674466 27.64844,36.8359375 27.1484375,36.8359375 C26.7161437,36.8359375 26.3619805,36.9440093 26.0859375,37.1601562 C25.8098945,37.3763032 25.671875,37.65104 25.671875,37.984375 L23.7734375,37.984375 C23.7734375,37.520831 23.9270818,37.0872416 24.234375,36.6835938 C24.5416682,36.2799459 24.9596328,35.9635428 25.4882812,35.734375 C26.0169297,35.5052072 26.6067676,35.390625 27.2578125,35.390625 C28.2474008,35.390625 29.0364554,35.6393204 29.625,36.1367188 C30.2135446,36.6341171 30.5156249,37.3333288 30.53125,38.234375 L30.53125,42.046875 C30.53125,42.8072955 30.6380198,43.4140602 30.8515625,43.8671875 L30.8515625,44 L28.9140625,44 Z M26.828125,42.6328125 C27.2031269,42.6328125 27.5559879,42.5416676 27.8867188,42.359375 C28.2174496,42.1770824 28.466145,41.9322932 28.6328125,41.625 L28.6328125,40.03125 L27.609375,40.03125 C26.9062465,40.03125 26.3776059,40.1536446 26.0234375,40.3984375 C25.6692691,40.6432304 25.4921875,40.9895811 25.4921875,41.4375 C25.4921875,41.8020852 25.61328,42.0924468 25.8554688,42.3085938 C26.0976575,42.5247407 26.421873,42.6328125 26.828125,42.6328125 Z M37.2578125,41.703125 C37.2578125,41.3645816 37.118491,41.1067717 36.8398438,40.9296875 C36.5611965,40.7526033 36.0989616,40.5963548 35.453125,40.4609375 C34.8072884,40.3255202 34.2682313,40.1536469 33.8359375,39.9453125 C32.8880161,39.4869769 32.4140625,38.822921 32.4140625,37.953125 C32.4140625,37.2239547 32.7213511,36.6145858 33.3359375,36.125 C33.9505239,35.6354142 34.7317661,35.390625 35.6796875,35.390625 C36.6901092,35.390625 37.5065073,35.6406225 38.1289062,36.140625 C38.7513052,36.6406275 39.0625,37.2890585 39.0625,38.0859375 L37.1640625,38.0859375 C37.1640625,37.7213523 37.0286472,37.41797 36.7578125,37.1757812 C36.4869778,36.9335925 36.1276064,36.8125 35.6796875,36.8125 C35.2630188,36.8125 34.9231784,36.9088532 34.6601562,37.1015625 C34.3971341,37.2942718 34.265625,37.5520817 34.265625,37.875 C34.265625,38.1666681 34.3880196,38.3932284 34.6328125,38.5546875 C34.8776054,38.7161466 35.3723921,38.8789054 36.1171875,39.0429688 C36.8619829,39.2070321 37.4466125,39.4023426 37.8710938,39.6289062 C38.295575,39.8554699 38.6106761,40.1276026 38.8164062,40.4453125 C39.0221364,40.7630224 39.125,41.1484352 39.125,41.6015625 C39.125,42.361983 38.809899,42.9778622 38.1796875,43.4492188 C37.549476,43.9205753 36.7239634,44.15625 35.703125,44.15625 C35.0104132,44.15625 34.3932319,44.0312512 33.8515625,43.78125 C33.3098931,43.5312488 32.8880223,43.1875022 32.5859375,42.75 C32.2838527,42.3124978 32.1328125,41.8411484 32.1328125,41.3359375 L33.9765625,41.3359375 C34.0026043,41.7838564 34.1718734,42.128905 34.484375,42.3710938 C34.7968766,42.6132825 35.2109349,42.734375 35.7265625,42.734375 C36.226565,42.734375 36.6067695,42.6393239 36.8671875,42.4492188 C37.1276055,42.2591136 37.2578125,42.0104182 37.2578125,41.703125 Z M43.734375,41.28125 L45.453125,35.546875 L47.4765625,35.546875 L44.1171875,45.28125 C43.6015599,46.7031321 42.7265687,47.4140625 41.4921875,47.4140625 C41.2161445,47.4140625 40.91146,47.367188 40.578125,47.2734375 L40.578125,45.8046875 L40.9375,45.828125 C41.4166691,45.828125 41.7773425,45.7408863 42.0195312,45.5664062 C42.26172,45.3919262 42.4531243,45.0989604 42.59375,44.6875 L42.8671875,43.9609375 L39.8984375,35.546875 L41.9453125,35.546875 L43.734375,41.28125 Z M48.75,44 L48.75,32.625 L52.6484375,32.625 C53.9349023,32.625 54.9140591,32.8828099 55.5859375,33.3984375 C56.2578159,33.9140651 56.59375,34.6822866 56.59375,35.703125 C56.59375,36.2239609 56.4531264,36.6927063 56.171875,37.109375 C55.8906236,37.5260437 55.4791694,37.8489572 54.9375,38.078125 C55.5520864,38.2447925 56.0273421,38.5585914 56.3632812,39.0195312 C56.6992204,39.4804711 56.8671875,40.0338509 56.8671875,40.6796875 C56.8671875,41.7474012 56.524743,42.5677055 55.8398438,43.140625 C55.1549445,43.7135445 54.1744855,44 52.8984375,44 L48.75,44 Z M50.7265625,38.8671875 L50.7265625,42.421875 L52.921875,42.421875 C53.5416698,42.421875 54.0260399,42.2682307 54.375,41.9609375 C54.7239601,41.6536443 54.8984375,41.2265652 54.8984375,40.6796875 C54.8984375,39.4973899 54.2942769,38.8932293 53.0859375,38.8671875 L50.7265625,38.8671875 Z M50.7265625,37.4140625 L52.6640625,37.4140625 C53.2786489,37.4140625 53.7591129,37.274741 54.1054688,36.9960938 C54.4518246,36.7174465 54.625,36.3229192 54.625,35.8125 C54.625,35.2499972 54.4648454,34.8437512 54.1445312,34.59375 C53.8242171,34.3437488 53.3255242,34.21875 52.6484375,34.21875 L50.7265625,34.21875 L50.7265625,37.4140625 Z M60.6796875,44 L58.78125,44 L58.78125,32 L60.6796875,32 L60.6796875,44 Z M62.390625,39.6953125 C62.390625,38.8671834 62.5546859,38.1210971 62.8828125,37.4570312 C63.2109391,36.7929654 63.671872,36.2825539 64.265625,35.9257812 C64.859378,35.5690086 65.5416628,35.390625 66.3125,35.390625 C67.4531307,35.390625 68.3789027,35.7578088 69.0898438,36.4921875 C69.8007848,37.2265662 70.1848955,38.2005148 70.2421875,39.4140625 L70.25,39.859375 C70.25,40.6927125 70.0898454,41.4374967 69.7695312,42.09375 C69.4492171,42.7500033 68.9908884,43.2578107 68.3945312,43.6171875 C67.7981741,43.9765643 67.1093789,44.15625 66.328125,44.15625 C65.1354107,44.15625 64.1809932,43.7591186 63.4648438,42.9648438 C62.7486943,42.1705689 62.390625,41.1119858 62.390625,39.7890625 L62.390625,39.6953125 Z M64.2890625,39.859375 C64.2890625,40.729171 64.4687482,41.4101538 64.828125,41.9023438 C65.1875018,42.3945337 65.6874968,42.640625 66.328125,42.640625 C66.9687532,42.640625 67.4674461,42.3906275 67.8242188,41.890625 C68.1809914,41.3906225 68.359375,40.658859 68.359375,39.6953125 C68.359375,38.8411416 68.1757831,38.164065 67.8085938,37.6640625 C67.4414044,37.16406 66.9427115,36.9140625 66.3125,36.9140625 C65.6927052,36.9140625 65.2005227,37.1601538 64.8359375,37.6523438 C64.4713523,38.1445337 64.2890625,38.8802034 64.2890625,39.859375 Z M71.5234375,39.7109375 C71.5234375,38.3984309 71.8320282,37.3502643 72.4492188,36.5664062 C73.0664093,35.7825482 73.8854116,35.390625 74.90625,35.390625 C75.8697965,35.390625 76.6276014,35.7265591 77.1796875,36.3984375 L77.265625,35.546875 L78.9765625,35.546875 L78.9765625,43.7421875 C78.9765625,44.851568 78.6315139,45.7265593 77.9414062,46.3671875 C77.2512986,47.0078157 76.3203184,47.328125 75.1484375,47.328125 C74.5286427,47.328125 73.92318,47.19922 73.3320312,46.9414062 C72.7408825,46.6835925 72.2916682,46.3463562 71.984375,45.9296875 L72.8828125,44.7890625 C73.4661488,45.4817743 74.1848916,45.828125 75.0390625,45.828125 C75.669274,45.828125 76.1666648,45.6575538 76.53125,45.3164062 C76.8958352,44.9752587 77.078125,44.4739616 77.078125,43.8125 L77.078125,43.2421875 C76.5312473,43.8515655 75.8020879,44.15625 74.890625,44.15625 C73.9010367,44.15625 73.0924511,43.7630248 72.4648438,42.9765625 C71.8372364,42.1901002 71.5234375,41.1015695 71.5234375,39.7109375 Z M73.4140625,39.875 C73.4140625,40.7239626 73.5872379,41.3919246 73.9335938,41.8789062 C74.2799496,42.3658879 74.7604136,42.609375 75.375,42.609375 C76.1406288,42.609375 76.7083315,42.2812533 77.078125,41.625 L77.078125,37.90625 C76.7187482,37.2656218 76.1562538,36.9453125 75.390625,36.9453125 C74.7656219,36.9453125 74.2799496,37.1927059 73.9335938,37.6875 C73.5872379,38.1822941 73.4140625,38.9114535 73.4140625,39.875 Z M91.4609375,41.3515625 L87.0546875,41.3515625 L86.1328125,44 L84.078125,44 L88.375,32.625 L90.1484375,32.625 L94.453125,44 L92.390625,44 L91.4609375,41.3515625 Z M87.609375,39.7578125 L90.90625,39.7578125 L89.2578125,35.0390625 L87.609375,39.7578125 Z M100.59375,43.171875 C100.036456,43.8281283 99.2447968,44.15625 98.21875,44.15625 C97.3020787,44.15625 96.6080753,43.8880235 96.1367188,43.3515625 C95.6653622,42.8151015 95.4296875,42.0390676 95.4296875,41.0234375 L95.4296875,35.546875 L97.328125,35.546875 L97.328125,41 C97.328125,42.072922 97.773433,42.609375 98.6640625,42.609375 C99.5859421,42.609375 100.208332,42.2786491 100.53125,41.6171875 L100.53125,35.546875 L102.429688,35.546875 L102.429688,44 L100.640625,44 L100.59375,43.171875 Z M106.742188,33.4921875 L106.742188,35.546875 L108.234375,35.546875 L108.234375,36.953125 L106.742188,36.953125 L106.742188,41.671875 C106.742188,41.9947933 106.805989,42.2278639 106.933594,42.3710938 C107.061199,42.5143236 107.289061,42.5859375 107.617188,42.5859375 C107.835939,42.5859375 108.057291,42.5598961 108.28125,42.5078125 L108.28125,43.9765625 C107.848956,44.0963548 107.432294,44.15625 107.03125,44.15625 C105.572909,44.15625 104.84375,43.3515705 104.84375,41.7421875 L104.84375,36.953125 L103.453125,36.953125 L103.453125,35.546875 L104.84375,35.546875 L104.84375,33.4921875 L106.742188,33.4921875 Z M111.554688,36.46875 C112.174482,35.7499964 112.958329,35.390625 113.90625,35.390625 C115.708342,35.390625 116.622396,36.4192605 116.648438,38.4765625 L116.648438,44 L114.75,44 L114.75,38.546875 C114.75,37.9635387 114.623699,37.5507825 114.371094,37.3085938 C114.118488,37.066405 113.747398,36.9453125 113.257812,36.9453125 C112.497392,36.9453125 111.929689,37.2838508 111.554688,37.9609375 L111.554688,44 L109.65625,44 L109.65625,32 L111.554688,32 L111.554688,36.46875 Z M118.210938,39.6953125 C118.210938,38.8671834 118.374998,38.1210971 118.703125,37.4570312 C119.031252,36.7929654 119.492185,36.2825539 120.085938,35.9257812 C120.67969,35.5690086 121.361975,35.390625 122.132812,35.390625 C123.273443,35.390625 124.199215,35.7578088 124.910156,36.4921875 C125.621097,37.2265662 126.005208,38.2005148 126.0625,39.4140625 L126.070312,39.859375 C126.070312,40.6927125 125.910158,41.4374967 125.589844,42.09375 C125.26953,42.7500033 124.811201,43.2578107 124.214844,43.6171875 C123.618487,43.9765643 122.929691,44.15625 122.148438,44.15625 C120.955723,44.15625 120.001306,43.7591186 119.285156,42.9648438 C118.569007,42.1705689 118.210938,41.1119858 118.210938,39.7890625 L118.210938,39.6953125 Z M120.109375,39.859375 C120.109375,40.729171 120.289061,41.4101538 120.648438,41.9023438 C121.007814,42.3945337 121.507809,42.640625 122.148438,42.640625 C122.789066,42.640625 123.287759,42.3906275 123.644531,41.890625 C124.001304,41.3906225 124.179688,40.658859 124.179688,39.6953125 C124.179688,38.8411416 123.996096,38.164065 123.628906,37.6640625 C123.261717,37.16406 122.763024,36.9140625 122.132812,36.9140625 C121.513018,36.9140625 121.020835,37.1601538 120.65625,37.6523438 C120.291665,38.1445337 120.109375,38.8802034 120.109375,39.859375 Z M132.101562,37.28125 C131.851561,37.2395831 131.593751,37.21875 131.328125,37.21875 C130.458329,37.21875 129.872397,37.55208 129.570312,38.21875 L129.570312,44 L127.671875,44 L127.671875,35.546875 L129.484375,35.546875 L129.53125,36.4921875 C129.989586,35.7578088 130.624996,35.390625 131.4375,35.390625 C131.708335,35.390625 131.932291,35.427083 132.109375,35.5 L132.101562,37.28125 Z" id="EasyBlog-Author" fill="#5D6B82"></path>
    </g>
</svg>