<svg width="148" height="80" viewBox="0 0 148 80" fill="none" xmlns="http://www.w3.org/2000/svg">
<rect width="148" height="80" rx="2" fill="#D1D5DB"/>
<path fill-rule="evenodd" clip-rule="evenodd" d="M2 1C1.44772 1 1 1.44771 1 2V78C1 78.5523 1.44771 79 2 79H146C146.552 79 147 78.5523 147 78V2C147 1.44772 146.552 1 146 1H2ZM12 10H40V38H12V10ZM42 10H70V14H42V10ZM62 16H42V20H62V16ZM42 22H66V26H42V22ZM70 42H42V46H70V42ZM12 42H40V70H12V42ZM62 48H42V52H62V48ZM42 54H66V58H42V54ZM136 10H108V14H136V10ZM78 10H106V38H78V10ZM128 16H108V20H128V16ZM108 22H132V26H108V22ZM136 42H108V46H136V42ZM78 42H106V70H78V42ZM128 48H108V52H128V48ZM108 54H132V58H108V54Z" fill="#FAFBFB"/>
<path fill-rule="evenodd" clip-rule="evenodd" d="M23.7914 16C22.5644 16.2009 19.1902 16.8767 18.5153 17.6438C17.8405 18.411 16.3067 21.0228 16 22.1918C16.6135 22.5936 19.7423 23.6164 19.7423 23.6164C19.9877 23.1416 20.5399 21.6438 20.5399 21.6438C20.7035 22.6849 21.0061 25.1507 20.908 26.6849C20.7853 28.6027 20.5399 32 20.5399 32H32C32 30.0137 31.9478 29.566 31.7087 27.5143V27.5143L31.6442 26.9589C31.2761 23.7808 31.3853 21.913 31.3853 21.913C31.5693 22.5706 32.2454 23.6164 32.4417 23.6164C34.2814 23.6164 36 22.0274 36 22.0274C36 22.0274 33.9755 17.5342 33.1166 17.2603C32.2577 16.9863 28.3313 16 28.3313 16C27.5542 16.621 25.5583 17.4904 23.7914 16ZM58 28H42V32H58V28ZM42 60H58V64H42V60ZM124 28H108V32H124V28ZM108 60H124V64H108V60ZM23.7914 48C22.5644 48.2009 19.1902 48.8767 18.5153 49.6438C17.8405 50.411 16.3067 53.0228 16 54.1918C16.6135 54.5936 19.7423 55.6164 19.7423 55.6164C19.9877 55.1416 20.5399 53.6438 20.5399 53.6438C20.7035 54.6849 21.0061 57.1507 20.908 58.6849C20.7853 60.6027 20.5399 64 20.5399 64H32C32 62.0137 31.9478 61.566 31.7088 59.5143L31.6442 58.9589C31.2761 55.7808 31.3853 53.913 31.3853 53.913C31.5693 54.5706 32.2454 55.6164 32.4417 55.6164C34.2814 55.6164 36 54.0274 36 54.0274C36 54.0274 33.9755 49.5342 33.1166 49.2603C32.2577 48.9863 28.3313 48 28.3313 48C27.5542 48.621 25.5583 49.4904 23.7914 48ZM84.5153 17.6438C85.1902 16.8767 88.5644 16.2009 89.7914 16C91.5583 17.4904 93.5542 16.621 94.3313 16C94.3313 16 98.2577 16.9863 99.1166 17.2603C99.9755 17.5342 102 22.0274 102 22.0274C102 22.0274 100.281 23.6164 98.4417 23.6164C98.2454 23.6164 97.5693 22.5706 97.3853 21.913C97.3853 21.913 97.2761 23.7808 97.6442 26.9589L97.7087 27.5142C97.9478 29.566 98 30.0137 98 32H86.5399C86.5399 32 86.7853 28.6027 86.908 26.6849C87.0061 25.1507 86.7035 22.6849 86.5399 21.6438C86.5399 21.6438 85.9877 23.1416 85.7423 23.6164C85.7423 23.6164 82.6135 22.5936 82 22.1918C82.3067 21.0228 83.8405 18.411 84.5153 17.6438ZM89.7914 48C88.5644 48.2009 85.1902 48.8767 84.5153 49.6438C83.8405 50.411 82.3067 53.0228 82 54.1918C82.6135 54.5936 85.7423 55.6164 85.7423 55.6164C85.9877 55.1416 86.5399 53.6438 86.5399 53.6438C86.7035 54.6849 87.0061 57.1507 86.908 58.6849C86.7853 60.6027 86.5399 64 86.5399 64H98C98 62.0137 97.9478 61.566 97.7087 59.5142C97.6886 59.3412 97.6671 59.1567 97.6442 58.9589C97.2761 55.7808 97.3853 53.913 97.3853 53.913C97.5693 54.5706 98.2454 55.6164 98.4417 55.6164C100.281 55.6164 102 54.0274 102 54.0274C102 54.0274 99.9755 49.5342 99.1166 49.2603C98.2577 48.9863 94.3313 48 94.3313 48C93.5542 48.621 91.5583 49.4904 89.7914 48Z" fill="#5D6B82"/>
</svg>
