<svg width="148" height="80" viewBox="0 0 148 80" fill="none" xmlns="http://www.w3.org/2000/svg">
<rect width="148" height="80" rx="2" fill="#D1D5DB"/>
<path fill-rule="evenodd" clip-rule="evenodd" d="M2 1C1.44772 1 1 1.44771 1 2V78C1 78.5523 1.44771 79 2 79H146C146.552 79 147 78.5523 147 78V2C147 1.44772 146.552 1 146 1H2ZM108.001 16H136.001V44H108.001V16ZM108.001 48H136.001V52H108.001V48ZM104 48H76.0005V52H104V48ZM76.001 16H104.001V44H76.001V16ZM72 48H44V52H72V48ZM44 16H72V44H44V16ZM40 48H12V52H40V48ZM108.001 54H124.001V58H108.001V54ZM92.0005 54H76.0005V58H92.0005V54ZM44 54H60V58H44V54ZM28 54H12V58H28V54ZM12 16H40V44H12V16Z" fill="#FAFBFB"/>
<path fill-rule="evenodd" clip-rule="evenodd" d="M23.7914 22C22.5644 22.2009 19.1902 22.8767 18.5153 23.6438C17.8405 24.411 16.3067 27.0228 16 28.1918C16.6135 28.5936 19.7423 29.6164 19.7423 29.6164C19.9877 29.1416 20.5399 27.6438 20.5399 27.6438C20.7035 28.6849 21.0061 31.1507 20.908 32.6849C20.7853 34.6027 20.5399 38 20.5399 38H32C32 36.0137 31.9478 35.566 31.7088 33.5143L31.6442 32.9589C31.2761 29.7808 31.3853 27.913 31.3853 27.913C31.5693 28.5706 32.2454 29.6164 32.4417 29.6164C34.2814 29.6164 36 28.0274 36 28.0274C36 28.0274 33.9755 23.5342 33.1166 23.2603C32.2577 22.9863 28.3313 22 28.3313 22C27.5542 22.621 25.5583 23.4904 23.7914 22ZM55.7914 22C54.5644 22.2009 51.1902 22.8767 50.5153 23.6438C49.8405 24.411 48.3067 27.0228 48 28.1918C48.6135 28.5936 51.7423 29.6164 51.7423 29.6164C51.9877 29.1416 52.5399 27.6438 52.5399 27.6438C52.7035 28.6849 53.0061 31.1507 52.908 32.6849C52.7853 34.6027 52.5399 38 52.5399 38H64C64 36.0137 63.9478 35.566 63.7087 33.5142L63.6442 32.9589C63.2761 29.7808 63.3853 27.913 63.3853 27.913C63.5693 28.5706 64.2454 29.6164 64.4417 29.6164C66.2814 29.6164 68 28.0274 68 28.0274C68 28.0274 65.9755 23.5342 65.1166 23.2603C64.2577 22.9863 60.3313 22 60.3313 22C59.5542 22.621 57.5583 23.4904 55.7914 22ZM82.5153 23.6438C83.1902 22.8767 86.5644 22.2009 87.7914 22C89.5583 23.4904 91.5542 22.621 92.3313 22C92.3313 22 96.2577 22.9863 97.1166 23.2603C97.9755 23.5342 100 28.0274 100 28.0274C100 28.0274 98.2814 29.6164 96.4417 29.6164C96.2454 29.6164 95.5693 28.5706 95.3853 27.913C95.3853 27.913 95.2761 29.7808 95.6442 32.9589L95.7087 33.5142C95.9478 35.566 96 36.0137 96 38H84.5399C84.5399 38 84.7853 34.6027 84.908 32.6849C85.0061 31.1507 84.7035 28.6849 84.5399 27.6438C84.5399 27.6438 83.9877 29.1416 83.7423 29.6164C83.7423 29.6164 80.6135 28.5936 80 28.1918C80.3067 27.0228 81.8405 24.411 82.5153 23.6438ZM119.791 22C118.564 22.2009 115.19 22.8767 114.515 23.6438C113.84 24.411 112.307 27.0228 112 28.1918C112.613 28.5936 115.742 29.6164 115.742 29.6164C115.988 29.1416 116.54 27.6438 116.54 27.6438C116.703 28.6849 117.006 31.1507 116.908 32.6849C116.785 34.6027 116.54 38 116.54 38H128C128 36.0137 127.948 35.566 127.709 33.5142L127.644 32.9589C127.276 29.7808 127.385 27.913 127.385 27.913C127.569 28.5706 128.245 29.6164 128.442 29.6164C130.281 29.6164 132 28.0274 132 28.0274C132 28.0274 129.975 23.5342 129.117 23.2603C128.258 22.9863 124.331 22 124.331 22C123.554 22.621 121.558 23.4904 119.791 22ZM108.001 60H136.001V64H108.001V60ZM104 60H76.0005V64H104V60ZM44 60H72V64H44V60ZM40 60H12V64H40V60Z" fill="#5D6B82"/>
</svg>
