<svg width="148" height="80" viewBox="0 0 148 80" fill="none" xmlns="http://www.w3.org/2000/svg">
<rect width="148" height="80" rx="2" fill="#D1D5DB"/>
<path fill-rule="evenodd" clip-rule="evenodd" d="M2 1C1.44772 1 1 1.44771 1 2V78C1 78.5523 1.44771 79 2 79H146C146.552 79 147 78.5523 147 78V2C147 1.44772 146.552 1 146 1H2ZM12 32H28V48H12V32ZM30 32H40V34H30V32ZM30 36H38V38H30V36ZM72 32H62V34H72V32ZM44 32H60V48H44V32ZM70 36H62V38H70V36ZM94 32H104V34H94V32ZM92 32H76V48H92V32ZM94 36H102V38H94V36ZM136 32H126V34H136V32ZM108 32H124V48H108V32ZM134 36H126V38H134V36Z" fill="#FAFBFB"/>
<path fill-rule="evenodd" clip-rule="evenodd" d="M15.5092 36.0274C15.9141 35.5479 17.9387 35.1256 18.6748 35C19.735 35.9315 20.9325 35.3881 21.3988 35C21.3988 35 23.7546 35.6164 24.2699 35.7877C24.7853 35.9589 26 38.7671 26 38.7671C26 38.7671 24.9688 39.7603 23.865 39.7603C23.7472 39.7603 23.3416 39.1066 23.2312 38.6957C23.2312 38.6957 23.1656 39.863 23.3865 41.8493L23.4253 42.1964C23.5687 43.4787 23.6 43.7586 23.6 45H16.7239C16.7239 45 16.8712 42.8767 16.9448 41.6781C17.0037 40.7192 16.8221 39.1781 16.7239 38.5274C16.7239 38.5274 16.3926 39.4635 16.2454 39.7603C16.2454 39.7603 14.3681 39.121 14 38.8699C14.184 38.1393 15.1043 36.5068 15.5092 36.0274ZM40 40H30V42H40V40ZM72 40H62V42H72V40ZM94 40H104V42H94V40ZM136 40H126V42H136V40ZM50.6748 35C49.9387 35.1256 47.9141 35.5479 47.5092 36.0274C47.1043 36.5068 46.184 38.1393 46 38.8699C46.3681 39.121 48.2454 39.7603 48.2454 39.7603C48.3926 39.4635 48.7239 38.5274 48.7239 38.5274C48.8221 39.1781 49.0037 40.7192 48.9448 41.6781C48.8712 42.8767 48.7239 45 48.7239 45H55.6C55.6 43.7586 55.5687 43.4787 55.4252 42.1964L55.3865 41.8493C55.1656 39.863 55.2312 38.6957 55.2312 38.6957C55.3416 39.1066 55.7472 39.7603 55.865 39.7603C56.9688 39.7603 58 38.7671 58 38.7671C58 38.7671 56.7853 35.9589 56.2699 35.7877C55.7546 35.6164 53.3988 35 53.3988 35C52.9325 35.3881 51.735 35.9315 50.6748 35ZM79.5092 36.0274C79.9141 35.5479 81.9387 35.1256 82.6749 35C83.735 35.9315 84.9325 35.3881 85.3988 35C85.3988 35 87.7546 35.6164 88.2699 35.7877C88.7853 35.9589 90 38.7671 90 38.7671C90 38.7671 88.9688 39.7603 87.865 39.7603C87.7472 39.7603 87.3416 39.1066 87.2311 38.6957C87.2311 38.6957 87.1656 39.863 87.3865 41.8493L87.4253 42.1965L87.4253 42.1967C87.5687 43.4788 87.6 43.7586 87.6 45H80.7239C80.7239 45 80.8712 42.8767 80.9448 41.6781C81.0037 40.7192 80.8221 39.1781 80.7239 38.5274C80.7239 38.5274 80.3926 39.4635 80.2454 39.7603C80.2454 39.7603 78.3681 39.121 78 38.8699C78.1841 38.1393 79.1043 36.5068 79.5092 36.0274ZM114.675 35C113.939 35.1256 111.914 35.5479 111.509 36.0274C111.104 36.5068 110.184 38.1393 110 38.8699C110.368 39.121 112.245 39.7603 112.245 39.7603C112.393 39.4635 112.724 38.5274 112.724 38.5274C112.822 39.1781 113.004 40.7192 112.945 41.6781C112.871 42.8767 112.724 45 112.724 45H119.6C119.6 43.7586 119.569 43.4787 119.425 42.1965C119.413 42.0883 119.4 41.973 119.387 41.8493C119.166 39.863 119.231 38.6957 119.231 38.6957C119.342 39.1066 119.747 39.7603 119.865 39.7603C120.969 39.7603 122 38.7671 122 38.7671C122 38.7671 120.785 35.9589 120.27 35.7877C119.755 35.6164 117.399 35 117.399 35C116.933 35.3881 115.735 35.9315 114.675 35Z" fill="#5D6B82"/>
</svg>
