<svg width="148" height="80" viewBox="0 0 148 80" fill="none" xmlns="http://www.w3.org/2000/svg">
<rect width="148" height="80" rx="2" fill="#D1D5DB"/>
<rect x="1" y="1" width="146" height="78" rx="1" fill="#FAFBFB"/>
<path fill-rule="evenodd" clip-rule="evenodd" d="M136 18H12V62H136V18ZM50.2129 40.8926C50.6556 41.2311 50.877 41.7129 50.877 42.3379C50.877 42.9108 50.6589 43.373 50.2227 43.7246C49.793 44.0697 49.1484 44.2422 48.2891 44.2422C47.293 44.2422 46.528 44.0208 45.9941 43.5781C45.4603 43.1354 45.1934 42.5104 45.1934 41.7031H42.7227C42.7227 42.5951 42.9603 43.3763 43.4355 44.0469C43.9173 44.7174 44.5879 45.2448 45.4473 45.6289C46.3132 46.0065 47.2604 46.1953 48.2891 46.1953C49.8451 46.1953 51.0755 45.847 51.9805 45.1504C52.8919 44.4473 53.3477 43.5033 53.3477 42.3184C53.3477 41.5892 53.1914 40.9544 52.8789 40.4141C52.5664 39.8672 52.0749 39.3854 51.4043 38.9688C50.7337 38.5456 49.8451 38.1712 48.7383 37.8457C47.6315 37.5137 46.8372 37.1751 46.3555 36.8301C45.8737 36.4785 45.6328 36.0423 45.6328 35.5215C45.6328 34.903 45.8542 34.4212 46.2969 34.0762C46.7461 33.7311 47.3743 33.5586 48.1816 33.5586C49.0475 33.5586 49.7116 33.7702 50.1738 34.1934C50.6426 34.61 50.877 35.1895 50.877 35.9316H53.3379C53.3379 35.1113 53.1165 34.3659 52.6738 33.6953C52.2311 33.0182 51.6224 32.4974 50.8477 32.1328C50.0729 31.7682 49.1908 31.5859 48.2012 31.5859C46.7103 31.5859 45.4961 31.957 44.5586 32.6992C43.6276 33.4414 43.1621 34.3854 43.1621 35.5312C43.1621 36.8398 43.8099 37.901 45.1055 38.7148C45.7826 39.138 46.694 39.5221 47.8398 39.8672C48.9857 40.2122 49.7767 40.554 50.2129 40.8926ZM58.7188 46.1953C60.0013 46.1953 60.9909 45.7852 61.6875 44.9648L61.7461 46H63.9824V35.4336H61.6094V43.0215C61.2057 43.8483 60.4277 44.2617 59.2754 44.2617C58.1621 44.2617 57.6055 43.5911 57.6055 42.25V35.4336H55.2324V42.2793C55.2324 43.5488 55.5254 44.5189 56.1113 45.1895C56.7038 45.86 57.5729 46.1953 58.7188 46.1953ZM74.5684 44.7402C75.304 43.7702 75.6719 42.4648 75.6719 40.8242V40.6875C75.6719 38.9688 75.304 37.6309 74.5684 36.6738C73.8327 35.7168 72.8203 35.2383 71.5312 35.2383C70.3724 35.2383 69.4512 35.6419 68.7676 36.4492V31H66.3945V46H68.543L68.6602 44.8574C69.3503 45.7493 70.3138 46.1953 71.5508 46.1953C72.8333 46.1953 73.8392 45.7103 74.5684 44.7402ZM72.6934 38.041C73.097 38.6139 73.2988 39.4733 73.2988 40.6191V40.9219C73.2858 42.0417 73.0775 42.8783 72.6738 43.4316C72.2702 43.985 71.6973 44.2617 70.9551 44.2617C69.9199 44.2617 69.1908 43.8027 68.7676 42.8848V38.5293C69.1842 37.6309 69.9069 37.1816 70.9355 37.1816C71.7038 37.1816 72.2897 37.4681 72.6934 38.041ZM79.9688 36.5371L79.9004 35.4336H77.6641V46H80.0371V38.3438C80.4342 37.569 81.1081 37.1816 82.0586 37.1816C83.2956 37.1816 83.9303 37.8034 83.9629 39.0469V46H86.3359L86.3262 38.7539C86.4629 38.2852 86.7005 37.9076 87.0391 37.6211C87.3841 37.3281 87.8268 37.1816 88.3672 37.1816C89.0443 37.1816 89.5293 37.3379 89.8223 37.6504C90.1152 37.9629 90.2617 38.4544 90.2617 39.125V46H92.6348V39.0566C92.6217 37.8001 92.3288 36.8496 91.7559 36.2051C91.1895 35.5605 90.3236 35.2383 89.1582 35.2383C87.765 35.2383 86.6842 35.7786 85.916 36.8594C85.3952 35.7786 84.4284 35.2383 83.0156 35.2383C81.7266 35.2383 80.7109 35.6712 79.9688 36.5371ZM95.2227 46H97.5957V35.4336H95.2227V46ZM95.418 31.7812C95.1901 32.0221 95.0762 32.3249 95.0762 32.6895C95.0762 33.0475 95.1901 33.347 95.418 33.5879C95.6523 33.8223 95.9844 33.9395 96.4141 33.9395C96.8438 33.9395 97.1758 33.8223 97.4102 33.5879C97.6445 33.347 97.7617 33.0475 97.7617 32.6895C97.7617 32.3249 97.6445 32.0221 97.4102 31.7812C97.1758 31.5404 96.8438 31.4199 96.4141 31.4199C95.9844 31.4199 95.6523 31.5404 95.418 31.7812ZM103.162 35.4336V32.8652H100.789V35.4336H99.0508V37.1914H100.789V43.1777C100.789 45.1895 101.701 46.1953 103.523 46.1953C104.025 46.1953 104.546 46.1204 105.086 45.9707V44.1348C104.806 44.1999 104.529 44.2324 104.256 44.2324C103.846 44.2324 103.559 44.1445 103.396 43.9688C103.24 43.7865 103.162 43.4935 103.162 43.0898V37.1914H105.027V35.4336H103.162Z" fill="#5D6B82"/>
</svg>
