<svg width="148" height="80" viewBox="0 0 148 80" fill="none" xmlns="http://www.w3.org/2000/svg">
<rect width="148" height="80" rx="2" fill="#D1D5DB"/>
<rect x="1" y="1" width="146" height="78" rx="1" fill="#FAFBFB"/>
<path fill-rule="evenodd" clip-rule="evenodd" d="M136 18H12V62H136V18ZM64.877 42.3379C64.877 41.7129 64.6556 41.2311 64.2129 40.8926C63.7767 40.554 62.9857 40.2122 61.8398 39.8672C60.694 39.5221 59.7826 39.138 59.1055 38.7148C57.8099 37.901 57.1621 36.8398 57.1621 35.5312C57.1621 34.3854 57.6276 33.4414 58.5586 32.6992C59.4961 31.957 60.7103 31.5859 62.2012 31.5859C63.1908 31.5859 64.0729 31.7682 64.8477 32.1328C65.6224 32.4974 66.2311 33.0182 66.6738 33.6953C67.1165 34.3659 67.3379 35.1113 67.3379 35.9316H64.877C64.877 35.1895 64.6426 34.61 64.1738 34.1934C63.7116 33.7702 63.0475 33.5586 62.1816 33.5586C61.3743 33.5586 60.7461 33.7311 60.2969 34.0762C59.8542 34.4212 59.6328 34.903 59.6328 35.5215C59.6328 36.0423 59.8737 36.4785 60.3555 36.8301C60.8372 37.1751 61.6315 37.5137 62.7383 37.8457C63.8451 38.1712 64.7337 38.5456 65.4043 38.9688C66.0749 39.3854 66.5664 39.8672 66.8789 40.4141C67.1914 40.9544 67.3477 41.5892 67.3477 42.3184C67.3477 43.5033 66.8919 44.4473 65.9805 45.1504C65.0755 45.847 63.8451 46.1953 62.2891 46.1953C61.2604 46.1953 60.3132 46.0065 59.4473 45.6289C58.5879 45.2448 57.9173 44.7174 57.4355 44.0469C56.9603 43.3763 56.7227 42.5951 56.7227 41.7031H59.1934C59.1934 42.5104 59.4603 43.1354 59.9941 43.5781C60.528 44.0208 61.293 44.2422 62.2891 44.2422C63.1484 44.2422 63.793 44.0697 64.2227 43.7246C64.6589 43.373 64.877 42.9108 64.877 42.3379ZM75.6875 44.9648C74.9909 45.7852 74.0013 46.1953 72.7188 46.1953C71.5729 46.1953 70.7038 45.86 70.1113 45.1895C69.5254 44.5189 69.2324 43.5488 69.2324 42.2793V35.4336H71.6055V42.25C71.6055 43.5911 72.1621 44.2617 73.2754 44.2617C74.4277 44.2617 75.2057 43.8483 75.6094 43.0215V35.4336H77.9824V46H75.7461L75.6875 44.9648ZM89.6719 40.8242C89.6719 42.4648 89.304 43.7702 88.5684 44.7402C87.8392 45.7103 86.8333 46.1953 85.5508 46.1953C84.3138 46.1953 83.3503 45.7493 82.6602 44.8574L82.543 46H80.3945V31H82.7676V36.4492C83.4512 35.6419 84.3724 35.2383 85.5312 35.2383C86.8203 35.2383 87.8327 35.7168 88.5684 36.6738C89.304 37.6309 89.6719 38.9688 89.6719 40.6875V40.8242ZM87.2988 40.6191C87.2988 39.4733 87.097 38.6139 86.6934 38.041C86.2897 37.4681 85.7038 37.1816 84.9355 37.1816C83.9069 37.1816 83.1842 37.6309 82.7676 38.5293V42.8848C83.1908 43.8027 83.9199 44.2617 84.9551 44.2617C85.6973 44.2617 86.2702 43.985 86.6738 43.4316C87.0775 42.8783 87.2858 42.0417 87.2988 40.9219V40.6191ZM93.9004 35.4336L93.9688 36.5371C94.7109 35.6712 95.7266 35.2383 97.0156 35.2383C98.4284 35.2383 99.3952 35.7786 99.916 36.8594C100.684 35.7786 101.765 35.2383 103.158 35.2383C104.324 35.2383 105.189 35.5605 105.756 36.2051C106.329 36.8496 106.622 37.8001 106.635 39.0566V46H104.262V39.125C104.262 38.4544 104.115 37.9629 103.822 37.6504C103.529 37.3379 103.044 37.1816 102.367 37.1816C101.827 37.1816 101.384 37.3281 101.039 37.6211C100.701 37.9076 100.463 38.2852 100.326 38.7539L100.336 46H97.9629V39.0469C97.9303 37.8034 97.2956 37.1816 96.0586 37.1816C95.1081 37.1816 94.4342 37.569 94.0371 38.3438V46H91.6641V35.4336H93.9004ZM111.596 46H109.223V35.4336H111.596V46ZM109.076 32.6895C109.076 32.3249 109.19 32.0221 109.418 31.7812C109.652 31.5404 109.984 31.4199 110.414 31.4199C110.844 31.4199 111.176 31.5404 111.41 31.7812C111.645 32.0221 111.762 32.3249 111.762 32.6895C111.762 33.0475 111.645 33.347 111.41 33.5879C111.176 33.8223 110.844 33.9395 110.414 33.9395C109.984 33.9395 109.652 33.8223 109.418 33.5879C109.19 33.347 109.076 33.0475 109.076 32.6895ZM117.162 32.8652V35.4336H119.027V37.1914H117.162V43.0898C117.162 43.4935 117.24 43.7865 117.396 43.9688C117.559 44.1445 117.846 44.2324 118.256 44.2324C118.529 44.2324 118.806 44.1999 119.086 44.1348V45.9707C118.546 46.1204 118.025 46.1953 117.523 46.1953C115.701 46.1953 114.789 45.1895 114.789 43.1777V37.1914H113.051V35.4336H114.789V32.8652H117.162ZM47.6094 36.9609C47.6875 36.8828 47.7656 36.8698 47.8438 36.9219C47.9479 36.974 48 37.0521 48 37.1562V45.125C48 45.6458 47.8177 46.0885 47.4531 46.4531C47.0885 46.8177 46.6458 47 46.125 47H29.875C29.3542 47 28.9115 46.8177 28.5469 46.4531C28.1823 46.0885 28 45.6458 28 45.125V37.1562C28 37.0521 28.0391 36.987 28.1172 36.9609C28.2214 36.9089 28.3125 36.9089 28.3906 36.9609C29.25 37.612 31.2552 39.0833 34.4062 41.375C34.4583 41.4271 34.6276 41.5703 34.9141 41.8047C35.2266 42.0391 35.474 42.2214 35.6562 42.3516C35.8385 42.4557 36.0729 42.599 36.3594 42.7812C36.6458 42.9375 36.9193 43.0547 37.1797 43.1328C37.4661 43.2109 37.7396 43.25 38 43.25C38.2344 43.25 38.4688 43.224 38.7031 43.1719C38.9375 43.0938 39.1589 43.0156 39.3672 42.9375C39.5755 42.8333 39.7969 42.7031 40.0312 42.5469L40.6172 42.1562C40.7734 42.026 40.9557 41.8828 41.1641 41.7266C41.3724 41.5703 41.5156 41.4531 41.5938 41.375C44.6667 39.1615 46.6719 37.6901 47.6094 36.9609ZM38 42C37.7917 42 37.5312 41.9349 37.2188 41.8047C36.9323 41.6484 36.6979 41.5182 36.5156 41.4141L35.6953 40.8281C35.3568 40.5417 35.1745 40.3984 35.1484 40.3984C31.9714 38.0807 29.7057 36.401 28.3516 35.3594C28.1172 35.1771 28 34.9297 28 34.6172V33.875C28 33.3542 28.1823 32.9115 28.5469 32.5469C28.9115 32.1823 29.3542 32 29.875 32H46.125C46.6458 32 47.0885 32.1823 47.4531 32.5469C47.8177 32.9115 48 33.3542 48 33.875V34.6172C48 34.9297 47.8828 35.1771 47.6484 35.3594C46.3724 36.349 44.1068 38.0286 40.8516 40.3984C40.8255 40.3984 40.6302 40.5417 40.2656 40.8281C39.9271 41.0885 39.6667 41.2839 39.4844 41.4141C39.3021 41.5182 39.0547 41.6484 38.7422 41.8047C38.4557 41.9349 38.2083 42 38 42Z" fill="#5D6B82"/>
</svg>
