<svg width="148" height="80" viewBox="0 0 148 80" fill="none" xmlns="http://www.w3.org/2000/svg">
<rect width="148" height="80" rx="2" fill="#D1D5DB"/>
<rect x="1" y="1" width="146" height="78" rx="1" fill="#FAFBFB"/>
<path fill-rule="evenodd" clip-rule="evenodd" d="M136 18H12V62H136V18ZM36.8771 42.3379C36.8771 41.7129 36.6558 41.2311 36.2131 40.8926C35.7769 40.554 34.9859 40.2123 33.84 39.8672C32.6942 39.5221 31.7827 39.138 31.1057 38.7149C29.8101 37.9011 29.1623 36.8399 29.1623 35.5313C29.1623 34.3854 29.6278 33.4414 30.5588 32.6992C31.4963 31.957 32.7105 31.5859 34.2014 31.5859C35.1909 31.5859 36.0731 31.7682 36.8478 32.1328C37.6226 32.4974 38.2313 33.0182 38.674 33.6953C39.1167 34.3659 39.3381 35.1113 39.3381 35.9317H36.8771C36.8771 35.1895 36.6428 34.61 36.174 34.1934C35.7118 33.7702 35.0477 33.5586 34.1818 33.5586C33.3745 33.5586 32.7463 33.7311 32.2971 34.0762C31.8544 34.4212 31.633 34.903 31.633 35.5215C31.633 36.0423 31.8739 36.4785 32.3557 36.8301C32.8374 37.1751 33.6317 37.5137 34.7385 37.8457C35.8452 38.1712 36.7339 38.5456 37.4045 38.9688C38.0751 39.3854 38.5666 39.8672 38.8791 40.4141C39.1916 40.9544 39.3478 41.5892 39.3478 42.3184C39.3478 43.5033 38.8921 44.4473 37.9807 45.1504C37.0757 45.847 35.8452 46.1953 34.2893 46.1953C33.2606 46.1953 32.3133 46.0065 31.4475 45.6289C30.5881 45.2448 29.9175 44.7175 29.4357 44.0469C28.9605 43.3763 28.7228 42.5951 28.7228 41.7031H31.1936C31.1936 42.5104 31.4605 43.1354 31.9943 43.5781C32.5282 44.0208 33.2932 44.2422 34.2893 44.2422C35.1486 44.2422 35.7932 44.0697 36.2228 43.7246C36.659 43.3731 36.8771 42.9108 36.8771 42.3379ZM47.6877 44.9649C46.9911 45.7852 46.0015 46.1953 44.7189 46.1953C43.5731 46.1953 42.704 45.86 42.1115 45.1895C41.5256 44.5189 41.2326 43.5488 41.2326 42.2793V35.4336H43.6057V42.25C43.6057 43.5912 44.1623 44.2617 45.2756 44.2617C46.4279 44.2617 47.2059 43.8483 47.6096 43.0215V35.4336H49.9826V46H47.7463L47.6877 44.9649ZM61.6721 40.8242C61.6721 42.4649 61.3042 43.7702 60.5686 44.7402C59.8394 45.7103 58.8335 46.1953 57.551 46.1953C56.314 46.1953 55.3504 45.7494 54.6603 44.8574L54.5432 46H52.3947V31H54.7678V36.4492C55.4514 35.6419 56.3726 35.2383 57.5314 35.2383C58.8205 35.2383 59.8329 35.7168 60.5686 36.6738C61.3042 37.6309 61.6721 38.9688 61.6721 40.6875V40.8242ZM59.299 40.6192C59.299 39.4733 59.0972 38.6139 58.6936 38.041C58.2899 37.4681 57.704 37.1817 56.9357 37.1817C55.9071 37.1817 55.1844 37.6309 54.7678 38.5293V42.8848C55.1909 43.8027 55.9201 44.2617 56.9553 44.2617C57.6975 44.2617 58.2704 43.985 58.674 43.4317C59.0777 42.8783 59.286 42.0417 59.299 40.9219V40.6192ZM65.9006 35.4336L65.9689 36.5371C66.7111 35.6712 67.7268 35.2383 69.0158 35.2383C70.4286 35.2383 71.3954 35.7787 71.9162 36.8594C72.6844 35.7787 73.7652 35.2383 75.1584 35.2383C76.3238 35.2383 77.1896 35.5606 77.7561 36.2051C78.329 36.8496 78.6219 37.8001 78.635 39.0567V46H76.2619V39.125C76.2619 38.4544 76.1154 37.9629 75.8225 37.6504C75.5295 37.3379 75.0445 37.1817 74.3674 37.1817C73.827 37.1817 73.3843 37.3281 73.0393 37.6211C72.7007 37.9076 72.4631 38.2852 72.3264 38.7539L72.3361 46H69.9631V39.0469C69.9305 37.8034 69.2958 37.1817 68.0588 37.1817C67.1083 37.1817 66.4344 37.569 66.0373 38.3438V46H63.6643V35.4336H65.9006ZM83.5959 46H81.2228V35.4336H83.5959V46ZM81.0764 32.6895C81.0764 32.3249 81.1903 32.0221 81.4182 31.7813C81.6525 31.5404 81.9846 31.4199 82.4143 31.4199C82.8439 31.4199 83.176 31.5404 83.4103 31.7813C83.6447 32.0221 83.7619 32.3249 83.7619 32.6895C83.7619 33.0475 83.6447 33.347 83.4103 33.5879C83.176 33.8223 82.8439 33.9395 82.4143 33.9395C81.9846 33.9395 81.6525 33.8223 81.4182 33.5879C81.1903 33.347 81.0764 33.0475 81.0764 32.6895ZM89.1623 32.8652V35.4336H91.0275V37.1914H89.1623V43.0899C89.1623 43.4935 89.2404 43.7865 89.3967 43.9688C89.5594 44.1445 89.8459 44.2324 90.2561 44.2324C90.5295 44.2324 90.8062 44.1999 91.0861 44.1348V45.9707C90.5458 46.1205 90.0249 46.1953 89.5236 46.1953C87.7007 46.1953 86.7893 45.1895 86.7893 43.1777V37.1914H85.051V35.4336H86.7893V32.8652H89.1623ZM119.61 36.9609C119.688 36.8828 119.766 36.8698 119.844 36.9219C119.948 36.974 120 37.0521 120 37.1563V45.125C120 45.6458 119.818 46.0886 119.453 46.4531C119.089 46.8177 118.646 47 118.125 47H101.875C101.354 47 100.912 46.8177 100.547 46.4531C100.182 46.0886 100 45.6458 100 45.125V37.1563C100 37.0521 100.039 36.987 100.117 36.9609C100.222 36.9089 100.313 36.9089 100.391 36.9609C101.25 37.612 103.255 39.0833 106.406 41.375C106.459 41.4271 106.628 41.5703 106.914 41.8047C107.227 42.0391 107.474 42.2214 107.656 42.3516C107.839 42.4557 108.073 42.599 108.36 42.7813C108.646 42.9375 108.919 43.0547 109.18 43.1328C109.466 43.2109 109.74 43.25 110 43.25C110.235 43.25 110.469 43.224 110.703 43.1719C110.938 43.0938 111.159 43.0156 111.367 42.9375C111.576 42.8333 111.797 42.7031 112.031 42.5469L112.617 42.1563C112.774 42.0261 112.956 41.8828 113.164 41.7266C113.373 41.5703 113.516 41.4531 113.594 41.375C116.667 39.1615 118.672 37.6901 119.61 36.9609ZM110 42C109.792 42 109.531 41.9349 109.219 41.8047C108.932 41.6484 108.698 41.5182 108.516 41.4141L107.696 40.8281C107.357 40.5417 107.175 40.3984 107.149 40.3984C103.972 38.0807 101.706 36.4011 100.352 35.3594C100.117 35.1771 100 34.9297 100 34.6172V33.875C100 33.3542 100.182 32.9115 100.547 32.5469C100.912 32.1823 101.354 32 101.875 32H118.125C118.646 32 119.089 32.1823 119.453 32.5469C119.818 32.9115 120 33.3542 120 33.875V34.6172C120 34.9297 119.883 35.1771 119.649 35.3594C118.373 36.349 116.107 38.0287 112.852 40.3984C112.826 40.3984 112.63 40.5417 112.266 40.8281C111.927 41.0886 111.667 41.2839 111.485 41.4141C111.302 41.5182 111.055 41.6484 110.742 41.8047C110.456 41.9349 110.209 42 110 42Z" fill="#5D6B82"/>
</svg>
