<svg width="148" height="80" viewBox="0 0 148 80" fill="none" xmlns="http://www.w3.org/2000/svg">
<rect width="148" height="80" rx="2" fill="#D1D5DB"/>
<rect x="1" y="1" width="146" height="78" rx="1" fill="#FAFBFB"/>
<path fill-rule="evenodd" clip-rule="evenodd" d="M13.7627 31.7139H16.8438V30.9473H13.7627V28.6621H17.293V27.8906H12.8252V35H17.3418V34.2334H13.7627V31.7139ZM19.2412 30.3027L19.2168 29.7168H18.3623V35H19.2656V31.1426C19.4837 30.638 19.889 30.3857 20.4814 30.3857C21.2334 30.3857 21.6094 30.7699 21.6094 31.5381V35H22.5176V31.4941C22.5534 31.1556 22.682 30.887 22.9033 30.6885C23.1247 30.4867 23.403 30.3857 23.7383 30.3857C24.1452 30.3857 24.4349 30.4801 24.6074 30.6689C24.7799 30.8545 24.8662 31.1361 24.8662 31.5137V35H25.7695V31.46C25.75 30.2327 25.1608 29.6191 24.002 29.6191C23.6178 29.6191 23.2842 29.6973 23.001 29.8535C22.721 30.0098 22.4932 30.2148 22.3174 30.4688C22.0505 29.9023 21.5475 29.6191 20.8086 29.6191C20.151 29.6191 19.6286 29.847 19.2412 30.3027ZM30.2715 34.4434C30.304 34.7103 30.3464 34.8958 30.3984 35H31.3457V34.9219C31.222 34.6354 31.1602 34.2497 31.1602 33.7646V31.333C31.1471 30.7992 30.9681 30.3809 30.623 30.0781C30.278 29.7721 29.8011 29.6191 29.1924 29.6191C28.8083 29.6191 28.4551 29.6908 28.1328 29.834C27.8138 29.9772 27.5599 30.1725 27.3711 30.4199C27.1855 30.6641 27.0928 30.918 27.0928 31.1816H28.001C28.001 30.9505 28.11 30.7536 28.3281 30.5908C28.5462 30.4281 28.8164 30.3467 29.1387 30.3467C29.5065 30.3467 29.7848 30.4411 29.9736 30.6299C30.1624 30.8154 30.2568 31.0661 30.2568 31.3818V31.7969H29.3779C28.6195 31.7969 28.0303 31.9499 27.6104 32.2559C27.1937 32.5586 26.9854 32.985 26.9854 33.5352C26.9854 33.9876 27.1514 34.362 27.4834 34.6582C27.8187 34.9512 28.2467 35.0977 28.7676 35.0977C29.3503 35.0977 29.8516 34.8796 30.2715 34.4434ZM29.7051 34.0918C29.4512 34.2383 29.1826 34.3115 28.8994 34.3115C28.6032 34.3115 28.3607 34.2318 28.1719 34.0723C27.9831 33.9128 27.8887 33.6914 27.8887 33.4082C27.8887 32.7604 28.4421 32.4365 29.5488 32.4365H30.2568V33.5205C30.1429 33.7549 29.959 33.9453 29.7051 34.0918ZM32.6543 35H33.5576V29.7168H32.6543V35ZM32.7129 27.9443C32.625 28.0452 32.5811 28.1689 32.5811 28.3154C32.5811 28.4619 32.625 28.584 32.7129 28.6816C32.804 28.7793 32.9375 28.8281 33.1133 28.8281C33.2891 28.8281 33.4225 28.7793 33.5137 28.6816C33.6048 28.584 33.6504 28.4619 33.6504 28.3154C33.6504 28.1689 33.6048 28.0452 33.5137 27.9443C33.4225 27.8434 33.2891 27.793 33.1133 27.793C32.9375 27.793 32.804 27.8434 32.7129 27.9443ZM35.0859 35H35.9893V27.5H35.0859V35ZM136 40H12V56H136V40Z" fill="#5D6B82"/>
</svg>
