<?xml version="1.0" encoding="UTF-8"?>
<svg width="148px" height="80px" viewBox="0 0 148 80" version="1.1" xmlns="http://www.w3.org/2000/svg" xmlns:xlink="http://www.w3.org/1999/xlink">
    <!-- Generator: Sketch 50.2 (55047) - http://www.bohemiancoding.com/sketch -->
    <title>Image 1</title>
    <desc>Created with Sketch.</desc>
    <defs></defs>
    <g id="Image-1" stroke="none" stroke-width="1" fill="none" fill-rule="evenodd">
        <rect id="Rectangle-4" fill="#D1D5DB" x="0" y="0" width="148" height="80" rx="2"></rect>
        <rect id="Rectangle-3" fill="#FAFBFB" x="1" y="1" width="146" height="78" rx="1"></rect>
        <g id="Group-2" transform="translate(55.000000, 11.000000)">
            <g id="Group" fill-rule="nonzero">
                <g id="1">
                    <polygon id="Shape" fill="#D2D8DE" points="0 0 36 0 36 35.66759 0 35.66759"></polygon>
                    <path d="M11.6912532,10.8440942 C12.206171,11.2940378 12.8810689,11.567867 13.6213349,11.567867 C14.3610276,11.567867 15.0364988,11.2940378 15.5514167,10.8446623 C16.1575059,10.3151833 16.5405405,9.54028048 16.5405405,8.67618433 C16.5405405,8.42621569 16.5090033,8.1842006 16.4487957,7.9529796 C16.1248218,6.70540883 14.9820253,5.78393352 13.6219083,5.78393352 C12.2617913,5.78393352 11.1184214,6.70484072 10.7944475,7.95241149 C10.73424,8.18363248 10.7027027,8.42564758 10.7027027,8.67561622 C10.7027027,9.53914426 11.0851639,10.3146152 11.6912532,10.8446623 L11.6912532,10.8440942 Z" id="Shape" fill="#FFFFFF"></path>
                    <path d="M31.3527625,21.0581315 L29.6105108,19.3055105 L29.0297602,18.7208751 L28.3491353,18.0366591 C27.8953854,17.580515 27.3010717,17.3518006 26.7061414,17.3518006 C26.1112112,17.3518006 25.5162809,17.580515 25.0631475,18.0373015 L24.3825227,18.7215176 L23.8017721,19.3061529 L22.0589039,21.0600589 L21.4781534,21.6434093 L19.7359017,23.3973153 L19.1539181,23.9806657 L17.4116664,25.7345716 L16.8302993,26.319207 L16.5405405,26.6108822 L25.5440238,35.66759 L36,35.66759 L36,25.7332867 L33.6757647,23.3960304 L31.9341295,21.6421244 L31.3527625,21.0574891 L31.3527625,21.0581315 Z" id="Shape" fill="#717F8E"></path>
                    <path d="M16.5754201,27.0747347 L16.262579,26.7970165 L15.0112144,25.6886682 L13.7598499,24.5796887 L12.5097754,23.4707092 L11.7770176,22.820596 C11.552546,22.6224061 11.2958227,22.4696611 11.0223286,22.3623609 C10.699812,22.2361253 10.3540742,22.1717452 10.0076913,22.1717452 C9.66195346,22.1717452 9.31621562,22.2348629 8.99498905,22.3623609 C8.72020487,22.4696611 8.46348163,22.6224061 8.23901005,22.8212272 L7.50560721,23.4713404 L6.25424265,24.5796887 L5.0028781,25.6886682 L3.75280361,26.7970165 L2.50143905,27.905996 L0,30.1239549 L0,35.66759 L26.2702703,35.66759 L16.5754201,27.0747347 Z" id="Shape" fill="#919DA9"></path>
                </g>
            </g>
            <rect id="Rectangle-5" fill="#5D6B82" x="0" y="41" width="22" height="3"></rect>
            <rect id="Rectangle-6" fill="#D1D5DB" x="0" y="47" width="30" height="3"></rect>
            <rect id="Rectangle-6-Copy" fill="#D1D5DB" x="0" y="51" width="38" height="3"></rect>
            <rect id="Rectangle-6-Copy-2" fill="#D1D5DB" x="0" y="55" width="31" height="3"></rect>
        </g>
    </g>
</svg>