<?xml version="1.0" encoding="UTF-8"?>
<svg width="148px" height="80px" viewBox="0 0 148 80" version="1.1" xmlns="http://www.w3.org/2000/svg" xmlns:xlink="http://www.w3.org/1999/xlink">
    <!-- Generator: Sketch 50.2 (55047) - http://www.bohemiancoding.com/sketch -->
    <title>Joomla Modules</title>
    <desc>Created with Sketch.</desc>
    <defs></defs>
    <g id="Joomla-Modules" stroke="none" stroke-width="1" fill="none" fill-rule="evenodd">
        <rect id="Rectangle-4" fill="#D1D5DB" x="0" y="0" width="148" height="80" rx="2"></rect>
        <rect id="Rectangle-3" fill="#FAFBFB" x="1" y="1" width="146" height="78" rx="1"></rect>
        <path d="M55.7210073,50.1622589 C56.4945922,47.1542328 55.6886398,43.8333202 53.3063867,41.479119 L52.5058288,40.6850346 L53.3063867,39.8974238 C55.7857425,37.4536723 56.5539328,33.9525802 55.6152733,30.8474514 C58.0967869,30.2972027 59.9482119,28.1069972 59.9482119,25.4916976 C59.9482119,22.4577774 57.4559091,20 54.3831478,20 C51.6167996,20 49.3176232,21.9960001 48.8892924,24.6026684 C45.8898976,23.9121602 42.6045894,24.7170338 40.2600984,27.0269993 L39.5005395,27.7315334 L38.734507,27.0269993 C36.3964896,24.7181127 33.1111813,23.9110813 30.105313,24.6026684 C29.6759033,21.9916844 27.3842794,20 24.6179311,20 C21.5397753,20 19.052867,22.4577774 19.052867,25.4916976 C19.052867,28.1080761 20.904292,30.2972027 23.3847267,30.8474514 C22.4417515,33.9525802 23.2153364,37.4536723 25.6936133,39.8995816 L26.4876977,40.6850346 L25.6936133,41.479119 C23.3048867,43.8333202 22.5000132,47.1542328 23.2789927,50.1622589 C20.8255309,50.7340859 19,52.9156601 19,55.5072235 C19,58.5411437 21.4923028,60.9989211 24.5650641,60.9989211 C27.2084156,60.9989211 29.4223573,59.1798637 29.9920265,56.7425857 C33.0259467,57.484882 36.3684377,56.685403 38.7399016,54.3473856 L39.4994605,53.5921423 L40.2590195,54.3473856 C42.6294045,56.6940344 45.9740533,57.4859609 49.0058156,56.7436646 C49.5776427,59.1820215 51.7937423,61 54.4349359,61 C57.5076972,60.9989211 60,58.5411437 60,55.513697 C60,52.9156601 58.1744691,50.7394805 55.7210073,50.1622589 Z M44.4894608,31.6048525 C45.5705376,30.5173022 47.3162285,30.5173022 48.3994632,31.6048525 C49.4826978,32.6945607 49.4783821,34.46183 48.4048578,35.5483014 L47.7736902,36.1848636 L43.8162154,32.2392569 L44.4894608,31.6026947 L44.4894608,31.6048525 Z M30.6037736,31.6048525 C31.6826926,30.5173022 33.434857,30.5173022 34.5116181,31.6048525 L35.1848636,32.2392569 L31.2252309,36.1837846 L30.5994579,35.5472224 C29.5205389,34.46183 29.5205389,32.6945607 30.6037736,31.6037736 L30.6037736,31.6048525 Z M34.5483014,49.3962264 C33.4629089,50.4816189 31.6977974,50.4816189 30.6059314,49.3919107 C29.5183811,48.309755 29.5183811,46.5489592 30.6059314,45.4592511 L31.2468093,44.8151364 L35.1848636,48.7639799 L34.5483014,49.3973053 L34.5483014,49.3962264 Z M40.5826952,44.8151364 L35.1848636,40.4433568 L40.5179601,36.1837846 L40.5179601,36.2301782 L40.5826952,36.1837846 L40.6409568,36.2301782 L40.6409568,36.1837846 L45.9740533,40.4433568 L40.5826952,44.8151364 Z M48.3962264,49.3929897 C47.3065182,50.4826978 45.5370911,50.4826978 44.4516986,49.3983843 L43.8162154,48.7639799 L47.7542696,44.8151364 L48.3962264,45.4624878 C49.4826978,46.552196 49.4826978,48.3054393 48.3962264,49.3929897 Z" id="Shape" fill="#5D6B82" fill-rule="nonzero"></path>
        <path d="M72.5830078,40.6826172 L68.7275391,40.6826172 L67.9208984,43 L66.1230469,43 L69.8828125,33.046875 L71.4345703,33.046875 L75.2011719,43 L73.3964844,43 L72.5830078,40.6826172 Z M69.2128906,39.2880859 L72.0976562,39.2880859 L70.6552734,35.1591797 L69.2128906,39.2880859 Z M79.9863281,39.1650391 L78.0585938,39.1650391 L78.0585938,43 L76.3291016,43 L76.3291016,33.046875 L79.8291016,33.046875 C80.9775448,33.046875 81.8639292,33.3043594 82.4882812,33.8193359 C83.1126333,34.3343125 83.4248047,35.0794222 83.4248047,36.0546875 C83.4248047,36.7200554 83.2641618,37.2771787 82.9428711,37.7260742 C82.6215804,38.1749697 82.173831,38.5201811 81.5996094,38.7617188 L83.8349609,42.9111328 L83.8349609,43 L81.9824219,43 L79.9863281,39.1650391 Z M78.0585938,37.7773438 L79.8359375,37.7773438 C80.4192738,37.7773438 80.8749984,37.6303726 81.203125,37.3364258 C81.5312516,37.042479 81.6953125,36.640302 81.6953125,36.1298828 C81.6953125,35.596677 81.5437841,35.1842463 81.2407227,34.8925781 C80.9376612,34.60091 80.4853546,34.4505209 79.8837891,34.4414062 L78.0585938,34.4414062 L78.0585938,37.7773438 Z M91.9150391,34.4414062 L88.8115234,34.4414062 L88.8115234,43 L87.0957031,43 L87.0957031,34.4414062 L84.0195312,34.4414062 L84.0195312,33.046875 L91.9150391,33.046875 L91.9150391,34.4414062 Z M95.0458984,43 L93.3232422,43 L93.3232422,33.046875 L95.0458984,33.046875 L95.0458984,43 Z M104.766602,39.7597656 C104.666341,40.8216199 104.274417,41.6498994 103.59082,42.2446289 C102.907223,42.8393584 101.998053,43.1367188 100.863281,43.1367188 C100.070309,43.1367188 99.3719106,42.9487323 98.7680664,42.5727539 C98.1642222,42.1967755 97.6982438,41.6624384 97.3701172,40.9697266 C97.0419905,40.2770148 96.8710938,39.4726608 96.8574219,38.5566406 L96.8574219,37.6269531 C96.8574219,36.6881463 97.0237614,35.8610062 97.3564453,35.1455078 C97.6891293,34.4300094 98.1665008,33.8785827 98.7885742,33.4912109 C99.4106476,33.1038392 100.129553,32.9101562 100.945312,32.9101562 C102.043625,32.9101562 102.927731,33.2086559 103.597656,33.8056641 C104.267581,34.4026723 104.657226,35.2457628 104.766602,36.3349609 L103.043945,36.3349609 C102.961914,35.6194626 102.75342,35.1033544 102.418457,34.7866211 C102.083494,34.4698877 101.592451,34.3115234 100.945312,34.3115234 C100.193356,34.3115234 99.6157247,34.5860975 99.2124023,35.1352539 C98.80908,35.6844103 98.6028646,36.4899035 98.59375,37.5517578 L98.59375,38.4335938 C98.59375,39.50912 98.7862936,40.3294243 99.1713867,40.8945312 C99.5564798,41.4596382 100.120439,41.7421875 100.863281,41.7421875 C101.542321,41.7421875 102.052733,41.5895198 102.394531,41.2841797 C102.73633,40.9788396 102.952799,40.4707067 103.043945,39.7597656 L104.766602,39.7597656 Z M108.041016,41.6191406 L112.55957,41.6191406 L112.55957,43 L106.311523,43 L106.311523,33.046875 L108.041016,33.046875 L108.041016,41.6191406 Z M119.703125,38.5566406 L115.615234,38.5566406 L115.615234,41.6191406 L120.393555,41.6191406 L120.393555,43 L113.885742,43 L113.885742,33.046875 L120.345703,33.046875 L120.345703,34.4414062 L115.615234,34.4414062 L115.615234,37.1894531 L119.703125,37.1894531 L119.703125,38.5566406 Z M72.7470703,53.7822266 L68.7412109,53.7822266 L68.7412109,58 L67.0117188,58 L67.0117188,48.046875 L73.3349609,48.046875 L73.3349609,49.4414062 L68.7412109,49.4414062 L68.7412109,52.4013672 L72.7470703,52.4013672 L72.7470703,53.7822266 Z M76.5273438,58 L74.8046875,58 L74.8046875,48.046875 L76.5273438,48.046875 L76.5273438,58 Z M84.4707031,53.5566406 L80.3828125,53.5566406 L80.3828125,56.6191406 L85.1611328,56.6191406 L85.1611328,58 L78.6533203,58 L78.6533203,48.046875 L85.1132812,48.046875 L85.1132812,49.4414062 L80.3828125,49.4414062 L80.3828125,52.1894531 L84.4707031,52.1894531 L84.4707031,53.5566406 Z M88.2988281,56.6191406 L92.8173828,56.6191406 L92.8173828,58 L86.5693359,58 L86.5693359,48.046875 L88.2988281,48.046875 L88.2988281,56.6191406 Z M94.1435547,58 L94.1435547,48.046875 L97.0830078,48.046875 C97.9625695,48.046875 98.7429979,48.2428366 99.4243164,48.6347656 C100.105635,49.0266947 100.633136,49.5826787 101.006836,50.3027344 C101.380536,51.0227901 101.567383,51.8476516 101.567383,52.7773438 L101.567383,53.2763672 C101.567383,54.2197313 101.379396,55.0491501 101.003418,55.7646484 C100.62744,56.4801468 100.091963,57.0315736 99.3969727,57.4189453 C98.7019822,57.806317 97.9056034,58 97.0078125,58 L94.1435547,58 Z M95.8730469,49.4414062 L95.8730469,56.6191406 L97.0009766,56.6191406 C97.9078821,56.6191406 98.6040015,56.3354521 99.0893555,55.7680664 C99.5747095,55.2006808 99.8219401,54.386073 99.8310547,53.3242188 L99.8310547,52.7705078 C99.8310547,51.6904243 99.5963565,50.8655627 99.1269531,50.2958984 C98.6575497,49.7262341 97.9762414,49.4414062 97.0830078,49.4414062 L95.8730469,49.4414062 Z" id="ARTICLE-FIELD" fill="#5D6B82"></path>
    </g>
</svg>