<svg width="148" height="80" viewBox="0 0 148 80" fill="none" xmlns="http://www.w3.org/2000/svg">
<rect width="148" height="80" rx="2" fill="#D1D5DB"/>
<rect x="1" y="1" width="146" height="78" rx="1" fill="#FAFBFB"/>
<path d="M21.3438 40.7734V45H19.3672V33.625H23.7188C24.9896 33.625 25.9974 33.9557 26.7422 34.6172C27.4922 35.2786 27.8672 36.1536 27.8672 37.2422C27.8672 38.3568 27.5 39.224 26.7656 39.8438C26.0365 40.4635 25.013 40.7734 23.6953 40.7734H21.3438ZM21.3438 39.1875H23.7188C24.4219 39.1875 24.9583 39.0234 25.3281 38.6953C25.6979 38.362 25.8828 37.8828 25.8828 37.2578C25.8828 36.6432 25.6953 36.1536 25.3203 35.7891C24.9453 35.4193 24.4297 35.2292 23.7734 35.2188H21.3438V39.1875ZM33.8438 38.2812C33.5938 38.2396 33.3359 38.2188 33.0703 38.2188C32.2005 38.2188 31.6146 38.5521 31.3125 39.2188V45H29.4141V36.5469H31.2266L31.2734 37.4922C31.7318 36.7578 32.3672 36.3906 33.1797 36.3906C33.4505 36.3906 33.6745 36.4271 33.8516 36.5L33.8438 38.2812ZM34.4062 40.6953C34.4062 39.8672 34.5703 39.1224 34.8984 38.4609C35.2266 37.7943 35.6875 37.2839 36.2812 36.9297C36.875 36.5703 37.5573 36.3906 38.3281 36.3906C39.4688 36.3906 40.3932 36.7578 41.1016 37.4922C41.8151 38.2266 42.2005 39.2005 42.2578 40.4141L42.2656 40.8594C42.2656 41.6927 42.1042 42.4375 41.7812 43.0938C41.4635 43.75 41.0052 44.2578 40.4062 44.6172C39.8125 44.9766 39.125 45.1562 38.3438 45.1562C37.151 45.1562 36.1953 44.7604 35.4766 43.9688C34.763 43.1719 34.4062 42.112 34.4062 40.7891V40.6953ZM36.3047 40.8594C36.3047 41.7292 36.4844 42.4115 36.8438 42.9062C37.2031 43.3958 37.7031 43.6406 38.3438 43.6406C38.9844 43.6406 39.4818 43.3906 39.8359 42.8906C40.1953 42.3906 40.375 41.6589 40.375 40.6953C40.375 39.8411 40.1901 39.1641 39.8203 38.6641C39.4557 38.1641 38.9583 37.9141 38.3281 37.9141C37.7083 37.9141 37.2161 38.1615 36.8516 38.6562C36.487 39.1458 36.3047 39.8802 36.3047 40.8594ZM43.5156 40.7109C43.5156 39.4089 43.8177 38.3646 44.4219 37.5781C45.026 36.7865 45.8359 36.3906 46.8516 36.3906C47.7474 36.3906 48.4714 36.7031 49.0234 37.3281V33H50.9219V45H49.2031L49.1094 44.125C48.5417 44.8125 47.7839 45.1562 46.8359 45.1562C45.8464 45.1562 45.0443 44.7578 44.4297 43.9609C43.8203 43.1641 43.5156 42.0807 43.5156 40.7109ZM45.4141 40.875C45.4141 41.7344 45.5781 42.4062 45.9062 42.8906C46.2396 43.3698 46.7109 43.6094 47.3203 43.6094C48.0964 43.6094 48.6641 43.263 49.0234 42.5703V38.9609C48.6745 38.2839 48.112 37.9453 47.3359 37.9453C46.7214 37.9453 46.2474 38.1901 45.9141 38.6797C45.5807 39.1641 45.4141 39.8958 45.4141 40.875ZM58.0234 44.1719C57.4661 44.8281 56.6745 45.1562 55.6484 45.1562C54.7318 45.1562 54.0365 44.888 53.5625 44.3516C53.0938 43.8151 52.8594 43.0391 52.8594 42.0234V36.5469H54.7578V42C54.7578 43.0729 55.2031 43.6094 56.0938 43.6094C57.0156 43.6094 57.638 43.2786 57.9609 42.6172V36.5469H59.8594V45H58.0703L58.0234 44.1719ZM65.2656 43.6406C65.7396 43.6406 66.1328 43.5026 66.4453 43.2266C66.7578 42.9505 66.9245 42.6094 66.9453 42.2031H68.7344C68.7135 42.7292 68.5495 43.2214 68.2422 43.6797C67.9349 44.1328 67.5182 44.4922 66.9922 44.7578C66.4661 45.0234 65.8984 45.1562 65.2891 45.1562C64.1068 45.1562 63.1693 44.7734 62.4766 44.0078C61.7839 43.2422 61.4375 42.1849 61.4375 40.8359V40.6406C61.4375 39.3542 61.7812 38.3255 62.4688 37.5547C63.1562 36.7786 64.0938 36.3906 65.2812 36.3906C66.2865 36.3906 67.1042 36.6849 67.7344 37.2734C68.3698 37.8568 68.7031 38.625 68.7344 39.5781H66.9453C66.9245 39.0938 66.7578 38.6953 66.4453 38.3828C66.138 38.0703 65.7448 37.9141 65.2656 37.9141C64.651 37.9141 64.1771 38.138 63.8438 38.5859C63.5104 39.0286 63.3411 39.7031 63.3359 40.6094V40.9141C63.3359 41.8307 63.5 42.5156 63.8281 42.9688C64.1615 43.4167 64.6406 43.6406 65.2656 43.6406ZM72.5469 34.4922V36.5469H74.0391V37.9531H72.5469V42.6719C72.5469 42.9948 72.6094 43.2292 72.7344 43.375C72.8646 43.5156 73.0938 43.5859 73.4219 43.5859C73.6406 43.5859 73.862 43.5599 74.0859 43.5078V44.9766C73.6536 45.0964 73.237 45.1562 72.8359 45.1562C71.3776 45.1562 70.6484 44.3516 70.6484 42.7422V37.9531H69.2578V36.5469H70.6484V34.4922H72.5469ZM83.6719 42.5234L86.5625 33.625H88.7344L84.6406 45H82.7266L78.6484 33.625H80.8125L83.6719 42.5234ZM93.2188 45.1562C92.0156 45.1562 91.0391 44.7786 90.2891 44.0234C89.5443 43.263 89.1719 42.2526 89.1719 40.9922V40.7578C89.1719 39.9141 89.3333 39.1615 89.6562 38.5C89.9844 37.8333 90.4427 37.3151 91.0312 36.9453C91.6198 36.5755 92.276 36.3906 93 36.3906C94.151 36.3906 95.0391 36.7578 95.6641 37.4922C96.2943 38.2266 96.6094 39.2656 96.6094 40.6094V41.375H91.0859C91.1432 42.0729 91.375 42.625 91.7812 43.0312C92.1927 43.4375 92.7083 43.6406 93.3281 43.6406C94.1979 43.6406 94.9062 43.2891 95.4531 42.5859L96.4766 43.5625C96.138 44.0677 95.6849 44.4609 95.1172 44.7422C94.5547 45.0182 93.9219 45.1562 93.2188 45.1562ZM92.9922 37.9141C92.4714 37.9141 92.0495 38.0964 91.7266 38.4609C91.4089 38.8255 91.2057 39.3333 91.1172 39.9844H94.7344V39.8438C94.6927 39.2083 94.5234 38.7292 94.2266 38.4062C93.9297 38.0781 93.5182 37.9141 92.9922 37.9141ZM99.8516 36.5469L99.9062 37.5234C100.531 36.7682 101.352 36.3906 102.367 36.3906C104.128 36.3906 105.023 37.3984 105.055 39.4141V45H103.156V39.5234C103.156 38.987 103.039 38.5911 102.805 38.3359C102.576 38.0755 102.198 37.9453 101.672 37.9453C100.906 37.9453 100.336 38.2917 99.9609 38.9844V45H98.0625V36.5469H99.8516ZM106.641 40.7109C106.641 39.4089 106.943 38.3646 107.547 37.5781C108.151 36.7865 108.961 36.3906 109.977 36.3906C110.872 36.3906 111.596 36.7031 112.148 37.3281V33H114.047V45H112.328L112.234 44.125C111.667 44.8125 110.909 45.1562 109.961 45.1562C108.971 45.1562 108.169 44.7578 107.555 43.9609C106.945 43.1641 106.641 42.0807 106.641 40.7109ZM108.539 40.875C108.539 41.7344 108.703 42.4062 109.031 42.8906C109.365 43.3698 109.836 43.6094 110.445 43.6094C111.221 43.6094 111.789 43.263 112.148 42.5703V38.9609C111.799 38.2839 111.237 37.9453 110.461 37.9453C109.846 37.9453 109.372 38.1901 109.039 38.6797C108.706 39.1641 108.539 39.8958 108.539 40.875ZM115.672 40.6953C115.672 39.8672 115.836 39.1224 116.164 38.4609C116.492 37.7943 116.953 37.2839 117.547 36.9297C118.141 36.5703 118.823 36.3906 119.594 36.3906C120.734 36.3906 121.659 36.7578 122.367 37.4922C123.081 38.2266 123.466 39.2005 123.523 40.4141L123.531 40.8594C123.531 41.6927 123.37 42.4375 123.047 43.0938C122.729 43.75 122.271 44.2578 121.672 44.6172C121.078 44.9766 120.391 45.1562 119.609 45.1562C118.417 45.1562 117.461 44.7604 116.742 43.9688C116.029 43.1719 115.672 42.112 115.672 40.7891V40.6953ZM117.57 40.8594C117.57 41.7292 117.75 42.4115 118.109 42.9062C118.469 43.3958 118.969 43.6406 119.609 43.6406C120.25 43.6406 120.747 43.3906 121.102 42.8906C121.461 42.3906 121.641 41.6589 121.641 40.6953C121.641 39.8411 121.456 39.1641 121.086 38.6641C120.721 38.1641 120.224 37.9141 119.594 37.9141C118.974 37.9141 118.482 38.1615 118.117 38.6562C117.753 39.1458 117.57 39.8802 117.57 40.8594ZM129.562 38.2812C129.312 38.2396 129.055 38.2188 128.789 38.2188C127.919 38.2188 127.333 38.5521 127.031 39.2188V45H125.133V36.5469H126.945L126.992 37.4922C127.451 36.7578 128.086 36.3906 128.898 36.3906C129.169 36.3906 129.393 36.4271 129.57 36.5L129.562 38.2812Z" fill="#5D6B82"/>
</svg>
