<?xml version="1.0" encoding="UTF-8"?>
<svg width="148px" height="80px" viewBox="0 0 148 80" version="1.1" xmlns="http://www.w3.org/2000/svg" xmlns:xlink="http://www.w3.org/1999/xlink">
    <!-- Generator: Sketch 50.2 (55047) - http://www.bohemiancoding.com/sketch -->
    <title>Joomla Modules Copy</title>
    <desc>Created with Sketch.</desc>
    <defs></defs>
    <g id="Joomla-Modules-Copy" stroke="none" stroke-width="1" fill="none" fill-rule="evenodd">
        <rect id="Rectangle-4" fill="#D1D5DB" x="0" y="0" width="148" height="80" rx="2"></rect>
        <rect id="Rectangle-3" fill="#FAFBFB" x="1" y="1" width="146" height="78" rx="1"></rect>
        <g id="Group" transform="translate(19.000000, 20.000000)" fill="#5D6B82">
            <path d="M36.7210073,30.1622589 C37.4945922,27.1542328 36.6886398,23.8333202 34.3063867,21.479119 L33.5058288,20.6850346 L34.3063867,19.8974238 C36.7857425,17.4536723 37.5539328,13.9525802 36.6152733,10.8474514 C39.0967869,10.2972027 40.9482119,8.10699718 40.9482119,5.49169759 C40.9482119,2.45777743 38.4559091,1.53323608e-14 35.3831478,1.53323608e-14 C32.6167996,1.53323608e-14 30.3176232,1.99600011 29.8892924,4.60266835 C26.8898976,3.91216021 23.6045894,4.71703376 21.2600984,7.02699929 L20.5005395,7.73153338 L19.734507,7.02699929 C17.3964896,4.71811268 14.1111813,3.91108129 11.105313,4.60266835 C10.6759033,1.99168443 8.38427936,0 5.61793111,0 C2.53977527,0 0.0528670298,2.45777743 0.0528670298,5.49169759 C0.0528670298,8.1080761 1.90429199,10.2972027 4.38472672,10.8474514 C3.44175153,13.9525802 4.21533644,17.4536723 6.69361333,19.8995816 L7.48769769,20.6850346 L6.69361333,21.479119 C4.30488671,23.8333202 3.50001316,27.1542328 4.27899266,30.1622589 C1.82553091,30.7340859 0,32.9156601 0,35.5072235 C0,38.5411437 2.49230283,40.9989211 5.56506408,40.9989211 C8.20841557,40.9989211 10.4223573,39.1798637 10.9920265,36.7425857 C14.0259467,37.484882 17.3684377,36.685403 19.7399016,34.3473856 L20.4994605,33.5921423 L21.2590195,34.3473856 C23.6294045,36.6940344 26.9740533,37.4859609 30.0058156,36.7436646 C30.5776427,39.1820215 32.7937423,41 35.4349359,41 C38.5076972,40.9989211 41,38.5411437 41,35.513697 C41,32.9156601 39.1744691,30.7394805 36.7210073,30.1622589 Z M25.4894608,11.6048525 C26.5705376,10.5173022 28.3162285,10.5173022 29.3994632,11.6048525 C30.4826978,12.6945607 30.4783821,14.46183 29.4048578,15.5483014 L28.7736902,16.1848636 L24.8162154,12.2392569 L25.4894608,11.6026947 L25.4894608,11.6048525 Z M11.6037736,11.6048525 C12.6826926,10.5173022 14.434857,10.5173022 15.5116181,11.6048525 L16.1848636,12.2392569 L12.2252309,16.1837846 L11.5994579,15.5472224 C10.5205389,14.46183 10.5205389,12.6945607 11.6037736,11.6037736 L11.6037736,11.6048525 Z M15.5483014,29.3962264 C14.4629089,30.4816189 12.6977974,30.4816189 11.6059314,29.3919107 C10.5183811,28.309755 10.5183811,26.5489592 11.6059314,25.4592511 L12.2468093,24.8151364 L16.1848636,28.7639799 L15.5483014,29.3973053 L15.5483014,29.3962264 Z M21.5826952,24.8151364 L16.1848636,20.4433568 L21.5179601,16.1837846 L21.5179601,16.2301782 L21.5826952,16.1837846 L21.6409568,16.2301782 L21.6409568,16.1837846 L26.9740533,20.4433568 L21.5826952,24.8151364 Z M29.3962264,29.3929897 C28.3065182,30.4826978 26.5370911,30.4826978 25.4516986,29.3983843 L24.8162154,28.7639799 L28.7542696,24.8151364 L29.3962264,25.4624878 C30.4826978,26.552196 30.4826978,28.3054393 29.3962264,29.3929897 Z" id="Shape" fill-rule="nonzero"></path>
            <path d="M52.0859375,13.046875 L53.8085938,13.046875 L53.8085938,20.0263672 C53.8085938,20.9788459 53.5112334,21.7353488 52.9165039,22.2958984 C52.3217744,22.8564481 51.5367887,23.1367188 50.5615234,23.1367188 C49.5224557,23.1367188 48.7203804,22.8746771 48.1552734,22.3505859 C47.5901664,21.8264948 47.3076172,21.0973354 47.3076172,20.1630859 L49.0302734,20.1630859 C49.0302734,20.6917344 49.1612943,21.0893541 49.4233398,21.355957 C49.6853854,21.6225599 50.0647762,21.7558594 50.5615234,21.7558594 C51.0263695,21.7558594 51.3966458,21.6020523 51.6723633,21.2944336 C51.9480808,20.9868149 52.0859375,20.5618517 52.0859375,20.0195312 L52.0859375,13.046875 Z M63.7275391,18.2832031 C63.7275391,19.2584684 63.558921,20.1140914 63.2216797,20.8500977 C62.8844384,21.5861039 62.4025096,22.1512025 61.7758789,22.5454102 C61.1492482,22.9396179 60.428064,23.1367188 59.6123047,23.1367188 C58.80566,23.1367188 58.0867545,22.9396179 57.4555664,22.5454102 C56.8243784,22.1512025 56.336753,21.5895219 55.9926758,20.8603516 C55.6485985,20.1311812 55.4742839,19.2903693 55.4697266,18.3378906 L55.4697266,17.7773438 C55.4697266,16.8066358 55.6417626,15.9498735 55.9858398,15.2070312 C56.3299171,14.464189 56.8152638,13.8956725 57.4418945,13.5014648 C58.0685253,13.1072571 58.7874308,12.9101562 59.5986328,12.9101562 C60.4098348,12.9101562 61.1287404,13.1049785 61.7553711,13.4946289 C62.3820018,13.8842793 62.8662092,14.4448206 63.2080078,15.1762695 C63.5498064,15.9077185 63.7229817,16.7587842 63.7275391,17.7294922 L63.7275391,18.2832031 Z M61.9980469,17.7636719 C61.9980469,16.6608018 61.7895529,15.8154326 61.3725586,15.2275391 C60.9555643,14.6396455 60.3642616,14.3457031 59.5986328,14.3457031 C58.8512332,14.3457031 58.2667664,14.6385062 57.8452148,15.2241211 C57.4236633,15.809736 57.2083334,16.6380155 57.1992188,17.7089844 L57.1992188,18.2832031 C57.1992188,19.3769586 57.41227,20.2223277 57.8383789,20.8193359 C58.2644878,21.4163441 58.8557905,21.7148438 59.6123047,21.7148438 C60.3779335,21.7148438 60.9669576,21.42318 61.3793945,20.8398438 C61.7918315,20.2565075 61.9980469,19.4043025 61.9980469,18.2832031 L61.9980469,17.7636719 Z M73.3935547,18.2832031 C73.3935547,19.2584684 73.2249366,20.1140914 72.8876953,20.8500977 C72.550454,21.5861039 72.0685253,22.1512025 71.4418945,22.5454102 C70.8152638,22.9396179 70.0940796,23.1367188 69.2783203,23.1367188 C68.4716757,23.1367188 67.7527701,22.9396179 67.121582,22.5454102 C66.490394,22.1512025 66.0027686,21.5895219 65.6586914,20.8603516 C65.3146142,20.1311812 65.1402995,19.2903693 65.1357422,18.3378906 L65.1357422,17.7773438 C65.1357422,16.8066358 65.3077782,15.9498735 65.6518555,15.2070312 C65.9959327,14.464189 66.4812794,13.8956725 67.1079102,13.5014648 C67.7345409,13.1072571 68.4534465,12.9101562 69.2646484,12.9101562 C70.0758504,12.9101562 70.794756,13.1049785 71.4213867,13.4946289 C72.0480175,13.8842793 72.5322249,14.4448206 72.8740234,15.1762695 C73.215822,15.9077185 73.3889974,16.7587842 73.3935547,17.7294922 L73.3935547,18.2832031 Z M71.6640625,17.7636719 C71.6640625,16.6608018 71.4555685,15.8154326 71.0385742,15.2275391 C70.6215799,14.6396455 70.0302773,14.3457031 69.2646484,14.3457031 C68.5172489,14.3457031 67.9327821,14.6385062 67.5112305,15.2241211 C67.0896789,15.809736 66.874349,16.6380155 66.8652344,17.7089844 L66.8652344,18.2832031 C66.8652344,19.3769586 67.0782856,20.2223277 67.5043945,20.8193359 C67.9305034,21.4163441 68.5218061,21.7148438 69.2783203,21.7148438 C70.0439491,21.7148438 70.6329732,21.42318 71.0454102,20.8398438 C71.4578471,20.2565075 71.6640625,19.4043025 71.6640625,18.2832031 L71.6640625,17.7636719 Z M77.3583984,13.046875 L80.2294922,20.6757812 L83.09375,13.046875 L85.3291016,13.046875 L85.3291016,23 L83.6064453,23 L83.6064453,19.71875 L83.7773438,15.3300781 L80.8378906,23 L79.6005859,23 L76.6679688,15.3369141 L76.8388672,19.71875 L76.8388672,23 L75.1162109,23 L75.1162109,13.046875 L77.3583984,13.046875 Z M89.1025391,21.6191406 L93.6210938,21.6191406 L93.6210938,23 L87.3730469,23 L87.3730469,13.046875 L89.1025391,13.046875 L89.1025391,21.6191406 Z M100.648438,20.6826172 L96.7929688,20.6826172 L95.9863281,23 L94.1884766,23 L97.9482422,13.046875 L99.5,13.046875 L103.266602,23 L101.461914,23 L100.648438,20.6826172 Z M97.2783203,19.2880859 L100.163086,19.2880859 L98.7207031,15.1591797 L97.2783203,19.2880859 Z M50.2539062,28.046875 L53.125,35.6757812 L55.9892578,28.046875 L58.2246094,28.046875 L58.2246094,38 L56.5019531,38 L56.5019531,34.71875 L56.6728516,30.3300781 L53.7333984,38 L52.4960938,38 L49.5634766,30.3369141 L49.734375,34.71875 L49.734375,38 L48.0117188,38 L48.0117188,28.046875 L50.2539062,28.046875 Z M68.2119141,33.2832031 C68.2119141,34.2584684 68.043296,35.1140914 67.7060547,35.8500977 C67.3688134,36.5861039 66.8868846,37.1512025 66.2602539,37.5454102 C65.6336232,37.9396179 64.912439,38.1367188 64.0966797,38.1367188 C63.290035,38.1367188 62.5711295,37.9396179 61.9399414,37.5454102 C61.3087534,37.1512025 60.821128,36.5895219 60.4770508,35.8603516 C60.1329735,35.1311812 59.9586589,34.2903693 59.9541016,33.3378906 L59.9541016,32.7773438 C59.9541016,31.8066358 60.1261376,30.9498735 60.4702148,30.2070312 C60.8142921,29.464189 61.2996388,28.8956725 61.9262695,28.5014648 C62.5529003,28.1072571 63.2718058,27.9101562 64.0830078,27.9101562 C64.8942098,27.9101562 65.6131154,28.1049785 66.2397461,28.4946289 C66.8663768,28.8842793 67.3505842,29.4448206 67.6923828,30.1762695 C68.0341814,30.9077185 68.2073567,31.7587842 68.2119141,32.7294922 L68.2119141,33.2832031 Z M66.4824219,32.7636719 C66.4824219,31.6608018 66.2739279,30.8154326 65.8569336,30.2275391 C65.4399393,29.6396455 64.8486366,29.3457031 64.0830078,29.3457031 C63.3356082,29.3457031 62.7511414,29.6385062 62.3295898,30.2241211 C61.9080383,30.809736 61.6927084,31.6380155 61.6835938,32.7089844 L61.6835938,33.2832031 C61.6835938,34.3769586 61.896645,35.2223277 62.3227539,35.8193359 C62.7488628,36.4163441 63.3401655,36.7148438 64.0966797,36.7148438 C64.8623085,36.7148438 65.4513326,36.42318 65.8637695,35.8398438 C66.2762065,35.2565075 66.4824219,34.4043025 66.4824219,33.2832031 L66.4824219,32.7636719 Z M69.9345703,38 L69.9345703,28.046875 L72.8740234,28.046875 C73.7535851,28.046875 74.5340135,28.2428366 75.215332,28.6347656 C75.8966505,29.0266947 76.4241518,29.5826787 76.7978516,30.3027344 C77.1715513,31.0227901 77.3583984,31.8476516 77.3583984,32.7773438 L77.3583984,33.2763672 C77.3583984,34.2197313 77.170412,35.0491501 76.7944336,35.7646484 C76.4184552,36.4801468 75.8829787,37.0315736 75.1879883,37.4189453 C74.4929978,37.806317 73.6966191,38 72.7988281,38 L69.9345703,38 Z M71.6640625,29.4414062 L71.6640625,36.6191406 L72.7919922,36.6191406 C73.6988978,36.6191406 74.3950171,36.3354521 74.8803711,35.7680664 C75.3657251,35.2006808 75.6129557,34.386073 75.6220703,33.3242188 L75.6220703,32.7705078 C75.6220703,31.6904243 75.3873721,30.8655627 74.9179688,30.2958984 C74.4485654,29.7262341 73.7672571,29.4414062 72.8740234,29.4414062 L71.6640625,29.4414062 Z M86.3613281,28.046875 L86.3613281,34.6982422 C86.3613281,35.7555391 86.0229526,36.5929331 85.3461914,37.2104492 C84.6694302,37.8279653 83.7682348,38.1367188 82.6425781,38.1367188 C81.5032495,38.1367188 80.5986362,37.8325226 79.9287109,37.2241211 C79.2587857,36.6157196 78.9238281,35.7714898 78.9238281,34.6914062 L78.9238281,28.046875 L80.6464844,28.046875 L80.6464844,34.7050781 C80.6464844,35.370446 80.8151025,35.878579 81.1523438,36.2294922 C81.489585,36.5804054 81.9863248,36.7558594 82.6425781,36.7558594 C83.9733139,36.7558594 84.6386719,36.0540435 84.6386719,34.6503906 L84.6386719,28.046875 L86.3613281,28.046875 Z M89.9365234,36.6191406 L94.4550781,36.6191406 L94.4550781,38 L88.2070312,38 L88.2070312,28.046875 L89.9365234,28.046875 L89.9365234,36.6191406 Z M101.598633,33.5566406 L97.5107422,33.5566406 L97.5107422,36.6191406 L102.289062,36.6191406 L102.289062,38 L95.78125,38 L95.78125,28.046875 L102.241211,28.046875 L102.241211,29.4414062 L97.5107422,29.4414062 L97.5107422,32.1894531 L101.598633,32.1894531 L101.598633,33.5566406 Z M108.899414,35.4365234 C108.899414,34.9990212 108.745607,34.661785 108.437988,34.4248047 C108.13037,34.1878243 107.575525,33.9485689 106.773438,33.7070312 C105.97135,33.4654936 105.333336,33.1966161 104.859375,32.9003906 C103.952469,32.3307263 103.499023,31.5878952 103.499023,30.671875 C103.499023,29.8697877 103.826006,29.208987 104.47998,28.6894531 C105.133955,28.1699193 105.982742,27.9101562 107.026367,27.9101562 C107.719079,27.9101562 108.336586,28.0377591 108.878906,28.2929688 C109.421227,28.5481784 109.847329,28.9116187 110.157227,29.3833008 C110.467124,29.8549828 110.62207,30.3779268 110.62207,30.9521484 L108.899414,30.9521484 C108.899414,30.4326146 108.736493,30.0258804 108.410645,29.7319336 C108.084797,29.4379868 107.618818,29.2910156 107.012695,29.2910156 C106.447588,29.2910156 106.008953,29.4117826 105.696777,29.6533203 C105.384601,29.894858 105.228516,30.2320942 105.228516,30.6650391 C105.228516,31.0296242 105.397134,31.3338204 105.734375,31.5776367 C106.071616,31.821453 106.6276,32.0584298 107.402344,32.2885742 C108.177087,32.5187186 108.799151,32.7807602 109.268555,33.074707 C109.737958,33.3686538 110.08203,33.70589 110.300781,34.0864258 C110.519532,34.4669615 110.628906,34.9124323 110.628906,35.4228516 C110.628906,36.2522828 110.311038,36.9119442 109.675293,37.4018555 C109.039548,37.8917668 108.177089,38.1367188 107.087891,38.1367188 C106.367835,38.1367188 105.705895,38.0034193 105.102051,37.7368164 C104.498207,37.4702135 104.02881,37.1022159 103.693848,36.6328125 C103.358885,36.1634091 103.191406,35.6165396 103.191406,34.9921875 L104.920898,34.9921875 C104.920898,35.5572945 105.107746,35.9947901 105.481445,36.3046875 C105.855145,36.6145849 106.390622,36.7695312 107.087891,36.7695312 C107.689456,36.7695312 108.141763,36.6476249 108.444824,36.4038086 C108.747886,36.1599923 108.899414,35.8375671 108.899414,35.4365234 Z" id="JOOMLA-MODULES"></path>
        </g>
    </g>
</svg>