<?xml version="1.0" encoding="UTF-8"?>
<svg width="148px" height="80px" viewBox="0 0 148 80" version="1.1" xmlns="http://www.w3.org/2000/svg" xmlns:xlink="http://www.w3.org/1999/xlink">
    <!-- Generator: Sketch 50.2 (55047) - http://www.bohemiancoding.com/sketch -->
    <title>EasyBlog Title Copy</title>
    <desc>Created with Sketch.</desc>
    <defs></defs>
    <g id="EasyBlog-Title-Copy" stroke="none" stroke-width="1" fill="none" fill-rule="evenodd">
        <rect id="Rectangle-4" fill="#D1D5DB" x="0" y="0" width="148" height="80" rx="2"></rect>
        <rect id="Rectangle-3" fill="#FAFBFB" x="1" y="1" width="146" height="78" rx="1"></rect>
        <path d="M30.6484375,38.921875 L25.9765625,38.921875 L25.9765625,42.421875 L31.4375,42.421875 L31.4375,44 L24,44 L24,32.625 L31.3828125,32.625 L31.3828125,34.21875 L25.9765625,34.21875 L25.9765625,37.359375 L30.6484375,37.359375 L30.6484375,38.921875 Z M37.9140625,44 C37.8307287,43.8385409 37.7578128,43.5755227 37.6953125,43.2109375 C37.0911428,43.841149 36.3515669,44.15625 35.4765625,44.15625 C34.6275999,44.15625 33.9348985,43.9140649 33.3984375,43.4296875 C32.8619765,42.9453101 32.59375,42.3463577 32.59375,41.6328125 C32.59375,40.7317663 32.9283821,40.040367 33.5976562,39.5585938 C34.2669304,39.0768205 35.2239521,38.8359375 36.46875,38.8359375 L37.6328125,38.8359375 L37.6328125,38.28125 C37.6328125,37.8437478 37.5104179,37.4934909 37.265625,37.2304688 C37.0208321,36.9674466 36.64844,36.8359375 36.1484375,36.8359375 C35.7161437,36.8359375 35.3619805,36.9440093 35.0859375,37.1601562 C34.8098945,37.3763032 34.671875,37.65104 34.671875,37.984375 L32.7734375,37.984375 C32.7734375,37.520831 32.9270818,37.0872416 33.234375,36.6835938 C33.5416682,36.2799459 33.9596328,35.9635428 34.4882812,35.734375 C35.0169297,35.5052072 35.6067676,35.390625 36.2578125,35.390625 C37.2474008,35.390625 38.0364554,35.6393204 38.625,36.1367188 C39.2135446,36.6341171 39.5156249,37.3333288 39.53125,38.234375 L39.53125,42.046875 C39.53125,42.8072955 39.6380198,43.4140602 39.8515625,43.8671875 L39.8515625,44 L37.9140625,44 Z M35.828125,42.6328125 C36.2031269,42.6328125 36.5559879,42.5416676 36.8867188,42.359375 C37.2174496,42.1770824 37.466145,41.9322932 37.6328125,41.625 L37.6328125,40.03125 L36.609375,40.03125 C35.9062465,40.03125 35.3776059,40.1536446 35.0234375,40.3984375 C34.6692691,40.6432304 34.4921875,40.9895811 34.4921875,41.4375 C34.4921875,41.8020852 34.61328,42.0924468 34.8554688,42.3085938 C35.0976575,42.5247407 35.421873,42.6328125 35.828125,42.6328125 Z M46.2578125,41.703125 C46.2578125,41.3645816 46.118491,41.1067717 45.8398438,40.9296875 C45.5611965,40.7526033 45.0989616,40.5963548 44.453125,40.4609375 C43.8072884,40.3255202 43.2682313,40.1536469 42.8359375,39.9453125 C41.8880161,39.4869769 41.4140625,38.822921 41.4140625,37.953125 C41.4140625,37.2239547 41.7213511,36.6145858 42.3359375,36.125 C42.9505239,35.6354142 43.7317661,35.390625 44.6796875,35.390625 C45.6901092,35.390625 46.5065073,35.6406225 47.1289062,36.140625 C47.7513052,36.6406275 48.0625,37.2890585 48.0625,38.0859375 L46.1640625,38.0859375 C46.1640625,37.7213523 46.0286472,37.41797 45.7578125,37.1757812 C45.4869778,36.9335925 45.1276064,36.8125 44.6796875,36.8125 C44.2630188,36.8125 43.9231784,36.9088532 43.6601562,37.1015625 C43.3971341,37.2942718 43.265625,37.5520817 43.265625,37.875 C43.265625,38.1666681 43.3880196,38.3932284 43.6328125,38.5546875 C43.8776054,38.7161466 44.3723921,38.8789054 45.1171875,39.0429688 C45.8619829,39.2070321 46.4466125,39.4023426 46.8710938,39.6289062 C47.295575,39.8554699 47.6106761,40.1276026 47.8164062,40.4453125 C48.0221364,40.7630224 48.125,41.1484352 48.125,41.6015625 C48.125,42.361983 47.809899,42.9778622 47.1796875,43.4492188 C46.549476,43.9205753 45.7239634,44.15625 44.703125,44.15625 C44.0104132,44.15625 43.3932319,44.0312512 42.8515625,43.78125 C42.3098931,43.5312488 41.8880223,43.1875022 41.5859375,42.75 C41.2838527,42.3124978 41.1328125,41.8411484 41.1328125,41.3359375 L42.9765625,41.3359375 C43.0026043,41.7838564 43.1718734,42.128905 43.484375,42.3710938 C43.7968766,42.6132825 44.2109349,42.734375 44.7265625,42.734375 C45.226565,42.734375 45.6067695,42.6393239 45.8671875,42.4492188 C46.1276055,42.2591136 46.2578125,42.0104182 46.2578125,41.703125 Z M52.734375,41.28125 L54.453125,35.546875 L56.4765625,35.546875 L53.1171875,45.28125 C52.6015599,46.7031321 51.7265687,47.4140625 50.4921875,47.4140625 C50.2161445,47.4140625 49.91146,47.367188 49.578125,47.2734375 L49.578125,45.8046875 L49.9375,45.828125 C50.4166691,45.828125 50.7773425,45.7408863 51.0195312,45.5664062 C51.26172,45.3919262 51.4531243,45.0989604 51.59375,44.6875 L51.8671875,43.9609375 L48.8984375,35.546875 L50.9453125,35.546875 L52.734375,41.28125 Z M57.75,44 L57.75,32.625 L61.6484375,32.625 C62.9349023,32.625 63.9140591,32.8828099 64.5859375,33.3984375 C65.2578159,33.9140651 65.59375,34.6822866 65.59375,35.703125 C65.59375,36.2239609 65.4531264,36.6927063 65.171875,37.109375 C64.8906236,37.5260437 64.4791694,37.8489572 63.9375,38.078125 C64.5520864,38.2447925 65.0273421,38.5585914 65.3632812,39.0195312 C65.6992204,39.4804711 65.8671875,40.0338509 65.8671875,40.6796875 C65.8671875,41.7474012 65.524743,42.5677055 64.8398438,43.140625 C64.1549445,43.7135445 63.1744855,44 61.8984375,44 L57.75,44 Z M59.7265625,38.8671875 L59.7265625,42.421875 L61.921875,42.421875 C62.5416698,42.421875 63.0260399,42.2682307 63.375,41.9609375 C63.7239601,41.6536443 63.8984375,41.2265652 63.8984375,40.6796875 C63.8984375,39.4973899 63.2942769,38.8932293 62.0859375,38.8671875 L59.7265625,38.8671875 Z M59.7265625,37.4140625 L61.6640625,37.4140625 C62.2786489,37.4140625 62.7591129,37.274741 63.1054688,36.9960938 C63.4518246,36.7174465 63.625,36.3229192 63.625,35.8125 C63.625,35.2499972 63.4648454,34.8437512 63.1445312,34.59375 C62.8242171,34.3437488 62.3255242,34.21875 61.6484375,34.21875 L59.7265625,34.21875 L59.7265625,37.4140625 Z M69.6796875,44 L67.78125,44 L67.78125,32 L69.6796875,32 L69.6796875,44 Z M71.390625,39.6953125 C71.390625,38.8671834 71.5546859,38.1210971 71.8828125,37.4570312 C72.2109391,36.7929654 72.671872,36.2825539 73.265625,35.9257812 C73.859378,35.5690086 74.5416628,35.390625 75.3125,35.390625 C76.4531307,35.390625 77.3789027,35.7578088 78.0898438,36.4921875 C78.8007848,37.2265662 79.1848955,38.2005148 79.2421875,39.4140625 L79.25,39.859375 C79.25,40.6927125 79.0898454,41.4374967 78.7695312,42.09375 C78.4492171,42.7500033 77.9908884,43.2578107 77.3945312,43.6171875 C76.7981741,43.9765643 76.1093789,44.15625 75.328125,44.15625 C74.1354107,44.15625 73.1809932,43.7591186 72.4648438,42.9648438 C71.7486943,42.1705689 71.390625,41.1119858 71.390625,39.7890625 L71.390625,39.6953125 Z M73.2890625,39.859375 C73.2890625,40.729171 73.4687482,41.4101538 73.828125,41.9023438 C74.1875018,42.3945337 74.6874968,42.640625 75.328125,42.640625 C75.9687532,42.640625 76.4674461,42.3906275 76.8242188,41.890625 C77.1809914,41.3906225 77.359375,40.658859 77.359375,39.6953125 C77.359375,38.8411416 77.1757831,38.164065 76.8085938,37.6640625 C76.4414044,37.16406 75.9427115,36.9140625 75.3125,36.9140625 C74.6927052,36.9140625 74.2005227,37.1601538 73.8359375,37.6523438 C73.4713523,38.1445337 73.2890625,38.8802034 73.2890625,39.859375 Z M80.5234375,39.7109375 C80.5234375,38.3984309 80.8320282,37.3502643 81.4492188,36.5664062 C82.0664093,35.7825482 82.8854116,35.390625 83.90625,35.390625 C84.8697965,35.390625 85.6276014,35.7265591 86.1796875,36.3984375 L86.265625,35.546875 L87.9765625,35.546875 L87.9765625,43.7421875 C87.9765625,44.851568 87.6315139,45.7265593 86.9414062,46.3671875 C86.2512986,47.0078157 85.3203184,47.328125 84.1484375,47.328125 C83.5286427,47.328125 82.92318,47.19922 82.3320312,46.9414062 C81.7408825,46.6835925 81.2916682,46.3463562 80.984375,45.9296875 L81.8828125,44.7890625 C82.4661488,45.4817743 83.1848916,45.828125 84.0390625,45.828125 C84.669274,45.828125 85.1666648,45.6575538 85.53125,45.3164062 C85.8958352,44.9752587 86.078125,44.4739616 86.078125,43.8125 L86.078125,43.2421875 C85.5312473,43.8515655 84.8020879,44.15625 83.890625,44.15625 C82.9010367,44.15625 82.0924511,43.7630248 81.4648438,42.9765625 C80.8372364,42.1901002 80.5234375,41.1015695 80.5234375,39.7109375 Z M82.4140625,39.875 C82.4140625,40.7239626 82.5872379,41.3919246 82.9335938,41.8789062 C83.2799496,42.3658879 83.7604136,42.609375 84.375,42.609375 C85.1406288,42.609375 85.7083315,42.2812533 86.078125,41.625 L86.078125,37.90625 C85.7187482,37.2656218 85.1562538,36.9453125 84.390625,36.9453125 C83.7656219,36.9453125 83.2799496,37.1927059 82.9335938,37.6875 C82.5872379,38.1822941 82.4140625,38.9114535 82.4140625,39.875 Z M101.84375,34.21875 L98.296875,34.21875 L98.296875,44 L96.3359375,44 L96.3359375,34.21875 L92.8203125,34.21875 L92.8203125,32.625 L101.84375,32.625 L101.84375,34.21875 Z M105.171875,44 L103.273438,44 L103.273438,35.546875 L105.171875,35.546875 L105.171875,44 Z M103.15625,33.3515625 C103.15625,33.0598944 103.248697,32.8177093 103.433594,32.625 C103.618491,32.4322907 103.882811,32.3359375 104.226562,32.3359375 C104.570314,32.3359375 104.835937,32.4322907 105.023438,32.625 C105.210938,32.8177093 105.304688,33.0598944 105.304688,33.3515625 C105.304688,33.6380223 105.210938,33.8763011 105.023438,34.0664062 C104.835937,34.2565114 104.570314,34.3515625 104.226562,34.3515625 C103.882811,34.3515625 103.618491,34.2565114 103.433594,34.0664062 C103.248697,33.8763011 103.15625,33.6380223 103.15625,33.3515625 Z M109.617188,33.4921875 L109.617188,35.546875 L111.109375,35.546875 L111.109375,36.953125 L109.617188,36.953125 L109.617188,41.671875 C109.617188,41.9947933 109.680989,42.2278639 109.808594,42.3710938 C109.936199,42.5143236 110.164061,42.5859375 110.492188,42.5859375 C110.710939,42.5859375 110.932291,42.5598961 111.15625,42.5078125 L111.15625,43.9765625 C110.723956,44.0963548 110.307294,44.15625 109.90625,44.15625 C108.447909,44.15625 107.71875,43.3515705 107.71875,41.7421875 L107.71875,36.953125 L106.328125,36.953125 L106.328125,35.546875 L107.71875,35.546875 L107.71875,33.4921875 L109.617188,33.4921875 Z M114.578125,44 L112.679688,44 L112.679688,32 L114.578125,32 L114.578125,44 Z M120.367188,44.15625 C119.164056,44.15625 118.188806,43.7773475 117.441406,43.0195312 C116.694007,42.261715 116.320312,41.2526105 116.320312,39.9921875 L116.320312,39.7578125 C116.320312,38.9140583 116.483071,38.1601596 116.808594,37.4960938 C117.134116,36.8320279 117.591143,36.315106 118.179688,35.9453125 C118.768232,35.575519 119.424476,35.390625 120.148438,35.390625 C121.299485,35.390625 122.188799,35.7578088 122.816406,36.4921875 C123.444014,37.2265662 123.757812,38.2656183 123.757812,39.609375 L123.757812,40.375 L118.234375,40.375 C118.291667,41.0729202 118.524738,41.624998 118.933594,42.03125 C119.34245,42.437502 119.856768,42.640625 120.476562,42.640625 C121.346359,42.640625 122.054685,42.289066 122.601562,41.5859375 L123.625,42.5625 C123.286457,43.0677109 122.834638,43.459634 122.269531,43.7382812 C121.704424,44.0169285 121.070316,44.15625 120.367188,44.15625 Z M120.140625,36.9140625 C119.619789,36.9140625 119.19922,37.0963523 118.878906,37.4609375 C118.558592,37.8255227 118.354167,38.3333301 118.265625,38.984375 L121.882812,38.984375 L121.882812,38.84375 C121.841146,38.2083302 121.671876,37.7278662 121.375,37.4023438 C121.078124,37.0768213 120.666669,36.9140625 120.140625,36.9140625 Z" id="EasyBlog-Title" fill="#5D6B82"></path>
    </g>
</svg>