<?xml version="1.0" encoding="UTF-8"?>
<svg width="148px" height="80px" viewBox="0 0 148 80" version="1.1" xmlns="http://www.w3.org/2000/svg" xmlns:xlink="http://www.w3.org/1999/xlink">
    <!-- Generator: Sketch 50.2 (55047) - http://www.bohemiancoding.com/sketch -->
    <title>K2 Image Copy</title>
    <desc>Created with Sketch.</desc>
    <defs></defs>
    <g id="K2-Image-Copy" stroke="none" stroke-width="1" fill="none" fill-rule="evenodd">
        <rect id="Rectangle-4" fill="#D1D5DB" x="0" y="0" width="148" height="80" rx="2"></rect>
        <rect id="Rectangle-3" fill="#FAFBFB" x="1" y="1" width="146" height="78" rx="1"></rect>
        <path d="M44.265625,39.6171875 L42.9765625,40.984375 L42.9765625,44.53125 L41,44.53125 L41,33.15625 L42.9765625,33.15625 L42.9765625,38.4921875 L44.0703125,37.140625 L47.3984375,33.15625 L49.7890625,33.15625 L45.5625,38.1953125 L50.03125,44.53125 L47.6875,44.53125 L44.265625,39.6171875 Z M58.4296875,44.53125 L50.78125,44.53125 L50.78125,43.2265625 L54.5703125,39.09375 C55.1171902,38.484372 55.5065093,37.9752625 55.7382812,37.5664062 C55.9700532,37.15755 56.0859375,36.7473979 56.0859375,36.3359375 C56.0859375,35.7942681 55.9335953,35.3567725 55.6289062,35.0234375 C55.3242172,34.6901025 54.9140651,34.5234375 54.3984375,34.5234375 C53.7838511,34.5234375 53.3072934,34.7109356 52.96875,35.0859375 C52.6302066,35.4609394 52.4609375,35.9739551 52.4609375,36.625 L50.5625,36.625 C50.5625,35.9322882 50.7200505,35.3085965 51.0351562,34.7539062 C51.350262,34.199216 51.8007783,33.7682307 52.3867188,33.4609375 C52.9726592,33.1536443 53.6484337,33 54.4140625,33 C55.5182347,33 56.3893197,33.277341 57.0273438,33.8320312 C57.6653678,34.3867215 57.984375,35.1536409 57.984375,36.1328125 C57.984375,36.7005237 57.8242204,37.2955698 57.5039062,37.9179688 C57.1835921,38.5403677 56.6588578,39.2473919 55.9296875,40.0390625 L53.1484375,43.015625 L58.4296875,43.015625 L58.4296875,44.53125 Z M66.25,44.53125 L64.28125,44.53125 L64.28125,33.15625 L66.25,33.15625 L66.25,44.53125 Z M70.28125,36.078125 L70.3359375,36.9609375 C70.9296905,36.2682257 71.7421823,35.921875 72.7734375,35.921875 C73.9036515,35.921875 74.6770813,36.3541623 75.09375,37.21875 C75.7083364,36.3541623 76.5729111,35.921875 77.6875,35.921875 C78.6197963,35.921875 79.3137998,36.1796849 79.7695312,36.6953125 C80.2252627,37.2109401 80.4583333,37.9713491 80.46875,38.9765625 L80.46875,44.53125 L78.5703125,44.53125 L78.5703125,39.03125 C78.5703125,38.494789 78.4531262,38.1015637 78.21875,37.8515625 C77.9843738,37.6015613 77.5963569,37.4765625 77.0546875,37.4765625 C76.6223937,37.4765625 76.2695326,37.5924468 75.9960938,37.8242188 C75.7226549,38.0559907 75.5312505,38.3593731 75.421875,38.734375 L75.4296875,44.53125 L73.53125,44.53125 L73.53125,38.96875 C73.5052082,37.9739534 72.9974008,37.4765625 72.0078125,37.4765625 C71.247392,37.4765625 70.7083349,37.7864552 70.390625,38.40625 L70.390625,44.53125 L68.4921875,44.53125 L68.4921875,36.078125 L70.28125,36.078125 Z M87.46875,44.53125 C87.3854162,44.3697909 87.3125003,44.1067727 87.25,43.7421875 C86.6458303,44.372399 85.9062544,44.6875 85.03125,44.6875 C84.1822874,44.6875 83.489586,44.4453149 82.953125,43.9609375 C82.416664,43.4765601 82.1484375,42.8776077 82.1484375,42.1640625 C82.1484375,41.2630163 82.4830696,40.571617 83.1523438,40.0898438 C83.8216179,39.6080705 84.7786396,39.3671875 86.0234375,39.3671875 L87.1875,39.3671875 L87.1875,38.8125 C87.1875,38.3749978 87.0651054,38.0247409 86.8203125,37.7617188 C86.5755196,37.4986966 86.2031275,37.3671875 85.703125,37.3671875 C85.2708312,37.3671875 84.916668,37.4752593 84.640625,37.6914062 C84.364582,37.9075532 84.2265625,38.18229 84.2265625,38.515625 L82.328125,38.515625 C82.328125,38.052081 82.4817693,37.6184916 82.7890625,37.2148438 C83.0963557,36.8111959 83.5143203,36.4947928 84.0429688,36.265625 C84.5716172,36.0364572 85.1614551,35.921875 85.8125,35.921875 C86.8020883,35.921875 87.5911429,36.1705704 88.1796875,36.6679688 C88.7682321,37.1653671 89.0703124,37.8645788 89.0859375,38.765625 L89.0859375,42.578125 C89.0859375,43.3385455 89.1927073,43.9453102 89.40625,44.3984375 L89.40625,44.53125 L87.46875,44.53125 Z M85.3828125,43.1640625 C85.7578144,43.1640625 86.1106754,43.0729176 86.4414062,42.890625 C86.7721371,42.7083324 87.0208325,42.4635432 87.1875,42.15625 L87.1875,40.5625 L86.1640625,40.5625 C85.460934,40.5625 84.9322934,40.6848946 84.578125,40.9296875 C84.2239566,41.1744804 84.046875,41.5208311 84.046875,41.96875 C84.046875,42.3333352 84.1679675,42.6236968 84.4101562,42.8398438 C84.652345,43.0559907 84.9765605,43.1640625 85.3828125,43.1640625 Z M90.7421875,40.2421875 C90.7421875,38.9296809 91.0507782,37.8815143 91.6679688,37.0976562 C92.2851593,36.3137982 93.1041616,35.921875 94.125,35.921875 C95.0885465,35.921875 95.8463514,36.2578091 96.3984375,36.9296875 L96.484375,36.078125 L98.1953125,36.078125 L98.1953125,44.2734375 C98.1953125,45.382818 97.8502639,46.2578093 97.1601562,46.8984375 C96.4700486,47.5390657 95.5390684,47.859375 94.3671875,47.859375 C93.7473927,47.859375 93.14193,47.73047 92.5507812,47.4726562 C91.9596325,47.2148425 91.5104182,46.8776062 91.203125,46.4609375 L92.1015625,45.3203125 C92.6848988,46.0130243 93.4036416,46.359375 94.2578125,46.359375 C94.888024,46.359375 95.3854148,46.1888038 95.75,45.8476562 C96.1145852,45.5065087 96.296875,45.0052116 96.296875,44.34375 L96.296875,43.7734375 C95.7499973,44.3828155 95.0208379,44.6875 94.109375,44.6875 C93.1197867,44.6875 92.3112011,44.2942748 91.6835938,43.5078125 C91.0559864,42.7213502 90.7421875,41.6328195 90.7421875,40.2421875 Z M92.6328125,40.40625 C92.6328125,41.2552126 92.8059879,41.9231746 93.1523438,42.4101562 C93.4986996,42.8971379 93.9791636,43.140625 94.59375,43.140625 C95.3593788,43.140625 95.9270815,42.8125033 96.296875,42.15625 L96.296875,38.4375 C95.9374982,37.7968718 95.3750038,37.4765625 94.609375,37.4765625 C93.9843719,37.4765625 93.4986996,37.7239559 93.1523438,38.21875 C92.8059879,38.7135441 92.6328125,39.4427035 92.6328125,40.40625 Z M103.867188,44.6875 C102.664056,44.6875 101.688806,44.3085975 100.941406,43.5507812 C100.194007,42.792965 99.8203125,41.7838605 99.8203125,40.5234375 L99.8203125,40.2890625 C99.8203125,39.4453083 99.9830713,38.6914096 100.308594,38.0273438 C100.634116,37.3632779 101.091143,36.846356 101.679688,36.4765625 C102.268232,36.106769 102.924476,35.921875 103.648438,35.921875 C104.799485,35.921875 105.688799,36.2890588 106.316406,37.0234375 C106.944014,37.7578162 107.257812,38.7968683 107.257812,40.140625 L107.257812,40.90625 L101.734375,40.90625 C101.791667,41.6041702 102.024738,42.156248 102.433594,42.5625 C102.84245,42.968752 103.356768,43.171875 103.976562,43.171875 C104.846359,43.171875 105.554685,42.820316 106.101562,42.1171875 L107.125,43.09375 C106.786457,43.5989609 106.334638,43.990884 105.769531,44.2695312 C105.204424,44.5481785 104.570316,44.6875 103.867188,44.6875 Z M103.640625,37.4453125 C103.119789,37.4453125 102.69922,37.6276023 102.378906,37.9921875 C102.058592,38.3567727 101.854167,38.8645801 101.765625,39.515625 L105.382812,39.515625 L105.382812,39.375 C105.341146,38.7395802 105.171876,38.2591162 104.875,37.9335938 C104.578124,37.6080713 104.166669,37.4453125 103.640625,37.4453125 Z" id="K2-Image" fill="#5D6B82"></path>
    </g>
</svg>