<svg width="148" height="80" viewBox="0 0 148 80" fill="none" xmlns="http://www.w3.org/2000/svg">
<rect width="148" height="80" rx="2" fill="#D1D5DB"/>
<rect x="1" y="1" width="146" height="78" rx="1" fill="#FAFBFB"/>
<path fill-rule="evenodd" clip-rule="evenodd" d="M44.3496 15.3848H47.7832V14.2012H44.3496V11.6641H48.2871V10.4688H42.8672V19H44.3496V15.3848ZM51.2578 19.1172C52.0273 19.1172 52.6211 18.8711 53.0391 18.3789L53.0742 19H54.416V12.6602H52.9922V17.2129C52.75 17.709 52.2832 17.957 51.5918 17.957C50.9238 17.957 50.5898 17.5547 50.5898 16.75V12.6602H49.166V16.7676C49.166 17.5293 49.3418 18.1113 49.6934 18.5137C50.0488 18.916 50.5703 19.1172 51.2578 19.1172ZM55.957 19H57.3809V10H55.957V19ZM59.0273 19H60.4512V10H59.0273V19ZM69.1934 15.9355C69.459 16.1387 69.5918 16.4277 69.5918 16.8027C69.5918 17.1465 69.4609 17.4238 69.1992 17.6348C68.9414 17.8418 68.5547 17.9453 68.0391 17.9453C67.4414 17.9453 66.9824 17.8125 66.6621 17.5469C66.3418 17.2812 66.1816 16.9062 66.1816 16.4219H64.6992C64.6992 16.957 64.8418 17.4258 65.127 17.8281C65.416 18.2305 65.8184 18.5469 66.334 18.7773C66.8535 19.0039 67.4219 19.1172 68.0391 19.1172C68.9727 19.1172 69.7109 18.9082 70.2539 18.4902C70.8008 18.0684 71.0742 17.502 71.0742 16.791C71.0742 16.3535 70.9805 15.9727 70.793 15.6484C70.6055 15.3203 70.3105 15.0312 69.9082 14.7812C69.5059 14.5273 68.9727 14.3027 68.3086 14.1074C67.6445 13.9082 67.168 13.7051 66.8789 13.498C66.5898 13.2871 66.4453 13.0254 66.4453 12.7129C66.4453 12.3418 66.5781 12.0527 66.8438 11.8457C67.1133 11.6387 67.4902 11.5352 67.9746 11.5352C68.4941 11.5352 68.8926 11.6621 69.1699 11.916C69.4512 12.166 69.5918 12.5137 69.5918 12.959H71.0684C71.0684 12.4668 70.9355 12.0195 70.6699 11.6172C70.4043 11.2109 70.0391 10.8984 69.5742 10.6797C69.1094 10.4609 68.5801 10.3516 67.9863 10.3516C67.0918 10.3516 66.3633 10.5742 65.8008 11.0195C65.2422 11.4648 64.9629 12.0312 64.9629 12.7188C64.9629 13.5039 65.3516 14.1406 66.1289 14.6289C66.5352 14.8828 67.082 15.1133 67.7695 15.3203C68.457 15.5273 68.9316 15.7324 69.1934 15.9355ZM72.832 18.2676C73.3945 18.834 74.127 19.1172 75.0293 19.1172C75.5566 19.1172 76.0312 19.0137 76.4531 18.8066C76.8789 18.5957 77.2188 18.3008 77.4727 17.9219L76.7051 17.1895C76.2949 17.7168 75.7637 17.9805 75.1113 17.9805C74.6465 17.9805 74.2598 17.8281 73.9512 17.5234C73.6465 17.2188 73.4727 16.8047 73.4297 16.2812H77.5723V15.707C77.5723 14.6992 77.3359 13.9199 76.8633 13.3691C76.3945 12.8184 75.7285 12.543 74.8652 12.543C74.3223 12.543 73.8301 12.6816 73.3887 12.959C72.9473 13.2363 72.6035 13.625 72.3574 14.125C72.1152 14.6211 71.9941 15.1855 71.9941 15.8184V15.9941C71.9941 16.9395 72.2734 17.6973 72.832 18.2676ZM73.9102 14.0957C74.1523 13.8223 74.4688 13.6855 74.8594 13.6855C75.2539 13.6855 75.5625 13.8086 75.7852 14.0547C76.0078 14.2969 76.1348 14.6562 76.166 15.1328V15.2383H73.4531C73.5195 14.75 73.6719 14.3691 73.9102 14.0957ZM82.1719 17.6699C81.9375 17.877 81.6426 17.9805 81.2871 17.9805C80.8184 17.9805 80.459 17.8125 80.209 17.4766C79.9629 17.1367 79.8398 16.623 79.8398 15.9355V15.707C79.8438 15.0273 79.9707 14.5215 80.2207 14.1895C80.4707 13.8535 80.8262 13.6855 81.2871 13.6855C81.6465 13.6855 81.9414 13.8027 82.1719 14.0371C82.4062 14.2715 82.5312 14.5703 82.5469 14.9336H83.8887C83.8652 14.2188 83.6152 13.6426 83.1387 13.2051C82.666 12.7637 82.0527 12.543 81.2988 12.543C80.4082 12.543 79.7051 12.834 79.1895 13.416C78.6738 13.9941 78.416 14.7656 78.416 15.7305V15.877C78.416 16.8887 78.6758 17.6816 79.1953 18.2559C79.7148 18.8301 80.418 19.1172 81.3047 19.1172C81.7617 19.1172 82.1875 19.0176 82.582 18.8184C82.9766 18.6191 83.2891 18.3496 83.5195 18.0098C83.75 17.666 83.873 17.2969 83.8887 16.9023H82.5469C82.5312 17.207 82.4062 17.4629 82.1719 17.6699ZM86.748 12.6602V11.1191H85.3242V12.6602H84.2812V13.7148H85.3242V17.3066C85.3242 18.5137 85.8711 19.1172 86.9648 19.1172C87.2656 19.1172 87.5781 19.0723 87.9023 18.9824V17.8809C87.7344 17.9199 87.5684 17.9395 87.4043 17.9395C87.1582 17.9395 86.9863 17.8867 86.8887 17.7812C86.7949 17.6719 86.748 17.4961 86.748 17.2539V13.7148H87.8672V12.6602H86.748ZM89.0508 19H90.4746V12.6602H89.0508V19ZM89.168 10.4688C89.0312 10.6133 88.9629 10.7949 88.9629 11.0137C88.9629 11.2285 89.0312 11.4082 89.168 11.5527C89.3086 11.6934 89.5078 11.7637 89.7656 11.7637C90.0234 11.7637 90.2227 11.6934 90.3633 11.5527C90.5039 11.4082 90.5742 11.2285 90.5742 11.0137C90.5742 10.7949 90.5039 10.6133 90.3633 10.4688C90.2227 10.3242 90.0234 10.252 89.7656 10.252C89.5078 10.252 89.3086 10.3242 89.168 10.4688ZM92.1328 14.0957C91.8867 14.5918 91.7637 15.1504 91.7637 15.7715V15.8418C91.7637 16.834 92.0312 17.6289 92.5664 18.2266C93.1055 18.8203 93.8223 19.1172 94.7168 19.1172C95.3027 19.1172 95.8184 18.9824 96.2637 18.7129C96.7129 18.4434 97.0566 18.0625 97.2949 17.5703C97.5371 17.0781 97.6582 16.5195 97.6582 15.8945L97.6523 15.5605C97.6094 14.6504 97.3203 13.9199 96.7852 13.3691C96.2539 12.8184 95.5605 12.543 94.7051 12.543C94.127 12.543 93.6152 12.6777 93.1699 12.9473C92.7246 13.2129 92.3789 13.5957 92.1328 14.0957ZM94.7168 17.9805C94.2363 17.9805 93.8613 17.7969 93.5918 17.4297C93.3223 17.0586 93.1875 16.5469 93.1875 15.8945C93.1875 15.1602 93.3242 14.6094 93.5977 14.2422C93.8711 13.8711 94.2402 13.6855 94.7051 13.6855C95.1777 13.6855 95.5508 13.873 95.8242 14.248C96.1016 14.623 96.2402 15.1309 96.2402 15.7715C96.2402 16.4941 96.1055 17.043 95.8359 17.418C95.5703 17.793 95.1973 17.9805 94.7168 17.9805ZM100.225 13.3926L100.184 12.6602H98.8418V19H100.266V14.4883C100.547 13.9688 100.975 13.709 101.549 13.709C101.943 13.709 102.227 13.8066 102.398 14.002C102.574 14.1934 102.662 14.4902 102.662 14.8926V19H104.086V14.8105C104.062 13.2988 103.391 12.543 102.07 12.543C101.309 12.543 100.693 12.8262 100.225 13.3926ZM136 30V27V26H135H13H12V27V30H13V27H135V30H136ZM12 34H136V70H12V34Z" fill="#5D6B82"/>
</svg>
