<svg width="148" height="80" viewBox="0 0 148 80" fill="none" xmlns="http://www.w3.org/2000/svg">
<rect width="148" height="80" rx="2" fill="#D1D5DB"/>
<rect x="1" y="1" width="146" height="78" rx="1" fill="#FAFBFB"/>
<path fill-rule="evenodd" clip-rule="evenodd" d="M71.375 18.6484H65.6387V17.6699L68.4805 14.5703C68.8906 14.1133 69.1816 13.7324 69.3535 13.4277C69.5293 13.1191 69.6172 12.8105 69.6172 12.502C69.6172 12.0957 69.502 11.7676 69.2715 11.5176C69.0449 11.2676 68.7383 11.1426 68.3516 11.1426C67.8906 11.1426 67.5332 11.2832 67.2793 11.5645C67.0254 11.8457 66.8984 12.2305 66.8984 12.7188H65.4746C65.4746 12.1992 65.5918 11.7324 65.8262 11.3184C66.0645 10.9004 66.4023 10.5762 66.8398 10.3457C67.2812 10.1152 67.7891 10 68.3633 10C69.1914 10 69.8438 10.209 70.3203 10.627C70.8008 11.041 71.041 11.6152 71.041 12.3496C71.041 12.7754 70.9199 13.2227 70.6777 13.6914C70.4395 14.1562 70.0469 14.6855 69.5 15.2793L67.4141 17.5117H71.375V18.6484ZM72.9512 19.3809H71.832L75.1895 10.1172H76.3086L72.9512 19.3809ZM82.0215 15.6074H83.082V16.75H82.0215V18.6484H80.5977V16.75H76.9121L76.8711 15.8828L80.5508 10.1172H82.0215V15.6074ZM78.3652 15.6074H80.5977V12.0449L80.4922 12.2324L78.3652 15.6074ZM116.494 18.6484H115.076V11.7988L112.984 12.5137V11.3125L116.312 10.0879H116.494V18.6484ZM119.951 19.3809H118.832L122.189 10.1172H123.309L119.951 19.3809ZM129.021 15.6074H130.082V16.75H129.021V18.6484H127.598V16.75H123.912L123.871 15.8828L127.551 10.1172H129.021V15.6074ZM125.365 15.6074H127.598V12.0449L127.492 12.2324L125.365 15.6074ZM136 29.6484V26.6484V25.6484H135H109H108V26.6484V29.6484H109V26.6484H135V29.6484H136ZM40 33.6484H12V69.6484H40V33.6484ZM108 33.6484H136V69.6484H108V33.6484ZM19.0762 18.6484H20.4941V10.0879H20.3125L16.9844 11.3125V12.5137L19.0762 11.7988V18.6484ZM22.832 19.3809H23.9512L27.3086 10.1172H26.1895L22.832 19.3809ZM34.082 15.6074H33.0215V10.1172H31.5508L27.8711 15.8828L27.9121 16.75H31.5977V18.6484H33.0215V16.75H34.082V15.6074ZM31.5977 15.6074H29.3652L31.4922 12.2324L31.5977 12.0449V15.6074ZM40 29.6484V26.6484V25.6484H39H13H12V26.6484V29.6484H13V26.6484H39V29.6484H40ZM104 33.6484H44V69.6484H104V33.6484ZM104 26.6484V29.6484H103V26.6484H45V29.6484H44V26.6484V25.6484H45H103H104V26.6484Z" fill="#5D6B82"/>
</svg>
