<svg width="148" height="80" viewBox="0 0 148 80" fill="none" xmlns="http://www.w3.org/2000/svg">
<rect width="148" height="80" rx="2" fill="#D1D5DB"/>
<rect x="1" y="1" width="146" height="78" rx="1" fill="#FAFBFB"/>
<path fill-rule="evenodd" clip-rule="evenodd" d="M58.8672 11.4688V20H61.9785C62.9355 20 63.6699 19.7852 64.1816 19.3555C64.6973 18.9258 64.9551 18.3105 64.9551 17.5098C64.9551 17.0254 64.8281 16.6113 64.5742 16.2676C64.3242 15.9199 63.9688 15.6836 63.5078 15.5586C63.9141 15.3867 64.2227 15.1445 64.4336 14.832C64.6445 14.5195 64.75 14.168 64.75 13.7773C64.75 13.0117 64.498 12.4355 63.9941 12.0488C63.4902 11.6621 62.7559 11.4688 61.791 11.4688H58.8672ZM60.3496 18.8164V16.1504H62.1191C63.0254 16.1699 63.4785 16.623 63.4785 17.5098C63.4785 17.9199 63.3477 18.2402 63.0859 18.4707C62.8242 18.7012 62.4609 18.8164 61.9961 18.8164H60.3496ZM61.8027 15.0605H60.3496V12.6641H61.791C62.2988 12.6641 62.6719 12.7578 62.9102 12.9453C63.1523 13.1328 63.2734 13.4375 63.2734 13.8594C63.2734 14.2422 63.1426 14.5391 62.8809 14.75C62.623 14.957 62.2637 15.0605 61.8027 15.0605ZM66.3906 20H67.8145V11H66.3906V20ZM69.4727 15.0957C69.2266 15.5918 69.1035 16.1504 69.1035 16.7715V16.8418C69.1035 17.834 69.3711 18.6289 69.9062 19.2266C70.4453 19.8203 71.1621 20.1172 72.0566 20.1172C72.6426 20.1172 73.1582 19.9824 73.6035 19.7129C74.0527 19.4434 74.3965 19.0625 74.6348 18.5703C74.877 18.0781 74.998 17.5195 74.998 16.8945L74.9922 16.5605C74.9492 15.6504 74.6602 14.9199 74.125 14.3691C73.5938 13.8184 72.9004 13.543 72.0449 13.543C71.4668 13.543 70.9551 13.6777 70.5098 13.9473C70.0645 14.2129 69.7188 14.5957 69.4727 15.0957ZM70.9316 18.4297C70.6621 18.0586 70.5273 17.5469 70.5273 16.8945C70.5273 16.1602 70.6641 15.6094 70.9375 15.2422C71.2109 14.8711 71.5801 14.6855 72.0449 14.6855C72.5176 14.6855 72.8906 14.873 73.1641 15.248C73.4414 15.623 73.5801 16.1309 73.5801 16.7715C73.5801 17.4941 73.4453 18.043 73.1758 18.418C72.9102 18.793 72.5371 18.9805 72.0566 18.9805C71.5762 18.9805 71.2012 18.7969 70.9316 18.4297ZM79.6914 18.6699C79.457 18.877 79.1621 18.9805 78.8066 18.9805C78.3379 18.9805 77.9785 18.8125 77.7285 18.4766C77.4824 18.1367 77.3594 17.623 77.3594 16.9355V16.707C77.3633 16.0273 77.4902 15.5215 77.7402 15.1895C77.9902 14.8535 78.3457 14.6855 78.8066 14.6855C79.166 14.6855 79.4609 14.8027 79.6914 15.0371C79.9258 15.2715 80.0508 15.5703 80.0664 15.9336H81.4082C81.3848 15.2188 81.1348 14.6426 80.6582 14.2051C80.1855 13.7637 79.5723 13.543 78.8184 13.543C77.9277 13.543 77.2246 13.834 76.709 14.416C76.1934 14.9941 75.9355 15.7656 75.9355 16.7305V16.877C75.9355 17.8887 76.1953 18.6816 76.7148 19.2559C77.2344 19.8301 77.9375 20.1172 78.8242 20.1172C79.2812 20.1172 79.707 20.0176 80.1016 19.8184C80.4961 19.6191 80.8086 19.3496 81.0391 19.0098C81.2695 18.666 81.3926 18.2969 81.4082 17.9023H80.0664C80.0508 18.207 79.9258 18.4629 79.6914 18.6699ZM83.9102 17.9316L84.543 17.2812L86.4238 20H88.0703L85.4629 16.3027L87.8184 13.6602H86.1074L84.3555 15.6348L83.9102 16.1914V11H82.4863V20H83.9102V17.9316ZM124 31V28V27H123H25H24V28V31H25V28H123V31H124ZM12 35H20V71H12V35ZM128 35H136V71H128V35ZM124 35H24V71H124V35Z" fill="#5D6B82"/>
</svg>
