<svg width="148" height="80" viewBox="0 0 148 80" fill="none" xmlns="http://www.w3.org/2000/svg">
<rect width="148" height="80" rx="2" fill="#D1D5DB"/>
<rect x="1" y="1" width="146" height="78" rx="1" fill="#FAFBFB"/>
<path fill-rule="evenodd" clip-rule="evenodd" d="M35.0762 18.6484H36.4941V10.0879H36.3125L32.9844 11.3125V12.5137L35.0762 11.7988V18.6484ZM38.832 19.3809H39.9512L43.3086 10.1172H42.1895L38.832 19.3809ZM44.2051 18.6484H49.9414V17.5117H45.9805L48.0664 15.2793C48.6133 14.6855 49.0059 14.1562 49.2441 13.6914C49.4863 13.2227 49.6074 12.7754 49.6074 12.3496C49.6074 11.6152 49.3672 11.041 48.8867 10.627C48.4102 10.209 47.7578 10 46.9297 10C46.3555 10 45.8477 10.1152 45.4062 10.3457C44.9688 10.5762 44.6309 10.9004 44.3926 11.3184C44.1582 11.7324 44.041 12.1992 44.041 12.7188H45.4648C45.4648 12.2305 45.5918 11.8457 45.8457 11.5645C46.0996 11.2832 46.457 11.1426 46.918 11.1426C47.3047 11.1426 47.6113 11.2676 47.8379 11.5176C48.0684 11.7676 48.1836 12.0957 48.1836 12.502C48.1836 12.8105 48.0957 13.1191 47.9199 13.4277C47.748 13.7324 47.457 14.1133 47.0469 14.5703L44.2051 17.6699V18.6484ZM72 33.6484H12V69.6484H72V33.6484ZM100.494 18.6484H99.0762V11.7988L96.9844 12.5137V11.3125L100.312 10.0879H100.494V18.6484ZM103.951 19.3809H102.832L106.189 10.1172H107.309L103.951 19.3809ZM113.941 18.6484H108.205V17.6699L111.047 14.5703C111.457 14.1133 111.748 13.7324 111.92 13.4277C112.096 13.1191 112.184 12.8105 112.184 12.502C112.184 12.0957 112.068 11.7676 111.838 11.5176C111.611 11.2676 111.305 11.1426 110.918 11.1426C110.457 11.1426 110.1 11.2832 109.846 11.5645C109.592 11.8457 109.465 12.2305 109.465 12.7188H108.041C108.041 12.1992 108.158 11.7324 108.393 11.3184C108.631 10.9004 108.969 10.5762 109.406 10.3457C109.848 10.1152 110.355 10 110.93 10C111.758 10 112.41 10.209 112.887 10.627C113.367 11.041 113.607 11.6152 113.607 12.3496C113.607 12.7754 113.486 13.2227 113.244 13.6914C113.006 14.1562 112.613 14.6855 112.066 15.2793L109.98 17.5117H113.941V18.6484ZM72 26.6484V29.6484H71V26.6484H13V29.6484H12V26.6484V25.6484H13H71H72V26.6484ZM76 33.6484H136V69.6484H76V33.6484ZM136 26.6484V29.6484H135V26.6484H77V29.6484H76V26.6484V25.6484H77H135H136V26.6484Z" fill="#5D6B82"/>
</svg>
