<svg width="148" height="80" viewBox="0 0 148 80" fill="none" xmlns="http://www.w3.org/2000/svg">
<rect width="148" height="80" rx="2" fill="#D1D5DB"/>
<rect x="1" y="1" width="146" height="78" rx="1" fill="#FAFBFB"/>
<path fill-rule="evenodd" clip-rule="evenodd" d="M25.4941 20H24.0762V13.1504L21.9844 13.8652V12.6641L25.3125 11.4395H25.4941V20ZM28.9512 20.7324H27.832L31.1895 11.4688H32.3086L28.9512 20.7324ZM34.8516 15.084H35.7188C36.1562 15.0801 36.502 14.9668 36.7559 14.7441C37.0137 14.5215 37.1426 14.1992 37.1426 13.7773C37.1426 13.3711 37.0352 13.0566 36.8203 12.834C36.6094 12.6074 36.2852 12.4941 35.8477 12.4941C35.4648 12.4941 35.1504 12.6055 34.9043 12.8281C34.6582 13.0469 34.5352 13.334 34.5352 13.6895H33.1113C33.1113 13.252 33.2266 12.8535 33.457 12.4941C33.6914 12.1348 34.0156 11.8555 34.4297 11.6562C34.8477 11.4531 35.3145 11.3516 35.8301 11.3516C36.6816 11.3516 37.3496 11.5664 37.834 11.9961C38.3223 12.4219 38.5664 13.0156 38.5664 13.7773C38.5664 14.1602 38.4434 14.5215 38.1973 14.8613C37.9551 15.1973 37.6406 15.4512 37.2539 15.623C37.7227 15.7832 38.0781 16.0352 38.3203 16.3789C38.5664 16.7227 38.6895 17.1328 38.6895 17.6094C38.6895 18.375 38.4258 18.9844 37.8984 19.4375C37.375 19.8906 36.6855 20.1172 35.8301 20.1172C35.0098 20.1172 34.3379 19.8984 33.8145 19.4609C33.291 19.0234 33.0293 18.4414 33.0293 17.7148H34.4531C34.4531 18.0898 34.5781 18.3945 34.8281 18.6289C35.082 18.8633 35.4219 18.9805 35.8477 18.9805C36.2891 18.9805 36.6367 18.8633 36.8906 18.6289C37.1445 18.3945 37.2715 18.0547 37.2715 17.6094C37.2715 17.1602 37.1387 16.8145 36.873 16.5723C36.6074 16.3301 36.2129 16.209 35.6895 16.209H34.8516V15.084ZM68.4941 20H67.0762V13.1504L64.9844 13.8652V12.6641L68.3125 11.4395H68.4941V20ZM71.9512 20.7324H70.832L74.1895 11.4688H75.3086L71.9512 20.7324ZM77.8516 15.084H78.7188C79.1562 15.0801 79.502 14.9668 79.7559 14.7441C80.0137 14.5215 80.1426 14.1992 80.1426 13.7773C80.1426 13.3711 80.0352 13.0566 79.8203 12.834C79.6094 12.6074 79.2852 12.4941 78.8477 12.4941C78.4648 12.4941 78.1504 12.6055 77.9043 12.8281C77.6582 13.0469 77.5352 13.334 77.5352 13.6895H76.1113C76.1113 13.252 76.2266 12.8535 76.457 12.4941C76.6914 12.1348 77.0156 11.8555 77.4297 11.6562C77.8477 11.4531 78.3145 11.3516 78.8301 11.3516C79.6816 11.3516 80.3496 11.5664 80.834 11.9961C81.3223 12.4219 81.5664 13.0156 81.5664 13.7773C81.5664 14.1602 81.4434 14.5215 81.1973 14.8613C80.9551 15.1973 80.6406 15.4512 80.2539 15.623C80.7227 15.7832 81.0781 16.0352 81.3203 16.3789C81.5664 16.7227 81.6895 17.1328 81.6895 17.6094C81.6895 18.375 81.4258 18.9844 80.8984 19.4375C80.375 19.8906 79.6855 20.1172 78.8301 20.1172C78.0098 20.1172 77.3379 19.8984 76.8145 19.4609C76.291 19.0234 76.0293 18.4414 76.0293 17.7148H77.4531C77.4531 18.0898 77.5781 18.3945 77.8281 18.6289C78.082 18.8633 78.4219 18.9805 78.8477 18.9805C79.2891 18.9805 79.6367 18.8633 79.8906 18.6289C80.1445 18.3945 80.2715 18.0547 80.2715 17.6094C80.2715 17.1602 80.1387 16.8145 79.873 16.5723C79.6074 16.3301 79.2129 16.209 78.6895 16.209H77.8516V15.084ZM110.076 20H111.494V11.4395H111.312L107.984 12.6641V13.8652L110.076 13.1504V20ZM113.832 20.7324H114.951L118.309 11.4688H117.189L113.832 20.7324ZM121.719 15.084H120.852V16.209H121.689C122.213 16.209 122.607 16.3301 122.873 16.5723C123.139 16.8145 123.271 17.1602 123.271 17.6094C123.271 18.0547 123.145 18.3945 122.891 18.6289C122.637 18.8633 122.289 18.9805 121.848 18.9805C121.422 18.9805 121.082 18.8633 120.828 18.6289C120.578 18.3945 120.453 18.0898 120.453 17.7148H119.029C119.029 18.4414 119.291 19.0234 119.814 19.4609C120.338 19.8984 121.01 20.1172 121.83 20.1172C122.686 20.1172 123.375 19.8906 123.898 19.4375C124.426 18.9844 124.689 18.375 124.689 17.6094C124.689 17.1328 124.566 16.7227 124.32 16.3789C124.078 16.0352 123.723 15.7832 123.254 15.623C123.641 15.4512 123.955 15.1973 124.197 14.8613C124.443 14.5215 124.566 14.1602 124.566 13.7773C124.566 13.0156 124.322 12.4219 123.834 11.9961C123.35 11.5664 122.682 11.3516 121.83 11.3516C121.314 11.3516 120.848 11.4531 120.43 11.6562C120.016 11.8555 119.691 12.1348 119.457 12.4941C119.227 12.8535 119.111 13.252 119.111 13.6895H120.535C120.535 13.334 120.658 13.0469 120.904 12.8281C121.15 12.6055 121.465 12.4941 121.848 12.4941C122.285 12.4941 122.609 12.6074 122.82 12.834C123.035 13.0566 123.143 13.3711 123.143 13.7773C123.143 14.1992 123.014 14.5215 122.756 14.7441C122.502 14.9668 122.156 15.0801 121.719 15.084ZM12 35H50V71H12V35ZM50 28V31H49V28H13V31H12V28V27H13H49H50V28ZM54 35H94V71H54V35ZM94 28V31H93V28H55V31H54V28V27H55H93H94V28ZM98 35H136V71H98V35ZM136 28V31H135V28H99V31H98V28V27H99H135H136V28Z" fill="#5D6B82"/>
</svg>
