<svg width="148" height="80" viewBox="0 0 148 80" fill="none" xmlns="http://www.w3.org/2000/svg">
<rect width="148" height="80" rx="2" fill="#D1D5DB"/>
<rect x="1" y="1" width="146" height="78" rx="1" fill="#FAFBFB"/>
<path fill-rule="evenodd" clip-rule="evenodd" d="M116.494 17H115.076V10.1504L112.984 10.8652V9.66406L116.312 8.43945H116.494V17ZM119.951 17.7324H118.832L122.189 8.46875H123.309L119.951 17.7324ZM129.021 13.959H130.082V15.1016H129.021V17H127.598V15.1016H123.912L123.871 14.2344L127.551 8.46875H129.021V13.959ZM125.365 13.959H127.598V10.3965L127.492 10.584L125.365 13.959ZM40 25V28H39V25H13V28H12V25V24H13H39H40V25ZM40 32H12V68H40V32ZM44 32H72V68H44V32ZM72 25V28H71V25H45V28H44V25V24H45H71H72V25ZM76 32H104V68H76V32ZM104 25V28H103V25H77V28H76V25V24H77H103H104V25ZM108 32H136V68H108V32ZM136 25V28H135V25H109V28H108V25V24H109H135H136V25ZM83.0762 17H84.4941V8.43945H84.3125L80.9844 9.66406V10.8652L83.0762 10.1504V17ZM86.832 17.7324H87.9512L91.3086 8.46875H90.1895L86.832 17.7324ZM98.082 13.959H97.0215V8.46875H95.5508L91.8711 14.2344L91.9121 15.1016H95.5977V17H97.0215V15.1016H98.082V13.959ZM95.5977 13.959H93.3652L95.4922 10.584L95.5977 10.3965V13.959ZM52.4941 17H51.0762V10.1504L48.9844 10.8652V9.66406L52.3125 8.43945H52.4941V17ZM55.9512 17.7324H54.832L58.1895 8.46875H59.3086L55.9512 17.7324ZM65.0215 13.959H66.082V15.1016H65.0215V17H63.5977V15.1016H59.9121L59.8711 14.2344L63.5508 8.46875H65.0215V13.959ZM61.3652 13.959H63.5977V10.3965L63.4922 10.584L61.3652 13.959ZM19.0762 17H20.4941V8.43945H20.3125L16.9844 9.66406V10.8652L19.0762 10.1504V17ZM22.832 17.7324H23.9512L27.3086 8.46875H26.1895L22.832 17.7324ZM34.082 13.959H33.0215V8.46875H31.5508L27.8711 14.2344L27.9121 15.1016H31.5977V17H33.0215V15.1016H34.082V13.959ZM31.5977 13.959H29.3652L31.4922 10.584L31.5977 10.3965V13.959Z" fill="#5D6B82"/>
</svg>
