<svg width="148" height="80" viewBox="0 0 148 80" fill="none" xmlns="http://www.w3.org/2000/svg">
<rect width="148" height="80" rx="2" fill="#D1D5DB"/>
<rect x="1" y="1" width="146" height="78" rx="1" fill="#FAFBFB"/>
<path fill-rule="evenodd" clip-rule="evenodd" d="M23.0762 17H24.4941V8.43945H24.3125L20.9844 9.66406V10.8652L23.0762 10.1504V17ZM26.832 17.7324H27.9512L31.3086 8.46875H30.1895L26.832 17.7324ZM34.7188 12.084H33.8516V13.209H34.6895C35.2129 13.209 35.6074 13.3301 35.873 13.5723C36.1387 13.8145 36.2715 14.1602 36.2715 14.6094C36.2715 15.0547 36.1445 15.3945 35.8906 15.6289C35.6367 15.8633 35.2891 15.9805 34.8477 15.9805C34.4219 15.9805 34.082 15.8633 33.8281 15.6289C33.5781 15.3945 33.4531 15.0898 33.4531 14.7148H32.0293C32.0293 15.4414 32.291 16.0234 32.8145 16.4609C33.3379 16.8984 34.0098 17.1172 34.8301 17.1172C35.6855 17.1172 36.375 16.8906 36.8984 16.4375C37.4258 15.9844 37.6895 15.375 37.6895 14.6094C37.6895 14.1328 37.5664 13.7227 37.3203 13.3789C37.0781 13.0352 36.7227 12.7832 36.2539 12.623C36.6406 12.4512 36.9551 12.1973 37.1973 11.8613C37.4434 11.5215 37.5664 11.1602 37.5664 10.7773C37.5664 10.0156 37.3223 9.42188 36.834 8.99609C36.3496 8.56641 35.6816 8.35156 34.8301 8.35156C34.3145 8.35156 33.8477 8.45312 33.4297 8.65625C33.0156 8.85547 32.6914 9.13477 32.457 9.49414C32.2266 9.85352 32.1113 10.252 32.1113 10.6895H33.5352C33.5352 10.334 33.6582 10.0469 33.9043 9.82812C34.1504 9.60547 34.4648 9.49414 34.8477 9.49414C35.2852 9.49414 35.6094 9.60742 35.8203 9.83398C36.0352 10.0566 36.1426 10.3711 36.1426 10.7773C36.1426 11.1992 36.0137 11.5215 35.7559 11.7441C35.502 11.9668 35.1562 12.0801 34.7188 12.084ZM84.6387 17H90.375V15.8633H86.4141L88.5 13.6309C89.0469 13.0371 89.4395 12.5078 89.6777 12.043C89.9199 11.5742 90.041 11.127 90.041 10.7012C90.041 9.9668 89.8008 9.39258 89.3203 8.97852C88.8438 8.56055 88.1914 8.35156 87.3633 8.35156C86.7891 8.35156 86.2812 8.4668 85.8398 8.69727C85.4023 8.92773 85.0645 9.25195 84.8262 9.66992C84.5918 10.084 84.4746 10.5508 84.4746 11.0703H85.8984C85.8984 10.582 86.0254 10.1973 86.2793 9.91602C86.5332 9.63477 86.8906 9.49414 87.3516 9.49414C87.7383 9.49414 88.0449 9.61914 88.2715 9.86914C88.502 10.1191 88.6172 10.4473 88.6172 10.8535C88.6172 11.1621 88.5293 11.4707 88.3535 11.7793C88.1816 12.084 87.8906 12.4648 87.4805 12.9219L84.6387 16.0215V17ZM90.832 17.7324H91.9512L95.3086 8.46875H94.1895L90.832 17.7324ZM98.7188 12.084H97.8516V13.209H98.6895C99.2129 13.209 99.6074 13.3301 99.873 13.5723C100.139 13.8145 100.271 14.1602 100.271 14.6094C100.271 15.0547 100.145 15.3945 99.8906 15.6289C99.6367 15.8633 99.2891 15.9805 98.8477 15.9805C98.4219 15.9805 98.082 15.8633 97.8281 15.6289C97.5781 15.3945 97.4531 15.0898 97.4531 14.7148H96.0293C96.0293 15.4414 96.291 16.0234 96.8145 16.4609C97.3379 16.8984 98.0098 17.1172 98.8301 17.1172C99.6855 17.1172 100.375 16.8906 100.898 16.4375C101.426 15.9844 101.689 15.375 101.689 14.6094C101.689 14.1328 101.566 13.7227 101.32 13.3789C101.078 13.0352 100.723 12.7832 100.254 12.623C100.641 12.4512 100.955 12.1973 101.197 11.8613C101.443 11.5215 101.566 11.1602 101.566 10.7773C101.566 10.0156 101.322 9.42188 100.834 8.99609C100.35 8.56641 99.6816 8.35156 98.8301 8.35156C98.3145 8.35156 97.8477 8.45312 97.4297 8.65625C97.0156 8.85547 96.6914 9.13477 96.457 9.49414C96.2266 9.85352 96.1113 10.252 96.1113 10.6895H97.5352C97.5352 10.334 97.6582 10.0469 97.9043 9.82812C98.1504 9.60547 98.4648 9.49414 98.8477 9.49414C99.2852 9.49414 99.6094 9.60742 99.8203 9.83398C100.035 10.0566 100.143 10.3711 100.143 10.7773C100.143 11.1992 100.014 11.5215 99.7559 11.7441C99.502 11.9668 99.1562 12.0801 98.7188 12.084ZM12 32H48V68H12V32ZM48 25V28H47V25H13V28H12V25V24H13H47H48V25ZM52 32H136V68H52V32ZM136 25V28H135V25H53V28H52V25V24H53H135H136V25Z" fill="#5D6B82"/>
</svg>
