<svg width="148" height="80" viewBox="0 0 148 80" fill="none" xmlns="http://www.w3.org/2000/svg">
<rect width="148" height="80" rx="2" fill="#D1D5DB"/>
<rect x="1" y="1" width="146" height="78" rx="1" fill="#FAFBFB"/>
<path fill-rule="evenodd" clip-rule="evenodd" d="M43.6387 15H49.375V13.8633H45.4141L47.5 11.6309C48.0469 11.0371 48.4395 10.5078 48.6777 10.043C48.9199 9.57422 49.041 9.12695 49.041 8.70117C49.041 7.9668 48.8008 7.39258 48.3203 6.97852C47.8438 6.56055 47.1914 6.35156 46.3633 6.35156C45.7891 6.35156 45.2812 6.4668 44.8398 6.69727C44.4023 6.92773 44.0645 7.25195 43.8262 7.66992C43.5918 8.08398 43.4746 8.55078 43.4746 9.07031H44.8984C44.8984 8.58203 45.0254 8.19727 45.2793 7.91602C45.5332 7.63477 45.8906 7.49414 46.3516 7.49414C46.7383 7.49414 47.0449 7.61914 47.2715 7.86914C47.502 8.11914 47.6172 8.44727 47.6172 8.85352C47.6172 9.16211 47.5293 9.4707 47.3535 9.7793C47.1816 10.084 46.8906 10.4648 46.4805 10.9219L43.6387 14.0215V15ZM49.832 15.7324H50.9512L54.3086 6.46875H53.1895L49.832 15.7324ZM57.7188 10.084H56.8516V11.209H57.6895C58.2129 11.209 58.6074 11.3301 58.873 11.5723C59.1387 11.8145 59.2715 12.1602 59.2715 12.6094C59.2715 13.0547 59.1445 13.3945 58.8906 13.6289C58.6367 13.8633 58.2891 13.9805 57.8477 13.9805C57.4219 13.9805 57.082 13.8633 56.8281 13.6289C56.5781 13.3945 56.4531 13.0898 56.4531 12.7148H55.0293C55.0293 13.4414 55.291 14.0234 55.8145 14.4609C56.3379 14.8984 57.0098 15.1172 57.8301 15.1172C58.6855 15.1172 59.375 14.8906 59.8984 14.4375C60.4258 13.9844 60.6895 13.375 60.6895 12.6094C60.6895 12.1328 60.5664 11.7227 60.3203 11.3789C60.0781 11.0352 59.7227 10.7832 59.2539 10.623C59.6406 10.4512 59.9551 10.1973 60.1973 9.86133C60.4434 9.52148 60.5664 9.16016 60.5664 8.77734C60.5664 8.01562 60.3223 7.42188 59.834 6.99609C59.3496 6.56641 58.6816 6.35156 57.8301 6.35156C57.3145 6.35156 56.8477 6.45312 56.4297 6.65625C56.0156 6.85547 55.6914 7.13477 55.457 7.49414C55.2266 7.85352 55.1113 8.25195 55.1113 8.68945H56.5352C56.5352 8.33398 56.6582 8.04688 56.9043 7.82812C57.1504 7.60547 57.4648 7.49414 57.8477 7.49414C58.2852 7.49414 58.6094 7.60742 58.8203 7.83398C59.0352 8.05664 59.1426 8.37109 59.1426 8.77734C59.1426 9.19922 59.0137 9.52148 58.7559 9.74414C58.502 9.9668 58.1562 10.0801 57.7188 10.084ZM110.076 15H111.494V6.43945H111.312L107.984 7.66406V8.86523L110.076 8.15039V15ZM113.832 15.7324H114.951L118.309 6.46875H117.189L113.832 15.7324ZM121.719 10.084H120.852V11.209H121.689C122.213 11.209 122.607 11.3301 122.873 11.5723C123.139 11.8145 123.271 12.1602 123.271 12.6094C123.271 13.0547 123.145 13.3945 122.891 13.6289C122.637 13.8633 122.289 13.9805 121.848 13.9805C121.422 13.9805 121.082 13.8633 120.828 13.6289C120.578 13.3945 120.453 13.0898 120.453 12.7148H119.029C119.029 13.4414 119.291 14.0234 119.814 14.4609C120.338 14.8984 121.01 15.1172 121.83 15.1172C122.686 15.1172 123.375 14.8906 123.898 14.4375C124.426 13.9844 124.689 13.375 124.689 12.6094C124.689 12.1328 124.566 11.7227 124.32 11.3789C124.078 11.0352 123.723 10.7832 123.254 10.623C123.641 10.4512 123.955 10.1973 124.197 9.86133C124.443 9.52148 124.566 9.16016 124.566 8.77734C124.566 8.01562 124.322 7.42188 123.834 6.99609C123.35 6.56641 122.682 6.35156 121.83 6.35156C121.314 6.35156 120.848 6.45312 120.43 6.65625C120.016 6.85547 119.691 7.13477 119.457 7.49414C119.227 7.85352 119.111 8.25195 119.111 8.68945H120.535C120.535 8.33398 120.658 8.04688 120.904 7.82812C121.15 7.60547 121.465 7.49414 121.848 7.49414C122.285 7.49414 122.609 7.60742 122.82 7.83398C123.035 8.05664 123.143 8.37109 123.143 8.77734C123.143 9.19922 123.014 9.52148 122.756 9.74414C122.502 9.9668 122.156 10.0801 121.719 10.084ZM12 30H93V66H12V30ZM93 23V26H92V23H13V26H12V23V22H13H92H93V23ZM97 30H136V66H97V30ZM136 23V26H135V23H98V26H97V23V22H98H135H136V23Z" fill="#5D6B82"/>
</svg>
