<svg width="148" height="80" viewBox="0 0 148 80" fill="none" xmlns="http://www.w3.org/2000/svg">
<rect width="148" height="80" rx="2" fill="#D1D5DB"/>
<rect x="1" y="1" width="146" height="78" rx="1" fill="#FAFBFB"/>
<path fill-rule="evenodd" clip-rule="evenodd" d="M84.1523 12.084H83.2852V13.209H84.123C84.6465 13.209 85.041 13.3301 85.3066 13.5723C85.5723 13.8145 85.7051 14.1602 85.7051 14.6094C85.7051 15.0547 85.5781 15.3945 85.3242 15.6289C85.0703 15.8633 84.7227 15.9805 84.2812 15.9805C83.8555 15.9805 83.5156 15.8633 83.2617 15.6289C83.0117 15.3945 82.8867 15.0898 82.8867 14.7148H81.4629C81.4629 15.4414 81.7246 16.0234 82.248 16.4609C82.7715 16.8984 83.4434 17.1172 84.2637 17.1172C85.1191 17.1172 85.8086 16.8906 86.332 16.4375C86.8594 15.9844 87.123 15.375 87.123 14.6094C87.123 14.1328 87 13.7227 86.7539 13.3789C86.5117 13.0352 86.1562 12.7832 85.6875 12.623C86.0742 12.4512 86.3887 12.1973 86.6309 11.8613C86.877 11.5215 87 11.1602 87 10.7773C87 10.0156 86.7559 9.42188 86.2676 8.99609C85.7832 8.56641 85.1152 8.35156 84.2637 8.35156C83.748 8.35156 83.2812 8.45312 82.8633 8.65625C82.4492 8.85547 82.125 9.13477 81.8906 9.49414C81.6602 9.85352 81.5449 10.252 81.5449 10.6895H82.9688C82.9688 10.334 83.0918 10.0469 83.3379 9.82812C83.584 9.60547 83.8984 9.49414 84.2812 9.49414C84.7188 9.49414 85.043 9.60742 85.2539 9.83398C85.4688 10.0566 85.5762 10.3711 85.5762 10.7773C85.5762 11.1992 85.4473 11.5215 85.1895 11.7441C84.9355 11.9668 84.5898 12.0801 84.1523 12.084ZM87.832 17.7324H88.9512L92.3086 8.46875H91.1895L87.832 17.7324ZM99.082 13.959H98.0215V8.46875H96.5508L92.8711 14.2344L92.9121 15.1016H96.5977V17H98.0215V15.1016H99.082V13.959ZM96.5977 13.959H94.3652L96.4922 10.584L96.5977 10.3965V13.959ZM21.4941 17H20.0762V10.1504L17.9844 10.8652V9.66406L21.3125 8.43945H21.4941V17ZM24.9512 17.7324H23.832L27.1895 8.46875H28.3086L24.9512 17.7324ZM34.0215 13.959H35.082V15.1016H34.0215V17H32.5977V15.1016H28.9121L28.8711 14.2344L32.5508 8.46875H34.0215V13.959ZM30.3652 13.959H32.5977V10.3965L32.4922 10.584L30.3652 13.959ZM38.9564 25V28H37.9564V25H13.8984V28H12.8984V25V24H13.8984H37.9564H38.9564V25ZM40 32H12V68H40V32ZM136 32H44V68H136V32ZM136 28V25V24H135H45.3477H44.3477V25V28H45.3477V25H135V28H136Z" fill="#5D6B82"/>
</svg>
