<svg width="148" height="80" viewBox="0 0 148 80" fill="none" xmlns="http://www.w3.org/2000/svg">
<rect width="148" height="80" rx="2" fill="#D1D5DB"/>
<rect x="1" y="1" width="146" height="78" rx="1" fill="#FAFBFB"/>
<path fill-rule="evenodd" clip-rule="evenodd" d="M51.2852 14.084H52.1523C52.5898 14.0801 52.9355 13.9668 53.1895 13.7441C53.4473 13.5215 53.5762 13.1992 53.5762 12.7773C53.5762 12.3711 53.4688 12.0566 53.2539 11.834C53.043 11.6074 52.7188 11.4941 52.2812 11.4941C51.8984 11.4941 51.584 11.6055 51.3379 11.8281C51.0918 12.0469 50.9688 12.334 50.9688 12.6895H49.5449C49.5449 12.252 49.6602 11.8535 49.8906 11.4941C50.125 11.1348 50.4492 10.8555 50.8633 10.6562C51.2812 10.4531 51.748 10.3516 52.2637 10.3516C53.1152 10.3516 53.7832 10.5664 54.2676 10.9961C54.7559 11.4219 55 12.0156 55 12.7773C55 13.1602 54.877 13.5215 54.6309 13.8613C54.3887 14.1973 54.0742 14.4512 53.6875 14.623C54.1562 14.7832 54.5117 15.0352 54.7539 15.3789C55 15.7227 55.123 16.1328 55.123 16.6094C55.123 17.375 54.8594 17.9844 54.332 18.4375C53.8086 18.8906 53.1191 19.1172 52.2637 19.1172C51.4434 19.1172 50.7715 18.8984 50.248 18.4609C49.7246 18.0234 49.4629 17.4414 49.4629 16.7148H50.8867C50.8867 17.0898 51.0117 17.3945 51.2617 17.6289C51.5156 17.8633 51.8555 17.9805 52.2812 17.9805C52.7227 17.9805 53.0703 17.8633 53.3242 17.6289C53.5781 17.3945 53.7051 17.0547 53.7051 16.6094C53.7051 16.1602 53.5723 15.8145 53.3066 15.5723C53.041 15.3301 52.6465 15.209 52.123 15.209H51.2852V14.084ZM56.9512 19.7324H55.832L59.1895 10.4688H60.3086L56.9512 19.7324ZM66.0215 15.959H67.082V17.1016H66.0215V19H64.5977V17.1016H60.9121L60.8711 16.2344L64.5508 10.4688H66.0215V15.959ZM62.3652 15.959H64.5977V12.3965L64.4922 12.584L62.3652 15.959ZM116.076 19H117.494V10.4395H117.312L113.984 11.6641V12.8652L116.076 12.1504V19ZM119.832 19.7324H120.951L124.309 10.4688H123.189L119.832 19.7324ZM131.082 15.959H130.021V10.4688H128.551L124.871 16.2344L124.912 17.1016H128.598V19H130.021V17.1016H131.082V15.959ZM128.598 15.959H126.365L128.492 12.584L128.598 12.3965V15.959ZM136 34H108V70H136V34ZM136 30V27V26H135H109H108V27V30H109V27H135V30H136ZM104 34H12V70H104V34ZM103.652 27V30H102.652V27H13V30H12V27V26H13H102.652H103.652V27Z" fill="#5D6B82"/>
</svg>
