<?xml version="1.0" encoding="UTF-8"?>
<svg width="148px" height="80px" viewBox="0 0 148 80" version="1.1" xmlns="http://www.w3.org/2000/svg" xmlns:xlink="http://www.w3.org/1999/xlink">
    <!-- Generator: Sketch 50.2 (55047) - http://www.bohemiancoding.com/sketch -->
    <title>Article Image Copy</title>
    <desc>Created with Sketch.</desc>
    <defs></defs>
    <g id="Article-Image-Copy" stroke="none" stroke-width="1" fill="none" fill-rule="evenodd">
        <rect id="Rectangle-4" fill="#D1D5DB" x="0" y="0" width="148" height="80" rx="2"></rect>
        <rect id="Rectangle-3" fill="#FAFBFB" x="1" y="1" width="146" height="78" rx="1"></rect>
        <path d="M33.3828125,41.3515625 L28.9765625,41.3515625 L28.0546875,44 L26,44 L30.296875,32.625 L32.0703125,32.625 L36.375,44 L34.3125,44 L33.3828125,41.3515625 Z M29.53125,39.7578125 L32.828125,39.7578125 L31.1796875,35.0390625 L29.53125,39.7578125 Z M41.90625,37.28125 C41.6562488,37.2395831 41.3984388,37.21875 41.1328125,37.21875 C40.2630165,37.21875 39.6770848,37.55208 39.375,38.21875 L39.375,44 L37.4765625,44 L37.4765625,35.546875 L39.2890625,35.546875 L39.3359375,36.4921875 C39.7942731,35.7578088 40.4296834,35.390625 41.2421875,35.390625 C41.5130222,35.390625 41.7369783,35.427083 41.9140625,35.5 L41.90625,37.28125 Z M45.875,33.4921875 L45.875,35.546875 L47.3671875,35.546875 L47.3671875,36.953125 L45.875,36.953125 L45.875,41.671875 C45.875,41.9947933 45.9388014,42.2278639 46.0664062,42.3710938 C46.1940111,42.5143236 46.4218734,42.5859375 46.75,42.5859375 C46.9687511,42.5859375 47.190103,42.5598961 47.4140625,42.5078125 L47.4140625,43.9765625 C46.9817687,44.0963548 46.5651062,44.15625 46.1640625,44.15625 C44.7057219,44.15625 43.9765625,43.3515705 43.9765625,41.7421875 L43.9765625,36.953125 L42.5859375,36.953125 L42.5859375,35.546875 L43.9765625,35.546875 L43.9765625,33.4921875 L45.875,33.4921875 Z M50.8359375,44 L48.9375,44 L48.9375,35.546875 L50.8359375,35.546875 L50.8359375,44 Z M48.8203125,33.3515625 C48.8203125,33.0598944 48.9127595,32.8177093 49.0976562,32.625 C49.282553,32.4322907 49.5468733,32.3359375 49.890625,32.3359375 C50.2343767,32.3359375 50.4999991,32.4322907 50.6875,32.625 C50.8750009,32.8177093 50.96875,33.0598944 50.96875,33.3515625 C50.96875,33.6380223 50.8750009,33.8763011 50.6875,34.0664062 C50.4999991,34.2565114 50.2343767,34.3515625 49.890625,34.3515625 C49.5468733,34.3515625 49.282553,34.2565114 49.0976562,34.0664062 C48.9127595,33.8763011 48.8203125,33.6380223 48.8203125,33.3515625 Z M56.375,42.640625 C56.8489607,42.640625 57.2421859,42.5026055 57.5546875,42.2265625 C57.8671891,41.9505195 58.0338541,41.609377 58.0546875,41.203125 L59.84375,41.203125 C59.8229166,41.7291693 59.6588557,42.2200498 59.3515625,42.6757812 C59.0442693,43.1315127 58.6276068,43.4921862 58.1015625,43.7578125 C57.5755182,44.0234388 57.0078155,44.15625 56.3984375,44.15625 C55.2161399,44.15625 54.2786493,43.7734413 53.5859375,43.0078125 C52.8932257,42.2421837 52.546875,41.1849026 52.546875,39.8359375 L52.546875,39.640625 C52.546875,38.3541602 52.8906216,37.3242226 53.578125,36.5507812 C54.2656284,35.7773399 55.2031191,35.390625 56.390625,35.390625 C57.3958384,35.390625 58.2148406,35.6835908 58.8476562,36.2695312 C59.4804719,36.8554717 59.8124998,37.6249952 59.84375,38.578125 L58.0546875,38.578125 C58.0338541,38.0937476 57.8684911,37.6953141 57.5585938,37.3828125 C57.2486964,37.0703109 56.8541691,36.9140625 56.375,36.9140625 C55.7604136,36.9140625 55.28646,37.1367165 54.953125,37.5820312 C54.61979,38.027346 54.4505209,38.7031205 54.4453125,39.609375 L54.4453125,39.9140625 C54.4453125,40.8307338 54.6106754,41.5143207 54.9414062,41.9648438 C55.2721371,42.4153668 55.7499969,42.640625 56.375,42.640625 Z M63.296875,44 L61.3984375,44 L61.3984375,32 L63.296875,32 L63.296875,44 Z M69.0859375,44.15625 C67.8828065,44.15625 66.9075558,43.7773475 66.1601562,43.0195312 C65.4127567,42.261715 65.0390625,41.2526105 65.0390625,39.9921875 L65.0390625,39.7578125 C65.0390625,38.9140583 65.2018213,38.1601596 65.5273438,37.4960938 C65.8528662,36.8320279 66.3098929,36.315106 66.8984375,35.9453125 C67.4869821,35.575519 68.1432255,35.390625 68.8671875,35.390625 C70.0182349,35.390625 70.9075489,35.7578088 71.5351562,36.4921875 C72.1627636,37.2265662 72.4765625,38.2656183 72.4765625,39.609375 L72.4765625,40.375 L66.953125,40.375 C67.010417,41.0729202 67.2434875,41.624998 67.6523438,42.03125 C68.0612,42.437502 68.5755177,42.640625 69.1953125,42.640625 C70.0651085,42.640625 70.7734348,42.289066 71.3203125,41.5859375 L72.34375,42.5625 C72.0052066,43.0677109 71.5533882,43.459634 70.9882812,43.7382812 C70.4231743,44.0169285 69.789066,44.15625 69.0859375,44.15625 Z M68.859375,36.9140625 C68.3385391,36.9140625 67.9179704,37.0963523 67.5976562,37.4609375 C67.2773421,37.8255227 67.0729171,38.3333301 66.984375,38.984375 L70.6015625,38.984375 L70.6015625,38.84375 C70.5598956,38.2083302 70.3906265,37.7278662 70.09375,37.4023438 C69.7968735,37.0768213 69.3854193,36.9140625 68.859375,36.9140625 Z M80.203125,44 L78.234375,44 L78.234375,32.625 L80.203125,32.625 L80.203125,44 Z M84.234375,35.546875 L84.2890625,36.4296875 C84.8828155,35.7369757 85.6953073,35.390625 86.7265625,35.390625 C87.8567765,35.390625 88.6302063,35.8229123 89.046875,36.6875 C89.6614614,35.8229123 90.5260361,35.390625 91.640625,35.390625 C92.5729213,35.390625 93.2669248,35.6484349 93.7226562,36.1640625 C94.1783877,36.6796901 94.4114583,37.4400991 94.421875,38.4453125 L94.421875,44 L92.5234375,44 L92.5234375,38.5 C92.5234375,37.963539 92.4062512,37.5703137 92.171875,37.3203125 C91.9374988,37.0703113 91.5494819,36.9453125 91.0078125,36.9453125 C90.5755187,36.9453125 90.2226576,37.0611968 89.9492188,37.2929688 C89.6757799,37.5247407 89.4843755,37.8281231 89.375,38.203125 L89.3828125,44 L87.484375,44 L87.484375,38.4375 C87.4583332,37.4427034 86.9505258,36.9453125 85.9609375,36.9453125 C85.200517,36.9453125 84.6614599,37.2552052 84.34375,37.875 L84.34375,44 L82.4453125,44 L82.4453125,35.546875 L84.234375,35.546875 Z M101.421875,44 C101.338541,43.8385409 101.265625,43.5755227 101.203125,43.2109375 C100.598955,43.841149 99.8593794,44.15625 98.984375,44.15625 C98.1354124,44.15625 97.442711,43.9140649 96.90625,43.4296875 C96.369789,42.9453101 96.1015625,42.3463577 96.1015625,41.6328125 C96.1015625,40.7317663 96.4361946,40.040367 97.1054688,39.5585938 C97.7747429,39.0768205 98.7317646,38.8359375 99.9765625,38.8359375 L101.140625,38.8359375 L101.140625,38.28125 C101.140625,37.8437478 101.01823,37.4934909 100.773438,37.2304688 C100.528645,36.9674466 100.156253,36.8359375 99.65625,36.8359375 C99.2239562,36.8359375 98.869793,36.9440093 98.59375,37.1601562 C98.317707,37.3763032 98.1796875,37.65104 98.1796875,37.984375 L96.28125,37.984375 C96.28125,37.520831 96.4348943,37.0872416 96.7421875,36.6835938 C97.0494807,36.2799459 97.4674453,35.9635428 97.9960938,35.734375 C98.5247422,35.5052072 99.1145801,35.390625 99.765625,35.390625 C100.755213,35.390625 101.544268,35.6393204 102.132812,36.1367188 C102.721357,36.6341171 103.023437,37.3333288 103.039062,38.234375 L103.039062,42.046875 C103.039062,42.8072955 103.145832,43.4140602 103.359375,43.8671875 L103.359375,44 L101.421875,44 Z M99.3359375,42.6328125 C99.7109394,42.6328125 100.0638,42.5416676 100.394531,42.359375 C100.725262,42.1770824 100.973957,41.9322932 101.140625,41.625 L101.140625,40.03125 L100.117188,40.03125 C99.414059,40.03125 98.8854184,40.1536446 98.53125,40.3984375 C98.1770816,40.6432304 98,40.9895811 98,41.4375 C98,41.8020852 98.1210925,42.0924468 98.3632812,42.3085938 C98.60547,42.5247407 98.9296855,42.6328125 99.3359375,42.6328125 Z M104.695312,39.7109375 C104.695312,38.3984309 105.003903,37.3502643 105.621094,36.5664062 C106.238284,35.7825482 107.057287,35.390625 108.078125,35.390625 C109.041671,35.390625 109.799476,35.7265591 110.351562,36.3984375 L110.4375,35.546875 L112.148438,35.546875 L112.148438,43.7421875 C112.148438,44.851568 111.803389,45.7265593 111.113281,46.3671875 C110.423174,47.0078157 109.492193,47.328125 108.320312,47.328125 C107.700518,47.328125 107.095055,47.19922 106.503906,46.9414062 C105.912757,46.6835925 105.463543,46.3463562 105.15625,45.9296875 L106.054688,44.7890625 C106.638024,45.4817743 107.356767,45.828125 108.210938,45.828125 C108.841149,45.828125 109.33854,45.6575538 109.703125,45.3164062 C110.06771,44.9752587 110.25,44.4739616 110.25,43.8125 L110.25,43.2421875 C109.703122,43.8515655 108.973963,44.15625 108.0625,44.15625 C107.072912,44.15625 106.264326,43.7630248 105.636719,42.9765625 C105.009111,42.1901002 104.695312,41.1015695 104.695312,39.7109375 Z M106.585938,39.875 C106.585938,40.7239626 106.759113,41.3919246 107.105469,41.8789062 C107.451825,42.3658879 107.932289,42.609375 108.546875,42.609375 C109.312504,42.609375 109.880206,42.2812533 110.25,41.625 L110.25,37.90625 C109.890623,37.2656218 109.328129,36.9453125 108.5625,36.9453125 C107.937497,36.9453125 107.451825,37.1927059 107.105469,37.6875 C106.759113,38.1822941 106.585938,38.9114535 106.585938,39.875 Z M117.820312,44.15625 C116.617181,44.15625 115.641931,43.7773475 114.894531,43.0195312 C114.147132,42.261715 113.773438,41.2526105 113.773438,39.9921875 L113.773438,39.7578125 C113.773438,38.9140583 113.936196,38.1601596 114.261719,37.4960938 C114.587241,36.8320279 115.044268,36.315106 115.632812,35.9453125 C116.221357,35.575519 116.877601,35.390625 117.601562,35.390625 C118.75261,35.390625 119.641924,35.7578088 120.269531,36.4921875 C120.897139,37.2265662 121.210938,38.2656183 121.210938,39.609375 L121.210938,40.375 L115.6875,40.375 C115.744792,41.0729202 115.977863,41.624998 116.386719,42.03125 C116.795575,42.437502 117.309893,42.640625 117.929688,42.640625 C118.799484,42.640625 119.50781,42.289066 120.054688,41.5859375 L121.078125,42.5625 C120.739582,43.0677109 120.287763,43.459634 119.722656,43.7382812 C119.157549,44.0169285 118.523441,44.15625 117.820312,44.15625 Z M117.59375,36.9140625 C117.072914,36.9140625 116.652345,37.0963523 116.332031,37.4609375 C116.011717,37.8255227 115.807292,38.3333301 115.71875,38.984375 L119.335938,38.984375 L119.335938,38.84375 C119.294271,38.2083302 119.125001,37.7278662 118.828125,37.4023438 C118.531249,37.0768213 118.119794,36.9140625 117.59375,36.9140625 Z" id="Article-Image" fill="#5D6B82"></path>
    </g>
</svg>