<?xml version="1.0" encoding="UTF-8"?>
<svg width="148px" height="80px" viewBox="0 0 148 80" version="1.1" xmlns="http://www.w3.org/2000/svg" xmlns:xlink="http://www.w3.org/1999/xlink">
    <!-- Generator: Sketch 50.2 (55047) - http://www.bohemiancoding.com/sketch -->
    <title>Article Category Copy</title>
    <desc>Created with Sketch.</desc>
    <defs></defs>
    <g id="Article-Category-Copy" stroke="none" stroke-width="1" fill="none" fill-rule="evenodd">
        <rect id="Rectangle-4" fill="#D1D5DB" x="0" y="0" width="148" height="80" rx="2"></rect>
        <rect id="Rectangle-3" fill="#FAFBFB" x="1" y="1" width="146" height="78" rx="1"></rect>
        <path d="M23.3828125,41.3515625 L18.9765625,41.3515625 L18.0546875,44 L16,44 L20.296875,32.625 L22.0703125,32.625 L26.375,44 L24.3125,44 L23.3828125,41.3515625 Z M19.53125,39.7578125 L22.828125,39.7578125 L21.1796875,35.0390625 L19.53125,39.7578125 Z M31.90625,37.28125 C31.6562487,37.2395831 31.3984388,37.21875 31.1328125,37.21875 C30.2630165,37.21875 29.6770848,37.55208 29.375,38.21875 L29.375,44 L27.4765625,44 L27.4765625,35.546875 L29.2890625,35.546875 L29.3359375,36.4921875 C29.7942731,35.7578088 30.4296834,35.390625 31.2421875,35.390625 C31.5130222,35.390625 31.7369783,35.427083 31.9140625,35.5 L31.90625,37.28125 Z M35.875,33.4921875 L35.875,35.546875 L37.3671875,35.546875 L37.3671875,36.953125 L35.875,36.953125 L35.875,41.671875 C35.875,41.9947933 35.9388014,42.2278639 36.0664062,42.3710938 C36.1940111,42.5143236 36.4218734,42.5859375 36.75,42.5859375 C36.9687511,42.5859375 37.190103,42.5598961 37.4140625,42.5078125 L37.4140625,43.9765625 C36.9817687,44.0963548 36.5651062,44.15625 36.1640625,44.15625 C34.7057219,44.15625 33.9765625,43.3515705 33.9765625,41.7421875 L33.9765625,36.953125 L32.5859375,36.953125 L32.5859375,35.546875 L33.9765625,35.546875 L33.9765625,33.4921875 L35.875,33.4921875 Z M40.8359375,44 L38.9375,44 L38.9375,35.546875 L40.8359375,35.546875 L40.8359375,44 Z M38.8203125,33.3515625 C38.8203125,33.0598944 38.9127595,32.8177093 39.0976562,32.625 C39.282553,32.4322907 39.5468733,32.3359375 39.890625,32.3359375 C40.2343767,32.3359375 40.4999991,32.4322907 40.6875,32.625 C40.8750009,32.8177093 40.96875,33.0598944 40.96875,33.3515625 C40.96875,33.6380223 40.8750009,33.8763011 40.6875,34.0664062 C40.4999991,34.2565114 40.2343767,34.3515625 39.890625,34.3515625 C39.5468733,34.3515625 39.282553,34.2565114 39.0976562,34.0664062 C38.9127595,33.8763011 38.8203125,33.6380223 38.8203125,33.3515625 Z M46.375,42.640625 C46.8489607,42.640625 47.2421859,42.5026055 47.5546875,42.2265625 C47.8671891,41.9505195 48.0338541,41.609377 48.0546875,41.203125 L49.84375,41.203125 C49.8229166,41.7291693 49.6588557,42.2200498 49.3515625,42.6757812 C49.0442693,43.1315127 48.6276068,43.4921862 48.1015625,43.7578125 C47.5755182,44.0234388 47.0078155,44.15625 46.3984375,44.15625 C45.2161399,44.15625 44.2786493,43.7734413 43.5859375,43.0078125 C42.8932257,42.2421837 42.546875,41.1849026 42.546875,39.8359375 L42.546875,39.640625 C42.546875,38.3541602 42.8906216,37.3242226 43.578125,36.5507812 C44.2656284,35.7773399 45.2031191,35.390625 46.390625,35.390625 C47.3958384,35.390625 48.2148406,35.6835908 48.8476562,36.2695312 C49.4804719,36.8554717 49.8124998,37.6249952 49.84375,38.578125 L48.0546875,38.578125 C48.0338541,38.0937476 47.8684911,37.6953141 47.5585938,37.3828125 C47.2486964,37.0703109 46.8541691,36.9140625 46.375,36.9140625 C45.7604136,36.9140625 45.28646,37.1367165 44.953125,37.5820312 C44.61979,38.027346 44.4505209,38.7031205 44.4453125,39.609375 L44.4453125,39.9140625 C44.4453125,40.8307338 44.6106754,41.5143207 44.9414062,41.9648438 C45.2721371,42.4153668 45.7499969,42.640625 46.375,42.640625 Z M53.296875,44 L51.3984375,44 L51.3984375,32 L53.296875,32 L53.296875,44 Z M59.0859375,44.15625 C57.8828065,44.15625 56.9075558,43.7773475 56.1601562,43.0195312 C55.4127567,42.261715 55.0390625,41.2526105 55.0390625,39.9921875 L55.0390625,39.7578125 C55.0390625,38.9140583 55.2018213,38.1601596 55.5273438,37.4960938 C55.8528662,36.8320279 56.3098929,36.315106 56.8984375,35.9453125 C57.4869821,35.575519 58.1432255,35.390625 58.8671875,35.390625 C60.0182349,35.390625 60.9075489,35.7578088 61.5351562,36.4921875 C62.1627636,37.2265662 62.4765625,38.2656183 62.4765625,39.609375 L62.4765625,40.375 L56.953125,40.375 C57.010417,41.0729202 57.2434875,41.624998 57.6523438,42.03125 C58.0612,42.437502 58.5755177,42.640625 59.1953125,42.640625 C60.0651085,42.640625 60.7734348,42.289066 61.3203125,41.5859375 L62.34375,42.5625 C62.0052066,43.0677109 61.5533882,43.459634 60.9882812,43.7382812 C60.4231743,44.0169285 59.789066,44.15625 59.0859375,44.15625 Z M58.859375,36.9140625 C58.3385391,36.9140625 57.9179704,37.0963523 57.5976562,37.4609375 C57.2773421,37.8255227 57.0729171,38.3333301 56.984375,38.984375 L60.6015625,38.984375 L60.6015625,38.84375 C60.5598956,38.2083302 60.3906265,37.7278662 60.09375,37.4023438 C59.7968735,37.0768213 59.3854193,36.9140625 58.859375,36.9140625 Z M76.796875,40.296875 C76.6822911,41.5104227 76.2343789,42.4570279 75.453125,43.1367188 C74.6718711,43.8164096 73.632819,44.15625 72.3359375,44.15625 C71.429683,44.15625 70.6315139,43.9414084 69.9414062,43.5117188 C69.2512986,43.0820291 68.7187519,42.4713581 68.34375,41.6796875 C67.9687481,40.8880169 67.7734376,39.9687552 67.7578125,38.921875 L67.7578125,37.859375 C67.7578125,36.786453 67.9479148,35.8411499 68.328125,35.0234375 C68.7083352,34.2057251 69.2539027,33.575523 69.9648438,33.1328125 C70.6757848,32.690102 71.4973912,32.46875 72.4296875,32.46875 C73.6849021,32.46875 74.6953087,32.8098924 75.4609375,33.4921875 C76.2265663,34.1744826 76.6718744,35.1380146 76.796875,36.3828125 L74.828125,36.3828125 C74.7343745,35.5651001 74.4960957,34.9752622 74.1132812,34.6132812 C73.7304668,34.2513003 73.1692745,34.0703125 72.4296875,34.0703125 C71.5703082,34.0703125 70.9101586,34.3841114 70.4492188,35.0117188 C69.9882789,35.6393261 69.7526042,36.5598898 69.7421875,37.7734375 L69.7421875,38.78125 C69.7421875,40.0104228 69.9622374,40.9479134 70.4023438,41.59375 C70.8424501,42.2395866 71.4869749,42.5625 72.3359375,42.5625 C73.111983,42.5625 73.6953105,42.3880226 74.0859375,42.0390625 C74.4765645,41.6901024 74.7239578,41.1093791 74.828125,40.296875 L76.796875,40.296875 Z M83.4296875,44 C83.3463537,43.8385409 83.2734378,43.5755227 83.2109375,43.2109375 C82.6067678,43.841149 81.8671919,44.15625 80.9921875,44.15625 C80.1432249,44.15625 79.4505235,43.9140649 78.9140625,43.4296875 C78.3776015,42.9453101 78.109375,42.3463577 78.109375,41.6328125 C78.109375,40.7317663 78.4440071,40.040367 79.1132812,39.5585938 C79.7825554,39.0768205 80.7395771,38.8359375 81.984375,38.8359375 L83.1484375,38.8359375 L83.1484375,38.28125 C83.1484375,37.8437478 83.0260429,37.4934909 82.78125,37.2304688 C82.5364571,36.9674466 82.164065,36.8359375 81.6640625,36.8359375 C81.2317687,36.8359375 80.8776055,36.9440093 80.6015625,37.1601562 C80.3255195,37.3763032 80.1875,37.65104 80.1875,37.984375 L78.2890625,37.984375 C78.2890625,37.520831 78.4427068,37.0872416 78.75,36.6835938 C79.0572932,36.2799459 79.4752578,35.9635428 80.0039062,35.734375 C80.5325547,35.5052072 81.1223926,35.390625 81.7734375,35.390625 C82.7630258,35.390625 83.5520804,35.6393204 84.140625,36.1367188 C84.7291696,36.6341171 85.0312499,37.3333288 85.046875,38.234375 L85.046875,42.046875 C85.046875,42.8072955 85.1536448,43.4140602 85.3671875,43.8671875 L85.3671875,44 L83.4296875,44 Z M81.34375,42.6328125 C81.7187519,42.6328125 82.0716129,42.5416676 82.4023438,42.359375 C82.7330746,42.1770824 82.98177,41.9322932 83.1484375,41.625 L83.1484375,40.03125 L82.125,40.03125 C81.4218715,40.03125 80.8932309,40.1536446 80.5390625,40.3984375 C80.1848941,40.6432304 80.0078125,40.9895811 80.0078125,41.4375 C80.0078125,41.8020852 80.128905,42.0924468 80.3710938,42.3085938 C80.6132825,42.5247407 80.937498,42.6328125 81.34375,42.6328125 Z M89.4140625,33.4921875 L89.4140625,35.546875 L90.90625,35.546875 L90.90625,36.953125 L89.4140625,36.953125 L89.4140625,41.671875 C89.4140625,41.9947933 89.4778639,42.2278639 89.6054688,42.3710938 C89.7330736,42.5143236 89.9609359,42.5859375 90.2890625,42.5859375 C90.5078136,42.5859375 90.7291655,42.5598961 90.953125,42.5078125 L90.953125,43.9765625 C90.5208312,44.0963548 90.1041687,44.15625 89.703125,44.15625 C88.2447844,44.15625 87.515625,43.3515705 87.515625,41.7421875 L87.515625,36.953125 L86.125,36.953125 L86.125,35.546875 L87.515625,35.546875 L87.515625,33.4921875 L89.4140625,33.4921875 Z M96.078125,44.15625 C94.874994,44.15625 93.8997433,43.7773475 93.1523438,43.0195312 C92.4049442,42.261715 92.03125,41.2526105 92.03125,39.9921875 L92.03125,39.7578125 C92.03125,38.9140583 92.1940088,38.1601596 92.5195312,37.4960938 C92.8450537,36.8320279 93.3020804,36.315106 93.890625,35.9453125 C94.4791696,35.575519 95.135413,35.390625 95.859375,35.390625 C97.0104224,35.390625 97.8997364,35.7578088 98.5273438,36.4921875 C99.1549511,37.2265662 99.46875,38.2656183 99.46875,39.609375 L99.46875,40.375 L93.9453125,40.375 C94.0026045,41.0729202 94.235675,41.624998 94.6445312,42.03125 C95.0533875,42.437502 95.5677052,42.640625 96.1875,42.640625 C97.057296,42.640625 97.7656223,42.289066 98.3125,41.5859375 L99.3359375,42.5625 C98.9973941,43.0677109 98.5455757,43.459634 97.9804688,43.7382812 C97.4153618,44.0169285 96.7812535,44.15625 96.078125,44.15625 Z M95.8515625,36.9140625 C95.3307266,36.9140625 94.9101579,37.0963523 94.5898438,37.4609375 C94.2695296,37.8255227 94.0651046,38.3333301 93.9765625,38.984375 L97.59375,38.984375 L97.59375,38.84375 C97.5520831,38.2083302 97.382814,37.7278662 97.0859375,37.4023438 C96.789061,37.0768213 96.3776068,36.9140625 95.8515625,36.9140625 Z M100.609375,39.7109375 C100.609375,38.3984309 100.917966,37.3502643 101.535156,36.5664062 C102.152347,35.7825482 102.971349,35.390625 103.992188,35.390625 C104.955734,35.390625 105.713539,35.7265591 106.265625,36.3984375 L106.351562,35.546875 L108.0625,35.546875 L108.0625,43.7421875 C108.0625,44.851568 107.717451,45.7265593 107.027344,46.3671875 C106.337236,47.0078157 105.406256,47.328125 104.234375,47.328125 C103.61458,47.328125 103.009118,47.19922 102.417969,46.9414062 C101.82682,46.6835925 101.377606,46.3463562 101.070312,45.9296875 L101.96875,44.7890625 C102.552086,45.4817743 103.270829,45.828125 104.125,45.828125 C104.755211,45.828125 105.252602,45.6575538 105.617188,45.3164062 C105.981773,44.9752587 106.164062,44.4739616 106.164062,43.8125 L106.164062,43.2421875 C105.617185,43.8515655 104.888025,44.15625 103.976562,44.15625 C102.986974,44.15625 102.178389,43.7630248 101.550781,42.9765625 C100.923174,42.1901002 100.609375,41.1015695 100.609375,39.7109375 Z M102.5,39.875 C102.5,40.7239626 102.673175,41.3919246 103.019531,41.8789062 C103.365887,42.3658879 103.846351,42.609375 104.460938,42.609375 C105.226566,42.609375 105.794269,42.2812533 106.164062,41.625 L106.164062,37.90625 C105.804686,37.2656218 105.242191,36.9453125 104.476562,36.9453125 C103.851559,36.9453125 103.365887,37.1927059 103.019531,37.6875 C102.673175,38.1822941 102.5,38.9114535 102.5,39.875 Z M109.65625,39.6953125 C109.65625,38.8671834 109.820311,38.1210971 110.148438,37.4570312 C110.476564,36.7929654 110.937497,36.2825539 111.53125,35.9257812 C112.125003,35.5690086 112.807288,35.390625 113.578125,35.390625 C114.718756,35.390625 115.644528,35.7578088 116.355469,36.4921875 C117.06641,37.2265662 117.450521,38.2005148 117.507812,39.4140625 L117.515625,39.859375 C117.515625,40.6927125 117.35547,41.4374967 117.035156,42.09375 C116.714842,42.7500033 116.256513,43.2578107 115.660156,43.6171875 C115.063799,43.9765643 114.375004,44.15625 113.59375,44.15625 C112.401036,44.15625 111.446618,43.7591186 110.730469,42.9648438 C110.014319,42.1705689 109.65625,41.1119858 109.65625,39.7890625 L109.65625,39.6953125 Z M111.554688,39.859375 C111.554688,40.729171 111.734373,41.4101538 112.09375,41.9023438 C112.453127,42.3945337 112.953122,42.640625 113.59375,42.640625 C114.234378,42.640625 114.733071,42.3906275 115.089844,41.890625 C115.446616,41.3906225 115.625,40.658859 115.625,39.6953125 C115.625,38.8411416 115.441408,38.164065 115.074219,37.6640625 C114.707029,37.16406 114.208336,36.9140625 113.578125,36.9140625 C112.95833,36.9140625 112.466148,37.1601538 112.101562,37.6523438 C111.736977,38.1445337 111.554688,38.8802034 111.554688,39.859375 Z M123.546875,37.28125 C123.296874,37.2395831 123.039064,37.21875 122.773438,37.21875 C121.903641,37.21875 121.31771,37.55208 121.015625,38.21875 L121.015625,44 L119.117188,44 L119.117188,35.546875 L120.929688,35.546875 L120.976562,36.4921875 C121.434898,35.7578088 122.070308,35.390625 122.882812,35.390625 C123.153647,35.390625 123.377603,35.427083 123.554688,35.5 L123.546875,37.28125 Z M127.84375,41.28125 L129.5625,35.546875 L131.585938,35.546875 L128.226562,45.28125 C127.710935,46.7031321 126.835944,47.4140625 125.601562,47.4140625 C125.325519,47.4140625 125.020835,47.367188 124.6875,47.2734375 L124.6875,45.8046875 L125.046875,45.828125 C125.526044,45.828125 125.886718,45.7408863 126.128906,45.5664062 C126.371095,45.3919262 126.562499,45.0989604 126.703125,44.6875 L126.976562,43.9609375 L124.007812,35.546875 L126.054688,35.546875 L127.84375,41.28125 Z" id="Article-Category" fill="#5D6B82"></path>
    </g>
</svg>