<?xml version="1.0" encoding="UTF-8"?>
<svg width="148px" height="80px" viewBox="0 0 148 80" version="1.1" xmlns="http://www.w3.org/2000/svg" xmlns:xlink="http://www.w3.org/1999/xlink">
    <!-- Generator: Sketch 50.2 (55047) - http://www.bohemiancoding.com/sketch -->
    <title>EasyBlog Category Copy</title>
    <desc>Created with Sketch.</desc>
    <defs></defs>
    <g id="EasyBlog-Category-Copy" stroke="none" stroke-width="1" fill="none" fill-rule="evenodd">
        <rect id="Rectangle-4" fill="#D1D5DB" x="0" y="0" width="148" height="80" rx="2"></rect>
        <rect id="Rectangle-3" fill="#FAFBFB" x="1" y="1" width="146" height="78" rx="1"></rect>
        <path d="M48.6484375,26.921875 L43.9765625,26.921875 L43.9765625,30.421875 L49.4375,30.421875 L49.4375,32 L42,32 L42,20.625 L49.3828125,20.625 L49.3828125,22.21875 L43.9765625,22.21875 L43.9765625,25.359375 L48.6484375,25.359375 L48.6484375,26.921875 Z M55.9140625,32 C55.8307287,31.8385409 55.7578128,31.5755227 55.6953125,31.2109375 C55.0911428,31.841149 54.3515669,32.15625 53.4765625,32.15625 C52.6275999,32.15625 51.9348985,31.9140649 51.3984375,31.4296875 C50.8619765,30.9453101 50.59375,30.3463577 50.59375,29.6328125 C50.59375,28.7317663 50.9283821,28.040367 51.5976562,27.5585938 C52.2669304,27.0768205 53.2239521,26.8359375 54.46875,26.8359375 L55.6328125,26.8359375 L55.6328125,26.28125 C55.6328125,25.8437478 55.5104179,25.4934909 55.265625,25.2304688 C55.0208321,24.9674466 54.64844,24.8359375 54.1484375,24.8359375 C53.7161437,24.8359375 53.3619805,24.9440093 53.0859375,25.1601562 C52.8098945,25.3763032 52.671875,25.65104 52.671875,25.984375 L50.7734375,25.984375 C50.7734375,25.520831 50.9270818,25.0872416 51.234375,24.6835938 C51.5416682,24.2799459 51.9596328,23.9635428 52.4882812,23.734375 C53.0169297,23.5052072 53.6067676,23.390625 54.2578125,23.390625 C55.2474008,23.390625 56.0364554,23.6393204 56.625,24.1367188 C57.2135446,24.6341171 57.5156249,25.3333288 57.53125,26.234375 L57.53125,30.046875 C57.53125,30.8072955 57.6380198,31.4140602 57.8515625,31.8671875 L57.8515625,32 L55.9140625,32 Z M53.828125,30.6328125 C54.2031269,30.6328125 54.5559879,30.5416676 54.8867188,30.359375 C55.2174496,30.1770824 55.466145,29.9322932 55.6328125,29.625 L55.6328125,28.03125 L54.609375,28.03125 C53.9062465,28.03125 53.3776059,28.1536446 53.0234375,28.3984375 C52.6692691,28.6432304 52.4921875,28.9895811 52.4921875,29.4375 C52.4921875,29.8020852 52.61328,30.0924468 52.8554688,30.3085938 C53.0976575,30.5247407 53.421873,30.6328125 53.828125,30.6328125 Z M64.2578125,29.703125 C64.2578125,29.3645816 64.118491,29.1067717 63.8398438,28.9296875 C63.5611965,28.7526033 63.0989616,28.5963548 62.453125,28.4609375 C61.8072884,28.3255202 61.2682313,28.1536469 60.8359375,27.9453125 C59.8880161,27.4869769 59.4140625,26.822921 59.4140625,25.953125 C59.4140625,25.2239547 59.7213511,24.6145858 60.3359375,24.125 C60.9505239,23.6354142 61.7317661,23.390625 62.6796875,23.390625 C63.6901092,23.390625 64.5065073,23.6406225 65.1289062,24.140625 C65.7513052,24.6406275 66.0625,25.2890585 66.0625,26.0859375 L64.1640625,26.0859375 C64.1640625,25.7213523 64.0286472,25.41797 63.7578125,25.1757812 C63.4869778,24.9335925 63.1276064,24.8125 62.6796875,24.8125 C62.2630188,24.8125 61.9231784,24.9088532 61.6601562,25.1015625 C61.3971341,25.2942718 61.265625,25.5520817 61.265625,25.875 C61.265625,26.1666681 61.3880196,26.3932284 61.6328125,26.5546875 C61.8776054,26.7161466 62.3723921,26.8789054 63.1171875,27.0429688 C63.8619829,27.2070321 64.4466125,27.4023426 64.8710938,27.6289062 C65.295575,27.8554699 65.6106761,28.1276026 65.8164062,28.4453125 C66.0221364,28.7630224 66.125,29.1484352 66.125,29.6015625 C66.125,30.361983 65.809899,30.9778622 65.1796875,31.4492188 C64.549476,31.9205753 63.7239634,32.15625 62.703125,32.15625 C62.0104132,32.15625 61.3932319,32.0312512 60.8515625,31.78125 C60.3098931,31.5312488 59.8880223,31.1875022 59.5859375,30.75 C59.2838527,30.3124978 59.1328125,29.8411484 59.1328125,29.3359375 L60.9765625,29.3359375 C61.0026043,29.7838564 61.1718734,30.128905 61.484375,30.3710938 C61.7968766,30.6132825 62.2109349,30.734375 62.7265625,30.734375 C63.226565,30.734375 63.6067695,30.6393239 63.8671875,30.4492188 C64.1276055,30.2591136 64.2578125,30.0104182 64.2578125,29.703125 Z M70.734375,29.28125 L72.453125,23.546875 L74.4765625,23.546875 L71.1171875,33.28125 C70.6015599,34.7031321 69.7265687,35.4140625 68.4921875,35.4140625 C68.2161445,35.4140625 67.91146,35.367188 67.578125,35.2734375 L67.578125,33.8046875 L67.9375,33.828125 C68.4166691,33.828125 68.7773425,33.7408863 69.0195312,33.5664062 C69.26172,33.3919262 69.4531243,33.0989604 69.59375,32.6875 L69.8671875,31.9609375 L66.8984375,23.546875 L68.9453125,23.546875 L70.734375,29.28125 Z M75.75,32 L75.75,20.625 L79.6484375,20.625 C80.9349023,20.625 81.9140591,20.8828099 82.5859375,21.3984375 C83.2578159,21.9140651 83.59375,22.6822866 83.59375,23.703125 C83.59375,24.2239609 83.4531264,24.6927063 83.171875,25.109375 C82.8906236,25.5260437 82.4791694,25.8489572 81.9375,26.078125 C82.5520864,26.2447925 83.0273421,26.5585914 83.3632812,27.0195312 C83.6992204,27.4804711 83.8671875,28.0338509 83.8671875,28.6796875 C83.8671875,29.7474012 83.524743,30.5677055 82.8398438,31.140625 C82.1549445,31.7135445 81.1744855,32 79.8984375,32 L75.75,32 Z M77.7265625,26.8671875 L77.7265625,30.421875 L79.921875,30.421875 C80.5416698,30.421875 81.0260399,30.2682307 81.375,29.9609375 C81.7239601,29.6536443 81.8984375,29.2265652 81.8984375,28.6796875 C81.8984375,27.4973899 81.2942769,26.8932293 80.0859375,26.8671875 L77.7265625,26.8671875 Z M77.7265625,25.4140625 L79.6640625,25.4140625 C80.2786489,25.4140625 80.7591129,25.274741 81.1054688,24.9960938 C81.4518246,24.7174465 81.625,24.3229192 81.625,23.8125 C81.625,23.2499972 81.4648454,22.8437512 81.1445312,22.59375 C80.8242171,22.3437488 80.3255242,22.21875 79.6484375,22.21875 L77.7265625,22.21875 L77.7265625,25.4140625 Z M87.6796875,32 L85.78125,32 L85.78125,20 L87.6796875,20 L87.6796875,32 Z M89.390625,27.6953125 C89.390625,26.8671834 89.5546859,26.1210971 89.8828125,25.4570312 C90.2109391,24.7929654 90.671872,24.2825539 91.265625,23.9257812 C91.859378,23.5690086 92.5416628,23.390625 93.3125,23.390625 C94.4531307,23.390625 95.3789027,23.7578088 96.0898438,24.4921875 C96.8007848,25.2265662 97.1848955,26.2005148 97.2421875,27.4140625 L97.25,27.859375 C97.25,28.6927125 97.0898454,29.4374967 96.7695312,30.09375 C96.4492171,30.7500033 95.9908884,31.2578107 95.3945312,31.6171875 C94.7981741,31.9765643 94.1093789,32.15625 93.328125,32.15625 C92.1354107,32.15625 91.1809932,31.7591186 90.4648438,30.9648438 C89.7486943,30.1705689 89.390625,29.1119858 89.390625,27.7890625 L89.390625,27.6953125 Z M91.2890625,27.859375 C91.2890625,28.729171 91.4687482,29.4101538 91.828125,29.9023438 C92.1875018,30.3945337 92.6874968,30.640625 93.328125,30.640625 C93.9687532,30.640625 94.4674461,30.3906275 94.8242188,29.890625 C95.1809914,29.3906225 95.359375,28.658859 95.359375,27.6953125 C95.359375,26.8411416 95.1757831,26.164065 94.8085938,25.6640625 C94.4414044,25.16406 93.9427115,24.9140625 93.3125,24.9140625 C92.6927052,24.9140625 92.2005227,25.1601538 91.8359375,25.6523438 C91.4713523,26.1445337 91.2890625,26.8802034 91.2890625,27.859375 Z M98.5234375,27.7109375 C98.5234375,26.3984309 98.8320282,25.3502643 99.4492188,24.5664062 C100.066409,23.7825482 100.885412,23.390625 101.90625,23.390625 C102.869796,23.390625 103.627601,23.7265591 104.179688,24.3984375 L104.265625,23.546875 L105.976562,23.546875 L105.976562,31.7421875 C105.976562,32.851568 105.631514,33.7265593 104.941406,34.3671875 C104.251299,35.0078157 103.320318,35.328125 102.148438,35.328125 C101.528643,35.328125 100.92318,35.19922 100.332031,34.9414062 C99.7408825,34.6835925 99.2916682,34.3463562 98.984375,33.9296875 L99.8828125,32.7890625 C100.466149,33.4817743 101.184892,33.828125 102.039062,33.828125 C102.669274,33.828125 103.166665,33.6575538 103.53125,33.3164062 C103.895835,32.9752587 104.078125,32.4739616 104.078125,31.8125 L104.078125,31.2421875 C103.531247,31.8515655 102.802088,32.15625 101.890625,32.15625 C100.901037,32.15625 100.092451,31.7630248 99.4648438,30.9765625 C98.8372364,30.1901002 98.5234375,29.1015695 98.5234375,27.7109375 Z M100.414062,27.875 C100.414062,28.7239626 100.587238,29.3919246 100.933594,29.8789062 C101.27995,30.3658879 101.760414,30.609375 102.375,30.609375 C103.140629,30.609375 103.708331,30.2812533 104.078125,29.625 L104.078125,25.90625 C103.718748,25.2656218 103.156254,24.9453125 102.390625,24.9453125 C101.765622,24.9453125 101.27995,25.1927059 100.933594,25.6875 C100.587238,26.1822941 100.414062,26.9114535 100.414062,27.875 Z M51.3632812,52.296875 C51.2486973,53.5104227 50.8007852,54.4570279 50.0195312,55.1367188 C49.2382773,55.8164096 48.1992252,56.15625 46.9023438,56.15625 C45.9960892,56.15625 45.1979201,55.9414084 44.5078125,55.5117188 C43.8177049,55.0820291 43.2851581,54.4713581 42.9101562,53.6796875 C42.5351544,52.8880169 42.3398438,51.9687552 42.3242188,50.921875 L42.3242188,49.859375 C42.3242188,48.786453 42.514321,47.8411499 42.8945312,47.0234375 C43.2747415,46.2057251 43.8203089,45.575523 44.53125,45.1328125 C45.2421911,44.690102 46.0637974,44.46875 46.9960938,44.46875 C48.2513084,44.46875 49.2617149,44.8098924 50.0273438,45.4921875 C50.7929726,46.1744826 51.2382806,47.1380146 51.3632812,48.3828125 L49.3945312,48.3828125 C49.3007808,47.5651001 49.0625019,46.9752622 48.6796875,46.6132812 C48.2968731,46.2513003 47.7356808,46.0703125 46.9960938,46.0703125 C46.1367145,46.0703125 45.4765648,46.3841114 45.015625,47.0117188 C44.5546852,47.6393261 44.3190105,48.5598898 44.3085938,49.7734375 L44.3085938,50.78125 C44.3085938,52.0104228 44.5286436,52.9479134 44.96875,53.59375 C45.4088564,54.2395866 46.0533812,54.5625 46.9023438,54.5625 C47.6783893,54.5625 48.2617168,54.3880226 48.6523438,54.0390625 C49.0429707,53.6901024 49.2903641,53.1093791 49.3945312,52.296875 L51.3632812,52.296875 Z M57.9960938,56 C57.91276,55.8385409 57.8398441,55.5755227 57.7773438,55.2109375 C57.1731741,55.841149 56.4335981,56.15625 55.5585938,56.15625 C54.7096312,56.15625 54.0169298,55.9140649 53.4804688,55.4296875 C52.9440077,54.9453101 52.6757812,54.3463577 52.6757812,53.6328125 C52.6757812,52.7317663 53.0104133,52.040367 53.6796875,51.5585938 C54.3489617,51.0768205 55.3059834,50.8359375 56.5507812,50.8359375 L57.7148438,50.8359375 L57.7148438,50.28125 C57.7148438,49.8437478 57.5924491,49.4934909 57.3476562,49.2304688 C57.1028634,48.9674466 56.7304713,48.8359375 56.2304688,48.8359375 C55.7981749,48.8359375 55.4440118,48.9440093 55.1679688,49.1601562 C54.8919257,49.3763032 54.7539062,49.65104 54.7539062,49.984375 L52.8554688,49.984375 C52.8554688,49.520831 53.009113,49.0872416 53.3164062,48.6835938 C53.6236995,48.2799459 54.041664,47.9635428 54.5703125,47.734375 C55.098961,47.5052072 55.6887988,47.390625 56.3398438,47.390625 C57.329432,47.390625 58.1184866,47.6393204 58.7070312,48.1367188 C59.2955759,48.6341171 59.5976562,49.3333288 59.6132812,50.234375 L59.6132812,54.046875 C59.6132812,54.8072955 59.720051,55.4140602 59.9335938,55.8671875 L59.9335938,56 L57.9960938,56 Z M55.9101562,54.6328125 C56.2851581,54.6328125 56.6380192,54.5416676 56.96875,54.359375 C57.2994808,54.1770824 57.5481762,53.9322932 57.7148438,53.625 L57.7148438,52.03125 L56.6914062,52.03125 C55.9882777,52.03125 55.4596372,52.1536446 55.1054688,52.3984375 C54.7513003,52.6432304 54.5742188,52.9895811 54.5742188,53.4375 C54.5742188,53.8020852 54.6953113,54.0924468 54.9375,54.3085938 C55.1796887,54.5247407 55.5039042,54.6328125 55.9101562,54.6328125 Z M63.9804688,45.4921875 L63.9804688,47.546875 L65.4726562,47.546875 L65.4726562,48.953125 L63.9804688,48.953125 L63.9804688,53.671875 C63.9804688,53.9947933 64.0442702,54.2278639 64.171875,54.3710938 C64.2994798,54.5143236 64.5273421,54.5859375 64.8554688,54.5859375 C65.0742198,54.5859375 65.2955718,54.5598961 65.5195312,54.5078125 L65.5195312,55.9765625 C65.0872374,56.0963548 64.6705749,56.15625 64.2695312,56.15625 C62.8111906,56.15625 62.0820312,55.3515705 62.0820312,53.7421875 L62.0820312,48.953125 L60.6914062,48.953125 L60.6914062,47.546875 L62.0820312,47.546875 L62.0820312,45.4921875 L63.9804688,45.4921875 Z M70.6445312,56.15625 C69.4414002,56.15625 68.4661496,55.7773475 67.71875,55.0195312 C66.9713504,54.261715 66.5976562,53.2526105 66.5976562,51.9921875 L66.5976562,51.7578125 C66.5976562,50.9140583 66.760415,50.1601596 67.0859375,49.4960938 C67.41146,48.8320279 67.8684866,48.315106 68.4570312,47.9453125 C69.0455759,47.575519 69.7018193,47.390625 70.4257812,47.390625 C71.5768287,47.390625 72.4661427,47.7578088 73.09375,48.4921875 C73.7213573,49.2265662 74.0351562,50.2656183 74.0351562,51.609375 L74.0351562,52.375 L68.5117188,52.375 C68.5690107,53.0729202 68.8020813,53.624998 69.2109375,54.03125 C69.6197937,54.437502 70.1341115,54.640625 70.7539062,54.640625 C71.6237023,54.640625 72.3320285,54.289066 72.8789062,53.5859375 L73.9023438,54.5625 C73.5638004,55.0677109 73.111982,55.459634 72.546875,55.7382812 C71.981768,56.0169285 71.3476598,56.15625 70.6445312,56.15625 Z M70.4179688,48.9140625 C69.8971328,48.9140625 69.4765641,49.0963523 69.15625,49.4609375 C68.8359359,49.8255227 68.6315109,50.3333301 68.5429688,50.984375 L72.1601562,50.984375 L72.1601562,50.84375 C72.1184894,50.2083302 71.9492202,49.7278662 71.6523438,49.4023438 C71.3554673,49.0768213 70.944013,48.9140625 70.4179688,48.9140625 Z M75.1757812,51.7109375 C75.1757812,50.3984309 75.4843719,49.3502643 76.1015625,48.5664062 C76.7187531,47.7825482 77.5377553,47.390625 78.5585938,47.390625 C79.5221402,47.390625 80.2799452,47.7265591 80.8320312,48.3984375 L80.9179688,47.546875 L82.6289062,47.546875 L82.6289062,55.7421875 C82.6289062,56.851568 82.2838576,57.7265593 81.59375,58.3671875 C80.9036424,59.0078157 79.9726621,59.328125 78.8007812,59.328125 C78.1809865,59.328125 77.5755238,59.19922 76.984375,58.9414062 C76.3932262,58.6835925 75.944012,58.3463562 75.6367188,57.9296875 L76.5351562,56.7890625 C77.1184925,57.4817743 77.8372353,57.828125 78.6914062,57.828125 C79.3216177,57.828125 79.8190086,57.6575538 80.1835938,57.3164062 C80.5481789,56.9752587 80.7304688,56.4739616 80.7304688,55.8125 L80.7304688,55.2421875 C80.183591,55.8515655 79.4544316,56.15625 78.5429688,56.15625 C77.5533805,56.15625 76.7447948,55.7630248 76.1171875,54.9765625 C75.4895802,54.1901002 75.1757812,53.1015695 75.1757812,51.7109375 Z M77.0664062,51.875 C77.0664062,52.7239626 77.2395816,53.3919246 77.5859375,53.8789062 C77.9322934,54.3658879 78.4127573,54.609375 79.0273438,54.609375 C79.7929726,54.609375 80.3606752,54.2812533 80.7304688,53.625 L80.7304688,49.90625 C80.371092,49.2656218 79.8085976,48.9453125 79.0429688,48.9453125 C78.4179656,48.9453125 77.9322934,49.1927059 77.5859375,49.6875 C77.2395816,50.1822941 77.0664062,50.9114535 77.0664062,51.875 Z M84.2226562,51.6953125 C84.2226562,50.8671834 84.3867171,50.1210971 84.7148438,49.4570312 C85.0429704,48.7929654 85.5039033,48.2825539 86.0976562,47.9257812 C86.6914092,47.5690086 87.3736941,47.390625 88.1445312,47.390625 C89.285162,47.390625 90.2109339,47.7578088 90.921875,48.4921875 C91.6328161,49.2265662 92.0169268,50.2005148 92.0742188,51.4140625 L92.0820312,51.859375 C92.0820312,52.6927125 91.9218766,53.4374967 91.6015625,54.09375 C91.2812484,54.7500033 90.8229196,55.2578107 90.2265625,55.6171875 C89.6302054,55.9765643 88.9414102,56.15625 88.1601562,56.15625 C86.967442,56.15625 86.0130244,55.7591186 85.296875,54.9648438 C84.5807256,54.1705689 84.2226562,53.1119858 84.2226562,51.7890625 L84.2226562,51.6953125 Z M86.1210938,51.859375 C86.1210938,52.729171 86.3007795,53.4101538 86.6601562,53.9023438 C87.019533,54.3945337 87.519528,54.640625 88.1601562,54.640625 C88.8007845,54.640625 89.2994774,54.3906275 89.65625,53.890625 C90.0130226,53.3906225 90.1914062,52.658859 90.1914062,51.6953125 C90.1914062,50.8411416 90.0078143,50.164065 89.640625,49.6640625 C89.2734357,49.16406 88.7747427,48.9140625 88.1445312,48.9140625 C87.5247365,48.9140625 87.0325539,49.1601538 86.6679688,49.6523438 C86.3033836,50.1445337 86.1210938,50.8802034 86.1210938,51.859375 Z M98.1132812,49.28125 C97.86328,49.2395831 97.6054701,49.21875 97.3398438,49.21875 C96.4700477,49.21875 95.8841161,49.55208 95.5820312,50.21875 L95.5820312,56 L93.6835938,56 L93.6835938,47.546875 L95.4960938,47.546875 L95.5429688,48.4921875 C96.0013044,47.7578088 96.6367147,47.390625 97.4492188,47.390625 C97.7200534,47.390625 97.9440095,47.427083 98.1210938,47.5 L98.1132812,49.28125 Z M102.410156,53.28125 L104.128906,47.546875 L106.152344,47.546875 L102.792969,57.28125 C102.277341,58.7031321 101.40235,59.4140625 100.167969,59.4140625 C99.8919257,59.4140625 99.5872413,59.367188 99.2539062,59.2734375 L99.2539062,57.8046875 L99.6132812,57.828125 C100.09245,57.828125 100.453124,57.7408863 100.695312,57.5664062 C100.937501,57.3919262 101.128906,57.0989604 101.269531,56.6875 L101.542969,55.9609375 L98.5742188,47.546875 L100.621094,47.546875 L102.410156,53.28125 Z" id="EasyBlog-Category" fill="#5D6B82"></path>
    </g>
</svg>