<svg width="148" height="80" viewBox="0 0 148 80" fill="none" xmlns="http://www.w3.org/2000/svg">
<rect width="148" height="80" rx="2" fill="#D1D5DB"/>
<rect x="1" y="1" width="146" height="78" rx="1" fill="#FAFBFB"/>
<path fill-rule="evenodd" clip-rule="evenodd" d="M54.8598 20H112C113.105 20 114 20.8954 114 22V58C114 59.1046 113.105 60 112 60H54.7959C54.2849 60 53.7932 59.8044 53.4219 59.4533L35.4556 42.467C34.6521 41.7073 34.6175 40.4398 35.3783 39.6375L53.4086 20.6238C53.7862 20.2256 54.311 20 54.8598 20ZM79.3243 41.9062C79.7462 42.3359 79.9571 42.8828 79.9571 43.5469C79.9571 44.2578 79.7228 44.8281 79.254 45.2578C78.7931 45.6875 78.1173 45.9023 77.2267 45.9023C76.3204 45.9023 75.6173 45.6328 75.1173 45.0938C74.6251 44.5547 74.379 43.793 74.379 42.8086H71.5314C71.5314 44.3555 71.9454 45.5977 72.7736 46.5352C73.6095 47.4727 74.8009 48.0273 76.3478 48.1992V50.4727H78.2111V48.1875C79.6564 48.0391 80.7814 47.5547 81.5861 46.7344C82.3986 45.9141 82.8048 44.8438 82.8048 43.5234C82.8048 42.8203 82.6993 42.207 82.4884 41.6836C82.2775 41.1602 81.9767 40.6992 81.5861 40.3008C81.1954 39.8945 80.715 39.5352 80.1446 39.2227C79.5743 38.9102 78.7892 38.5703 77.7892 38.2031C76.7892 37.8359 76.0782 37.4492 75.6564 37.043C75.2423 36.6289 75.0353 36.082 75.0353 35.4023C75.0353 34.6445 75.2462 34.0625 75.6681 33.6562C76.09 33.25 76.6759 33.0469 77.4259 33.0469C78.1837 33.0469 78.7814 33.332 79.2189 33.9023C79.6642 34.4648 79.8868 35.2383 79.8868 36.2227H82.7228C82.7228 34.6914 82.3517 33.4492 81.6095 32.4961C80.8673 31.5352 79.8165 30.957 78.4571 30.7617V28.1836H76.5821V30.7383C75.2306 30.8945 74.1603 31.3906 73.3712 32.2266C72.5821 33.0625 72.1876 34.1289 72.1876 35.4258C72.1876 37.3398 73.0978 38.7852 74.9181 39.7617C75.465 40.0586 76.2306 40.3828 77.215 40.7344C78.1993 41.0781 78.9025 41.4688 79.3243 41.9062ZM92.965 41.9062C93.3868 42.3359 93.5978 42.8828 93.5978 43.5469C93.5978 44.2578 93.3634 44.8281 92.8946 45.2578C92.4337 45.6875 91.7579 45.9023 90.8673 45.9023C89.9611 45.9023 89.2579 45.6328 88.7579 45.0938C88.2657 44.5547 88.0196 43.793 88.0196 42.8086H85.172C85.172 44.3555 85.5861 45.5977 86.4142 46.5352C87.2501 47.4727 88.4415 48.0273 89.9884 48.1992V50.4727H91.8517V48.1875C93.297 48.0391 94.422 47.5547 95.2267 46.7344C96.0392 45.9141 96.4454 44.8438 96.4454 43.5234C96.4454 42.8203 96.34 42.207 96.129 41.6836C95.9181 41.1602 95.6173 40.6992 95.2267 40.3008C94.8361 39.8945 94.3556 39.5352 93.7853 39.2227C93.215 38.9102 92.4298 38.5703 91.4298 38.2031C90.4298 37.8359 89.7189 37.4492 89.297 37.043C88.8829 36.6289 88.6759 36.082 88.6759 35.4023C88.6759 34.6445 88.8868 34.0625 89.3087 33.6562C89.7306 33.25 90.3165 33.0469 91.0665 33.0469C91.8243 33.0469 92.422 33.332 92.8595 33.9023C93.3048 34.4648 93.5275 35.2383 93.5275 36.2227H96.3634C96.3634 34.6914 95.9923 33.4492 95.2501 32.4961C94.5079 31.5352 93.4571 30.957 92.0978 30.7617V28.1836H90.2228V30.7383C88.8712 30.8945 87.8009 31.3906 87.0118 32.2266C86.2228 33.0625 85.8282 34.1289 85.8282 35.4258C85.8282 37.3398 86.7384 38.7852 88.5587 39.7617C89.1056 40.0586 89.8712 40.3828 90.8556 40.7344C91.84 41.0781 92.5431 41.4688 92.965 41.9062Z" fill="#5D6B82"/>
</svg>
