<svg width="148" height="80" viewBox="0 0 148 80" fill="none" xmlns="http://www.w3.org/2000/svg">
<rect width="148" height="80" rx="2" fill="#D1D5DB"/>
<rect x="1" y="1" width="146" height="78" rx="1" fill="#FAFBFB"/>
<path fill-rule="evenodd" clip-rule="evenodd" d="M54.8598 20H112C113.105 20 114 20.8954 114 22V58C114 59.1046 113.105 60 112 60H54.7959C54.2849 60 53.7932 59.8044 53.4219 59.4533L35.4556 42.467C34.6521 41.7073 34.6175 40.4398 35.3783 39.6375L53.4086 20.6238C53.7862 20.2256 54.311 20 54.8598 20ZM73.1368 43.5469C73.1368 42.8828 72.9259 42.3359 72.504 41.9062C72.1872 41.5777 71.7119 41.2757 71.0779 41H61.0001V39H66.9704C65.9017 38.0838 65.3673 36.8924 65.3673 35.4258C65.3673 34.1289 65.7618 33.0625 66.5509 32.2266C67.34 31.3906 68.4103 30.8945 69.7618 30.7383V28.1836H71.6368V30.7617C72.9962 30.957 74.047 31.5352 74.7892 32.4961C75.5314 33.4492 75.9025 34.6914 75.9025 36.2227H73.0665C73.0665 35.2383 72.8439 34.4648 72.3986 33.9023C71.9611 33.332 71.3634 33.0469 70.6056 33.0469C69.8556 33.0469 69.2696 33.25 68.8478 33.6562C68.4259 34.0625 68.215 34.6445 68.215 35.4023C68.215 36.082 68.422 36.6289 68.8361 37.043C69.2579 37.4492 69.9689 37.8359 70.9689 38.2031C71.7361 38.4848 72.3769 38.7505 72.8912 39H80.611C79.5423 38.0838 79.0079 36.8924 79.0079 35.4258C79.0079 34.1289 79.4025 33.0625 80.1915 32.2266C80.9806 31.3906 82.0509 30.8945 83.4025 30.7383V28.1836H85.2775V30.7617C86.6368 30.957 87.6876 31.5352 88.4298 32.4961C89.172 33.4492 89.5431 34.6914 89.5431 36.2227H86.7071C86.7071 35.2383 86.4845 34.4648 86.0392 33.9023C85.6017 33.332 85.004 33.0469 84.2462 33.0469C83.4962 33.0469 82.9103 33.25 82.4884 33.6562C82.0665 34.0625 81.8556 34.6445 81.8556 35.4023C81.8556 36.082 82.0626 36.6289 82.4767 37.043C82.8986 37.4492 83.6095 37.8359 84.6095 38.2031C85.3767 38.4848 86.0175 38.7505 86.5318 39H94.2516C93.1829 38.0838 92.6486 36.8924 92.6486 35.4258C92.6486 34.1289 93.0431 33.0625 93.8321 32.2266C94.6212 31.3906 95.6915 30.8945 97.0431 30.7383V28.1836H98.9181V30.7617C100.277 30.957 101.328 31.5352 102.07 32.4961C102.813 33.4492 103.184 34.6914 103.184 36.2227H100.348C100.348 35.2383 100.125 34.4648 99.6798 33.9023C99.2423 33.332 98.6446 33.0469 97.8868 33.0469C97.1368 33.0469 96.5509 33.25 96.129 33.6562C95.7071 34.0625 95.4962 34.6445 95.4962 35.4023C95.4962 36.082 95.7032 36.6289 96.1173 37.043C96.5392 37.4492 97.2501 37.8359 98.2501 38.2031C99.0174 38.4848 99.6581 38.7505 100.172 39H109V41H102.601C102.736 41.2146 102.852 41.4425 102.949 41.6836C103.16 42.207 103.266 42.8203 103.266 43.5234C103.266 44.8438 102.859 45.9141 102.047 46.7344C101.242 47.5547 100.117 48.0391 98.672 48.1875V50.4727H96.8087V48.1992C95.2618 48.0273 94.0704 47.4727 93.2345 46.5352C92.4064 45.5977 91.9923 44.3555 91.9923 42.8086H94.84C94.84 43.793 95.0861 44.5547 95.5782 45.0938C96.0782 45.6328 96.7814 45.9023 97.6876 45.9023C98.5782 45.9023 99.254 45.6875 99.715 45.2578C100.184 44.8281 100.418 44.2578 100.418 43.5469C100.418 42.8828 100.207 42.3359 99.7853 41.9062C99.4685 41.5777 98.9931 41.2757 98.3592 41H88.96C89.0953 41.2146 89.2115 41.4425 89.3087 41.6836C89.5196 42.207 89.6251 42.8203 89.6251 43.5234C89.6251 44.8438 89.2189 45.9141 88.4064 46.7344C87.6017 47.5547 86.4767 48.0391 85.0314 48.1875V50.4727H83.1681V48.1992C81.6212 48.0273 80.4298 47.4727 79.5939 46.5352C78.7657 45.5977 78.3517 44.3555 78.3517 42.8086H81.1993C81.1993 43.793 81.4454 44.5547 81.9376 45.0938C82.4376 45.6328 83.1407 45.9023 84.047 45.9023C84.9376 45.9023 85.6134 45.6875 86.0743 45.2578C86.5431 44.8281 86.7775 44.2578 86.7775 43.5469C86.7775 42.8828 86.5665 42.3359 86.1446 41.9062C85.8279 41.5777 85.3525 41.2757 84.7186 41H75.3194C75.4547 41.2146 75.5709 41.4425 75.6681 41.6836C75.879 42.207 75.9845 42.8203 75.9845 43.5234C75.9845 44.8438 75.5782 45.9141 74.7657 46.7344C73.9611 47.5547 72.8361 48.0391 71.3907 48.1875V50.4727H69.5275V48.1992C67.9806 48.0273 66.7892 47.4727 65.9532 46.5352C65.1251 45.5977 64.7111 44.3555 64.7111 42.8086H67.5587C67.5587 43.793 67.8048 44.5547 68.297 45.0938C68.797 45.6328 69.5001 45.9023 70.4064 45.9023C71.297 45.9023 71.9728 45.6875 72.4337 45.2578C72.9025 44.8281 73.1368 44.2578 73.1368 43.5469Z" fill="#5D6B82"/>
</svg>
