<svg width="148" height="80" viewBox="0 0 148 80" fill="none" xmlns="http://www.w3.org/2000/svg">
<rect width="148" height="80" rx="2" fill="#D1D5DB"/>
<path fill-rule="evenodd" clip-rule="evenodd" d="M2 1C1.44772 1 1 1.44771 1 2V78C1 78.5523 1.44771 79 2 79H146C146.552 79 147 78.5523 147 78V2C147 1.44772 146.552 1 146 1H2ZM70 16H22V64H70V16ZM78 30H94V34H78V30ZM110 36V40H78V36H110ZM126 56H78V60H126V56ZM78 44H94V52H78V44ZM96 44H126V52H96V44Z" fill="#FAFBFB"/>
<path fill-rule="evenodd" clip-rule="evenodd" d="M126 20H78V28H126V20ZM42.6871 27C40.8466 27.3265 35.7853 28.4247 34.773 29.6712C33.7607 30.9178 31.4601 35.1621 31 37.0616C31.9202 37.7146 36.6135 39.3767 36.6135 39.3767C36.9816 38.605 37.8098 36.1712 37.8098 36.1712C38.0552 37.863 38.5092 41.8699 38.362 44.363C38.1779 47.4795 37.8098 53 37.8098 53H55C55 49.7723 54.9217 49.0447 54.5631 45.7107C54.5329 45.4295 54.5006 45.1297 54.4663 44.8082C53.9141 39.6438 54.0779 36.6087 54.0779 36.6087C54.354 37.6772 55.3681 39.3767 55.6626 39.3767C58.4221 39.3767 61 36.7945 61 36.7945C61 36.7945 57.9632 29.4932 56.6748 29.0479C55.3865 28.6027 49.4969 27 49.4969 27C48.3313 28.0091 45.3374 29.4219 42.6871 27Z" fill="#5D6B82"/>
</svg>
