<svg width="148" height="80" viewBox="0 0 148 80" fill="none" xmlns="http://www.w3.org/2000/svg">
<rect width="148" height="80" rx="2" fill="#D1D5DB"/>
<path fill-rule="evenodd" clip-rule="evenodd" d="M2 1C1.44772 1 1 1.44771 1 2V78C1 78.5523 1.44771 79 2 79H146C146.552 79 147 78.5523 147 78V2C147 1.44772 146.552 1 146 1H2ZM98 11H50V43H98V11ZM74 53H50V57H74V53ZM98 59V63H50V59H98ZM66 65H50V69H66V65ZM68 65H84V69H68V65Z" fill="#FAFBFB"/>
<path fill-rule="evenodd" clip-rule="evenodd" d="M70.6871 14C68.8466 14.3265 63.7853 15.4247 62.773 16.6712C61.7607 17.9178 59.4601 22.1621 59 24.0616C59.9202 24.7146 64.6135 26.3767 64.6135 26.3767C64.9816 25.605 65.8098 23.1712 65.8098 23.1712C66.0552 24.863 66.5092 28.8699 66.362 31.363C66.1779 34.4795 65.8098 40 65.8098 40H83C83 36.7723 82.9217 36.0447 82.5631 32.7107C82.5329 32.4295 82.5006 32.1297 82.4663 31.8082C81.9141 26.6438 82.0779 23.6087 82.0779 23.6087C82.354 24.6772 83.3681 26.3767 83.6626 26.3767C86.4221 26.3767 89 23.7945 89 23.7945C89 23.7945 85.9632 16.4932 84.6748 16.0479C83.3865 15.6027 77.4969 14 77.4969 14C76.3313 15.0091 73.3374 16.4219 70.6871 14ZM98 47H50V51H98V47Z" fill="#5D6B82"/>
</svg>
