<svg width="148" height="80" viewBox="0 0 148 80" fill="none" xmlns="http://www.w3.org/2000/svg">
<rect width="148" height="80" rx="2" fill="#D1D5DB"/>
<rect x="1" y="1" width="146" height="78" rx="1" fill="#FAFBFB"/>
<path fill-rule="evenodd" clip-rule="evenodd" d="M106.942 31.913C108.408 31.3248 110.016 31 111.701 31C118.495 31 124 36.2669 124 42.7646C124 49.2624 118.496 54.4674 111.701 54.4674C111.701 54.4674 77.6365 54.4714 77.6059 54.4674C76.8717 54.3981 76.2882 53.8391 76.2773 53.1196V15.7872C76.2882 15.1004 76.5326 14.7459 77.4609 14.4027C79.9729 13.4784 82.6409 13.0029 85.3324 13C96.6677 13 105.964 21.3135 106.942 31.913ZM74.4527 15.9402C73.9673 15.6559 73.3462 15.7002 72.9103 16.0501C72.5978 16.2939 72.4146 16.6577 72.4101 17.0434L72.4065 17.1785L71.8535 43.5425L72.1362 48.4152L72.4111 53.1597C72.4189 53.8608 73.0262 54.4422 73.7625 54.4422C74.5003 54.4422 75.1076 53.8608 75.1185 53.1493V53.1597L75.7181 43.5425L75.1185 17.0434C75.1096 16.5906 74.8582 16.174 74.4527 15.9402ZM70.2639 18.2411C70.057 18.1089 69.8139 18.0378 69.565 18.0366C69.3128 18.0366 69.0762 18.1094 68.8774 18.2337C68.5196 18.4572 68.3017 18.8366 68.2965 19.2453L68.2887 19.4755L67.8149 43.5341C67.8149 43.5485 68.2959 53.2979 68.2959 53.2979V53.3375C68.3115 53.6123 68.4181 53.8633 68.5942 54.0609C68.8321 54.3398 69.188 54.5024 69.5644 54.504C69.9082 54.504 70.2215 54.3649 70.4503 54.1456C70.6792 53.9262 70.8247 53.6266 70.8324 53.2939L70.8858 52.3259L71.3673 43.5381L70.8324 19.2453C70.8243 18.8422 70.6124 18.468 70.2639 18.2411ZM58.019 21.7918C57.9999 21.2511 57.5567 20.8272 57.0068 20.8272C56.4528 20.8272 56.006 21.2511 55.9946 21.7918L55.3608 43.5356L55.9946 53.5177C56.0017 54.0478 56.4524 54.4743 57.0068 54.4753C57.5567 54.4753 57.9999 54.052 58.019 53.5113L58.019 53.5109V53.5103L58.7294 43.5361L58.019 21.7918ZM51.9579 22.5003C51.9729 22.0037 52.3814 21.6165 52.8857 21.6165C53.3822 21.6165 53.7908 22.0037 53.8099 22.5003L54.5772 43.5351L53.8099 53.5801V53.5722C53.7908 54.0648 53.3822 54.452 52.8857 54.452C52.3819 54.452 51.9729 54.0643 51.9579 53.5751L51.2739 43.5351L51.9579 22.5003ZM48.7339 23.3693C48.2793 23.3693 47.9091 23.7238 47.8899 24.1695L47.1604 43.5866L47.8899 53.7331C47.9091 54.1753 48.2793 54.5288 48.7339 54.5288C49.1807 54.5288 49.555 54.1748 49.5742 53.7291V53.7331L50.4031 43.5866L49.5742 24.1695C49.555 23.7238 49.1812 23.3693 48.7339 23.3693ZM43.983 27.7306C44.0022 27.325 44.3346 27.0111 44.7395 27.0111C45.1366 27.0111 45.4685 27.3255 45.4954 27.7271L46.3777 43.5316L45.4954 53.74V53.7361C45.469 54.1371 45.1366 54.456 44.7395 54.456C44.3346 54.456 44.0022 54.1386 43.983 53.74L43.2002 43.5316L43.983 27.7306ZM36.1337 33.0563C36.157 32.7419 36.4087 32.5048 36.7183 32.5048C37.0279 32.5048 37.28 32.7419 37.3065 33.0529L38.3078 43.5247L37.3065 53.6534C37.2795 53.9668 37.0279 54.204 36.7183 54.204C36.4087 54.204 36.1565 53.9673 36.1337 53.6534L35.2515 43.5247L36.1337 33.0563ZM32.7578 32.8627C32.4943 32.8627 32.2841 33.0598 32.2572 33.3336L31.3252 43.5242L32.2572 53.3385C32.2841 53.6128 32.4943 53.8093 32.7578 53.8093C33.0172 53.8093 33.2274 53.6128 33.2621 53.3424L34.3199 43.5242L33.2621 33.3336C33.2274 33.0598 33.0172 32.8627 32.7578 32.8627ZM28.4155 34.9374C28.4424 34.7106 28.6179 34.5462 28.8317 34.5462C29.0414 34.5462 29.2133 34.7072 29.248 34.9334L30.3633 43.5242L29.248 51.9214C29.2139 52.1481 29.042 52.3086 28.8317 52.3086C28.6179 52.3086 28.4424 52.1442 28.4155 51.9214L27.4302 43.5242L28.4155 34.9374ZM24.7331 38.2098C24.7601 37.991 24.9242 37.8375 25.1344 37.8375C25.3369 37.8375 25.501 37.9905 25.5352 38.2098L26.3983 43.5242L25.5352 48.744C25.501 48.9624 25.3369 49.1164 25.1344 49.1164C24.9242 49.1164 24.7601 48.9624 24.7331 48.744L24 43.5242L24.7331 38.2098ZM41.3815 33.8085C41.3587 33.4505 41.0688 33.1801 40.7131 33.1801C40.3502 33.1801 40.0638 33.4505 40.0411 33.8159L39.2085 43.5242L40.0411 53.7366C40.0638 54.0975 40.3507 54.3723 40.7131 54.3723C41.0688 54.3723 41.3587 54.0975 41.3815 53.7366L42.329 43.5242L41.3815 33.8085ZM61.1585 21.3021C60.5589 21.3021 60.0738 21.7626 60.0624 22.3469L59.4814 43.5351L60.0624 53.4226C60.0738 54.0035 60.5589 54.4644 61.1585 54.4644C61.758 54.4644 62.2395 54.0035 62.2587 53.4162V53.4266L62.908 43.5356L62.2587 22.3474C62.239 21.7626 61.758 21.3021 61.1585 21.3021ZM64.1606 23.1247C64.1762 22.4929 64.6955 21.9963 65.3447 21.9963C65.9956 21.9971 66.5238 22.4999 66.5278 23.1223L67.1232 43.5396L66.5278 53.3613V53.3533C66.5164 53.9851 65.993 54.4818 65.3437 54.4818C64.6944 54.4818 64.1751 53.9851 64.1637 53.3603L63.6335 43.5381L64.1606 23.1247ZM33.8194 61.545C32.3796 61.2207 31.9902 61.0449 31.9902 60.5012C31.9902 60.118 32.3148 59.7194 33.2887 59.7194C34.1213 59.7194 34.7706 60.0402 35.3551 60.6151L36.6692 59.3985C35.8097 58.541 34.7706 58.0285 33.354 58.0285C31.5631 58.0285 30.1076 59 30.1076 60.578C30.1076 62.2907 31.2762 62.8022 32.9532 63.1706C34.6681 63.5429 34.9777 63.7954 34.9777 64.3544C34.9777 65.012 34.4698 65.3002 33.3923 65.3002C32.5214 65.3002 31.7044 65.012 31.0665 64.303L29.7566 65.421C30.4442 66.389 31.7696 66.999 33.2893 66.999C35.7683 66.999 36.8644 65.8849 36.8644 64.2297C36.8639 62.3382 35.2635 61.8713 33.8194 61.545ZM38.2424 62.5145C38.2424 59.8694 39.7087 58.0285 42.1878 58.0285C44.6704 58.0285 46.1367 59.8694 46.1367 62.5145C46.1367 65.163 44.6704 67 42.1878 67C39.7092 67 38.2424 65.163 38.2424 62.5145ZM42.1879 65.2754C40.7211 65.2754 40.1101 64.0668 40.1101 62.5145C40.1101 60.9622 40.7211 59.757 42.1879 59.757C43.6583 59.757 44.2693 60.9627 44.2693 62.5145C44.2693 64.0653 43.6583 65.2754 42.1879 65.2754ZM51.6108 65.3002C52.7638 65.3002 53.4783 64.4386 53.4783 63.0507L53.4789 58.1666H55.2967V63.025C55.2967 65.5448 53.9215 66.9985 51.6108 66.9985C49.4144 66.9985 47.9326 65.5844 47.9326 63.0497V58.1661H49.7505V63.0245C49.7505 64.4163 50.4536 65.3002 51.6108 65.3002ZM63.1444 61.8456C63.1444 62.1111 63.1513 62.5626 63.1575 62.9684C63.1626 63.2997 63.1672 63.6005 63.1672 63.7449C63.055 63.5264 62.7664 63.1044 62.5458 62.7818L62.5329 62.7631L59.3088 58.1681H57.5676V66.8643H59.3627V63.0369C59.3627 62.7692 59.3545 62.3167 59.3472 61.9107C59.3412 61.5806 59.3358 61.2814 59.3358 61.1375C59.4388 61.3307 59.6771 61.6846 59.8808 61.9872L59.8809 61.9873L59.97 62.1199L63.3122 66.8643H64.9353V58.1681H63.1439V61.8456H63.1444ZM67.2773 58.1671H70.1188C72.7159 58.1671 74.6414 59.3327 74.6414 62.513C74.6414 65.571 72.327 66.8638 69.9888 66.8638H67.2773V58.1671ZM69.9888 65.1729H69.092V59.859H70.0582C71.9791 59.859 72.7738 60.7384 72.7738 62.514C72.7728 64.1059 71.8983 65.1729 69.9888 65.1729ZM81.9327 60.6978C81.6039 60.1066 81.0841 59.756 80.2671 59.756C78.9033 59.756 78.1199 60.8993 78.1199 62.5135C78.1199 64.0772 78.9147 65.2754 80.278 65.2754C81.0991 65.2754 81.577 64.9357 82.058 64.1643L83.5942 65.0338C82.9672 66.2687 81.8794 66.9995 80.2288 66.9995C77.8492 66.9995 76.2534 65.261 76.2534 62.5135C76.2534 59.8694 77.9149 58.028 80.2935 58.028C82.0093 58.028 83.0443 58.8247 83.6165 59.9571L81.9327 60.6978ZM87.012 58.1671H87.0104V58.1666H87.012V58.1671ZM87.0104 58.1671V65.1502H90.6622V66.8638H85.1936V58.1671H87.0104ZM91.4985 62.5145C91.4985 59.8694 92.9695 58.0285 95.4485 58.0285C97.9312 58.0285 99.4016 59.8694 99.4016 62.5145C99.4016 65.163 97.9312 67 95.4485 67C92.9695 67 91.4985 65.163 91.4985 62.5145ZM95.4489 65.2754C93.9821 65.2754 93.3706 64.0668 93.3706 62.5145C93.3706 60.9622 93.9821 59.757 95.4489 59.757C96.9193 59.757 97.5272 60.9627 97.5272 62.5145C97.5272 64.0653 96.9193 65.2754 95.4489 65.2754ZM104.872 65.3002C106.029 65.3002 106.74 64.4386 106.74 63.0507V58.1666H108.561V63.025C108.561 65.5448 107.183 66.9985 104.872 66.9985C102.675 66.9985 101.194 65.5844 101.194 63.0497V58.1661H103.011V63.0245C103.011 64.4163 103.715 65.3002 104.872 65.3002ZM113.679 58.1671H110.833V66.8638H113.544C115.889 66.8638 118.197 65.571 118.197 62.513C118.197 59.3327 116.279 58.1671 113.679 58.1671ZM112.651 65.1729H113.544C115.458 65.1729 116.325 64.1059 116.323 62.514C116.323 60.7384 115.534 59.859 113.612 59.859H112.651V65.1729Z" fill="#5D6B82"/>
</svg>
