<svg width="148" height="80" viewBox="0 0 148 80" fill="none" xmlns="http://www.w3.org/2000/svg">
<rect width="148" height="80" rx="2" fill="#D1D5DB"/>
<rect x="1" y="1" width="146" height="78" rx="1" fill="#FAFBFB"/>
<path fill-rule="evenodd" clip-rule="evenodd" d="M40 16H30V22H40V16ZM42 22V24V33V35V44V46V56V58V64H107V58V56V46V44V35V33V24V22V16H42V22ZM109 58V64H119V58H109ZM119 56H109V46H119V56ZM121 56V58V64V66H119H109H107H42H40H30H28V64V58V56V46V44V35V33V24V22V16V14H30H40H42H107H109H119H121V16V22V24V33V35V44V46V56ZM109 44V35H119V44H109ZM109 33H119V24H109V33ZM109 22H119V16H109V22ZM40 46V56H30V46H40ZM40 58H30V64H40V58ZM40 33V24H30V33H40ZM30 35H40V44H30V35ZM52.7371 36.5871V45.5019H54.6044V41.5223H58.1309V45.5019H60.0043V36.5871H58.1309V39.9861H54.6044V36.5871H52.7371ZM69.4063 38.1657V36.5871H62.0962V38.1657H64.8084V45.5019H66.7063V38.1657H69.4063ZM80.2472 36.5871H77.535L75.9064 43.5968L74.2656 36.5871H71.5228V45.5019H73.2799V39.472C73.2799 39.2987 73.2779 39.0557 73.2738 38.7432C73.2697 38.4308 73.2677 38.1899 73.2677 38.0205L74.9636 45.5019H76.7942L78.5023 38.0205C78.5023 38.1899 78.5003 38.4308 78.4962 38.7432C78.4921 39.0557 78.4901 39.2987 78.4901 39.472V45.5019H80.2472V36.5871ZM84.9287 36.5871H83.043V45.5019H89.3981V43.8992H84.9287V36.5871ZM93.2594 44.0232C93.0635 43.8196 92.9308 43.5303 92.8615 43.1553H91.1227C91.1839 43.9779 91.486 44.6129 92.0288 45.0604C92.5717 45.508 93.2655 45.7318 94.1104 45.7318C95.1594 45.7318 95.9471 45.4132 96.4737 44.7762C97.0002 44.1391 97.2634 43.4154 97.2634 42.605C97.2634 41.6736 96.99 40.9639 96.443 40.4761C95.8961 39.9882 95.2553 39.7443 94.5206 39.7443C94.1573 39.7443 93.8492 39.7906 93.5961 39.8834C93.4451 39.9398 93.2349 40.0547 92.9655 40.2281L93.2839 38.3109H96.9145V36.8473H92.0227L91.3982 41.6917L92.9655 41.7643C93.1043 41.5022 93.3104 41.3228 93.5839 41.226C93.739 41.1736 93.9227 41.1474 94.1349 41.1474C94.5839 41.1474 94.9145 41.3016 95.1267 41.6101C95.339 41.9185 95.4451 42.2965 95.4451 42.7441C95.4451 43.1997 95.3318 43.5777 95.1053 43.8781C94.8788 44.1784 94.5492 44.3286 94.1165 44.3286C93.741 44.3286 93.4553 44.2268 93.2594 44.0232Z" fill="#5D6B82"/>
</svg>
