<svg width="148" height="80" viewBox="0 0 148 80" fill="none" xmlns="http://www.w3.org/2000/svg">
<rect width="148" height="80" rx="2" fill="#D1D5DB"/>
<rect x="1" y="1" width="146" height="78" rx="1" fill="#FAFBFB"/>
<path fill-rule="evenodd" clip-rule="evenodd" d="M50.4256 26.024C50.3845 27.0333 49.8733 28.0015 48.8904 28.9291C47.7857 29.9772 46.4762 30.5015 44.9625 30.5015C42.6309 30.5015 41.5045 29.4941 41.587 27.4774C41.6264 26.4293 42.2506 25.42 43.4578 24.4516C44.6648 23.4851 46.0046 23 47.4789 23C48.338 23 49.0536 23.334 49.6276 23.9986C50.1997 24.6649 50.4653 25.34 50.4256 26.024ZM53.0026 51.5565C52.4019 52.2218 51.7476 52.8618 51.0396 53.4765C48.2971 55.8255 45.5567 57 42.8161 57C41.5462 57 40.5741 56.5949 39.8998 55.7845C39.2254 54.9743 38.908 53.9227 38.9492 52.6254C38.9887 51.2896 39.4083 49.2231 40.2063 46.428C41.0046 43.6333 41.4046 42.1339 41.4046 41.9312C41.4046 40.8793 41.035 40.3518 40.2997 40.3518C40.0541 40.3518 39.3581 40.7783 38.212 41.6275L37.9488 41.3213C37.3002 43.6469 35.6143 46.558 32.8912 50.054C29.3209 54.6845 26.3003 57 23.8293 57C22.2991 57 21.0033 55.5904 19.9455 52.7697C19.2389 50.1844 18.5323 47.5992 17.8259 45.0143C17.0402 42.1951 16.1975 40.7839 15.2963 40.7839C15.0999 40.7839 14.4123 41.1966 13.2355 42.0181L12 40.4299C13.2958 39.2937 14.5744 38.1575 15.8324 37.0196C17.5604 35.5293 18.8581 34.7454 19.7232 34.6665C21.7666 34.4705 23.0246 35.8645 23.4968 38.8484C24.0067 42.0679 24.3599 44.0705 24.5582 44.8542C25.1474 47.5253 25.7953 48.8595 26.5036 48.8595C27.0531 48.8595 27.8786 47.993 28.9798 46.2604C30.079 44.5276 30.6684 43.2094 30.7476 42.3034C30.9044 40.8081 30.3151 40.0585 28.9798 40.0585C28.3508 40.0585 27.7029 40.2029 27.0361 40.4883C28.3266 36.2702 30.7924 34.2212 34.4317 34.3381C36.8832 34.4099 38.1572 35.858 38.2535 38.6823C39.0784 37.9422 39.9034 37.2018 40.7285 36.4607C42.4878 34.9202 43.7971 34.11 44.6582 34.0284C46.0069 33.9074 46.9987 34.3001 47.6336 35.2099C48.2667 36.1195 48.5018 37.2993 48.3403 38.7527C47.8076 41.2171 47.2336 44.3459 46.6202 48.1408C46.5789 49.8785 47.2138 50.7456 48.5232 50.7456C49.0954 50.7456 50.1176 50.1469 51.592 48.9459C52.2292 48.4272 52.806 47.9244 53.3222 47.4373C53.3927 46.9994 53.4742 46.5323 53.5667 46.0358C53.9124 44.1817 54.1054 42.7375 54.1459 41.7002C54.2286 40.9833 54.0393 40.6239 53.5796 40.6239C53.3277 40.6239 52.6144 41.0289 51.4396 41.8369L49.9302 40.2175C50.1398 40.0598 51.4597 38.8996 53.894 36.7404C55.6553 35.1825 56.8505 34.3832 57.4791 34.3428C58.5696 34.2625 59.4502 34.6917 60.1213 35.6311C60.7923 36.5705 61.1289 37.6605 61.1289 38.8996C61.1289 39.2992 61.0866 39.6794 61.0039 40.0388C61.6326 39.1204 62.3662 38.3194 63.2064 37.6394C65.135 36.0413 67.2954 35.1403 69.6857 34.9405C71.7412 34.781 73.2085 35.2402 74.091 36.3199C74.8025 37.1996 75.1371 38.4597 75.0966 40.0982C75.391 39.86 75.7052 39.5989 76.0418 39.3184C77.0052 38.2389 77.9484 37.3801 78.8713 36.7404C80.423 35.6608 82.0392 35.0615 83.7159 34.9405C85.7289 34.781 87.176 35.2385 88.0567 36.3145C88.8104 37.1909 89.1469 38.4456 89.0643 40.0773C89.0218 41.1935 88.7389 42.8166 88.2148 44.9476C87.6889 47.0788 87.4278 48.302 87.4278 48.6209C87.3856 49.4587 87.4702 50.0354 87.6797 50.3543C87.8895 50.6731 88.3913 50.8308 89.1894 50.8308C89.4617 50.8308 89.8333 50.7036 90.3046 50.4487C90.1554 49.7125 90.0889 48.9318 90.1053 48.1064C90.1452 44.769 91.6337 41.596 94.5668 38.5857C97.7881 35.2899 101.589 33.6401 105.967 33.6401C110.016 33.6401 112.163 35.2861 112.411 38.5748C112.576 40.6707 111.419 42.8301 108.942 45.0509C106.296 47.4777 102.97 49.0189 98.9651 49.6764C99.7074 50.7046 100.823 51.2179 102.311 51.2179C105.284 51.2179 108.527 50.4643 112.04 48.9538C112.196 48.8879 112.35 48.8219 112.503 48.7558C112.475 48.5044 112.454 48.2483 112.441 47.9873C112.233 44.4473 113.513 41.1947 116.283 38.2315C119.256 34.9393 122.993 33.2932 127.496 33.2932C130.386 33.2932 132.576 34.2618 134.064 36.1952C135.469 37.9659 136.108 40.2497 135.985 43.0471C135.819 46.8342 134.415 50.1067 131.772 52.8638C129.128 55.6212 125.843 57 121.92 57C118.657 57 116.178 55.95 114.485 53.8504C114.104 53.3691 113.775 52.8505 113.499 52.2949C113.056 52.5695 112.59 52.8441 112.101 53.1187C107.723 55.6303 103.282 56.8843 98.7803 56.8843C95.4742 56.8843 93.0944 55.7977 91.6441 53.6265C88.8747 55.8755 86.1066 57 83.3391 57C80.6105 57 79.2905 55.5628 79.3748 52.685C79.4153 51.4056 79.6783 49.8687 80.16 48.0707C80.6419 46.2725 80.9048 44.8739 80.947 43.8752C80.9893 42.3573 80.5057 41.5967 79.4945 41.5967C78.4007 41.5967 77.0971 42.8374 75.5821 45.3156C73.9826 47.9147 73.1184 50.4331 72.9932 52.8709C72.9088 54.5919 73.0853 55.9115 73.5229 56.83C70.5958 56.9107 68.5456 56.4498 67.3762 55.4506C66.3284 54.5709 65.8485 53.1129 65.9331 51.0727C65.9734 49.7934 66.1794 48.5141 66.5507 47.2347C66.9203 45.9554 67.1261 44.8162 67.1684 43.8153C67.2531 42.3364 66.6849 41.5967 65.4678 41.5967C64.4161 41.5967 63.2818 42.7375 62.0647 45.0159C60.8475 47.2943 60.1747 49.6741 60.0496 52.1524C59.965 54.3922 60.1157 55.9501 60.5001 56.83C57.6208 56.9107 55.5763 56.3321 54.3665 55.0947C53.5602 54.263 53.1062 53.0838 53.0026 51.5565ZM105.1 40.736C105.14 39.6301 104.687 39.0753 103.738 39.0753C102.5 39.0753 101.243 39.9264 99.9647 41.6285C98.6864 43.3306 98.0255 44.9604 97.9856 46.518C97.9622 46.518 97.9622 46.7854 97.9856 47.3185C100.006 46.5812 101.759 45.4539 103.244 43.9358C104.439 42.6242 105.058 41.5562 105.1 40.736ZM128.518 39.7474C128.869 40.6762 129.025 41.6992 128.983 42.814C128.9 44.796 128.302 46.6951 127.187 48.5129C125.865 50.703 124.273 51.7959 122.416 51.7959C121.588 51.7959 120.947 51.3426 120.494 50.4336C120.082 49.6494 119.895 48.7405 119.937 47.7069C120.018 45.6019 120.638 43.6199 121.797 41.7604C123.158 39.4891 124.893 38.3526 127 38.3526C127.659 38.3526 128.166 38.8188 128.518 39.7474Z" fill="#5D6B82"/>
</svg>
