<svg width="148" height="80" viewBox="0 0 148 80" fill="none" xmlns="http://www.w3.org/2000/svg">
<rect width="148" height="80" rx="2" fill="#D1D5DB"/>
<rect x="1" y="1" width="146" height="78" rx="1" fill="#FAFBFB"/>
<path fill-rule="evenodd" clip-rule="evenodd" d="M132.319 17.0288C134.538 19.359 135.26 24.6498 135.26 24.6498C135.26 24.6498 136 30.8624 136 37.0754V42.9001C136 49.1134 135.26 55.326 135.26 55.326C135.26 55.326 134.538 60.6165 132.319 62.9471C129.783 65.703 126.971 65.9874 125.381 66.1482C125.207 66.1658 125.048 66.182 124.905 66.1997C114.549 66.9765 99.0002 67 99.0002 67C99.0002 67 79.7608 66.8183 73.8405 66.2284C73.5592 66.1737 73.2179 66.1311 72.8314 66.083L72.8313 66.0829L72.8312 66.0829L72.8311 66.0829C70.9556 65.8491 68.0146 65.4824 65.6811 62.9471C63.4622 60.6165 62.7407 55.326 62.7407 55.326C62.7407 55.326 62 49.1134 62 42.9001V37.0754C62 30.8624 62.7407 24.6498 62.7407 24.6498C62.7407 24.6498 63.4622 19.359 65.6811 17.0288C68.2197 14.2713 71.034 13.9878 72.6232 13.8277L72.6233 13.8277C72.796 13.8103 72.9543 13.7943 73.0962 13.7768C83.451 13 98.9837 13 98.9837 13H99.0163C99.0163 13 114.549 13 124.905 13.7768C125.047 13.7944 125.205 13.8103 125.378 13.8277C126.967 13.9878 129.781 14.2714 132.319 17.0288ZM122.273 34.3452C120.789 34.3452 120.161 35.0088 120.161 37.4446V40.3258L124.33 40.3208V37.4771C124.33 35.0692 123.745 34.3452 122.273 34.3452ZM128.999 38.9028L129 44.2293H120.161V48.9088C120.145 51.3125 120.789 52.5231 122.314 52.5231C123.407 52.5231 124.044 51.892 124.297 50.6308C124.333 50.4141 124.332 49.581 124.331 48.1911V48.1908C124.331 47.9317 124.33 47.6533 124.33 47.3559H128.991V48.0944C128.991 49.4205 128.902 50.4085 128.852 50.9528C128.845 51.0323 128.839 51.1024 128.834 51.1627C128.684 52.2081 128.335 53.1539 127.795 53.9888C126.567 55.8796 124.744 56.8113 122.424 56.8113C120.101 56.8113 118.333 55.9227 117.048 54.1442C116.105 52.8413 115.5 50.9042 115.5 48.1378V39.0187C115.5 36.2353 116.051 34.0842 116.994 32.7676C118.278 30.9862 120.047 30.0429 122.314 30.0429C124.542 30.0429 126.31 30.9862 127.554 32.7676C128.483 34.0842 128.999 36.1206 128.999 38.9028ZM109.25 49.0554C109.25 51.616 108.66 52.5972 107.355 52.5972C106.61 52.5972 105.752 52.2047 104.995 51.43L105 35.9008C105.756 35.1355 106.61 34.7329 107.355 34.7329C108.66 34.7329 109.25 35.4847 109.25 38.0457V49.0554ZM109.777 30.4654C108.112 30.4654 106.457 31.5142 104.995 33.3568L105 22.1698H100.5V56.4812H105L105.006 53.9028C106.519 55.8194 108.168 56.8113 109.777 56.8113C111.579 56.8113 112.896 55.8228 113.5 53.9205C113.802 52.8356 114 51.1659 114 48.7999V38.5576C114 36.1337 113.697 34.4768 113.394 33.4478C112.791 31.5319 111.579 30.4654 109.777 30.4654ZM91.1611 56.4571H96.0002V31.6175H91.1611V50.4953C90.137 51.9047 89.2984 52.6895 88.3721 52.6895C87.7565 52.6895 87.453 52.4343 87.3401 51.7374V49.9987V31.6175H82.5002V51.2407C82.5002 52.9649 82.7229 54.139 83.0378 54.8912C83.5547 56.1275 84.5884 56.8113 86.0757 56.8113C87.7713 56.8113 89.326 55.776 91.1611 53.7252V56.4571ZM78.7617 56.8112H74.0001V28.4332H69V23.7501L84 23.7444V28.4332H78.7617V56.8112ZM23.5718 41.1477V55H18.4282V41.1477C18.4282 41.1477 13.099 24.1656 12 21H17.4L21.0085 34.2669L24.6 21H30L23.5718 41.1477ZM53.9808 54.6241H59V28H53.9808V48.2973C52.9184 49.793 52.0491 50.6259 51.0884 50.6259C50.4507 50.6259 50.1352 50.3551 50.0182 49.6154V47.7703V28H45V49.0884C45 50.9182 45.2306 52.1641 45.5568 52.9623C46.0924 54.2743 47.1645 55 48.7066 55C50.4654 55 52.0784 53.9013 53.9808 51.725V54.6241ZM35.4604 50.6333C36.949 50.6333 37.7317 49.3652 37.4797 46.8089L37.4821 36.5842C37.7341 34.0279 36.9496 32.8298 35.4611 32.8298C33.9726 32.8298 33.1909 34.0279 33.4433 36.5842V46.8089C33.1909 49.3652 33.9726 50.6333 35.4604 50.6333ZM40.5551 30.7756C41.4776 32.0818 42 34.157 42 36.9203V46.137C42 48.8844 41.5742 50.7829 40.6517 52.0766C39.4329 53.8401 37.4257 54.7736 35.4995 54.7736C33.5739 54.7736 31.6007 53.8401 30.3836 52.0766C29.4467 50.7829 29 48.8844 29 46.137L29.0039 36.9428C29.0039 34.1795 29.5064 32.0818 30.4439 30.7756C31.6604 29.0069 33.3197 28.283 35.4995 28.283C37.4257 28.283 39.3363 29.0069 40.5551 30.7756Z" fill="#5D6B82"/>
</svg>
