<svg width="32" height="32" viewBox="0 0 32 32" fill="none" xmlns="http://www.w3.org/2000/svg">
<rect width="32" height="32" fill="#EFEFEF"/>
<path d="M7.9243 9.77275C8.40499 10.1968 9.03581 10.4545 9.72727 10.4545C10.4187 10.4545 11.0495 10.1967 11.5302 9.77275C12.0967 9.27296 12.4545 8.54211 12.4545 7.72727C12.4545 7.49188 12.4247 7.26337 12.3687 7.04547C12.0659 5.86917 10.9981 5 9.72727 5C8.45644 5 7.38872 5.86917 7.08589 7.04547C7.0298 7.26337 7 7.49188 7 7.72727C7 8.54211 7.3578 9.27296 7.9243 9.77275Z" fill="white"/>
<path d="M27.693 19.8182L26.0778 18.3564L25.5395 17.8691L24.9086 17.2982C24.4881 16.9176 23.9369 16.7273 23.3859 16.7273C22.8348 16.7273 22.2836 16.9176 21.8631 17.2982L21.2323 17.8691L20.6939 18.3564L19.0787 19.8182L18.5403 20.3054L16.9251 21.7673L16.3867 22.2545L14.7715 23.7163L14.2331 24.2037L13.9639 24.4473L22.3091 32H32.0002V23.7164L29.8467 21.7673L28.2315 20.3055L27.693 19.8182Z" fill="#DDDDDD"/>
<path d="M14.684 24.7065L14.4069 24.4712L13.2987 23.5301L12.1905 22.589L11.0823 21.648L10.4331 21.0967C10.2342 20.9278 10.0067 20.7982 9.76396 20.7069C9.47864 20.5995 9.17234 20.5454 8.86584 20.5454C8.55935 20.5454 8.25299 20.5996 7.96773 20.7069C7.725 20.7981 7.49753 20.9277 7.29864 21.0967L6.64935 21.648L5.5411 22.5891L4.43286 23.5302L3.32468 24.4712L2.21643 25.4124L0 27.2945V32H13.6945H23.2727L14.684 24.7065Z" fill="#DDDDDD"/>
</svg>
