<svg width="148" height="80" viewBox="0 0 148 80" fill="none" xmlns="http://www.w3.org/2000/svg">
<rect width="148" height="80" rx="2" fill="#D1D5DB"/>
<path fill-rule="evenodd" clip-rule="evenodd" d="M2 1C1.44772 1 1 1.44771 1 2V78C1 78.5523 1.44771 79 2 79H146C146.552 79 147 78.5523 147 78V2C147 1.44772 146.552 1 146 1H2ZM94 20H54V60H94V20Z" fill="#FAFBFB"/>
<path fill-rule="evenodd" clip-rule="evenodd" d="M14 20H54V60H14V20ZM40 39H28V41H40V39ZM134 20H94V60H134V20ZM115 39H120V41H115V46H113V41H108V39H113V34H115V39ZM75.626 46H73.499V35.7256L70.3613 36.7979V34.9961L75.3535 33.1592H75.626V46Z" fill="#5D6B82"/>
</svg>
