<svg width="146" height="78" viewBox="0 0 146 78" fill="none" xmlns="http://www.w3.org/2000/svg">
<rect width="146" height="78" fill="white"/>
<path d="M144.027 0H1.97297C0.88333 0 0 0.873045 0 1.95V76.05C0 77.127 0.88333 78 1.97297 78H144.027C145.117 78 146 77.127 146 76.05V1.95C146 0.873045 145.117 0 144.027 0Z" fill="#D1D5DB"/>
<path d="M144.041 1H1.98649C1.44166 1 1 1.43652 1 1.975V76.075C1 76.6135 1.44166 77.05 1.98649 77.05H144.041C144.585 77.05 145.027 76.6135 145.027 76.075V1.975C145.027 1.43652 144.585 1 144.041 1Z" fill="#FAFBFB"/>
<path d="M37.5234 43.3516H33.1172L32.1953 46H30.1406L34.4375 34.625H36.2109L40.5156 46H38.4531L37.5234 43.3516ZM33.6719 41.7578H36.9688L35.3203 37.0391L33.6719 41.7578ZM46.0547 39.2812C45.8047 39.2396 45.5469 39.2188 45.2812 39.2188C44.4115 39.2188 43.8255 39.5521 43.5234 40.2188V46H41.625V37.5469H43.4375L43.4844 38.4922C43.9427 37.7578 44.5781 37.3906 45.3906 37.3906C45.6615 37.3906 45.8854 37.4271 46.0625 37.5L46.0547 39.2812ZM50.0234 35.4922V37.5469H51.5156V38.9531H50.0234V43.6719C50.0234 43.9948 50.0859 44.2292 50.2109 44.375C50.3411 44.5156 50.5703 44.5859 50.8984 44.5859C51.1172 44.5859 51.3385 44.5599 51.5625 44.5078V45.9766C51.1302 46.0964 50.7135 46.1562 50.3125 46.1562C48.8542 46.1562 48.125 45.3516 48.125 43.7422V38.9531H46.7344V37.5469H48.125V35.4922H50.0234ZM54.9922 46H53.0938V37.5469H54.9922V46ZM52.9766 35.3516C52.9766 35.0599 53.0677 34.8177 53.25 34.625C53.4375 34.4323 53.7031 34.3359 54.0469 34.3359C54.3906 34.3359 54.6562 34.4323 54.8438 34.625C55.0312 34.8177 55.125 35.0599 55.125 35.3516C55.125 35.638 55.0312 35.8776 54.8438 36.0703C54.6562 36.2578 54.3906 36.3516 54.0469 36.3516C53.7031 36.3516 53.4375 36.2578 53.25 36.0703C53.0677 35.8776 52.9766 35.638 52.9766 35.3516ZM60.5391 44.6406C61.013 44.6406 61.4062 44.5026 61.7188 44.2266C62.0312 43.9505 62.1979 43.6094 62.2188 43.2031H64.0078C63.987 43.7292 63.8229 44.2214 63.5156 44.6797C63.2083 45.1328 62.7917 45.4922 62.2656 45.7578C61.7396 46.0234 61.1719 46.1562 60.5625 46.1562C59.3802 46.1562 58.4427 45.7734 57.75 45.0078C57.0573 44.2422 56.7109 43.1849 56.7109 41.8359V41.6406C56.7109 40.3542 57.0547 39.3255 57.7422 38.5547C58.4297 37.7786 59.3672 37.3906 60.5547 37.3906C61.5599 37.3906 62.3776 37.6849 63.0078 38.2734C63.6432 38.8568 63.9766 39.625 64.0078 40.5781H62.2188C62.1979 40.0938 62.0312 39.6953 61.7188 39.3828C61.4115 39.0703 61.0182 38.9141 60.5391 38.9141C59.9245 38.9141 59.4505 39.138 59.1172 39.5859C58.7839 40.0286 58.6146 40.7031 58.6094 41.6094V41.9141C58.6094 42.8307 58.7734 43.5156 59.1016 43.9688C59.4349 44.4167 59.9141 44.6406 60.5391 44.6406ZM67.4609 46H65.5625V34H67.4609V46ZM73.2578 46.1562C72.0547 46.1562 71.0781 45.7786 70.3281 45.0234C69.5833 44.263 69.2109 43.2526 69.2109 41.9922V41.7578C69.2109 40.9141 69.3724 40.1615 69.6953 39.5C70.0234 38.8333 70.4818 38.3151 71.0703 37.9453C71.6589 37.5755 72.3151 37.3906 73.0391 37.3906C74.1901 37.3906 75.0781 37.7578 75.7031 38.4922C76.3333 39.2266 76.6484 40.2656 76.6484 41.6094V42.375H71.125C71.1823 43.0729 71.4141 43.625 71.8203 44.0312C72.2318 44.4375 72.7474 44.6406 73.3672 44.6406C74.237 44.6406 74.9453 44.2891 75.4922 43.5859L76.5156 44.5625C76.1771 45.0677 75.724 45.4609 75.1562 45.7422C74.5938 46.0182 73.9609 46.1562 73.2578 46.1562ZM73.0312 38.9141C72.5104 38.9141 72.0885 39.0964 71.7656 39.4609C71.4479 39.8255 71.2448 40.3333 71.1562 40.9844H74.7734V40.8438C74.7318 40.2083 74.5625 39.7292 74.2656 39.4062C73.9688 39.0781 73.5573 38.9141 73.0312 38.9141ZM88.8516 41.1797H84.2734V46H82.2969V34.625H89.5234V36.2188H84.2734V39.6016H88.8516V41.1797ZM92.9297 46H91.0312V37.5469H92.9297V46ZM90.9141 35.3516C90.9141 35.0599 91.0052 34.8177 91.1875 34.625C91.375 34.4323 91.6406 34.3359 91.9844 34.3359C92.3281 34.3359 92.5938 34.4323 92.7812 34.625C92.9688 34.8177 93.0625 35.0599 93.0625 35.3516C93.0625 35.638 92.9688 35.8776 92.7812 36.0703C92.5938 36.2578 92.3281 36.3516 91.9844 36.3516C91.6406 36.3516 91.375 36.2578 91.1875 36.0703C91.0052 35.8776 90.9141 35.638 90.9141 35.3516ZM98.7266 46.1562C97.5234 46.1562 96.5469 45.7786 95.7969 45.0234C95.0521 44.263 94.6797 43.2526 94.6797 41.9922V41.7578C94.6797 40.9141 94.8411 40.1615 95.1641 39.5C95.4922 38.8333 95.9505 38.3151 96.5391 37.9453C97.1276 37.5755 97.7839 37.3906 98.5078 37.3906C99.6589 37.3906 100.547 37.7578 101.172 38.4922C101.802 39.2266 102.117 40.2656 102.117 41.6094V42.375H96.5938C96.651 43.0729 96.8828 43.625 97.2891 44.0312C97.7005 44.4375 98.2161 44.6406 98.8359 44.6406C99.7057 44.6406 100.414 44.2891 100.961 43.5859L101.984 44.5625C101.646 45.0677 101.193 45.4609 100.625 45.7422C100.062 46.0182 99.4297 46.1562 98.7266 46.1562ZM98.5 38.9141C97.9792 38.9141 97.5573 39.0964 97.2344 39.4609C96.9167 39.8255 96.7135 40.3333 96.625 40.9844H100.242V40.8438C100.201 40.2083 100.031 39.7292 99.7344 39.4062C99.4375 39.0781 99.026 38.9141 98.5 38.9141ZM105.617 46H103.719V34H105.617V46ZM107.336 41.7109C107.336 40.4089 107.638 39.3646 108.242 38.5781C108.846 37.7865 109.656 37.3906 110.672 37.3906C111.568 37.3906 112.292 37.7031 112.844 38.3281V34H114.742V46H113.023L112.93 45.125C112.362 45.8125 111.604 46.1562 110.656 46.1562C109.667 46.1562 108.865 45.7578 108.25 44.9609C107.641 44.1641 107.336 43.0807 107.336 41.7109ZM109.234 41.875C109.234 42.7344 109.398 43.4062 109.727 43.8906C110.06 44.3698 110.531 44.6094 111.141 44.6094C111.917 44.6094 112.484 44.263 112.844 43.5703V39.9609C112.495 39.2839 111.932 38.9453 111.156 38.9453C110.542 38.9453 110.068 39.1901 109.734 39.6797C109.401 40.1641 109.234 40.8958 109.234 41.875Z" fill="#5D6B82"/>
</svg>
