<?xml version="1.0" encoding="UTF-8"?>
<svg width="148px" height="80px" viewBox="0 0 148 80" version="1.1" xmlns="http://www.w3.org/2000/svg" xmlns:xlink="http://www.w3.org/1999/xlink">
    <!-- Generator: Sketch 50.2 (55047) - http://www.bohemiancoding.com/sketch -->
    <title>K2 Author Copy</title>
    <desc>Created with Sketch.</desc>
    <defs></defs>
    <g id="K2-Author-Copy" stroke="none" stroke-width="1" fill="none" fill-rule="evenodd">
        <rect id="Rectangle-4" fill="#D1D5DB" x="0" y="0" width="148" height="80" rx="2"></rect>
        <rect id="Rectangle-3" fill="#FAFBFB" x="1" y="1" width="146" height="78" rx="1"></rect>
        <path d="M42.265625,41.0859375 L40.9765625,42.453125 L40.9765625,46 L39,46 L39,34.625 L40.9765625,34.625 L40.9765625,39.9609375 L42.0703125,38.609375 L45.3984375,34.625 L47.7890625,34.625 L43.5625,39.6640625 L48.03125,46 L45.6875,46 L42.265625,41.0859375 Z M56.4296875,46 L48.78125,46 L48.78125,44.6953125 L52.5703125,40.5625 C53.1171902,39.953122 53.5065093,39.4440125 53.7382812,39.0351562 C53.9700532,38.6263 54.0859375,38.2161479 54.0859375,37.8046875 C54.0859375,37.2630181 53.9335953,36.8255225 53.6289062,36.4921875 C53.3242172,36.1588525 52.9140651,35.9921875 52.3984375,35.9921875 C51.7838511,35.9921875 51.3072934,36.1796856 50.96875,36.5546875 C50.6302066,36.9296894 50.4609375,37.4427051 50.4609375,38.09375 L48.5625,38.09375 C48.5625,37.4010382 48.7200505,36.7773465 49.0351562,36.2226562 C49.350262,35.667966 49.8007783,35.2369807 50.3867188,34.9296875 C50.9726592,34.6223943 51.6484337,34.46875 52.4140625,34.46875 C53.5182347,34.46875 54.3893197,34.746091 55.0273438,35.3007812 C55.6653678,35.8554715 55.984375,36.6223909 55.984375,37.6015625 C55.984375,38.1692737 55.8242204,38.7643198 55.5039062,39.3867188 C55.1835921,40.0091177 54.6588578,40.7161419 53.9296875,41.5078125 L51.1484375,44.484375 L56.4296875,44.484375 L56.4296875,46 Z M68.53125,43.3515625 L64.125,43.3515625 L63.203125,46 L61.1484375,46 L65.4453125,34.625 L67.21875,34.625 L71.5234375,46 L69.4609375,46 L68.53125,43.3515625 Z M64.6796875,41.7578125 L67.9765625,41.7578125 L66.328125,37.0390625 L64.6796875,41.7578125 Z M77.6640625,45.171875 C77.106768,45.8281283 76.3151093,46.15625 75.2890625,46.15625 C74.3723912,46.15625 73.6783878,45.8880235 73.2070312,45.3515625 C72.7356747,44.8151015 72.5,44.0390676 72.5,43.0234375 L72.5,37.546875 L74.3984375,37.546875 L74.3984375,43 C74.3984375,44.072922 74.8437455,44.609375 75.734375,44.609375 C76.6562546,44.609375 77.2786442,44.2786491 77.6015625,43.6171875 L77.6015625,37.546875 L79.5,37.546875 L79.5,46 L77.7109375,46 L77.6640625,45.171875 Z M83.8125,35.4921875 L83.8125,37.546875 L85.3046875,37.546875 L85.3046875,38.953125 L83.8125,38.953125 L83.8125,43.671875 C83.8125,43.9947933 83.8763014,44.2278639 84.0039062,44.3710938 C84.1315111,44.5143236 84.3593734,44.5859375 84.6875,44.5859375 C84.9062511,44.5859375 85.127603,44.5598961 85.3515625,44.5078125 L85.3515625,45.9765625 C84.9192687,46.0963548 84.5026062,46.15625 84.1015625,46.15625 C82.6432219,46.15625 81.9140625,45.3515705 81.9140625,43.7421875 L81.9140625,38.953125 L80.5234375,38.953125 L80.5234375,37.546875 L81.9140625,37.546875 L81.9140625,35.4921875 L83.8125,35.4921875 Z M88.625,38.46875 C89.2447948,37.7499964 90.0286411,37.390625 90.9765625,37.390625 C92.7786548,37.390625 93.6927082,38.4192605 93.71875,40.4765625 L93.71875,46 L91.8203125,46 L91.8203125,40.546875 C91.8203125,39.9635387 91.6940117,39.5507825 91.4414062,39.3085938 C91.1888008,39.066405 90.8177108,38.9453125 90.328125,38.9453125 C89.5677045,38.9453125 89.0000019,39.2838508 88.625,39.9609375 L88.625,46 L86.7265625,46 L86.7265625,34 L88.625,34 L88.625,38.46875 Z M95.28125,41.6953125 C95.28125,40.8671834 95.4453109,40.1210971 95.7734375,39.4570312 C96.1015641,38.7929654 96.562497,38.2825539 97.15625,37.9257812 C97.750003,37.5690086 98.4322878,37.390625 99.203125,37.390625 C100.343756,37.390625 101.269528,37.7578088 101.980469,38.4921875 C102.69141,39.2265662 103.075521,40.2005148 103.132812,41.4140625 L103.140625,41.859375 C103.140625,42.6927125 102.98047,43.4374967 102.660156,44.09375 C102.339842,44.7500033 101.881513,45.2578107 101.285156,45.6171875 C100.688799,45.9765643 100.000004,46.15625 99.21875,46.15625 C98.0260357,46.15625 97.0716182,45.7591186 96.3554688,44.9648438 C95.6393193,44.1705689 95.28125,43.1119858 95.28125,41.7890625 L95.28125,41.6953125 Z M97.1796875,41.859375 C97.1796875,42.729171 97.3593732,43.4101538 97.71875,43.9023438 C98.0781268,44.3945337 98.5781218,44.640625 99.21875,44.640625 C99.8593782,44.640625 100.358071,44.3906275 100.714844,43.890625 C101.071616,43.3906225 101.25,42.658859 101.25,41.6953125 C101.25,40.8411416 101.066408,40.164065 100.699219,39.6640625 C100.332029,39.16406 99.8333365,38.9140625 99.203125,38.9140625 C98.5833302,38.9140625 98.0911477,39.1601538 97.7265625,39.6523438 C97.3619773,40.1445337 97.1796875,40.8802034 97.1796875,41.859375 Z M109.171875,39.28125 C108.921874,39.2395831 108.664064,39.21875 108.398438,39.21875 C107.528641,39.21875 106.94271,39.55208 106.640625,40.21875 L106.640625,46 L104.742188,46 L104.742188,37.546875 L106.554688,37.546875 L106.601562,38.4921875 C107.059898,37.7578088 107.695308,37.390625 108.507812,37.390625 C108.778647,37.390625 109.002603,37.427083 109.179688,37.5 L109.171875,39.28125 Z" id="K2-Author" fill="#5D6B82"></path>
    </g>
</svg>