<svg width="148" height="80" viewBox="0 0 148 80" fill="none" xmlns="http://www.w3.org/2000/svg">
<rect width="148" height="80" rx="2" fill="#D1D5DB"/>
<rect x="1" y="1" width="146" height="78" rx="1" fill="#FAFBFB"/>
<path fill-rule="evenodd" clip-rule="evenodd" d="M136 22H12V26H136V22ZM136 30H12V34H136V30ZM12 38H52V42H12V38ZM57.8516 40.6719L56.2109 36.3125H54.9297V42H55.9141V40.125L55.8164 37.6211L57.4922 42H58.1992L59.8789 37.6172L59.7812 40.125V42H60.7656V36.3125H59.4883L57.8516 40.6719ZM61.9141 38.7305C61.75 39.0612 61.668 39.4336 61.668 39.8477V39.8945C61.668 40.556 61.8464 41.0859 62.2031 41.4844C62.5625 41.8802 63.0404 42.0781 63.6367 42.0781C64.0273 42.0781 64.3711 41.9883 64.668 41.8086C64.9674 41.6289 65.1966 41.375 65.3555 41.0469C65.5169 40.7188 65.5977 40.3464 65.5977 39.9297L65.5938 39.707C65.5651 39.1003 65.3724 38.6133 65.0156 38.2461C64.6615 37.8789 64.1992 37.6953 63.6289 37.6953C63.2435 37.6953 62.9023 37.7852 62.6055 37.9648C62.3086 38.1419 62.0781 38.3971 61.9141 38.7305ZM62.8867 40.9531C62.707 40.7057 62.6172 40.3646 62.6172 39.9297C62.6172 39.4401 62.7083 39.0729 62.8906 38.8281C63.0729 38.5807 63.319 38.457 63.6289 38.457C63.944 38.457 64.1927 38.582 64.375 38.832C64.5599 39.082 64.6523 39.4206 64.6523 39.8477C64.6523 40.3294 64.5625 40.6953 64.3828 40.9453C64.2057 41.1953 63.957 41.3203 63.6367 41.3203C63.3164 41.3203 63.0664 41.1979 62.8867 40.9531ZM68.2266 38.6094C68.3594 38.6094 68.4883 38.6198 68.6133 38.6406L68.6172 37.75C68.5286 37.7135 68.4167 37.6953 68.2812 37.6953C67.875 37.6953 67.5573 37.8789 67.3281 38.2461L67.3047 37.7734H66.3984V42H67.3477V39.1094C67.4987 38.776 67.7917 38.6094 68.2266 38.6094ZM69.5312 41.5117C69.9062 41.8893 70.3945 42.0781 70.9961 42.0781C71.3477 42.0781 71.6641 42.0091 71.9453 41.8711C72.2292 41.7305 72.4557 41.5339 72.625 41.2812L72.1133 40.793C71.8398 41.1445 71.4857 41.3203 71.0508 41.3203C70.7409 41.3203 70.4831 41.2188 70.2773 41.0156C70.0742 40.8125 69.9583 40.5365 69.9297 40.1875H72.6914V39.8047C72.6914 39.1328 72.5339 38.6133 72.2188 38.2461C71.9062 37.8789 71.4622 37.6953 70.8867 37.6953C70.5247 37.6953 70.1966 37.7878 69.9023 37.9727C69.6081 38.1576 69.3789 38.4167 69.2148 38.75C69.0534 39.0807 68.9727 39.457 68.9727 39.8789V39.9961C68.9727 40.6263 69.1589 41.1315 69.5312 41.5117ZM70.25 38.7305C70.4115 38.5482 70.6224 38.457 70.8828 38.457C71.1458 38.457 71.3516 38.5391 71.5 38.7031C71.6484 38.8646 71.7331 39.1042 71.7539 39.4219V39.4922H69.9453C69.9896 39.1667 70.0911 38.9128 70.25 38.7305ZM74.4336 41.1523C74.3372 41.0508 74.2005 41 74.0234 41C73.849 41 73.7135 41.0508 73.6172 41.1523C73.5208 41.2513 73.4727 41.3763 73.4727 41.5273C73.4727 41.6784 73.5221 41.8021 73.6211 41.8984C73.7201 41.9948 73.8542 42.043 74.0234 42.043C74.2005 42.043 74.3372 41.9948 74.4336 41.8984C74.5299 41.7995 74.5781 41.6758 74.5781 41.5273C74.5781 41.3763 74.5299 41.2513 74.4336 41.1523ZM76.668 41.1523C76.5716 41.0508 76.4349 41 76.2578 41C76.0833 41 75.9479 41.0508 75.8516 41.1523C75.7552 41.2513 75.707 41.3763 75.707 41.5273C75.707 41.6784 75.7565 41.8021 75.8555 41.8984C75.9544 41.9948 76.0885 42.043 76.2578 42.043C76.4349 42.043 76.5716 41.9948 76.668 41.8984C76.7643 41.7995 76.8125 41.6758 76.8125 41.5273C76.8125 41.3763 76.7643 41.2513 76.668 41.1523ZM78.9023 41.1523C78.806 41.0508 78.6693 41 78.4922 41C78.3177 41 78.1823 41.0508 78.0859 41.1523C77.9896 41.2513 77.9414 41.3763 77.9414 41.5273C77.9414 41.6784 77.9909 41.8021 78.0898 41.8984C78.1888 41.9948 78.3229 42.043 78.4922 42.043C78.6693 42.043 78.806 41.9948 78.9023 41.8984C78.9987 41.7995 79.0469 41.6758 79.0469 41.5273C79.0469 41.3763 78.9987 41.2513 78.9023 41.1523Z" fill="#5D6B82"/>
</svg>
