<svg width="148" height="80" viewBox="0 0 148 80" fill="none" xmlns="http://www.w3.org/2000/svg">
<rect width="148" height="80" rx="2" fill="#D1D5DB"/>
<path fill-rule="evenodd" clip-rule="evenodd" d="M2 1C1.44772 1 1 1.44771 1 2V78C1 78.5523 1.44771 79 2 79H146C146.552 79 147 78.5523 147 78V2C147 1.44772 146.552 1 146 1H2ZM74 28C67.3726 28 62 33.3726 62 40C62 46.6274 67.3726 52 74 52C80.6274 52 86 46.6274 86 40C86 33.3726 80.6274 28 74 28Z" fill="#FAFBFB"/>
<path fill-rule="evenodd" clip-rule="evenodd" d="M55 12H93C97.9706 12 102 16.0294 102 21V59C102 63.9706 97.9706 68 93 68H55C50.0294 68 46 63.9706 46 59V21C46 16.0294 50.0294 12 55 12ZM55 14C51.134 14 48 17.134 48 21V59C48 62.866 51.134 66 55 66H93C96.866 66 100 62.866 100 59V21C100 17.134 96.866 14 93 14H55ZM74 54C66.268 54 60 47.732 60 40C60 32.268 66.268 26 74 26C81.732 26 88 32.268 88 40C88 47.732 81.732 54 74 54ZM74 28C67.3726 28 62 33.3726 62 40C62 46.6274 67.3726 52 74 52C80.6274 52 86 46.6274 86 40C86 33.3726 80.6274 28 74 28ZM91 20C88.7909 20 87 21.7909 87 24C87 26.2091 88.7909 28 91 28C93.2091 28 95 26.2091 95 24C95 21.7909 93.2091 20 91 20Z" fill="#5D6B82"/>
</svg>
