<svg width="148" height="80" viewBox="0 0 148 80" fill="none" xmlns="http://www.w3.org/2000/svg">
<rect width="148" height="80" rx="2" fill="#D1D5DB"/>
<rect x="1" y="1" width="146" height="78" rx="1" fill="#FAFBFB"/>
<path d="M31.3047 40.7734V45H29.3281V33.625H33.6797C34.9505 33.625 35.9583 33.9557 36.7031 34.6172C37.4531 35.2786 37.8281 36.1536 37.8281 37.2422C37.8281 38.3568 37.4609 39.224 36.7266 39.8438C35.9974 40.4635 34.974 40.7734 33.6562 40.7734H31.3047ZM31.3047 39.1875H33.6797C34.3828 39.1875 34.9193 39.0234 35.2891 38.6953C35.6589 38.362 35.8438 37.8828 35.8438 37.2578C35.8438 36.6432 35.6562 36.1536 35.2812 35.7891C34.9062 35.4193 34.3906 35.2292 33.7344 35.2188H31.3047V39.1875ZM43.8047 38.2812C43.5547 38.2396 43.2969 38.2188 43.0312 38.2188C42.1615 38.2188 41.5755 38.5521 41.2734 39.2188V45H39.375V36.5469H41.1875L41.2344 37.4922C41.6927 36.7578 42.3281 36.3906 43.1406 36.3906C43.4115 36.3906 43.6354 36.4271 43.8125 36.5L43.8047 38.2812ZM44.3672 40.6953C44.3672 39.8672 44.5312 39.1224 44.8594 38.4609C45.1875 37.7943 45.6484 37.2839 46.2422 36.9297C46.8359 36.5703 47.5182 36.3906 48.2891 36.3906C49.4297 36.3906 50.3542 36.7578 51.0625 37.4922C51.776 38.2266 52.1615 39.2005 52.2188 40.4141L52.2266 40.8594C52.2266 41.6927 52.0651 42.4375 51.7422 43.0938C51.4245 43.75 50.9661 44.2578 50.3672 44.6172C49.7734 44.9766 49.0859 45.1562 48.3047 45.1562C47.112 45.1562 46.1562 44.7604 45.4375 43.9688C44.724 43.1719 44.3672 42.112 44.3672 40.7891V40.6953ZM46.2656 40.8594C46.2656 41.7292 46.4453 42.4115 46.8047 42.9062C47.1641 43.3958 47.6641 43.6406 48.3047 43.6406C48.9453 43.6406 49.4427 43.3906 49.7969 42.8906C50.1562 42.3906 50.3359 41.6589 50.3359 40.6953C50.3359 39.8411 50.151 39.1641 49.7812 38.6641C49.4167 38.1641 48.9193 37.9141 48.2891 37.9141C47.6693 37.9141 47.1771 38.1615 46.8125 38.6562C46.4479 39.1458 46.2656 39.8802 46.2656 40.8594ZM53.4766 40.7109C53.4766 39.4089 53.7786 38.3646 54.3828 37.5781C54.987 36.7865 55.7969 36.3906 56.8125 36.3906C57.7083 36.3906 58.4323 36.7031 58.9844 37.3281V33H60.8828V45H59.1641L59.0703 44.125C58.5026 44.8125 57.7448 45.1562 56.7969 45.1562C55.8073 45.1562 55.0052 44.7578 54.3906 43.9609C53.7812 43.1641 53.4766 42.0807 53.4766 40.7109ZM55.375 40.875C55.375 41.7344 55.5391 42.4062 55.8672 42.8906C56.2005 43.3698 56.6719 43.6094 57.2812 43.6094C58.0573 43.6094 58.625 43.263 58.9844 42.5703V38.9609C58.6354 38.2839 58.0729 37.9453 57.2969 37.9453C56.6823 37.9453 56.2083 38.1901 55.875 38.6797C55.5417 39.1641 55.375 39.8958 55.375 40.875ZM67.9844 44.1719C67.4271 44.8281 66.6354 45.1562 65.6094 45.1562C64.6927 45.1562 63.9974 44.888 63.5234 44.3516C63.0547 43.8151 62.8203 43.0391 62.8203 42.0234V36.5469H64.7188V42C64.7188 43.0729 65.1641 43.6094 66.0547 43.6094C66.9766 43.6094 67.599 43.2786 67.9219 42.6172V36.5469H69.8203V45H68.0312L67.9844 44.1719ZM75.2266 43.6406C75.7005 43.6406 76.0938 43.5026 76.4062 43.2266C76.7188 42.9505 76.8854 42.6094 76.9062 42.2031H78.6953C78.6745 42.7292 78.5104 43.2214 78.2031 43.6797C77.8958 44.1328 77.4792 44.4922 76.9531 44.7578C76.4271 45.0234 75.8594 45.1562 75.25 45.1562C74.0677 45.1562 73.1302 44.7734 72.4375 44.0078C71.7448 43.2422 71.3984 42.1849 71.3984 40.8359V40.6406C71.3984 39.3542 71.7422 38.3255 72.4297 37.5547C73.1172 36.7786 74.0547 36.3906 75.2422 36.3906C76.2474 36.3906 77.0651 36.6849 77.6953 37.2734C78.3307 37.8568 78.6641 38.625 78.6953 39.5781H76.9062C76.8854 39.0938 76.7188 38.6953 76.4062 38.3828C76.099 38.0703 75.7057 37.9141 75.2266 37.9141C74.612 37.9141 74.138 38.138 73.8047 38.5859C73.4714 39.0286 73.3021 39.7031 73.2969 40.6094V40.9141C73.2969 41.8307 73.4609 42.5156 73.7891 42.9688C74.1224 43.4167 74.6016 43.6406 75.2266 43.6406ZM82.5078 34.4922V36.5469H84V37.9531H82.5078V42.6719C82.5078 42.9948 82.5703 43.2292 82.6953 43.375C82.8255 43.5156 83.0547 43.5859 83.3828 43.5859C83.6016 43.5859 83.8229 43.5599 84.0469 43.5078V44.9766C83.6146 45.0964 83.1979 45.1562 82.7969 45.1562C81.3385 45.1562 80.6094 44.3516 80.6094 42.7422V37.9531H79.2188V36.5469H80.6094V34.4922H82.5078ZM97.375 35.2188H93.8281V45H91.8672V35.2188H88.3516V33.625H97.375V35.2188ZM100.711 45H98.8125V36.5469H100.711V45ZM98.6953 34.3516C98.6953 34.0599 98.7865 33.8177 98.9688 33.625C99.1562 33.4323 99.4219 33.3359 99.7656 33.3359C100.109 33.3359 100.375 33.4323 100.562 33.625C100.75 33.8177 100.844 34.0599 100.844 34.3516C100.844 34.638 100.75 34.8776 100.562 35.0703C100.375 35.2578 100.109 35.3516 99.7656 35.3516C99.4219 35.3516 99.1562 35.2578 98.9688 35.0703C98.7865 34.8776 98.6953 34.638 98.6953 34.3516ZM105.164 34.4922V36.5469H106.656V37.9531H105.164V42.6719C105.164 42.9948 105.227 43.2292 105.352 43.375C105.482 43.5156 105.711 43.5859 106.039 43.5859C106.258 43.5859 106.479 43.5599 106.703 43.5078V44.9766C106.271 45.0964 105.854 45.1562 105.453 45.1562C103.995 45.1562 103.266 44.3516 103.266 42.7422V37.9531H101.875V36.5469H103.266V34.4922H105.164ZM110.133 45H108.234V33H110.133V45ZM115.93 45.1562C114.727 45.1562 113.75 44.7786 113 44.0234C112.255 43.263 111.883 42.2526 111.883 40.9922V40.7578C111.883 39.9141 112.044 39.1615 112.367 38.5C112.695 37.8333 113.154 37.3151 113.742 36.9453C114.331 36.5755 114.987 36.3906 115.711 36.3906C116.862 36.3906 117.75 36.7578 118.375 37.4922C119.005 38.2266 119.32 39.2656 119.32 40.6094V41.375H113.797C113.854 42.0729 114.086 42.625 114.492 43.0312C114.904 43.4375 115.419 43.6406 116.039 43.6406C116.909 43.6406 117.617 43.2891 118.164 42.5859L119.188 43.5625C118.849 44.0677 118.396 44.4609 117.828 44.7422C117.266 45.0182 116.633 45.1562 115.93 45.1562ZM115.703 37.9141C115.182 37.9141 114.76 38.0964 114.438 38.4609C114.12 38.8255 113.917 39.3333 113.828 39.9844H117.445V39.8438C117.404 39.2083 117.234 38.7292 116.938 38.4062C116.641 38.0781 116.229 37.9141 115.703 37.9141Z" fill="#5D6B82"/>
</svg>
