<svg width="148" height="80" viewBox="0 0 148 80" fill="none" xmlns="http://www.w3.org/2000/svg">
<rect width="148" height="80" rx="2" fill="#D1D5DB"/>
<rect x="1" y="1" width="146" height="78" rx="1" fill="#FAFBFB"/>
<path fill-rule="evenodd" clip-rule="evenodd" d="M50.167 41.6748C50.167 40.21 50.5068 39.0352 51.1865 38.1504C51.8662 37.2598 52.7773 36.8145 53.9199 36.8145C54.9277 36.8145 55.7422 37.166 56.3633 37.8691V33H58.499V46.5H56.5654L56.46 45.5156C55.8213 46.2891 54.9688 46.6758 53.9023 46.6758C52.7891 46.6758 51.8867 46.2275 51.1953 45.3311C50.5098 44.4346 50.167 43.2158 50.167 41.6748ZM52.3027 41.8594C52.3027 42.8262 52.4873 43.582 52.8564 44.127C53.2314 44.666 53.7617 44.9355 54.4473 44.9355C55.3203 44.9355 55.959 44.5459 56.3633 43.7666V39.7061C55.9707 38.9443 55.3379 38.5635 54.4648 38.5635C53.7734 38.5635 53.2402 38.8389 52.8652 39.3896C52.4902 39.9346 52.3027 40.7578 52.3027 41.8594ZM25.2236 41.7451V46.5H23V33.7031H27.8955C29.3252 33.7031 30.459 34.0752 31.2969 34.8193C32.1406 35.5635 32.5625 36.5479 32.5625 37.7725C32.5625 39.0264 32.1494 40.002 31.3232 40.6992C30.5029 41.3965 29.3516 41.7451 27.8691 41.7451H25.2236ZM25.2236 39.9609H27.8955C28.6865 39.9609 29.29 39.7764 29.7061 39.4072C30.1221 39.0322 30.3301 38.4932 30.3301 37.79C30.3301 37.0986 30.1191 36.5479 29.6973 36.1377C29.2754 35.7217 28.6953 35.5078 27.957 35.4961H25.2236V39.9609ZM39.2861 38.9414C39.0049 38.8945 38.7148 38.8711 38.416 38.8711C37.4375 38.8711 36.7783 39.2461 36.4385 39.9961V46.5H34.3027V36.9902H36.3418L36.3945 38.0537C36.9102 37.2275 37.625 36.8145 38.5391 36.8145C38.8438 36.8145 39.0957 36.8555 39.2949 36.9375L39.2861 38.9414ZM40.4727 39.1436C40.1035 39.8877 39.9189 40.7256 39.9189 41.6572V41.7627C39.9189 43.251 40.3203 44.4434 41.123 45.3398C41.9316 46.2305 43.0068 46.6758 44.3486 46.6758C45.2275 46.6758 46.001 46.4736 46.6689 46.0693C47.3428 45.665 47.8584 45.0938 48.2158 44.3555C48.5791 43.6172 48.7607 42.7793 48.7607 41.8418L48.752 41.3408C48.6875 39.9756 48.2539 38.8799 47.4512 38.0537C46.6543 37.2275 45.6143 36.8145 44.3311 36.8145C43.4639 36.8145 42.6963 37.0166 42.0283 37.4209C41.3604 37.8193 40.8418 38.3936 40.4727 39.1436ZM42.6611 44.1445C42.2568 43.5879 42.0547 42.8203 42.0547 41.8418C42.0547 40.7402 42.2598 39.9141 42.6699 39.3633C43.0801 38.8066 43.6338 38.5283 44.3311 38.5283C45.04 38.5283 45.5996 38.8096 46.0098 39.3721C46.4258 39.9346 46.6338 40.6963 46.6338 41.6572C46.6338 42.7412 46.4316 43.5645 46.0273 44.127C45.6289 44.6895 45.0693 44.9707 44.3486 44.9707C43.6279 44.9707 43.0654 44.6953 42.6611 44.1445ZM63.8164 46.6758C64.9707 46.6758 65.8613 46.3066 66.4883 45.5684L66.541 46.5H68.5537V36.9902H66.418V43.8193C66.0547 44.5635 65.3545 44.9355 64.3174 44.9355C63.3154 44.9355 62.8145 44.332 62.8145 43.125V36.9902H60.6787V43.1514C60.6787 44.2939 60.9424 45.167 61.4697 45.7705C62.0029 46.374 62.7852 46.6758 63.8164 46.6758ZM74.6357 44.9707C75.1689 44.9707 75.6113 44.8154 75.9629 44.5049C76.3145 44.1943 76.502 43.8105 76.5254 43.3535H78.5381C78.5146 43.9453 78.3301 44.499 77.9844 45.0146C77.6387 45.5244 77.1699 45.9287 76.5781 46.2275C75.9863 46.5264 75.3477 46.6758 74.6621 46.6758C73.332 46.6758 72.2773 46.2451 71.498 45.3838C70.7188 44.5225 70.3291 43.333 70.3291 41.8154V41.5957C70.3291 40.1484 70.7158 38.9912 71.4893 38.124C72.2627 37.251 73.3174 36.8145 74.6533 36.8145C75.7842 36.8145 76.7041 37.1455 77.4131 37.8076C78.1279 38.4639 78.5029 39.3281 78.5381 40.4004H76.5254C76.502 39.8555 76.3145 39.4072 75.9629 39.0557C75.6172 38.7041 75.1748 38.5283 74.6357 38.5283C73.9443 38.5283 73.4111 38.7803 73.0361 39.2842C72.6611 39.7822 72.4707 40.541 72.4648 41.5605V41.9033C72.4648 42.9346 72.6494 43.7051 73.0186 44.2148C73.3936 44.7188 73.9326 44.9707 74.6357 44.9707ZM82.8271 36.9902V34.6787H80.6914V36.9902H79.127V38.5723H80.6914V43.96C80.6914 45.7705 81.5117 46.6758 83.1523 46.6758C83.6035 46.6758 84.0723 46.6084 84.5586 46.4736V44.8213C84.3066 44.8799 84.0576 44.9092 83.8115 44.9092C83.4424 44.9092 83.1846 44.8301 83.0381 44.6719C82.8975 44.5078 82.8271 44.2441 82.8271 43.8809V38.5723H84.5059V36.9902H82.8271ZM99.5527 35.4961H95.5625V46.5H93.3564V35.4961H89.4014V33.7031H99.5527V35.4961ZM101.17 46.5H103.306V36.9902H101.17V46.5ZM101.346 33.7031C101.141 33.9199 101.038 34.1924 101.038 34.5205C101.038 34.8428 101.141 35.1123 101.346 35.3291C101.557 35.54 101.855 35.6455 102.242 35.6455C102.629 35.6455 102.928 35.54 103.139 35.3291C103.35 35.1123 103.455 34.8428 103.455 34.5205C103.455 34.1924 103.35 33.9199 103.139 33.7031C102.928 33.4863 102.629 33.3779 102.242 33.3779C101.855 33.3779 101.557 33.4863 101.346 33.7031ZM108.315 34.6787V36.9902H109.994V38.5723H108.315V43.8809C108.315 44.2441 108.386 44.5078 108.526 44.6719C108.673 44.8301 108.931 44.9092 109.3 44.9092C109.546 44.9092 109.795 44.8799 110.047 44.8213V46.4736C109.561 46.6084 109.092 46.6758 108.641 46.6758C107 46.6758 106.18 45.7705 106.18 43.96V38.5723H104.615V36.9902H106.18V34.6787H108.315ZM111.77 46.5H113.905V33H111.77V46.5ZM120.427 46.6758C119.073 46.6758 117.975 46.251 117.131 45.4014C116.293 44.5459 115.874 43.4092 115.874 41.9912V41.7275C115.874 40.7783 116.056 39.9316 116.419 39.1875C116.788 38.4375 117.304 37.8545 117.966 37.4385C118.628 37.0225 119.366 36.8145 120.181 36.8145C121.476 36.8145 122.475 37.2275 123.178 38.0537C123.887 38.8799 124.241 40.0488 124.241 41.5605V42.4219H118.027C118.092 43.207 118.353 43.8281 118.81 44.2852C119.272 44.7422 119.853 44.9707 120.55 44.9707C121.528 44.9707 122.325 44.5752 122.94 43.7842L124.092 44.8828C123.711 45.4512 123.201 45.8936 122.562 46.21C121.93 46.5205 121.218 46.6758 120.427 46.6758ZM120.172 38.5283C119.586 38.5283 119.111 38.7334 118.748 39.1436C118.391 39.5537 118.162 40.125 118.062 40.8574H122.132V40.6992C122.085 39.9844 121.895 39.4453 121.561 39.082C121.227 38.7129 120.764 38.5283 120.172 38.5283ZM96.354 51.8181V51.0909H94.7069V51.8181V54H95.5304V51.8181H96.3527V52.5454H97.1762V51.8181H96.354ZM88.1197 46H89.7667V46.7272H88.1197V46ZM86.4691 55.4544H85.6454V56.909H86.4687V58.3635H87.2921V59.8181H88.1158V58.3635H87.2923V56.9089H86.4691V55.4544ZM96.3525 59.8181H95.5302V61.2727H88.9427V59.8181H88.1192V61.2727H88.1158V62H88.1192H88.9427H95.5302H96.3511H96.3538V59.8181H97.176V57.6364H96.3525V59.8181ZM86.4672 53.2726H84.8234V54.7272H85.6436V55.4544H84.8202V54.7272H84V52.5454H84.8202H84.8234H86.4672V53.2726ZM92.2316 53.2726H93.0552V51.0909H94.7057V50.3635H92.2352V51.0909H92.2316V53.2726ZM92.2315 50.3636H90.5913V53.2727H89.7679V46.7272H90.5913V48H124V49H90.5913V49.6364H92.2315V50.3636ZM87.2923 54.7272H88.1158V46.7272H87.2923V48H23V49H87.2923V53.2727H86.4687V54H87.2923V54.7272ZM97.1762 52.5454H98V57.6363H97.1762V52.5454Z" fill="#5D6B82"/>
</svg>
