<?xml version="1.0" encoding="UTF-8"?>
<svg width="148px" height="80px" viewBox="0 0 148 80" version="1.1" xmlns="http://www.w3.org/2000/svg" xmlns:xlink="http://www.w3.org/1999/xlink">
    <!-- Generator: Sketch 50.2 (55047) - http://www.bohemiancoding.com/sketch -->
    <title>JSN Uniform Copy</title>
    <desc>Created with Sketch.</desc>
    <defs>
        <polygon id="path-1" points="0 0 40.9635146 0 40.9635146 40.9582261 0 40.9582261"></polygon>
    </defs>
    <g id="JSN-Uniform-Copy" stroke="none" stroke-width="1" fill="none" fill-rule="evenodd">
        <rect id="Rectangle-4" fill="#D1D5DB" x="0" y="0" width="148" height="80" rx="2"></rect>
        <rect id="Rectangle-3" fill="#FAFBFB" x="1" y="1" width="146" height="78" rx="1"></rect>
        <g id="Group" transform="translate(20.000000, 20.000000)">
            <path d="M52.0859375,13.046875 L53.8085938,13.046875 L53.8085938,20.0263672 C53.8085938,20.9788459 53.5112334,21.7353488 52.9165039,22.2958984 C52.3217744,22.8564481 51.5367887,23.1367188 50.5615234,23.1367188 C49.5224557,23.1367188 48.7203804,22.8746771 48.1552734,22.3505859 C47.5901664,21.8264948 47.3076172,21.0973354 47.3076172,20.1630859 L49.0302734,20.1630859 C49.0302734,20.6917344 49.1612943,21.0893541 49.4233398,21.355957 C49.6853854,21.6225599 50.0647762,21.7558594 50.5615234,21.7558594 C51.0263695,21.7558594 51.3966458,21.6020523 51.6723633,21.2944336 C51.9480808,20.9868149 52.0859375,20.5618517 52.0859375,20.0195312 L52.0859375,13.046875 Z M60.9863281,20.4365234 C60.9863281,19.9990212 60.8325211,19.661785 60.5249023,19.4248047 C60.2172836,19.1878243 59.6624389,18.9485689 58.8603516,18.7070312 C58.0582642,18.4654936 57.4202498,18.1966161 56.9462891,17.9003906 C56.0393835,17.3307263 55.5859375,16.5878952 55.5859375,15.671875 C55.5859375,14.8697877 55.9129199,14.208987 56.5668945,13.6894531 C57.2208692,13.1699193 58.0696562,12.9101562 59.1132812,12.9101562 C59.805993,12.9101562 60.4234999,13.0377591 60.9658203,13.2929688 C61.5081407,13.5481784 61.9342432,13.9116187 62.2441406,14.3833008 C62.554038,14.8549828 62.7089844,15.3779268 62.7089844,15.9521484 L60.9863281,15.9521484 C60.9863281,15.4326146 60.8234066,15.0258804 60.4975586,14.7319336 C60.1717106,14.4379868 59.7057322,14.2910156 59.0996094,14.2910156 C58.5345024,14.2910156 58.0958674,14.4117826 57.7836914,14.6533203 C57.4715154,14.894858 57.3154297,15.2320942 57.3154297,15.6650391 C57.3154297,16.0296242 57.4840478,16.3338204 57.8212891,16.5776367 C58.1585303,16.821453 58.7145144,17.0584298 59.4892578,17.2885742 C60.2640013,17.5187186 60.8860654,17.7807602 61.3554688,18.074707 C61.8248721,18.3686538 62.1689442,18.70589 62.3876953,19.0864258 C62.6064464,19.4669615 62.7158203,19.9124323 62.7158203,20.4228516 C62.7158203,21.2522828 62.3979524,21.9119442 61.762207,22.4018555 C61.1264617,22.8917668 60.2640028,23.1367188 59.1748047,23.1367188 C58.454749,23.1367188 57.792809,23.0034193 57.1889648,22.7368164 C56.5851207,22.4702135 56.1157243,22.1022159 55.7807617,21.6328125 C55.4457991,21.1634091 55.2783203,20.6165396 55.2783203,19.9921875 L57.0078125,19.9921875 C57.0078125,20.5572945 57.1946596,20.9947901 57.5683594,21.3046875 C57.9420592,21.6145849 58.4775356,21.7695312 59.1748047,21.7695312 C59.7763702,21.7695312 60.2286769,21.6476249 60.5317383,21.4038086 C60.8347997,21.1599923 60.9863281,20.8375671 60.9863281,20.4365234 Z M72.1289062,23 L70.3994141,23 L65.9628906,15.9384766 L65.9628906,23 L64.2333984,23 L64.2333984,13.046875 L65.9628906,13.046875 L70.4130859,20.1357422 L70.4130859,13.046875 L72.1289062,13.046875 L72.1289062,23 Z M55.2919922,28.046875 L55.2919922,34.6982422 C55.2919922,35.7555391 54.9536167,36.5929331 54.2768555,37.2104492 C53.6000943,37.8279653 52.6988989,38.1367188 51.5732422,38.1367188 C50.4339136,38.1367188 49.5293002,37.8325226 48.859375,37.2241211 C48.1894498,36.6157196 47.8544922,35.7714898 47.8544922,34.6914062 L47.8544922,28.046875 L49.5771484,28.046875 L49.5771484,34.7050781 C49.5771484,35.370446 49.7457665,35.878579 50.0830078,36.2294922 C50.4202491,36.5804054 50.9169889,36.7558594 51.5732422,36.7558594 C52.903978,36.7558594 53.5693359,36.0540435 53.5693359,34.6503906 L53.5693359,28.046875 L55.2919922,28.046875 Z M65.0332031,38 L63.3037109,38 L58.8671875,30.9384766 L58.8671875,38 L57.1376953,38 L57.1376953,28.046875 L58.8671875,28.046875 L63.3173828,35.1357422 L63.3173828,28.046875 L65.0332031,28.046875 L65.0332031,38 Z M68.9023438,38 L67.1796875,38 L67.1796875,28.046875 L68.9023438,28.046875 L68.9023438,38 Z M76.7636719,33.7822266 L72.7578125,33.7822266 L72.7578125,38 L71.0283203,38 L71.0283203,28.046875 L77.3515625,28.046875 L77.3515625,29.4414062 L72.7578125,29.4414062 L72.7578125,32.4013672 L76.7636719,32.4013672 L76.7636719,33.7822266 Z M86.6621094,33.2832031 C86.6621094,34.2584684 86.4934913,35.1140914 86.15625,35.8500977 C85.8190087,36.5861039 85.33708,37.1512025 84.7104492,37.5454102 C84.0838185,37.9396179 83.3626343,38.1367188 82.546875,38.1367188 C81.7402303,38.1367188 81.0213248,37.9396179 80.3901367,37.5454102 C79.7589487,37.1512025 79.2713233,36.5895219 78.9272461,35.8603516 C78.5831689,35.1311812 78.4088542,34.2903693 78.4042969,33.3378906 L78.4042969,32.7773438 C78.4042969,31.8066358 78.5763329,30.9498735 78.9204102,30.2070312 C79.2644874,29.464189 79.7498341,28.8956725 80.3764648,28.5014648 C81.0030956,28.1072571 81.7220012,27.9101562 82.5332031,27.9101562 C83.3444051,27.9101562 84.0633107,28.1049785 84.6899414,28.4946289 C85.3165721,28.8842793 85.8007795,29.4448206 86.1425781,30.1762695 C86.4843767,30.9077185 86.6575521,31.7587842 86.6621094,32.7294922 L86.6621094,33.2832031 Z M84.9326172,32.7636719 C84.9326172,31.6608018 84.7241232,30.8154326 84.3071289,30.2275391 C83.8901346,29.6396455 83.298832,29.3457031 82.5332031,29.3457031 C81.7858036,29.3457031 81.2013367,29.6385062 80.7797852,30.2241211 C80.3582336,30.809736 80.1429037,31.6380155 80.1337891,32.7089844 L80.1337891,33.2832031 C80.1337891,34.3769586 80.3468403,35.2223277 80.7729492,35.8193359 C81.1990581,36.4163441 81.7903608,36.7148438 82.546875,36.7148438 C83.3125038,36.7148438 83.9015279,36.42318 84.3139648,35.8398438 C84.7264018,35.2565075 84.9326172,34.4043025 84.9326172,33.2832031 L84.9326172,32.7636719 Z M92.0419922,34.1650391 L90.1142578,34.1650391 L90.1142578,38 L88.3847656,38 L88.3847656,28.046875 L91.8847656,28.046875 C93.0332089,28.046875 93.9195932,28.3043594 94.5439453,28.8193359 C95.1682974,29.3343125 95.4804688,30.0794222 95.4804688,31.0546875 C95.4804688,31.7200554 95.3198258,32.2771787 94.9985352,32.7260742 C94.6772445,33.1749697 94.2294951,33.5201811 93.6552734,33.7617188 L95.890625,37.9111328 L95.890625,38 L94.0380859,38 L92.0419922,34.1650391 Z M90.1142578,32.7773438 L91.8916016,32.7773438 C92.4749378,32.7773438 92.9306624,32.6303726 93.2587891,32.3364258 C93.5869157,32.042479 93.7509766,31.640302 93.7509766,31.1298828 C93.7509766,30.596677 93.5994481,30.1842463 93.2963867,29.8925781 C92.9933253,29.60091 92.5410186,29.4505209 91.9394531,29.4414062 L90.1142578,29.4414062 L90.1142578,32.7773438 Z M99.3632812,28.046875 L102.234375,35.6757812 L105.098633,28.046875 L107.333984,28.046875 L107.333984,38 L105.611328,38 L105.611328,34.71875 L105.782227,30.3300781 L102.842773,38 L101.605469,38 L98.6728516,30.3369141 L98.84375,34.71875 L98.84375,38 L97.1210938,38 L97.1210938,28.046875 L99.3632812,28.046875 Z" id="JSN-UNIFORM" fill="#5D6B82"></path>
            <g id="Group-4">
                <g id="Group-3">
                    <mask id="mask-2" fill="white">
                        <use xlink:href="#path-1"></use>
                    </mask>
                    <g id="Clip-2"></g>
                    <path d="M38.1755791,0.502374382 L38.174842,0.502374382 L2.77562629,0.513983371 C1.49872966,0.51435191 0.460185843,1.55354067 0.460646517,2.8304373 L0.472255506,38.2244013 C0.47271618,39.5009294 1.51162854,40.5391969 2.78797236,40.539289 L2.78870944,40.539289 L38.1879252,40.52768 C39.4648218,40.5273115 40.5033656,39.4881227 40.5029049,38.2113182 L40.491296,2.81726202 C40.4908353,1.54073393 39.4520151,0.502374382 38.1755791,0.502374382 Z M2.78797236,40.9999631 C1.25761281,40.9999631 0.0122262921,39.7551294 0.0115813483,38.2245856 L-2.76404494e-05,2.83062157 C-0.000488314607,1.29961708 1.2446218,0.0537698876 2.77544202,0.0533092135 L38.1746578,0.0417002247 L38.1755791,0.0417002247 C39.7060308,0.0417002247 40.9515094,1.28653393 40.9519701,2.81716989 L40.9635791,38.2111339 C40.9640398,39.7420463 39.7189297,40.9878935 38.1881094,40.9883542 L38.1880173,40.7580171 L38.1881094,40.9883542 L2.78889371,40.9999631 L2.78797236,40.9999631 Z" id="Fill-1" fill="#5D6B82" mask="url(#mask-2)"></path>
                </g>
                <path d="M33.2241741,10.7159091 L8.24173504,10.7159091 C7.80694794,10.7159091 7.45454545,10.4029654 7.45454545,10.0170455 C7.45454545,9.63104328 7.80694794,9.31818182 8.24173504,9.31818182 L33.2241741,9.31818182 C33.6588686,9.31818182 34.0113636,9.63104328 34.0113636,10.0170455 C34.0113636,10.4029654 33.6588686,10.7159091 33.2241741,10.7159091" id="Fill-4" fill="#5D6B82"></path>
                <path d="M33.2241741,16.3068182 L8.24173504,16.3068182 C7.80694794,16.3068182 7.45454545,15.9939567 7.45454545,15.6079545 C7.45454545,15.2219524 7.80694794,14.9090909 8.24173504,14.9090909 L33.2241741,14.9090909 C33.6588686,14.9090909 34.0113636,15.2219524 34.0113636,15.6079545 C34.0113636,15.9939567 33.6588686,16.3068182 33.2241741,16.3068182" id="Fill-6" fill="#5D6B82"></path>
                <path d="M33.2241741,21.4318182 L8.24173504,21.4318182 C7.80694794,21.4318182 7.45454545,21.1188745 7.45454545,20.7329545 C7.45454545,20.3469524 7.80694794,20.0340909 8.24173504,20.0340909 L33.2241741,20.0340909 C33.6588686,20.0340909 34.0113636,20.3469524 34.0113636,20.7329545 C34.0113636,21.1188745 33.6588686,21.4318182 33.2241741,21.4318182" id="Fill-8" fill="#5D6B82"></path>
                <path d="M33.2241741,26.5568182 L8.24173504,26.5568182 C7.80694794,26.5568182 7.45454545,26.2439567 7.45454545,25.8579545 C7.45454545,25.4719524 7.80694794,25.1590909 8.24173504,25.1590909 L33.2241741,25.1590909 C33.6588686,25.1590909 34.0113636,25.4719524 34.0113636,25.8579545 C34.0113636,26.2439567 33.6588686,26.5568182 33.2241741,26.5568182" id="Fill-10" fill="#5D6B82"></path>
                <path d="M32.5350661,33.0795455 L23.8399339,33.0795455 C23.0246136,33.0795455 22.3636364,32.4537265 22.3636364,31.681774 C22.3636364,30.9099099 23.0246136,30.2840909 23.8399339,30.2840909 L32.5350661,30.2840909 C33.3502931,30.2840909 34.0113636,30.9099099 34.0113636,31.681774 C34.0113636,32.4537265 33.3502931,33.0795455 32.5350661,33.0795455" id="Fill-12" fill="#5D6B82"></path>
            </g>
        </g>
    </g>
</svg>