<?xml version="1.0" encoding="UTF-8"?>
<svg width="148px" height="80px" viewBox="0 0 148 80" version="1.1" xmlns="http://www.w3.org/2000/svg" xmlns:xlink="http://www.w3.org/1999/xlink">
    <!-- Generator: Sketch 50.2 (55047) - http://www.bohemiancoding.com/sketch -->
    <title>K2 Date Copy</title>
    <desc>Created with Sketch.</desc>
    <defs></defs>
    <g id="K2-Date-Copy" stroke="none" stroke-width="1" fill="none" fill-rule="evenodd">
        <rect id="Rectangle-4" fill="#D1D5DB" x="0" y="0" width="148" height="80" rx="2"></rect>
        <rect id="Rectangle-3" fill="#FAFBFB" x="1" y="1" width="146" height="78" rx="1"></rect>
        <path d="M50.265625,40.6171875 L48.9765625,41.984375 L48.9765625,45.53125 L47,45.53125 L47,34.15625 L48.9765625,34.15625 L48.9765625,39.4921875 L50.0703125,38.140625 L53.3984375,34.15625 L55.7890625,34.15625 L51.5625,39.1953125 L56.03125,45.53125 L53.6875,45.53125 L50.265625,40.6171875 Z M64.4296875,45.53125 L56.78125,45.53125 L56.78125,44.2265625 L60.5703125,40.09375 C61.1171902,39.484372 61.5065093,38.9752625 61.7382812,38.5664062 C61.9700532,38.15755 62.0859375,37.7473979 62.0859375,37.3359375 C62.0859375,36.7942681 61.9335953,36.3567725 61.6289062,36.0234375 C61.3242172,35.6901025 60.9140651,35.5234375 60.3984375,35.5234375 C59.7838511,35.5234375 59.3072934,35.7109356 58.96875,36.0859375 C58.6302066,36.4609394 58.4609375,36.9739551 58.4609375,37.625 L56.5625,37.625 C56.5625,36.9322882 56.7200505,36.3085965 57.0351562,35.7539062 C57.350262,35.199216 57.8007783,34.7682307 58.3867188,34.4609375 C58.9726592,34.1536443 59.6484337,34 60.4140625,34 C61.5182347,34 62.3893197,34.277341 63.0273438,34.8320312 C63.6653678,35.3867215 63.984375,36.1536409 63.984375,37.1328125 C63.984375,37.7005237 63.8242204,38.2955698 63.5039062,38.9179688 C63.1835921,39.5403677 62.6588578,40.2473919 61.9296875,41.0390625 L59.1484375,44.015625 L64.4296875,44.015625 L64.4296875,45.53125 Z M70.1640625,45.53125 L70.1640625,34.15625 L73.5234375,34.15625 C74.5286509,34.15625 75.420569,34.3802061 76.1992188,34.828125 C76.9778685,35.2760439 77.580727,35.9114542 78.0078125,36.734375 C78.434898,37.5572958 78.6484375,38.4999947 78.6484375,39.5625 L78.6484375,40.1328125 C78.6484375,41.2109429 78.4335959,42.1588501 78.0039062,42.9765625 C77.5742166,43.7942749 76.9622436,44.424477 76.1679688,44.8671875 C75.3736939,45.309898 74.4635468,45.53125 73.4375,45.53125 L70.1640625,45.53125 Z M72.140625,35.75 L72.140625,43.953125 L73.4296875,43.953125 C74.466151,43.953125 75.261716,43.6289095 75.8164062,42.9804688 C76.3710965,42.332028 76.6536458,41.4010477 76.6640625,40.1875 L76.6640625,39.5546875 C76.6640625,38.3203063 76.395836,37.3776074 75.859375,36.7265625 C75.322914,36.0755176 74.5442759,35.75 73.5234375,35.75 L72.140625,35.75 Z M85.484375,45.53125 C85.4010412,45.3697909 85.3281253,45.1067727 85.265625,44.7421875 C84.6614553,45.372399 83.9218794,45.6875 83.046875,45.6875 C82.1979124,45.6875 81.505211,45.4453149 80.96875,44.9609375 C80.432289,44.4765601 80.1640625,43.8776077 80.1640625,43.1640625 C80.1640625,42.2630163 80.4986946,41.571617 81.1679688,41.0898438 C81.8372429,40.6080705 82.7942646,40.3671875 84.0390625,40.3671875 L85.203125,40.3671875 L85.203125,39.8125 C85.203125,39.3749978 85.0807304,39.0247409 84.8359375,38.7617188 C84.5911446,38.4986966 84.2187525,38.3671875 83.71875,38.3671875 C83.2864562,38.3671875 82.932293,38.4752593 82.65625,38.6914062 C82.380207,38.9075532 82.2421875,39.18229 82.2421875,39.515625 L80.34375,39.515625 C80.34375,39.052081 80.4973943,38.6184916 80.8046875,38.2148438 C81.1119807,37.8111959 81.5299453,37.4947928 82.0585938,37.265625 C82.5872422,37.0364572 83.1770801,36.921875 83.828125,36.921875 C84.8177133,36.921875 85.6067679,37.1705704 86.1953125,37.6679688 C86.7838571,38.1653671 87.0859374,38.8645788 87.1015625,39.765625 L87.1015625,43.578125 C87.1015625,44.3385455 87.2083323,44.9453102 87.421875,45.3984375 L87.421875,45.53125 L85.484375,45.53125 Z M83.3984375,44.1640625 C83.7734394,44.1640625 84.1263004,44.0729176 84.4570312,43.890625 C84.7877621,43.7083324 85.0364575,43.4635432 85.203125,43.15625 L85.203125,41.5625 L84.1796875,41.5625 C83.476559,41.5625 82.9479184,41.6848946 82.59375,41.9296875 C82.2395816,42.1744804 82.0625,42.5208311 82.0625,42.96875 C82.0625,43.3333352 82.1835925,43.6236968 82.4257812,43.8398438 C82.66797,44.0559907 82.9921855,44.1640625 83.3984375,44.1640625 Z M91.46875,35.0234375 L91.46875,37.078125 L92.9609375,37.078125 L92.9609375,38.484375 L91.46875,38.484375 L91.46875,43.203125 C91.46875,43.5260433 91.5325514,43.7591139 91.6601562,43.9023438 C91.7877611,44.0455736 92.0156234,44.1171875 92.34375,44.1171875 C92.5625011,44.1171875 92.783853,44.0911461 93.0078125,44.0390625 L93.0078125,45.5078125 C92.5755187,45.6276048 92.1588562,45.6875 91.7578125,45.6875 C90.2994719,45.6875 89.5703125,44.8828205 89.5703125,43.2734375 L89.5703125,38.484375 L88.1796875,38.484375 L88.1796875,37.078125 L89.5703125,37.078125 L89.5703125,35.0234375 L91.46875,35.0234375 Z M98.1328125,45.6875 C96.9296815,45.6875 95.9544308,45.3085975 95.2070312,44.5507812 C94.4596317,43.792965 94.0859375,42.7838605 94.0859375,41.5234375 L94.0859375,41.2890625 C94.0859375,40.4453083 94.2486963,39.6914096 94.5742188,39.0273438 C94.8997412,38.3632779 95.3567679,37.846356 95.9453125,37.4765625 C96.5338571,37.106769 97.1901005,36.921875 97.9140625,36.921875 C99.0651099,36.921875 99.9544239,37.2890588 100.582031,38.0234375 C101.209639,38.7578162 101.523438,39.7968683 101.523438,41.140625 L101.523438,41.90625 L96,41.90625 C96.057292,42.6041702 96.2903625,43.156248 96.6992188,43.5625 C97.108075,43.968752 97.6223927,44.171875 98.2421875,44.171875 C99.1119835,44.171875 99.8203098,43.820316 100.367188,43.1171875 L101.390625,44.09375 C101.052082,44.5989609 100.600263,44.990884 100.035156,45.2695312 C99.4700493,45.5481785 98.835941,45.6875 98.1328125,45.6875 Z M97.90625,38.4453125 C97.3854141,38.4453125 96.9648454,38.6276023 96.6445312,38.9921875 C96.3242171,39.3567727 96.1197921,39.8645801 96.03125,40.515625 L99.6484375,40.515625 L99.6484375,40.375 C99.6067706,39.7395802 99.4375015,39.2591162 99.140625,38.9335938 C98.8437485,38.6080713 98.4322943,38.4453125 97.90625,38.4453125 Z" id="K2-Date" fill="#5D6B82"></path>
    </g>
</svg>