<svg width="148" height="80" viewBox="0 0 148 80" fill="none" xmlns="http://www.w3.org/2000/svg">
<rect width="148" height="80" rx="2" fill="#D1D5DB"/>
<rect x="1" y="1" width="146" height="78" rx="1" fill="#FAFBFB"/>
<path fill-rule="evenodd" clip-rule="evenodd" d="M27 12C25.8954 12 25 12.8954 25 14V31V66V68H27H57H59H89H91H121H123V66V31V14C123 12.8954 122.105 12 121 12H27ZM121 66V50.2186H91V66H121ZM121 31V48.3076H91V31H121ZM89 31V48.3076H59V31H89ZM59 66V50.2186H89V66H59ZM57 66V50.2186H27V66H57ZM57 31V48.3076H27V31H57ZM77.5922 26.2676C78.0258 25.6973 78.2426 24.9043 78.2426 23.8887V23.7949C78.2426 22.7637 78.0219 21.9648 77.5804 21.3984C77.1429 20.8281 76.5375 20.543 75.764 20.543C75.1273 20.543 74.6136 20.7715 74.223 21.2285V18H72.5297V27H74.0531L74.1293 26.3262C74.5394 26.8535 75.0883 27.1172 75.7758 27.1172C76.5531 27.1172 77.1586 26.834 77.5922 26.2676ZM76.2445 22.3652C76.4476 22.6582 76.5492 23.125 76.5492 23.7656C76.5492 24.293 76.5082 24.6855 76.4261 24.9434C76.2543 25.4824 75.8949 25.752 75.348 25.752C74.8051 25.752 74.4301 25.5293 74.223 25.084V22.582C74.4261 22.1406 74.7972 21.9199 75.3363 21.9199C75.7386 21.9199 76.0414 22.0684 76.2445 22.3652ZM64.184 19.8926H61.5707V27H59.8129V19.8926H57.2347V18.4688H64.184V19.8926ZM68.7699 27C68.6918 26.8477 68.6351 26.6582 68.6 26.4316C68.1898 26.8887 67.6566 27.1172 67.0004 27.1172C66.3793 27.1172 65.8636 26.9375 65.4535 26.5781C65.0472 26.2188 64.8441 25.7656 64.8441 25.2188C64.8441 24.5469 65.0922 24.0312 65.5883 23.6719C66.0883 23.3125 66.809 23.1309 67.7504 23.127H68.5297V22.7637C68.5297 22.4707 68.4535 22.2363 68.3011 22.0605C68.1527 21.8848 67.9164 21.7969 67.5922 21.7969C67.307 21.7969 67.0824 21.8652 66.9183 22.002C66.7582 22.1387 66.6781 22.3262 66.6781 22.5645H64.9847C64.9847 22.1973 65.098 21.8574 65.3246 21.5449C65.5511 21.2324 65.8715 20.9883 66.2855 20.8125C66.6996 20.6328 67.1644 20.543 67.6801 20.543C68.4613 20.543 69.0804 20.7402 69.5375 21.1348C69.9984 21.5254 70.2289 22.0762 70.2289 22.7871V25.5352C70.2328 26.1367 70.3168 26.5918 70.4808 26.9004V27H68.7699ZM67.3695 25.8223C67.6195 25.8223 67.85 25.7676 68.0609 25.6582C68.2719 25.5449 68.4281 25.3945 68.5297 25.207V24.1172H67.8969C67.0492 24.1172 66.598 24.4102 66.5433 24.9961L66.5375 25.0957C66.5375 25.3066 66.6117 25.4805 66.7601 25.6172C66.9086 25.7539 67.1117 25.8223 67.3695 25.8223ZM82.0785 27H80.3793V18H82.0785V27ZM85.1234 26.2617C85.7094 26.832 86.4672 27.1172 87.3969 27.1172C87.9242 27.1172 88.4047 27.0176 88.8383 26.8184C89.2719 26.6152 89.6156 26.334 89.8695 25.9746L89.0375 25.043C88.6703 25.5156 88.1605 25.752 87.5082 25.752C87.0863 25.752 86.7367 25.627 86.4594 25.377C86.1859 25.127 86.0219 24.7949 85.9672 24.3809H90.0043V23.6895C90.0043 22.6855 89.7543 21.9102 89.2543 21.3633C88.7582 20.8164 88.0765 20.543 87.2094 20.543C86.6312 20.543 86.1156 20.6797 85.6625 20.9531C85.2133 21.2227 84.8656 21.6094 84.6195 22.1133C84.3734 22.6133 84.2504 23.1816 84.2504 23.8184V23.9824C84.2504 24.9316 84.5414 25.6914 85.1234 26.2617ZM86.3832 22.2539C86.5941 22.0273 86.8676 21.9141 87.2035 21.9141C87.5629 21.9141 87.8402 22.0176 88.0355 22.2246C88.2308 22.4277 88.3324 22.7168 88.3402 23.0918V23.2266H85.9847C86.0433 22.8047 86.1761 22.4805 86.3832 22.2539Z" fill="#5D6B82"/>
</svg>
