<svg width="148" height="80" viewBox="0 0 148 80" fill="none" xmlns="http://www.w3.org/2000/svg">
<rect width="148" height="80" rx="2" fill="#D1D5DB"/>
<rect x="1" y="1" width="146" height="78" rx="1" fill="#FAFBFB"/>
<path d="M32.3838 45H30.333V40.7344H26.334V45H24.2832V35.0469H26.334V39.0801H30.333V35.0469H32.3838V45ZM41.4688 36.708H38.4199V45H36.3691V36.708H33.3613V35.0469H41.4688V36.708ZM45.3242 35.0469L47.8809 42.2656L50.4238 35.0469H53.1172V45H51.0596V42.2793L51.2646 37.583L48.5781 45H47.1699L44.4902 37.5898L44.6953 42.2793V45H42.6445V35.0469H45.3242ZM56.959 43.3525H61.3135V45H54.9082V35.0469H56.959V43.3525ZM62.5781 40.1055L63.1523 35.0469H68.7305V36.6943H64.7725L64.5264 38.834C64.9958 38.5833 65.4948 38.458 66.0234 38.458C66.9714 38.458 67.7142 38.752 68.252 39.3398C68.7897 39.9277 69.0586 40.7503 69.0586 41.8076C69.0586 42.4502 68.9219 43.0267 68.6484 43.5371C68.3796 44.043 67.9922 44.4372 67.4863 44.7197C66.9805 44.9977 66.3835 45.1367 65.6953 45.1367C65.0938 45.1367 64.5355 45.016 64.0205 44.7744C63.5055 44.5283 63.0977 44.1842 62.7969 43.7422C62.5007 43.3001 62.3434 42.7965 62.3252 42.2314H64.2803C64.3213 42.6462 64.4648 42.9697 64.7109 43.2021C64.9616 43.43 65.2874 43.5439 65.6885 43.5439C66.1351 43.5439 66.4792 43.3844 66.7207 43.0654C66.9622 42.7419 67.083 42.2861 67.083 41.6982C67.083 41.1331 66.944 40.7002 66.666 40.3994C66.388 40.0986 65.9938 39.9482 65.4834 39.9482C65.014 39.9482 64.6335 40.0713 64.3418 40.3174L64.1504 40.4951L62.5781 40.1055ZM74.5137 45.8545H73.0439L76.708 35.0469H78.1777L74.5137 45.8545ZM84.7949 43.3525H89.1494V45H82.7441V35.0469H84.7949V43.3525ZM92.5127 45H90.4619V35.0469H92.5127V45ZM102.582 40.249C102.582 41.1787 102.432 41.9876 102.131 42.6758C101.83 43.3594 101.413 43.9085 100.88 44.3232L102.534 45.6221L101.229 46.7773L99.1094 45.0752C98.8678 45.1162 98.6172 45.1367 98.3574 45.1367C97.5326 45.1367 96.7965 44.9385 96.1494 44.542C95.5023 44.1455 95.001 43.5804 94.6455 42.8467C94.29 42.1084 94.11 41.2607 94.1055 40.3037V39.8115C94.1055 38.8317 94.2809 37.9704 94.6318 37.2275C94.9873 36.4801 95.4863 35.9082 96.1289 35.5117C96.776 35.1107 97.5143 34.9102 98.3438 34.9102C99.1732 34.9102 99.9092 35.1107 100.552 35.5117C101.199 35.9082 101.698 36.4801 102.049 37.2275C102.404 37.9704 102.582 38.8294 102.582 39.8047V40.249ZM100.504 39.7979C100.504 38.7542 100.317 37.9613 99.9434 37.4189C99.5697 36.8766 99.0365 36.6055 98.3438 36.6055C97.6556 36.6055 97.1247 36.8743 96.751 37.4121C96.3773 37.9453 96.1882 38.7292 96.1836 39.7637V40.249C96.1836 41.2653 96.3704 42.0537 96.7441 42.6143C97.1178 43.1748 97.6556 43.4551 98.3574 43.4551C99.0456 43.4551 99.5742 43.1862 99.9434 42.6484C100.312 42.1061 100.499 41.3177 100.504 40.2832V39.7979ZM111.619 35.0469V41.6025C111.619 42.6917 111.277 43.5531 110.594 44.1865C109.915 44.82 108.985 45.1367 107.805 45.1367C106.643 45.1367 105.72 44.8291 105.036 44.2139C104.353 43.5986 104.004 42.7533 103.99 41.6777V35.0469H106.041V41.6162C106.041 42.2679 106.196 42.7441 106.506 43.0449C106.82 43.3411 107.253 43.4893 107.805 43.4893C108.958 43.4893 109.543 42.8831 109.562 41.6709V35.0469H111.619ZM115.481 45H113.431V35.0469H115.481V45ZM117.389 45V35.0469H120.451C121.326 35.0469 122.108 35.2451 122.796 35.6416C123.489 36.0335 124.029 36.5941 124.416 37.3232C124.803 38.0479 124.997 38.8727 124.997 39.7979V40.2559C124.997 41.181 124.806 42.0036 124.423 42.7236C124.045 43.4437 123.509 44.002 122.816 44.3984C122.124 44.7949 121.342 44.9954 120.472 45H117.389ZM119.439 36.708V43.3525H120.431C121.233 43.3525 121.846 43.0905 122.27 42.5664C122.693 42.0423 122.91 41.2926 122.919 40.3174V39.791C122.919 38.7793 122.709 38.0137 122.29 37.4941C121.871 36.9701 121.258 36.708 120.451 36.708H119.439Z" fill="#5D6B82"/>
</svg>
