<svg width="148" height="80" viewBox="0 0 148 80" fill="none" xmlns="http://www.w3.org/2000/svg">
<rect width="148" height="80" rx="2" fill="#D1D5DB"/>
<rect x="1" y="1" width="146" height="78" rx="1" fill="#FAFBFB"/>
<path fill-rule="evenodd" clip-rule="evenodd" d="M136 18H12V62H136V18ZM45.4453 32.7812V47H50.6309C52.2259 47 53.4499 46.6419 54.3027 45.9258C55.1621 45.2096 55.5918 44.1842 55.5918 42.8496C55.5918 42.0423 55.3802 41.3522 54.957 40.7793C54.5404 40.1999 53.9479 39.806 53.1797 39.5977C53.8568 39.3112 54.3711 38.9076 54.7227 38.3867C55.0742 37.8659 55.25 37.2799 55.25 36.6289C55.25 35.3529 54.8301 34.3926 53.9902 33.748C53.1504 33.1035 51.9264 32.7812 50.3184 32.7812H45.4453ZM47.916 45.0273V40.584H50.8652C52.3757 40.6165 53.1309 41.3717 53.1309 42.8496C53.1309 43.5332 52.9128 44.0671 52.4766 44.4512C52.0404 44.8353 51.4349 45.0273 50.6602 45.0273H47.916ZM50.3379 38.7676H47.916V34.7734H50.3184C51.1647 34.7734 51.7865 34.9297 52.1836 35.2422C52.5872 35.5547 52.7891 36.0625 52.7891 36.7656C52.7891 37.4036 52.571 37.8984 52.1348 38.25C51.7051 38.5951 51.1061 38.7676 50.3379 38.7676ZM61.2656 47.1953C62.5482 47.1953 63.5378 46.7852 64.2344 45.9648L64.293 47H66.5293V36.4336H64.1562V44.0215C63.7526 44.8483 62.9746 45.2617 61.8223 45.2617C60.709 45.2617 60.1523 44.5911 60.1523 43.25V36.4336H57.7793V43.2793C57.7793 44.5488 58.0723 45.5189 58.6582 46.1895C59.2507 46.86 60.1198 47.1953 61.2656 47.1953ZM71.9199 36.4336V33.8652H69.5469V36.4336H67.8086V38.1914H69.5469V44.1777C69.5469 46.1895 70.4583 47.1953 72.2812 47.1953C72.7826 47.1953 73.3034 47.1204 73.8438 46.9707V45.1348C73.5638 45.1999 73.2871 45.2324 73.0137 45.2324C72.6035 45.2324 72.3171 45.1445 72.1543 44.9688C71.998 44.7865 71.9199 44.4935 71.9199 44.0898V38.1914H73.7852V36.4336H71.9199ZM78.5801 36.4336V33.8652H76.207V36.4336H74.4688V38.1914H76.207V44.1777C76.207 46.1895 77.1185 47.1953 78.9414 47.1953C79.4427 47.1953 79.9635 47.1204 80.5039 46.9707V45.1348C80.224 45.1999 79.9473 45.2324 79.6738 45.2324C79.2637 45.2324 78.9772 45.1445 78.8145 44.9688C78.6582 44.7865 78.5801 44.4935 78.5801 44.0898V38.1914H80.4453V36.4336H78.5801ZM82.1445 38.8262C81.7344 39.653 81.5293 40.584 81.5293 41.6191V41.7363C81.5293 43.39 81.9753 44.7148 82.8672 45.7109C83.7656 46.7005 84.9603 47.1953 86.4512 47.1953C87.4277 47.1953 88.2871 46.9707 89.0293 46.5215C89.778 46.0723 90.3509 45.4375 90.748 44.6172C91.1517 43.7969 91.3535 42.8659 91.3535 41.8242L91.3438 41.2676C91.2721 39.7507 90.7904 38.5332 89.8984 37.6152C89.013 36.6973 87.8574 36.2383 86.4316 36.2383C85.4681 36.2383 84.6152 36.4629 83.873 36.9121C83.1309 37.3548 82.5547 37.9928 82.1445 38.8262ZM86.4512 45.3008C85.6504 45.3008 85.0254 44.9948 84.5762 44.3828C84.127 43.7643 83.9023 42.9115 83.9023 41.8242C83.9023 40.6003 84.1302 39.6823 84.5859 39.0703C85.0417 38.4518 85.6569 38.1426 86.4316 38.1426C87.2194 38.1426 87.8411 38.4551 88.2969 39.0801C88.7591 39.7051 88.9902 40.5514 88.9902 41.6191C88.9902 42.8236 88.7656 43.7383 88.3164 44.3633C87.8737 44.9883 87.252 45.3008 86.4512 45.3008ZM95.6309 37.6543L95.5625 36.4336H93.3262V47H95.6992V39.4805C96.168 38.6146 96.8809 38.1816 97.8379 38.1816C98.4954 38.1816 98.9674 38.3444 99.2539 38.6699C99.5469 38.9889 99.6934 39.4837 99.6934 40.1543V47H102.066V40.0176C102.027 37.498 100.908 36.2383 98.707 36.2383C97.4375 36.2383 96.4121 36.7103 95.6309 37.6543Z" fill="#5D6B82"/>
</svg>
