<svg width="148" height="80" viewBox="0 0 148 80" fill="none" xmlns="http://www.w3.org/2000/svg">
<rect width="148" height="80" rx="2" fill="#D1D5DB"/>
<rect x="1" y="1" width="146" height="78" rx="1" fill="#FAFBFB"/>
<path fill-rule="evenodd" clip-rule="evenodd" d="M45.4453 28.7812V43H50.6309C52.2259 43 53.4499 42.6419 54.3027 41.9258C55.1621 41.2096 55.5918 40.1842 55.5918 38.8496C55.5918 38.0423 55.3802 37.3522 54.957 36.7793C54.5404 36.1999 53.9479 35.806 53.1797 35.5977C53.8568 35.3112 54.3711 34.9076 54.7227 34.3867C55.0742 33.8659 55.25 33.2799 55.25 32.6289C55.25 31.3529 54.8301 30.3926 53.9902 29.748C53.1504 29.1035 51.9264 28.7812 50.3184 28.7812H45.4453ZM47.916 41.0273V36.584H50.8652C52.3757 36.6165 53.1309 37.3717 53.1309 38.8496C53.1309 39.5332 52.9128 40.0671 52.4766 40.4512C52.0404 40.8353 51.4349 41.0273 50.6602 41.0273H47.916ZM50.3379 34.7676H47.916V30.7734H50.3184C51.1647 30.7734 51.7865 30.9297 52.1836 31.2422C52.5872 31.5547 52.7891 32.0625 52.7891 32.7656C52.7891 33.4036 52.571 33.8984 52.1348 34.25C51.7051 34.5951 51.1061 34.7676 50.3379 34.7676ZM61.2656 43.1953C62.5482 43.1953 63.5378 42.7852 64.2344 41.9648L64.293 43H66.5293V32.4336H64.1562V40.0215C63.7526 40.8483 62.9746 41.2617 61.8223 41.2617C60.709 41.2617 60.1523 40.5911 60.1523 39.25V32.4336H57.7793V39.2793C57.7793 40.5488 58.0723 41.5189 58.6582 42.1895C59.2507 42.86 60.1198 43.1953 61.2656 43.1953ZM71.9199 32.4336V29.8652H69.5469V32.4336H67.8086V34.1914H69.5469V40.1777C69.5469 42.1895 70.4583 43.1953 72.2812 43.1953C72.7826 43.1953 73.3034 43.1204 73.8438 42.9707V41.1348C73.5638 41.1999 73.2871 41.2324 73.0137 41.2324C72.6035 41.2324 72.3171 41.1445 72.1543 40.9688C71.998 40.7865 71.9199 40.4935 71.9199 40.0898V34.1914H73.7852V32.4336H71.9199ZM78.5801 32.4336V29.8652H76.207V32.4336H74.4688V34.1914H76.207V40.1777C76.207 42.1895 77.1185 43.1953 78.9414 43.1953C79.4427 43.1953 79.9635 43.1204 80.5039 42.9707V41.1348C80.224 41.1999 79.9473 41.2324 79.6738 41.2324C79.2637 41.2324 78.9772 41.1445 78.8145 40.9688C78.6582 40.7865 78.5801 40.4935 78.5801 40.0898V34.1914H80.4453V32.4336H78.5801ZM82.1445 34.8262C81.7344 35.653 81.5293 36.584 81.5293 37.6191V37.7363C81.5293 39.39 81.9753 40.7148 82.8672 41.7109C83.7656 42.7005 84.9603 43.1953 86.4512 43.1953C87.4277 43.1953 88.2871 42.9707 89.0293 42.5215C89.778 42.0723 90.3509 41.4375 90.748 40.6172C91.1517 39.7969 91.3535 38.8659 91.3535 37.8242L91.3438 37.2676C91.2721 35.7507 90.7904 34.5332 89.8984 33.6152C89.013 32.6973 87.8574 32.2383 86.4316 32.2383C85.4681 32.2383 84.6152 32.4629 83.873 32.9121C83.1309 33.3548 82.5547 33.9928 82.1445 34.8262ZM86.4512 41.3008C85.6504 41.3008 85.0254 40.9948 84.5762 40.3828C84.127 39.7643 83.9023 38.9115 83.9023 37.8242C83.9023 36.6003 84.1302 35.6823 84.5859 35.0703C85.0417 34.4518 85.6569 34.1426 86.4316 34.1426C87.2194 34.1426 87.8411 34.4551 88.2969 35.0801C88.7591 35.7051 88.9902 36.5514 88.9902 37.6191C88.9902 38.8236 88.7656 39.7383 88.3164 40.3633C87.8737 40.9883 87.252 41.3008 86.4512 41.3008ZM95.6309 33.6543L95.5625 32.4336H93.3262V43H95.6992V35.4805C96.168 34.6146 96.8809 34.1816 97.8379 34.1816C98.4954 34.1816 98.9674 34.3444 99.2539 34.6699C99.5469 34.9889 99.6934 35.4837 99.6934 36.1543V43H102.066V36.0176C102.027 33.498 100.908 32.2383 98.707 32.2383C97.4375 32.2383 96.4121 32.7103 95.6309 33.6543ZM136 52H12V54H136V52Z" fill="#5D6B82"/>
</svg>
