<svg width="148" height="80" viewBox="0 0 148 80" fill="none" xmlns="http://www.w3.org/2000/svg">
<rect width="148" height="80" rx="2" fill="#D1D5DB"/>
<rect x="1" y="1" width="146" height="78" rx="1" fill="#FAFBFB"/>
<path fill-rule="evenodd" clip-rule="evenodd" d="M12 18H136V62H134.058V59.4287L135.978 59.4285H134.058V47.4286H132.118V45.7141H130.179V50.8572H128.238V45.7141V44H132.121V45.7141H134.059V47.4285H134.059V45.7141H132.121V44L128.235 44H124.345V49.1427H122.403V44H122.412V42.2856L122.404 42.2856L122.404 42.2856L118.538 42.2856V49.1428H116.597V33.7142L116.592 33.7141H116.592H112.71V32H112.71V33.7141L112.701 33.7142V52.5715H110.76V50.8573H108.819V49.1428H110.685L108.816 49.1426L104.941 49.1427V52.5713H106.874V54.2854L106.879 54.2855V57.7141H106.879V54.2855H108.821V57.714H110.76V61.1427H112.701V62V64.5713H110.81H110.76V63.696V62H12V18ZM132.116 64.5714V62V59.4287H134.057V62V64.5714H132.12H132.119V69.7146H132.113H130.178H114.65H112.709H112.701V68.0001H112.709V64.5714H112.709H114.65V68.0001H130.178V64.5714H132.116ZM53.4453 47V32.7812H58.3184C59.9264 32.7812 61.1504 33.1035 61.9902 33.748C62.8301 34.3926 63.25 35.3529 63.25 36.6289C63.25 37.2799 63.0742 37.8659 62.7227 38.3867C62.3711 38.9076 61.8568 39.3112 61.1797 39.5977C61.9479 39.806 62.5404 40.1999 62.957 40.7793C63.3802 41.3522 63.5918 42.0423 63.5918 42.8496C63.5918 44.1842 63.1621 45.2096 62.3027 45.9258C61.4499 46.6419 60.2259 47 58.6309 47H53.4453ZM55.916 40.584V45.0273H58.6602C59.4349 45.0273 60.0404 44.8353 60.4766 44.4512C60.9128 44.0671 61.1309 43.5332 61.1309 42.8496C61.1309 41.3717 60.3757 40.6165 58.8652 40.584H55.916ZM55.916 38.7676H58.3379C59.1061 38.7676 59.7051 38.5951 60.1348 38.25C60.571 37.8984 60.7891 37.4036 60.7891 36.7656C60.7891 36.0625 60.5872 35.5547 60.1836 35.2422C59.7865 34.9297 59.1647 34.7734 58.3184 34.7734H55.916V38.7676ZM72.2344 45.9648C71.5378 46.7852 70.5482 47.1953 69.2656 47.1953C68.1198 47.1953 67.2507 46.86 66.6582 46.1895C66.0723 45.5189 65.7793 44.5488 65.7793 43.2793V36.4336H68.1523V43.25C68.1523 44.5911 68.709 45.2617 69.8223 45.2617C70.9746 45.2617 71.7526 44.8483 72.1562 44.0215V36.4336H74.5293V47H72.293L72.2344 45.9648ZM79.9199 33.8652V36.4336H81.7852V38.1914H79.9199V44.0898C79.9199 44.4935 79.998 44.7865 80.1543 44.9688C80.3171 45.1445 80.6035 45.2324 81.0137 45.2324C81.2871 45.2324 81.5638 45.1999 81.8438 45.1348V46.9707C81.3034 47.1204 80.7826 47.1953 80.2812 47.1953C78.4583 47.1953 77.5469 46.1895 77.5469 44.1777V38.1914H75.8086V36.4336H77.5469V33.8652H79.9199ZM86.5801 33.8652V36.4336H88.4453V38.1914H86.5801V44.0898C86.5801 44.4935 86.6582 44.7865 86.8145 44.9688C86.9772 45.1445 87.2637 45.2324 87.6738 45.2324C87.9473 45.2324 88.224 45.1999 88.5039 45.1348V46.9707C87.9635 47.1204 87.4427 47.1953 86.9414 47.1953C85.1185 47.1953 84.207 46.1895 84.207 44.1777V38.1914H82.4688V36.4336H84.207V33.8652H86.5801ZM89.5293 41.6191C89.5293 40.584 89.7344 39.653 90.1445 38.8262C90.5547 37.9928 91.1309 37.3548 91.873 36.9121C92.6152 36.4629 93.4681 36.2383 94.4316 36.2383C95.8574 36.2383 97.013 36.6973 97.8984 37.6152C98.7904 38.5332 99.2721 39.7507 99.3438 41.2676L99.3535 41.8242C99.3535 42.8659 99.1517 43.7969 98.748 44.6172C98.3509 45.4375 97.778 46.0723 97.0293 46.5215C96.2871 46.9707 95.4277 47.1953 94.4512 47.1953C92.9603 47.1953 91.7656 46.7005 90.8672 45.7109C89.9753 44.7148 89.5293 43.39 89.5293 41.7363V41.6191ZM92.5762 44.3828C93.0254 44.9948 93.6504 45.3008 94.4512 45.3008C95.252 45.3008 95.8737 44.9883 96.3164 44.3633C96.7656 43.7383 96.9902 42.8236 96.9902 41.6191C96.9902 40.5514 96.7591 39.7051 96.2969 39.0801C95.8411 38.4551 95.2194 38.1426 94.4316 38.1426C93.6569 38.1426 93.0417 38.4518 92.5859 39.0703C92.1302 39.6823 91.9023 40.6003 91.9023 41.8242C91.9023 42.9115 92.127 43.7643 92.5762 44.3828ZM103.562 36.4336L103.631 37.6543C104.412 36.7103 105.438 36.2383 106.707 36.2383C108.908 36.2383 110.027 37.498 110.066 40.0176V47H107.693V40.1543C107.693 39.4837 107.547 38.9889 107.254 38.6699C106.967 38.3444 106.495 38.1816 105.838 38.1816C104.881 38.1816 104.168 38.6146 103.699 39.4805V47H101.326V36.4336H103.562ZM108.819 60.9372L108.819 61.1427L108.819 61.1427V60.9372ZM110.76 49.1428V33.7142H110.76V49.1428L110.76 49.1428ZM43.8 32.8C44.6 33.5 44.8 35.2 44.8 35.2C44.8 35.2 45 37.1 45 39V40.8C45 42.8 44.8 44.7 44.8 44.7C44.8 44.7 44.5 46.4 43.8 47.1C43.0429 47.8571 42.215 47.9773 41.6736 48.0559C41.5714 48.0708 41.4794 48.0841 41.4 48.1C38 48.4 33 48.4 33 48.4C33 48.4 26.7 48.4 24.8 48.2C24.7041 48.1808 24.5824 48.169 24.442 48.1554C23.8506 48.0979 22.9274 48.0082 22.2 47.2C21.4 46.5 21.2 44.8 21.2 44.8C21.2 44.8 21 42.8 21 40.9V39.1C21 37.1 21.2 35.2 21.2 35.2C21.2 35.2 21.5 33.5 22.2 32.8C22.9571 32.0429 23.785 31.9227 24.3264 31.8441C24.4286 31.8292 24.5206 31.8159 24.6 31.8C28 31.6 33 31.6 33 31.6C33 31.6 38 31.6 41.4 31.8C41.9 31.8 42.9 31.8 43.8 32.8ZM30.5 36.4V43.1L37 39.8L30.5 36.4Z" fill="#5D6B82"/>
</svg>
