<svg width="148" height="80" viewBox="0 0 148 80" fill="none" xmlns="http://www.w3.org/2000/svg">
<rect width="148" height="80" rx="2" fill="#D1D5DB"/>
<rect x="1" y="1" width="146" height="78" rx="1" fill="#FAFBFB"/>
<path fill-rule="evenodd" clip-rule="evenodd" d="M136 18H12V62H110.76V63.696V64.5713H110.81H112.701V62V61.1427H110.76V57.714H108.821V54.2855H106.879V57.7141H106.879V54.2855L106.874 54.2854V52.5713H104.941V49.1427L108.816 49.1426L110.685 49.1428H108.819V50.8573H110.76V52.5715H112.701V33.7142L112.71 33.7141V32H112.71V33.7141H116.592H116.592L116.597 33.7142V49.1428H118.538V42.2856L122.404 42.2856L122.404 42.2856L122.412 42.2856V44H122.403V49.1427H124.345V44H128.235L132.121 44V45.7141H134.059V47.4285H134.059V45.7141H132.121V44H128.238V45.7141V50.8572H130.179V45.7141H132.118V47.4286H134.058V59.4285H135.978L134.058 59.4287V62H136V18ZM132.116 62V64.5714H130.178V68.0001H114.65V64.5714H112.709H112.709V68.0001H112.701V69.7146H112.709H114.65H130.178H132.113H132.119V64.5714H132.12H134.057V62V59.4287H132.116V62ZM53.4453 32.7812V47H58.6309C60.2259 47 61.4499 46.6419 62.3027 45.9258C63.1621 45.2096 63.5918 44.1842 63.5918 42.8496C63.5918 42.0423 63.3802 41.3522 62.957 40.7793C62.5404 40.1999 61.9479 39.806 61.1797 39.5977C61.8568 39.3112 62.3711 38.9076 62.7227 38.3867C63.0742 37.8659 63.25 37.2799 63.25 36.6289C63.25 35.3529 62.8301 34.3926 61.9902 33.748C61.1504 33.1035 59.9264 32.7812 58.3184 32.7812H53.4453ZM55.916 45.0273V40.584H58.8652C60.3757 40.6165 61.1309 41.3717 61.1309 42.8496C61.1309 43.5332 60.9128 44.0671 60.4766 44.4512C60.0404 44.8353 59.4349 45.0273 58.6602 45.0273H55.916ZM58.3379 38.7676H55.916V34.7734H58.3184C59.1647 34.7734 59.7865 34.9297 60.1836 35.2422C60.5872 35.5547 60.7891 36.0625 60.7891 36.7656C60.7891 37.4036 60.571 37.8984 60.1348 38.25C59.7051 38.5951 59.1061 38.7676 58.3379 38.7676ZM69.2656 47.1953C70.5482 47.1953 71.5378 46.7852 72.2344 45.9648L72.293 47H74.5293V36.4336H72.1562V44.0215C71.7526 44.8483 70.9746 45.2617 69.8223 45.2617C68.709 45.2617 68.1523 44.5911 68.1523 43.25V36.4336H65.7793V43.2793C65.7793 44.5488 66.0723 45.5189 66.6582 46.1895C67.2507 46.86 68.1198 47.1953 69.2656 47.1953ZM79.9199 36.4336V33.8652H77.5469V36.4336H75.8086V38.1914H77.5469V44.1777C77.5469 46.1895 78.4583 47.1953 80.2812 47.1953C80.7826 47.1953 81.3034 47.1204 81.8438 46.9707V45.1348C81.5638 45.1999 81.2871 45.2324 81.0137 45.2324C80.6035 45.2324 80.3171 45.1445 80.1543 44.9688C79.998 44.7865 79.9199 44.4935 79.9199 44.0898V38.1914H81.7852V36.4336H79.9199ZM86.5801 36.4336V33.8652H84.207V36.4336H82.4688V38.1914H84.207V44.1777C84.207 46.1895 85.1185 47.1953 86.9414 47.1953C87.4427 47.1953 87.9635 47.1204 88.5039 46.9707V45.1348C88.224 45.1999 87.9473 45.2324 87.6738 45.2324C87.2637 45.2324 86.9772 45.1445 86.8145 44.9688C86.6582 44.7865 86.5801 44.4935 86.5801 44.0898V38.1914H88.4453V36.4336H86.5801ZM90.1445 38.8262C89.7344 39.653 89.5293 40.584 89.5293 41.6191V41.7363C89.5293 43.39 89.9753 44.7148 90.8672 45.7109C91.7656 46.7005 92.9603 47.1953 94.4512 47.1953C95.4277 47.1953 96.2871 46.9707 97.0293 46.5215C97.778 46.0723 98.3509 45.4375 98.748 44.6172C99.1517 43.7969 99.3535 42.8659 99.3535 41.8242L99.3438 41.2676C99.2721 39.7507 98.7904 38.5332 97.8984 37.6152C97.013 36.6973 95.8574 36.2383 94.4316 36.2383C93.4681 36.2383 92.6152 36.4629 91.873 36.9121C91.1309 37.3548 90.5547 37.9928 90.1445 38.8262ZM94.4512 45.3008C93.6504 45.3008 93.0254 44.9948 92.5762 44.3828C92.127 43.7643 91.9023 42.9115 91.9023 41.8242C91.9023 40.6003 92.1302 39.6823 92.5859 39.0703C93.0417 38.4518 93.6569 38.1426 94.4316 38.1426C95.2194 38.1426 95.8411 38.4551 96.2969 39.0801C96.7591 39.7051 96.9902 40.5514 96.9902 41.6191C96.9902 42.8236 96.7656 43.7383 96.3164 44.3633C95.8737 44.9883 95.252 45.3008 94.4512 45.3008ZM103.631 37.6543L103.562 36.4336H101.326V47H103.699V39.4805C104.168 38.6146 104.881 38.1816 105.838 38.1816C106.495 38.1816 106.967 38.3444 107.254 38.6699C107.547 38.9889 107.693 39.4837 107.693 40.1543V47H110.066V40.0176C110.027 37.498 108.908 36.2383 106.707 36.2383C105.438 36.2383 104.412 36.7103 103.631 37.6543ZM108.819 61.1427L108.819 60.9372V61.1427L108.819 61.1427ZM110.76 33.7142V49.1428L110.76 49.1428V33.7142L110.76 33.7142ZM36 36L31 32L26 36V41C26 41.2652 26.1054 41.5196 26.2929 41.7071C26.4804 41.8946 26.7348 42 27 42H30V39H32V42H35C35.2652 42 35.5196 41.8946 35.7071 41.7071C35.8946 41.5196 36 41.2652 36 41V36ZM38.738 44.324L44.707 50.293C44.8892 50.4816 44.99 50.7342 44.9877 50.9964C44.9854 51.2586 44.8802 51.5094 44.6948 51.6948C44.5094 51.8802 44.2586 51.9854 43.9964 51.9877C43.7342 51.99 43.4816 51.8892 43.293 51.707L37.324 45.738C35.3346 47.3646 32.7961 48.1644 30.2336 47.9718C27.671 47.7793 25.2805 46.6092 23.5565 44.7036C21.8325 42.798 20.9069 40.3026 20.9711 37.7336C21.0354 35.1647 22.0845 32.7187 23.9016 30.9016C25.7187 29.0845 28.1647 28.0354 30.7336 27.9711C33.3026 27.9069 35.798 28.8325 37.7036 30.5565C39.6092 32.2805 40.7793 34.671 40.9718 37.2336C41.1644 39.7961 40.3646 42.3346 38.738 44.324ZM24.3482 33.5554C23.4692 34.871 23 36.4177 23 38C23.0024 40.121 23.846 42.1544 25.3458 43.6542C26.8456 45.154 28.879 45.9976 31 46C32.5823 46 34.129 45.5308 35.4446 44.6518C36.7602 43.7727 37.7855 42.5233 38.391 41.0615C38.9965 39.5997 39.155 37.9911 38.8463 36.4393C38.5376 34.8874 37.7757 33.462 36.6569 32.3431C35.538 31.2243 34.1126 30.4624 32.5607 30.1537C31.0089 29.845 29.4003 30.0035 27.9385 30.609C26.4767 31.2145 25.2273 32.2398 24.3482 33.5554Z" fill="#5D6B82"/>
</svg>
