<svg width="148" height="80" viewBox="0 0 148 80" fill="none" xmlns="http://www.w3.org/2000/svg">
<rect width="148" height="80" rx="2" fill="#D1D5DB"/>
<rect x="1" y="1" width="146" height="78" rx="1" fill="#FAFBFB"/>
<path fill-rule="evenodd" clip-rule="evenodd" d="M14 20H134V60H14V20ZM12 18H14H134H136V20V60V62H134H14H12V60V20V18ZM47.8985 49C47.7995 49 47.7015 48.9702 47.6165 48.9107L41.7425 44.8001L35.8555 48.9107C35.7705 48.9702 35.6715 49 35.5735 49C35.4765 49 35.3785 48.9713 35.2945 48.9128C35.1255 48.7958 35.0425 48.5843 35.0855 48.379L36.5755 41.2745L32.1464 36.7276C32.0034 36.5808 31.9604 36.3602 32.0384 36.1682C32.1154 35.9773 32.2974 35.8511 32.5004 35.8511H38.3425L41.2895 29.2976C41.3715 29.116 41.5485 29 41.7435 29C41.9385 29 42.1155 29.116 42.1975 29.2976L45.1445 35.8511H51.5006C51.7026 35.8511 51.8846 35.9773 51.9616 36.1682C52.0396 36.3602 51.9966 36.5808 51.8536 36.7276L47.4085 41.2898L48.3935 48.415C48.4215 48.6161 48.3305 48.8153 48.1625 48.923C48.0815 48.9743 47.9895 49 47.8985 49ZM57.4453 46V31.7812H62.3184C63.9264 31.7812 65.1504 32.1035 65.9902 32.748C66.8301 33.3926 67.25 34.3529 67.25 35.6289C67.25 36.2799 67.0742 36.8659 66.7227 37.3867C66.3711 37.9076 65.8568 38.3112 65.1797 38.5977C65.9479 38.806 66.5404 39.1999 66.957 39.7793C67.3802 40.3522 67.5918 41.0423 67.5918 41.8496C67.5918 43.1842 67.1621 44.2096 66.3027 44.9258C65.4499 45.6419 64.2259 46 62.6309 46H57.4453ZM59.916 39.584V44.0273H62.6602C63.4349 44.0273 64.0404 43.8353 64.4766 43.4512C64.9128 43.0671 65.1309 42.5332 65.1309 41.8496C65.1309 40.3717 64.3757 39.6165 62.8652 39.584H59.916ZM59.916 37.7676H62.3379C63.1061 37.7676 63.7051 37.5951 64.1348 37.25C64.571 36.8984 64.7891 36.4036 64.7891 35.7656C64.7891 35.0625 64.5872 34.5547 64.1836 34.2422C63.7865 33.9297 63.1647 33.7734 62.3184 33.7734H59.916V37.7676ZM76.2344 44.9648C75.5378 45.7852 74.5482 46.1953 73.2656 46.1953C72.1198 46.1953 71.2507 45.86 70.6582 45.1895C70.0723 44.5189 69.7793 43.5488 69.7793 42.2793V35.4336H72.1523V42.25C72.1523 43.5911 72.709 44.2617 73.8223 44.2617C74.9746 44.2617 75.7526 43.8483 76.1562 43.0215V35.4336H78.5293V46H76.293L76.2344 44.9648ZM83.9199 32.8652V35.4336H85.7852V37.1914H83.9199V43.0898C83.9199 43.4935 83.998 43.7865 84.1543 43.9688C84.3171 44.1445 84.6035 44.2324 85.0137 44.2324C85.2871 44.2324 85.5638 44.1999 85.8438 44.1348V45.9707C85.3034 46.1204 84.7826 46.1953 84.2812 46.1953C82.4583 46.1953 81.5469 45.1895 81.5469 43.1777V37.1914H79.8086V35.4336H81.5469V32.8652H83.9199ZM90.5801 32.8652V35.4336H92.4453V37.1914H90.5801V43.0898C90.5801 43.4935 90.6582 43.7865 90.8145 43.9688C90.9772 44.1445 91.2637 44.2324 91.6738 44.2324C91.9473 44.2324 92.224 44.1999 92.5039 44.1348V45.9707C91.9635 46.1204 91.4427 46.1953 90.9414 46.1953C89.1185 46.1953 88.207 45.1895 88.207 43.1777V37.1914H86.4688V35.4336H88.207V32.8652H90.5801ZM93.5293 40.6191C93.5293 39.584 93.7344 38.653 94.1445 37.8262C94.5547 36.9928 95.1309 36.3548 95.873 35.9121C96.6152 35.4629 97.4681 35.2383 98.4316 35.2383C99.8574 35.2383 101.013 35.6973 101.898 36.6152C102.79 37.5332 103.272 38.7507 103.344 40.2676L103.354 40.8242C103.354 41.8659 103.152 42.7969 102.748 43.6172C102.351 44.4375 101.778 45.0723 101.029 45.5215C100.287 45.9707 99.4277 46.1953 98.4512 46.1953C96.9603 46.1953 95.7656 45.7005 94.8672 44.7109C93.9753 43.7148 93.5293 42.39 93.5293 40.7363V40.6191ZM96.5762 43.3828C97.0254 43.9948 97.6504 44.3008 98.4512 44.3008C99.252 44.3008 99.8737 43.9883 100.316 43.3633C100.766 42.7383 100.99 41.8236 100.99 40.6191C100.99 39.5514 100.759 38.7051 100.297 38.0801C99.8411 37.4551 99.2194 37.1426 98.4316 37.1426C97.6569 37.1426 97.0417 37.4518 96.5859 38.0703C96.1302 38.6823 95.9023 39.6003 95.9023 40.8242C95.9023 41.9115 96.127 42.7643 96.5762 43.3828ZM107.562 35.4336L107.631 36.6543C108.412 35.7103 109.438 35.2383 110.707 35.2383C112.908 35.2383 114.027 36.498 114.066 39.0176V46H111.693V39.1543C111.693 38.4837 111.547 37.9889 111.254 37.6699C110.967 37.3444 110.495 37.1816 109.838 37.1816C108.881 37.1816 108.168 37.6146 107.699 38.4805V46H105.326V35.4336H107.562Z" fill="#5D6B82"/>
</svg>
