<svg width="148" height="80" viewBox="0 0 148 80" fill="none" xmlns="http://www.w3.org/2000/svg">
<rect width="148" height="80" rx="2" fill="#D1D5DB"/>
<rect x="1" y="1" width="146" height="78" rx="1" fill="#FAFBFB"/>
<path fill-rule="evenodd" clip-rule="evenodd" d="M34 18C21.8497 18 12 27.8497 12 40C12 52.1503 21.8497 62 34 62H114C126.15 62 136 52.1503 136 40C136 27.8497 126.15 18 114 18H34ZM45.4453 31.7812V46H50.6309C52.2259 46 53.4499 45.6419 54.3027 44.9258C55.1621 44.2096 55.5918 43.1842 55.5918 41.8496C55.5918 41.0423 55.3802 40.3522 54.957 39.7793C54.5404 39.1999 53.9479 38.806 53.1797 38.5977C53.8568 38.3112 54.3711 37.9076 54.7227 37.3867C55.0742 36.8659 55.25 36.2799 55.25 35.6289C55.25 34.3529 54.8301 33.3926 53.9902 32.748C53.1504 32.1035 51.9264 31.7812 50.3184 31.7812H45.4453ZM47.916 44.0273V39.584H50.8652C52.3757 39.6165 53.1309 40.3717 53.1309 41.8496C53.1309 42.5332 52.9128 43.0671 52.4766 43.4512C52.0404 43.8353 51.4349 44.0273 50.6602 44.0273H47.916ZM50.3379 37.7676H47.916V33.7734H50.3184C51.1647 33.7734 51.7865 33.9297 52.1836 34.2422C52.5872 34.5547 52.7891 35.0625 52.7891 35.7656C52.7891 36.4036 52.571 36.8984 52.1348 37.25C51.7051 37.5951 51.1061 37.7676 50.3379 37.7676ZM61.2656 46.1953C62.5482 46.1953 63.5378 45.7852 64.2344 44.9648L64.293 46H66.5293V35.4336H64.1562V43.0215C63.7526 43.8483 62.9746 44.2617 61.8223 44.2617C60.709 44.2617 60.1523 43.5911 60.1523 42.25V35.4336H57.7793V42.2793C57.7793 43.5488 58.0723 44.5189 58.6582 45.1895C59.2507 45.86 60.1198 46.1953 61.2656 46.1953ZM71.9199 35.4336V32.8652H69.5469V35.4336H67.8086V37.1914H69.5469V43.1777C69.5469 45.1895 70.4583 46.1953 72.2812 46.1953C72.7826 46.1953 73.3034 46.1204 73.8438 45.9707V44.1348C73.5638 44.1999 73.2871 44.2324 73.0137 44.2324C72.6035 44.2324 72.3171 44.1445 72.1543 43.9688C71.998 43.7865 71.9199 43.4935 71.9199 43.0898V37.1914H73.7852V35.4336H71.9199ZM78.5801 35.4336V32.8652H76.207V35.4336H74.4688V37.1914H76.207V43.1777C76.207 45.1895 77.1185 46.1953 78.9414 46.1953C79.4427 46.1953 79.9635 46.1204 80.5039 45.9707V44.1348C80.224 44.1999 79.9473 44.2324 79.6738 44.2324C79.2637 44.2324 78.9772 44.1445 78.8145 43.9688C78.6582 43.7865 78.5801 43.4935 78.5801 43.0898V37.1914H80.4453V35.4336H78.5801ZM82.1445 37.8262C81.7344 38.653 81.5293 39.584 81.5293 40.6191V40.7363C81.5293 42.39 81.9753 43.7148 82.8672 44.7109C83.7656 45.7005 84.9603 46.1953 86.4512 46.1953C87.4277 46.1953 88.2871 45.9707 89.0293 45.5215C89.778 45.0723 90.3509 44.4375 90.748 43.6172C91.1517 42.7969 91.3535 41.8659 91.3535 40.8242L91.3438 40.2676C91.2721 38.7507 90.7904 37.5332 89.8984 36.6152C89.013 35.6973 87.8574 35.2383 86.4316 35.2383C85.4681 35.2383 84.6152 35.4629 83.873 35.9121C83.1309 36.3548 82.5547 36.9928 82.1445 37.8262ZM86.4512 44.3008C85.6504 44.3008 85.0254 43.9948 84.5762 43.3828C84.127 42.7643 83.9023 41.9115 83.9023 40.8242C83.9023 39.6003 84.1302 38.6823 84.5859 38.0703C85.0417 37.4518 85.6569 37.1426 86.4316 37.1426C87.2194 37.1426 87.8411 37.4551 88.2969 38.0801C88.7591 38.7051 88.9902 39.5514 88.9902 40.6191C88.9902 41.8236 88.7656 42.7383 88.3164 43.3633C87.8737 43.9883 87.252 44.3008 86.4512 44.3008ZM95.6309 36.6543L95.5625 35.4336H93.3262V46H95.6992V38.4805C96.168 37.6146 96.8809 37.1816 97.8379 37.1816C98.4954 37.1816 98.9674 37.3444 99.2539 37.6699C99.5469 37.9889 99.6934 38.4837 99.6934 39.1543V46H102.066V39.0176C102.027 36.498 100.908 35.2383 98.707 35.2383C97.4375 35.2383 96.4121 35.7103 95.6309 36.6543Z" fill="#5D6B82"/>
</svg>
