<?xml version="1.0" encoding="UTF-8"?>
<svg width="148px" height="80px" viewBox="0 0 148 80" version="1.1" xmlns="http://www.w3.org/2000/svg" xmlns:xlink="http://www.w3.org/1999/xlink">
    <!-- Generator: Sketch 50.2 (55047) - http://www.bohemiancoding.com/sketch -->
    <title>Article Title Copy</title>
    <desc>Created with Sketch.</desc>
    <defs></defs>
    <g id="Article-Title-Copy" stroke="none" stroke-width="1" fill="none" fill-rule="evenodd">
        <rect id="Rectangle-4" fill="#D1D5DB" x="0" y="0" width="148" height="80" rx="2"></rect>
        <rect id="Rectangle-3" fill="#FAFBFB" x="1" y="1" width="146" height="78" rx="1"></rect>
        <path d="M40.3828125,43.3515625 L35.9765625,43.3515625 L35.0546875,46 L33,46 L37.296875,34.625 L39.0703125,34.625 L43.375,46 L41.3125,46 L40.3828125,43.3515625 Z M36.53125,41.7578125 L39.828125,41.7578125 L38.1796875,37.0390625 L36.53125,41.7578125 Z M48.90625,39.28125 C48.6562488,39.2395831 48.3984388,39.21875 48.1328125,39.21875 C47.2630165,39.21875 46.6770848,39.55208 46.375,40.21875 L46.375,46 L44.4765625,46 L44.4765625,37.546875 L46.2890625,37.546875 L46.3359375,38.4921875 C46.7942731,37.7578088 47.4296834,37.390625 48.2421875,37.390625 C48.5130222,37.390625 48.7369783,37.427083 48.9140625,37.5 L48.90625,39.28125 Z M52.875,35.4921875 L52.875,37.546875 L54.3671875,37.546875 L54.3671875,38.953125 L52.875,38.953125 L52.875,43.671875 C52.875,43.9947933 52.9388014,44.2278639 53.0664062,44.3710938 C53.1940111,44.5143236 53.4218734,44.5859375 53.75,44.5859375 C53.9687511,44.5859375 54.190103,44.5598961 54.4140625,44.5078125 L54.4140625,45.9765625 C53.9817687,46.0963548 53.5651062,46.15625 53.1640625,46.15625 C51.7057219,46.15625 50.9765625,45.3515705 50.9765625,43.7421875 L50.9765625,38.953125 L49.5859375,38.953125 L49.5859375,37.546875 L50.9765625,37.546875 L50.9765625,35.4921875 L52.875,35.4921875 Z M57.8359375,46 L55.9375,46 L55.9375,37.546875 L57.8359375,37.546875 L57.8359375,46 Z M55.8203125,35.3515625 C55.8203125,35.0598944 55.9127595,34.8177093 56.0976562,34.625 C56.282553,34.4322907 56.5468733,34.3359375 56.890625,34.3359375 C57.2343767,34.3359375 57.4999991,34.4322907 57.6875,34.625 C57.8750009,34.8177093 57.96875,35.0598944 57.96875,35.3515625 C57.96875,35.6380223 57.8750009,35.8763011 57.6875,36.0664062 C57.4999991,36.2565114 57.2343767,36.3515625 56.890625,36.3515625 C56.5468733,36.3515625 56.282553,36.2565114 56.0976562,36.0664062 C55.9127595,35.8763011 55.8203125,35.6380223 55.8203125,35.3515625 Z M63.375,44.640625 C63.8489607,44.640625 64.2421859,44.5026055 64.5546875,44.2265625 C64.8671891,43.9505195 65.0338541,43.609377 65.0546875,43.203125 L66.84375,43.203125 C66.8229166,43.7291693 66.6588557,44.2200498 66.3515625,44.6757812 C66.0442693,45.1315127 65.6276068,45.4921862 65.1015625,45.7578125 C64.5755182,46.0234388 64.0078155,46.15625 63.3984375,46.15625 C62.2161399,46.15625 61.2786493,45.7734413 60.5859375,45.0078125 C59.8932257,44.2421837 59.546875,43.1849026 59.546875,41.8359375 L59.546875,41.640625 C59.546875,40.3541602 59.8906216,39.3242226 60.578125,38.5507812 C61.2656284,37.7773399 62.2031191,37.390625 63.390625,37.390625 C64.3958384,37.390625 65.2148406,37.6835908 65.8476562,38.2695312 C66.4804719,38.8554717 66.8124998,39.6249952 66.84375,40.578125 L65.0546875,40.578125 C65.0338541,40.0937476 64.8684911,39.6953141 64.5585938,39.3828125 C64.2486964,39.0703109 63.8541691,38.9140625 63.375,38.9140625 C62.7604136,38.9140625 62.28646,39.1367165 61.953125,39.5820312 C61.61979,40.027346 61.4505209,40.7031205 61.4453125,41.609375 L61.4453125,41.9140625 C61.4453125,42.8307338 61.6106754,43.5143207 61.9414062,43.9648438 C62.2721371,44.4153668 62.7499969,44.640625 63.375,44.640625 Z M70.296875,46 L68.3984375,46 L68.3984375,34 L70.296875,34 L70.296875,46 Z M76.0859375,46.15625 C74.8828065,46.15625 73.9075558,45.7773475 73.1601562,45.0195312 C72.4127567,44.261715 72.0390625,43.2526105 72.0390625,41.9921875 L72.0390625,41.7578125 C72.0390625,40.9140583 72.2018213,40.1601596 72.5273438,39.4960938 C72.8528662,38.8320279 73.3098929,38.315106 73.8984375,37.9453125 C74.4869821,37.575519 75.1432255,37.390625 75.8671875,37.390625 C77.0182349,37.390625 77.9075489,37.7578088 78.5351562,38.4921875 C79.1627636,39.2265662 79.4765625,40.2656183 79.4765625,41.609375 L79.4765625,42.375 L73.953125,42.375 C74.010417,43.0729202 74.2434875,43.624998 74.6523438,44.03125 C75.0612,44.437502 75.5755177,44.640625 76.1953125,44.640625 C77.0651085,44.640625 77.7734348,44.289066 78.3203125,43.5859375 L79.34375,44.5625 C79.0052066,45.0677109 78.5533882,45.459634 77.9882812,45.7382812 C77.4231743,46.0169285 76.789066,46.15625 76.0859375,46.15625 Z M75.859375,38.9140625 C75.3385391,38.9140625 74.9179704,39.0963523 74.5976562,39.4609375 C74.2773421,39.8255227 74.0729171,40.3333301 73.984375,40.984375 L77.6015625,40.984375 L77.6015625,40.84375 C77.5598956,40.2083302 77.3906265,39.7278662 77.09375,39.4023438 C76.7968735,39.0768213 76.3854193,38.9140625 75.859375,38.9140625 Z M92.8671875,36.21875 L89.3203125,36.21875 L89.3203125,46 L87.359375,46 L87.359375,36.21875 L83.84375,36.21875 L83.84375,34.625 L92.8671875,34.625 L92.8671875,36.21875 Z M96.1953125,46 L94.296875,46 L94.296875,37.546875 L96.1953125,37.546875 L96.1953125,46 Z M94.1796875,35.3515625 C94.1796875,35.0598944 94.2721345,34.8177093 94.4570312,34.625 C94.641928,34.4322907 94.9062483,34.3359375 95.25,34.3359375 C95.5937517,34.3359375 95.8593741,34.4322907 96.046875,34.625 C96.2343759,34.8177093 96.328125,35.0598944 96.328125,35.3515625 C96.328125,35.6380223 96.2343759,35.8763011 96.046875,36.0664062 C95.8593741,36.2565114 95.5937517,36.3515625 95.25,36.3515625 C94.9062483,36.3515625 94.641928,36.2565114 94.4570312,36.0664062 C94.2721345,35.8763011 94.1796875,35.6380223 94.1796875,35.3515625 Z M100.640625,35.4921875 L100.640625,37.546875 L102.132812,37.546875 L102.132812,38.953125 L100.640625,38.953125 L100.640625,43.671875 C100.640625,43.9947933 100.704426,44.2278639 100.832031,44.3710938 C100.959636,44.5143236 101.187498,44.5859375 101.515625,44.5859375 C101.734376,44.5859375 101.955728,44.5598961 102.179688,44.5078125 L102.179688,45.9765625 C101.747394,46.0963548 101.330731,46.15625 100.929688,46.15625 C99.4713469,46.15625 98.7421875,45.3515705 98.7421875,43.7421875 L98.7421875,38.953125 L97.3515625,38.953125 L97.3515625,37.546875 L98.7421875,37.546875 L98.7421875,35.4921875 L100.640625,35.4921875 Z M105.601562,46 L103.703125,46 L103.703125,34 L105.601562,34 L105.601562,46 Z M111.390625,46.15625 C110.187494,46.15625 109.212243,45.7773475 108.464844,45.0195312 C107.717444,44.261715 107.34375,43.2526105 107.34375,41.9921875 L107.34375,41.7578125 C107.34375,40.9140583 107.506509,40.1601596 107.832031,39.4960938 C108.157554,38.8320279 108.61458,38.315106 109.203125,37.9453125 C109.79167,37.575519 110.447913,37.390625 111.171875,37.390625 C112.322922,37.390625 113.212236,37.7578088 113.839844,38.4921875 C114.467451,39.2265662 114.78125,40.2656183 114.78125,41.609375 L114.78125,42.375 L109.257812,42.375 C109.315104,43.0729202 109.548175,43.624998 109.957031,44.03125 C110.365887,44.437502 110.880205,44.640625 111.5,44.640625 C112.369796,44.640625 113.078122,44.289066 113.625,43.5859375 L114.648438,44.5625 C114.309894,45.0677109 113.858076,45.459634 113.292969,45.7382812 C112.727862,46.0169285 112.093754,46.15625 111.390625,46.15625 Z M111.164062,38.9140625 C110.643227,38.9140625 110.222658,39.0963523 109.902344,39.4609375 C109.58203,39.8255227 109.377605,40.3333301 109.289062,40.984375 L112.90625,40.984375 L112.90625,40.84375 C112.864583,40.2083302 112.695314,39.7278662 112.398438,39.4023438 C112.101561,39.0768213 111.690107,38.9140625 111.164062,38.9140625 Z" id="Article-Title" fill="#5D6B82"></path>
    </g>
</svg>