<?xml version="1.0" encoding="UTF-8"?>
<svg width="148px" height="80px" viewBox="0 0 148 80" version="1.1" xmlns="http://www.w3.org/2000/svg" xmlns:xlink="http://www.w3.org/1999/xlink">
    <!-- Generator: Sketch 50.2 (55047) - http://www.bohemiancoding.com/sketch -->
    <title>EasyBlog Image Copy</title>
    <desc>Created with Sketch.</desc>
    <defs></defs>
    <g id="EasyBlog-Image-Copy" stroke="none" stroke-width="1" fill="none" fill-rule="evenodd">
        <rect id="Rectangle-4" fill="#D1D5DB" x="0" y="0" width="148" height="80" rx="2"></rect>
        <rect id="Rectangle-3" fill="#FAFBFB" x="1" y="1" width="146" height="78" rx="1"></rect>
        <path d="M23.6484375,38.921875 L18.9765625,38.921875 L18.9765625,42.421875 L24.4375,42.421875 L24.4375,44 L17,44 L17,32.625 L24.3828125,32.625 L24.3828125,34.21875 L18.9765625,34.21875 L18.9765625,37.359375 L23.6484375,37.359375 L23.6484375,38.921875 Z M30.9140625,44 C30.8307287,43.8385409 30.7578128,43.5755227 30.6953125,43.2109375 C30.0911428,43.841149 29.3515669,44.15625 28.4765625,44.15625 C27.6275999,44.15625 26.9348985,43.9140649 26.3984375,43.4296875 C25.8619765,42.9453101 25.59375,42.3463577 25.59375,41.6328125 C25.59375,40.7317663 25.9283821,40.040367 26.5976562,39.5585938 C27.2669304,39.0768205 28.2239521,38.8359375 29.46875,38.8359375 L30.6328125,38.8359375 L30.6328125,38.28125 C30.6328125,37.8437478 30.5104179,37.4934909 30.265625,37.2304688 C30.0208321,36.9674466 29.64844,36.8359375 29.1484375,36.8359375 C28.7161437,36.8359375 28.3619805,36.9440093 28.0859375,37.1601562 C27.8098945,37.3763032 27.671875,37.65104 27.671875,37.984375 L25.7734375,37.984375 C25.7734375,37.520831 25.9270818,37.0872416 26.234375,36.6835938 C26.5416682,36.2799459 26.9596328,35.9635428 27.4882812,35.734375 C28.0169297,35.5052072 28.6067676,35.390625 29.2578125,35.390625 C30.2474008,35.390625 31.0364554,35.6393204 31.625,36.1367188 C32.2135446,36.6341171 32.5156249,37.3333288 32.53125,38.234375 L32.53125,42.046875 C32.53125,42.8072955 32.6380198,43.4140602 32.8515625,43.8671875 L32.8515625,44 L30.9140625,44 Z M28.828125,42.6328125 C29.2031269,42.6328125 29.5559879,42.5416676 29.8867188,42.359375 C30.2174496,42.1770824 30.466145,41.9322932 30.6328125,41.625 L30.6328125,40.03125 L29.609375,40.03125 C28.9062465,40.03125 28.3776059,40.1536446 28.0234375,40.3984375 C27.6692691,40.6432304 27.4921875,40.9895811 27.4921875,41.4375 C27.4921875,41.8020852 27.61328,42.0924468 27.8554688,42.3085938 C28.0976575,42.5247407 28.421873,42.6328125 28.828125,42.6328125 Z M39.2578125,41.703125 C39.2578125,41.3645816 39.118491,41.1067717 38.8398438,40.9296875 C38.5611965,40.7526033 38.0989616,40.5963548 37.453125,40.4609375 C36.8072884,40.3255202 36.2682313,40.1536469 35.8359375,39.9453125 C34.8880161,39.4869769 34.4140625,38.822921 34.4140625,37.953125 C34.4140625,37.2239547 34.7213511,36.6145858 35.3359375,36.125 C35.9505239,35.6354142 36.7317661,35.390625 37.6796875,35.390625 C38.6901092,35.390625 39.5065073,35.6406225 40.1289062,36.140625 C40.7513052,36.6406275 41.0625,37.2890585 41.0625,38.0859375 L39.1640625,38.0859375 C39.1640625,37.7213523 39.0286472,37.41797 38.7578125,37.1757812 C38.4869778,36.9335925 38.1276064,36.8125 37.6796875,36.8125 C37.2630188,36.8125 36.9231784,36.9088532 36.6601562,37.1015625 C36.3971341,37.2942718 36.265625,37.5520817 36.265625,37.875 C36.265625,38.1666681 36.3880196,38.3932284 36.6328125,38.5546875 C36.8776054,38.7161466 37.3723921,38.8789054 38.1171875,39.0429688 C38.8619829,39.2070321 39.4466125,39.4023426 39.8710938,39.6289062 C40.295575,39.8554699 40.6106761,40.1276026 40.8164062,40.4453125 C41.0221364,40.7630224 41.125,41.1484352 41.125,41.6015625 C41.125,42.361983 40.809899,42.9778622 40.1796875,43.4492188 C39.549476,43.9205753 38.7239634,44.15625 37.703125,44.15625 C37.0104132,44.15625 36.3932319,44.0312512 35.8515625,43.78125 C35.3098931,43.5312488 34.8880223,43.1875022 34.5859375,42.75 C34.2838527,42.3124978 34.1328125,41.8411484 34.1328125,41.3359375 L35.9765625,41.3359375 C36.0026043,41.7838564 36.1718734,42.128905 36.484375,42.3710938 C36.7968766,42.6132825 37.2109349,42.734375 37.7265625,42.734375 C38.226565,42.734375 38.6067695,42.6393239 38.8671875,42.4492188 C39.1276055,42.2591136 39.2578125,42.0104182 39.2578125,41.703125 Z M45.734375,41.28125 L47.453125,35.546875 L49.4765625,35.546875 L46.1171875,45.28125 C45.6015599,46.7031321 44.7265687,47.4140625 43.4921875,47.4140625 C43.2161445,47.4140625 42.91146,47.367188 42.578125,47.2734375 L42.578125,45.8046875 L42.9375,45.828125 C43.4166691,45.828125 43.7773425,45.7408863 44.0195312,45.5664062 C44.26172,45.3919262 44.4531243,45.0989604 44.59375,44.6875 L44.8671875,43.9609375 L41.8984375,35.546875 L43.9453125,35.546875 L45.734375,41.28125 Z M50.75,44 L50.75,32.625 L54.6484375,32.625 C55.9349023,32.625 56.9140591,32.8828099 57.5859375,33.3984375 C58.2578159,33.9140651 58.59375,34.6822866 58.59375,35.703125 C58.59375,36.2239609 58.4531264,36.6927063 58.171875,37.109375 C57.8906236,37.5260437 57.4791694,37.8489572 56.9375,38.078125 C57.5520864,38.2447925 58.0273421,38.5585914 58.3632812,39.0195312 C58.6992204,39.4804711 58.8671875,40.0338509 58.8671875,40.6796875 C58.8671875,41.7474012 58.524743,42.5677055 57.8398438,43.140625 C57.1549445,43.7135445 56.1744855,44 54.8984375,44 L50.75,44 Z M52.7265625,38.8671875 L52.7265625,42.421875 L54.921875,42.421875 C55.5416698,42.421875 56.0260399,42.2682307 56.375,41.9609375 C56.7239601,41.6536443 56.8984375,41.2265652 56.8984375,40.6796875 C56.8984375,39.4973899 56.2942769,38.8932293 55.0859375,38.8671875 L52.7265625,38.8671875 Z M52.7265625,37.4140625 L54.6640625,37.4140625 C55.2786489,37.4140625 55.7591129,37.274741 56.1054688,36.9960938 C56.4518246,36.7174465 56.625,36.3229192 56.625,35.8125 C56.625,35.2499972 56.4648454,34.8437512 56.1445312,34.59375 C55.8242171,34.3437488 55.3255242,34.21875 54.6484375,34.21875 L52.7265625,34.21875 L52.7265625,37.4140625 Z M62.6796875,44 L60.78125,44 L60.78125,32 L62.6796875,32 L62.6796875,44 Z M64.390625,39.6953125 C64.390625,38.8671834 64.5546859,38.1210971 64.8828125,37.4570312 C65.2109391,36.7929654 65.671872,36.2825539 66.265625,35.9257812 C66.859378,35.5690086 67.5416628,35.390625 68.3125,35.390625 C69.4531307,35.390625 70.3789027,35.7578088 71.0898438,36.4921875 C71.8007848,37.2265662 72.1848955,38.2005148 72.2421875,39.4140625 L72.25,39.859375 C72.25,40.6927125 72.0898454,41.4374967 71.7695312,42.09375 C71.4492171,42.7500033 70.9908884,43.2578107 70.3945312,43.6171875 C69.7981741,43.9765643 69.1093789,44.15625 68.328125,44.15625 C67.1354107,44.15625 66.1809932,43.7591186 65.4648438,42.9648438 C64.7486943,42.1705689 64.390625,41.1119858 64.390625,39.7890625 L64.390625,39.6953125 Z M66.2890625,39.859375 C66.2890625,40.729171 66.4687482,41.4101538 66.828125,41.9023438 C67.1875018,42.3945337 67.6874968,42.640625 68.328125,42.640625 C68.9687532,42.640625 69.4674461,42.3906275 69.8242188,41.890625 C70.1809914,41.3906225 70.359375,40.658859 70.359375,39.6953125 C70.359375,38.8411416 70.1757831,38.164065 69.8085938,37.6640625 C69.4414044,37.16406 68.9427115,36.9140625 68.3125,36.9140625 C67.6927052,36.9140625 67.2005227,37.1601538 66.8359375,37.6523438 C66.4713523,38.1445337 66.2890625,38.8802034 66.2890625,39.859375 Z M73.5234375,39.7109375 C73.5234375,38.3984309 73.8320282,37.3502643 74.4492188,36.5664062 C75.0664093,35.7825482 75.8854116,35.390625 76.90625,35.390625 C77.8697965,35.390625 78.6276014,35.7265591 79.1796875,36.3984375 L79.265625,35.546875 L80.9765625,35.546875 L80.9765625,43.7421875 C80.9765625,44.851568 80.6315139,45.7265593 79.9414062,46.3671875 C79.2512986,47.0078157 78.3203184,47.328125 77.1484375,47.328125 C76.5286427,47.328125 75.92318,47.19922 75.3320312,46.9414062 C74.7408825,46.6835925 74.2916682,46.3463562 73.984375,45.9296875 L74.8828125,44.7890625 C75.4661488,45.4817743 76.1848916,45.828125 77.0390625,45.828125 C77.669274,45.828125 78.1666648,45.6575538 78.53125,45.3164062 C78.8958352,44.9752587 79.078125,44.4739616 79.078125,43.8125 L79.078125,43.2421875 C78.5312473,43.8515655 77.8020879,44.15625 76.890625,44.15625 C75.9010367,44.15625 75.0924511,43.7630248 74.4648438,42.9765625 C73.8372364,42.1901002 73.5234375,41.1015695 73.5234375,39.7109375 Z M75.4140625,39.875 C75.4140625,40.7239626 75.5872379,41.3919246 75.9335938,41.8789062 C76.2799496,42.3658879 76.7604136,42.609375 77.375,42.609375 C78.1406288,42.609375 78.7083315,42.2812533 79.078125,41.625 L79.078125,37.90625 C78.7187482,37.2656218 78.1562538,36.9453125 77.390625,36.9453125 C76.7656219,36.9453125 76.2799496,37.1927059 75.9335938,37.6875 C75.5872379,38.1822941 75.4140625,38.9114535 75.4140625,39.875 Z M89.1796875,44 L87.2109375,44 L87.2109375,32.625 L89.1796875,32.625 L89.1796875,44 Z M93.2109375,35.546875 L93.265625,36.4296875 C93.859378,35.7369757 94.6718698,35.390625 95.703125,35.390625 C96.833339,35.390625 97.6067688,35.8229123 98.0234375,36.6875 C98.6380239,35.8229123 99.5025986,35.390625 100.617188,35.390625 C101.549484,35.390625 102.243487,35.6484349 102.699219,36.1640625 C103.15495,36.6796901 103.388021,37.4400991 103.398438,38.4453125 L103.398438,44 L101.5,44 L101.5,38.5 C101.5,37.963539 101.382814,37.5703137 101.148438,37.3203125 C100.914061,37.0703113 100.526044,36.9453125 99.984375,36.9453125 C99.5520812,36.9453125 99.1992201,37.0611968 98.9257812,37.2929688 C98.6523424,37.5247407 98.460938,37.8281231 98.3515625,38.203125 L98.359375,44 L96.4609375,44 L96.4609375,38.4375 C96.4348957,37.4427034 95.9270883,36.9453125 94.9375,36.9453125 C94.1770795,36.9453125 93.6380224,37.2552052 93.3203125,37.875 L93.3203125,44 L91.421875,44 L91.421875,35.546875 L93.2109375,35.546875 Z M110.398438,44 C110.315104,43.8385409 110.242188,43.5755227 110.179688,43.2109375 C109.575518,43.841149 108.835942,44.15625 107.960938,44.15625 C107.111975,44.15625 106.419274,43.9140649 105.882812,43.4296875 C105.346351,42.9453101 105.078125,42.3463577 105.078125,41.6328125 C105.078125,40.7317663 105.412757,40.040367 106.082031,39.5585938 C106.751305,39.0768205 107.708327,38.8359375 108.953125,38.8359375 L110.117188,38.8359375 L110.117188,38.28125 C110.117188,37.8437478 109.994793,37.4934909 109.75,37.2304688 C109.505207,36.9674466 109.132815,36.8359375 108.632812,36.8359375 C108.200519,36.8359375 107.846356,36.9440093 107.570312,37.1601562 C107.294269,37.3763032 107.15625,37.65104 107.15625,37.984375 L105.257812,37.984375 C105.257812,37.520831 105.411457,37.0872416 105.71875,36.6835938 C106.026043,36.2799459 106.444008,35.9635428 106.972656,35.734375 C107.501305,35.5052072 108.091143,35.390625 108.742188,35.390625 C109.731776,35.390625 110.52083,35.6393204 111.109375,36.1367188 C111.69792,36.6341171 112,37.3333288 112.015625,38.234375 L112.015625,42.046875 C112.015625,42.8072955 112.122395,43.4140602 112.335938,43.8671875 L112.335938,44 L110.398438,44 Z M108.3125,42.6328125 C108.687502,42.6328125 109.040363,42.5416676 109.371094,42.359375 C109.701825,42.1770824 109.95052,41.9322932 110.117188,41.625 L110.117188,40.03125 L109.09375,40.03125 C108.390621,40.03125 107.861981,40.1536446 107.507812,40.3984375 C107.153644,40.6432304 106.976562,40.9895811 106.976562,41.4375 C106.976562,41.8020852 107.097655,42.0924468 107.339844,42.3085938 C107.582032,42.5247407 107.906248,42.6328125 108.3125,42.6328125 Z M113.671875,39.7109375 C113.671875,38.3984309 113.980466,37.3502643 114.597656,36.5664062 C115.214847,35.7825482 116.033849,35.390625 117.054688,35.390625 C118.018234,35.390625 118.776039,35.7265591 119.328125,36.3984375 L119.414062,35.546875 L121.125,35.546875 L121.125,43.7421875 C121.125,44.851568 120.779951,45.7265593 120.089844,46.3671875 C119.399736,47.0078157 118.468756,47.328125 117.296875,47.328125 C116.67708,47.328125 116.071618,47.19922 115.480469,46.9414062 C114.88932,46.6835925 114.440106,46.3463562 114.132812,45.9296875 L115.03125,44.7890625 C115.614586,45.4817743 116.333329,45.828125 117.1875,45.828125 C117.817711,45.828125 118.315102,45.6575538 118.679688,45.3164062 C119.044273,44.9752587 119.226562,44.4739616 119.226562,43.8125 L119.226562,43.2421875 C118.679685,43.8515655 117.950525,44.15625 117.039062,44.15625 C116.049474,44.15625 115.240889,43.7630248 114.613281,42.9765625 C113.985674,42.1901002 113.671875,41.1015695 113.671875,39.7109375 Z M115.5625,39.875 C115.5625,40.7239626 115.735675,41.3919246 116.082031,41.8789062 C116.428387,42.3658879 116.908851,42.609375 117.523438,42.609375 C118.289066,42.609375 118.856769,42.2812533 119.226562,41.625 L119.226562,37.90625 C118.867186,37.2656218 118.304691,36.9453125 117.539062,36.9453125 C116.914059,36.9453125 116.428387,37.1927059 116.082031,37.6875 C115.735675,38.1822941 115.5625,38.9114535 115.5625,39.875 Z M126.796875,44.15625 C125.593744,44.15625 124.618493,43.7773475 123.871094,43.0195312 C123.123694,42.261715 122.75,41.2526105 122.75,39.9921875 L122.75,39.7578125 C122.75,38.9140583 122.912759,38.1601596 123.238281,37.4960938 C123.563804,36.8320279 124.02083,36.315106 124.609375,35.9453125 C125.19792,35.575519 125.854163,35.390625 126.578125,35.390625 C127.729172,35.390625 128.618486,35.7578088 129.246094,36.4921875 C129.873701,37.2265662 130.1875,38.2656183 130.1875,39.609375 L130.1875,40.375 L124.664062,40.375 C124.721354,41.0729202 124.954425,41.624998 125.363281,42.03125 C125.772137,42.437502 126.286455,42.640625 126.90625,42.640625 C127.776046,42.640625 128.484372,42.289066 129.03125,41.5859375 L130.054688,42.5625 C129.716144,43.0677109 129.264326,43.459634 128.699219,43.7382812 C128.134112,44.0169285 127.500004,44.15625 126.796875,44.15625 Z M126.570312,36.9140625 C126.049477,36.9140625 125.628908,37.0963523 125.308594,37.4609375 C124.98828,37.8255227 124.783855,38.3333301 124.695312,38.984375 L128.3125,38.984375 L128.3125,38.84375 C128.270833,38.2083302 128.101564,37.7278662 127.804688,37.4023438 C127.507811,37.0768213 127.096357,36.9140625 126.570312,36.9140625 Z" id="EasyBlog-Image" fill="#5D6B82"></path>
    </g>
</svg>