<svg width="148" height="80" viewBox="0 0 148 80" fill="none" xmlns="http://www.w3.org/2000/svg">
<rect width="148" height="80" rx="2" fill="#D1D5DB"/>
<rect x="1" y="1" width="146" height="78" rx="1" fill="#FAFBFB"/>
<path fill-rule="evenodd" clip-rule="evenodd" d="M78 40C78 42.2091 76.2091 44 74 44C71.7909 44 70 42.2091 70 40C70 37.7909 71.7909 36 74 36C76.2091 36 78 37.7909 78 40ZM74 48C78.4183 48 82 44.4183 82 40C82 35.5817 78.4183 32 74 32C69.5817 32 66 35.5817 66 40C66 44.4183 69.5817 48 74 48ZM12 38H50V42H12V38ZM98 38H136V42H98V38ZM58.0001 42C59.1047 42 60.0001 41.1046 60.0001 40C60.0001 38.8954 59.1047 38 58.0001 38C56.8956 38 56.0001 38.8954 56.0001 40C56.0001 41.1046 56.8956 42 58.0001 42ZM62.0001 40C62.0001 42.2091 60.2093 44 58.0001 44C55.791 44 54.0001 42.2091 54.0001 40C54.0001 37.7909 55.791 36 58.0001 36C60.2093 36 62.0001 37.7909 62.0001 40ZM92.0001 40C92.0001 41.1046 91.1047 42 90.0001 42C88.8956 42 88.0001 41.1046 88.0001 40C88.0001 38.8954 88.8956 38 90.0001 38C91.1047 38 92.0001 38.8954 92.0001 40ZM90.0001 44C92.2093 44 94.0001 42.2091 94.0001 40C94.0001 37.7909 92.2093 36 90.0001 36C87.791 36 86.0001 37.7909 86.0001 40C86.0001 42.2091 87.791 44 90.0001 44Z" fill="#5D6B82"/>
</svg>
