<svg width="148" height="80" viewBox="0 0 148 80" fill="none" xmlns="http://www.w3.org/2000/svg">
<rect width="148" height="80" rx="2" fill="#D1D5DB"/>
<rect x="1" y="1" width="146" height="78" rx="1" fill="#FAFBFB"/>
<path fill-rule="evenodd" clip-rule="evenodd" d="M82 40C82 44.4183 78.4183 48 74 48C69.5817 48 66 44.4183 66 40C66 35.5817 69.5817 32 74 32C78.4183 32 82 35.5817 82 40ZM12 38H50V42H12V38ZM98 38H136V42H98V38ZM58 44C60.2091 44 62 42.2091 62 40C62 37.7909 60.2091 36 58 36C55.7909 36 54 37.7909 54 40C54 42.2091 55.7909 44 58 44ZM94 40C94 42.2091 92.2091 44 90 44C87.7909 44 86 42.2091 86 40C86 37.7909 87.7909 36 90 36C92.2091 36 94 37.7909 94 40Z" fill="#5D6B82"/>
</svg>
