<svg width="148" height="80" viewBox="0 0 148 80" fill="none" xmlns="http://www.w3.org/2000/svg">
<rect width="148" height="80" rx="2" fill="#D1D5DB"/>
<rect x="1" y="1" width="146" height="78" rx="1" fill="#FAFBFB"/>
<path fill-rule="evenodd" clip-rule="evenodd" d="M68.8284 40L73.9853 34.8431L79.1421 40L73.9853 45.1569L68.8284 40ZM66 40L67.4142 38.5858L72.5711 33.4289L73.9853 32.0147L75.3995 33.4289L80.5564 38.5858L81.9706 40L80.5564 41.4142L75.3995 46.5711L73.9853 47.9853L72.5711 46.5711L67.4142 41.4142L66 40ZM60 40C60 41.1046 59.1046 42 58 42C56.8954 42 56 41.1046 56 40C56 38.8954 56.8954 38 58 38C59.1046 38 60 38.8954 60 40ZM58 44C60.2091 44 62 42.2091 62 40C62 37.7909 60.2091 36 58 36C55.7909 36 54 37.7909 54 40C54 42.2091 55.7909 44 58 44ZM12 38H50V42H12V38ZM98 38H136V42H98V38ZM90 42C91.1046 42 92 41.1046 92 40C92 38.8954 91.1046 38 90 38C88.8954 38 88 38.8954 88 40C88 41.1046 88.8954 42 90 42ZM94 40C94 42.2091 92.2091 44 90 44C87.7909 44 86 42.2091 86 40C86 37.7909 87.7909 36 90 36C92.2091 36 94 37.7909 94 40Z" fill="#5D6B82"/>
</svg>
