<svg width="148" height="80" viewBox="0 0 148 80" fill="none" xmlns="http://www.w3.org/2000/svg">
<rect width="148" height="80" rx="2" fill="#D1D5DB"/>
<rect x="1" y="1" width="146" height="78" rx="1" fill="#FAFBFB"/>
<path fill-rule="evenodd" clip-rule="evenodd" d="M73.9853 32.0147L66 40L73.9853 47.9853L81.9706 40L73.9853 32.0147ZM62 40C62 42.2091 60.2091 44 58 44C55.7909 44 54 42.2091 54 40C54 37.7909 55.7909 36 58 36C60.2091 36 62 37.7909 62 40ZM12 38H50V42H12V38ZM98 38H136V42H98V38ZM90 44C92.2091 44 94 42.2091 94 40C94 37.7909 92.2091 36 90 36C87.7909 36 86 37.7909 86 40C86 42.2091 87.7909 44 90 44Z" fill="#5D6B82"/>
</svg>
