<svg width="148" height="80" viewBox="0 0 148 80" fill="none" xmlns="http://www.w3.org/2000/svg">
<rect width="148" height="80" rx="2" fill="#D1D5DB"/>
<rect x="1" y="1" width="146" height="78" rx="1" fill="#FAFBFB"/>
<path fill-rule="evenodd" clip-rule="evenodd" d="M73.9853 47.9853L66 40L73.9853 32.0147L81.9706 40L73.9853 47.9853ZM68.8284 40L73.9853 34.8431L79.1421 40L73.9853 45.1569L68.8284 40Z" fill="#5D6B82"/>
<path fill-rule="evenodd" clip-rule="evenodd" d="M64.657 40L59.0001 45.6569L53.3433 40L59.0001 34.3431L64.657 40ZM56.1717 40L59.0001 37.1716L61.8285 40L59.0001 42.8284L56.1717 40Z" fill="#5D6B82"/>
<path fill-rule="evenodd" clip-rule="evenodd" d="M94.6569 40L89 45.6569L83.3431 40L89 34.3431L94.6569 40ZM89 37.1716L91.8284 40L89 42.8284L86.1716 40L89 37.1716Z" fill="#5D6B82"/>
<path d="M97.1426 38H135.143V42H97.1426V38Z" fill="#5D6B82"/>
<path d="M51 38H13V42H51V38Z" fill="#5D6B82"/>
</svg>
