<svg width="148" height="80" viewBox="0 0 148 80" fill="none" xmlns="http://www.w3.org/2000/svg">
<rect width="148" height="80" rx="2" fill="#D1D5DB"/>
<rect x="1" y="1" width="146" height="78" rx="1" fill="#FAFBFB"/>
<path fill-rule="evenodd" clip-rule="evenodd" d="M66.5129 41L67.375 40.1724L68.237 41L67.375 41.8276L66.5129 41ZM71.125 41L68.8189 38.7862L73 34.7724L77.181 38.7862L74.875 41L77.181 43.2138L73 47.2276L68.819 43.2138L71.125 41ZM78.625 44.6L73 50L67.375 44.6L64.5625 47.3L58 41L64.5625 34.7L67.375 37.4L73 32L78.625 37.4L81.4375 34.7L88 41L81.4375 47.3L78.625 44.6ZM80.069 38.7862L81.4375 37.4724L85.112 41L81.4375 44.5276L80.0689 43.2138L82.375 41L80.069 38.7862ZM78.625 40.1724L79.487 41L78.625 41.8276L77.7629 41L78.625 40.1724ZM63.625 41L65.931 43.2138L64.5625 44.5276L60.8879 41L64.5625 37.4724L65.931 38.7862L63.625 41ZM12 39H50V43H12V39ZM95 39H133V43H95V39Z" fill="#5D6B82"/>
</svg>
