<svg width="148" height="80" viewBox="0 0 148 80" fill="none" xmlns="http://www.w3.org/2000/svg">
<rect width="148" height="80" rx="2" fill="#D1D5DB"/>
<rect x="1" y="1" width="146" height="78" rx="1" fill="#FAFBFB"/>
<path fill-rule="evenodd" clip-rule="evenodd" d="M79.0783 42.8368L74.1191 45.5411V39.714L79.0783 37.9086V42.8368ZM79.032 36.8702L73.6233 38.8384L68.2147 36.8702L73.6233 34.902L79.032 36.8702ZM81 43.3846V36.4615C81 35.9748 80.6935 35.5421 80.2428 35.3798L73.8966 33.0721C73.7704 33.027 73.6352 33 73.5 33C73.3648 33 73.2295 33.027 73.1033 33.0721L66.7572 35.3798C66.3065 35.5421 66 35.9748 66 36.4615V43.3846C66 43.8083 66.2343 44.1959 66.6039 44.3942L72.9501 47.8558C73.1214 47.9549 73.3107 48 73.5 48C73.6893 48 73.8786 47.9549 74.0499 47.8558L80.396 44.3942C80.7656 44.1959 81 43.8083 81 43.3846ZM12 39H50V43H12V39ZM96 39H134V43H96V39Z" fill="#5D6B82"/>
</svg>
