<svg width="148" height="80" viewBox="0 0 148 80" fill="none" xmlns="http://www.w3.org/2000/svg">
<rect width="148" height="80" rx="2" fill="#D1D5DB"/>
<rect x="1" y="1" width="146" height="78" rx="1" fill="#FAFBFB"/>
<path fill-rule="evenodd" clip-rule="evenodd" d="M76.5648 41.9775C76.5648 40.7993 76.8268 39.8543 77.3506 39.1427C77.8745 38.4263 78.5768 38.0681 79.4574 38.0681C80.2342 38.0681 80.8619 38.3509 81.3406 38.9165V35H82.9868V45.8586H81.4965L81.4152 45.0668C80.9229 45.6889 80.2658 46 79.4439 46C78.5858 46 77.8903 45.6395 77.3574 44.9184C76.829 44.1973 76.5648 43.217 76.5648 41.9775ZM78.211 42.126C78.211 42.9036 78.3532 43.5116 78.6377 43.9499C78.9268 44.3835 79.3355 44.6003 79.8639 44.6003C80.5368 44.6003 81.029 44.2868 81.3406 43.66V40.394C81.0381 39.7813 80.5503 39.4749 79.8774 39.4749C79.3445 39.4749 78.9335 39.6964 78.6445 40.1395C78.3555 40.5778 78.211 41.2399 78.211 42.126ZM63.0097 45.8586H64.6558V38.2095H63.0097V45.8586ZM63.1452 35.5656C62.9871 35.7399 62.9081 35.9591 62.9081 36.223C62.9081 36.4822 62.9871 36.699 63.1452 36.8734C63.3077 37.0431 63.5381 37.1279 63.8361 37.1279C64.1342 37.1279 64.3645 37.0431 64.5271 36.8734C64.6897 36.699 64.771 36.4822 64.771 36.223C64.771 35.9591 64.6897 35.7399 64.5271 35.5656C64.3645 35.3912 64.1342 35.304 63.8361 35.304C63.5381 35.304 63.3077 35.3912 63.1452 35.5656ZM54 35.5656V45.8586H56.8384C57.7281 45.8586 58.5161 45.6583 59.2026 45.2577C59.8935 44.8571 60.4242 44.2868 60.7945 43.5469C61.1694 42.807 61.3568 41.9492 61.3568 40.9737V40.4576C61.3568 39.4961 61.1716 38.6431 60.8013 37.8985C60.431 37.1538 59.9071 36.5788 59.2297 36.1735C58.5568 35.7682 57.7845 35.5656 56.9129 35.5656H54ZM55.7139 44.4306V37.0077H56.9129C57.7981 37.0077 58.4732 37.3023 58.9384 37.8914C59.4035 38.4805 59.6361 39.3335 59.6361 40.4505V41.0231C59.6271 42.1213 59.381 42.9649 58.8977 43.554C58.419 44.1384 57.7303 44.4306 56.8316 44.4306H55.7139ZM69.0387 43.6812L70.59 38.2095H72.2903L69.75 45.8586H68.3206L65.76 38.2095H67.4671L69.0387 43.6812ZM73.4284 45.8586H75.0745V38.2095H73.4284V45.8586ZM73.5639 35.5656C73.4058 35.7399 73.3268 35.9591 73.3268 36.223C73.3268 36.4822 73.4058 36.699 73.5639 36.8734C73.7265 37.0431 73.9568 37.1279 74.2548 37.1279C74.5529 37.1279 74.7832 37.0431 74.9458 36.8734C75.1084 36.699 75.1897 36.4822 75.1897 36.223C75.1897 35.9591 75.1084 35.7399 74.9458 35.5656C74.7832 35.3912 74.5529 35.304 74.2548 35.304C73.9568 35.304 73.7265 35.3912 73.5639 35.5656ZM85.3916 44.9749C86.0419 45.6583 86.8887 46 87.9319 46C88.5416 46 89.0903 45.8751 89.5781 45.6253C90.0703 45.3708 90.4632 45.015 90.7568 44.5578L89.8694 43.6742C89.3952 44.3104 88.781 44.6285 88.0268 44.6285C87.4893 44.6285 87.0423 44.4447 86.6855 44.0771C86.3332 43.7095 86.1323 43.2099 86.0826 42.5784H90.8719V41.8856C90.8719 40.6697 90.5987 39.7294 90.0523 39.0649C89.5103 38.4004 88.7403 38.0681 87.7423 38.0681C87.1145 38.0681 86.5455 38.2354 86.0352 38.5701C85.5248 38.9047 85.1274 39.3736 84.8429 39.9769C84.5629 40.5754 84.4229 41.2564 84.4229 42.0199V42.232C84.4229 43.3725 84.7458 44.2868 85.3916 44.9749ZM86.6381 39.9415C86.9181 39.6116 87.2839 39.4467 87.7355 39.4467C88.1916 39.4467 88.5484 39.5951 88.8058 39.892C89.0632 40.1842 89.21 40.6178 89.2461 41.1928V41.3201H86.1097C86.1864 40.7309 86.3626 40.2714 86.6381 39.9415ZM95.9932 39.7789C95.7765 39.7412 95.5529 39.7224 95.3226 39.7224C94.5684 39.7224 94.0603 40.024 93.7984 40.6272V45.8586H92.1523V38.2095H93.7239L93.7645 39.0649C94.1619 38.4004 94.7129 38.0681 95.4174 38.0681C95.6523 38.0681 95.8465 38.1011 96 38.1671L95.9932 39.7789ZM100 39H138V43H100V39ZM50 39H12V43H50V39Z" fill="#5D6B82"/>
</svg>
