<svg width="148" height="80" viewBox="0 0 148 80" fill="none" xmlns="http://www.w3.org/2000/svg">
<rect width="148" height="80" rx="2" fill="#D1D5DB"/>
<path fill-rule="evenodd" clip-rule="evenodd" d="M2 1C1.44772 1 1 1.44771 1 2V78C1 78.5523 1.44771 79 2 79H146C146.552 79 147 78.5523 147 78V2C147 1.44772 146.552 1 146 1H2ZM13 12H137V68H13V12ZM96 23H52V31H96V23ZM114 35H34V39H114V35ZM84 49H64V57H84V49ZM42 41H106V45H42V41Z" fill="#FAFBFB"/>
<path fill-rule="evenodd" clip-rule="evenodd" d="M79.7267 31H96V24.0177C96.2703 24.0059 96.5413 24 96.8123 24C99.3831 24 101.954 24.5312 103.916 25.5939L106.859 27.1878L109.371 28.5482L116.906 32.6294L119.418 33.9899L126.953 38.0711L137 43.5127V68H119.286H89.7083H75.5425H13V52.1845L23.1224 45.8583L28.1837 42.6952L33.2448 39.5322L34.0963 39H114V35H72.3414L74.2067 33.9897L76.7183 32.6294L79.7267 31ZM52 29.569V31H60.0349C60.2449 31.1113 60.4493 31.2289 60.6476 31.3528L63.6126 33.2058L66.4834 35H40.4967L43.3675 33.2058L46.3328 31.3528C47.2411 30.785 48.28 30.3494 49.3885 30.0427C50.2275 29.8104 51.1066 29.6522 52 29.569ZM64 49H84V57H64V49ZM106 41H42V45H106V41Z" fill="#5D6B82"/>
</svg>
