<svg width="148" height="80" viewBox="0 0 148 80" fill="none" xmlns="http://www.w3.org/2000/svg">
<rect width="148" height="80" rx="2" fill="#D1D5DB"/>
<path fill-rule="evenodd" clip-rule="evenodd" d="M2 1C1.44772 1 1 1.44771 1 2V78C1 78.5523 1.44771 79 2 79H146C146.552 79 147 78.5523 147 78V2C147 1.44772 146.552 1 146 1H2ZM12 52C12 42.0589 20.0589 34 30 34C39.9411 34 48 42.0589 48 52C48 61.9411 39.9411 70 30 70C20.0589 70 12 61.9411 12 52ZM74 34C64.0589 34 56 42.0589 56 52C56 61.9411 64.0589 70 74 70C83.9411 70 92 61.9411 92 52C92 42.0589 83.9411 34 74 34ZM118 34C108.059 34 100 42.0589 100 52C100 61.9411 108.059 70 118 70C127.941 70 136 61.9411 136 52C136 42.0589 127.941 34 118 34Z" fill="#FAFBFB"/>
<path fill-rule="evenodd" clip-rule="evenodd" d="M12 28H28L30 30L32 28H48V10H12V28ZM92 28H76L74 30L72 28H56V10H92V28ZM136 28H120L118 30L116 28H100V10H136V28ZM44 24H16V20H44V24ZM16 18H44V14H16V18ZM88 24H60V20H88V24ZM60 18H88V14H60V18ZM132 24H104V20H132V24ZM104 18H132V14H104V18ZM29.9999 70C38.0351 70 44.8406 64.7351 47.1548 57.4668L45.0452 56.0868L44.1944 55.5302L41.6421 53.8606L40.7914 53.3041L39.7946 52.6521C39.1302 52.2173 38.2592 52 37.3885 52C36.5176 52 35.6467 52.2173 34.9823 52.6521L33.9855 53.3041L33.1347 53.8606L30.5825 55.5302L29.7318 56.0867L28.0369 57.1954L27.8575 57.06L26.1432 55.766L25.139 55.008C24.8313 54.7757 24.4795 54.5976 24.104 54.472C23.6626 54.3244 23.1888 54.25 22.7147 54.25C22.2406 54.25 21.7667 54.3245 21.3254 54.472C20.95 54.5975 20.5981 54.7757 20.2904 55.008L19.2861 55.766L17.5717 57.0601L15.8574 58.3541L14.1432 59.648L13.8184 59.8932C16.7431 65.8779 22.8901 70 29.9999 70ZM91.1548 57.4668C88.8406 64.7351 82.0351 70 73.9999 70C66.8901 70 60.7431 65.8779 57.8184 59.8933L58.1433 59.648L59.8575 58.3541L61.5718 57.0601L63.2861 55.766L64.2905 55.008C64.5981 54.7757 64.95 54.5975 65.3255 54.472C65.7667 54.3245 66.2406 54.25 66.7148 54.25C67.1889 54.25 67.6627 54.3244 68.104 54.472C68.4795 54.5976 68.8314 54.7757 69.139 55.008L70.1433 55.766L71.8575 57.06L72.037 57.1954L73.7318 56.0867L74.5825 55.5302L77.1348 53.8606L77.9856 53.3041L78.9823 52.6521C79.6467 52.2173 80.5177 52 81.3885 52C82.2593 52 83.1302 52.2173 83.7947 52.6521L84.7915 53.3041L85.6422 53.8606L88.1944 55.5302L89.0452 56.0868L91.1548 57.4668ZM118 70C126.035 70 132.841 64.7351 135.155 57.4668L133.045 56.0868L132.194 55.5302L129.642 53.8606L128.791 53.3041L127.795 52.6521C127.13 52.2173 126.259 52 125.388 52C124.518 52 123.647 52.2173 122.982 52.6521L121.986 53.3041L121.135 53.8606L118.582 55.5302L117.732 56.0867L116.037 57.1954L115.857 57.06L114.143 55.766L113.139 55.008C112.831 54.7757 112.479 54.5976 112.104 54.472C111.663 54.3244 111.189 54.25 110.715 54.25C110.241 54.25 109.767 54.3245 109.325 54.472C108.95 54.5975 108.598 54.7757 108.29 55.008L107.286 55.766L105.572 57.0601L103.857 58.3541L102.143 59.648L101.818 59.8932C104.743 65.8779 110.89 70 118 70Z" fill="#5D6B82"/>
</svg>
