<svg width="148" height="80" viewBox="0 0 148 80" fill="none" xmlns="http://www.w3.org/2000/svg">
<rect width="148" height="80" rx="2" fill="#D1D5DB"/>
<path fill-rule="evenodd" clip-rule="evenodd" d="M2 1C1.44772 1 1 1.44771 1 2V78C1 78.5523 1.44771 79 2 79H146C146.552 79 147 78.5523 147 78V2C147 1.44772 146.552 1 146 1H2ZM36 25H70V29H36V25ZM36 31H70V35H36V31ZM136 31H102V35H136V31ZM102 25H136V29H102V25ZM70 57H36V61H70V57ZM36 51H70V55H36V51ZM136 57H102V61H136V57ZM102 51H136V55H102V51Z" fill="#FAFBFB"/>
<path fill-rule="evenodd" clip-rule="evenodd" d="M20.759 33.8383C21.5372 33.4532 22.4628 33.4532 23.241 33.8383L27.4601 35.9264C27.9554 36.1715 28.5303 35.7691 28.4347 35.2442L27.6403 30.8843C27.4866 30.0405 27.7821 29.1788 28.4289 28.5854L31.7922 25.4992C32.1972 25.1275 31.9766 24.4735 31.4206 24.3974L26.7313 23.756C25.8561 23.6363 25.0978 23.1144 24.702 22.3594L22.603 18.3557C22.3543 17.8814 21.6457 17.8814 21.397 18.3557L19.298 22.3594C18.9022 23.1144 18.1439 23.6363 17.2687 23.756L12.5794 24.3974C12.0234 24.4735 11.8028 25.1275 12.2078 25.4992L15.5711 28.5854C16.2179 29.1788 16.5134 30.0405 16.3597 30.8843L15.5653 35.2442C15.4697 35.7691 16.0446 36.1715 16.5399 35.9264L20.759 33.8383ZM52 19H36V23H52V19ZM89.241 33.8383C88.4628 33.4532 87.5372 33.4532 86.759 33.8383L82.5399 35.9264C82.0446 36.1715 81.4697 35.7691 81.5653 35.2442L82.3596 30.8843C82.5134 30.0405 82.2179 29.1788 81.5711 28.5854L78.2078 25.4992C77.8028 25.1275 78.0234 24.4735 78.5794 24.3974L83.2687 23.756C84.1439 23.6363 84.9022 23.1144 85.298 22.3594L87.397 18.3557C87.6457 17.8814 88.3543 17.8814 88.603 18.3557L90.702 22.3594C91.0978 23.1144 91.8561 23.6363 92.7313 23.756L97.4206 24.3974C97.9766 24.4735 98.1972 25.1275 97.7922 25.4992L94.4289 28.5854C93.7821 29.1788 93.4866 30.0405 93.6404 30.8843L94.4347 35.2442C94.5303 35.7691 93.9554 36.1715 93.4601 35.9264L89.241 33.8383ZM118 19H102V23H118V19ZM23.241 59.8383C22.4628 59.4532 21.5372 59.4532 20.759 59.8383L16.5399 61.9264C16.0446 62.1715 15.4697 61.7691 15.5653 61.2442L16.3597 56.8843C16.5134 56.0405 16.2179 55.1788 15.5711 54.5854L12.2078 51.4992C11.8028 51.1275 12.0234 50.4735 12.5794 50.3974L17.2687 49.756C18.1439 49.6363 18.9022 49.1144 19.298 48.3594L21.397 44.3557C21.6457 43.8814 22.3543 43.8814 22.603 44.3557L24.702 48.3594C25.0978 49.1144 25.8561 49.6363 26.7313 49.756L31.4206 50.3974C31.9766 50.4735 32.1972 51.1275 31.7922 51.4992L28.4289 54.5854C27.7821 55.1788 27.4866 56.0405 27.6403 56.8843L28.4347 61.2442C28.5303 61.7691 27.9554 62.1715 27.4601 61.9264L23.241 59.8383ZM52 45H36V49H52V45ZM89.241 59.8383C88.4628 59.4532 87.5372 59.4532 86.759 59.8383L82.5399 61.9264C82.0446 62.1715 81.4697 61.7691 81.5653 61.2442L82.3596 56.8843C82.5134 56.0405 82.2179 55.1788 81.5711 54.5854L78.2078 51.4992C77.8028 51.1275 78.0234 50.4735 78.5794 50.3974L83.2687 49.756C84.1439 49.6363 84.9022 49.1144 85.298 48.3594L87.397 44.3557C87.6457 43.8814 88.3543 43.8814 88.603 44.3557L90.702 48.3594C91.0978 49.1144 91.8561 49.6363 92.7313 49.756L97.4206 50.3974C97.9766 50.4735 98.1972 51.1275 97.7922 51.4992L94.4289 54.5854C93.7821 55.1788 93.4866 56.0405 93.6404 56.8843L94.4347 61.2442C94.5303 61.7691 93.9554 62.1715 93.4601 61.9264L89.241 59.8383ZM118 45H102V49H118V45Z" fill="#5D6B82"/>
</svg>
