<svg width="148" height="80" viewBox="0 0 148 80" fill="none" xmlns="http://www.w3.org/2000/svg">
<rect width="148" height="80" rx="2" fill="#D1D5DB"/>
<path fill-rule="evenodd" clip-rule="evenodd" d="M2 1C1.44772 1 1 1.44771 1 2V78C1 78.5523 1.44771 79 2 79H146C146.552 79 147 78.5523 147 78V2C147 1.44772 146.552 1 146 1H2ZM42 47H18V51H42V47ZM42 53H18V57H42V53ZM18 59H42V63H18V59ZM86 47H62V51H86V47ZM62 53H86V57H62V53ZM86 59H62V63H86V59ZM106 47H130V51H106V47ZM130 53H106V57H130V53ZM106 59H130V63H106V59Z" fill="#FAFBFB"/>
<path fill-rule="evenodd" clip-rule="evenodd" d="M46 14H14V66H46V14ZM12 12V68H48V12H12ZM90 14H58V66H90V14ZM56 12V68H92V12H56ZM102 14H134V66H102V14ZM100 68V12H136V68H100ZM22 39H38V43H22V39ZM28.759 32.8383C29.5372 32.4532 30.4628 32.4532 31.241 32.8383L35.4601 34.9264C35.9554 35.1715 36.5303 34.7691 36.4347 34.2442L35.6403 29.8843C35.4866 29.0405 35.7821 28.1788 36.4289 27.5854L39.7922 24.4992C40.1972 24.1275 39.9766 23.4735 39.4206 23.3974L34.7313 22.756C33.8561 22.6363 33.0978 22.1144 32.702 21.3594L30.603 17.3557C30.3543 16.8814 29.6457 16.8814 29.397 17.3557L27.298 21.3594C26.9022 22.1144 26.1439 22.6363 25.2687 22.756L20.5794 23.3974C20.0234 23.4735 19.8028 24.1275 20.2078 24.4992L23.5711 27.5854C24.2179 28.1788 24.5134 29.0405 24.3597 29.8843L23.5653 34.2442C23.4697 34.7691 24.0446 35.1715 24.5399 34.9264L28.759 32.8383ZM66 39H82V43H66V39ZM72.759 32.8383C73.5372 32.4532 74.4628 32.4532 75.241 32.8383L79.4601 34.9264C79.9554 35.1715 80.5303 34.7691 80.4347 34.2442L79.6404 29.8843C79.4866 29.0405 79.7821 28.1788 80.4289 27.5854L83.7922 24.4992C84.1972 24.1275 83.9766 23.4735 83.4206 23.3974L78.7313 22.756C77.8561 22.6363 77.0978 22.1144 76.702 21.3594L74.603 17.3557C74.3543 16.8814 73.6457 16.8814 73.397 17.3557L71.298 21.3594C70.9022 22.1144 70.1439 22.6363 69.2687 22.756L64.5794 23.3974C64.0234 23.4735 63.8028 24.1275 64.2079 24.4992L67.5711 27.5854C68.2179 28.1788 68.5134 29.0405 68.3597 29.8843L67.5653 34.2442C67.4697 34.7691 68.0446 35.1715 68.5399 34.9264L72.759 32.8383ZM110 39H126V43H110V39ZM116.759 32.8383C117.537 32.4532 118.463 32.4532 119.241 32.8383L123.46 34.9264C123.955 35.1715 124.53 34.7691 124.435 34.2442L123.64 29.8843C123.487 29.0405 123.782 28.1788 124.429 27.5854L127.792 24.4992C128.197 24.1275 127.977 23.4735 127.421 23.3974L122.731 22.756C121.856 22.6363 121.098 22.1144 120.702 21.3594L118.603 17.3557C118.354 16.8814 117.646 16.8814 117.397 17.3557L115.298 21.3594C114.902 22.1144 114.144 22.6363 113.269 22.756L108.579 23.3974C108.023 23.4735 107.803 24.1275 108.208 24.4992L111.571 27.5854C112.218 28.1788 112.513 29.0405 112.36 29.8843L111.565 34.2442C111.47 34.7691 112.045 35.1715 112.54 34.9264L116.759 32.8383Z" fill="#5D6B82"/>
</svg>
