<svg width="148" height="80" viewBox="0 0 148 80" fill="none" xmlns="http://www.w3.org/2000/svg">
<rect width="148" height="80" rx="2" fill="#D1D5DB"/>
<rect x="1" y="1" width="146" height="78" rx="1" fill="#FAFBFB"/>
<path fill-rule="evenodd" clip-rule="evenodd" d="M12 13H48V67H12V13ZM56 13H92V67H56V13ZM136 13H100V67H136V13ZM28.759 32.8383C29.5372 32.4532 30.4628 32.4532 31.241 32.8383L35.4601 34.9264C35.9554 35.1715 36.5303 34.7691 36.4347 34.2442L35.6403 29.8843C35.4866 29.0405 35.7821 28.1788 36.4289 27.5854L39.7922 24.4992C40.1972 24.1275 39.9766 23.4735 39.4206 23.3974L34.7313 22.756C33.8561 22.6363 33.0978 22.1144 32.702 21.3594L30.603 17.3557C30.3543 16.8814 29.6457 16.8814 29.397 17.3557L27.298 21.3594C26.9022 22.1144 26.1439 22.6363 25.2687 22.756L20.5794 23.3974C20.0234 23.4735 19.8028 24.1275 20.2078 24.4992L23.5711 27.5854C24.2179 28.1788 24.5134 29.0405 24.3597 29.8843L23.5653 34.2442C23.4697 34.7691 24.0446 35.1715 24.5399 34.9264L28.759 32.8383ZM22 39H38V43H22V39ZM18 47H42V51H18V47ZM18 53H42V57H18V53ZM42 59H18V63H42V59ZM62 47H86V51H62V47ZM86 53H62V57H86V53ZM62 59H86V63H62V59ZM82 39H66V43H82V39ZM75.241 32.8383C74.4628 32.4532 73.5372 32.4532 72.759 32.8383L68.5399 34.9264C68.0446 35.1715 67.4697 34.7691 67.5653 34.2442L68.3597 29.8843C68.5134 29.0405 68.2179 28.1788 67.5711 27.5854L64.2079 24.4992C63.8028 24.1275 64.0234 23.4735 64.5794 23.3974L69.2687 22.756C70.1439 22.6363 70.9022 22.1144 71.298 21.3594L73.397 17.3557C73.6457 16.8814 74.3543 16.8814 74.603 17.3557L76.702 21.3594C77.0978 22.1144 77.8561 22.6363 78.7313 22.756L83.4206 23.3974C83.9766 23.4735 84.1972 24.1275 83.7922 24.4992L80.4289 27.5854C79.7821 28.1788 79.4866 29.0405 79.6404 29.8843L80.4347 34.2442C80.5303 34.7691 79.9554 35.1715 79.4601 34.9264L75.241 32.8383ZM130 47H106V51H130V47ZM106 53H130V57H106V53ZM130 59H106V63H130V59ZM110 39H126V43H110V39ZM116.759 32.8383C117.537 32.4532 118.463 32.4532 119.241 32.8383L123.46 34.9264C123.955 35.1715 124.53 34.7691 124.435 34.2442L123.64 29.8843C123.487 29.0405 123.782 28.1788 124.429 27.5854L127.792 24.4992C128.197 24.1275 127.977 23.4735 127.421 23.3974L122.731 22.756C121.856 22.6363 121.098 22.1144 120.702 21.3594L118.603 17.3557C118.354 16.8814 117.646 16.8814 117.397 17.3557L115.298 21.3594C114.902 22.1144 114.144 22.6363 113.269 22.756L108.579 23.3974C108.023 23.4735 107.803 24.1275 108.208 24.4992L111.571 27.5854C112.218 28.1788 112.513 29.0405 112.36 29.8843L111.565 34.2442C111.47 34.7691 112.045 35.1715 112.54 34.9264L116.759 32.8383Z" fill="#5D6B82"/>
</svg>
