<svg width="148" height="80" viewBox="0 0 148 80" fill="none" xmlns="http://www.w3.org/2000/svg">
<rect width="148" height="80" rx="2" fill="#D1D5DB"/>
<path fill-rule="evenodd" clip-rule="evenodd" d="M2 1C1.44772 1 1 1.44771 1 2V78C1 78.5523 1.44771 79 2 79H146C146.552 79 147 78.5523 147 78V2C147 1.44772 146.552 1 146 1H2ZM42 45H18V49H42V45ZM42 51H18V55H42V51ZM18 57H42V61H18V57ZM86 45H62V49H86V45ZM62 51H86V55H62V51ZM86 57H62V61H86V57ZM106 45H130V49H106V45ZM130 51H106V55H130V51ZM106 57H130V61H106V57Z" fill="#FAFBFB"/>
<path fill-rule="evenodd" clip-rule="evenodd" d="M48 23H39.9506C39.4489 17.9467 35.1853 14 30 14C24.8147 14 20.5511 17.9467 20.0494 23H12V66H48V23ZM39.9506 25C39.4489 30.0533 35.1853 34 30 34C24.8147 34 20.5511 30.0533 20.0494 25H14V64H46V25H39.9506ZM30 32C34.0796 32 37.446 28.9463 37.9381 25C37.9415 24.9729 37.9447 24.9458 37.9478 24.9186C37.9823 24.6172 38 24.3107 38 24C38 23.6613 37.979 23.3276 37.9381 23C37.446 19.0537 34.0796 16 30 16C25.9204 16 22.554 19.0537 22.0619 23C22.0585 23.0271 22.0553 23.0542 22.0522 23.0814C22.0177 23.3828 22 23.6893 22 24C22 24.3387 22.021 24.6724 22.0619 25C22.554 28.9463 25.9204 32 30 32ZM92 23H83.9506C83.4489 17.9467 79.1853 14 74 14C68.8147 14 64.5511 17.9467 64.0494 23H56V66H92V23ZM83.9506 25C83.4489 30.0533 79.1853 34 74 34C68.8147 34 64.5511 30.0533 64.0494 25H58V64H90V25H83.9506ZM74 32C78.0796 32 81.446 28.9463 81.9381 25C81.9415 24.9729 81.9447 24.9458 81.9478 24.9186C81.9823 24.6172 82 24.3107 82 24C82 23.6613 81.979 23.3276 81.9381 23C81.446 19.0537 78.0796 16 74 16C69.9204 16 66.554 19.0537 66.0619 23C66.0592 23.0215 66.0566 23.043 66.0541 23.0646C66.0535 23.0702 66.0528 23.0758 66.0522 23.0814C66.0177 23.3828 66 23.6893 66 24C66 24.3387 66.021 24.6724 66.0619 25C66.554 28.9463 69.9204 32 74 32ZM118 34C123.185 34 127.449 30.0533 127.951 25H134V64H102V25H108.049C108.551 30.0533 112.815 34 118 34ZM118 14C123.185 14 127.449 17.9467 127.951 23H136V66H100V23H108.049C108.551 17.9467 112.815 14 118 14ZM118 32C122.08 32 125.446 28.9463 125.938 25C125.979 24.6724 126 24.3387 126 24C126 23.6893 125.982 23.3828 125.948 23.0814C125.945 23.0542 125.941 23.0271 125.938 23C125.446 19.0537 122.08 16 118 16C113.92 16 110.554 19.0537 110.062 23C110.021 23.3276 110 23.6613 110 24C110 24.3107 110.018 24.6172 110.052 24.9186C110.055 24.9458 110.059 24.9729 110.062 25C110.554 28.9463 113.92 32 118 32ZM22 41V37H38V41H22ZM82 41V37H66V41H82ZM110 41V37H126V41H110ZM26.7239 28.9591L29.2554 27.7991C29.7223 27.5851 30.2777 27.5851 30.7446 27.7991L33.2761 28.9591C33.5732 29.0953 33.9182 28.8717 33.8608 28.5801L33.3842 26.1579C33.292 25.6891 33.4693 25.2105 33.8573 24.8808L35.8753 23.1662C36.1183 22.9597 35.986 22.5964 35.6523 22.5541L32.8388 22.1978C32.3136 22.1313 31.8587 21.8414 31.6212 21.4219L30.3618 19.1976C30.2126 18.9341 29.7874 18.9341 29.6382 19.1976L28.3788 21.4219C28.1413 21.8414 27.6864 22.1313 27.1612 22.1978L24.3477 22.5541C24.014 22.5964 23.8817 22.9597 24.1247 23.1662L26.1427 24.8808C26.5307 25.2105 26.708 25.6891 26.6158 26.1579L26.1392 28.5801C26.0818 28.8717 26.4268 29.0953 26.7239 28.9591ZM70.7239 28.9591L73.2554 27.7991C73.7223 27.5851 74.2777 27.5851 74.7446 27.7991L77.2761 28.9591C77.5732 29.0953 77.9182 28.8717 77.8608 28.5801L77.3842 26.1579C77.292 25.6891 77.4693 25.2105 77.8573 24.8808L79.8753 23.1662C80.1183 22.9597 79.986 22.5964 79.6523 22.5541L76.8388 22.1978C76.3136 22.1313 75.8587 21.8414 75.6212 21.4219L74.3618 19.1976C74.2126 18.9341 73.7874 18.9341 73.6382 19.1976L72.3788 21.4219C72.1413 21.8414 71.6864 22.1313 71.1612 22.1978L68.3477 22.5541C68.014 22.5964 67.8817 22.9597 68.1247 23.1662L70.1427 24.8808C70.5307 25.2105 70.708 25.6891 70.6158 26.1579L70.1392 28.5801C70.0818 28.8717 70.4268 29.0953 70.7239 28.9591ZM121.276 28.9591L118.745 27.7991C118.278 27.5851 117.722 27.5851 117.255 27.7991L114.724 28.9591C114.427 29.0953 114.082 28.8717 114.139 28.5801L114.616 26.1579C114.708 25.6891 114.531 25.2105 114.143 24.8808L112.125 23.1662C111.882 22.9597 112.014 22.5964 112.348 22.5541L115.161 22.1978C115.686 22.1313 116.141 21.8414 116.379 21.4219L117.638 19.1976C117.787 18.9341 118.213 18.9341 118.362 19.1976L119.621 21.4219C119.859 21.8414 120.314 22.1313 120.839 22.1978L123.652 22.5541C123.986 22.5964 124.118 22.9597 123.875 23.1662L121.857 24.8808C121.469 25.2105 121.292 25.6891 121.384 26.1579L121.861 28.5801C121.918 28.8717 121.573 29.0953 121.276 28.9591Z" fill="#5D6B82"/>
</svg>
