<svg width="148" height="80" viewBox="0 0 148 80" fill="none" xmlns="http://www.w3.org/2000/svg">
<rect width="148" height="80" rx="2" fill="#D1D5DB"/>
<rect x="1" y="1" width="146" height="78" rx="1" fill="#FAFBFB"/>
<path fill-rule="evenodd" clip-rule="evenodd" d="M12 24H48V66H12V24ZM56 24H92V66H56V24ZM136 24H100V66H136V24ZM38 38H22V42H38V38ZM42 46H18V50H42V46ZM42 52H18V56H42V52ZM18 58H42V62H18V58ZM62 46H86V50H62V46ZM86 52H62V56H86V52ZM62 58H86V62H62V58ZM82 38H66V42H82V38ZM106 46H130V50H106V46ZM130 52H106V56H130V52ZM106 58H130V62H106V58ZM126 38H110V42H126V38Z" fill="#5D6B82"/>
<path fill-rule="evenodd" clip-rule="evenodd" d="M40 25C40 30.5228 35.5228 35 30 35C24.4772 35 20 30.5228 20 25C20 19.4772 24.4772 15 30 15C35.5228 15 40 19.4772 40 25ZM84 25C84 30.5228 79.5229 35 74 35C68.4772 35 64 30.5228 64 25C64 19.4772 68.4772 15 74 15C79.5229 15 84 19.4772 84 25ZM118 35C123.523 35 128 30.5228 128 25C128 19.4772 123.523 15 118 15C112.477 15 108 19.4772 108 25C108 30.5228 112.477 35 118 35Z" fill="#FAFBFB"/>
<path fill-rule="evenodd" clip-rule="evenodd" d="M38 25C38 29.4183 34.4183 33 30 33C25.5817 33 22 29.4183 22 25C22 20.5817 25.5817 17 30 17C34.4183 17 38 20.5817 38 25ZM40 25C40 30.5228 35.5228 35 30 35C24.4772 35 20 30.5228 20 25C20 19.4772 24.4772 15 30 15C35.5228 15 40 19.4772 40 25ZM29.2554 28.7991C29.7223 28.5851 30.2777 28.5851 30.7446 28.7991L33.2761 29.9591C33.5732 30.0953 33.9182 29.8717 33.8608 29.5801L33.3842 27.1579C33.292 26.6891 33.4693 26.2105 33.8573 25.8808L35.8753 24.1662C36.1183 23.9597 35.986 23.5964 35.6523 23.5541L32.8388 23.1978C32.3136 23.1313 31.8587 22.8414 31.6212 22.4219L30.3618 20.1976C30.2126 19.9341 29.7874 19.9341 29.6382 20.1976L28.3788 22.4219C28.1413 22.8414 27.6864 23.1313 27.1612 23.1978L24.3477 23.5541C24.014 23.5964 23.8817 23.9597 24.1247 24.1662L26.1427 25.8808C26.5307 26.2105 26.708 26.6891 26.6158 27.1579L26.1392 29.5801C26.0818 29.8717 26.4268 30.0953 26.7239 29.9591L29.2554 28.7991ZM74 33C78.4183 33 82 29.4183 82 25C82 20.5817 78.4183 17 74 17C69.5817 17 66 20.5817 66 25C66 29.4183 69.5817 33 74 33ZM74 35C79.5228 35 84 30.5228 84 25C84 19.4772 79.5228 15 74 15C68.4772 15 64 19.4772 64 25C64 30.5228 68.4772 35 74 35ZM73.2554 28.7991C73.7223 28.5851 74.2777 28.5851 74.7446 28.7991L77.2761 29.9591C77.5732 30.0953 77.9182 29.8717 77.8608 29.5801L77.3842 27.1579C77.292 26.6891 77.4693 26.2105 77.8573 25.8808L79.8753 24.1662C80.1183 23.9597 79.986 23.5964 79.6523 23.5541L76.8388 23.1978C76.3136 23.1313 75.8587 22.8414 75.6212 22.4219L74.3618 20.1976C74.2126 19.9341 73.7874 19.9341 73.6382 20.1976L72.3788 22.4219C72.1413 22.8414 71.6864 23.1313 71.1612 23.1978L68.3477 23.5541C68.014 23.5964 67.8817 23.9597 68.1247 24.1662L70.1427 25.8808C70.5307 26.2105 70.708 26.6891 70.6158 27.1579L70.1392 29.5801C70.0818 29.8717 70.4268 30.0953 70.7239 29.9591L73.2554 28.7991ZM118 33C122.418 33 126 29.4183 126 25C126 20.5817 122.418 17 118 17C113.582 17 110 20.5817 110 25C110 29.4183 113.582 33 118 33ZM118 35C123.523 35 128 30.5228 128 25C128 19.4772 123.523 15 118 15C112.477 15 108 19.4772 108 25C108 30.5228 112.477 35 118 35ZM117.255 28.7991C117.722 28.5851 118.278 28.5851 118.745 28.7991L121.276 29.9591C121.573 30.0953 121.918 29.8717 121.861 29.5801L121.384 27.1579C121.292 26.6891 121.469 26.2105 121.857 25.8808L123.875 24.1662C124.118 23.9597 123.986 23.5964 123.652 23.5541L120.839 23.1978C120.314 23.1313 119.859 22.8414 119.621 22.4219L118.362 20.1976C118.213 19.9341 117.787 19.9341 117.638 20.1976L116.379 22.4219C116.141 22.8414 115.686 23.1313 115.161 23.1978L112.348 23.5541C112.014 23.5964 111.882 23.9597 112.125 24.1662L114.143 25.8808C114.531 26.2105 114.708 26.6891 114.616 27.1579L114.139 29.5801C114.082 29.8717 114.427 30.0953 114.724 29.9591L117.255 28.7991Z" fill="#5D6B82"/>
</svg>
