<svg width="148" height="80" viewBox="0 0 148 80" fill="none" xmlns="http://www.w3.org/2000/svg">
<rect width="148" height="80" rx="2" fill="#D1D5DB"/>
<path fill-rule="evenodd" clip-rule="evenodd" d="M2 1C1.44772 1 1 1.44771 1 2V78C1 78.5523 1.44771 79 2 79H146C146.552 79 147 78.5523 147 78V2C147 1.44772 146.552 1 146 1H2ZM22 16H70V64H22V16ZM94 26H78V30H94V26ZM94 56H78V64H94V56Z" fill="#FAFBFB"/>
<path fill-rule="evenodd" clip-rule="evenodd" d="M78 16H126V24H78V16ZM96 56H126V64H96V56ZM42.6871 27C40.8466 27.3265 35.7853 28.4247 34.773 29.6712C33.7607 30.9178 31.4601 35.1621 31 37.0616C31.9202 37.7146 36.6135 39.3767 36.6135 39.3767C36.9816 38.605 37.8098 36.1712 37.8098 36.1712C38.0552 37.863 38.5092 41.8699 38.362 44.363C38.1779 47.4795 37.8098 53 37.8098 53H55C55 49.7723 54.9217 49.0447 54.5631 45.7107C54.5329 45.4295 54.5006 45.1297 54.4663 44.8082C53.9141 39.6438 54.0779 36.6087 54.0779 36.6087C54.354 37.6772 55.3681 39.3767 55.6626 39.3767C58.4221 39.3767 61 36.7945 61 36.7945C61 36.7945 57.9632 29.4932 56.6748 29.0479C55.3865 28.6027 49.4969 27 49.4969 27C48.3313 28.0091 45.3374 29.4219 42.6871 27ZM125 33H79V47H125V33ZM78 32V48H126V32H78ZM82.0508 43H82.9961V37.293H82.875L80.6562 38.1094V38.9102L82.0508 38.4336V43ZM84.9727 43H88.7969V42.2422H86.1562L87.5469 40.7539C87.9115 40.3581 88.1732 40.0052 88.332 39.6953C88.4935 39.3828 88.5742 39.0846 88.5742 38.8008C88.5742 38.3112 88.4141 37.9284 88.0938 37.6523C87.776 37.3737 87.3411 37.2344 86.7891 37.2344C86.4062 37.2344 86.0677 37.3112 85.7734 37.4648C85.4818 37.6185 85.2565 37.8346 85.0977 38.1133C84.9414 38.3893 84.8633 38.7005 84.8633 39.0469H85.8125C85.8125 38.7214 85.8971 38.4648 86.0664 38.2773C86.2357 38.0898 86.474 37.9961 86.7812 37.9961C87.0391 37.9961 87.2435 38.0794 87.3945 38.2461C87.5482 38.4128 87.625 38.6315 87.625 38.9023C87.625 39.1081 87.5664 39.3138 87.4492 39.5195C87.3346 39.7227 87.1406 39.9766 86.8672 40.2812L84.9727 42.3477V43ZM90.5625 42.1523C90.4661 42.0508 90.3294 42 90.1523 42C89.9779 42 89.8424 42.0508 89.7461 42.1523C89.6497 42.2513 89.6016 42.3763 89.6016 42.5273C89.6016 42.6784 89.651 42.8021 89.75 42.8984C89.849 42.9948 89.9831 43.043 90.1523 43.043C90.3294 43.043 90.4661 42.9948 90.5625 42.8984C90.6589 42.7995 90.707 42.6758 90.707 42.5273C90.707 42.3763 90.6589 42.2513 90.5625 42.1523ZM90.5625 38.8359C90.4661 38.7344 90.3294 38.6836 90.1523 38.6836C89.9779 38.6836 89.8424 38.7344 89.7461 38.8359C89.6497 38.9349 89.6016 39.0599 89.6016 39.2109C89.6016 39.362 89.651 39.4857 89.75 39.582C89.849 39.6784 89.9831 39.7266 90.1523 39.7266C90.3294 39.7266 90.4661 39.6784 90.5625 39.582C90.6589 39.4831 90.707 39.3594 90.707 39.2109C90.707 39.0599 90.6589 38.9349 90.5625 38.8359ZM94.8906 42.457C95.1979 42.0404 95.3516 41.4232 95.3516 40.6055V39.6211C95.3438 38.8268 95.1862 38.2305 94.8789 37.832C94.5742 37.4336 94.1107 37.2344 93.4883 37.2344C92.8607 37.2344 92.3932 37.4388 92.0859 37.8477C91.7812 38.2565 91.6289 38.8698 91.6289 39.6875V40.6719C91.6367 41.4661 91.7956 42.0664 92.1055 42.4727C92.418 42.8763 92.8815 43.0781 93.4961 43.0781C94.1211 43.0781 94.5859 42.8711 94.8906 42.457ZM94.1836 38.3711C94.3294 38.6185 94.4023 39.0091 94.4023 39.543V40.8281C94.3945 41.3411 94.3177 41.7188 94.1719 41.9609C94.026 42.2005 93.8008 42.3203 93.4961 42.3203C93.1784 42.3203 92.9453 42.1901 92.7969 41.9297C92.6484 41.6693 92.5742 41.2734 92.5742 40.7422V39.4531C92.582 38.9531 92.6589 38.5859 92.8047 38.3516C92.9505 38.1146 93.1784 37.9961 93.4883 37.9961C93.806 37.9961 94.0378 38.1211 94.1836 38.3711ZM97.7695 41.125C98.194 41.125 98.5651 40.957 98.8828 40.6211C98.8464 41.168 98.6784 41.5729 98.3789 41.8359C98.0794 42.0964 97.6497 42.2305 97.0898 42.2383H96.9531V43.0234H97.0664C97.9857 43.0156 98.6771 42.7422 99.1406 42.2031C99.6042 41.6641 99.8359 40.8815 99.8359 39.8555V39.5898C99.8359 38.8737 99.668 38.3021 99.332 37.875C98.9961 37.4479 98.5417 37.2344 97.9688 37.2344C97.6016 37.2344 97.2786 37.319 97 37.4883C96.7214 37.6576 96.5065 37.8945 96.3555 38.1992C96.2044 38.5039 96.1289 38.8438 96.1289 39.2188C96.1289 39.7891 96.2773 40.25 96.5742 40.6016C96.8711 40.9505 97.2695 41.125 97.7695 41.125ZM98.5039 40.2188C98.3372 40.3281 98.1589 40.3828 97.9688 40.3828C97.6953 40.3828 97.4766 40.2734 97.3125 40.0547C97.1484 39.8359 97.0664 39.5482 97.0664 39.1914C97.0664 38.8477 97.1471 38.5638 97.3086 38.3398C97.4727 38.1133 97.6914 38 97.9648 38C98.2383 38 98.4609 38.1276 98.6328 38.3828C98.8047 38.638 98.8906 38.9753 98.8906 39.3945V39.7656C98.7995 39.9583 98.6706 40.1094 98.5039 40.2188ZM101.781 42.1523C101.685 42.0508 101.548 42 101.371 42C101.197 42 101.061 42.0508 100.965 42.1523C100.868 42.2513 100.82 42.3763 100.82 42.5273C100.82 42.6784 100.87 42.8021 100.969 42.8984C101.068 42.9948 101.202 43.043 101.371 43.043C101.548 43.043 101.685 42.9948 101.781 42.8984C101.878 42.7995 101.926 42.6758 101.926 42.5273C101.926 42.3763 101.878 42.2513 101.781 42.1523ZM101.781 38.8359C101.685 38.7344 101.548 38.6836 101.371 38.6836C101.197 38.6836 101.061 38.7344 100.965 38.8359C100.868 38.9349 100.82 39.0599 100.82 39.2109C100.82 39.362 100.87 39.4857 100.969 39.582C101.068 39.6784 101.202 39.7266 101.371 39.7266C101.548 39.7266 101.685 39.6784 101.781 39.582C101.878 39.4831 101.926 39.3594 101.926 39.2109C101.926 39.0599 101.878 38.9349 101.781 38.8359ZM106.781 40.9727H106.074V37.3125H105.094L102.641 41.1562L102.668 41.7344H105.125V43H106.074V41.7344H106.781V40.9727ZM105.125 40.9727H103.637L105.055 38.7227L105.125 38.5977V40.9727ZM107.973 37.3125L107.664 40.1797L108.422 40.3672C108.562 40.2344 108.693 40.1458 108.812 40.1016C108.932 40.0547 109.078 40.0312 109.25 40.0312C109.565 40.0312 109.812 40.1328 109.992 40.3359C110.172 40.5365 110.262 40.8099 110.262 41.1562C110.262 41.5156 110.18 41.7995 110.016 42.0078C109.854 42.2161 109.628 42.3203 109.336 42.3203C109.076 42.3203 108.865 42.2474 108.703 42.1016C108.542 41.9531 108.443 41.7409 108.406 41.4648H107.488C107.517 41.9492 107.702 42.3398 108.043 42.6367C108.387 42.931 108.819 43.0781 109.34 43.0781C109.921 43.0781 110.378 42.9076 110.711 42.5664C111.044 42.2227 111.211 41.7617 111.211 41.1836C111.211 40.5977 111.06 40.1315 110.758 39.7852C110.458 39.4388 110.038 39.2656 109.496 39.2656C109.165 39.2656 108.868 39.3411 108.605 39.4922L108.762 38.1328H111.027V37.3125H107.973ZM113 42.1523C112.904 42.0508 112.767 42 112.59 42C112.415 42 112.28 42.0508 112.184 42.1523C112.087 42.2513 112.039 42.3763 112.039 42.5273C112.039 42.6784 112.089 42.8021 112.188 42.8984C112.286 42.9948 112.421 43.043 112.59 43.043C112.767 43.043 112.904 42.9948 113 42.8984C113.096 42.7995 113.145 42.6758 113.145 42.5273C113.145 42.3763 113.096 42.2513 113 42.1523ZM113 38.8359C112.904 38.7344 112.767 38.6836 112.59 38.6836C112.415 38.6836 112.28 38.7344 112.184 38.8359C112.087 38.9349 112.039 39.0599 112.039 39.2109C112.039 39.362 112.089 39.4857 112.188 39.582C112.286 39.6784 112.421 39.7266 112.59 39.7266C112.767 39.7266 112.904 39.6784 113 39.582C113.096 39.4831 113.145 39.3594 113.145 39.2109C113.145 39.0599 113.096 38.9349 113 38.8359ZM117.328 42.457C117.635 42.0404 117.789 41.4232 117.789 40.6055V39.6211C117.781 38.8268 117.624 38.2305 117.316 37.832C117.012 37.4336 116.548 37.2344 115.926 37.2344C115.298 37.2344 114.831 37.4388 114.523 37.8477C114.219 38.2565 114.066 38.8698 114.066 39.6875V40.6719C114.074 41.4661 114.233 42.0664 114.543 42.4727C114.855 42.8763 115.319 43.0781 115.934 43.0781C116.559 43.0781 117.023 42.8711 117.328 42.457ZM116.621 38.3711C116.767 38.6185 116.84 39.0091 116.84 39.543V40.8281C116.832 41.3411 116.755 41.7188 116.609 41.9609C116.464 42.2005 116.238 42.3203 115.934 42.3203C115.616 42.3203 115.383 42.1901 115.234 41.9297C115.086 41.6693 115.012 41.2734 115.012 40.7422V39.4531C115.02 38.9531 115.096 38.5859 115.242 38.3516C115.388 38.1146 115.616 37.9961 115.926 37.9961C116.243 37.9961 116.475 38.1211 116.621 38.3711ZM120.254 43H121.199V37.293H121.078L118.859 38.1094V38.9102L120.254 38.4336V43Z" fill="#5D6B82"/>
</svg>
