<svg width="148" height="80" viewBox="0 0 148 80" fill="none" xmlns="http://www.w3.org/2000/svg">
<rect width="148" height="80" rx="2" fill="#D1D5DB"/>
<path fill-rule="evenodd" clip-rule="evenodd" d="M2 1C1.44772 1 1 1.44771 1 2V78C1 78.5523 1.44771 79 2 79H146C146.552 79 147 78.5523 147 78V2C147 1.44772 146.552 1 146 1H2ZM22 25H70V73H22V25ZM78 35H94V39H78V35ZM110 41V45H78V41H110ZM124 61H78V65H124V61ZM110 67V71H78V67H110ZM94 49H78V57H94V49Z" fill="#FAFBFB"/>
<path fill-rule="evenodd" clip-rule="evenodd" d="M124 8H125V9V17V18H124H24H23V17V9V8H24H124ZM22 8V7H23H125H126V8V18V19H125H23H22V18V8ZM78 25H126V33H78V25ZM96 49H124V57H96V49ZM42.6871 36C40.8466 36.3265 35.7853 37.4247 34.773 38.6712C33.7607 39.9178 31.4601 44.1621 31 46.0616C31.9202 46.7146 36.6135 48.3767 36.6135 48.3767C36.9816 47.605 37.8098 45.1712 37.8098 45.1712C38.0552 46.863 38.5092 50.8699 38.362 53.363C38.1779 56.4795 37.8098 62 37.8098 62H55C55 58.7723 54.9217 58.0447 54.5631 54.7107C54.5329 54.4295 54.5006 54.1297 54.4663 53.8082C53.9141 48.6438 54.0779 45.6087 54.0779 45.6087C54.354 46.6772 55.3681 48.3767 55.6626 48.3767C58.4221 48.3767 61 45.7945 61 45.7945C61 45.7945 57.9632 38.4932 56.6748 38.0479C55.3865 37.6027 49.4969 36 49.4969 36C48.3313 37.0091 45.3374 38.4219 42.6871 36ZM41.8617 16H42.9906V10.3047H42.8695L40.5141 11.1484V12.0664L41.8617 11.6484V16ZM45.6422 16H49.5406V15.0898H47.0953L48.3883 13.7266C48.7424 13.3385 48.9924 12.9987 49.1383 12.707C49.2841 12.4154 49.357 12.1289 49.357 11.8477C49.357 11.3346 49.1943 10.9375 48.8687 10.6562C48.5458 10.375 48.0914 10.2344 47.5055 10.2344C47.1227 10.2344 46.7802 10.3164 46.4781 10.4805C46.176 10.6419 45.9417 10.8659 45.775 11.1523C45.6109 11.4388 45.5289 11.7552 45.5289 12.1016H46.6617C46.6617 11.8151 46.7346 11.5846 46.8805 11.4102C47.0289 11.2331 47.2307 11.1445 47.4859 11.1445C47.7229 11.1445 47.9052 11.2174 48.0328 11.3633C48.1604 11.5065 48.2242 11.7044 48.2242 11.957C48.2242 12.1419 48.163 12.3372 48.0406 12.543C47.9208 12.7487 47.7346 12.9896 47.482 13.2656L45.6422 15.2266V16ZM54.1094 15.0078C53.9896 15.1198 53.9297 15.2656 53.9297 15.4453C53.9297 15.6224 53.9896 15.7669 54.1094 15.8789C54.2292 15.9883 54.3815 16.043 54.5664 16.043C54.7539 16.043 54.9076 15.9883 55.0273 15.8789C55.1471 15.7669 55.207 15.6224 55.207 15.4453C55.207 15.2656 55.1458 15.1198 55.0234 15.0078C54.9036 14.8958 54.7513 14.8398 54.5664 14.8398C54.3841 14.8398 54.2318 14.8958 54.1094 15.0078ZM54.1094 11.8086C53.9896 11.9206 53.9297 12.0664 53.9297 12.2461C53.9297 12.4232 53.9896 12.5677 54.1094 12.6797C54.2292 12.7891 54.3815 12.8438 54.5664 12.8438C54.7539 12.8438 54.9076 12.7891 55.0273 12.6797C55.1471 12.5677 55.207 12.4232 55.207 12.2461C55.207 12.0664 55.1458 11.9206 55.0234 11.8086C54.9036 11.6966 54.7513 11.6406 54.5664 11.6406C54.3841 11.6406 54.2318 11.6966 54.1094 11.8086ZM63.018 15.4531C63.3435 15.0365 63.5062 14.4349 63.5062 13.6484V12.6016C63.4984 11.8385 63.3305 11.2539 63.0023 10.8477C62.6742 10.4388 62.2003 10.2344 61.5805 10.2344C60.9607 10.2344 60.4854 10.4401 60.1547 10.8516C59.8266 11.263 59.6625 11.8659 59.6625 12.6602V13.707C59.6703 14.4701 59.8383 15.056 60.1664 15.4648C60.4945 15.8737 60.9685 16.0781 61.5883 16.0781C62.2159 16.0781 62.6924 15.8698 63.018 15.4531ZM62.182 11.4727C62.3122 11.6862 62.3773 12.0286 62.3773 12.5V13.8516C62.3721 14.2969 62.3083 14.6276 62.1859 14.8438C62.0635 15.0599 61.8643 15.168 61.5883 15.168C61.3096 15.168 61.1065 15.056 60.9789 14.832C60.8539 14.6055 60.7914 14.2604 60.7914 13.7969V12.4141C60.7992 11.9792 60.8656 11.6602 60.9906 11.457C61.1182 11.2513 61.3148 11.1484 61.5805 11.1484C61.8539 11.1484 62.0544 11.2565 62.182 11.4727ZM66.6812 14.1602C67.0745 14.1602 67.4182 14.0156 67.7125 13.7266C67.6318 14.6042 67.1005 15.0651 66.1187 15.1094L65.8687 15.1133V16.0547L66.1461 16.0508C67.0107 16.0143 67.6786 15.7253 68.15 15.1836C68.6214 14.6419 68.857 13.8971 68.857 12.9492V12.5312C68.8544 12.0781 68.7724 11.6758 68.6109 11.3242C68.4495 10.9727 68.2229 10.7031 67.9312 10.5156C67.6396 10.3281 67.3062 10.2344 66.9312 10.2344C66.5667 10.2344 66.2385 10.3216 65.9469 10.4961C65.6552 10.668 65.4273 10.9102 65.2633 11.2227C65.1018 11.5326 65.0211 11.8737 65.0211 12.2461C65.0211 12.832 65.1721 13.2982 65.4742 13.6445C65.7763 13.9883 66.1786 14.1602 66.6812 14.1602ZM67.4273 13.1562C67.2971 13.25 67.1409 13.2969 66.9586 13.2969C66.7008 13.2969 66.5003 13.1979 66.357 13C66.2164 12.7995 66.1461 12.5443 66.1461 12.2344C66.1461 11.9219 66.219 11.6628 66.3648 11.457C66.5107 11.2487 66.6969 11.1445 66.9234 11.1445C67.1682 11.1445 67.3635 11.25 67.5094 11.4609C67.6552 11.6719 67.7281 11.9688 67.7281 12.3516V12.8164C67.6604 12.9492 67.5602 13.0625 67.4273 13.1562ZM73.5391 15.0078C73.4193 15.1198 73.3594 15.2656 73.3594 15.4453C73.3594 15.6224 73.4193 15.7669 73.5391 15.8789C73.6589 15.9883 73.8112 16.043 73.9961 16.043C74.1836 16.043 74.3372 15.9883 74.457 15.8789C74.5768 15.7669 74.6367 15.6224 74.6367 15.4453C74.6367 15.2656 74.5755 15.1198 74.4531 15.0078C74.3333 14.8958 74.181 14.8398 73.9961 14.8398C73.8138 14.8398 73.6615 14.8958 73.5391 15.0078ZM73.5391 11.8086C73.4193 11.9206 73.3594 12.0664 73.3594 12.2461C73.3594 12.4232 73.4193 12.5677 73.5391 12.6797C73.6589 12.7891 73.8112 12.8438 73.9961 12.8438C74.1836 12.8438 74.3372 12.7891 74.457 12.6797C74.5768 12.5677 74.6367 12.4232 74.6367 12.2461C74.6367 12.0664 74.5755 11.9206 74.4531 11.8086C74.3333 11.6966 74.181 11.6406 73.9961 11.6406C73.8138 11.6406 73.6615 11.6966 73.5391 11.8086ZM83.0922 13.8594H82.4477V10.3125H81.307L78.9359 14.0586L78.9867 14.7695H81.3187V16H82.4477V14.7695H83.0922V13.8594ZM81.3187 13.8594H80.0609L81.2445 11.9805L81.3187 11.8516V13.8594ZM84.9977 10.3125L84.6695 13.2031L85.568 13.4258L85.6773 13.3242C85.844 13.1836 86.0615 13.1133 86.3297 13.1133C86.6214 13.1133 86.8466 13.1992 87.0055 13.3711C87.1643 13.543 87.2437 13.7904 87.2437 14.1133C87.2437 14.4492 87.1747 14.7096 87.0367 14.8945C86.8987 15.0768 86.7021 15.168 86.4469 15.168C86.2177 15.168 86.0315 15.1029 85.8883 14.9727C85.7477 14.8398 85.6656 14.6549 85.6422 14.418H84.525C84.5354 14.7409 84.6253 15.0286 84.7945 15.2812C84.9664 15.5339 85.1995 15.7305 85.4937 15.8711C85.788 16.0091 86.107 16.0781 86.4508 16.0781C86.844 16.0781 87.1852 15.9987 87.4742 15.8398C87.7633 15.6784 87.9846 15.4531 88.1383 15.1641C88.2945 14.8724 88.3727 14.543 88.3727 14.1758C88.3727 13.5716 88.219 13.1016 87.9117 12.7656C87.6044 12.4297 87.1799 12.2617 86.6383 12.2617C86.3362 12.2617 86.051 12.3333 85.7828 12.4766L85.9234 11.2539H88.1852V10.3125H84.9977ZM92.9688 15.0078C92.849 15.1198 92.7891 15.2656 92.7891 15.4453C92.7891 15.6224 92.849 15.7669 92.9688 15.8789C93.0885 15.9883 93.2409 16.043 93.4258 16.043C93.6133 16.043 93.7669 15.9883 93.8867 15.8789C94.0065 15.7669 94.0664 15.6224 94.0664 15.4453C94.0664 15.2656 94.0052 15.1198 93.8828 15.0078C93.763 14.8958 93.6107 14.8398 93.4258 14.8398C93.2435 14.8398 93.0911 14.8958 92.9688 15.0078ZM92.9688 11.8086C92.849 11.9206 92.7891 12.0664 92.7891 12.2461C92.7891 12.4232 92.849 12.5677 92.9688 12.6797C93.0885 12.7891 93.2409 12.8438 93.4258 12.8438C93.6133 12.8438 93.7669 12.7891 93.8867 12.6797C94.0065 12.5677 94.0664 12.4232 94.0664 12.2461C94.0664 12.0664 94.0052 11.9206 93.8828 11.8086C93.763 11.6966 93.6107 11.6406 93.4258 11.6406C93.2435 11.6406 93.0911 11.6966 92.9688 11.8086ZM101.877 15.4531C102.203 15.0365 102.366 14.4349 102.366 13.6484V12.6016C102.358 11.8385 102.19 11.2539 101.862 10.8477C101.534 10.4388 101.06 10.2344 100.44 10.2344C99.8201 10.2344 99.3448 10.4401 99.0141 10.8516C98.6859 11.263 98.5219 11.8659 98.5219 12.6602V13.707C98.5297 14.4701 98.6977 15.056 99.0258 15.4648C99.3539 15.8737 99.8279 16.0781 100.448 16.0781C101.075 16.0781 101.552 15.8698 101.877 15.4531ZM101.041 11.4727C101.172 11.6862 101.237 12.0286 101.237 12.5V13.8516C101.232 14.2969 101.168 14.6276 101.045 14.8438C100.923 15.0599 100.724 15.168 100.448 15.168C100.169 15.168 99.9659 15.056 99.8383 14.832C99.7133 14.6055 99.6508 14.2604 99.6508 13.7969V12.4141C99.6586 11.9792 99.725 11.6602 99.85 11.457C99.9776 11.2513 100.174 11.1484 100.44 11.1484C100.713 11.1484 100.914 11.2565 101.041 11.4727ZM105.545 16H106.673V10.3047H106.552L104.197 11.1484V12.0664L105.545 11.6484V16Z" fill="#5D6B82"/>
</svg>
