<svg width="148" height="80" viewBox="0 0 148 80" fill="none" xmlns="http://www.w3.org/2000/svg">
<rect width="148" height="80" rx="2" fill="#D1D5DB"/>
<path fill-rule="evenodd" clip-rule="evenodd" d="M2 1C1.44772 1 1 1.44771 1 2V78C1 78.5523 1.44771 79 2 79H146C146.552 79 147 78.5523 147 78V2C147 1.44772 146.552 1 146 1H2ZM30 15C23.3726 15 18 20.3726 18 27C18 33.6274 23.3726 39 30 39C36.6274 39 42 33.6274 42 27C42 20.3726 36.6274 15 30 15ZM12 47V43H48V47H12ZM12 53V49H48V53H12ZM92 49V53H56V49H92ZM56 43V47H92V43H56ZM62 27C62 20.3726 67.3726 15 74 15C80.6274 15 86 20.3726 86 27C86 33.6274 80.6274 39 74 39C67.3726 39 62 33.6274 62 27ZM100 49V53H136V49H100ZM42 61V65H18V61H42ZM86 65V61H62V65H86ZM130 61V65H106V61H130ZM100 43V47H136V43H100ZM106 27C106 20.3726 111.373 15 118 15C124.627 15 130 20.3726 130 27C130 33.6274 124.627 39 118 39C111.373 39 106 33.6274 106 27Z" fill="#FAFBFB"/>
<path fill-rule="evenodd" clip-rule="evenodd" d="M30 25C31.6569 25 33 23.6569 33 22C33 20.3431 31.6569 19 30 19C28.3431 19 27 20.3431 27 22C27 23.6569 28.3431 25 30 25ZM30 26C28.9889 26 27.9876 26.2176 27.0534 26.6403C26.1192 27.063 25.2703 27.6826 24.5553 28.4637C23.1113 30.0413 23 34.4749 23 36.7059C23 36.7059 25.8 39 30 39C34.2001 39 37 36.7059 37 36.7059C37 34.4749 36.8888 30.0413 35.4448 28.4637C34.0007 26.8862 32.0422 26 30 26ZM77 22C77 23.6569 75.6569 25 74 25C72.3431 25 71 23.6569 71 22C71 20.3431 72.3431 19 74 19C75.6569 19 77 20.3431 77 22ZM74 26C72.9889 26 71.9876 26.2176 71.0534 26.6403C70.1192 27.063 69.2703 27.6826 68.5553 28.4637C67.1113 30.0413 67 34.4749 67 36.7059C67 36.7059 69.8 39 74 39C78.2001 39 81 36.7059 81 36.7059C81 34.4749 80.8888 30.0413 79.4448 28.4637C78.0007 26.8862 76.0422 26 74 26ZM121 22C121 23.6569 119.657 25 118 25C116.343 25 115 23.6569 115 22C115 20.3431 116.343 19 118 19C119.657 19 121 20.3431 121 22ZM118 26C116.989 26 115.988 26.2176 115.053 26.6403C114.119 27.063 113.27 27.6826 112.555 28.4637C111.111 30.0413 111 34.4749 111 36.7059C111 36.7059 113.8 39 118 39C122.2 39 125 36.7059 125 36.7059C125 34.4749 124.889 30.0413 123.445 28.4637C122.001 26.8862 120.042 26 118 26ZM38 59V55H22V59H38ZM82 59V55H66V59H82ZM110 59V55H126V59H110Z" fill="#5D6B82"/>
</svg>
