<svg width="148" height="80" viewBox="0 0 148 80" fill="none" xmlns="http://www.w3.org/2000/svg">
<rect width="148" height="80" rx="2" fill="#D1D5DB"/>
<path fill-rule="evenodd" clip-rule="evenodd" d="M2 1C1.44772 1 1 1.44771 1 2V78C1 78.5523 1.44771 79 2 79H146C146.552 79 147 78.5523 147 78V2C147 1.44772 146.552 1 146 1H2ZM13 12H137V68H13V12ZM68 23H24V31H68V23ZM104 35H24V39H104V35ZM44 49H24V57H44V49ZM24 41H88V45H24V41Z" fill="#FAFBFB"/>
<path fill-rule="evenodd" clip-rule="evenodd" d="M46.9453 31H60.0349C60.2449 31.1113 60.4493 31.2289 60.6476 31.3528L63.6126 33.2058L66.4834 35H40.4967L43.3675 33.2058L46.3328 31.3528C46.5309 31.2289 46.7353 31.1113 46.9453 31ZM34.0963 39L33.2448 39.5322L30.8962 41H88V45H24.4958L23.1224 45.8583L13 52.1845V68H75.5425H89.7083H119.286H137V43.5127L126.953 38.0711L119.418 33.9899L116.906 32.6294L109.371 28.5482L106.859 27.1878L103.916 25.5939C101.954 24.5312 99.3831 24 96.8123 24C94.2412 24 91.6698 24.5312 89.7083 25.5939L86.7655 27.1878L84.2535 28.5482L76.7183 32.6294L74.2067 33.9897L72.3414 35H104V39H34.0963ZM24 49H44V57H24V49Z" fill="#5D6B82"/>
</svg>
