<svg width="148" height="80" viewBox="0 0 148 80" fill="none" xmlns="http://www.w3.org/2000/svg">
<rect width="148" height="80" rx="2" fill="#D1D5DB"/>
<path fill-rule="evenodd" clip-rule="evenodd" d="M2 1C1.44772 1 1 1.44771 1 2V78C1 78.5523 1.44771 79 2 79H146C146.552 79 147 78.5523 147 78V2C147 1.44772 146.552 1 146 1H2ZM42 19C43.1046 19 44 18.1046 44 17C44 15.8954 43.1046 15 42 15C40.8955 15 40 15.8954 40 17C40 18.1046 40.8955 19 42 19ZM42.0001 20C41.5667 20 41.1376 20.0669 40.7372 20.197C40.3368 20.3271 39.973 20.5177 39.6666 20.7581C39.0477 21.2435 39 22.3136 39 23C39 23 40.2 24 42.0001 24C43.8001 24 45 23 45 23C45 22.3136 44.9524 21.2435 44.3335 20.7581C43.7146 20.2727 42.8753 20 42.0001 20ZM44 49C44 50.1046 43.1046 51 42 51C40.8954 51 40 50.1046 40 49C40 47.8954 40.8954 47 42 47C43.1046 47 44 47.8954 44 49ZM42.0001 52C41.5667 52 41.1376 52.0669 40.7372 52.197C40.3368 52.3271 39.973 52.5177 39.6666 52.7581C39.0477 53.2435 39 54.3136 39 55C39 55 40.2 56 42.0001 56C43.8001 56 45 55 45 55C45 54.3136 44.9524 53.2435 44.3335 52.7581C43.7146 52.2727 42.8753 52 42.0001 52ZM108 17C108 18.1046 107.105 19 106 19C104.895 19 104 18.1046 104 17C104 15.8954 104.895 15 106 15C107.105 15 108 15.8954 108 17ZM106 20C105.567 20 105.138 20.0669 104.737 20.197C104.337 20.3271 103.973 20.5177 103.667 20.7581C103.048 21.2435 103 22.3136 103 23C103 23 104.2 24 106 24C107.8 24 109 23 109 23C109 22.3136 108.952 21.2435 108.334 20.7581C107.715 20.2727 106.875 20 106 20ZM108 49C108 50.1046 107.105 51 106 51C104.895 51 104 50.1046 104 49C104 47.8954 104.895 47 106 47C107.105 47 108 47.8954 108 49ZM106 52C105.567 52 105.138 52.0669 104.737 52.197C104.337 52.3271 103.973 52.5177 103.667 52.7581C103.048 53.2435 103 54.3136 103 55C103 55 104.2 56 106 56C107.8 56 109 55 109 55C109 54.3136 108.952 53.2435 108.334 52.7581C107.715 52.2727 106.875 52 106 52Z" fill="#FAFBFB"/>
<path fill-rule="evenodd" clip-rule="evenodd" d="M71 10H12V36H71V10ZM71 42H12V68H71V42ZM77 10H136V36H77V10ZM136 42H77V68H136V42ZM54 26H30V28H54V26ZM54 30H30V32H54V30ZM30 58H54V60H30V58ZM54 62H30V64H54V62ZM94 26H118V28H94V26ZM118 30H94V32H118V30ZM94 58H118V60H94V58ZM118 62H94V64H118V62ZM42 14C39.2386 14 37 16.2386 37 19C37 21.7614 39.2386 24 42 24C44.7614 24 47 21.7614 47 19C47 16.2386 44.7614 14 42 14ZM42 46C39.2386 46 37 48.2386 37 51C37 53.7614 39.2386 56 42 56C44.7614 56 47 53.7614 47 51C47 48.2386 44.7614 46 42 46ZM101 19C101 16.2386 103.239 14 106 14C108.761 14 111 16.2386 111 19C111 21.7614 108.761 24 106 24C103.239 24 101 21.7614 101 19ZM106 46C103.239 46 101 48.2386 101 51C101 53.7614 103.239 56 106 56C108.761 56 111 53.7614 111 51C111 48.2386 108.761 46 106 46Z" fill="#5D6B82"/>
</svg>
