<svg width="148" height="80" viewBox="0 0 148 80" fill="none" xmlns="http://www.w3.org/2000/svg">
<rect width="148" height="80" rx="2" fill="#D1D5DB"/>
<path fill-rule="evenodd" clip-rule="evenodd" d="M2 1C1.44772 1 1 1.44771 1 2V78C1 78.5523 1.44771 79 2 79H146C146.552 79 147 78.5523 147 78V2C147 1.44772 146.552 1 146 1H2ZM19 20C19 21.1046 18.1046 22 17 22C15.8954 22 15 21.1046 15 20C15 18.8954 15.8954 18 17 18C18.1046 18 19 18.8954 19 20ZM15.7372 23.197C16.1376 23.0669 16.5667 23 17.0001 23C17.8753 23 18.7146 23.2727 19.3335 23.7581C19.9524 24.2435 20 25.3136 20 26C20 26 18.8001 27 17.0001 27C15.2 27 14 26 14 26C14 25.3136 14.0477 24.2435 14.6666 23.7581C14.973 23.5177 15.3368 23.3271 15.7372 23.197ZM61 22C62.1046 22 63 21.1046 63 20C63 18.8954 62.1046 18 61 18C59.8954 18 59 18.8954 59 20C59 21.1046 59.8954 22 61 22ZM59.7372 23.197C60.1376 23.0669 60.5667 23 61.0001 23C61.8753 23 62.7146 23.2727 63.3335 23.7581C63.9524 24.2435 64 25.3136 64 26C64 26 62.8001 27 61.0001 27C59.2 27 58 26 58 26C58 25.3136 58.0477 24.2435 58.6666 23.7581C58.973 23.5177 59.3368 23.3271 59.7372 23.197ZM105 22C106.105 22 107 21.1046 107 20C107 18.8954 106.105 18 105 18C103.895 18 103 18.8954 103 20C103 21.1046 103.895 22 105 22ZM103.737 23.197C104.138 23.0669 104.567 23 105 23C105.875 23 106.715 23.2727 107.334 23.7581C107.952 24.2435 108 25.3136 108 26C108 26 106.8 27 105 27C103.2 27 102 26 102 26C102 25.3136 102.048 24.2435 102.667 23.7581C102.973 23.5177 103.337 23.3271 103.737 23.197ZM24 23H48V27H24V23ZM68 23H92V27H68V23ZM136 23H112V27H136V23Z" fill="#FAFBFB"/>
<path fill-rule="evenodd" clip-rule="evenodd" d="M12 22C12 19.2386 14.2386 17 17 17C19.7614 17 22 19.2386 22 22C22 23.6626 21.1885 25.1357 19.94 26.0447C19.8651 25.3024 19.6988 24.5669 19.3335 24.1371C18.7146 23.409 17.8752 23 17 23C16.5667 23 16.1376 23.1004 15.7372 23.2955C15.3368 23.4906 14.973 23.7766 14.6666 24.1371C14.3013 24.5669 14.135 25.3024 14.06 26.0447C12.8115 25.1357 12 23.6626 12 22ZM48 33V63H12V33H28L30 31L32 33H48ZM92 33V63H56V33H72L74 31L76 33H92ZM136 33V63H100V33H116L118 31L120 33H136ZM24 17H40V21H24V17ZM61 17C58.2386 17 56 19.2386 56 22C56 23.6626 56.8115 25.1357 58.06 26.0448C58.135 25.3024 58.3013 24.5669 58.6666 24.1371C58.973 23.7766 59.3368 23.4906 59.7372 23.2955C60.1376 23.1004 60.5667 23 61 23C61.8752 23 62.7146 23.409 63.3335 24.1371C63.6988 24.5669 63.8651 25.3024 63.94 26.0447C65.1885 25.1357 66 23.6626 66 22C66 19.2386 63.7614 17 61 17ZM68 17H84V21H68V17ZM105 17C102.239 17 100 19.2386 100 22C100 23.6626 100.811 25.1357 102.06 26.0447C102.135 25.3024 102.301 24.5669 102.667 24.1371C102.973 23.7766 103.337 23.4906 103.737 23.2955C104.138 23.1004 104.567 23 105 23C105.875 23 106.715 23.409 107.333 24.1371C107.699 24.5669 107.865 25.3024 107.94 26.0447C109.189 25.1357 110 23.6626 110 22C110 19.2386 107.761 17 105 17ZM112 17H128V21H112V17ZM16 41V37H44V41H16ZM16 47V43H44V47H16ZM88 41V37H60V41H88ZM60 47V43H88V47H60ZM132 41V37H104V41H132ZM104 47V43H132V47H104ZM44 53V49H16V53H44ZM60 53V49H88V53H60ZM132 53V49H104V53H132ZM16 59V55H44V59H16ZM88 59V55H60V59H88ZM104 59V55H132V59H104ZM17 22C18.1046 22 19 21.1046 19 20C19 18.8954 18.1046 18 17 18C15.8954 18 15 18.8954 15 20C15 21.1046 15.8954 22 17 22ZM63 20C63 21.1046 62.1046 22 61 22C59.8954 22 59 21.1046 59 20C59 18.8954 59.8954 18 61 18C62.1046 18 63 18.8954 63 20ZM107 20C107 21.1046 106.105 22 105 22C103.895 22 103 21.1046 103 20C103 18.8954 103.895 18 105 18C106.105 18 107 18.8954 107 20Z" fill="#5D6B82"/>
</svg>
