<svg width="148" height="80" viewBox="0 0 148 80" fill="none" xmlns="http://www.w3.org/2000/svg">
<rect width="148" height="80" rx="2" fill="#D1D5DB"/>
<path fill-rule="evenodd" clip-rule="evenodd" d="M2 1C1.44772 1 1 1.44771 1 2V78C1 78.5523 1.44771 79 2 79H146C146.552 79 147 78.5523 147 78V2C147 1.44772 146.552 1 146 1H2ZM17 27C18.1046 27 19 26.1046 19 25C19 23.8954 18.1046 23 17 23C15.8954 23 15 23.8954 15 25C15 26.1046 15.8954 27 17 27ZM17.0001 28C16.5667 28 16.1376 28.0669 15.7372 28.197C15.3368 28.3271 14.973 28.5177 14.6666 28.7581C14.0477 29.2435 14 30.3136 14 31C14 31 15.2 32 17.0001 32C18.8001 32 20 31 20 31C20 30.3136 19.9524 29.2435 19.3335 28.7581C18.7146 28.2727 17.8753 28 17.0001 28ZM63 25C63 26.1046 62.1046 27 61 27C59.8954 27 59 26.1046 59 25C59 23.8954 59.8954 23 61 23C62.1046 23 63 23.8954 63 25ZM61.0001 28C60.5667 28 60.1376 28.0669 59.7372 28.197C59.3368 28.3271 58.973 28.5177 58.6666 28.7581C58.0477 29.2435 58 30.3136 58 31C58 31 59.2 32 61.0001 32C62.8001 32 64 31 64 31C64 30.3136 63.9524 29.2435 63.3335 28.7581C62.7146 28.2727 61.8753 28 61.0001 28ZM107 25C107 26.1046 106.105 27 105 27C103.895 27 103 26.1046 103 25C103 23.8954 103.895 23 105 23C106.105 23 107 23.8954 107 25ZM105 28C104.567 28 104.138 28.0669 103.737 28.197C103.337 28.3271 102.973 28.5177 102.667 28.7581C102.048 29.2435 102 30.3136 102 31C102 31 103.2 32 105 32C106.8 32 108 31 108 31C108 30.3136 107.952 29.2435 107.334 28.7581C106.715 28.2727 105.875 28 105 28ZM48 28H24V32H48V28ZM12 36H48V40H12V36ZM12 42H48V46H12V42ZM92 36H56V40H92V36ZM56 42H92V46H56V42ZM136 36H100V40H136V36ZM100 42H136V46H100V42ZM48 48H12V52H48V48ZM56 48H92V52H56V48ZM136 48H100V52H136V48ZM12 54H48V58H12V54ZM92 54H56V58H92V54ZM100 54H136V58H100V54ZM68 28H92V32H68V28ZM112 28H136V32H112V28Z" fill="#FAFBFB"/>
<path fill-rule="evenodd" clip-rule="evenodd" d="M12 27C12 24.2386 14.2386 22 17 22C19.7614 22 22 24.2386 22 27C22 28.6626 21.1885 30.1357 19.94 31.0447C19.8651 30.3024 19.6988 29.5669 19.3335 29.1371C18.7146 28.409 17.8752 28 17 28C16.5667 28 16.1376 28.1004 15.7372 28.2955C15.3368 28.4906 14.973 28.7766 14.6666 29.1371C14.3013 29.5669 14.135 30.3024 14.06 31.0447C12.8115 30.1357 12 28.6626 12 27ZM24 22H40V26H24V22ZM61 22C58.2386 22 56 24.2386 56 27C56 28.6626 56.8115 30.1357 58.06 31.0448C58.135 30.3024 58.3013 29.5669 58.6666 29.1371C58.973 28.7766 59.3368 28.4906 59.7372 28.2955C60.1376 28.1004 60.5667 28 61 28C61.8752 28 62.7146 28.409 63.3335 29.1371C63.6988 29.5669 63.8651 30.3024 63.94 31.0447C65.1885 30.1357 66 28.6626 66 27C66 24.2386 63.7614 22 61 22ZM68 22H84V26H68V22ZM105 22C102.239 22 100 24.2386 100 27C100 28.6626 100.811 30.1357 102.06 31.0447C102.135 30.3024 102.301 29.5669 102.667 29.1371C102.973 28.7766 103.337 28.4906 103.737 28.2955C104.138 28.1004 104.567 28 105 28C105.875 28 106.715 28.409 107.333 29.1371C107.699 29.5669 107.865 30.3024 107.94 31.0447C109.189 30.1357 110 28.6626 110 27C110 24.2386 107.761 22 105 22ZM112 22H128V26H112V22ZM17 27C18.1046 27 19 26.1046 19 25C19 23.8954 18.1046 23 17 23C15.8954 23 15 23.8954 15 25C15 26.1046 15.8954 27 17 27ZM63 25C63 26.1046 62.1046 27 61 27C59.8954 27 59 26.1046 59 25C59 23.8954 59.8954 23 61 23C62.1046 23 63 23.8954 63 25ZM107 25C107 26.1046 106.105 27 105 27C103.895 27 103 26.1046 103 25C103 23.8954 103.895 23 105 23C106.105 23 107 23.8954 107 25Z" fill="#5D6B82"/>
</svg>
