<svg width="148" height="80" viewBox="0 0 148 80" fill="none" xmlns="http://www.w3.org/2000/svg">
<rect width="148" height="80" rx="2" fill="#D1D5DB"/>
<path fill-rule="evenodd" clip-rule="evenodd" d="M2 1C1.44772 1 1 1.44771 1 2V78C1 78.5523 1.44771 79 2 79H146C146.552 79 147 78.5523 147 78V2C147 1.44772 146.552 1 146 1H2ZM120.001 12H92.001V16H120.001V12ZM108.001 20H136.001V48H108.001V20ZM108.001 52H136.001V56H108.001V52ZM104 52H76.0005V56H104V52ZM76.001 20H104.001V48H76.001V20ZM72 52H44V56H72V52ZM44 20H72V48H44V20ZM40 52H12V56H40V52ZM108.001 58H124.001V62H108.001V58ZM92.0005 58H76.0005V62H92.0005V58ZM44 58H60V62H44V58ZM28 58H12V62H28V58ZM12 20H40V48H12V20ZM60 12H88V16H60V12Z" fill="#FAFBFB"/>
<path fill-rule="evenodd" clip-rule="evenodd" d="M56 12H28V16H56V12ZM18.5153 27.6438C19.1902 26.8767 22.5644 26.2009 23.7914 26C25.5583 27.4904 27.5542 26.621 28.3313 26C28.3313 26 32.2577 26.9863 33.1166 27.2603C33.9755 27.5342 36 32.0274 36 32.0274C36 32.0274 34.2814 33.6164 32.4417 33.6164C32.2454 33.6164 31.5693 32.5706 31.3853 31.913C31.3853 31.913 31.2761 33.7808 31.6442 36.9589L31.7088 37.5143V37.5143C31.9478 39.566 32 40.0137 32 42H20.5399C20.5399 42 20.7853 38.6027 20.908 36.6849C21.0061 35.1507 20.7035 32.6849 20.5399 31.6438C20.5399 31.6438 19.9877 33.1416 19.7423 33.6164C19.7423 33.6164 16.6135 32.5936 16 32.1918C16.3067 31.0228 17.8405 28.411 18.5153 27.6438ZM50.5153 27.6438C51.1902 26.8767 54.5644 26.2009 55.7914 26C57.5583 27.4904 59.5542 26.621 60.3313 26C60.3313 26 64.2577 26.9863 65.1166 27.2603C65.9755 27.5342 68 32.0274 68 32.0274C68 32.0274 66.2814 33.6164 64.4417 33.6164C64.2454 33.6164 63.5693 32.5706 63.3853 31.913C63.3853 31.913 63.2761 33.7808 63.6442 36.9589L63.7087 37.5142C63.9478 39.566 64 40.0137 64 42H52.5399C52.5399 42 52.7853 38.6027 52.908 36.6849C53.0061 35.1507 52.7035 32.6849 52.5399 31.6438C52.5399 31.6438 51.9877 33.1416 51.7423 33.6164C51.7423 33.6164 48.6135 32.5936 48 32.1918C48.3067 31.0228 49.8405 28.411 50.5153 27.6438ZM87.7914 26C86.5644 26.2009 83.1902 26.8767 82.5153 27.6438C81.8405 28.411 80.3067 31.0228 80 32.1918C80.6135 32.5936 83.7423 33.6164 83.7423 33.6164C83.9877 33.1416 84.5399 31.6438 84.5399 31.6438C84.7035 32.6849 85.0061 35.1507 84.908 36.6849C84.7853 38.6027 84.5399 42 84.5399 42H96C96 40.0137 95.9478 39.566 95.7087 37.5142L95.6442 36.9589C95.2761 33.7808 95.3853 31.913 95.3853 31.913C95.5693 32.5706 96.2454 33.6164 96.4417 33.6164C98.2814 33.6164 100 32.0274 100 32.0274C100 32.0274 97.9755 27.5342 97.1166 27.2603C96.2577 26.9863 92.3313 26 92.3313 26C91.5542 26.621 89.5583 27.4904 87.7914 26ZM114.515 27.6438C115.19 26.8767 118.564 26.2009 119.791 26C121.558 27.4904 123.554 26.621 124.331 26C124.331 26 128.258 26.9863 129.117 27.2603C129.975 27.5342 132 32.0274 132 32.0274C132 32.0274 130.281 33.6164 128.442 33.6164C128.245 33.6164 127.569 32.5706 127.385 31.913C127.385 31.913 127.276 33.7808 127.644 36.9589L127.709 37.5142C127.948 39.566 128 40.0137 128 42H116.54C116.54 42 116.785 38.6027 116.908 36.6849C117.006 35.1507 116.703 32.6849 116.54 31.6438C116.54 31.6438 115.988 33.1416 115.742 33.6164C115.742 33.6164 112.613 32.5936 112 32.1918C112.307 31.0228 113.84 28.411 114.515 27.6438ZM136.001 64H108.001V68H136.001V64ZM76.0005 64H104V68H76.0005V64ZM72 64H44V68H72V64ZM12 64H40V68H12V64Z" fill="#5D6B82"/>
</svg>
