<svg width="148" height="80" viewBox="0 0 148 80" fill="none" xmlns="http://www.w3.org/2000/svg">
<rect width="148" height="80" rx="2" fill="#D1D5DB"/>
<path fill-rule="evenodd" clip-rule="evenodd" d="M2 1C1.44772 1 1 1.44771 1 2V78C1 78.5523 1.44771 79 2 79H146C146.552 79 147 78.5523 147 78V2C147 1.44772 146.552 1 146 1H2ZM136.001 16H108.001V44H136.001V16ZM36 22H12V26H36V22ZM36 28H12V32H36V28ZM108.001 48H136.001V52H108.001V48ZM76.0005 48H104V52H76.0005V48ZM104.001 16H76.001V44H104.001V16ZM44 48H72V52H44V48ZM72 16H44V44H72V16ZM108.001 54H128.001V58H108.001V54ZM96.0005 54H76.0005V58H96.0005V54ZM44 54H64V58H44V54Z" fill="#FAFBFB"/>
<path fill-rule="evenodd" clip-rule="evenodd" d="M12 16H36V20H12V16ZM50.5153 23.6438C51.1902 22.8767 54.5644 22.2009 55.7914 22C57.5583 23.4904 59.5542 22.621 60.3313 22C60.3313 22 64.2577 22.9863 65.1166 23.2603C65.9755 23.5342 68 28.0274 68 28.0274C68 28.0274 66.2814 29.6164 64.4417 29.6164C64.2454 29.6164 63.5693 28.5706 63.3853 27.913C63.3853 27.913 63.2761 29.7808 63.6442 32.9589L63.7087 33.5142C63.9478 35.566 64 36.0137 64 38H52.5399C52.5399 38 52.7853 34.6027 52.908 32.6849C53.0061 31.1507 52.7035 28.6849 52.5399 27.6438C52.5399 27.6438 51.9877 29.1416 51.7423 29.6164C51.7423 29.6164 48.6135 28.5936 48 28.1918C48.3067 27.0228 49.8405 24.411 50.5153 23.6438ZM87.7914 22C86.5644 22.2009 83.1902 22.8767 82.5153 23.6438C81.8405 24.411 80.3067 27.0228 80 28.1918C80.6135 28.5936 83.7423 29.6164 83.7423 29.6164C83.9877 29.1416 84.5399 27.6438 84.5399 27.6438C84.7035 28.6849 85.0061 31.1507 84.908 32.6849C84.7853 34.6027 84.5399 38 84.5399 38H96C96 36.0137 95.9478 35.566 95.7087 33.5142L95.6442 32.9589C95.2761 29.7808 95.3853 27.913 95.3853 27.913C95.5693 28.5706 96.2454 29.6164 96.4417 29.6164C98.2814 29.6164 100 28.0274 100 28.0274C100 28.0274 97.9755 23.5342 97.1166 23.2603C96.2577 22.9863 92.3313 22 92.3313 22C91.5542 22.621 89.5583 23.4904 87.7914 22ZM114.515 23.6438C115.19 22.8767 118.564 22.2009 119.791 22C121.558 23.4904 123.554 22.621 124.331 22C124.331 22 128.258 22.9863 129.117 23.2603C129.975 23.5342 132 28.0274 132 28.0274C132 28.0274 130.281 29.6164 128.442 29.6164C128.245 29.6164 127.569 28.5706 127.385 27.913C127.385 27.913 127.276 29.7808 127.644 32.9589L127.709 33.5142C127.948 35.566 128 36.0137 128 38H116.54C116.54 38 116.785 34.6027 116.908 32.6849C117.006 31.1507 116.703 28.6849 116.54 27.6438C116.54 27.6438 115.988 29.1416 115.742 29.6164C115.742 29.6164 112.613 28.5936 112 28.1918C112.307 27.0228 113.84 24.411 114.515 23.6438ZM136.001 60H108.001V64H136.001V60ZM76.0005 60H104V64H76.0005V60ZM72 60H44V64H72V60Z" fill="#5D6B82"/>
</svg>
