<svg width="148" height="80" viewBox="0 0 148 80" fill="none" xmlns="http://www.w3.org/2000/svg">
<rect width="148" height="80" rx="2" fill="#D1D5DB"/>
<path fill-rule="evenodd" clip-rule="evenodd" d="M2 1C1.44772 1 1 1.44771 1 2V78C1 78.5523 1.44771 79 2 79H146C146.552 79 147 78.5523 147 78V2C147 1.44772 146.552 1 146 1H2ZM60 6H88V10H60V6ZM92.001 6H120.001V10H92.001V6ZM40 14H12V42H40V14ZM44 20H64V24H44V20ZM68 26H44V30H68V26ZM44 46H72V50H44V46ZM40 46H12V74H40V46ZM44 52H64V56H44V52ZM68 58H44V62H68V58ZM108 14H136V18H108V14ZM104 14H76V42H104V14ZM108 20H128V24H108V20ZM132 26H108V30H132V26ZM108 46H136V50H108V46ZM104 46H76V74H104V46ZM108 52H128V56H108V52ZM132 58H108V62H132V58ZM44 14H72V18H44V14Z" fill="#FAFBFB"/>
<path fill-rule="evenodd" clip-rule="evenodd" d="M28 6H56V10H28V6ZM18.5153 21.6438C19.1902 20.8767 22.5644 20.2009 23.7914 20C25.5583 21.4904 27.5542 20.621 28.3313 20C28.3313 20 32.2577 20.9863 33.1166 21.2603C33.9755 21.5342 36 26.0274 36 26.0274C36 26.0274 34.2814 27.6164 32.4417 27.6164C32.2454 27.6164 31.5693 26.5706 31.3853 25.913C31.3853 25.913 31.2761 27.7808 31.6442 30.9589L31.7088 31.5143C31.9478 33.566 32 34.0137 32 36H20.5399C20.5399 36 20.7853 32.6027 20.908 30.6849C21.0061 29.1507 20.7035 26.6849 20.5399 25.6438C20.5399 25.6438 19.9877 27.1416 19.7423 27.6164C19.7423 27.6164 16.6135 26.5936 16 26.1918C16.3067 25.0228 17.8405 22.411 18.5153 21.6438ZM60 32H44V36H60V32ZM44 64H60V68H44V64ZM124 32H108V36H124V32ZM108 64H124V68H108V64ZM23.7914 52C22.5644 52.2009 19.1902 52.8767 18.5153 53.6438C17.8405 54.411 16.3067 57.0228 16 58.1918C16.6135 58.5936 19.7423 59.6164 19.7423 59.6164C19.9877 59.1416 20.5399 57.6438 20.5399 57.6438C20.7035 58.6849 21.0061 61.1507 20.908 62.6849C20.7853 64.6027 20.5399 68 20.5399 68H32C32 66.0137 31.9478 65.566 31.7088 63.5143L31.6442 62.9589C31.2761 59.7808 31.3853 57.913 31.3853 57.913C31.5693 58.5706 32.2454 59.6164 32.4417 59.6164C34.2814 59.6164 36 58.0274 36 58.0274C36 58.0274 33.9755 53.5342 33.1166 53.2603C32.2577 52.9863 28.3313 52 28.3313 52C27.5542 52.621 25.5583 53.4904 23.7914 52ZM82.5153 21.6438C83.1902 20.8767 86.5644 20.2009 87.7914 20C89.5583 21.4904 91.5542 20.621 92.3313 20C92.3313 20 96.2577 20.9863 97.1166 21.2603C97.9755 21.5342 100 26.0274 100 26.0274C100 26.0274 98.2814 27.6164 96.4417 27.6164C96.2454 27.6164 95.5693 26.5706 95.3853 25.913C95.3853 25.913 95.2761 27.7808 95.6442 30.9589L95.7087 31.5142C95.9478 33.566 96 34.0137 96 36H84.5399C84.5399 36 84.7853 32.6027 84.908 30.6849C85.0061 29.1507 84.7035 26.6849 84.5399 25.6438C84.5399 25.6438 83.9877 27.1416 83.7423 27.6164C83.7423 27.6164 80.6135 26.5936 80 26.1918C80.3067 25.0228 81.8405 22.411 82.5153 21.6438ZM87.7914 52C86.5644 52.2009 83.1902 52.8767 82.5153 53.6438C81.8405 54.411 80.3067 57.0228 80 58.1918C80.6135 58.5936 83.7423 59.6164 83.7423 59.6164C83.9877 59.1416 84.5399 57.6438 84.5399 57.6438C84.7035 58.6849 85.0061 61.1507 84.908 62.6849C84.7853 64.6027 84.5399 68 84.5399 68H96C96 66.0137 95.9478 65.566 95.7087 63.5142C95.6886 63.3412 95.6671 63.1567 95.6442 62.9589C95.2761 59.7808 95.3853 57.913 95.3853 57.913C95.5693 58.5706 96.2454 59.6164 96.4417 59.6164C98.2814 59.6164 100 58.0274 100 58.0274C100 58.0274 97.9755 53.5342 97.1166 53.2603C96.2577 52.9863 92.3313 52 92.3313 52C91.5542 52.621 89.5583 53.4904 87.7914 52Z" fill="#5D6B82"/>
</svg>
