<svg width="148" height="80" viewBox="0 0 148 80" fill="none" xmlns="http://www.w3.org/2000/svg">
<rect width="148" height="80" rx="2" fill="#D1D5DB"/>
<path fill-rule="evenodd" clip-rule="evenodd" d="M2 1C1.44772 1 1 1.44771 1 2V78C1 78.5523 1.44771 79 2 79H146C146.552 79 147 78.5523 147 78V2C147 1.44772 146.552 1 146 1H2ZM60 12H44V28H60V12ZM72 12H62V14H72V12ZM62 16H70V18H62V16ZM104 12H94V14H104V12ZM76 12H92V28H76V12ZM102 16H94V18H102V16ZM126 12H136V14H126V12ZM124 12H108V28H124V12ZM126 16H134V18H126V16ZM72 32H62V34H72V32ZM44 32H60V48H44V32ZM70 36H62V38H70V36ZM94 32H104V34H94V32ZM92 32H76V48H92V32ZM94 36H102V38H94V36ZM136 32H126V34H136V32ZM108 32H124V48H108V32ZM134 36H126V38H134V36ZM62 52H72V54H62V52ZM60 52H44V68H60V52ZM62 56H70V58H62V56ZM104 52H94V54H104V52ZM76 52H92V68H76V52ZM102 56H94V58H102V56ZM126 52H136V54H126V52ZM124 52H108V68H124V52ZM126 56H134V58H126V56ZM36 18H12V22H36V18ZM12 24H36V28H12V24Z" fill="#FAFBFB"/>
<path fill-rule="evenodd" clip-rule="evenodd" d="M36 12H12V16H36V12ZM47.5092 16.0274C47.9141 15.5479 49.9387 15.1256 50.6748 15C51.735 15.9315 52.9325 15.3881 53.3988 15C53.3988 15 55.7546 15.6164 56.2699 15.7877C56.7853 15.9589 58 18.7671 58 18.7671C58 18.7671 56.9688 19.7603 55.865 19.7603C55.7472 19.7603 55.3416 19.1066 55.2312 18.6957C55.2312 18.6957 55.1656 19.863 55.3865 21.8493L55.4252 22.1964C55.5687 23.4787 55.6 23.7586 55.6 25H48.7239C48.7239 25 48.8712 22.8767 48.9448 21.6781C49.0037 20.7192 48.8221 19.1781 48.7239 18.5274C48.7239 18.5274 48.3926 19.4635 48.2454 19.7603C48.2454 19.7603 46.3681 19.121 46 18.8699C46.184 18.1393 47.1043 16.5068 47.5092 16.0274ZM62 20H72V22H62V20ZM94 20H104V22H94V20ZM136 20H126V22H136V20ZM82.6749 15C81.9387 15.1256 79.9141 15.5479 79.5092 16.0274C79.1043 16.5068 78.1841 18.1393 78 18.8699C78.3681 19.121 80.2454 19.7603 80.2454 19.7603C80.3926 19.4635 80.7239 18.5274 80.7239 18.5274C80.8221 19.1781 81.0037 20.7192 80.9448 21.6781C80.8712 22.8767 80.7239 25 80.7239 25H87.6C87.6 23.7592 87.5687 23.479 87.4256 22.1982L87.4256 22.1981L87.4255 22.198L87.4255 22.1979L87.4255 22.1978L87.4255 22.1976L87.4254 22.1975L87.4254 22.1974L87.4254 22.1973L87.4254 22.1971L87.4253 22.197L87.4253 22.1969L87.4253 22.1968L87.4253 22.1967L87.4253 22.1965L87.3865 21.8493C87.1656 19.863 87.2311 18.6957 87.2311 18.6957C87.3416 19.1066 87.7472 19.7603 87.865 19.7603C88.9688 19.7603 90 18.7671 90 18.7671C90 18.7671 88.7853 15.9589 88.2699 15.7877C87.7546 15.6164 85.3988 15 85.3988 15C84.9325 15.3881 83.735 15.9315 82.6749 15ZM111.509 16.0274C111.914 15.5479 113.939 15.1256 114.675 15C115.735 15.9315 116.933 15.3881 117.399 15C117.399 15 119.755 15.6164 120.27 15.7877C120.785 15.9589 122 18.7671 122 18.7671C122 18.7671 120.969 19.7603 119.865 19.7603C119.747 19.7603 119.342 19.1066 119.231 18.6957C119.231 18.6957 119.166 19.863 119.387 21.8493L119.425 22.1965L119.425 22.1967L119.425 22.1968L119.425 22.1969L119.425 22.197L119.425 22.1971L119.425 22.1973L119.425 22.1974L119.425 22.1975L119.425 22.1976L119.425 22.1978L119.426 22.1979L119.426 22.198L119.426 22.1981C119.569 23.479 119.6 23.7591 119.6 25H112.724C112.724 25 112.871 22.8767 112.945 21.6781C113.004 20.7192 112.822 19.1781 112.724 18.5274C112.724 18.5274 112.393 19.4635 112.245 19.7603C112.245 19.7603 110.368 19.121 110 18.8699C110.184 18.1393 111.104 16.5068 111.509 16.0274ZM72 40H62V42H72V40ZM94 40H104V42H94V40ZM136 40H126V42H136V40ZM47.5092 36.0274C47.9141 35.5479 49.9387 35.1256 50.6748 35C51.735 35.9315 52.9325 35.3881 53.3988 35C53.3988 35 55.7546 35.6164 56.2699 35.7877C56.7853 35.9589 58 38.7671 58 38.7671C58 38.7671 56.9688 39.7603 55.865 39.7603C55.7472 39.7603 55.3416 39.1066 55.2312 38.6957C55.2312 38.6957 55.1656 39.863 55.3865 41.8493L55.4252 42.1964C55.5687 43.4787 55.6 43.7586 55.6 45H48.7239C48.7239 45 48.8712 42.8767 48.9448 41.6781C49.0037 40.7192 48.8221 39.1781 48.7239 38.5274C48.7239 38.5274 48.3926 39.4635 48.2454 39.7603C48.2454 39.7603 46.3681 39.121 46 38.8699C46.184 38.1393 47.1043 36.5068 47.5092 36.0274ZM82.6749 35C81.9387 35.1256 79.9141 35.5479 79.5092 36.0274C79.1043 36.5068 78.1841 38.1393 78 38.8699C78.3681 39.121 80.2454 39.7603 80.2454 39.7603C80.3926 39.4635 80.7239 38.5274 80.7239 38.5274C80.8221 39.1781 81.0037 40.7192 80.9448 41.6781C80.8712 42.8767 80.7239 45 80.7239 45H87.6C87.6 43.7589 87.5687 43.4789 87.4254 42.1975L87.4254 42.1973L87.4254 42.1972L87.4254 42.1971L87.4253 42.197L87.4253 42.1969L87.4253 42.1968L87.4253 42.1967L87.4253 42.1965L87.3865 41.8493C87.1656 39.863 87.2311 38.6957 87.2311 38.6957C87.3416 39.1066 87.7472 39.7603 87.865 39.7603C88.9688 39.7603 90 38.7671 90 38.7671C90 38.7671 88.7853 35.9589 88.2699 35.7877C87.7546 35.6164 85.3988 35 85.3988 35C84.9325 35.3881 83.735 35.9315 82.6749 35ZM111.509 36.0274C111.914 35.5479 113.939 35.1256 114.675 35C115.735 35.9315 116.933 35.3881 117.399 35C117.399 35 119.755 35.6164 120.27 35.7877C120.785 35.9589 122 38.7671 122 38.7671C122 38.7671 120.969 39.7603 119.865 39.7603C119.747 39.7603 119.342 39.1066 119.231 38.6957C119.231 38.6957 119.166 39.863 119.387 41.8493L119.425 42.1965L119.425 42.1967L119.425 42.1968L119.425 42.1969L119.425 42.197L119.425 42.1971L119.425 42.1972L119.425 42.1973C119.569 43.4789 119.6 43.7589 119.6 45H112.724C112.724 45 112.871 42.8767 112.945 41.6781C113.004 40.7192 112.822 39.1781 112.724 38.5274C112.724 38.5274 112.393 39.4635 112.245 39.7603C112.245 39.7603 110.368 39.121 110 38.8699C110.184 38.1393 111.104 36.5068 111.509 36.0274ZM72 60H62V62H72V60ZM94 60H104V62H94V60ZM136 60H126V62H136V60ZM47.5092 56.0274C47.9141 55.5479 49.9387 55.1256 50.6748 55C51.735 55.9315 52.9325 55.3881 53.3988 55C53.3988 55 55.7546 55.6164 56.2699 55.7877C56.7853 55.9589 58 58.7671 58 58.7671C58 58.7671 56.9688 59.7603 55.865 59.7603C55.7472 59.7603 55.3416 59.1066 55.2312 58.6957C55.2312 58.6957 55.1656 59.863 55.3865 61.8493L55.4252 62.1964C55.5687 63.4787 55.6 63.7586 55.6 65H48.7239C48.7239 65 48.8712 62.8767 48.9448 61.6781C49.0037 60.7192 48.8221 59.1781 48.7239 58.5274C48.7239 58.5274 48.3926 59.4635 48.2454 59.7603C48.2454 59.7603 46.3681 59.121 46 58.8699C46.184 58.1393 47.1043 56.5069 47.5092 56.0274ZM82.6749 55C81.9387 55.1256 79.9141 55.5479 79.5092 56.0274C79.1043 56.5069 78.1841 58.1393 78 58.8699C78.3681 59.121 80.2454 59.7603 80.2454 59.7603C80.3926 59.4635 80.7239 58.5274 80.7239 58.5274C80.8221 59.1781 81.0037 60.7192 80.9448 61.6781C80.8712 62.8767 80.7239 65 80.7239 65H87.6C87.6 63.7587 87.5687 63.4788 87.4253 62.1968L87.4253 62.1966L87.4253 62.1965L87.3865 61.8493C87.1656 59.863 87.2311 58.6957 87.2311 58.6957C87.3416 59.1066 87.7472 59.7603 87.865 59.7603C88.9688 59.7603 90 58.7671 90 58.7671C90 58.7671 88.7853 55.9589 88.2699 55.7877C87.7546 55.6164 85.3988 55 85.3988 55C84.9325 55.3881 83.735 55.9315 82.6749 55ZM111.509 56.0274C111.914 55.5479 113.939 55.1256 114.675 55C115.735 55.9315 116.933 55.3881 117.399 55C117.399 55 119.755 55.6164 120.27 55.7877C120.785 55.9589 122 58.7671 122 58.7671C122 58.7671 120.969 59.7603 119.865 59.7603C119.747 59.7603 119.342 59.1066 119.231 58.6957C119.231 58.6957 119.166 59.863 119.387 61.8493L119.425 62.1965L119.425 62.1966C119.569 63.4788 119.6 63.7586 119.6 65H112.724C112.724 65 112.871 62.8767 112.945 61.6781C113.004 60.7192 112.822 59.1781 112.724 58.5274C112.724 58.5274 112.393 59.4635 112.245 59.7603C112.245 59.7603 110.368 59.121 110 58.8699C110.184 58.1393 111.104 56.5069 111.509 56.0274Z" fill="#5D6B82"/>
</svg>
