<svg width="148" height="80" viewBox="0 0 148 80" fill="none" xmlns="http://www.w3.org/2000/svg">
<rect width="148" height="80" rx="2" fill="#D1D5DB"/>
<rect x="1" y="1" width="146" height="78" rx="1" fill="#FAFBFB"/>
<path fill-rule="evenodd" clip-rule="evenodd" d="M12 12H48V68H12V12ZM56 12H92V68H56V12ZM136 12H100V68H136V12ZM44 16H16V24H44V16ZM16 30C16 28.8954 16.8954 28 18 28H42C43.1046 28 44 28.8954 44 30C44 31.1046 43.1046 32 42 32H18C16.8954 32 16 31.1046 16 30ZM16 36H44V40H16V36ZM16 42H44V46H16V42ZM44 48H16V52H44V48ZM16 54H44V58H16V54ZM44 60H16V64H44V60ZM60 36H88V40H60V36ZM62 28C60.8954 28 60 28.8954 60 30C60 31.1046 60.8954 32 62 32H86C87.1046 32 88 31.1046 88 30C88 28.8954 87.1046 28 86 28H62ZM60 16H88V24H60V16ZM88 42H60V46H88V42ZM60 48H88V52H60V48ZM88 54H60V58H88V54ZM60 60H88V64H60V60ZM132 36H104V40H132V36ZM104 30C104 28.8954 104.895 28 106 28H130C131.105 28 132 28.8954 132 30C132 31.1046 131.105 32 130 32H106C104.895 32 104 31.1046 104 30ZM132 16H104V24H132V16ZM104 42H132V46H104V42ZM132 48H104V52H132V48ZM104 54H132V58H104V54ZM132 60H104V64H132V60Z" fill="#5D6B82"/>
</svg>
