<svg width="148" height="80" viewBox="0 0 148 80" fill="none" xmlns="http://www.w3.org/2000/svg">
<rect width="148" height="80" rx="2" fill="#D1D5DB"/>
<rect x="1" y="1" width="146" height="78" rx="1" fill="#FAFBFB"/>
<path fill-rule="evenodd" clip-rule="evenodd" d="M12 12H48V68H12V12ZM56 12H92V68H56V12ZM136 12H100V68H136V12ZM16 16H44V20H16V16ZM44 22H16V24H44V22ZM16 28H20V32H16V28ZM16 62C16 60.8954 16.8954 60 18 60H42C43.1046 60 44 60.8954 44 62C44 63.1046 43.1046 64 42 64H18C16.8954 64 16 63.1046 16 62ZM20 34H16V38H20V34ZM16 40H20V44H16V40ZM20 46H16V50H20V46ZM22 28H44V32H22V28ZM44 34H22V38H44V34ZM22 40H44V44H22V40ZM44 46H22V50H44V46ZM16 52H20V56H16V52ZM44 52H22V56H44V52ZM60 22H88V24H60V22ZM88 16H60V20H88V16ZM60 28H64V32H60V28ZM62 60C60.8954 60 60 60.8954 60 62C60 63.1046 60.8954 64 62 64H86C87.1046 64 88 63.1046 88 62C88 60.8954 87.1046 60 86 60H62ZM60 34H64V38H60V34ZM64 40H60V44H64V40ZM60 46H64V50H60V46ZM88 28H66V32H88V28ZM66 34H88V38H66V34ZM88 40H66V44H88V40ZM66 46H88V50H66V46ZM64 52H60V56H64V52ZM66 52H88V56H66V52ZM108 28H104V32H108V28ZM104 62C104 60.8954 104.895 60 106 60H130C131.105 60 132 60.8954 132 62C132 63.1046 131.105 64 130 64H106C104.895 64 104 63.1046 104 62ZM108 34H104V38H108V34ZM104 40H108V44H104V40ZM108 46H104V50H108V46ZM110 28H132V32H110V28ZM132 34H110V38H132V34ZM110 40H132V44H110V40ZM132 46H110V50H132V46ZM104 52H108V56H104V52ZM132 52H110V56H132V52ZM104 22H132V24H104V22ZM132 16H104V20H132V16Z" fill="#5D6B82"/>
</svg>
