<svg width="148" height="80" viewBox="0 0 148 80" fill="none" xmlns="http://www.w3.org/2000/svg">
<rect width="148" height="80" rx="2" fill="#D1D5DB"/>
<path fill-rule="evenodd" clip-rule="evenodd" d="M2 1C1.44772 1 1 1.44771 1 2V78C1 78.5523 1.44771 79 2 79H146C146.552 79 147 78.5523 147 78V2C147 1.44772 146.552 1 146 1H2ZM12 30H136V38H12V30ZM112 42H12V62H112V42ZM104 50H20V54H104V50Z" fill="#FAFBFB"/>
<path fill-rule="evenodd" clip-rule="evenodd" d="M94 18H54V26H94V18ZM112 42H136V62H112V42ZM126.317 51.3164C126.826 50.999 127.131 50.8081 127.232 50.7438C127.416 50.6313 127.591 50.4766 127.754 50.2797C127.918 50.0829 128 49.9 128 49.7312C128 49.5223 127.938 49.3482 127.815 49.2089C127.691 49.0696 127.515 49 127.286 49H120.714C120.521 49 120.353 49.0629 120.212 49.1888C120.071 49.3147 120 49.4661 120 49.6429C120 49.8545 120.073 50.0567 120.219 50.2495C120.365 50.4424 120.546 50.6072 120.763 50.7437C121.882 51.4429 122.579 51.8782 122.853 52.0496C122.882 52.0684 122.946 52.1092 123.042 52.1722C123.139 52.2352 123.219 52.2861 123.283 52.3249C123.347 52.3637 123.425 52.4072 123.515 52.4555C123.606 52.5036 123.692 52.5398 123.772 52.5638C123.853 52.588 123.927 52.6 123.995 52.6H124H124.004C124.073 52.6 124.147 52.588 124.228 52.5638C124.308 52.5398 124.394 52.5036 124.484 52.4555C124.575 52.4073 124.652 52.3637 124.716 52.3249C124.78 52.2861 124.861 52.2352 124.958 52.1722C125.054 52.1092 125.117 52.0684 125.147 52.0496C125.418 51.8782 125.808 51.6338 126.317 51.3164ZM122.67 53.0302C122.164 52.7207 121.423 52.2868 120.447 51.7283C120.277 51.6302 120.128 51.5207 120 51.4V54.3962C120 54.5623 120.07 54.7043 120.21 54.8226C120.35 54.9409 120.518 55 120.714 55H127.286C127.482 55 127.65 54.9409 127.79 54.8226C127.93 54.7044 128 54.5623 128 54.3962V51.4C127.869 51.5233 127.719 51.6328 127.549 51.7283C126.472 52.3472 125.732 52.7812 125.33 53.0302C125.161 53.1358 125.023 53.2183 124.918 53.2774C124.812 53.3365 124.671 53.3969 124.496 53.4585C124.32 53.5202 124.156 53.5509 124.005 53.5509H124H123.996C123.844 53.5509 123.68 53.5202 123.505 53.4585C123.329 53.3969 123.188 53.3365 123.083 53.2774C122.977 53.2183 122.839 53.1358 122.67 53.0302Z" fill="#5D6B82"/>
</svg>
