<svg width="148" height="80" viewBox="0 0 148 80" fill="none" xmlns="http://www.w3.org/2000/svg">
<rect width="148" height="80" rx="2" fill="#D1D5DB"/>
<path fill-rule="evenodd" clip-rule="evenodd" d="M2 1C1.44772 1 1 1.44771 1 2V78C1 78.5523 1.44771 79 2 79H146C146.552 79 147 78.5523 147 78V2C147 1.44772 146.552 1 146 1H2ZM12 10H40V38H12V10ZM106 10H78V38H106V10ZM42 22H62V26H42V22ZM42 28H66V32H42V28ZM40 42H12V70H40V42ZM42 54H62V58H42V54ZM66 60H42V64H66V60ZM78 42H106V70H78V42ZM128 54H108V58H128V54ZM108 60H132V64H108V60ZM108 22H128V26H108V22ZM132 28H108V32H132V28Z" fill="#FAFBFB"/>
<path fill-rule="evenodd" clip-rule="evenodd" d="M70 16H42V20H70V16ZM70 48H42V52H70V48ZM108 48H136V52H108V48ZM136 16H108V20H136V16ZM12 38H26.1432H29.8752H37.667H40V28.6819L39.687 28.4772L37.7019 27.1786L37.0402 26.7457L35.0551 25.4471L34.3934 25.0143L33.6182 24.5072C33.1013 24.169 32.4239 24 31.7467 24C31.0694 24 30.392 24.169 29.8752 24.5072L29.0999 25.0143L28.4382 25.4471L26.4531 26.7457L25.7915 27.1786L24.4733 28.0409L24.3337 27.9355L23.0004 26.9291L22.2193 26.3395C21.98 26.1589 21.7063 26.0203 21.4143 25.9227C21.071 25.8079 20.7025 25.75 20.3338 25.75C19.965 25.75 19.5964 25.8079 19.2532 25.9227C18.9612 26.0203 18.6875 26.1588 18.4482 26.3395L17.667 26.9291L16.3337 27.9356L15.0003 28.9421L13.667 29.9485L12.3337 30.9549L12 31.2068V38ZM26.1432 70H12V63.2068L12.3337 62.9549L13.667 61.9485L15.0003 60.9421L16.3337 59.9356L17.667 58.9291L18.4482 58.3395C18.6875 58.1588 18.9612 58.0203 19.2532 57.9227C19.5964 57.8079 19.965 57.75 20.3338 57.75C20.7025 57.75 21.071 57.8078 21.4143 57.9227C21.7063 58.0203 21.98 58.1589 22.2193 58.3395L23.0004 58.9291L24.3337 59.9355L24.4733 60.0409L25.7915 59.1786L26.4531 58.7457L28.4382 57.4471L29.0999 57.0143L29.8752 56.5072C30.392 56.169 31.0694 56 31.7467 56C32.4239 56 33.1013 56.169 33.6182 56.5072L34.3934 57.0143L35.0551 57.4471L37.0402 58.7457L37.7019 59.1786L39.687 60.4772L40 60.6819V70H37.667H29.8752H26.1432ZM78 38H92.1432H95.8752H103.667H106V28.6819L105.687 28.4772L103.702 27.1786L103.04 26.7457L101.055 25.4471L100.393 25.0143L99.6182 24.5072C99.1013 24.169 98.4239 24 97.7467 24C97.0694 24 96.392 24.169 95.8752 24.5072L95.0999 25.0143L94.4382 25.4471L92.4531 26.7457L91.7915 27.1786L90.4733 28.0409L90.3337 27.9355L89.0004 26.9291L88.2193 26.3395C87.98 26.1589 87.7063 26.0203 87.4143 25.9227C87.071 25.8079 86.7025 25.75 86.3338 25.75C85.965 25.75 85.5964 25.8079 85.2532 25.9227C84.9612 26.0203 84.6875 26.1588 84.4482 26.3395L83.667 26.9291L82.3337 27.9356L81.0003 28.9421L79.667 29.9485L78.3337 30.9549L78 31.2068V38ZM92.1432 70H78V63.2068L78.3337 62.9549L79.667 61.9485L81.0003 60.9421L82.3337 59.9356L83.667 58.9291L84.4482 58.3395C84.6875 58.1588 84.9612 58.0203 85.2532 57.9227C85.5964 57.8079 85.965 57.75 86.3338 57.75C86.7025 57.75 87.071 57.8078 87.4143 57.9227C87.7063 58.0203 87.98 58.1589 88.2193 58.3395L89.0004 58.9291L90.3337 59.9355L90.4733 60.0409L91.7915 59.1786L92.4531 58.7457L94.4382 57.4471L95.0999 57.0143L95.8752 56.5072C96.392 56.169 97.0694 56 97.7467 56C98.4239 56 99.1013 56.169 99.6182 56.5072L100.393 57.0143L101.055 57.4471L103.04 58.7457L103.702 59.1786L105.687 60.4772L106 60.6819V70H103.667H95.8752H92.1432Z" fill="#5D6B82"/>
</svg>
