<svg width="148" height="80" viewBox="0 0 148 80" fill="none" xmlns="http://www.w3.org/2000/svg">
<rect width="148" height="80" rx="2" fill="#D1D5DB"/>
<path fill-rule="evenodd" clip-rule="evenodd" d="M2 1C1.44772 1 1 1.44771 1 2V78C1 78.5523 1.44771 79 2 79H146C146.552 79 147 78.5523 147 78V2C147 1.44772 146.552 1 146 1H2ZM54 30H14V50H54V30ZM49 38H19V42H49V38ZM86 42H138V50H86V42Z" fill="#FAFBFB"/>
<path fill-rule="evenodd" clip-rule="evenodd" d="M54 30H78V50H54V30ZM68.3168 39.3164C68.8257 38.999 69.1308 38.8081 69.2319 38.7438C69.4164 38.6313 69.5906 38.4766 69.7542 38.2797C69.9179 38.0829 69.9998 37.9 69.9998 37.7312C69.9998 37.5223 69.938 37.3482 69.8145 37.2089C69.691 37.0696 69.5147 37 69.2855 37H62.7143C62.5209 37 62.3535 37.0629 62.2121 37.1888C62.0707 37.3147 62 37.4661 62 37.6429C62 37.8545 62.0729 38.0567 62.2188 38.2495C62.3646 38.4424 62.5461 38.6072 62.7633 38.7437C63.8823 39.4429 64.5788 39.8782 64.8525 40.0496C64.8823 40.0684 64.9456 40.1092 65.0423 40.1722C65.139 40.2352 65.2194 40.2861 65.2833 40.3249C65.3473 40.3637 65.4247 40.4072 65.5155 40.4555C65.6062 40.5036 65.6918 40.5398 65.7721 40.5638C65.8525 40.588 65.9269 40.6 65.9954 40.6H65.9999H66.0044C66.0728 40.6 66.1472 40.588 66.2276 40.5638C66.3079 40.5398 66.3935 40.5036 66.4843 40.4555C66.5751 40.4073 66.6525 40.3637 66.7165 40.3249C66.7804 40.2861 66.8608 40.2352 66.9575 40.1722C67.0542 40.1092 67.1174 40.0684 67.1472 40.0496C67.418 39.8782 67.8079 39.6338 68.3168 39.3164ZM64.6698 41.0302C64.1639 40.7207 63.4228 40.2867 62.4467 39.7283C62.277 39.6302 62.1282 39.5207 62.0002 39.4V42.3962C62.0002 42.5623 62.0701 42.7043 62.21 42.8226C62.3499 42.9409 62.5181 43 62.7145 43H69.2857C69.4822 43 69.6503 42.9409 69.7902 42.8226C69.9301 42.7044 70 42.5623 70 42.3962V39.4C69.8691 39.5233 69.7188 39.6328 69.5491 39.7283C68.4718 40.3472 67.7322 40.7812 67.3304 41.0302C67.1608 41.1358 67.0231 41.2183 66.9175 41.2774C66.8119 41.3365 66.6712 41.3969 66.4957 41.4585C66.3201 41.5202 66.1564 41.5509 66.0046 41.5509H66.0001H65.9956C65.8438 41.5509 65.6801 41.5202 65.5046 41.4585C65.329 41.3969 65.1884 41.3365 65.0827 41.2774C64.977 41.2183 64.8394 41.1358 64.6698 41.0302ZM126 30H86V38H126V30Z" fill="#5D6B82"/>
</svg>
