<svg width="148" height="80" viewBox="0 0 148 80" fill="none" xmlns="http://www.w3.org/2000/svg">
<rect width="148" height="80" rx="2" fill="#D1D5DB"/>
<rect x="1" y="1" width="146" height="78" rx="1" fill="#FAFBFB"/>
<path fill-rule="evenodd" clip-rule="evenodd" d="M136 12H12V68H136V12ZM104 30H20V50H104H128V30H104ZM97 38H27V42H97V38ZM119.232 38.7438C119.131 38.8081 118.826 38.999 118.317 39.3164C117.808 39.6338 117.418 39.8782 117.147 40.0496C117.117 40.0684 117.054 40.1092 116.958 40.1722C116.861 40.2352 116.78 40.2861 116.716 40.3249C116.652 40.3637 116.575 40.4073 116.484 40.4555C116.394 40.5036 116.308 40.5398 116.228 40.5638C116.147 40.588 116.073 40.6 116.004 40.6H116H115.995C115.927 40.6 115.853 40.588 115.772 40.5638C115.692 40.5398 115.606 40.5036 115.515 40.4555C115.425 40.4072 115.347 40.3637 115.283 40.3249C115.219 40.2861 115.139 40.2352 115.042 40.1722C114.946 40.1092 114.882 40.0684 114.853 40.0496C114.579 39.8782 113.882 39.4429 112.763 38.7437C112.546 38.6072 112.365 38.4424 112.219 38.2495C112.073 38.0567 112 37.8545 112 37.6429C112 37.4661 112.071 37.3147 112.212 37.1888C112.353 37.0629 112.521 37 112.714 37H119.286C119.515 37 119.691 37.0696 119.815 37.2089C119.938 37.3482 120 37.5223 120 37.7312C120 37.9 119.918 38.0829 119.754 38.2797C119.591 38.4766 119.416 38.6313 119.232 38.7438ZM112.447 39.7283C113.423 40.2868 114.164 40.7207 114.67 41.0302C114.839 41.1358 114.977 41.2183 115.083 41.2774C115.188 41.3365 115.329 41.3969 115.505 41.4585C115.68 41.5202 115.844 41.5509 115.996 41.5509H116H116.005C116.156 41.5509 116.32 41.5202 116.496 41.4585C116.671 41.3969 116.812 41.3365 116.918 41.2774C117.023 41.2183 117.161 41.1358 117.33 41.0302C117.732 40.7812 118.472 40.3472 119.549 39.7283C119.719 39.6328 119.869 39.5233 120 39.4V42.3962C120 42.5623 119.93 42.7044 119.79 42.8226C119.65 42.9409 119.482 43 119.286 43H112.714C112.518 43 112.35 42.9409 112.21 42.8226C112.07 42.7043 112 42.5623 112 42.3962V39.4C112.128 39.5207 112.277 39.6302 112.447 39.7283Z" fill="#5D6B82"/>
</svg>
