<svg width="148" height="80" viewBox="0 0 148 80" fill="none" xmlns="http://www.w3.org/2000/svg">
<rect width="148" height="80" rx="2" fill="#D1D5DB"/>
<path fill-rule="evenodd" clip-rule="evenodd" d="M2 1C1.44772 1 1 1.44771 1 2V78C1 78.5523 1.44771 79 2 79H146C146.552 79 147 78.5523 147 78V2C147 1.44772 146.552 1 146 1H2ZM88 18C88 19.1046 87.1046 20 86 20C84.8954 20 84 19.1046 84 18C84 16.8954 84.8954 16 86 16C87.1046 16 88 16.8954 88 18ZM86 52C87.1046 52 88 51.1046 88 50C88 48.8954 87.1046 48 86 48C84.8954 48 84 48.8954 84 50C84 51.1046 84.8954 52 86 52ZM86.0001 53C85.5667 53 85.1376 53.0669 84.7372 53.197C84.3368 53.3271 83.973 53.5177 83.6666 53.7581C83.0477 54.2435 83 55.3136 83 56C83 56 84.2 57 86.0001 57C87.8001 57 89 56 89 56C89 55.3136 88.9524 54.2435 88.3335 53.7581C87.7146 53.2727 86.8753 53 86.0001 53ZM86.0001 21C85.5667 21 85.1376 21.0669 84.7372 21.197C84.3368 21.3271 83.973 21.5177 83.6666 21.7581C83.0477 22.2435 83 23.3136 83 24C83 24 84.2 25 86.0001 25C87.8001 25 89 24 89 24C89 23.3136 88.9524 22.2435 88.3335 21.7581C87.7146 21.2727 86.8753 21 86.0001 21ZM23 50C23 51.1046 22.1046 52 21 52C19.8954 52 19 51.1046 19 50C19 48.8954 19.8954 48 21 48C22.1046 48 23 48.8954 23 50ZM21.0001 53C20.5667 53 20.1376 53.0669 19.7372 53.197C19.3368 53.3271 18.973 53.5177 18.6666 53.7581C18.0477 54.2435 18 55.3136 18 56C18 56 19.2 57 21.0001 57C22.8001 57 24 56 24 56C24 55.3136 23.9524 54.2435 23.3335 53.7581C22.7146 53.2727 21.8753 53 21.0001 53ZM23 18C23 19.1046 22.1046 20 21 20C19.8954 20 19 19.1046 19 18C19 16.8954 19.8954 16 21 16C22.1046 16 23 16.8954 23 18ZM21.0001 21C20.5667 21 20.1376 21.0669 19.7372 21.197C19.3368 21.3271 18.973 21.5177 18.6666 21.7581C18.0477 22.2435 18 23.3136 18 24C18 24 19.2 25 21.0001 25C22.8001 25 24 24 24 24C24 23.3136 23.9524 22.2435 23.3335 21.7581C22.7146 21.2727 21.8753 21 21.0001 21Z" fill="#FAFBFB"/>
<path fill-rule="evenodd" clip-rule="evenodd" d="M86 15C83.2386 15 81 17.2386 81 20C81 22.7614 83.2386 25 86 25C88.7614 25 91 22.7614 91 20C91 17.2386 88.7614 15 86 15ZM86 47C83.2386 47 81 49.2386 81 52C81 54.7614 83.2386 57 86 57C88.7614 57 91 54.7614 91 52C91 49.2386 88.7614 47 86 47ZM132 59H81V61H132V59ZM93 49H113V51H93V49ZM117 53H93V55H117V53ZM81 63H132V65H81V63ZM81 27H132V29H81V27ZM113 17H93V19H113V17ZM93 21H117V23H93V21ZM132 31H81V33H132V31ZM16 52C16 49.2386 18.2386 47 21 47C23.7614 47 26 49.2386 26 52C26 54.7614 23.7614 57 21 57C18.2386 57 16 54.7614 16 52ZM67 59H16V61H67V59ZM28 49H48V51H28V49ZM52 53H28V55H52V53ZM16 63H67V65H16V63ZM21 15C18.2386 15 16 17.2386 16 20C16 22.7614 18.2386 25 21 25C23.7614 25 26 22.7614 26 20C26 17.2386 23.7614 15 21 15ZM16 27H67V29H16V27ZM48 17H28V19H48V17ZM28 21H52V23H28V21ZM67 31H16V33H67V31ZM136 11H77V37H136V11ZM136 43H77V69H136V43ZM12 43H71V69H12V43ZM71 11H12V37H71V11Z" fill="#5D6B82"/>
</svg>
