<svg width="148" height="80" viewBox="0 0 148 80" fill="none" xmlns="http://www.w3.org/2000/svg">
<rect width="148" height="80" rx="2" fill="#D1D5DB"/>
<path fill-rule="evenodd" clip-rule="evenodd" d="M2 1C1.44772 1 1 1.44771 1 2V78C1 78.5523 1.44771 79 2 79H146C146.552 79 147 78.5523 147 78V2C147 1.44772 146.552 1 146 1H2ZM88 23C88 24.1046 87.1046 25 86 25C84.8954 25 84 24.1046 84 23C84 21.8954 84.8954 21 86 21C87.1046 21 88 21.8954 88 23ZM86 57C87.1046 57 88 56.1046 88 55C88 53.8954 87.1046 53 86 53C84.8954 53 84 53.8954 84 55C84 56.1046 84.8954 57 86 57ZM86.0001 58C85.5667 58 85.1376 58.0669 84.7372 58.197C84.3368 58.3271 83.973 58.5177 83.6666 58.7581C83.0477 59.2435 83 60.3136 83 61C83 61 84.2 62 86.0001 62C87.8001 62 89 61 89 61C89 60.3136 88.9524 59.2435 88.3335 58.7581C87.7146 58.2727 86.8753 58 86.0001 58ZM86.0001 26C85.5667 26 85.1376 26.0669 84.7372 26.197C84.3368 26.3271 83.973 26.5177 83.6666 26.7581C83.0477 27.2435 83 28.3136 83 29C83 29 84.2 30 86.0001 30C87.8001 30 89 29 89 29C89 28.3136 88.9524 27.2435 88.3335 26.7581C87.7146 26.2727 86.8753 26 86.0001 26ZM23 55C23 56.1046 22.1046 57 21 57C19.8954 57 19 56.1046 19 55C19 53.8954 19.8954 53 21 53C22.1046 53 23 53.8954 23 55ZM21.0001 58C20.5667 58 20.1376 58.0669 19.7372 58.197C19.3368 58.3271 18.973 58.5177 18.6666 58.7581C18.0477 59.2435 18 60.3136 18 61C18 61 19.2 62 21.0001 62C22.8001 62 24 61 24 61C24 60.3136 23.9524 59.2435 23.3335 58.7581C22.7146 58.2727 21.8753 58 21.0001 58ZM23 23C23 24.1046 22.1046 25 21 25C19.8954 25 19 24.1046 19 23C19 21.8954 19.8954 21 21 21C22.1046 21 23 21.8954 23 23ZM21.0001 26C20.5667 26 20.1376 26.0669 19.7372 26.197C19.3368 26.3271 18.973 26.5177 18.6666 26.7581C18.0477 27.2435 18 28.3136 18 29C18 29 19.2 30 21.0001 30C22.8001 30 24 29 24 29C24 28.3136 23.9524 27.2435 23.3335 26.7581C22.7146 26.2727 21.8753 26 21.0001 26Z" fill="#FAFBFB"/>
<path fill-rule="evenodd" clip-rule="evenodd" d="M136 11H77V37H136V11ZM136 43H77V69H136V43ZM12 43H71V69H12V43ZM71 11H12V37H71V11ZM113 17H93V19H113V17ZM86 20C83.2386 20 81 22.2386 81 25C81 27.7614 83.2386 30 86 30C88.7614 30 91 27.7614 91 25C91 22.2386 88.7614 20 86 20ZM93 49H113V51H93V49ZM86 52C83.2386 52 81 54.2386 81 57C81 59.7614 83.2386 62 86 62C88.7614 62 91 59.7614 91 57C91 54.2386 88.7614 52 86 52ZM132 59H93V61H132V59ZM117 53H93V55H117V53ZM93 63H132V65H93V63ZM93 27H132V29H93V27ZM93 21H117V23H93V21ZM132 31H93V33H132V31ZM16 57C16 54.2386 18.2386 52 21 52C23.7614 52 26 54.2386 26 57C26 59.7614 23.7614 62 21 62C18.2386 62 16 59.7614 16 57ZM67 59H28V61H67V59ZM28 49H48V51H28V49ZM52 53H28V55H52V53ZM28 63H67V65H28V63ZM21 20C18.2386 20 16 22.2386 16 25C16 27.7614 18.2386 30 21 30C23.7614 30 26 27.7614 26 25C26 22.2386 23.7614 20 21 20ZM28 27H67V29H28V27ZM48 17H28V19H48V17ZM28 21H52V23H28V21ZM67 31H28V33H67V31Z" fill="#5D6B82"/>
</svg>
