<svg width="148" height="80" viewBox="0 0 148 80" fill="none" xmlns="http://www.w3.org/2000/svg">
<rect width="148" height="80" rx="2" fill="#D1D5DB"/>
<path fill-rule="evenodd" clip-rule="evenodd" d="M2 1C1.44772 1 1 1.44771 1 2V78C1 78.5523 1.44771 79 2 79H146C146.552 79 147 78.5523 147 78V2C147 1.44772 146.552 1 146 1H2ZM26 18C19.3726 18 14 23.3726 14 30C14 36.6274 19.3726 42 26 42C32.6274 42 38 36.6274 38 30C38 23.3726 32.6274 18 26 18ZM12 56V52H40V56H12ZM12 62V58H40V62H12ZM72 52V56H44V52H72ZM44 58V62H72V58H44ZM46 30C46 23.3726 51.3726 18 58 18C64.6274 18 70 23.3726 70 30C70 36.6274 64.6274 42 58 42C51.3726 42 46 36.6274 46 30ZM104 56V52H76V56H104ZM76 62V58H104V62H76ZM90 18C83.3726 18 78 23.3726 78 30C78 36.6274 83.3726 42 90 42C96.6274 42 102 36.6274 102 30C102 23.3726 96.6274 18 90 18ZM136 52V56H108V52H136ZM108 58V62H136V58H108ZM110 30C110 23.3726 115.373 18 122 18C128.627 18 134 23.3726 134 30C134 36.6274 128.627 42 122 42C115.373 42 110 36.6274 110 30Z" fill="#FAFBFB"/>
<path fill-rule="evenodd" clip-rule="evenodd" d="M29 25C29 26.6569 27.6569 28 26 28C24.3431 28 23 26.6569 23 25C23 23.3431 24.3431 22 26 22C27.6569 22 29 23.3431 29 25ZM40 50V46H12V50H40ZM26 29C24.9889 29 23.9876 29.2176 23.0534 29.6403C22.1192 30.063 21.2703 30.6826 20.5553 31.4637C19.1113 33.0413 19 37.4749 19 39.7059C19 39.7059 21.8 42 26 42C30.2001 42 33 39.7059 33 39.7059C33 37.4749 32.8888 33.0413 31.4448 31.4637C30.0007 29.8862 28.0422 29 26 29ZM44 46V50H72V46H44ZM58 28C59.6569 28 61 26.6569 61 25C61 23.3431 59.6569 22 58 22C56.3431 22 55 23.3431 55 25C55 26.6569 56.3431 28 58 28ZM55.0534 29.6403C55.9876 29.2176 56.9889 29 58 29C60.0422 29 62.0007 29.8862 63.4448 31.4637C64.8888 33.0413 65 37.4749 65 39.7059C65 39.7059 62.2001 42 58 42C53.8 42 51 39.7059 51 39.7059C51 37.4749 51.1113 33.0413 52.5553 31.4637C53.2703 30.6826 54.1192 30.063 55.0534 29.6403ZM76 50V46H104V50H76ZM93 25C93 26.6569 91.6569 28 90 28C88.3431 28 87 26.6569 87 25C87 23.3431 88.3431 22 90 22C91.6569 22 93 23.3431 93 25ZM90 29C88.9889 29 87.9876 29.2176 87.0534 29.6403C86.1192 30.063 85.2703 30.6826 84.5553 31.4637C83.1113 33.0413 83 37.4749 83 39.7059C83 39.7059 85.8 42 90 42C94.2001 42 97 39.7059 97 39.7059C97 37.4749 96.8888 33.0413 95.4448 31.4637C94.0007 29.8862 92.0422 29 90 29ZM108 46V50H136V46H108ZM122 28C123.657 28 125 26.6569 125 25C125 23.3431 123.657 22 122 22C120.343 22 119 23.3431 119 25C119 26.6569 120.343 28 122 28ZM119.053 29.6403C119.988 29.2176 120.989 29 122 29C124.042 29 126.001 29.8862 127.445 31.4637C128.889 33.0413 129 37.4749 129 39.7059C129 39.7059 126.2 42 122 42C117.8 42 115 39.7059 115 39.7059C115 37.4749 115.111 33.0413 116.555 31.4637C117.27 30.6826 118.119 30.063 119.053 29.6403Z" fill="#5D6B82"/>
</svg>
