<svg width="148" height="80" viewBox="0 0 148 80" fill="none" xmlns="http://www.w3.org/2000/svg">
<rect width="148" height="80" rx="2" fill="#D1D5DB"/>
<path fill-rule="evenodd" clip-rule="evenodd" d="M2 1C1.44772 1 1 1.44771 1 2V78C1 78.5523 1.44771 79 2 79H146C146.552 79 147 78.5523 147 78V2C147 1.44772 146.552 1 146 1H2ZM46 20C46 13.3726 51.3726 8 58 8C64.6274 8 70 13.3726 70 20C70 26.6274 64.6274 32 58 32C51.3726 32 46 26.6274 46 20ZM72 34V38H44V34H72ZM76 34V38H104V34H76ZM78 20C78 13.3726 83.3726 8 90 8C96.6274 8 102 13.3726 102 20C102 26.6274 96.6274 32 90 32C83.3726 32 78 26.6274 78 20ZM72 72V68H44V72H72ZM46 54C46 47.3726 51.3726 42 58 42C64.6274 42 70 47.3726 70 54C70 60.6274 64.6274 66 58 66C51.3726 66 46 60.6274 46 54ZM104 72V68H76V72H104ZM78 54C78 47.3726 83.3726 42 90 42C96.6274 42 102 47.3726 102 54C102 60.6274 96.6274 66 90 66C83.3726 66 78 60.6274 78 54Z" fill="#FAFBFB"/>
<path fill-rule="evenodd" clip-rule="evenodd" d="M61 15C61 16.6569 59.6569 18 58 18C56.3431 18 55 16.6569 55 15C55 13.3431 56.3431 12 58 12C59.6569 12 61 13.3431 61 15ZM55.0534 19.6403C55.9876 19.2176 56.9889 19 58 19C60.0422 19 62.0007 19.8862 63.4448 21.4637C64.8888 23.0413 65 27.4749 65 29.7059C65 29.7059 62.2001 32 58 32C53.8 32 51 29.7059 51 29.7059C51 27.4749 51.1113 23.0413 52.5553 21.4637C53.2703 20.6826 54.1192 20.063 55.0534 19.6403ZM90 18C91.6569 18 93 16.6569 93 15C93 13.3431 91.6569 12 90 12C88.3431 12 87 13.3431 87 15C87 16.6569 88.3431 18 90 18ZM87.0534 19.6403C87.9876 19.2176 88.9889 19 90 19C92.0422 19 94.0007 19.8862 95.4448 21.4637C96.8888 23.0413 97 27.4749 97 29.7059C97 29.7059 94.2001 32 90 32C85.8 32 83 29.7059 83 29.7059C83 27.4749 83.1113 23.0413 84.5553 21.4637C85.2703 20.6826 86.1192 20.063 87.0534 19.6403ZM58 52C59.6569 52 61 50.6569 61 49C61 47.3431 59.6569 46 58 46C56.3431 46 55 47.3431 55 49C55 50.6569 56.3431 52 58 52ZM55.0534 53.6403C55.9876 53.2176 56.9889 53 58 53C60.0422 53 62.0007 53.8862 63.4448 55.4637C64.8888 57.0413 65 61.4749 65 63.7059C65 63.7059 62.2001 66 58 66C53.8 66 51 63.7059 51 63.7059C51 61.4749 51.1113 57.0413 52.5553 55.4637C53.2703 54.6826 54.1192 54.063 55.0534 53.6403ZM90 52C91.6569 52 93 50.6569 93 49C93 47.3431 91.6569 46 90 46C88.3431 46 87 47.3431 87 49C87 50.6569 88.3431 52 90 52ZM87.0534 53.6403C87.9876 53.2176 88.9889 53 90 53C92.0422 53 94.0007 53.8862 95.4448 55.4637C96.8888 57.0413 97 61.4749 97 63.7059C97 63.7059 94.2001 66 90 66C85.8 66 83 63.7059 83 63.7059C83 61.4749 83.1113 57.0413 84.5553 55.4637C85.2703 54.6826 86.1192 54.063 87.0534 53.6403Z" fill="#5D6B82"/>
</svg>
