<svg width="148" height="80" viewBox="0 0 148 80" fill="none" xmlns="http://www.w3.org/2000/svg">
<rect width="148" height="80" rx="2" fill="#D1D5DB"/>
<path fill-rule="evenodd" clip-rule="evenodd" d="M2 1C1.44772 1 1 1.44771 1 2V78C1 78.5523 1.44771 79 2 79H146C146.552 79 147 78.5523 147 78V2C147 1.44772 146.552 1 146 1H2ZM136 12H100V48H136V12ZM100 58H136V62H100V58ZM136 64H100V68H136V64ZM56 64H92V68H56V64ZM56 58H92V62H56V58ZM56 12H92V48H56V12ZM12 64H48V68H12V64ZM12 58H48V62H12V58ZM12 12H48V48H12V12Z" fill="#FAFBFB"/>
<path fill-rule="evenodd" clip-rule="evenodd" d="M30.1841 48H12V39.2658L12.429 38.9421L14.1433 37.648L15.8575 36.3541L17.5718 35.0601L19.2861 33.766L20.2905 33.008C20.5982 32.7757 20.95 32.5975 21.3255 32.472C21.7668 32.3245 22.2407 32.25 22.7148 32.25C23.1889 32.25 23.6627 32.3244 24.104 32.472C24.4795 32.5976 24.8314 32.7757 25.139 33.008L26.1433 33.766L27.8575 35.06L28.037 35.1954L29.7318 34.0867L30.5825 33.5302L33.1348 31.8606L33.9856 31.3041L34.9823 30.6521C35.6467 30.2173 36.5177 30 37.3885 30C38.2593 30 39.1302 30.2173 39.7947 30.6521L40.7915 31.3041L41.6422 31.8606L44.1944 33.5302L45.0452 34.0868L47.5975 35.7564L48 36.0197V48H45.0004H34.9823H30.1841ZM20 52H40V56H20V52ZM84 52H64V56H84V52ZM128 52H108V56H128V52ZM56 48H74.1841H78.9823H89.0004H92V36.0197L91.5975 35.7564L89.0452 34.0868L88.1944 33.5302L85.6422 31.8606L84.7915 31.3041L83.7947 30.6521C83.1302 30.2173 82.2593 30 81.3885 30C80.5177 30 79.6467 30.2173 78.9823 30.6521L77.9856 31.3041L77.1348 31.8606L74.5825 33.5302L73.7318 34.0867L72.037 35.1954L71.8575 35.06L70.1433 33.766L69.139 33.008C68.8314 32.7757 68.4795 32.5976 68.104 32.472C67.6627 32.3244 67.1889 32.25 66.7148 32.25C66.2407 32.25 65.7668 32.3245 65.3255 32.472C64.95 32.5975 64.5982 32.7757 64.2905 33.008L63.2861 33.766L61.5718 35.0601L59.8575 36.3541L58.1433 37.648L56.429 38.9421L56 39.2658V48ZM118.184 48H100V39.2658L100.429 38.9421L102.143 37.648L103.857 36.3541L105.572 35.0601L107.286 33.766L108.29 33.008C108.598 32.7757 108.95 32.5975 109.326 32.472C109.767 32.3245 110.241 32.25 110.715 32.25C111.189 32.25 111.663 32.3244 112.104 32.472C112.48 32.5976 112.831 32.7757 113.139 33.008L114.143 33.766L115.858 35.06L116.037 35.1954L117.732 34.0867L118.583 33.5302L121.135 31.8606L121.986 31.3041L122.982 30.6521C123.647 30.2173 124.518 30 125.389 30C126.259 30 127.13 30.2173 127.795 30.6521L128.791 31.3041L129.642 31.8606L132.194 33.5302L133.045 34.0868L135.597 35.7564L136 36.0197V48H133H122.982H118.184Z" fill="#5D6B82"/>
</svg>
