<svg width="148" height="80" viewBox="0 0 148 80" fill="none" xmlns="http://www.w3.org/2000/svg">
<rect width="148" height="80" rx="2" fill="#D1D5DB"/>
<path fill-rule="evenodd" clip-rule="evenodd" d="M2 1C1.44772 1 1 1.44771 1 2V78C1 78.5523 1.44771 79 2 79H146C146.552 79 147 78.5523 147 78V2C147 1.44772 146.552 1 146 1H2ZM12 10H48V46H12V10ZM92 10H56V46H92V10ZM136 10H100V46H136V10Z" fill="#FAFBFB"/>
<path fill-rule="evenodd" clip-rule="evenodd" d="M30.1841 46H12V37.2658L12.429 36.9421L14.1433 35.648L15.8575 34.3541L17.5718 33.0601L19.2861 31.766L20.2905 31.008C20.5982 30.7757 20.95 30.5975 21.3255 30.472C21.7668 30.3245 22.2407 30.25 22.7148 30.25C23.1889 30.25 23.6627 30.3244 24.104 30.472C24.4795 30.5976 24.8314 30.7757 25.139 31.008L26.1433 31.766L27.8575 33.06L28.037 33.1954L29.7318 32.0867L30.5825 31.5302L33.1348 29.8606L33.9856 29.3041L34.9823 28.6521C35.6467 28.2173 36.5177 28 37.3885 28C38.2593 28 39.1302 28.2173 39.7947 28.6521L40.7915 29.3041L41.6422 29.8606L44.1944 31.5302L45.0452 32.0868L47.5975 33.7564L48 34.0197V46H45.0004H34.9823H30.1841ZM12 52H28L30 50L32 52H48V70H12V52ZM92 52H76L74 50L72 52H56V70H92V52ZM136 52H120L118 50L116 52H100V70H136V52ZM44 60V56H16V60H44ZM16 66V62H44V66H16ZM88 60V56H60V60H88ZM60 66V62H88V66H60ZM132 60V56H104V60H132ZM104 66V62H132V66H104ZM56 46H74.1841H78.9823H89.0004H92V34.0197L91.5975 33.7564L89.0452 32.0868L88.1944 31.5302L85.6422 29.8606L84.7915 29.3041L83.7947 28.6521C83.1302 28.2173 82.2593 28 81.3885 28C80.5177 28 79.6467 28.2173 78.9823 28.6521L77.9856 29.3041L77.1348 29.8606L74.5825 31.5302L73.7318 32.0867L72.037 33.1954L71.8575 33.06L70.1433 31.766L69.139 31.008C68.8314 30.7757 68.4795 30.5976 68.104 30.472C67.6627 30.3244 67.1889 30.25 66.7148 30.25C66.2407 30.25 65.7668 30.3245 65.3255 30.472C64.95 30.5975 64.5982 30.7757 64.2905 31.008L63.2861 31.766L61.5718 33.0601L59.8575 34.3541L58.1433 35.648L56.429 36.9421L56 37.2658V46ZM118.184 46H100V37.2658L100.429 36.9421L102.143 35.648L103.857 34.3541L105.572 33.0601L107.286 31.766L108.29 31.008C108.598 30.7757 108.95 30.5975 109.326 30.472C109.767 30.3245 110.241 30.25 110.715 30.25C111.189 30.25 111.663 30.3244 112.104 30.472C112.48 30.5976 112.831 30.7757 113.139 31.008L114.143 31.766L115.858 33.06L116.037 33.1954L117.732 32.0867L118.583 31.5302L121.135 29.8606L121.986 29.3041L122.982 28.6521C123.647 28.2173 124.518 28 125.389 28C126.259 28 127.13 28.2173 127.795 28.6521L128.791 29.3041L129.642 29.8606L132.194 31.5302L133.045 32.0868L135.597 33.7564L136 34.0197V46H133H122.982H118.184Z" fill="#5D6B82"/>
</svg>
