<svg width="148" height="80" viewBox="0 0 148 80" fill="none" xmlns="http://www.w3.org/2000/svg">
<rect width="148" height="80" rx="2" fill="#D1D5DB"/>
<path fill-rule="evenodd" clip-rule="evenodd" d="M2 1C1.44772 1 1 1.44771 1 2V78C1 78.5523 1.44771 79 2 79H146C146.552 79 147 78.5523 147 78V2C147 1.44772 146.552 1 146 1H2ZM12 34H48V70H12V34ZM92 34H56V70H92V34ZM136 34H100V70H136V34Z" fill="#FAFBFB"/>
<path fill-rule="evenodd" clip-rule="evenodd" d="M12 28H28L30 30L32 28H48V10H12V28ZM92 28H76L74 30L72 28H56V10H92V28ZM136 28H120L118 30L116 28H100V10H136V28ZM44 24H16V20H44V24ZM16 18H44V14H16V18ZM88 24H60V20H88V24ZM60 18H88V14H60V18ZM132 24H104V20H132V24ZM104 18H132V14H104V18ZM30.1841 70H12V61.2658L12.429 60.9421L14.1433 59.648L15.8575 58.3541L17.5718 57.0601L19.2861 55.766L20.2905 55.008C20.5982 54.7757 20.95 54.5975 21.3255 54.472C21.7668 54.3245 22.2407 54.25 22.7148 54.25C23.1889 54.25 23.6627 54.3244 24.104 54.472C24.4795 54.5976 24.8314 54.7757 25.139 55.008L26.1433 55.766L27.8575 57.06L28.037 57.1954L29.7318 56.0867L30.5825 55.5302L33.1348 53.8606L33.9856 53.3041L34.9823 52.6521C35.6467 52.2173 36.5177 52 37.3885 52C38.2593 52 39.1302 52.2173 39.7947 52.6521L40.7915 53.3041L41.6422 53.8606L44.1944 55.5302L45.0452 56.0868L47.5975 57.7564L48 58.0197V70H45.0004H34.9823H30.1841ZM56 70H74.1841H78.9823H89.0004H92V58.0197L91.5975 57.7564L89.0452 56.0868L88.1944 55.5302L85.6422 53.8606L84.7915 53.3041L83.7947 52.6521C83.1302 52.2173 82.2593 52 81.3885 52C80.5177 52 79.6467 52.2173 78.9823 52.6521L77.9856 53.3041L77.1348 53.8606L74.5825 55.5302L73.7318 56.0867L72.037 57.1954L71.8575 57.06L70.1433 55.766L69.139 55.008C68.8314 54.7757 68.4795 54.5976 68.104 54.472C67.6627 54.3244 67.1889 54.25 66.7148 54.25C66.2407 54.25 65.7668 54.3245 65.3255 54.472C64.95 54.5975 64.5982 54.7757 64.2905 55.008L63.2861 55.766L61.5718 57.0601L59.8575 58.3541L58.1433 59.648L56.429 60.9421L56 61.2658V70ZM118.184 70H100V61.2658L100.429 60.9421L102.143 59.648L103.857 58.3541L105.572 57.0601L107.286 55.766L108.29 55.008C108.598 54.7757 108.95 54.5975 109.326 54.472C109.767 54.3245 110.241 54.25 110.715 54.25C111.189 54.25 111.663 54.3244 112.104 54.472C112.48 54.5976 112.831 54.7757 113.139 55.008L114.143 55.766L115.858 57.06L116.037 57.1954L117.732 56.0867L118.583 55.5302L121.135 53.8606L121.986 53.3041L122.982 52.6521C123.647 52.2173 124.518 52 125.389 52C126.259 52 127.13 52.2173 127.795 52.6521L128.791 53.3041L129.642 53.8606L132.194 55.5302L133.045 56.0868L135.597 57.7564L136 58.0197V70H133H122.982H118.184Z" fill="#5D6B82"/>
</svg>
