<svg width="148" height="80" viewBox="0 0 148 80" fill="none" xmlns="http://www.w3.org/2000/svg">
<rect width="148" height="80" rx="2" fill="#D1D5DB"/>
<path fill-rule="evenodd" clip-rule="evenodd" d="M2 1C1.44772 1 1 1.44771 1 2V78C1 78.5523 1.44771 79 2 79H146C146.552 79 147 78.5523 147 78V2C147 1.44772 146.552 1 146 1H2ZM30 12C20.0589 12 12 20.0589 12 30C12 39.9411 20.0589 48 30 48C39.9411 48 48 39.9411 48 30C48 20.0589 39.9411 12 30 12ZM56 30C56 20.0589 64.0589 12 74 12C83.9411 12 92 20.0589 92 30C92 39.9411 83.9411 48 74 48C64.0589 48 56 39.9411 56 30ZM100 30C100 20.0589 108.059 12 118 12C127.941 12 136 20.0589 136 30C136 39.9411 127.941 48 118 48C108.059 48 100 39.9411 100 30ZM100 58V62H136V58H100ZM100 64V68H136V64H100ZM56 64H92V68H56V64ZM92 58H56V62H92V58ZM12 64H48V68H12V64ZM48 58H12V62H48V58Z" fill="#FAFBFB"/>
<path fill-rule="evenodd" clip-rule="evenodd" d="M29.9999 48C38.0351 48 44.8406 42.7351 47.1548 35.4668L45.0452 34.0868L44.1944 33.5302L41.6421 31.8606L40.7914 31.3041L39.7946 30.6521C39.1302 30.2173 38.2592 30 37.3885 30C36.5176 30 35.6467 30.2173 34.9823 30.6521L33.9855 31.3041L33.1347 31.8606L30.5825 33.5302L29.7318 34.0867L28.0369 35.1954L27.8575 35.06L26.1432 33.766L25.139 33.008C24.8313 32.7757 24.4795 32.5976 24.104 32.472C23.6626 32.3244 23.1888 32.25 22.7147 32.25C22.2406 32.25 21.7667 32.3245 21.3254 32.472C20.95 32.5975 20.5981 32.7757 20.2904 33.008L19.2861 33.766L17.5717 35.0601L15.8574 36.3541L14.1432 37.648L13.8184 37.8932C16.7431 43.8779 22.8901 48 29.9999 48ZM20 52H40V56H20V52ZM84 52H64V56H84V52ZM128 52H108V56H128V52ZM91.1548 35.4668C88.8406 42.7351 82.0351 48 73.9999 48C66.8901 48 60.7431 43.8779 57.8184 37.8933L58.1433 37.648L59.8575 36.3541L61.5718 35.0601L63.2861 33.766L64.2905 33.008C64.5981 32.7757 64.95 32.5975 65.3255 32.472C65.7667 32.3245 66.2406 32.25 66.7148 32.25C67.1889 32.25 67.6627 32.3244 68.104 32.472C68.4795 32.5976 68.8314 32.7757 69.139 33.008L70.1433 33.766L71.8575 35.06L72.037 35.1954L73.7318 34.0867L74.5825 33.5302L77.1347 31.8606L77.9856 31.3041L78.9823 30.6521C79.6467 30.2173 80.5177 30 81.3885 30C82.2593 30 83.1302 30.2173 83.7947 30.6521L84.7915 31.3041L85.6422 31.8606L88.1944 33.5302L89.0452 34.0868L91.1548 35.4668ZM118 48C126.035 48 132.841 42.7351 135.155 35.4668L133.045 34.0868L132.194 33.5302L129.642 31.8606L128.791 31.3041L127.795 30.6521C127.13 30.2173 126.259 30 125.388 30C124.518 30 123.647 30.2173 122.982 30.6521L121.986 31.3041L121.135 31.8606L118.582 33.5302L117.732 34.0867L116.037 35.1954L115.857 35.06L114.143 33.766L113.139 33.008C112.831 32.7757 112.479 32.5976 112.104 32.472C111.663 32.3244 111.189 32.25 110.715 32.25C110.241 32.25 109.767 32.3245 109.325 32.472C108.95 32.5975 108.598 32.7757 108.29 33.008L107.286 33.766L105.572 35.0601L103.857 36.3541L102.143 37.648L101.818 37.8932C104.743 43.8779 110.89 48 118 48Z" fill="#5D6B82"/>
</svg>
