<svg width="148" height="80" viewBox="0 0 148 80" fill="none" xmlns="http://www.w3.org/2000/svg">
<rect width="148" height="80" rx="2" fill="#D1D5DB"/>
<path fill-rule="evenodd" clip-rule="evenodd" d="M2 1C1.44772 1 1 1.44771 1 2V78C1 78.5523 1.44771 79 2 79H146C146.552 79 147 78.5523 147 78V2C147 1.44772 146.552 1 146 1H2ZM92 10C84.268 10 78 16.268 78 24C78 31.732 84.268 38 92 38C99.732 38 106 31.732 106 24C106 16.268 99.732 10 92 10ZM42 22H62V26H42V22ZM42 28H66V32H42V28ZM26 42C18.268 42 12 48.268 12 56C12 63.732 18.268 70 26 70C33.732 70 40 63.732 40 56C40 48.268 33.732 42 26 42ZM42 54H62V58H42V54ZM66 60H42V64H66V60ZM78 56C78 48.268 84.268 42 92 42C99.732 42 106 48.268 106 56C106 63.732 99.732 70 92 70C84.268 70 78 63.732 78 56ZM128 54H108V58H128V54ZM108 60H132V64H108V60ZM108 22H128V26H108V22ZM132 28H108V32H132V28ZM12 24C12 16.268 18.268 10 26 10C33.732 10 40 16.268 40 24C40 31.732 33.732 38 26 38C18.268 38 12 31.732 12 24Z" fill="#FAFBFB"/>
<path fill-rule="evenodd" clip-rule="evenodd" d="M70 16H42V20H70V16ZM70 48H42V52H70V48ZM108 48H136V52H108V48ZM136 16H108V20H136V16ZM39.3426 28.2519C37.5427 33.905 32.2495 38 26 38C20.4701 38 15.6891 34.7939 13.4143 30.1392L13.667 29.9485L15.0003 28.9421L16.3336 27.9356L17.667 26.9291L18.4482 26.3395C18.6875 26.1588 18.9612 26.0203 19.2532 25.9227C19.5964 25.8079 19.965 25.75 20.3337 25.75C20.7025 25.75 21.071 25.8079 21.4143 25.9227C21.7063 26.0203 21.98 26.1589 22.2193 26.3395L23.0004 26.9291L24.3336 27.9355L24.4732 28.0409L25.7914 27.1786L26.4531 26.7457L28.4382 25.4471L29.0999 25.0143L29.8752 24.5072C30.3919 24.169 31.0693 24 31.7466 24C32.4239 24 33.1013 24.169 33.6181 24.5072L34.3934 25.0143L35.0551 25.4471L37.0401 26.7457L37.7019 27.1786L39.3426 28.2519ZM26 70C32.2495 70 37.5427 65.905 39.3426 60.2519L37.7019 59.1786L37.0401 58.7457L35.0551 57.4471L34.3934 57.0143L33.6181 56.5072C33.1013 56.169 32.4239 56 31.7467 56C31.0693 56 30.3919 56.169 29.8752 56.5072L29.0999 57.0143L28.4382 57.4471L26.4531 58.7457L25.7914 59.1786L24.4732 60.0409L24.3336 59.9355L23.0004 58.9291L22.2193 58.3395C21.98 58.1589 21.7063 58.0203 21.4143 57.9227C21.071 57.8078 20.7025 57.75 20.3337 57.75C19.965 57.75 19.5964 57.8079 19.2532 57.9227C18.9612 58.0203 18.6875 58.1588 18.4482 58.3395L17.667 58.9291L16.3336 59.9356L15.0003 60.9421L13.667 61.9485L13.4143 62.1392C15.6891 66.7939 20.4701 70 26 70ZM105.343 28.2519C103.543 33.905 98.2496 38 92 38C86.4702 38 81.6891 34.794 79.4143 30.1392L79.6671 29.9485L81.0004 28.9421L82.3337 27.9356L83.6671 26.9291L84.4483 26.3395C84.6875 26.1588 84.9612 26.0203 85.2533 25.9227C85.5965 25.8079 85.965 25.75 86.3338 25.75C86.7025 25.75 87.0711 25.8079 87.4144 25.9227C87.7064 26.0203 87.9801 26.1589 88.2193 26.3395L89.0004 26.9291L90.3337 27.9355L90.4733 28.0409L91.7915 27.1786L92.4532 26.7457L94.4382 25.4471L95.1 25.0143L95.8752 24.5072C96.392 24.169 97.0694 24 97.7467 24C98.424 24 99.1014 24.169 99.6182 24.5072L100.393 25.0143L101.055 25.4471L103.04 26.7457L103.702 27.1786L105.343 28.2519ZM91.9999 70C98.2495 70 103.543 65.905 105.343 60.2519L103.702 59.1786L103.04 58.7457L101.055 57.4471L100.393 57.0143L99.6181 56.5072C99.1013 56.169 98.4239 56 97.7466 56C97.0693 56 96.3919 56.169 95.8752 56.5072L95.0999 57.0143L94.4382 57.4471L92.4531 58.7457L91.7914 59.1786L90.4732 60.0409L90.3336 59.9355L89.0004 58.9291L88.2193 58.3395C87.98 58.1589 87.7063 58.0203 87.4143 57.9227C87.071 57.8078 86.7025 57.75 86.3337 57.75C85.965 57.75 85.5964 57.8079 85.2532 57.9227C84.9611 58.0203 84.6875 58.1588 84.4482 58.3395L83.667 58.9291L82.3336 59.9356L81.0003 60.9421L79.667 61.9485L79.4143 62.1392C81.6891 66.7939 86.4701 70 91.9999 70Z" fill="#5D6B82"/>
</svg>
