<svg width="148" height="80" viewBox="0 0 148 80" fill="none" xmlns="http://www.w3.org/2000/svg">
<rect width="148" height="80" rx="2" fill="#D1D5DB"/>
<path fill-rule="evenodd" clip-rule="evenodd" d="M2 1C1.44772 1 1 1.44771 1 2V78C1 78.5523 1.44771 79 2 79H146C146.552 79 147 78.5523 147 78V2C147 1.44772 146.552 1 146 1H2ZM12 28C12 18.0589 20.0589 10 30 10C39.9411 10 48 18.0589 48 28C48 37.9411 39.9411 46 30 46C20.0589 46 12 37.9411 12 28ZM74 10C64.0589 10 56 18.0589 56 28C56 37.9411 64.0589 46 74 46C83.9411 46 92 37.9411 92 28C92 18.0589 83.9411 10 74 10ZM118 10C108.059 10 100 18.0589 100 28C100 37.9411 108.059 46 118 46C127.941 46 136 37.9411 136 28C136 18.0589 127.941 10 118 10Z" fill="#FAFBFB"/>
<path fill-rule="evenodd" clip-rule="evenodd" d="M29.9999 46C38.0351 46 44.8406 40.7351 47.1548 33.4668L45.0452 32.0868L44.1944 31.5302L41.6421 29.8606L40.7914 29.3041L39.7946 28.6521C39.1302 28.2173 38.2592 28 37.3885 28C36.5176 28 35.6467 28.2173 34.9823 28.6521L33.9855 29.3041L33.1347 29.8606L30.5825 31.5302L29.7318 32.0867L28.0369 33.1954L27.8575 33.06L26.1432 31.766L25.139 31.008C24.8313 30.7757 24.4795 30.5976 24.104 30.472C23.6626 30.3244 23.1888 30.25 22.7147 30.25C22.2406 30.25 21.7667 30.3245 21.3254 30.472C20.95 30.5975 20.5981 30.7757 20.2904 31.008L19.2861 31.766L17.5717 33.0601L15.8574 34.3541L14.1432 35.648L13.8184 35.8932C16.7431 41.8779 22.8901 46 29.9999 46ZM12 52H28L30 50L32 52H48V70H12V52ZM92 52H76L74 50L72 52H56V70H92V52ZM136 52H120L118 50L116 52H100V70H136V52ZM44 60V56H16V60H44ZM16 66V62H44V66H16ZM88 60V56H60V60H88ZM60 66V62H88V66H60ZM132 60V56H104V60H132ZM104 66V62H132V66H104ZM91.1548 33.4668C88.8406 40.7351 82.0351 46 73.9999 46C66.8901 46 60.7431 41.8779 57.8184 35.8933L58.1433 35.648L59.8575 34.3541L61.5718 33.0601L63.2861 31.766L64.2905 31.008C64.5981 30.7757 64.95 30.5975 65.3255 30.472C65.7667 30.3245 66.2406 30.25 66.7148 30.25C67.1889 30.25 67.6627 30.3244 68.104 30.472C68.4795 30.5976 68.8314 30.7757 69.139 31.008L70.1433 31.766L71.8575 33.06L72.037 33.1954L73.7318 32.0867L74.5825 31.5302L77.1348 29.8606L77.9856 29.3041L78.9823 28.6521C79.6467 28.2173 80.5177 28 81.3885 28C82.2593 28 83.1302 28.2173 83.7947 28.6521L84.7915 29.3041L85.6422 29.8606L88.1944 31.5302L89.0452 32.0868L91.1548 33.4668ZM118 46C126.035 46 132.841 40.7351 135.155 33.4668L133.045 32.0868L132.194 31.5302L129.642 29.8606L128.791 29.3041L127.795 28.6521C127.13 28.2173 126.259 28 125.388 28C124.518 28 123.647 28.2173 122.982 28.6521L121.986 29.3041L121.135 29.8606L118.582 31.5302L117.732 32.0867L116.037 33.1954L115.857 33.06L114.143 31.766L113.139 31.008C112.831 30.7757 112.479 30.5976 112.104 30.472C111.663 30.3244 111.189 30.25 110.715 30.25C110.241 30.25 109.767 30.3245 109.325 30.472C108.95 30.5975 108.598 30.7757 108.29 31.008L107.286 31.766L105.572 33.0601L103.857 34.3541L102.143 35.648L101.818 35.8932C104.743 41.8779 110.89 46 118 46Z" fill="#5D6B82"/>
</svg>
