<?xml version="1.0" encoding="UTF-8"?>
<svg width="148px" height="80px" viewBox="0 0 148 80" version="1.1" xmlns="http://www.w3.org/2000/svg" xmlns:xlink="http://www.w3.org/1999/xlink">
    <!-- Generator: Sketch 50.2 (55047) - http://www.bohemiancoding.com/sketch -->
    <title>Article Read More Copy</title>
    <desc>Created with Sketch.</desc>
    <defs></defs>
    <g id="Article-Read-More-Copy" stroke="none" stroke-width="1" fill="none" fill-rule="evenodd">
        <rect id="Rectangle-4" fill="#D1D5DB" x="0" y="0" width="148" height="80" rx="2"></rect>
        <rect id="Rectangle-3" fill="#FAFBFB" x="1" y="1" width="146" height="78" rx="1"></rect>
        <path d="M57.5195312,31.3515625 L53.1132812,31.3515625 L52.1914062,34 L50.1367188,34 L54.4335938,22.625 L56.2070312,22.625 L60.5117188,34 L58.4492188,34 L57.5195312,31.3515625 Z M53.6679688,29.7578125 L56.9648438,29.7578125 L55.3164062,25.0390625 L53.6679688,29.7578125 Z M66.0429688,27.28125 C65.7929675,27.2395831 65.5351576,27.21875 65.2695312,27.21875 C64.3997352,27.21875 63.8138036,27.55208 63.5117188,28.21875 L63.5117188,34 L61.6132812,34 L61.6132812,25.546875 L63.4257812,25.546875 L63.4726562,26.4921875 C63.9309919,25.7578088 64.5664022,25.390625 65.3789062,25.390625 C65.6497409,25.390625 65.873697,25.427083 66.0507812,25.5 L66.0429688,27.28125 Z M70.0117188,23.4921875 L70.0117188,25.546875 L71.5039062,25.546875 L71.5039062,26.953125 L70.0117188,26.953125 L70.0117188,31.671875 C70.0117188,31.9947933 70.0755202,32.2278639 70.203125,32.3710938 C70.3307298,32.5143236 70.5585921,32.5859375 70.8867188,32.5859375 C71.1054698,32.5859375 71.3268218,32.5598961 71.5507812,32.5078125 L71.5507812,33.9765625 C71.1184874,34.0963548 70.7018249,34.15625 70.3007812,34.15625 C68.8424406,34.15625 68.1132812,33.3515705 68.1132812,31.7421875 L68.1132812,26.953125 L66.7226562,26.953125 L66.7226562,25.546875 L68.1132812,25.546875 L68.1132812,23.4921875 L70.0117188,23.4921875 Z M74.9726562,34 L73.0742188,34 L73.0742188,25.546875 L74.9726562,25.546875 L74.9726562,34 Z M72.9570312,23.3515625 C72.9570312,23.0598944 73.0494782,22.8177093 73.234375,22.625 C73.4192718,22.4322907 73.683592,22.3359375 74.0273438,22.3359375 C74.3710955,22.3359375 74.6367178,22.4322907 74.8242188,22.625 C75.0117197,22.8177093 75.1054688,23.0598944 75.1054688,23.3515625 C75.1054688,23.6380223 75.0117197,23.8763011 74.8242188,24.0664062 C74.6367178,24.2565114 74.3710955,24.3515625 74.0273438,24.3515625 C73.683592,24.3515625 73.4192718,24.2565114 73.234375,24.0664062 C73.0494782,23.8763011 72.9570312,23.6380223 72.9570312,23.3515625 Z M80.5117188,32.640625 C80.9856795,32.640625 81.3789047,32.5026055 81.6914062,32.2265625 C82.0039078,31.9505195 82.1705728,31.609377 82.1914062,31.203125 L83.9804688,31.203125 C83.9596353,31.7291693 83.7955745,32.2200498 83.4882812,32.6757812 C83.180988,33.1315127 82.7643255,33.4921862 82.2382812,33.7578125 C81.712237,34.0234388 81.1445343,34.15625 80.5351562,34.15625 C79.3528587,34.15625 78.415368,33.7734413 77.7226562,33.0078125 C77.0299445,32.2421837 76.6835938,31.1849026 76.6835938,29.8359375 L76.6835938,29.640625 C76.6835938,28.3541602 77.0273403,27.3242226 77.7148438,26.5507812 C78.4023472,25.7773399 79.3398378,25.390625 80.5273438,25.390625 C81.5325571,25.390625 82.3515593,25.6835908 82.984375,26.2695312 C83.6171907,26.8554717 83.9492186,27.6249952 83.9804688,28.578125 L82.1914062,28.578125 C82.1705728,28.0937476 82.0052099,27.6953141 81.6953125,27.3828125 C81.3854151,27.0703109 80.9908878,26.9140625 80.5117188,26.9140625 C79.8971323,26.9140625 79.4231788,27.1367165 79.0898438,27.5820312 C78.7565087,28.027346 78.5872396,28.7031205 78.5820312,29.609375 L78.5820312,29.9140625 C78.5820312,30.8307338 78.7473942,31.5143207 79.078125,31.9648438 C79.4088558,32.4153668 79.8867156,32.640625 80.5117188,32.640625 Z M87.4335938,34 L85.5351562,34 L85.5351562,22 L87.4335938,22 L87.4335938,34 Z M93.2226562,34.15625 C92.0195252,34.15625 91.0442746,33.7773475 90.296875,33.0195312 C89.5494754,32.261715 89.1757812,31.2526105 89.1757812,29.9921875 L89.1757812,29.7578125 C89.1757812,28.9140583 89.33854,28.1601596 89.6640625,27.4960938 C89.989585,26.8320279 90.4466116,26.315106 91.0351562,25.9453125 C91.6237009,25.575519 92.2799443,25.390625 93.0039062,25.390625 C94.1549537,25.390625 95.0442677,25.7578088 95.671875,26.4921875 C96.2994823,27.2265662 96.6132812,28.2656183 96.6132812,29.609375 L96.6132812,30.375 L91.0898438,30.375 C91.1471357,31.0729202 91.3802063,31.624998 91.7890625,32.03125 C92.1979187,32.437502 92.7122365,32.640625 93.3320312,32.640625 C94.2018273,32.640625 94.9101535,32.289066 95.4570312,31.5859375 L96.4804688,32.5625 C96.1419254,33.0677109 95.690107,33.459634 95.125,33.7382812 C94.559893,34.0169285 93.9257848,34.15625 93.2226562,34.15625 Z M92.9960938,26.9140625 C92.4752578,26.9140625 92.0546891,27.0963523 91.734375,27.4609375 C91.4140609,27.8255227 91.2096359,28.3333301 91.1210938,28.984375 L94.7382812,28.984375 L94.7382812,28.84375 C94.6966144,28.2083302 94.5273452,27.7278662 94.2304688,27.4023438 C93.9335923,27.0768213 93.522138,26.9140625 92.9960938,26.9140625 Z M40.1796875,53.6171875 L37.9765625,53.6171875 L37.9765625,58 L36,58 L36,46.625 L40,46.625 C41.3125066,46.625 42.3255173,46.9192679 43.0390625,47.5078125 C43.7526077,48.0963571 44.109375,48.9479111 44.109375,50.0625 C44.109375,50.8229205 43.9257831,51.4596329 43.5585938,51.9726562 C43.1914044,52.4856796 42.6796908,52.880207 42.0234375,53.15625 L44.578125,57.8984375 L44.578125,58 L42.4609375,58 L40.1796875,53.6171875 Z M37.9765625,52.03125 L40.0078125,52.03125 C40.6744825,52.03125 41.1953106,51.8632829 41.5703125,51.5273438 C41.9453144,51.1914046 42.1328125,50.7317738 42.1328125,50.1484375 C42.1328125,49.5390595 41.9596371,49.06771 41.6132812,48.734375 C41.2669254,48.40104 40.7500034,48.2291667 40.0625,48.21875 L37.9765625,48.21875 L37.9765625,52.03125 Z M49.5234375,58.15625 C48.3203065,58.15625 47.3450558,57.7773475 46.5976562,57.0195312 C45.8502567,56.261715 45.4765625,55.2526105 45.4765625,53.9921875 L45.4765625,53.7578125 C45.4765625,52.9140583 45.6393213,52.1601596 45.9648438,51.4960938 C46.2903662,50.8320279 46.7473929,50.315106 47.3359375,49.9453125 C47.9244821,49.575519 48.5807255,49.390625 49.3046875,49.390625 C50.4557349,49.390625 51.3450489,49.7578088 51.9726562,50.4921875 C52.6002636,51.2265662 52.9140625,52.2656183 52.9140625,53.609375 L52.9140625,54.375 L47.390625,54.375 C47.447917,55.0729202 47.6809875,55.624998 48.0898438,56.03125 C48.4987,56.437502 49.0130177,56.640625 49.6328125,56.640625 C50.5026085,56.640625 51.2109348,56.289066 51.7578125,55.5859375 L52.78125,56.5625 C52.4427066,57.0677109 51.9908882,57.459634 51.4257812,57.7382812 C50.8606743,58.0169285 50.226566,58.15625 49.5234375,58.15625 Z M49.296875,50.9140625 C48.7760391,50.9140625 48.3554704,51.0963523 48.0351562,51.4609375 C47.7148421,51.8255227 47.5104171,52.3333301 47.421875,52.984375 L51.0390625,52.984375 L51.0390625,52.84375 C50.9973956,52.2083302 50.8281265,51.7278662 50.53125,51.4023438 C50.2343735,51.0768213 49.8229193,50.9140625 49.296875,50.9140625 Z M59.4375,58 C59.3541662,57.8385409 59.2812503,57.5755227 59.21875,57.2109375 C58.6145803,57.841149 57.8750044,58.15625 57,58.15625 C56.1510374,58.15625 55.458336,57.9140649 54.921875,57.4296875 C54.385414,56.9453101 54.1171875,56.3463577 54.1171875,55.6328125 C54.1171875,54.7317663 54.4518196,54.040367 55.1210938,53.5585938 C55.7903679,53.0768205 56.7473896,52.8359375 57.9921875,52.8359375 L59.15625,52.8359375 L59.15625,52.28125 C59.15625,51.8437478 59.0338554,51.4934909 58.7890625,51.2304688 C58.5442696,50.9674466 58.1718775,50.8359375 57.671875,50.8359375 C57.2395812,50.8359375 56.885418,50.9440093 56.609375,51.1601562 C56.333332,51.3763032 56.1953125,51.65104 56.1953125,51.984375 L54.296875,51.984375 C54.296875,51.520831 54.4505193,51.0872416 54.7578125,50.6835938 C55.0651057,50.2799459 55.4830703,49.9635428 56.0117188,49.734375 C56.5403672,49.5052072 57.1302051,49.390625 57.78125,49.390625 C58.7708383,49.390625 59.5598929,49.6393204 60.1484375,50.1367188 C60.7369821,50.6341171 61.0390624,51.3333288 61.0546875,52.234375 L61.0546875,56.046875 C61.0546875,56.8072955 61.1614573,57.4140602 61.375,57.8671875 L61.375,58 L59.4375,58 Z M57.3515625,56.6328125 C57.7265644,56.6328125 58.0794254,56.5416676 58.4101562,56.359375 C58.7408871,56.1770824 58.9895825,55.9322932 59.15625,55.625 L59.15625,54.03125 L58.1328125,54.03125 C57.429684,54.03125 56.9010434,54.1536446 56.546875,54.3984375 C56.1927066,54.6432304 56.015625,54.9895811 56.015625,55.4375 C56.015625,55.8020852 56.1367175,56.0924468 56.3789062,56.3085938 C56.621095,56.5247407 56.9453105,56.6328125 57.3515625,56.6328125 Z M62.6875,53.7109375 C62.6875,52.4088477 62.9895803,51.3632852 63.59375,50.5742188 C64.1979197,49.7851523 65.0078074,49.390625 66.0234375,49.390625 C66.9192753,49.390625 67.6432264,49.7031219 68.1953125,50.328125 L68.1953125,46 L70.09375,46 L70.09375,58 L68.375,58 L68.28125,57.125 C67.7135388,57.8125034 66.9557339,58.15625 66.0078125,58.15625 C65.0182242,58.15625 64.217451,57.7578165 63.6054688,56.9609375 C62.9934865,56.1640585 62.6875,55.080736 62.6875,53.7109375 Z M64.5859375,53.875 C64.5859375,54.7343793 64.7513004,55.4049455 65.0820312,55.8867188 C65.4127621,56.368492 65.8828095,56.609375 66.4921875,56.609375 C67.268233,56.609375 67.8359357,56.2630243 68.1953125,55.5703125 L68.1953125,51.9609375 C67.8463524,51.2838508 67.283858,50.9453125 66.5078125,50.9453125 C65.8932261,50.9453125 65.4192725,51.1887996 65.0859375,51.6757812 C64.7526025,52.1627629 64.5859375,52.8958284 64.5859375,53.875 Z M78.8046875,46.625 L82.0859375,55.34375 L85.359375,46.625 L87.9140625,46.625 L87.9140625,58 L85.9453125,58 L85.9453125,54.25 L86.140625,49.234375 L82.78125,58 L81.3671875,58 L78.015625,49.2421875 L78.2109375,54.25 L78.2109375,58 L76.2421875,58 L76.2421875,46.625 L78.8046875,46.625 Z M89.7109375,53.6953125 C89.7109375,52.8671834 89.8749984,52.1210971 90.203125,51.4570312 C90.5312516,50.7929654 90.9921845,50.2825539 91.5859375,49.9257812 C92.1796905,49.5690086 92.8619753,49.390625 93.6328125,49.390625 C94.7734432,49.390625 95.6992152,49.7578088 96.4101562,50.4921875 C97.1210973,51.2265662 97.505208,52.2005148 97.5625,53.4140625 L97.5703125,53.859375 C97.5703125,54.6927125 97.4101579,55.4374967 97.0898438,56.09375 C96.7695296,56.7500033 96.3112009,57.2578107 95.7148438,57.6171875 C95.1184866,57.9765643 94.4296914,58.15625 93.6484375,58.15625 C92.4557232,58.15625 91.5013057,57.7591186 90.7851562,56.9648438 C90.0690068,56.1705689 89.7109375,55.1119858 89.7109375,53.7890625 L89.7109375,53.6953125 Z M91.609375,53.859375 C91.609375,54.729171 91.7890607,55.4101538 92.1484375,55.9023438 C92.5078143,56.3945337 93.0078093,56.640625 93.6484375,56.640625 C94.2890657,56.640625 94.7877586,56.3906275 95.1445312,55.890625 C95.5013039,55.3906225 95.6796875,54.658859 95.6796875,53.6953125 C95.6796875,52.8411416 95.4960956,52.164065 95.1289062,51.6640625 C94.7617169,51.16406 94.263024,50.9140625 93.6328125,50.9140625 C93.0130177,50.9140625 92.5208352,51.1601538 92.15625,51.6523438 C91.7916648,52.1445337 91.609375,52.8802034 91.609375,53.859375 Z M103.601562,51.28125 C103.351561,51.2395831 103.093751,51.21875 102.828125,51.21875 C101.958329,51.21875 101.372397,51.55208 101.070312,52.21875 L101.070312,58 L99.171875,58 L99.171875,49.546875 L100.984375,49.546875 L101.03125,50.4921875 C101.489586,49.7578088 102.124996,49.390625 102.9375,49.390625 C103.208335,49.390625 103.432291,49.427083 103.609375,49.5 L103.601562,51.28125 Z M108.375,58.15625 C107.171869,58.15625 106.196618,57.7773475 105.449219,57.0195312 C104.701819,56.261715 104.328125,55.2526105 104.328125,53.9921875 L104.328125,53.7578125 C104.328125,52.9140583 104.490884,52.1601596 104.816406,51.4960938 C105.141929,50.8320279 105.598955,50.315106 106.1875,49.9453125 C106.776045,49.575519 107.432288,49.390625 108.15625,49.390625 C109.307297,49.390625 110.196611,49.7578088 110.824219,50.4921875 C111.451826,51.2265662 111.765625,52.2656183 111.765625,53.609375 L111.765625,54.375 L106.242188,54.375 C106.299479,55.0729202 106.53255,55.624998 106.941406,56.03125 C107.350262,56.437502 107.86458,56.640625 108.484375,56.640625 C109.354171,56.640625 110.062497,56.289066 110.609375,55.5859375 L111.632812,56.5625 C111.294269,57.0677109 110.842451,57.459634 110.277344,57.7382812 C109.712237,58.0169285 109.078129,58.15625 108.375,58.15625 Z M108.148438,50.9140625 C107.627602,50.9140625 107.207033,51.0963523 106.886719,51.4609375 C106.566405,51.8255227 106.36198,52.3333301 106.273438,52.984375 L109.890625,52.984375 L109.890625,52.84375 C109.848958,52.2083302 109.679689,51.7278662 109.382812,51.4023438 C109.085936,51.0768213 108.674482,50.9140625 108.148438,50.9140625 Z" id="Article-Read-More" fill="#5D6B82"></path>
    </g>
</svg>