<?xml version="1.0" encoding="UTF-8"?>
<svg width="148px" height="80px" viewBox="0 0 148 80" version="1.1" xmlns="http://www.w3.org/2000/svg" xmlns:xlink="http://www.w3.org/1999/xlink">
    <!-- Generator: Sketch 50.2 (55047) - http://www.bohemiancoding.com/sketch -->
    <title>Article list 5</title>
    <desc>Created with Sketch.</desc>
    <defs></defs>
    <g id="Article-list-5" stroke="none" stroke-width="1" fill="none" fill-rule="evenodd">
        <rect id="Rectangle-4" fill="#D1D5DB" x="0" y="0" width="148" height="80" rx="2"></rect>
        <rect id="Rectangle-3" fill="#FAFBFB" x="1" y="1" width="146" height="78" rx="1"></rect>
        <g id="Group" transform="translate(45.000000, 10.000000)">
            <g id="Group-Copy">
                <g id="1-copy" fill-rule="nonzero">
                    <polygon id="Shape" fill="#D2D8DE" points="0 0 12 0 12 12 0 12"></polygon>
                    <path d="M3.71886006,3.21405419 C3.87006609,3.34741185 4.06825038,3.42857143 4.2856301,3.42857143 C4.50284143,3.42857143 4.7011941,3.34741185 4.85240013,3.21422257 C5.03037872,3.05729159 5.14285714,2.82762008 5.14285714,2.57151276 C5.14285714,2.49742518 5.13359619,2.42569492 5.1159162,2.3571639 C5.02078101,1.9873995 4.68519792,1.71428571 4.28579848,1.71428571 C3.88639903,1.71428571 3.55064756,1.98723112 3.45551237,2.35699552 C3.43783238,2.42552654 3.42857143,2.49725679 3.42857143,2.57134438 C3.42857143,2.82728331 3.54088147,3.05712321 3.71886006,3.21422257 L3.71886006,3.21405419 Z" id="Shape" fill="#FFFFFF"></path>
                    <path d="M10.362402,7.2141429 L9.7484657,6.64000842 L9.54382027,6.44848995 L9.30398103,6.22435021 C9.1440882,6.07492371 8.93466336,6 8.72502127,6 C8.51537918,6 8.3057371,6.07492371 8.14606152,6.22456067 L7.90622228,6.44870041 L7.70157684,6.64021888 L7.08742329,7.21477428 L6.88277785,7.40587183 L6.26884154,7.98042723 L6.06376161,8.17152478 L5.4498253,8.74608019 L5.24496262,8.93759865 L5.14285714,9.03314743 L8.31551315,12 L12,12 L12,8.74565927 L11.1809838,7.98000631 L10.5672647,7.40545091 L10.362402,7.21393244 L10.362402,7.2141429 Z" id="Shape" fill="#717F8E"></path>
                    <path d="M5.40820586,9.27126956 L5.30613247,9.18307789 L4.89783892,8.83111295 L4.48954537,8.47894758 L4.08167274,8.12678221 L3.84258951,7.92033352 C3.76934922,7.85739674 3.6855859,7.80889132 3.59635061,7.77481727 C3.49112032,7.73473015 3.37831344,7.71428571 3.2652961,7.71428571 C3.15248922,7.71428571 3.03968234,7.73432928 2.93487297,7.77481727 C2.84521676,7.80889132 2.76145344,7.85739674 2.68821315,7.92053396 L2.44891946,8.12698264 L2.04062591,8.47894758 L1.63233236,8.83111295 L1.22445973,9.18307789 L0.81616618,9.53524326 L0,10.239574 L0,12 L8.57142857,12 L5.40820586,9.27126956 Z" id="Shape" fill="#919DA9"></path>
                </g>
                <rect id="Rectangle-9-Copy" fill="#5D6B82" x="14" y="0" width="20" height="2"></rect>
                <rect id="Rectangle-7-Copy-3" fill="#D1D5DB" x="14" y="4" width="36" height="2"></rect>
                <rect id="Rectangle-7-Copy-6" fill="#D1D5DB" x="14" y="10" width="28" height="2"></rect>
                <rect id="Rectangle-7-Copy-4" fill="#D1D5DB" x="14" y="7" width="44" height="2"></rect>
            </g>
            <g id="Group-2-Copy" transform="translate(0.000000, 16.000000)">
                <rect id="Rectangle-9-Copy-3" fill="#5D6B82" x="14" y="0" width="20" height="2"></rect>
                <rect id="Rectangle-7-Copy-7" fill="#D1D5DB" x="14" y="4" width="36" height="2"></rect>
                <rect id="Rectangle-7-Copy-8" fill="#D1D5DB" x="14" y="10" width="28" height="2"></rect>
                <rect id="Rectangle-7-Copy-9" fill="#D1D5DB" x="14" y="7" width="44" height="2"></rect>
                <g id="1-copy" fill-rule="nonzero">
                    <polygon id="Shape" fill="#D2D8DE" points="0 0 12 0 12 12 0 12"></polygon>
                    <path d="M3.71886006,3.21405419 C3.87006609,3.34741185 4.06825038,3.42857143 4.2856301,3.42857143 C4.50284143,3.42857143 4.7011941,3.34741185 4.85240013,3.21422257 C5.03037872,3.05729159 5.14285714,2.82762008 5.14285714,2.57151276 C5.14285714,2.49742518 5.13359619,2.42569492 5.1159162,2.3571639 C5.02078101,1.9873995 4.68519792,1.71428571 4.28579848,1.71428571 C3.88639903,1.71428571 3.55064756,1.98723112 3.45551237,2.35699552 C3.43783238,2.42552654 3.42857143,2.49725679 3.42857143,2.57134438 C3.42857143,2.82728331 3.54088147,3.05712321 3.71886006,3.21422257 L3.71886006,3.21405419 Z" id="Shape" fill="#FFFFFF"></path>
                    <path d="M10.362402,7.2141429 L9.7484657,6.64000842 L9.54382027,6.44848995 L9.30398103,6.22435021 C9.1440882,6.07492371 8.93466336,6 8.72502127,6 C8.51537918,6 8.3057371,6.07492371 8.14606152,6.22456067 L7.90622228,6.44870041 L7.70157684,6.64021888 L7.08742329,7.21477428 L6.88277785,7.40587183 L6.26884154,7.98042723 L6.06376161,8.17152478 L5.4498253,8.74608019 L5.24496262,8.93759865 L5.14285714,9.03314743 L8.31551315,12 L12,12 L12,8.74565927 L11.1809838,7.98000631 L10.5672647,7.40545091 L10.362402,7.21393244 L10.362402,7.2141429 Z" id="Shape" fill="#717F8E"></path>
                    <path d="M5.40820586,9.27126956 L5.30613247,9.18307789 L4.89783892,8.83111295 L4.48954537,8.47894758 L4.08167274,8.12678221 L3.84258951,7.92033352 C3.76934922,7.85739674 3.6855859,7.80889132 3.59635061,7.77481727 C3.49112032,7.73473015 3.37831344,7.71428571 3.2652961,7.71428571 C3.15248922,7.71428571 3.03968234,7.73432928 2.93487297,7.77481727 C2.84521676,7.80889132 2.76145344,7.85739674 2.68821315,7.92053396 L2.44891946,8.12698264 L2.04062591,8.47894758 L1.63233236,8.83111295 L1.22445973,9.18307789 L0.81616618,9.53524326 L0,10.239574 L0,12 L8.57142857,12 L5.40820586,9.27126956 Z" id="Shape" fill="#919DA9"></path>
                </g>
            </g>
            <g id="Group-3-Copy" transform="translate(0.000000, 32.000000)">
                <rect id="Rectangle-9-Copy-4" fill="#5D6B82" x="14" y="0" width="20" height="2"></rect>
                <rect id="Rectangle-7-Copy-10" fill="#D1D5DB" x="14" y="4" width="36" height="2"></rect>
                <rect id="Rectangle-7-Copy-11" fill="#D1D5DB" x="14" y="10" width="28" height="2"></rect>
                <rect id="Rectangle-7-Copy-12" fill="#D1D5DB" x="14" y="7" width="44" height="2"></rect>
                <g id="1-copy" fill-rule="nonzero">
                    <polygon id="Shape" fill="#D2D8DE" points="0 0 12 0 12 12 0 12"></polygon>
                    <path d="M3.71886006,3.21405419 C3.87006609,3.34741185 4.06825038,3.42857143 4.2856301,3.42857143 C4.50284143,3.42857143 4.7011941,3.34741185 4.85240013,3.21422257 C5.03037872,3.05729159 5.14285714,2.82762008 5.14285714,2.57151276 C5.14285714,2.49742518 5.13359619,2.42569492 5.1159162,2.3571639 C5.02078101,1.9873995 4.68519792,1.71428571 4.28579848,1.71428571 C3.88639903,1.71428571 3.55064756,1.98723112 3.45551237,2.35699552 C3.43783238,2.42552654 3.42857143,2.49725679 3.42857143,2.57134438 C3.42857143,2.82728331 3.54088147,3.05712321 3.71886006,3.21422257 L3.71886006,3.21405419 Z" id="Shape" fill="#FFFFFF"></path>
                    <path d="M10.362402,7.2141429 L9.7484657,6.64000842 L9.54382027,6.44848995 L9.30398103,6.22435021 C9.1440882,6.07492371 8.93466336,6 8.72502127,6 C8.51537918,6 8.3057371,6.07492371 8.14606152,6.22456067 L7.90622228,6.44870041 L7.70157684,6.64021888 L7.08742329,7.21477428 L6.88277785,7.40587183 L6.26884154,7.98042723 L6.06376161,8.17152478 L5.4498253,8.74608019 L5.24496262,8.93759865 L5.14285714,9.03314743 L8.31551315,12 L12,12 L12,8.74565927 L11.1809838,7.98000631 L10.5672647,7.40545091 L10.362402,7.21393244 L10.362402,7.2141429 Z" id="Shape" fill="#717F8E"></path>
                    <path d="M5.40820586,9.27126956 L5.30613247,9.18307789 L4.89783892,8.83111295 L4.48954537,8.47894758 L4.08167274,8.12678221 L3.84258951,7.92033352 C3.76934922,7.85739674 3.6855859,7.80889132 3.59635061,7.77481727 C3.49112032,7.73473015 3.37831344,7.71428571 3.2652961,7.71428571 C3.15248922,7.71428571 3.03968234,7.73432928 2.93487297,7.77481727 C2.84521676,7.80889132 2.76145344,7.85739674 2.68821315,7.92053396 L2.44891946,8.12698264 L2.04062591,8.47894758 L1.63233236,8.83111295 L1.22445973,9.18307789 L0.81616618,9.53524326 L0,10.239574 L0,12 L8.57142857,12 L5.40820586,9.27126956 Z" id="Shape" fill="#919DA9"></path>
                </g>
            </g>
            <g id="Group-4-Copy" transform="translate(0.000000, 48.000000)">
                <rect id="Rectangle-9-Copy-5" fill="#5D6B82" x="14" y="0" width="20" height="2"></rect>
                <rect id="Rectangle-7-Copy-13" fill="#D1D5DB" x="14" y="4" width="36" height="2"></rect>
                <rect id="Rectangle-7-Copy-14" fill="#D1D5DB" x="14" y="10" width="28" height="2"></rect>
                <rect id="Rectangle-7-Copy-15" fill="#D1D5DB" x="14" y="7" width="44" height="2"></rect>
                <g id="1-copy" fill-rule="nonzero">
                    <polygon id="Shape" fill="#D2D8DE" points="0 0 12 0 12 12 0 12"></polygon>
                    <path d="M3.71886006,3.21405419 C3.87006609,3.34741185 4.06825038,3.42857143 4.2856301,3.42857143 C4.50284143,3.42857143 4.7011941,3.34741185 4.85240013,3.21422257 C5.03037872,3.05729159 5.14285714,2.82762008 5.14285714,2.57151276 C5.14285714,2.49742518 5.13359619,2.42569492 5.1159162,2.3571639 C5.02078101,1.9873995 4.68519792,1.71428571 4.28579848,1.71428571 C3.88639903,1.71428571 3.55064756,1.98723112 3.45551237,2.35699552 C3.43783238,2.42552654 3.42857143,2.49725679 3.42857143,2.57134438 C3.42857143,2.82728331 3.54088147,3.05712321 3.71886006,3.21422257 L3.71886006,3.21405419 Z" id="Shape" fill="#FFFFFF"></path>
                    <path d="M10.362402,7.2141429 L9.7484657,6.64000842 L9.54382027,6.44848995 L9.30398103,6.22435021 C9.1440882,6.07492371 8.93466336,6 8.72502127,6 C8.51537918,6 8.3057371,6.07492371 8.14606152,6.22456067 L7.90622228,6.44870041 L7.70157684,6.64021888 L7.08742329,7.21477428 L6.88277785,7.40587183 L6.26884154,7.98042723 L6.06376161,8.17152478 L5.4498253,8.74608019 L5.24496262,8.93759865 L5.14285714,9.03314743 L8.31551315,12 L12,12 L12,8.74565927 L11.1809838,7.98000631 L10.5672647,7.40545091 L10.362402,7.21393244 L10.362402,7.2141429 Z" id="Shape" fill="#717F8E"></path>
                    <path d="M5.40820586,9.27126956 L5.30613247,9.18307789 L4.89783892,8.83111295 L4.48954537,8.47894758 L4.08167274,8.12678221 L3.84258951,7.92033352 C3.76934922,7.85739674 3.6855859,7.80889132 3.59635061,7.77481727 C3.49112032,7.73473015 3.37831344,7.71428571 3.2652961,7.71428571 C3.15248922,7.71428571 3.03968234,7.73432928 2.93487297,7.77481727 C2.84521676,7.80889132 2.76145344,7.85739674 2.68821315,7.92053396 L2.44891946,8.12698264 L2.04062591,8.47894758 L1.63233236,8.83111295 L1.22445973,9.18307789 L0.81616618,9.53524326 L0,10.239574 L0,12 L8.57142857,12 L5.40820586,9.27126956 Z" id="Shape" fill="#919DA9"></path>
                </g>
            </g>
        </g>
    </g>
</svg>