<?xml version="1.0" encoding="UTF-8"?>
<svg width="148px" height="80px" viewBox="0 0 148 80" version="1.1" xmlns="http://www.w3.org/2000/svg" xmlns:xlink="http://www.w3.org/1999/xlink">
    <!-- Generator: Sketch 50.2 (55047) - http://www.bohemiancoding.com/sketch -->
    <title>Article list 6</title>
    <desc>Created with Sketch.</desc>
    <defs></defs>
    <g id="Article-list-6" stroke="none" stroke-width="1" fill="none" fill-rule="evenodd">
        <rect id="Rectangle-4" fill="#D1D5DB" x="0" y="0" width="148" height="80" rx="2"></rect>
        <rect id="Rectangle-3" fill="#FAFBFB" x="1" y="1" width="146" height="78" rx="1"></rect>
        <g id="Group" transform="translate(73.000000, 10.000000)">
            <g id="1-copy" fill-rule="nonzero">
                <polygon id="Shape" fill="#D2D8DE" points="0 0 12 0 12 12 0 12"></polygon>
                <path d="M3.71886006,3.21405419 C3.87006609,3.34741185 4.06825038,3.42857143 4.2856301,3.42857143 C4.50284143,3.42857143 4.7011941,3.34741185 4.85240013,3.21422257 C5.03037872,3.05729159 5.14285714,2.82762008 5.14285714,2.57151276 C5.14285714,2.49742518 5.13359619,2.42569492 5.1159162,2.3571639 C5.02078101,1.9873995 4.68519792,1.71428571 4.28579848,1.71428571 C3.88639903,1.71428571 3.55064756,1.98723112 3.45551237,2.35699552 C3.43783238,2.42552654 3.42857143,2.49725679 3.42857143,2.57134438 C3.42857143,2.82728331 3.54088147,3.05712321 3.71886006,3.21422257 L3.71886006,3.21405419 Z" id="Shape" fill="#FFFFFF"></path>
                <path d="M10.362402,7.2141429 L9.7484657,6.64000842 L9.54382027,6.44848995 L9.30398103,6.22435021 C9.1440882,6.07492371 8.93466336,6 8.72502127,6 C8.51537918,6 8.3057371,6.07492371 8.14606152,6.22456067 L7.90622228,6.44870041 L7.70157684,6.64021888 L7.08742329,7.21477428 L6.88277785,7.40587183 L6.26884154,7.98042723 L6.06376161,8.17152478 L5.4498253,8.74608019 L5.24496262,8.93759865 L5.14285714,9.03314743 L8.31551315,12 L12,12 L12,8.74565927 L11.1809838,7.98000631 L10.5672647,7.40545091 L10.362402,7.21393244 L10.362402,7.2141429 Z" id="Shape" fill="#717F8E"></path>
                <path d="M5.40820586,9.27126956 L5.30613247,9.18307789 L4.89783892,8.83111295 L4.48954537,8.47894758 L4.08167274,8.12678221 L3.84258951,7.92033352 C3.76934922,7.85739674 3.6855859,7.80889132 3.59635061,7.77481727 C3.49112032,7.73473015 3.37831344,7.71428571 3.2652961,7.71428571 C3.15248922,7.71428571 3.03968234,7.73432928 2.93487297,7.77481727 C2.84521676,7.80889132 2.76145344,7.85739674 2.68821315,7.92053396 L2.44891946,8.12698264 L2.04062591,8.47894758 L1.63233236,8.83111295 L1.22445973,9.18307789 L0.81616618,9.53524326 L0,10.239574 L0,12 L8.57142857,12 L5.40820586,9.27126956 Z" id="Shape" fill="#919DA9"></path>
            </g>
            <rect id="Rectangle-9-Copy" fill="#5D6B82" x="14" y="0" width="20" height="2"></rect>
            <rect id="Rectangle-7-Copy-3" fill="#D1D5DB" x="14" y="4" width="36" height="2"></rect>
            <rect id="Rectangle-7-Copy-6" fill="#D1D5DB" x="14" y="10" width="28" height="2"></rect>
            <rect id="Rectangle-7-Copy-4" fill="#D1D5DB" x="14" y="7" width="44" height="2"></rect>
        </g>
        <g id="Group-2" transform="translate(73.000000, 26.000000)">
            <rect id="Rectangle-9-Copy-3" fill="#5D6B82" x="14" y="0" width="20" height="2"></rect>
            <rect id="Rectangle-7-Copy-7" fill="#D1D5DB" x="14" y="4" width="36" height="2"></rect>
            <rect id="Rectangle-7-Copy-8" fill="#D1D5DB" x="14" y="10" width="28" height="2"></rect>
            <rect id="Rectangle-7-Copy-9" fill="#D1D5DB" x="14" y="7" width="44" height="2"></rect>
            <g id="1-copy" fill-rule="nonzero">
                <polygon id="Shape" fill="#D2D8DE" points="0 0 12 0 12 12 0 12"></polygon>
                <path d="M3.71886006,3.21405419 C3.87006609,3.34741185 4.06825038,3.42857143 4.2856301,3.42857143 C4.50284143,3.42857143 4.7011941,3.34741185 4.85240013,3.21422257 C5.03037872,3.05729159 5.14285714,2.82762008 5.14285714,2.57151276 C5.14285714,2.49742518 5.13359619,2.42569492 5.1159162,2.3571639 C5.02078101,1.9873995 4.68519792,1.71428571 4.28579848,1.71428571 C3.88639903,1.71428571 3.55064756,1.98723112 3.45551237,2.35699552 C3.43783238,2.42552654 3.42857143,2.49725679 3.42857143,2.57134438 C3.42857143,2.82728331 3.54088147,3.05712321 3.71886006,3.21422257 L3.71886006,3.21405419 Z" id="Shape" fill="#FFFFFF"></path>
                <path d="M10.362402,7.2141429 L9.7484657,6.64000842 L9.54382027,6.44848995 L9.30398103,6.22435021 C9.1440882,6.07492371 8.93466336,6 8.72502127,6 C8.51537918,6 8.3057371,6.07492371 8.14606152,6.22456067 L7.90622228,6.44870041 L7.70157684,6.64021888 L7.08742329,7.21477428 L6.88277785,7.40587183 L6.26884154,7.98042723 L6.06376161,8.17152478 L5.4498253,8.74608019 L5.24496262,8.93759865 L5.14285714,9.03314743 L8.31551315,12 L12,12 L12,8.74565927 L11.1809838,7.98000631 L10.5672647,7.40545091 L10.362402,7.21393244 L10.362402,7.2141429 Z" id="Shape" fill="#717F8E"></path>
                <path d="M5.40820586,9.27126956 L5.30613247,9.18307789 L4.89783892,8.83111295 L4.48954537,8.47894758 L4.08167274,8.12678221 L3.84258951,7.92033352 C3.76934922,7.85739674 3.6855859,7.80889132 3.59635061,7.77481727 C3.49112032,7.73473015 3.37831344,7.71428571 3.2652961,7.71428571 C3.15248922,7.71428571 3.03968234,7.73432928 2.93487297,7.77481727 C2.84521676,7.80889132 2.76145344,7.85739674 2.68821315,7.92053396 L2.44891946,8.12698264 L2.04062591,8.47894758 L1.63233236,8.83111295 L1.22445973,9.18307789 L0.81616618,9.53524326 L0,10.239574 L0,12 L8.57142857,12 L5.40820586,9.27126956 Z" id="Shape" fill="#919DA9"></path>
            </g>
        </g>
        <g id="Group-3" transform="translate(73.000000, 42.000000)">
            <rect id="Rectangle-9-Copy-4" fill="#5D6B82" x="14" y="0" width="20" height="2"></rect>
            <rect id="Rectangle-7-Copy-10" fill="#D1D5DB" x="14" y="4" width="36" height="2"></rect>
            <rect id="Rectangle-7-Copy-11" fill="#D1D5DB" x="14" y="10" width="28" height="2"></rect>
            <rect id="Rectangle-7-Copy-12" fill="#D1D5DB" x="14" y="7" width="44" height="2"></rect>
            <g id="1-copy" fill-rule="nonzero">
                <polygon id="Shape" fill="#D2D8DE" points="0 0 12 0 12 12 0 12"></polygon>
                <path d="M3.71886006,3.21405419 C3.87006609,3.34741185 4.06825038,3.42857143 4.2856301,3.42857143 C4.50284143,3.42857143 4.7011941,3.34741185 4.85240013,3.21422257 C5.03037872,3.05729159 5.14285714,2.82762008 5.14285714,2.57151276 C5.14285714,2.49742518 5.13359619,2.42569492 5.1159162,2.3571639 C5.02078101,1.9873995 4.68519792,1.71428571 4.28579848,1.71428571 C3.88639903,1.71428571 3.55064756,1.98723112 3.45551237,2.35699552 C3.43783238,2.42552654 3.42857143,2.49725679 3.42857143,2.57134438 C3.42857143,2.82728331 3.54088147,3.05712321 3.71886006,3.21422257 L3.71886006,3.21405419 Z" id="Shape" fill="#FFFFFF"></path>
                <path d="M10.362402,7.2141429 L9.7484657,6.64000842 L9.54382027,6.44848995 L9.30398103,6.22435021 C9.1440882,6.07492371 8.93466336,6 8.72502127,6 C8.51537918,6 8.3057371,6.07492371 8.14606152,6.22456067 L7.90622228,6.44870041 L7.70157684,6.64021888 L7.08742329,7.21477428 L6.88277785,7.40587183 L6.26884154,7.98042723 L6.06376161,8.17152478 L5.4498253,8.74608019 L5.24496262,8.93759865 L5.14285714,9.03314743 L8.31551315,12 L12,12 L12,8.74565927 L11.1809838,7.98000631 L10.5672647,7.40545091 L10.362402,7.21393244 L10.362402,7.2141429 Z" id="Shape" fill="#717F8E"></path>
                <path d="M5.40820586,9.27126956 L5.30613247,9.18307789 L4.89783892,8.83111295 L4.48954537,8.47894758 L4.08167274,8.12678221 L3.84258951,7.92033352 C3.76934922,7.85739674 3.6855859,7.80889132 3.59635061,7.77481727 C3.49112032,7.73473015 3.37831344,7.71428571 3.2652961,7.71428571 C3.15248922,7.71428571 3.03968234,7.73432928 2.93487297,7.77481727 C2.84521676,7.80889132 2.76145344,7.85739674 2.68821315,7.92053396 L2.44891946,8.12698264 L2.04062591,8.47894758 L1.63233236,8.83111295 L1.22445973,9.18307789 L0.81616618,9.53524326 L0,10.239574 L0,12 L8.57142857,12 L5.40820586,9.27126956 Z" id="Shape" fill="#919DA9"></path>
            </g>
        </g>
        <g id="Group-5" transform="translate(17.000000, 10.000000)">
            <g id="1-copy-2" fill-rule="nonzero">
                <polygon id="Shape" fill="#D2D8DE" points="0 0 52 0 52 52 0 52"></polygon>
                <path d="M16.1853453,13.1240546 C16.8027699,13.6685984 17.6120224,14 18.4996562,14 C19.3866025,14 20.1965426,13.6685984 20.8139672,13.1247422 C21.5407131,12.4839407 22,11.5461153 22,10.5003438 C22,10.1978195 21.9621845,9.90492093 21.8899912,9.62508594 C21.5015224,8.11521462 20.1312248,7 18.5003438,7 C16.8694627,7 15.4984776,8.11452706 15.1100088,9.62439839 C15.0378155,9.90423338 15,10.1971319 15,10.4996562 C15,11.5447402 15.4585994,12.4832531 16.1853453,13.1247422 L16.1853453,13.1240546 Z" id="Shape" fill="#FFFFFF"></path>
                <path d="M44.8355088,31.2612859 L42.1495374,28.7733698 L41.2542137,27.9434565 L40.204917,26.9721842 C39.5053859,26.3246694 38.5891522,26 37.6719681,26 C36.7547839,26 35.8375998,26.3246694 35.1390191,26.9730962 L34.0897225,27.9443684 L33.1943987,28.7742818 L30.5074769,31.2640219 L29.6121531,32.0921113 L26.9261817,34.5818513 L26.028957,35.4099407 L23.3429857,37.8996808 L22.4467114,38.7295942 L22,39.1436389 L35.88037,52 L52,52 L52,37.8978568 L48.416804,34.5800274 L45.731783,32.0902873 L44.8355088,31.2603739 L44.8355088,31.2612859 Z" id="Shape" fill="#717F8E"></path>
                <path d="M23.345422,39.9026284 L22.9048052,39.5116453 L21.142338,37.9512674 L19.3798708,36.3900009 L17.6192207,34.8287344 L16.587178,33.9134786 C16.2710241,33.6344589 15.9094458,33.4194182 15.5242468,33.2683566 C15.0700027,33.090637 14.583053,33 14.0951948,33 C13.6082451,33 13.1212955,33.0888598 12.6688683,33.2683566 C12.2818523,33.4194182 11.920274,33.6344589 11.6041201,33.9143672 L10.571169,34.829623 L8.80870184,36.3900009 L7.04623468,37.9512674 L5.2855845,39.5116453 L3.52311734,41.0729118 L0,44.1954448 L0,52 L37,52 L23.345422,39.9026284 Z" id="Shape" fill="#919DA9"></path>
            </g>
            <rect id="Rectangle-9-Copy-2" fill="#5D6B82" x="0" y="55" width="24" height="2"></rect>
            <rect id="Rectangle-7-Copy-5" fill="#D1D5DB" x="0" y="58" width="44" height="2"></rect>
        </g>
        <g id="Group-4" transform="translate(73.000000, 58.000000)">
            <rect id="Rectangle-9-Copy-5" fill="#5D6B82" x="14" y="0" width="20" height="2"></rect>
            <rect id="Rectangle-7-Copy-13" fill="#D1D5DB" x="14" y="4" width="36" height="2"></rect>
            <rect id="Rectangle-7-Copy-14" fill="#D1D5DB" x="14" y="10" width="28" height="2"></rect>
            <rect id="Rectangle-7-Copy-15" fill="#D1D5DB" x="14" y="7" width="44" height="2"></rect>
            <g id="1-copy" fill-rule="nonzero">
                <polygon id="Shape" fill="#D2D8DE" points="0 0 12 0 12 12 0 12"></polygon>
                <path d="M3.71886006,3.21405419 C3.87006609,3.34741185 4.06825038,3.42857143 4.2856301,3.42857143 C4.50284143,3.42857143 4.7011941,3.34741185 4.85240013,3.21422257 C5.03037872,3.05729159 5.14285714,2.82762008 5.14285714,2.57151276 C5.14285714,2.49742518 5.13359619,2.42569492 5.1159162,2.3571639 C5.02078101,1.9873995 4.68519792,1.71428571 4.28579848,1.71428571 C3.88639903,1.71428571 3.55064756,1.98723112 3.45551237,2.35699552 C3.43783238,2.42552654 3.42857143,2.49725679 3.42857143,2.57134438 C3.42857143,2.82728331 3.54088147,3.05712321 3.71886006,3.21422257 L3.71886006,3.21405419 Z" id="Shape" fill="#FFFFFF"></path>
                <path d="M10.362402,7.2141429 L9.7484657,6.64000842 L9.54382027,6.44848995 L9.30398103,6.22435021 C9.1440882,6.07492371 8.93466336,6 8.72502127,6 C8.51537918,6 8.3057371,6.07492371 8.14606152,6.22456067 L7.90622228,6.44870041 L7.70157684,6.64021888 L7.08742329,7.21477428 L6.88277785,7.40587183 L6.26884154,7.98042723 L6.06376161,8.17152478 L5.4498253,8.74608019 L5.24496262,8.93759865 L5.14285714,9.03314743 L8.31551315,12 L12,12 L12,8.74565927 L11.1809838,7.98000631 L10.5672647,7.40545091 L10.362402,7.21393244 L10.362402,7.2141429 Z" id="Shape" fill="#717F8E"></path>
                <path d="M5.40820586,9.27126956 L5.30613247,9.18307789 L4.89783892,8.83111295 L4.48954537,8.47894758 L4.08167274,8.12678221 L3.84258951,7.92033352 C3.76934922,7.85739674 3.6855859,7.80889132 3.59635061,7.77481727 C3.49112032,7.73473015 3.37831344,7.71428571 3.2652961,7.71428571 C3.15248922,7.71428571 3.03968234,7.73432928 2.93487297,7.77481727 C2.84521676,7.80889132 2.76145344,7.85739674 2.68821315,7.92053396 L2.44891946,8.12698264 L2.04062591,8.47894758 L1.63233236,8.83111295 L1.22445973,9.18307789 L0.81616618,9.53524326 L0,10.239574 L0,12 L8.57142857,12 L5.40820586,9.27126956 Z" id="Shape" fill="#919DA9"></path>
            </g>
        </g>
    </g>
</svg>