<svg width="148" height="80" viewBox="0 0 148 80" fill="none" xmlns="http://www.w3.org/2000/svg">
<path d="M146 0H2C0.89543 0 0 0.89543 0 2V78C0 79.1046 0.89543 80 2 80H146C147.105 80 148 79.1046 148 78V2C148 0.89543 147.105 0 146 0Z" fill="#D1D5DB"/>
<path d="M146 1H2C1.44772 1 1 1.44772 1 2V78C1 78.5523 1.44772 79 2 79H146C146.552 79 147 78.5523 147 78V2C147 1.44772 146.552 1 146 1Z" fill="#FAFBFB"/>
<path d="M40 28H8V30H40V28Z" fill="#5D6B82"/>
<path d="M66 31H8V33H66V31Z" fill="#D1D5DB"/>
<path d="M8 36H20V48H8V36Z" fill="#D2D8DE"/>
<path d="M11.7189 39.2127C11.8701 39.346 12.0683 39.4272 12.2856 39.4272C12.5029 39.4272 12.7012 39.346 12.8524 39.2128C13.0304 39.0559 13.1429 38.8262 13.1429 38.5701C13.1429 38.496 13.1336 38.4243 13.1159 38.3558C13.0208 37.986 12.6852 37.7129 12.2858 37.7129C11.8864 37.7129 11.5507 37.9858 11.4555 38.3556C11.4378 38.4241 11.4286 38.4959 11.4286 38.5699C11.4286 38.8259 11.5409 39.0557 11.7189 39.2128V39.2127Z" fill="white"/>
<path d="M18.3625 43.2141L17.7485 42.64L17.5439 42.4485L17.3041 42.2243C17.1442 42.0749 16.9347 42 16.7251 42C16.5155 42 16.3058 42.0749 16.1461 42.2246L15.9063 42.4487L15.7017 42.6402L15.0875 43.2148L14.8829 43.4059L14.2689 43.9804L14.0638 44.1715L13.4499 44.7461L13.245 44.9376L13.1429 45.0331L16.3156 48H20.0001V44.7456L19.181 43.98L18.5673 43.4054L18.3625 43.2139V43.2141Z" fill="#717F8E"/>
<path d="M13.4082 45.2699L13.3061 45.1817L12.8978 44.8297L12.4895 44.4775L12.0817 44.1254L11.8426 43.9189C11.7693 43.856 11.6856 43.8075 11.5963 43.7734C11.4911 43.7333 11.3783 43.7129 11.2653 43.7129C11.1525 43.7129 11.0397 43.7329 10.9349 43.7734C10.8452 43.8075 10.7614 43.856 10.6882 43.9191L10.4489 44.1256L10.0406 44.4775L9.63233 44.8297L9.22446 45.1817L8.81616 45.5338L8 46.2382V47.9986H16.5714L13.4082 45.2699Z" fill="#919DA9"/>
<path d="M111 36H22V38H111V36Z" fill="#5D6B82"/>
<path d="M140 39H22V41H140V39Z" fill="#D1D5DB"/>
<path d="M126 42H22V44H126V42Z" fill="#D1D5DB"/>
<path d="M117 45H22V47H117V45Z" fill="#D1D5DB"/>
<path d="M8 50H20V62H8V50Z" fill="#D2D8DE"/>
<path d="M11.7189 53.2127C11.8701 53.346 12.0683 53.4272 12.2856 53.4272C12.5029 53.4272 12.7012 53.346 12.8524 53.2128C13.0304 53.0559 13.1429 52.8262 13.1429 52.5701C13.1429 52.496 13.1336 52.4243 13.1159 52.3558C13.0208 51.986 12.6852 51.7129 12.2858 51.7129C11.8864 51.7129 11.5507 51.9858 11.4555 52.3556C11.4378 52.4241 11.4286 52.4959 11.4286 52.5699C11.4286 52.8259 11.5409 53.0557 11.7189 53.2128V53.2127Z" fill="white"/>
<path d="M18.3625 57.2141L17.7485 56.64L17.5439 56.4485L17.3041 56.2243C17.1442 56.0749 16.9347 56 16.7251 56C16.5155 56 16.3058 56.0749 16.1461 56.2246L15.9063 56.4487L15.7017 56.6402L15.0875 57.2148L14.8829 57.4059L14.2689 57.9804L14.0638 58.1715L13.4499 58.7461L13.245 58.9376L13.1429 59.0331L16.3156 62H20.0001V58.7456L19.181 57.98L18.5673 57.4054L18.3625 57.2139V57.2141Z" fill="#717F8E"/>
<path d="M13.4082 59.2699L13.3061 59.1817L12.8978 58.8297L12.4895 58.4775L12.0817 58.1254L11.8426 57.9189C11.7693 57.856 11.6856 57.8075 11.5963 57.7734C11.4911 57.7333 11.3783 57.7129 11.2653 57.7129C11.1525 57.7129 11.0397 57.7329 10.9349 57.7734C10.8452 57.8075 10.7614 57.856 10.6882 57.9191L10.4489 58.1256L10.0406 58.4775L9.63233 58.8297L9.22446 59.1817L8.81616 59.5338L8 60.2382V61.9986H16.5714L13.4082 59.2699Z" fill="#919DA9"/>
<path d="M111 50H22V52H111V50Z" fill="#5D6B82"/>
<path d="M140 53H22V55H140V53Z" fill="#D1D5DB"/>
<path d="M126 56H22V58H126V56Z" fill="#D1D5DB"/>
<path d="M117 59H22V61H117V59Z" fill="#D1D5DB"/>
<path d="M8 64H20V76H8V64Z" fill="#D2D8DE"/>
<path d="M11.7189 67.2127C11.8701 67.346 12.0683 67.4272 12.2856 67.4272C12.5029 67.4272 12.7012 67.346 12.8524 67.2128C13.0304 67.0559 13.1429 66.8262 13.1429 66.5701C13.1429 66.496 13.1336 66.4243 13.1159 66.3558C13.0208 65.986 12.6852 65.7129 12.2858 65.7129C11.8864 65.7129 11.5507 65.9858 11.4555 66.3556C11.4378 66.4241 11.4286 66.4959 11.4286 66.5699C11.4286 66.8259 11.5409 67.0557 11.7189 67.2128V67.2127Z" fill="white"/>
<path d="M18.3625 71.2141L17.7485 70.64L17.5439 70.4485L17.3041 70.2243C17.1442 70.0749 16.9347 70 16.7251 70C16.5155 70 16.3058 70.0749 16.1461 70.2246L15.9063 70.4487L15.7017 70.6402L15.0875 71.2148L14.8829 71.4059L14.2689 71.9804L14.0638 72.1715L13.4499 72.7461L13.245 72.9376L13.1429 73.0331L16.3156 76H20.0001V72.7456L19.181 71.98L18.5673 71.4054L18.3625 71.2139V71.2141Z" fill="#717F8E"/>
<path d="M13.4082 73.2699L13.3061 73.1817L12.8978 72.8297L12.4895 72.4775L12.0817 72.1254L11.8426 71.9189C11.7693 71.856 11.6856 71.8075 11.5963 71.7734C11.4911 71.7333 11.3783 71.7129 11.2653 71.7129C11.1525 71.7129 11.0397 71.7329 10.9349 71.7734C10.8452 71.8075 10.7614 71.856 10.6882 71.9191L10.4489 72.1256L10.0406 72.4775L9.63233 72.8297L9.22446 73.1817L8.81616 73.5338L8 74.2382V75.9986H16.5714L13.4082 73.2699Z" fill="#919DA9"/>
<path d="M111 64H22V66H111V64Z" fill="#5D6B82"/>
<path d="M140 67H22V69H140V67Z" fill="#D1D5DB"/>
<path d="M126 70H22V72H126V70Z" fill="#D1D5DB"/>
<path d="M117 73H22V75H117V73Z" fill="#D1D5DB"/>
<path d="M140 6H8V26H140V6Z" fill="#D2D8DE"/>
<mask id="mask0" mask-type="alpha" maskUnits="userSpaceOnUse" x="8" y="6" width="132" height="20">
<path d="M140 6H8V26H140V6Z" fill="white"/>
</mask>
<g mask="url(#mask0)">
<path d="M140 6H8V26H140V6Z" fill="#D2D8DE"/>
<path d="M8 29.3743V19.444L31.5487 13.833C36.8524 12.9834 42.3444 13.1585 48.0247 14.3581C53.7049 15.5578 75.8178 20.5631 114.363 29.3743H8Z" fill="#919DA9"/>
<path d="M116.136 30.1027L72.0281 19.8778C85.6691 14.9028 96.4306 12.3197 104.313 12.1286C112.195 11.9374 124.09 11.8418 140 11.8418V30.1027H116.136Z" fill="#717F8E"/>
</g>
<path d="M78.2927 14.1822C79.7744 14.1822 80.9756 13.1646 80.9756 11.9094C80.9756 10.6543 79.7744 9.63672 78.2927 9.63672C76.8109 9.63672 75.6097 10.6543 75.6097 11.9094C75.6097 13.1646 76.8109 14.1822 78.2927 14.1822Z" fill="white"/>
</svg>
