<svg width="148" height="80" viewBox="0 0 148 80" fill="none" xmlns="http://www.w3.org/2000/svg">
<rect width="148" height="80" rx="2" fill="#D1D5DB"/>
<rect x="1" y="1" width="146" height="78" rx="1" fill="#FAFBFB"/>
<path fill-rule="evenodd" clip-rule="evenodd" d="M12 12H136V28H12V12ZM136 32H12V48H136V32ZM136 52H12V68H136V52ZM124.667 23.3335V16.6669C124.667 16.4249 124.798 16.2015 125.01 16.0835C125.222 15.9662 125.481 15.9729 125.687 16.1015L131.02 19.4349C131.215 19.5569 131.333 19.7702 131.333 20.0002C131.333 20.2302 131.215 20.4435 131.02 20.5655L125.687 23.8989C125.481 24.0275 125.222 24.0342 125.01 23.9169C124.798 23.7989 124.667 23.5755 124.667 23.3335ZM124.667 43.3335V36.6669C124.667 36.4249 124.798 36.2015 125.01 36.0835C125.222 35.9662 125.481 35.9729 125.687 36.1015L131.02 39.4349C131.215 39.5569 131.333 39.7702 131.333 40.0002C131.333 40.2302 131.215 40.4435 131.02 40.5655L125.687 43.8989C125.481 44.0275 125.222 44.0342 125.01 43.9169C124.798 43.7989 124.667 43.5755 124.667 43.3335ZM124.667 56.6669V63.3335C124.667 63.5755 124.798 63.7989 125.01 63.9169C125.222 64.0342 125.481 64.0275 125.687 63.8989L131.02 60.5655C131.215 60.4435 131.333 60.2302 131.333 60.0002C131.333 59.7702 131.215 59.5569 131.02 59.4349L125.687 56.1015C125.481 55.9729 125.222 55.9662 125.01 56.0835C124.798 56.2015 124.667 56.4249 124.667 56.6669Z" fill="#5D6B82"/>
</svg>
