<svg width="148" height="80" viewBox="0 0 148 80" fill="none" xmlns="http://www.w3.org/2000/svg">
<rect width="148" height="80" rx="2" fill="#D1D5DB"/>
<rect x="1" y="1" width="146" height="78" rx="1" fill="#FAFBFB"/>
<path fill-rule="evenodd" clip-rule="evenodd" d="M12 12H136V28H12V12ZM136 32H12V48H136V32ZM136 52H12V68H136V52ZM16.6665 23.3335V16.6669C16.6665 16.4249 16.7978 16.2015 17.0098 16.0835C17.2218 15.9662 17.4812 15.9729 17.6865 16.1015L23.0198 19.4349C23.2145 19.5569 23.3332 19.7702 23.3332 20.0002C23.3332 20.2302 23.2145 20.4435 23.0198 20.5655L17.6865 23.8989C17.4812 24.0275 17.2218 24.0342 17.0098 23.9169C16.7978 23.7989 16.6665 23.5755 16.6665 23.3335ZM16.6665 43.3335V36.6669C16.6665 36.4249 16.7978 36.2015 17.0098 36.0835C17.2218 35.9662 17.4812 35.9729 17.6865 36.1015L23.0198 39.4349C23.2145 39.5569 23.3332 39.7702 23.3332 40.0002C23.3332 40.2302 23.2145 40.4435 23.0198 40.5655L17.6865 43.8989C17.4812 44.0275 17.2218 44.0342 17.0098 43.9169C16.7978 43.7989 16.6665 43.5755 16.6665 43.3335ZM16.6665 56.6669V63.3335C16.6665 63.5755 16.7978 63.7989 17.0098 63.9169C17.2218 64.0342 17.4812 64.0275 17.6865 63.8989L23.0198 60.5655C23.2145 60.4435 23.3332 60.2302 23.3332 60.0002C23.3332 59.7702 23.2145 59.5569 23.0198 59.4349L17.6865 56.1015C17.4812 55.9729 17.2218 55.9662 17.0098 56.0835C16.7978 56.2015 16.6665 56.4249 16.6665 56.6669Z" fill="#5D6B82"/>
</svg>
