<svg width="148" height="80" viewBox="0 0 148 80" fill="none" xmlns="http://www.w3.org/2000/svg">
<rect width="148" height="80" rx="2" fill="#D1D5DB"/>
<rect x="1" y="1" width="146" height="78" rx="1" fill="#FAFBFB"/>
<path fill-rule="evenodd" clip-rule="evenodd" d="M12 12H136V28H12V12ZM136 32H12V48H136V32ZM136 52H12V68H136V52ZM129.805 20.4713C129.935 20.3413 130 20.1707 130 20C130 19.8293 129.935 19.6587 129.805 19.5287L126.667 16.3907L125.724 17.3333L128.391 20L125.724 22.6667L126.667 23.6093L129.805 20.4713ZM129.805 40.4713C129.935 40.3413 130 40.1707 130 40C130 39.8293 129.935 39.6587 129.805 39.5287L126.667 36.3907L125.724 37.3333L128.391 40L125.724 42.6667L126.667 43.6093L129.805 40.4713ZM130 60C130 60.1707 129.935 60.3413 129.805 60.4713L126.667 63.6093L125.724 62.6667L128.391 60L125.724 57.3333L126.667 56.3907L129.805 59.5287C129.935 59.6587 130 59.8293 130 60Z" fill="#5D6B82"/>
</svg>
