<svg width="148" height="80" viewBox="0 0 148 80" fill="none" xmlns="http://www.w3.org/2000/svg">
<rect width="148" height="80" rx="2" fill="#D1D5DB"/>
<rect x="1" y="1" width="146" height="78" rx="1" fill="#FAFBFB"/>
<path fill-rule="evenodd" clip-rule="evenodd" d="M12 12H136V28H12V12ZM136 32H12V48H136V32ZM136 52H12V68H136V52ZM21.8048 20.4713C21.9348 20.3413 22.0001 20.1707 22.0001 20C22.0001 19.8293 21.9348 19.6587 21.8048 19.5287L18.6668 16.3907L17.7241 17.3333L20.3908 20L17.7241 22.6667L18.6668 23.6093L21.8048 20.4713ZM21.8048 40.4713C21.9348 40.3413 22.0001 40.1707 22.0001 40C22.0001 39.8293 21.9348 39.6587 21.8048 39.5287L18.6668 36.3907L17.7241 37.3333L20.3908 40L17.7241 42.6667L18.6668 43.6093L21.8048 40.4713ZM22.0001 60C22.0001 60.1707 21.9348 60.3413 21.8048 60.4713L18.6668 63.6093L17.7241 62.6667L20.3908 60L17.7241 57.3333L18.6668 56.3907L21.8048 59.5287C21.9348 59.6587 22.0001 59.8293 22.0001 60Z" fill="#5D6B82"/>
</svg>
