<svg width="148" height="80" viewBox="0 0 148 80" fill="none" xmlns="http://www.w3.org/2000/svg">
<rect width="148" height="80" rx="2" fill="#D1D5DB"/>
<rect x="1" y="1" width="146" height="78" rx="1" fill="#FAFBFB"/>
<path fill-rule="evenodd" clip-rule="evenodd" d="M12 12H136V28H12V12ZM136 32H12V48H136V32ZM136 52H12V68H136V52ZM128.5 19.5H133C133.3 19.5 133.5 19.7 133.5 20C133.5 20.3 133.3 20.5 133 20.5H128.5V25C128.5 25.3 128.3 25.5 128 25.5C127.7 25.5 127.5 25.3 127.5 25V20.5H123C122.7 20.5 122.5 20.3 122.5 20C122.5 19.7 122.7 19.5 123 19.5H127.5V15C127.5 14.7 127.7 14.5 128 14.5C128.3 14.5 128.5 14.7 128.5 15V19.5ZM128.5 39.5H133C133.3 39.5 133.5 39.7 133.5 40C133.5 40.3 133.3 40.5 133 40.5H128.5V45C128.5 45.3 128.3 45.5 128 45.5C127.7 45.5 127.5 45.3 127.5 45V40.5H123C122.7 40.5 122.5 40.3 122.5 40C122.5 39.7 122.7 39.5 123 39.5H127.5V35C127.5 34.7 127.7 34.5 128 34.5C128.3 34.5 128.5 34.7 128.5 35V39.5ZM133 59.5H128.5V55C128.5 54.7 128.3 54.5 128 54.5C127.7 54.5 127.5 54.7 127.5 55V59.5H123C122.7 59.5 122.5 59.7 122.5 60C122.5 60.3 122.7 60.5 123 60.5H127.5V65C127.5 65.3 127.7 65.5 128 65.5C128.3 65.5 128.5 65.3 128.5 65V60.5H133C133.3 60.5 133.5 60.3 133.5 60C133.5 59.7 133.3 59.5 133 59.5Z" fill="#5D6B82"/>
</svg>
