<svg width="148" height="80" viewBox="0 0 148 80" fill="none" xmlns="http://www.w3.org/2000/svg">
<rect width="148" height="80" rx="2" fill="#D1D5DB"/>
<rect x="1" y="1" width="146" height="78" rx="1" fill="#FAFBFB"/>
<path fill-rule="evenodd" clip-rule="evenodd" d="M12 12H136V28H12V12ZM136 32H12V48H136V32ZM136 52H12V68H136V52ZM20.5 19.5H25C25.3 19.5 25.5 19.7 25.5 20C25.5 20.3 25.3 20.5 25 20.5H20.5V25C20.5 25.3 20.3 25.5 20 25.5C19.7 25.5 19.5 25.3 19.5 25V20.5H15C14.7 20.5 14.5 20.3 14.5 20C14.5 19.7 14.7 19.5 15 19.5H19.5V15C19.5 14.7 19.7 14.5 20 14.5C20.3 14.5 20.5 14.7 20.5 15V19.5ZM20.5 39.5H25C25.3 39.5 25.5 39.7 25.5 40C25.5 40.3 25.3 40.5 25 40.5H20.5V45C20.5 45.3 20.3 45.5 20 45.5C19.7 45.5 19.5 45.3 19.5 45V40.5H15C14.7 40.5 14.5 40.3 14.5 40C14.5 39.7 14.7 39.5 15 39.5H19.5V35C19.5 34.7 19.7 34.5 20 34.5C20.3 34.5 20.5 34.7 20.5 35V39.5ZM25 59.5H20.5V55C20.5 54.7 20.3 54.5 20 54.5C19.7 54.5 19.5 54.7 19.5 55V59.5H15C14.7 59.5 14.5 59.7 14.5 60C14.5 60.3 14.7 60.5 15 60.5H19.5V65C19.5 65.3 19.7 65.5 20 65.5C20.3 65.5 20.5 65.3 20.5 65V60.5H25C25.3 60.5 25.5 60.3 25.5 60C25.5 59.7 25.3 59.5 25 59.5Z" fill="#5D6B82"/>
</svg>
