<?xml version="1.0" encoding="UTF-8"?>
<svg width="148px" height="80px" viewBox="0 0 148 80" version="1.1" xmlns="http://www.w3.org/2000/svg" xmlns:xlink="http://www.w3.org/1999/xlink">
    <!-- Generator: Sketch 50.2 (55047) - http://www.bohemiancoding.com/sketch -->
    <title>K2 Title Copy</title>
    <desc>Created with Sketch.</desc>
    <defs></defs>
    <g id="K2-Title-Copy" stroke="none" stroke-width="1" fill="none" fill-rule="evenodd">
        <rect id="Rectangle-4" fill="#D1D5DB" x="0" y="0" width="148" height="80" rx="2"></rect>
        <rect id="Rectangle-3" fill="#FAFBFB" x="1" y="1" width="146" height="78" rx="1"></rect>
        <path d="M51.265625,41.0859375 L49.9765625,42.453125 L49.9765625,46 L48,46 L48,34.625 L49.9765625,34.625 L49.9765625,39.9609375 L51.0703125,38.609375 L54.3984375,34.625 L56.7890625,34.625 L52.5625,39.6640625 L57.03125,46 L54.6875,46 L51.265625,41.0859375 Z M65.4296875,46 L57.78125,46 L57.78125,44.6953125 L61.5703125,40.5625 C62.1171902,39.953122 62.5065093,39.4440125 62.7382812,39.0351562 C62.9700532,38.6263 63.0859375,38.2161479 63.0859375,37.8046875 C63.0859375,37.2630181 62.9335953,36.8255225 62.6289062,36.4921875 C62.3242172,36.1588525 61.9140651,35.9921875 61.3984375,35.9921875 C60.7838511,35.9921875 60.3072934,36.1796856 59.96875,36.5546875 C59.6302066,36.9296894 59.4609375,37.4427051 59.4609375,38.09375 L57.5625,38.09375 C57.5625,37.4010382 57.7200505,36.7773465 58.0351562,36.2226562 C58.350262,35.667966 58.8007783,35.2369807 59.3867188,34.9296875 C59.9726592,34.6223943 60.6484337,34.46875 61.4140625,34.46875 C62.5182347,34.46875 63.3893197,34.746091 64.0273438,35.3007812 C64.6653678,35.8554715 64.984375,36.6223909 64.984375,37.6015625 C64.984375,38.1692737 64.8242204,38.7643198 64.5039062,39.3867188 C64.1835921,40.0091177 63.6588578,40.7161419 62.9296875,41.5078125 L60.1484375,44.484375 L65.4296875,44.484375 L65.4296875,46 Z M78.9140625,36.21875 L75.3671875,36.21875 L75.3671875,46 L73.40625,46 L73.40625,36.21875 L69.890625,36.21875 L69.890625,34.625 L78.9140625,34.625 L78.9140625,36.21875 Z M82.2421875,46 L80.34375,46 L80.34375,37.546875 L82.2421875,37.546875 L82.2421875,46 Z M80.2265625,35.3515625 C80.2265625,35.0598944 80.3190095,34.8177093 80.5039062,34.625 C80.688803,34.4322907 80.9531233,34.3359375 81.296875,34.3359375 C81.6406267,34.3359375 81.9062491,34.4322907 82.09375,34.625 C82.2812509,34.8177093 82.375,35.0598944 82.375,35.3515625 C82.375,35.6380223 82.2812509,35.8763011 82.09375,36.0664062 C81.9062491,36.2565114 81.6406267,36.3515625 81.296875,36.3515625 C80.9531233,36.3515625 80.688803,36.2565114 80.5039062,36.0664062 C80.3190095,35.8763011 80.2265625,35.6380223 80.2265625,35.3515625 Z M86.6875,35.4921875 L86.6875,37.546875 L88.1796875,37.546875 L88.1796875,38.953125 L86.6875,38.953125 L86.6875,43.671875 C86.6875,43.9947933 86.7513014,44.2278639 86.8789062,44.3710938 C87.0065111,44.5143236 87.2343734,44.5859375 87.5625,44.5859375 C87.7812511,44.5859375 88.002603,44.5598961 88.2265625,44.5078125 L88.2265625,45.9765625 C87.7942687,46.0963548 87.3776062,46.15625 86.9765625,46.15625 C85.5182219,46.15625 84.7890625,45.3515705 84.7890625,43.7421875 L84.7890625,38.953125 L83.3984375,38.953125 L83.3984375,37.546875 L84.7890625,37.546875 L84.7890625,35.4921875 L86.6875,35.4921875 Z M91.6484375,46 L89.75,46 L89.75,34 L91.6484375,34 L91.6484375,46 Z M97.4375,46.15625 C96.234369,46.15625 95.2591183,45.7773475 94.5117188,45.0195312 C93.7643192,44.261715 93.390625,43.2526105 93.390625,41.9921875 L93.390625,41.7578125 C93.390625,40.9140583 93.5533838,40.1601596 93.8789062,39.4960938 C94.2044287,38.8320279 94.6614554,38.315106 95.25,37.9453125 C95.8385446,37.575519 96.494788,37.390625 97.21875,37.390625 C98.3697974,37.390625 99.2591114,37.7578088 99.8867188,38.4921875 C100.514326,39.2265662 100.828125,40.2656183 100.828125,41.609375 L100.828125,42.375 L95.3046875,42.375 C95.3619795,43.0729202 95.59505,43.624998 96.0039062,44.03125 C96.4127625,44.437502 96.9270802,44.640625 97.546875,44.640625 C98.416671,44.640625 99.1249973,44.289066 99.671875,43.5859375 L100.695312,44.5625 C100.356769,45.0677109 99.9049507,45.459634 99.3398438,45.7382812 C98.7747368,46.0169285 98.1406285,46.15625 97.4375,46.15625 Z M97.2109375,38.9140625 C96.6901016,38.9140625 96.2695329,39.0963523 95.9492188,39.4609375 C95.6289046,39.8255227 95.4244796,40.3333301 95.3359375,40.984375 L98.953125,40.984375 L98.953125,40.84375 C98.9114581,40.2083302 98.742189,39.7278662 98.4453125,39.4023438 C98.148436,39.0768213 97.7369818,38.9140625 97.2109375,38.9140625 Z" id="K2-Title" fill="#5D6B82"></path>
    </g>
</svg>