<svg width="148" height="80" viewBox="0 0 148 80" fill="none" xmlns="http://www.w3.org/2000/svg">
<rect width="148" height="80" rx="2" fill="#D1D5DB"/>
<path fill-rule="evenodd" clip-rule="evenodd" d="M2 1C1.44772 1 1 1.44771 1 2V78C1 78.5523 1.44771 79 2 79H146C146.552 79 147 78.5523 147 78V2C147 1.44772 146.552 1 146 1H2ZM13 12H137V68H13V12ZM64.9998 60H68.9998V64H64.9998V60ZM76.9998 60H72.9998V64H76.9998V60ZM80.9998 60H84.9998V64H80.9998V60Z" fill="#FAFBFB"/>
<path fill-rule="evenodd" clip-rule="evenodd" d="M116.906 32.6294L109.371 28.5482L106.859 27.1878L103.916 25.5939C101.954 24.5312 99.3831 24 96.8123 24C94.2412 24 91.6698 24.5312 89.7083 25.5939L86.7655 27.1878L84.2535 28.5482L76.7183 32.6294L74.2067 33.9897L69.2031 36.6998L68.6736 36.3688L63.6126 33.2058L60.6476 31.3528C59.7392 30.7851 58.7004 30.3496 57.5919 30.0427C56.2888 29.6818 54.8899 29.5 53.4902 29.5C52.0904 29.5 50.6913 29.682 49.3885 30.0427C48.28 30.3494 47.2411 30.785 46.3328 31.3528L43.3675 33.2058L38.3061 36.369L33.2448 39.5322L28.1837 42.6952L23.1224 45.8583L13 52.1845V68H75.5425H89.7083H119.286H137V43.5127L126.953 38.0711L119.418 33.9899L116.906 32.6294ZM68.9998 60H64.9998V64H68.9998V60ZM72.9998 60H76.9998V64H72.9998V60ZM84.9998 60H80.9998V64H84.9998V60Z" fill="#5D6B82"/>
</svg>
