<svg width="148" height="80" viewBox="0 0 148 80" fill="none" xmlns="http://www.w3.org/2000/svg">
<rect width="148" height="80" rx="2" fill="#D1D5DB"/>
<path fill-rule="evenodd" clip-rule="evenodd" d="M2 1C1.44772 1 1 1.44771 1 2V78C1 78.5523 1.44771 79 2 79H146C146.552 79 147 78.5523 147 78V2C147 1.44772 146.552 1 146 1H2ZM137 12H13V68H137V12ZM68.9998 60H64.9998V64H68.9998V60ZM76.9998 60H72.9998V64H76.9998V60ZM80.9998 60H84.9998V64H80.9998V60ZM107 30H43V38H107V30ZM95 42H55V50H95V42Z" fill="#FAFBFB"/>
<path fill-rule="evenodd" clip-rule="evenodd" d="M109.371 28.5482L116.906 32.6294L119.418 33.9899L126.953 38.0711L137 43.5127V68H119.286H89.7083H75.5425H13V52.1845L23.1224 45.8583L28.1837 42.6952L33.2448 39.5322L38.3061 36.369L43 33.4355V38H107V30H81.573L84.2535 28.5482L86.7655 27.1878L89.7083 25.5939C91.6698 24.5312 94.2412 24 96.8123 24C99.3831 24 101.954 24.5312 103.916 25.5939L106.859 27.1878L109.371 28.5482ZM57.4342 30C56.1763 29.6675 54.8336 29.5 53.4902 29.5C52.1467 29.5 50.8039 29.6676 49.5462 30H57.4342ZM64.9998 60H68.9998V64H64.9998V60ZM72.9998 60H76.9998V64H72.9998V60ZM84.9998 60H80.9998V64H84.9998V60ZM55 42H95V50H55V42Z" fill="#5D6B82"/>
</svg>
