<svg width="148" height="80" viewBox="0 0 148 80" fill="none" xmlns="http://www.w3.org/2000/svg">
<rect width="148" height="80" rx="2" fill="#D1D5DB"/>
<path fill-rule="evenodd" clip-rule="evenodd" d="M2 1C1.44772 1 1 1.44771 1 2V78C1 78.5523 1.44771 79 2 79H146C146.552 79 147 78.5523 147 78V2C147 1.44772 146.552 1 146 1H2ZM12 20H48V56H12V20ZM92 20H56V56H92V20ZM136 20H100V56H136V20Z" fill="#FAFBFB"/>
<path fill-rule="evenodd" clip-rule="evenodd" d="M30.1841 56H12V47.2658L12.429 46.9421L14.1433 45.648L15.8575 44.3541L17.5718 43.0601L19.2861 41.766L20.2905 41.008C20.5982 40.7757 20.95 40.5975 21.3255 40.472C21.7668 40.3245 22.2407 40.25 22.7148 40.25C23.1889 40.25 23.6627 40.3244 24.104 40.472C24.4795 40.5976 24.8314 40.7757 25.139 41.008L26.1433 41.766L27.8575 43.06L28.037 43.1954L29.7318 42.0867L30.5825 41.5302L33.1348 39.8606L33.9856 39.3041L34.9823 38.6521C35.6467 38.2173 36.5177 38 37.3885 38C38.2593 38 39.1302 38.2173 39.7947 38.6521L40.7915 39.3041L41.6422 39.8606L44.1944 41.5302L45.0452 42.0868L47.5975 43.7564L48 44.0197V56H45.0004H34.9823H30.1841ZM64 60H68V64H64V60ZM76 60H72V64H76V60ZM84 60H80V64H84V60ZM56 56H74.1841H78.9823H89.0004H92V44.0197L91.5975 43.7564L89.0452 42.0868L88.1944 41.5302L85.6422 39.8606L84.7915 39.3041L83.7947 38.6521C83.1302 38.2173 82.2593 38 81.3885 38C80.5177 38 79.6467 38.2173 78.9823 38.6521L77.9856 39.3041L77.1348 39.8606L74.5825 41.5302L73.7318 42.0867L72.037 43.1954L71.8575 43.06L70.1433 41.766L69.139 41.008C68.8314 40.7757 68.4795 40.5976 68.104 40.472C67.6627 40.3244 67.1889 40.25 66.7148 40.25C66.2407 40.25 65.7668 40.3245 65.3255 40.472C64.95 40.5975 64.5982 40.7757 64.2905 41.008L63.2861 41.766L61.5718 43.0601L59.8575 44.3541L58.1433 45.648L56.429 46.9421L56 47.2658V56ZM118.184 56H100V47.2658L100.429 46.9421L102.143 45.648L103.857 44.3541L105.572 43.0601L107.286 41.766L108.29 41.008C108.598 40.7757 108.95 40.5975 109.326 40.472C109.767 40.3245 110.241 40.25 110.715 40.25C111.189 40.25 111.663 40.3244 112.104 40.472C112.48 40.5976 112.831 40.7757 113.139 41.008L114.143 41.766L115.858 43.06L116.037 43.1954L117.732 42.0867L118.583 41.5302L121.135 39.8606L121.986 39.3041L122.982 38.6521C123.647 38.2173 124.518 38 125.389 38C126.259 38 127.13 38.2173 127.795 38.6521L128.791 39.3041L129.642 39.8606L132.194 41.5302L133.045 42.0868L135.597 43.7564L136 44.0197V56H133H122.982H118.184Z" fill="#5D6B82"/>
</svg>
