<svg width="148" height="80" viewBox="0 0 148 80" fill="none" xmlns="http://www.w3.org/2000/svg">
<rect width="148" height="80" rx="2" fill="#D1D5DB"/>
<path fill-rule="evenodd" clip-rule="evenodd" d="M2 1C1.44772 1 1 1.44771 1 2V78C1 78.5523 1.44771 79 2 79H146C146.552 79 147 78.5523 147 78V2C147 1.44772 146.552 1 146 1H2ZM48 20H12V56H48V20ZM92 20H56V56H92V20ZM100 20H136V56H100V20Z" fill="#FAFBFB"/>
<path fill-rule="evenodd" clip-rule="evenodd" d="M42 28H18V32H42V28ZM40 36H20V40H40V36ZM16 44H44V48H16V44ZM64 60H68V64H64V60ZM76 60H72V64H76V60ZM84 60H80V64H84V60ZM62 28H86V32H62V28ZM64 36H84V40H64V36ZM88 44H60V48H88V44ZM130 28H106V32H130V28ZM128 36H108V40H128V36ZM104 44H132V48H104V44Z" fill="#5D6B82"/>
</svg>
