<svg width="148" height="80" viewBox="0 0 148 80" fill="none" xmlns="http://www.w3.org/2000/svg">
<rect width="148" height="80" rx="2" fill="#D1D5DB"/>
<path fill-rule="evenodd" clip-rule="evenodd" d="M2 1C1.44772 1 1 1.44771 1 2V78C1 78.5523 1.44771 79 2 79H146C146.552 79 147 78.5523 147 78V2C147 1.44772 146.552 1 146 1H2ZM102 12H46V68H102V12Z" fill="#FAFBFB"/>
<path fill-rule="evenodd" clip-rule="evenodd" d="M46 68L74.2861 68L81.7501 68L97.3338 68L102 68V49.3641L101.374 48.9544L97.4035 46.3572L96.08 45.4914L92.1099 42.8943L90.7866 42.0286L89.236 41.0143C88.2024 40.338 86.8476 40 85.4931 40C84.1384 40 82.7836 40.338 81.7501 41.0143L80.1996 42.0286L78.8761 42.8943L74.906 45.4914L73.5826 46.3571L70.9462 48.0818L70.6671 47.8711L68.0005 45.8583L66.4383 44.6791C65.9597 44.3178 65.4124 44.0406 64.8283 43.8453C64.1418 43.6157 63.4047 43.5 62.6672 43.5C61.9297 43.5 61.1926 43.6158 60.5061 43.8453C59.9221 44.0405 59.3747 44.3177 58.8961 44.6791L57.3338 45.8583L54.6671 47.8712L52.0004 49.8841L49.3338 51.8969L46.6671 53.9099L46 54.4134V68Z" fill="#5D6B82"/>
</svg>
