<svg width="148" height="80" viewBox="0 0 148 80" fill="none" xmlns="http://www.w3.org/2000/svg">
<rect width="148" height="80" rx="2" fill="#D1D5DB"/>
<rect x="1" y="1" width="146" height="78" rx="1" fill="#FAFBFB"/>
<path fill-rule="evenodd" clip-rule="evenodd" d="M14 28C12.8954 28 12 28.8954 12 30V50C12 51.1046 12.8954 52 14 52H74C75.1046 52 76 51.1046 76 50V30C76 28.8954 75.1046 28 74 28H14ZM24.5605 43C24.8449 43 25.0805 43.2454 25.0805 43.5417C25.0805 43.8464 24.8449 44.0833 24.5605 44.0833C24.268 44.0833 24.0405 43.8464 24.0405 43.5417C24.0405 43.2454 24.268 43 24.5605 43ZM26.38 44.9583V39.5417C26.38 39.2454 26.1444 39 25.86 39H23.52C23.2356 39 23 39.2454 23 39.5417V44.9583C23 45.2545 23.2356 45.5 23.52 45.5H25.86C26.1444 45.5 26.38 45.2545 26.38 44.9583ZM34.4402 38.3333C35.2852 38.3333 36.0002 39.0781 36.0002 39.9583C36.0002 40.4069 35.8296 40.8893 35.5534 41.2194C35.6427 41.4902 35.6753 41.7441 35.6753 41.8626C35.6915 42.2858 35.5696 42.6836 35.3259 43.0221C35.4152 43.3353 35.4152 43.6738 35.3259 44.0124C35.2446 44.3255 35.0902 44.6048 34.8871 44.8079C34.9359 45.4427 34.7977 45.959 34.489 46.3398C34.1396 46.7715 33.6034 46.9915 32.8884 47H31.8402C30.6956 47 29.614 46.6139 28.7431 46.303L28.704 46.2891L28.6975 46.2867C28.188 46.1014 27.7034 45.9251 27.4202 45.9167C27.144 45.9082 26.9002 45.6712 26.9002 45.375V39.9499C26.9002 39.6706 27.1277 39.4336 27.3959 39.4082C27.6965 39.3828 28.4765 38.3757 28.834 37.8848C29.1265 37.4954 29.4027 37.1315 29.6546 36.8691C29.9582 36.5529 30.053 36.0734 30.1462 35.6021L30.1584 35.5404C30.2477 35.041 30.3452 34.5163 30.6946 34.1608C30.7921 34.0592 30.9221 34 31.0602 34C32.8802 34 32.8802 35.515 32.8802 36.1667C32.8802 36.8607 32.6446 37.3516 32.4252 37.7917C32.3996 37.8452 32.3745 37.8903 32.3504 37.9339C32.2905 38.0419 32.2359 38.1403 32.1896 38.3333H34.4402ZM53.7756 42.4316L54.4332 41.7812L56.3875 44.5H58.0984L55.389 40.8027L57.8366 38.1602H56.0588L54.2383 40.1348L53.7756 40.6914V35.5H52.2962V44.5H53.7756V42.4316ZM50.6767 44.5H49.1972V38.1602H50.6767V44.5ZM49.1059 36.5137C49.1059 36.2949 49.1769 36.1133 49.319 35.9688C49.4651 35.8242 49.6721 35.752 49.94 35.752C50.2079 35.752 50.4149 35.8242 50.561 35.9688C50.7071 36.1133 50.7802 36.2949 50.7802 36.5137C50.7802 36.7285 50.7071 36.9082 50.561 37.0527C50.4149 37.1934 50.2079 37.2637 49.94 37.2637C49.6721 37.2637 49.4651 37.1934 49.319 37.0527C49.1769 36.9082 49.1059 36.7285 49.1059 36.5137ZM44.0404 43.3164H48.0648V44.5H42.5V35.9688H44.0404V43.3164ZM61.587 44.6172C60.6494 44.6172 59.8883 44.334 59.3038 43.7676C58.7234 43.1973 58.4332 42.4395 58.4332 41.4941V41.3184C58.4332 40.6855 58.559 40.1211 58.8107 39.625C59.0664 39.125 59.4236 38.7363 59.8822 38.459C60.3409 38.1816 60.8523 38.043 61.4165 38.043C62.3135 38.043 63.0056 38.3184 63.4926 38.8691C63.9838 39.4199 64.2293 40.1992 64.2293 41.207V41.7812H59.9249C59.9695 42.3047 60.1501 42.7188 60.4667 43.0234C60.7874 43.3281 61.1892 43.4805 61.6722 43.4805C62.3501 43.4805 62.9021 43.2168 63.3283 42.6895L64.1258 43.4219C63.862 43.8008 63.5089 44.0957 63.0665 44.3066C62.6281 44.5137 62.1349 44.6172 61.587 44.6172ZM61.4104 39.1855C61.0045 39.1855 60.6758 39.3223 60.4241 39.5957C60.1765 39.8691 60.0182 40.25 59.9492 40.7383H62.7681V40.6328C62.7357 40.1562 62.6037 39.7969 62.3724 39.5547C62.141 39.3086 61.8204 39.1855 61.4104 39.1855ZM84 30C84 28.8954 84.8954 28 86 28H134C135.105 28 136 28.8954 136 30V50C136 51.1046 135.105 52 134 52H86C84.8954 52 84 51.1046 84 50V30ZM105.623 37.7549C104.885 37.7549 104.274 38.0469 103.791 38.6309V35H102.311V44.75H103.791V39.8433C104.083 39.2931 104.525 39.0181 105.118 39.0181C105.5 39.0181 105.788 39.1175 105.983 39.3164C106.182 39.5111 106.281 39.8454 106.281 40.3193V44.75H107.76V40.2622C107.74 38.5907 107.028 37.7549 105.623 37.7549ZM99.1698 41.4302C99.4458 41.6502 99.5838 41.9634 99.5838 42.3696C99.5838 42.742 99.4478 43.0425 99.1759 43.271C98.908 43.4953 98.5061 43.6074 97.9704 43.6074C97.3493 43.6074 96.8724 43.4635 96.5396 43.1758C96.2068 42.888 96.0404 42.4818 96.0404 41.957H94.5C94.5 42.5368 94.6481 43.0446 94.9445 43.4805C95.2448 43.9163 95.6629 44.2591 96.1987 44.5088C96.7385 44.7542 97.3291 44.877 97.9704 44.877C98.9404 44.877 99.7076 44.6506 100.272 44.1978C100.84 43.7407 101.124 43.1271 101.124 42.3569C101.124 41.883 101.027 41.4704 100.832 41.1191C100.637 40.7637 100.331 40.4505 99.9125 40.1797C99.4945 39.9046 98.9404 39.6613 98.2504 39.4497C97.5604 39.2339 97.0652 39.0138 96.7649 38.7896C96.4645 38.561 96.3143 38.2775 96.3143 37.939C96.3143 37.5369 96.4523 37.2238 96.7283 36.9995C97.0084 36.7752 97.4001 36.6631 97.9034 36.6631C98.4432 36.6631 98.8572 36.8006 99.1454 37.0757C99.4377 37.3465 99.5838 37.7231 99.5838 38.2056H101.118C101.118 37.6724 100.98 37.1878 100.704 36.752C100.428 36.3118 100.049 35.9733 99.5655 35.7363C99.0825 35.4993 98.5325 35.3809 97.9156 35.3809C96.9861 35.3809 96.2291 35.6221 95.6446 36.1045C95.0642 36.5869 94.774 37.2005 94.774 37.9453C94.774 38.7959 95.1778 39.4857 95.9856 40.0146C96.4077 40.2897 96.9759 40.5394 97.6903 40.7637C98.4047 40.988 98.8978 41.2101 99.1698 41.4302ZM113.197 44.75C113.132 44.6188 113.076 44.4051 113.027 44.1089C112.556 44.6209 111.98 44.877 111.298 44.877C110.636 44.877 110.096 44.6802 109.678 44.2866C109.26 43.8931 109.051 43.4064 109.051 42.8267C109.051 42.0946 109.311 41.5339 109.83 41.1445C110.354 40.751 111.101 40.5542 112.071 40.5542H112.978V40.1035C112.978 39.748 112.883 39.4645 112.692 39.2529C112.501 39.0371 112.211 38.9292 111.821 38.9292C111.484 38.9292 111.208 39.0181 110.993 39.1958C110.778 39.3693 110.671 39.5915 110.671 39.8623H109.191C109.191 39.4857 109.311 39.1344 109.55 38.8086C109.79 38.4785 110.115 38.2204 110.525 38.0342C110.939 37.848 111.399 37.7549 111.907 37.7549C112.678 37.7549 113.293 37.958 113.751 38.3643C114.21 38.7663 114.445 39.3333 114.458 40.0654V43.1631C114.458 43.7809 114.541 44.2739 114.707 44.6421V44.75H113.197ZM111.572 43.6392C111.864 43.6392 112.138 43.5651 112.394 43.417C112.653 43.2689 112.848 43.07 112.978 42.8203V41.5254H112.181C111.633 41.5254 111.221 41.6248 110.945 41.8237C110.669 42.0226 110.531 42.304 110.531 42.668C110.531 42.9642 110.624 43.2012 110.811 43.3789C111.001 43.5524 111.255 43.6392 111.572 43.6392ZM118.853 39.2402C119.06 39.2402 119.261 39.2572 119.456 39.291L119.462 37.8438C119.324 37.7845 119.15 37.7549 118.939 37.7549C118.305 37.7549 117.81 38.0532 117.453 38.6499L117.417 37.8818H116.004V44.75H117.484V40.0527C117.719 39.5111 118.176 39.2402 118.853 39.2402ZM123.17 44.877C122.232 44.877 121.471 44.5701 120.887 43.9565C120.306 43.3387 120.016 42.5177 120.016 41.4937V41.3032C120.016 40.6177 120.142 40.0062 120.394 39.4688C120.649 38.9271 121.007 38.506 121.465 38.2056C121.924 37.9051 122.435 37.7549 123 37.7549C123.897 37.7549 124.589 38.0532 125.076 38.6499C125.567 39.2466 125.812 40.0908 125.812 41.1826V41.8047H121.508C121.553 42.3717 121.733 42.8203 122.05 43.1504C122.37 43.4805 122.772 43.6455 123.255 43.6455C123.933 43.6455 124.485 43.3599 124.911 42.7886L125.709 43.582C125.445 43.9925 125.092 44.312 124.65 44.5405C124.211 44.7648 123.718 44.877 123.17 44.877ZM122.993 38.9927C122.588 38.9927 122.259 39.1408 122.007 39.437C121.76 39.7332 121.601 40.1458 121.532 40.6748H124.351V40.5605C124.319 40.0443 124.187 39.6549 123.955 39.3926C123.724 39.126 123.403 38.9927 122.993 38.9927Z" fill="#5D6B82"/>
</svg>
