<?xml version="1.0" encoding="UTF-8"?>
<svg width="63px" height="59px" viewBox="0 0 63 59" version="1.1" xmlns="http://www.w3.org/2000/svg" xmlns:xlink="http://www.w3.org/1999/xlink">
    <!-- Generator: Sketch 50.2 (55047) - http://www.bohemiancoding.com/sketch -->
    <title>Group Copy</title>
    <desc>Created with Sketch.</desc>
    <defs>
        <polygon id="path-1" points="0.115442321 0.198958763 25.846516 0.198958763 25.846516 20.968165 0.115442321 20.968165"></polygon>
        <polygon id="path-3" points="0 0.0270979121 23.8395824 0.0270979121 23.8395824 12.000002 0 12.000002"></polygon>
    </defs>
    <g id="Page-1" stroke="none" stroke-width="1" fill="none" fill-rule="evenodd">
        <g id="Group-Copy">
            <path d="M59.5500385,23.9537963 C59.5500385,23.2563609 59.541487,22.5589254 59.553766,21.8617085 C59.559467,21.5350588 59.4607964,21.3731541 59.0983465,21.3781795 C58.028319,21.3930372 56.9576338,21.3893227 55.887387,21.379709 C55.5817275,21.3768685 55.4352566,21.4730063 55.4376685,21.800093 C55.4477548,23.2360408 55.4310905,24.6722072 55.4637614,26.1072811 C55.4672697,26.2615384 55.7229361,26.5348754 55.8702841,26.5409933 C56.9392153,26.5849107 58.0103391,26.5691791 59.0803666,26.5833813 C59.4204511,26.5879697 59.5605633,26.447259 59.5546431,26.1072811 C59.5425833,25.3897441 59.5511348,24.6715517 59.5500385,23.9537963 Z M63,28.6420393 C62.6261482,29.685789 61.8687968,30.0220525 60.7860518,29.9988921 C58.4780376,29.9497307 56.16805,29.9888413 53.8589394,29.9890598 C52.7152379,29.9890598 52.025421,29.3532399 52.0170889,28.2170669 C51.9966969,25.4026353 51.9953813,22.5877668 52.0087567,19.7733352 C52.0137998,18.6834831 52.6417832,18.0188219 53.7293521,18.0089896 C56.2647471,17.9858292 58.8008,18.014452 61.3364142,18.0168554 C62.2097584,18.0177294 62.6441282,18.5849419 63,19.2635868 L63,28.6420393 Z" id="Fill-20" fill="#203B67"></path>
            <g id="Group-24" transform="translate(1.000000, 0.000000)">
                <mask id="mask-2" fill="white">
                    <use xlink:href="#path-1"></use>
                </mask>
                <g id="Clip-23"></g>
                <path d="M6.91638103,17.0347887 C11.8720707,14.2634381 16.76545,11.5267268 21.6926741,8.77139691 C20.7770707,7.23428351 19.9110017,5.7811701 19.0256569,4.29514948 C14.0690707,7.0665 9.18712241,9.79628351 4.25138103,12.5559433 C5.15779483,14.079201 6.02431207,15.5353454 6.91638103,17.0347887 M19.66445,0.198850515 C20.3429155,0.25578866 20.8337776,0.53506701 21.1536224,1.0687268 C22.64145,3.55084021 24.1355534,6.02970619 25.594019,8.5280567 C26.1267948,9.44058247 25.798881,10.3160876 24.7761397,10.889366 C20.2767948,13.4108814 15.7729672,15.9246031 11.2711569,18.4420052 C9.97698448,19.1655309 8.68595,19.8942526 7.39020862,20.6151804 C6.24889828,21.2505928 5.32432931,21.030201 4.66558793,19.9373351 C3.24567414,17.5818711 1.83495,15.2209948 0.435881034,12.8538402 C-0.162791379,11.8412938 0.0844327586,10.9378608 1.11860517,10.3587371 C6.96770862,7.08403608 12.8206224,3.8156134 18.6782431,0.555417526 C18.9783638,0.388283505 19.334519,0.315541237 19.66445,0.198850515" id="Fill-22" fill="#203B67" mask="url(#mask-2)"></path>
            </g>
            <path d="M34.4863128,36.4364634 C34.2944459,36.4073629 34.2129528,36.3839512 34.1314598,36.3839512 C28.7381416,36.3811068 23.3450474,36.383076 17.9517293,36.3732299 C17.5534432,36.3725735 17.4466515,36.5318607 17.4500097,36.8896005 C17.4623232,38.2072209 17.4844875,39.5259352 17.4410544,40.8422427 C17.420905,41.4496346 17.6333691,41.6045457 18.2322535,41.6010449 C22.2348164,41.5782896 26.2376033,41.5894485 30.2403901,41.5892297 C31.4621143,41.5892297 32.6838385,41.5914177 33.9055628,41.5859477 C34.1710869,41.5848536 34.4869844,41.6340839 34.4867605,41.217049 C34.485865,39.6362109 34.4863128,38.0551541 34.4863128,36.4364634 Z M25.974318,44.998151 C22.6897447,44.998151 19.4051715,45.003621 16.1205982,44.9957442 C14.5587971,44.9920246 14.0037936,44.4347382 14.0024503,42.903568 C13.9999876,40.2696402 13.9981965,37.6359311 14.0031219,35.0020033 C14.0058085,33.5782645 14.5793943,33.0041304 16.0180602,33.0032552 C22.6711625,32.9988791 29.3244887,32.9988791 35.9778149,33.003474 C37.3522266,33.004568 37.9949919,33.6292452 37.9976785,34.9624003 C38.0030517,37.6580301 37.9985741,40.3536598 37.9896188,43.0492895 C37.985365,44.3533441 37.3390176,44.9876486 36.0176659,44.9891802 C32.669734,44.9933374 29.322026,44.990493 25.974318,44.990493 L25.974318,44.998151 Z" id="Fill-25" fill="#203B67"></path>
            <path d="M51.0298524,36.3969199 L51.0298524,36.3862049 C48.3768208,36.3862049 45.724013,36.3956079 43.0712052,36.377458 C42.6101198,36.3743966 42.4411298,36.4953227 42.452545,36.9661255 C42.4845524,38.2818805 42.4921625,39.5993849 42.4628411,40.9151399 C42.4514258,41.4263972 42.6239971,41.5980555 43.1412633,41.5971808 C48.4050231,41.5866845 53.668559,41.5886526 58.9323188,41.5993675 C59.3721405,41.6002422 59.5144951,41.4495766 59.5073326,41.0231644 C59.4851736,39.6864168 59.4795779,38.3487945 59.509347,37.0122655 C59.5203146,36.5222195 59.3555773,36.3833622 58.8622607,36.3870796 C56.2515325,36.4080722 53.6405805,36.3969199 51.0298524,36.3969199 Z M50.9772528,33.0000547 C54.304454,33.0000547 57.6316551,32.999836 60.9588562,33.0002733 C62.3315925,33.000492 62.9847222,33.6125575 62.9905417,34.9486491 C63.0021808,37.6437929 63.0026284,40.3389368 62.9943468,43.0340806 C62.9903179,44.3793564 62.3501702,44.9997315 60.981239,44.9999502 C54.2845333,45.0003876 47.5878276,44.9979822 40.8911218,44.9912033 C39.6343284,44.9898913 38.9995526,44.3504916 39.0000002,43.1158643 C39.0008955,40.4207204 39.0011194,37.7255766 39.0078342,35.0304328 C39.0116393,33.5495797 39.554198,33.0144871 41.0585451,33.012519 C44.3647064,33.0079269 47.6710915,33.0109883 50.9772528,33.0109883 L50.9772528,33.0000547 Z" id="Fill-27" fill="#203B67"></path>
            <path d="M29.4978793,21.3813411 C29.4978793,22.9643699 29.5162335,24.4631136 29.4873592,25.9609816 C29.4781821,26.4452383 29.6290449,26.6076788 30.127295,26.6011111 C31.9595841,26.5768107 33.7925447,26.5875379 35.6252815,26.5855676 C39.0590889,26.581627 42.4931201,26.5706809 45.9267036,26.5825027 C46.4030182,26.5840351 46.5420179,26.4246595 46.5341838,25.9714899 C46.5120244,24.673936 46.5008328,23.3744118 46.5507474,22.0779526 C46.5735782,21.4827022 46.3488509,21.3688625 45.7948666,21.3706139 C40.6124833,21.3885655 35.4298761,21.3813411 30.2474928,21.3813411 L29.4978793,21.3813411 Z M37.9681315,29.9994456 C34.6605654,29.9994456 31.3529993,30.0009781 28.0454332,29.9987889 C26.6608082,29.9976942 26.017291,29.3989411 26.0103522,28.0534432 C25.9964746,25.3543473 25.9966985,22.6550324 26.0101284,19.9557175 C26.0170672,18.6023384 26.6426778,18.0048988 28.0358084,18.0038042 C34.693021,17.998769 41.3500098,17.9985501 48.0069986,18.004242 C49.3900568,18.0053367 49.9856739,18.5778191 49.9914935,19.9156547 C50.0031328,22.6355483 50.0024613,25.3552229 49.9917174,28.0751165 C49.9865692,29.4050709 49.3674498,29.9972564 48.0170711,29.998351 C44.6674246,30.0014159 41.317778,29.9992267 37.9681315,29.9994456 Z" id="Fill-29" fill="#203B67"></path>
            <path d="M29.5303097,55.541906 C29.6699093,55.5764567 29.7298655,55.6042285 29.7900455,55.6044472 C35.2176509,55.6090394 40.6454801,55.6094767 46.0733092,55.6184424 C46.4428902,55.6190985 46.5350617,55.4583719 46.5326009,55.1301399 C46.5216387,53.711154 46.5173881,52.2921681 46.534838,50.8734009 C46.5395361,50.4835023 46.3789071,50.384005 46.0099972,50.3877224 C44.7902905,50.4006243 43.5705838,50.3855357 42.3506533,50.385317 C38.3539438,50.3842236 34.3572342,50.3842236 30.3603009,50.3866291 C30.0929587,50.3868477 29.8253928,50.4119954 29.5303097,50.427084 L29.5303097,55.541906 Z M37.9481206,58.9877959 C34.6657403,58.9877959 31.3833601,58.9902013 28.1012035,58.9869212 C26.6020739,58.9851718 26.0002744,58.393873 26.0000507,56.9245917 C25.9996032,54.3127305 26.0020641,51.7006507 26.0096705,49.0887895 C26.0141448,47.5829894 26.6081143,47.0118088 28.156238,47.0107154 C34.6999691,47.0063419 41.2437001,47.0026244 47.7874312,47.0000003 C49.4366751,46.9995629 49.9814268,47.5296325 49.9856774,49.1382101 C49.9923889,51.7089603 50.000219,54.2797105 49.9999953,56.8506794 C49.9999953,58.4478858 49.432872,58.9974176 47.7952613,58.9987296 C44.5128811,59.0011351 41.2305008,58.9993857 37.9481206,58.9993857 L37.9481206,58.9877959 Z" id="Fill-31" fill="#203B67"></path>
            <g id="Group-35" transform="translate(0.000000, 47.000000)">
                <mask id="mask-4" fill="white">
                    <use xlink:href="#path-3"></use>
                </mask>
                <g id="Clip-34"></g>
                <path d="M3.50668889,8.54971636 C3.64535556,8.58418909 3.70491111,8.61189818 3.76468889,8.61211636 C9.15624444,8.61669818 14.5475778,8.61713455 19.9391333,8.62608 C20.3062444,8.62673455 20.3978,8.46637091 20.3953556,8.13888 C20.3844667,6.72309818 20.3802444,5.30731636 20.3975778,3.89175273 C20.4022444,3.50273455 20.2426889,3.40346182 19.8762444,3.40717091 C18.6646889,3.42004364 17.4531333,3.40498909 16.2413556,3.40477091 C12.2713556,3.40368 8.30135556,3.40368 4.33113333,3.40608 C4.06557778,3.40629818 3.7998,3.43138909 3.50668889,3.44644364 L3.50668889,8.54971636 Z M11.8682444,11.9878255 C8.6078,11.9878255 5.34735556,11.9902255 2.08713333,11.9869527 C0.598022222,11.9852073 0.000244444444,11.3952436 2.22222222e-05,9.92928 C-0.000422222222,7.32331636 0.00202222222,4.71713455 0.00957777778,2.11117091 C0.0140222222,0.608770909 0.604022222,0.03888 2.1418,0.0377890909 C8.6418,0.0334254545 15.1418,0.0297163636 21.6418,0.0270981818 C23.2800222,0.0266618182 23.8211333,0.555534545 23.8253556,2.16048 C23.8320222,4.72542545 23.8398,7.29037091 23.8395778,9.85553455 C23.8395778,11.4491345 23.2762444,11.9974255 21.6495778,11.9987345 C18.3891333,12.0011345 15.1286889,11.9993891 11.8682444,11.9993891 L11.8682444,11.9878255 Z" id="Fill-33" fill="#203B67" mask="url(#mask-4)"></path>
            </g>
            <path d="M58.7410431,53.0566562 C58.7410431,52.3378069 58.7296447,51.6187386 58.745898,50.9003272 C58.7541302,50.5407931 58.6420455,50.3689086 58.273496,50.3796377 C57.4426763,50.4039424 56.6110124,50.4164232 55.7797706,50.4133577 C55.4120653,50.4120439 55.308635,50.5872128 55.3107459,50.9423677 C55.3189781,52.3389017 55.3130678,53.7354357 55.3012472,55.1319696 C55.298292,55.4549373 55.3810362,55.6287924 55.7324881,55.6226615 C56.5835717,55.6075532 57.4352885,55.6066773 58.2861609,55.6233184 C58.6692751,55.630763 58.7520194,55.4345739 58.7450537,55.0897101 C58.7313333,54.4122445 58.7410431,53.7343409 58.7410431,53.0566562 M61.9965643,52.9973178 C61.9967753,54.3772107 62.0056408,55.7568846 61.9940313,57.1363396 C61.9834772,58.3883593 61.4040564,58.9883127 60.1981437,58.9933488 C58.0740233,59.0021072 55.9499028,59.0023262 53.8259935,58.9933488 C52.610582,58.9880937 52.0081534,58.3539824 52.0049871,57.0798477 C51.9982325,54.3616644 51.9984436,51.6434812 52.0049871,48.925298 C52.0081534,47.6496306 52.6148037,47.0093883 53.8209275,47.005447 C55.9450479,46.9982213 58.0689573,46.9982213 60.1930777,47.005228 C61.3945577,47.0091693 61.9832661,47.613283 61.9938202,48.8582959 C62.0056408,50.2379698 61.9965643,51.6176438 61.9965643,52.9973178" id="Fill-36" fill="#203B67"></path>
        </g>
    </g>
</svg>