<svg width="160" height="160" viewBox="0 0 160 160" fill="none" xmlns="http://www.w3.org/2000/svg">
<path d="M1.00073 1L159.066 1.00084L159.065 159L0.999894 158.999L1.00073 1Z" fill="#E8EAED"/>
<path d="M133.448 95.4937L123.866 88.166L120.672 85.7236L116.929 82.8618C114.435 80.9537 111.165 80 107.896 80C104.626 80 101.356 80.9537 98.862 82.8618L95.1197 85.7236L91.9255 88.166L82.3434 95.4937L79.1495 97.9361L69.5674 105.264L66.3735 107.706L56.7914 115.034L53.5971 117.477L52 118.698L98.862 159H159V115.034L146.224 105.264L136.642 97.9364L133.448 95.4937Z" fill="#A2AAB8"/>
<path d="M86.8094 115.066L85.1902 113.648L78.7143 107.979L72.238 102.31L65.762 96.6416L61.9682 93.3207C60.8059 92.3032 59.4766 91.5226 58.0582 90.9726C56.3908 90.3259 54.6009 90 52.8098 90C51.0187 90 49.2284 90.3262 47.5614 90.9726C46.143 91.5223 44.8137 92.3029 43.6514 93.3207L39.8571 96.6416L33.3808 102.311L26.9045 107.98L20.4286 113.648L13.9523 119.318L1 130.655V159H81.0271H137L86.8094 115.066Z" fill="#B9BFCA"/>
</svg>
