<svg width="681" height="404" viewBox="0 0 681 404" fill="none" xmlns="http://www.w3.org/2000/svg">
<g style="mix-blend-mode:multiply" opacity="0.2">
<g style="mix-blend-mode:multiply" opacity="0.2">
<path d="M17.1101 56.0012C42.2601 27.7412 151.06 22.3912 221.73 24.6012C331.16 28.0012 353 41.0012 366.45 72.4911C375.16 92.9212 366.65 111.031 366.79 155.961C366.79 162.961 384.44 190.641 380.37 195.611C376.81 199.951 346.86 189.611 331.49 190.771C297.85 193.401 281.09 195.711 231.12 196.871C180.8 198.001 66.7601 199.331 27.1801 177.621C6.00005 166.001 -4.28995 80.1012 17.1101 56.0012Z" fill="#1C2260"/>
<path d="M17.1101 56.0012C42.2601 27.7412 151.06 22.3912 221.73 24.6012C331.16 28.0012 353 41.0012 366.45 72.4911C375.16 92.9212 366.65 111.031 366.79 155.961C366.79 162.961 384.44 190.641 380.37 195.611C376.81 199.951 346.86 189.611 331.49 190.771C297.85 193.401 281.09 195.711 231.12 196.871C180.8 198.001 66.7601 199.331 27.1801 177.621C6.00005 166.001 -4.28995 80.1012 17.1101 56.0012Z" stroke="white" stroke-miterlimit="10"/>
</g>
</g>
<path d="M13.24 50.6405C38.39 22.3505 147.18 17.0005 217.86 19.2105C327.29 22.6305 349.14 35.5805 362.57 67.1005C371.28 87.5305 362.69 109.1 362.83 154.01C362.83 161.01 378.42 188.63 376.16 191.88C374.51 194.25 342.98 184.18 327.61 185.38C294.15 187.99 277.24 190.32 227.24 191.48C176.93 192.65 62.88 193.94 23.3 172.23C2.15002 160.64 -8.15998 74.7205 13.24 50.6405Z" fill="#1C2260" stroke="white" stroke-miterlimit="10"/>
<path d="M62.46 55L62.3 65.45C62.3 67.5366 62.34 70.6467 62.42 74.78C63.506 74.8974 64.5978 74.9508 65.69 74.94C67.0234 74.94 68.2434 74.9033 69.35 74.83C70.4567 74.7567 71.16 74.72 71.46 74.72C71.7792 74.7276 72.0861 74.844 72.33 75.05C72.4617 75.1569 72.5678 75.2918 72.6407 75.4449C72.7136 75.598 72.7514 75.7654 72.7514 75.935C72.7514 76.1046 72.7136 76.272 72.6407 76.4251C72.5678 76.5782 72.4617 76.7131 72.33 76.82C72.001 77.0535 71.603 77.1697 71.2 77.15L66.52 77L61.52 77.16C61.0993 77.1813 60.6868 77.0378 60.37 76.76C60.219 76.6049 60.1025 76.4196 60.0284 76.2161C59.9543 76.0127 59.9241 75.7959 59.94 75.58L60.1 65.47L59.91 55C59.8886 54.5891 60.0086 54.1832 60.25 53.85C60.3636 53.7136 60.5058 53.6038 60.6665 53.5285C60.8272 53.4531 61.0025 53.4141 61.18 53.4141C61.3575 53.4141 61.5329 53.4531 61.6936 53.5285C61.8543 53.6038 61.9965 53.7136 62.11 53.85C62.3543 54.1823 62.4778 54.588 62.46 55V55Z" fill="white"/>
<path d="M82.35 61.0012C83.8314 60.9393 85.2816 61.4394 86.41 62.4012C86.9232 62.8477 87.3317 63.4017 87.6065 64.0239C87.8813 64.6461 88.0157 65.3212 88 66.0012C88.0234 66.6921 87.8544 67.3758 87.5118 67.9762C87.1693 68.5765 86.6666 69.0699 86.06 69.4012C84.6092 70.2158 82.9629 70.617 81.3 70.5612C79.9746 70.5315 78.6552 70.3741 77.36 70.0912C77.4611 71.4872 78.0362 72.8068 78.99 73.8312C79.3812 74.3078 79.8703 74.6946 80.4242 74.9655C80.978 75.2363 81.5836 75.385 82.2 75.4012C82.878 75.4137 83.5535 75.3158 84.2 75.1112C84.683 74.9676 85.1415 74.7519 85.56 74.4712C86.0174 74.0147 86.5757 73.6721 87.19 73.4712C87.3035 73.4656 87.417 73.4831 87.5236 73.5227C87.6301 73.5622 87.7276 73.6229 87.81 73.7012C87.8849 73.7757 87.944 73.8646 87.9835 73.9626C88.023 74.0606 88.0422 74.1656 88.04 74.2712C88.04 74.8512 87.4466 75.5179 86.26 76.2712C85.1071 77.0065 83.7673 77.3952 82.4 77.3912C81.4303 77.4329 80.4641 77.2508 79.5762 76.8589C78.6883 76.4669 77.9026 75.8758 77.28 75.1312C76.0235 73.5849 75.3196 71.6632 75.28 69.6712C74.1866 69.3379 73.64 68.8012 73.64 68.0612C73.6326 67.9284 73.6517 67.7954 73.6964 67.67C73.741 67.5447 73.8103 67.4295 73.9 67.3312C73.9833 67.2465 74.083 67.1797 74.1931 67.135C74.3031 67.0903 74.4212 67.0686 74.54 67.0712C74.867 67.0938 75.1848 67.1895 75.47 67.3512C75.8628 65.5997 76.7637 64.003 78.06 62.7612C79.2102 61.6444 80.7468 61.014 82.35 61.0012V61.0012ZM81.17 68.6312C82.3291 68.686 83.4828 68.4415 84.52 67.9212C84.89 67.753 85.2048 67.4834 85.4278 67.1436C85.6508 66.8037 85.7729 66.4076 85.78 66.0012C85.7875 65.2247 85.4935 64.4755 84.96 63.9112C84.6562 63.6049 84.2898 63.3677 83.886 63.2159C83.4822 63.064 83.0504 63.001 82.62 63.0312C81.9698 63.0207 81.3252 63.1521 80.731 63.4164C80.1369 63.6806 79.6076 64.0713 79.18 64.5612C78.2591 65.5642 77.6358 66.8039 77.38 68.1412C78.6129 68.4894 79.8889 68.6611 81.17 68.6512V68.6312Z" fill="white"/>
<path d="M95.17 63.3812L95.11 70.7312C95.0598 71.9658 95.1369 73.2023 95.34 74.4212C95.4 74.6913 95.5578 74.9296 95.7831 75.0902C96.0084 75.2509 96.2851 75.3225 96.56 75.2912C96.9564 75.266 97.3423 75.1533 97.69 74.9612C97.9621 74.8011 98.2598 74.6895 98.57 74.6312C98.6575 74.618 98.7469 74.6253 98.8311 74.6526C98.9153 74.68 98.992 74.7265 99.0551 74.7886C99.1181 74.8507 99.1659 74.9267 99.1945 75.0104C99.2231 75.0942 99.2319 75.1835 99.22 75.2712C99.22 75.6978 98.8367 76.1412 98.07 76.6012C97.396 77.0393 96.6136 77.2816 95.81 77.3012C94.01 77.3012 93.11 75.9678 93.11 73.3012V63.3012C92.4433 63.3612 91.9667 63.3912 91.68 63.3912C90.6467 63.3912 90.13 63.0578 90.13 62.3912C90.13 61.7245 90.6467 61.3912 91.68 61.3912L93.04 61.4512L93 58.0012C93 56.9678 93.3933 56.4512 94.18 56.4512C94.9667 56.4512 95.3467 56.9678 95.32 58.0012L95.23 61.5012L97.74 61.3812C98.7733 61.3812 99.29 61.7312 99.29 62.4312C99.29 63.1312 98.7733 63.4645 97.74 63.4312L95.17 63.3812Z" fill="white"/>
<path d="M102.58 58.5408L102.39 56.2808C102.391 55.8235 102.539 55.3787 102.81 55.0108C102.931 54.8251 103.097 54.6735 103.293 54.5702C103.489 54.467 103.709 54.4155 103.93 54.4208C104.123 54.4135 104.315 54.4535 104.489 54.5371C104.664 54.6207 104.815 54.7456 104.93 54.9008C105.154 55.2124 105.273 55.5871 105.27 55.9708C105.259 57.4405 104.881 58.8841 104.17 60.1708C103.437 61.5441 102.717 62.2308 102.01 62.2308C101.85 62.2317 101.696 62.1707 101.58 62.0608C101.522 62.0133 101.475 61.9538 101.442 61.8865C101.41 61.8192 101.392 61.7456 101.39 61.6708C101.515 61.246 101.707 60.8441 101.96 60.4808C102.339 59.9026 102.554 59.2318 102.58 58.5408V58.5408Z" fill="white"/>
<path d="M119.23 72.5202C119.241 73.1897 119.091 73.852 118.791 74.4509C118.492 75.0498 118.052 75.5676 117.51 75.9602C116.328 76.8591 114.875 77.3283 113.39 77.2902C111.924 77.3266 110.478 76.9451 109.22 76.1902C108.04 75.4569 107.45 74.7269 107.45 74.0002C107.439 73.7198 107.54 73.4465 107.73 73.2402C107.81 73.149 107.908 73.076 108.019 73.026C108.129 72.976 108.249 72.9501 108.37 72.9502C108.569 72.9417 108.767 72.9903 108.94 73.0902C109.157 73.2473 109.354 73.4284 109.53 73.6302C109.777 73.8969 110 74.1235 110.2 74.3102C110.564 74.5861 110.974 74.796 111.41 74.9302C111.949 75.1433 112.521 75.2585 113.1 75.2702C114.084 75.3099 115.059 75.067 115.91 74.5702C116.254 74.3645 116.538 74.0708 116.731 73.7193C116.924 73.3678 117.021 72.9712 117.01 72.5702C117.01 71.4969 115.977 70.5969 113.91 69.8702C113.063 69.5835 112.21 69.2669 111.35 68.9202C110.531 68.6061 109.785 68.126 109.16 67.5102C108.872 67.234 108.643 66.9016 108.488 66.5335C108.333 66.1654 108.256 65.7695 108.26 65.3702C108.271 64.7978 108.414 64.2356 108.677 63.7274C108.941 63.2192 109.318 62.7787 109.78 62.4402C110.829 61.5881 112.149 61.1409 113.5 61.1802C114.71 61.1205 115.914 61.3827 116.99 61.9402C117.85 62.4469 118.28 62.9802 118.28 63.5402C118.28 64.2069 117.917 64.5402 117.19 64.5402C116.851 64.5302 116.525 64.4109 116.26 64.2002C115.456 63.5869 114.481 63.2376 113.47 63.2002C112.701 63.1645 111.941 63.3746 111.3 63.8002C111.055 63.9457 110.85 64.1498 110.703 64.3942C110.557 64.6386 110.473 64.9155 110.46 65.2002C110.476 65.485 110.568 65.7604 110.726 65.9978C110.884 66.2351 111.103 66.4259 111.36 66.5502C112.054 66.958 112.788 67.2931 113.55 67.5502C114.41 67.8636 115.273 68.1969 116.14 68.5502C116.979 68.912 117.729 69.451 118.34 70.1302C118.935 70.7818 119.254 71.6384 119.23 72.5202V72.5202Z" fill="white"/>
<path d="M140.72 72.5212C140.738 73.1974 140.591 73.8678 140.291 74.4742C139.991 75.0805 139.548 75.6047 139 76.0012C137.818 76.9002 136.365 77.3693 134.88 77.3312C133.414 77.3676 131.968 76.9861 130.71 76.2312C129.53 75.4979 128.94 74.7679 128.94 74.0412C128.929 73.7608 129.03 73.4875 129.22 73.2812C129.3 73.1906 129.399 73.1179 129.509 73.0679C129.619 73.0179 129.739 72.9918 129.86 72.9912C130.059 72.9828 130.257 73.0313 130.43 73.1312C130.646 73.2883 130.844 73.4695 131.02 73.6712C131.267 73.9379 131.49 74.1646 131.69 74.3512C132.054 74.6271 132.463 74.837 132.9 74.9712C133.439 75.1844 134.011 75.2995 134.59 75.3112C135.574 75.3509 136.549 75.108 137.4 74.6112C137.744 74.4055 138.028 74.1118 138.221 73.7603C138.414 73.4088 138.511 73.0122 138.5 72.6112C138.5 71.5379 137.467 70.6379 135.4 69.9112C134.553 69.6246 133.7 69.3079 132.84 68.9612C132.021 68.6468 131.275 68.1668 130.65 67.5512C130.362 67.275 130.133 66.9426 129.978 66.5745C129.823 66.2064 129.746 65.8105 129.75 65.4112C129.761 64.8388 129.904 64.2766 130.167 63.7684C130.431 63.2602 130.808 62.8197 131.27 62.4812C132.319 61.6291 133.639 61.182 134.99 61.2212C136.2 61.1615 137.404 61.4237 138.48 61.9812C139.34 62.4879 139.77 63.0212 139.77 63.5812C139.77 64.2479 139.41 64.5812 138.69 64.5812C138.351 64.5712 138.025 64.4519 137.76 64.2412C136.956 63.6279 135.981 63.2786 134.97 63.2412C134.201 63.2055 133.441 63.4157 132.8 63.8412C132.555 63.9867 132.35 64.1908 132.203 64.4352C132.057 64.6796 131.973 64.9565 131.96 65.2412C131.976 65.5261 132.068 65.8014 132.226 66.0388C132.384 66.2761 132.603 66.4669 132.86 66.5912C133.554 66.999 134.288 67.3341 135.05 67.5912C135.91 67.9046 136.773 68.2379 137.64 68.5912C138.479 68.953 139.229 69.492 139.84 70.1712C140.421 70.8142 140.736 71.6545 140.72 72.5212V72.5212Z" fill="white"/>
<path d="M147.6 63.3812L147.54 70.7312C147.49 71.9658 147.567 73.2023 147.77 74.4212C147.83 74.6913 147.988 74.9296 148.213 75.0902C148.438 75.2509 148.715 75.3225 148.99 75.2912C149.386 75.266 149.772 75.1533 150.12 74.9612C150.392 74.8013 150.69 74.6897 151 74.6312C151.088 74.618 151.177 74.6253 151.261 74.6526C151.345 74.68 151.422 74.7265 151.485 74.7886C151.548 74.8507 151.596 74.9267 151.625 75.0104C151.653 75.0942 151.662 75.1835 151.65 75.2712C151.65 75.6978 151.267 76.1412 150.5 76.6012C149.826 77.0393 149.044 77.2816 148.24 77.3012C146.44 77.3012 145.54 75.9678 145.54 73.3012V63.3012C144.873 63.3612 144.397 63.3912 144.11 63.3912C143.077 63.3912 142.56 63.0578 142.56 62.3912C142.56 61.7245 143.077 61.3912 144.11 61.3912L145.47 61.4512L145.4 58.0012C145.4 56.9678 145.793 56.4512 146.58 56.4512C147.367 56.4512 147.76 56.9678 147.76 58.0012L147.67 61.5012L150.18 61.3812C151.213 61.3812 151.73 61.7312 151.73 62.4312C151.73 63.1312 151.213 63.4645 150.18 63.4312L147.6 63.3812Z" fill="white"/>
<path d="M166.86 69.4806C166.833 70.7559 166.947 72.0303 167.2 73.2806C167.427 74.2606 167.697 74.8139 168.01 74.9406C168.152 75.0064 168.304 75.047 168.46 75.0606C168.588 75.0684 168.713 75.0989 168.83 75.1506C168.87 75.178 168.901 75.2158 168.92 75.26C168.94 75.3041 168.947 75.3528 168.94 75.4006C168.963 75.8939 168.803 76.3784 168.49 76.7606C168.319 76.9442 168.109 77.0871 167.875 77.1788C167.641 77.2705 167.39 77.3087 167.14 77.2906C166.54 77.2906 166.073 76.9073 165.74 76.1406C165.376 75.201 165.206 74.1976 165.24 73.1906C164.732 74.3341 163.949 75.3339 162.96 76.1006C162.003 76.8711 160.809 77.2879 159.58 77.2806C158.38 77.3007 157.22 76.8564 156.34 76.0406C155.485 75.2022 154.821 74.1893 154.393 73.0711C153.965 71.9528 153.783 70.7555 153.86 69.5606C153.832 67.4262 154.538 65.347 155.86 63.6706C156.432 62.8831 157.185 62.2442 158.055 61.8075C158.925 61.3707 159.887 61.1489 160.86 61.1606C162.348 61.1479 163.782 61.7145 164.86 62.7406C164.86 61.6873 165.253 61.1606 166.04 61.1606C166.993 61.1606 167.47 61.8906 167.47 63.3506C167.416 65.4061 167.212 67.4549 166.86 69.4806V69.4806ZM165.06 69.7606L164.9 65.0006C164.402 64.459 163.802 64.0211 163.135 63.7122C162.467 63.4033 161.745 63.2294 161.01 63.2006C160.325 63.2086 159.652 63.3786 159.045 63.6967C158.439 64.0147 157.916 64.4718 157.52 65.0306C156.537 66.2791 156.02 67.8318 156.06 69.4206C156.004 70.8859 156.332 72.3405 157.01 73.6406C157.259 74.1387 157.641 74.5578 158.114 74.851C158.588 75.1442 159.133 75.2998 159.69 75.3006C160.297 75.2836 160.893 75.1364 161.438 74.869C161.984 74.6016 162.465 74.2202 162.85 73.7506C163.87 72.5988 164.625 71.2366 165.06 69.7606V69.7606Z" fill="white"/>
<path d="M174.7 69.8909L174.79 75.7209C174.79 76.7742 174.397 77.3009 173.61 77.3009C172.657 77.3009 172.18 76.5709 172.18 75.1109C172.237 73.0585 172.445 71.0131 172.8 68.9909C172.779 67.797 172.692 66.6052 172.54 65.4209C172.367 63.9142 172.28 62.9742 172.28 62.6009C172.275 62.24 172.391 61.8878 172.61 61.6009C172.715 61.4659 172.849 61.3567 173.002 61.2815C173.156 61.2064 173.324 61.1673 173.495 61.1673C173.666 61.1673 173.834 61.2064 173.988 61.2815C174.141 61.3567 174.275 61.4659 174.38 61.6009C174.593 61.8717 174.709 62.2062 174.71 62.5509C174.71 62.8909 174.71 63.3242 174.71 63.8509C174.71 64.3776 174.71 64.8176 174.71 65.1709C175.133 64.1039 175.797 63.149 176.65 62.3809C177.365 61.645 178.335 61.2118 179.36 61.1709C180.119 61.1235 180.874 61.3235 181.51 61.7409C181.724 61.8697 181.905 62.0474 182.037 62.2595C182.169 62.4715 182.249 62.7119 182.27 62.9609C182.286 63.325 182.164 63.6817 181.93 63.9609C181.819 64.0825 181.683 64.1786 181.531 64.2424C181.379 64.3063 181.215 64.3365 181.05 64.3309C180.6 64.2921 180.18 64.0893 179.87 63.7609C179.609 63.466 179.257 63.2656 178.87 63.1909C178.203 63.1909 177.407 63.9242 176.48 65.3909C175.593 66.7572 174.987 68.2872 174.7 69.8909V69.8909Z" fill="white"/>
<path d="M188.41 63.3812L188.35 70.7312C188.3 71.9658 188.377 73.2023 188.58 74.4212C188.64 74.6932 188.799 74.933 189.027 75.0939C189.254 75.2548 189.533 75.3251 189.81 75.2912C190.206 75.266 190.592 75.1533 190.94 74.9612C191.212 74.8013 191.51 74.6897 191.82 74.6312C191.908 74.618 191.997 74.6253 192.081 74.6526C192.165 74.68 192.242 74.7265 192.305 74.7886C192.368 74.8507 192.416 74.9267 192.445 75.0104C192.473 75.0942 192.482 75.1835 192.47 75.2712C192.47 75.6978 192.087 76.1412 191.32 76.6012C190.646 77.0393 189.864 77.2816 189.06 77.3012C187.26 77.3012 186.36 75.9678 186.36 73.3012V63.3012C185.693 63.3612 185.217 63.3912 184.93 63.3912C183.897 63.3912 183.38 63.0578 183.38 62.3912C183.38 61.7245 183.897 61.3912 184.93 61.3912L186.29 61.4512L186.2 58.0012C186.2 56.9678 186.593 56.4512 187.38 56.4512C188.167 56.4512 188.56 56.9678 188.56 58.0012L188.47 61.5012L190.98 61.3812C192.013 61.3812 192.53 61.7312 192.53 62.4312C192.53 63.1312 192.013 63.4645 190.98 63.4312L188.41 63.3812Z" fill="white"/>
<path d="M214.39 73.7914C214.903 73.7914 215.163 74.0647 215.17 74.6114C215.177 75.158 214.577 75.768 213.37 76.4414C212.218 77.0974 210.915 77.442 209.59 77.4414C208.564 77.4637 207.546 77.2602 206.608 76.8455C205.67 76.4308 204.834 75.8149 204.16 75.0414C202.755 73.4298 201.981 71.3642 201.981 69.2264C201.981 67.0885 202.755 65.0229 204.16 63.4114C204.887 62.6178 205.778 61.9921 206.77 61.5776C207.763 61.1632 208.835 60.9699 209.91 61.0114C211.122 60.9864 212.317 61.2905 213.37 61.8914C214.37 62.478 214.87 63.0813 214.87 63.7013C214.875 63.8517 214.85 64.0016 214.797 64.1423C214.744 64.2831 214.663 64.4119 214.56 64.5213C214.47 64.6213 214.361 64.702 214.239 64.7587C214.117 64.8154 213.984 64.8469 213.85 64.8514C213.494 64.81 213.164 64.6434 212.92 64.3813C212.024 63.5452 210.855 63.0621 209.63 63.0213C208.912 63.0266 208.205 63.1908 207.558 63.502C206.912 63.8132 206.342 64.2638 205.89 64.8214C204.823 66.0231 204.251 67.5847 204.29 69.1914C204.254 70.8083 204.829 72.3794 205.9 73.5913C206.389 74.1744 207.002 74.6412 207.693 74.9578C208.385 75.2744 209.139 75.4327 209.9 75.4214C211.192 75.3984 212.442 74.964 213.47 74.1814C213.735 73.9699 214.053 73.835 214.39 73.7914V73.7914Z" fill="white"/>
<path d="M221 69.8909L221.09 75.7209C221.09 76.7742 220.697 77.3009 219.91 77.3009C218.957 77.3009 218.48 76.5709 218.48 75.1109C218.537 73.0585 218.744 71.0131 219.1 68.9909C219.079 67.797 218.992 66.6052 218.84 65.4209C218.667 63.9142 218.58 62.9742 218.58 62.6009C218.575 62.24 218.691 61.8878 218.91 61.6009C219.015 61.4659 219.149 61.3567 219.302 61.2815C219.456 61.2064 219.624 61.1673 219.795 61.1673C219.966 61.1673 220.134 61.2064 220.288 61.2815C220.441 61.3567 220.575 61.4659 220.68 61.6009C220.893 61.8717 221.009 62.2062 221.01 62.5509C221.01 62.8909 221.01 63.3242 221.01 63.8509C221.01 64.3776 221.01 64.8176 221.01 65.1709C221.433 64.1039 222.097 63.149 222.95 62.3809C223.665 61.645 224.635 61.2118 225.66 61.1709C226.419 61.1235 227.174 61.3235 227.81 61.7409C228.024 61.8697 228.205 62.0474 228.337 62.2595C228.469 62.4715 228.549 62.7119 228.57 62.9609C228.585 63.325 228.464 63.6817 228.23 63.9609C228.119 64.0825 227.983 64.1786 227.831 64.2424C227.679 64.3063 227.515 64.3365 227.35 64.3309C226.9 64.2921 226.48 64.0893 226.17 63.7609C225.908 63.466 225.557 63.2656 225.17 63.1909C224.503 63.1909 223.707 63.9242 222.78 65.3909C221.893 66.7572 221.287 68.2872 221 69.8909V69.8909Z" fill="white"/>
<path d="M237.63 61.0012C239.111 60.9393 240.562 61.4394 241.69 62.4012C242.204 62.8528 242.611 63.4125 242.882 64.0402C243.154 64.6678 243.283 65.3478 243.26 66.0312C243.283 66.7221 243.114 67.4058 242.772 68.0062C242.429 68.6065 241.927 69.0999 241.32 69.4312C239.869 70.2458 238.223 70.647 236.56 70.5912C235.235 70.5615 233.915 70.4041 232.62 70.1212C232.72 71.5174 233.296 72.8372 234.25 73.8612C234.641 74.3383 235.13 74.7254 235.684 74.9964C236.238 75.2673 236.844 75.4156 237.46 75.4312C238.138 75.4437 238.813 75.3458 239.46 75.1412C239.943 74.9976 240.402 74.7819 240.82 74.5012C241.277 74.0447 241.836 73.7021 242.45 73.5012C242.564 73.4956 242.677 73.5131 242.784 73.5527C242.89 73.5922 242.988 73.6529 243.07 73.7312C243.145 73.8057 243.204 73.8946 243.243 73.9926C243.283 74.0906 243.302 74.1956 243.3 74.3012C243.3 74.8812 242.707 75.5479 241.52 76.3012C240.367 77.0365 239.027 77.4252 237.66 77.4212C236.69 77.4629 235.724 77.2808 234.836 76.8889C233.948 76.4969 233.163 75.9058 232.54 75.1612C231.284 73.6149 230.58 71.6932 230.54 69.7012C229.447 69.3679 228.9 68.8312 228.9 68.0912C228.893 67.9584 228.912 67.8254 228.956 67.7C229.001 67.5747 229.07 67.4595 229.16 67.3612C229.243 67.2765 229.343 67.2097 229.453 67.165C229.563 67.1203 229.681 67.0986 229.8 67.1012C230.127 67.1238 230.445 67.2195 230.73 67.3812C231.123 65.6297 232.024 64.033 233.32 62.7912C234.47 61.6587 236.016 61.0169 237.63 61.0012V61.0012ZM236.45 68.6312C237.609 68.686 238.763 68.4415 239.8 67.9212C240.17 67.753 240.485 67.4834 240.708 67.1436C240.931 66.8037 241.053 66.4076 241.06 66.0012C241.067 65.2247 240.774 64.4755 240.24 63.9112C239.936 63.6049 239.57 63.3677 239.166 63.2159C238.762 63.064 238.33 63.001 237.9 63.0312C237.25 63.0207 236.605 63.1521 236.011 63.4164C235.417 63.6806 234.888 64.0713 234.46 64.5612C233.539 65.5642 232.916 66.8039 232.66 68.1412C233.893 68.4893 235.169 68.661 236.45 68.6512V68.6312Z" fill="white"/>
<path d="M259.25 69.4801C259.223 70.7555 259.337 72.0298 259.59 73.2801C259.817 74.2601 260.087 74.8135 260.4 74.9401C260.542 75.0059 260.694 75.0465 260.85 75.0601C260.978 75.068 261.103 75.0985 261.22 75.1501C261.26 75.1775 261.291 75.2154 261.311 75.2595C261.33 75.3037 261.337 75.3524 261.33 75.4001C261.353 75.8935 261.193 76.3779 260.88 76.7601C260.709 76.9437 260.499 77.0866 260.265 77.1783C260.032 77.27 259.78 77.3082 259.53 77.2901C258.93 77.2901 258.463 76.9068 258.13 76.1401C257.766 75.2006 257.596 74.1971 257.63 73.1901C257.122 74.3336 256.339 75.3335 255.35 76.1001C254.403 76.8714 253.221 77.2949 252 77.3001C250.8 77.3202 249.64 76.8759 248.76 76.0601C247.905 75.2217 247.241 74.2089 246.813 73.0906C246.385 71.9724 246.203 70.775 246.28 69.5801C246.253 67.4457 246.959 65.3665 248.28 63.6901C248.852 62.9026 249.605 62.2637 250.475 61.827C251.345 61.3903 252.307 61.1684 253.28 61.1801C254.768 61.1675 256.202 61.7341 257.28 62.7601C257.28 61.7068 257.673 61.1801 258.46 61.1801C259.413 61.1801 259.89 61.9101 259.89 63.3701C259.825 65.4196 259.612 67.4617 259.25 69.4801V69.4801ZM257.45 69.7601L257.3 65.0001C256.802 64.4585 256.202 64.0206 255.535 63.7117C254.867 63.4028 254.145 63.2289 253.41 63.2001C252.725 63.2081 252.052 63.3781 251.445 63.6962C250.839 64.0142 250.316 64.4713 249.92 65.0301C248.937 66.2787 248.42 67.8314 248.46 69.4201C248.404 70.8855 248.732 72.34 249.41 73.6401C249.659 74.1383 250.041 74.5574 250.514 74.8505C250.988 75.1437 251.533 75.2994 252.09 75.3001C252.697 75.2831 253.293 75.1359 253.838 74.8685C254.384 74.6011 254.865 74.2197 255.25 73.7501C256.27 72.5983 257.025 71.2361 257.46 69.7601H257.45Z" fill="white"/>
<path d="M268.15 63.3812L268.09 70.7312C268.04 71.9658 268.117 73.2023 268.32 74.4212C268.38 74.6932 268.539 74.933 268.767 75.0939C268.994 75.2548 269.273 75.3251 269.55 75.2912C269.946 75.266 270.332 75.1533 270.68 74.9612C270.952 74.8013 271.25 74.6897 271.56 74.6312C271.648 74.618 271.737 74.6253 271.821 74.6526C271.905 74.68 271.982 74.7265 272.045 74.7886C272.108 74.8507 272.156 74.9267 272.185 75.0104C272.213 75.0942 272.222 75.1835 272.21 75.2712C272.21 75.6978 271.827 76.1412 271.06 76.6012C270.386 77.0393 269.604 77.2816 268.8 77.3012C267 77.3012 266.1 75.9678 266.1 73.3012V63.3012C265.433 63.3612 264.957 63.3912 264.67 63.3912C263.637 63.3912 263.12 63.0578 263.12 62.3912C263.12 61.7245 263.637 61.3912 264.67 61.3912L266.03 61.4512L266 58.0012C266 56.9678 266.393 56.4512 267.18 56.4512C267.967 56.4512 268.343 56.9678 268.31 58.0012L268.22 61.5012L270.73 61.3812C271.763 61.3812 272.28 61.7312 272.28 62.4312C272.28 63.1312 271.763 63.4645 270.73 63.4312L268.15 63.3812Z" fill="white"/>
<path d="M276.56 54.5104C276.749 54.49 276.939 54.5178 277.114 54.5913C277.289 54.6647 277.443 54.7814 277.56 54.9304C277.774 55.2376 277.883 55.6061 277.87 55.9804C277.86 56.4377 277.71 56.8809 277.44 57.2504C277.33 57.4409 277.173 57.5998 276.984 57.7119C276.795 57.824 276.58 57.8855 276.36 57.8904C276.171 57.9078 275.98 57.8776 275.805 57.8025C275.631 57.7274 275.478 57.6098 275.36 57.4604C275.126 57.1239 275.01 56.7196 275.03 56.3104C275.023 55.8499 275.183 55.4024 275.48 55.0504C275.607 54.8844 275.771 54.7496 275.958 54.656C276.145 54.5625 276.351 54.5127 276.56 54.5104V54.5104ZM277.43 69.2404L277.58 75.7504C277.58 76.7837 277.187 77.3004 276.4 77.3004C275.613 77.3004 275.22 76.7837 275.22 75.7504L275.38 69.2404L275.22 62.7304C275.22 61.6971 275.613 61.1804 276.4 61.1804C277.187 61.1804 277.58 61.6971 277.58 62.7304L277.43 69.2404Z" fill="white"/>
<path d="M295.25 67.2203L295.1 72.0903C295.1 72.6703 295.1 73.1103 295.1 73.4103C295.115 73.7283 295.179 74.0419 295.29 74.3403C295.317 74.4615 295.369 74.5761 295.441 74.6774C295.513 74.7787 295.604 74.8646 295.71 74.9303C295.872 75.0023 296.044 75.0495 296.22 75.0703C296.348 75.0782 296.473 75.1086 296.59 75.1603C296.63 75.1877 296.661 75.2256 296.68 75.2697C296.7 75.3139 296.707 75.3625 296.7 75.4103C296.715 75.9101 296.532 76.3955 296.19 76.7603C296.041 76.9295 295.858 77.0651 295.653 77.1582C295.448 77.2513 295.225 77.2998 295 77.3003C294.666 77.3293 294.331 77.2558 294.04 77.0896C293.749 76.9235 293.515 76.6726 293.37 76.3703C293.025 75.5033 292.872 74.5721 292.92 73.6403L293.04 67.9303C293.095 66.7284 292.781 65.5384 292.14 64.5203C291.87 64.1069 291.498 63.7701 291.06 63.5424C290.623 63.3147 290.133 63.2037 289.64 63.2203C289.027 63.2676 288.433 63.451 287.9 63.7572C287.367 64.0634 286.909 64.4847 286.56 64.9903C285.576 66.1509 284.865 67.5179 284.48 68.9903L284.57 75.7203C284.57 76.7736 284.177 77.3003 283.39 77.3003C282.437 77.3003 281.96 76.5703 281.96 75.1103C282.017 73.0579 282.224 71.0125 282.58 68.9903C282.558 67.7865 282.471 66.5848 282.32 65.3903C282.147 63.8636 282.06 62.917 282.06 62.5503C282.047 62.1883 282.164 61.8337 282.39 61.5503C282.497 61.4187 282.632 61.3125 282.785 61.2396C282.938 61.1667 283.105 61.1289 283.275 61.1289C283.445 61.1289 283.612 61.1667 283.765 61.2396C283.918 61.3125 284.053 61.4187 284.16 61.5503C284.376 61.8196 284.493 62.1551 284.49 62.5003C284.49 62.8536 284.49 63.2836 284.49 63.7903C284.49 64.297 284.49 64.727 284.49 65.0803C285.997 62.4536 287.857 61.1403 290.07 61.1403C290.805 61.1051 291.538 61.2475 292.206 61.5557C292.875 61.8638 293.459 62.3284 293.91 62.9103C294.834 64.1525 295.307 65.673 295.25 67.2203V67.2203Z" fill="white"/>
<path d="M310.42 62.6301C310.46 61.6567 310.853 61.1701 311.6 61.1701C312.553 61.1701 313.03 61.9001 313.03 63.3601C312.973 65.4124 312.765 67.4579 312.41 69.4801C312.657 72.0001 312.78 73.8801 312.78 75.1201C312.895 77.4495 312.222 79.7498 310.87 81.6501C310.243 82.4622 309.429 83.1108 308.498 83.5409C307.566 83.9709 306.545 84.1696 305.52 84.1201C304.267 84.127 303.027 83.8572 301.89 83.3301C300.75 82.8034 300.18 82.2767 300.18 81.7501C300.18 81.2234 300.417 80.9601 300.89 80.9601C301.445 81.0818 301.983 81.2734 302.49 81.5301C303.44 81.9235 304.462 82.1175 305.49 82.1001C306.244 82.1296 306.993 81.9757 307.674 81.6518C308.355 81.3278 308.947 80.8434 309.4 80.2401C310.402 78.8421 310.905 77.1483 310.83 75.4301C310.833 74.6838 310.779 73.9384 310.67 73.2001C310.197 74.3389 309.431 75.3324 308.45 76.0801C307.567 76.8341 306.451 77.2613 305.29 77.2901C304.315 77.3215 303.351 77.0753 302.51 76.5801C301.754 76.1133 301.117 75.4764 300.65 74.7201C299.694 73.08 299.21 71.2079 299.25 69.3101C299.251 67.25 299.993 65.2589 301.34 63.7001C301.947 62.9088 302.728 62.2686 303.623 61.8297C304.518 61.3908 305.503 61.165 306.5 61.1701C307.941 61.1598 309.336 61.6794 310.42 62.6301V62.6301ZM310.48 69.7301V65.0001C310.013 64.4519 309.437 64.0082 308.787 63.6981C308.137 63.3879 307.43 63.2182 306.71 63.2001C306.008 63.2113 305.318 63.384 304.694 63.7048C304.07 64.0256 303.528 64.486 303.11 65.0501C302.091 66.2751 301.547 67.8267 301.58 69.4201C301.539 70.8836 301.884 72.3321 302.58 73.6201C302.819 74.1199 303.195 74.5419 303.664 74.8374C304.133 75.1328 304.676 75.2898 305.23 75.2901C305.833 75.2683 306.425 75.1158 306.964 74.843C307.502 74.5702 307.975 74.1836 308.35 73.7101C309.34 72.5537 310.067 71.1956 310.48 69.7301V69.7301Z" fill="white"/>
<path d="M46.3801 104.431L46.2201 109.301C46.2201 109.881 46.2201 110.321 46.2201 110.621C46.2351 110.939 46.2992 111.253 46.4101 111.551C46.4376 111.672 46.4889 111.787 46.561 111.888C46.6331 111.99 46.7245 112.076 46.8301 112.141C46.9921 112.213 47.164 112.26 47.3401 112.281C47.4678 112.289 47.593 112.32 47.7101 112.371C47.7498 112.399 47.7811 112.436 47.8005 112.481C47.82 112.525 47.8267 112.573 47.8201 112.621C47.8353 113.121 47.6519 113.606 47.3101 113.971C47.1613 114.14 46.9783 114.276 46.7731 114.369C46.568 114.462 46.3454 114.511 46.1201 114.511C45.7861 114.54 45.4512 114.467 45.16 114.301C44.8688 114.134 44.6351 113.884 44.4901 113.581C44.1453 112.714 43.9918 111.783 44.0401 110.851L44.1601 105.141C44.2154 103.939 43.9013 102.749 43.2601 101.731C42.9903 101.318 42.6185 100.981 42.1806 100.753C41.7427 100.526 41.2534 100.415 40.7601 100.431C40.1456 100.477 39.5492 100.66 39.0145 100.966C38.4798 101.272 38.0205 101.694 37.6701 102.201C36.6856 103.362 35.9748 104.729 35.5901 106.201L35.6801 112.931C35.6801 113.985 35.2867 114.511 34.5001 114.511C33.5467 114.511 33.0701 113.781 33.0701 112.321C33.1273 110.269 33.3345 108.223 33.6901 106.201C33.6679 104.997 33.5811 103.796 33.4301 102.601C33.2567 101.075 33.1701 100.128 33.1701 99.7612C33.1574 99.3992 33.2744 99.0446 33.5001 98.7612C33.607 98.6296 33.7419 98.5235 33.895 98.4506C34.0481 98.3777 34.2155 98.3398 34.3851 98.3398C34.5546 98.3398 34.7221 98.3777 34.8752 98.4506C35.0283 98.5235 35.1632 98.6296 35.2701 98.7612C35.4861 99.0305 35.6027 99.3661 35.6001 99.7113C35.6001 100.065 35.6001 100.495 35.6001 101.001C35.6001 101.508 35.6001 101.938 35.6001 102.291C37.1067 99.6646 38.9667 98.3513 41.1801 98.3513C41.9145 98.3228 42.645 98.4714 43.3099 98.7847C43.9748 99.098 44.5545 99.5667 45.0001 100.151C45.9322 101.38 46.4188 102.889 46.3801 104.431V104.431Z" fill="white"/>
<path d="M58.52 98.2297C60.0014 98.1678 61.4516 98.6679 62.58 99.6298C63.0935 100.081 63.5006 100.641 63.7721 101.269C64.0436 101.896 64.1726 102.576 64.15 103.26C64.1734 103.951 64.0044 104.634 63.6619 105.235C63.3193 105.835 62.8166 106.328 62.21 106.66C60.7592 107.474 59.1129 107.876 57.45 107.82C56.1246 107.79 54.8052 107.633 53.51 107.35C53.6112 108.746 54.1863 110.065 55.14 111.09C55.5312 111.566 56.0203 111.953 56.5742 112.224C57.128 112.495 57.7337 112.643 58.35 112.66C59.028 112.672 59.7035 112.574 60.35 112.37C60.833 112.226 61.2915 112.01 61.71 111.73C62.1674 111.273 62.7258 110.931 63.34 110.73C63.4535 110.724 63.567 110.742 63.6736 110.781C63.7802 110.821 63.8776 110.881 63.96 110.96C64.0349 111.034 64.094 111.123 64.1335 111.221C64.1731 111.319 64.1923 111.424 64.19 111.53C64.19 112.11 63.5967 112.776 62.41 113.53C61.2571 114.265 59.9174 114.654 58.55 114.65C57.5803 114.691 56.6141 114.509 55.7262 114.117C54.8383 113.725 54.0526 113.134 53.43 112.39C52.1735 110.843 51.4696 108.922 51.43 106.93C50.3367 106.596 49.79 106.06 49.79 105.32C49.7826 105.187 49.8018 105.054 49.8464 104.929C49.8911 104.803 49.9603 104.688 50.05 104.59C50.1333 104.505 50.233 104.438 50.3431 104.394C50.4532 104.349 50.5712 104.327 50.69 104.33C51.0171 104.352 51.3349 104.448 51.62 104.61C51.984 102.861 52.8533 101.259 54.12 99.9997C55.296 98.8527 56.8773 98.2166 58.52 98.2297V98.2297ZM57.34 105.86C58.4991 105.915 59.6528 105.67 60.69 105.15C61.06 104.982 61.3748 104.712 61.5978 104.372C61.8208 104.032 61.943 103.636 61.95 103.23C61.9575 102.453 61.6635 101.704 61.13 101.14C60.8262 100.833 60.4599 100.596 60.056 100.444C59.6522 100.293 59.2204 100.23 58.79 100.26C58.1398 100.249 57.4952 100.381 56.9011 100.645C56.3069 100.909 55.7776 101.3 55.35 101.79C54.4291 102.793 53.8059 104.032 53.55 105.37C54.7839 105.711 56.0599 105.876 57.34 105.86V105.86Z" fill="white"/>
<path d="M72.77 111.72C72.9567 111.72 73.6234 109.756 74.77 105.83C75.9167 101.903 76.5567 99.7929 76.69 99.4995C76.7647 99.187 76.9405 98.9079 77.19 98.7054C77.4395 98.5029 77.7488 98.3883 78.07 98.3795C78.3802 98.382 78.6803 98.4905 78.9204 98.6869C79.1605 98.8833 79.3262 99.156 79.39 99.4595C79.6167 100.16 79.9267 101.246 80.32 102.72C80.7134 104.193 81.0034 105.246 81.19 105.88C82.33 109.766 82.9967 111.71 83.19 111.71C83.3834 111.71 84.05 109.776 85.19 105.91C85.4567 105.023 85.79 103.813 86.19 102.28C86.59 100.746 86.8367 99.8462 86.93 99.5795C87.1767 98.7729 87.56 98.3695 88.08 98.3695C88.3689 98.3621 88.6503 98.4618 88.87 98.6495C88.9724 98.7287 89.0554 98.8302 89.1126 98.9463C89.1698 99.0625 89.1997 99.1901 89.2 99.3195C89.201 99.5585 89.1742 99.7968 89.12 100.03C89.0667 100.25 88.9734 100.56 88.84 100.96C88.7067 101.36 88.5667 101.79 88.42 102.25C88.2734 102.703 88.06 103.34 87.78 104.16C87.5 104.98 87.02 106.463 86.34 108.61C85.6734 110.756 85.1367 112.326 84.73 113.32C84.6156 113.678 84.3857 113.988 84.0763 114.201C83.7669 114.415 83.3954 114.52 83.02 114.5C82.1934 114.5 81.5934 113.963 81.22 112.89C80.4734 110.743 79.76 108.473 79.08 106.08C78.4 103.686 77.9767 102.493 77.81 102.5C77.6634 102.5 77.4734 102.906 77.24 103.72L76.68 105.64C76.5467 106.106 76.46 106.423 76.42 106.59C75.8281 108.91 75.0831 111.188 74.19 113.41C74.051 113.745 73.8124 114.029 73.5066 114.224C73.2008 114.419 72.8424 114.515 72.48 114.5C71.6934 114.5 71.1034 113.93 70.71 112.79C70.5634 112.376 70.27 111.486 69.83 110.12C69.39 108.753 69.0267 107.653 68.74 106.82C68.46 105.98 68.18 105.17 67.9 104.39L67.23 102.53C67.0634 102.076 66.9067 101.633 66.76 101.2C66.5489 100.651 66.4143 100.075 66.36 99.4895C66.3542 99.3388 66.3807 99.1886 66.4376 99.0489C66.4945 98.9092 66.5806 98.7833 66.69 98.6795C66.7946 98.5781 66.9183 98.4985 67.0539 98.4453C67.1896 98.3921 67.3344 98.3663 67.48 98.3695C68.08 98.3695 68.4934 98.7295 68.72 99.4495C68.8 99.6962 69.0734 100.6 69.54 102.16C70.0067 103.72 70.34 104.816 70.54 105.45L71.14 107.39C71.3467 108.056 71.5167 108.593 71.65 109C71.7834 109.406 71.9334 109.85 72.1 110.33C72.44 111.256 72.6634 111.72 72.77 111.72Z" fill="white"/>
<path d="M100 108.311V107.131V106.631C99.9715 105.357 99.878 104.085 99.72 102.821C99.5334 101.148 99.44 100.131 99.44 99.771C99.4274 99.409 99.5444 99.0544 99.77 98.771C99.8769 98.6394 100.012 98.5332 100.165 98.4603C100.318 98.3874 100.485 98.3496 100.655 98.3496C100.825 98.3496 100.992 98.3874 101.145 98.4603C101.298 98.5332 101.433 98.6394 101.54 98.771C101.756 99.0403 101.873 99.3758 101.87 99.721C101.87 100.074 101.87 100.514 101.87 101.041C101.87 101.568 101.87 102.008 101.87 102.361C102.438 101.241 103.216 100.24 104.16 99.411C105.097 98.6814 106.263 98.3092 107.45 98.361C108.73 98.3339 109.973 98.7993 110.92 99.661C111.853 100.471 112.568 101.503 113 102.661C113.405 103.753 113.615 104.907 113.62 106.071C113.675 108.21 112.966 110.298 111.62 111.961C111.003 112.76 110.208 113.402 109.298 113.838C108.388 114.274 107.389 114.491 106.38 114.471C104.787 114.456 103.243 113.922 101.98 112.951C101.94 115.451 101.92 117.308 101.92 118.521C101.991 119.298 101.885 120.081 101.61 120.811C101.504 120.976 101.354 121.108 101.178 121.192C101.001 121.277 100.805 121.311 100.61 121.291C100.401 121.293 100.195 121.246 100.009 121.152C99.8228 121.058 99.662 120.92 99.54 120.751C99.2305 120.288 99.0828 119.736 99.12 119.181C99.12 118.514 99.16 117.704 99.24 116.751C99.32 115.798 99.4434 114.558 99.61 113.031C99.7767 111.491 99.91 110.101 100.01 108.861L100 108.311ZM109.81 110.671C110.805 109.465 111.337 107.944 111.31 106.381C111.352 104.9 110.974 103.437 110.22 102.161C109.934 101.628 109.508 101.184 108.989 100.876C108.469 100.567 107.874 100.407 107.27 100.411C105.097 100.411 103.31 102.198 101.91 105.771V110.701C102.486 111.279 103.172 111.737 103.928 112.046C104.684 112.355 105.494 112.51 106.31 112.501C106.999 112.489 107.677 112.317 108.288 111.998C108.899 111.678 109.427 111.221 109.83 110.661L109.81 110.671Z" fill="white"/>
<path d="M129.57 106.69C129.543 107.965 129.657 109.239 129.91 110.49C130.137 111.47 130.407 112.023 130.72 112.15C130.862 112.215 131.014 112.256 131.17 112.27C131.298 112.277 131.423 112.308 131.54 112.36C131.58 112.387 131.611 112.425 131.631 112.469C131.65 112.513 131.657 112.562 131.65 112.61C131.673 113.103 131.513 113.587 131.2 113.97C131.029 114.154 130.819 114.297 130.586 114.389C130.352 114.481 130.1 114.518 129.85 114.5C129.25 114.5 128.783 114.116 128.45 113.35C128.086 112.41 127.916 111.407 127.95 110.4C127.442 111.543 126.659 112.543 125.67 113.31C124.713 114.08 123.519 114.497 122.29 114.49C121.091 114.51 119.93 114.065 119.05 113.25C118.195 112.411 117.531 111.398 117.103 110.28C116.675 109.162 116.493 107.964 116.57 106.77C116.543 104.635 117.249 102.556 118.57 100.88C119.142 100.092 119.895 99.4532 120.765 99.0164C121.635 98.5797 122.597 98.3579 123.57 98.3696C125.058 98.3569 126.492 98.9235 127.57 99.9496C127.57 98.8962 127.963 98.3696 128.75 98.3696C129.703 98.3696 130.18 99.0996 130.18 100.56C130.127 102.615 129.923 104.664 129.57 106.69V106.69ZM127.77 106.97L127.62 102.2C127.122 101.658 126.522 101.22 125.855 100.911C125.187 100.602 124.465 100.428 123.73 100.4C123.045 100.408 122.372 100.578 121.765 100.896C121.159 101.214 120.636 101.671 120.24 102.23C119.257 103.478 118.74 105.031 118.78 106.62C118.724 108.085 119.052 109.539 119.73 110.84C119.979 111.338 120.361 111.757 120.834 112.05C121.308 112.343 121.853 112.499 122.41 112.5C123.017 112.483 123.613 112.335 124.158 112.068C124.704 111.801 125.185 111.419 125.57 110.95C126.582 109.808 127.332 108.46 127.77 107V106.97Z" fill="white"/>
<path d="M145.26 99.8409C145.3 98.8675 145.693 98.3809 146.44 98.3809C147.393 98.3809 147.87 99.1109 147.87 100.571C147.813 102.623 147.605 104.669 147.25 106.691C147.497 109.211 147.62 111.091 147.62 112.331C147.735 114.66 147.062 116.961 145.71 118.861C145.083 119.673 144.269 120.322 143.338 120.752C142.406 121.182 141.385 121.38 140.36 121.331C139.107 121.338 137.867 121.068 136.73 120.541C135.577 120.014 135 119.501 135 119.001C135 118.501 135.237 118.238 135.71 118.211C136.265 118.333 136.803 118.524 137.31 118.781C138.26 119.174 139.282 119.368 140.31 119.351C141.064 119.38 141.813 119.227 142.494 118.903C143.175 118.579 143.767 118.094 144.22 117.491C145.222 116.093 145.725 114.399 145.65 112.681C145.653 111.935 145.599 111.189 145.49 110.451C145.017 111.59 144.251 112.583 143.27 113.331C142.387 114.085 141.271 114.512 140.11 114.541C139.135 114.572 138.171 114.326 137.33 113.831C136.574 113.364 135.937 112.727 135.47 111.971C134.514 110.331 134.03 108.459 134.07 106.561C134.071 104.501 134.813 102.51 136.16 100.951C136.767 100.16 137.548 99.5194 138.443 99.0805C139.338 98.6415 140.323 98.4158 141.32 98.4209C142.763 98.3946 144.166 98.9 145.26 99.8409V99.8409ZM145.32 106.941V102.201C144.854 101.653 144.277 101.209 143.627 100.899C142.977 100.589 142.27 100.419 141.55 100.401C140.848 100.412 140.158 100.585 139.534 100.906C138.91 101.226 138.368 101.687 137.95 102.251C136.931 103.476 136.387 105.028 136.42 106.621C136.379 108.084 136.724 109.533 137.42 110.821C137.659 111.321 138.035 111.743 138.504 112.038C138.973 112.334 139.516 112.491 140.07 112.491C140.674 112.469 141.265 112.317 141.804 112.044C142.342 111.771 142.815 111.384 143.19 110.911C144.179 109.757 144.906 108.403 145.32 106.941V106.941Z" fill="white"/>
<path d="M159.54 98.2297C161.021 98.1678 162.472 98.6679 163.6 99.6298C164.114 100.081 164.521 100.641 164.792 101.269C165.064 101.896 165.193 102.576 165.17 103.26C165.193 103.951 165.024 104.634 164.682 105.235C164.339 105.835 163.837 106.328 163.23 106.66C161.779 107.474 160.133 107.876 158.47 107.82C157.145 107.79 155.825 107.633 154.53 107.35C154.63 108.746 155.206 110.066 156.16 111.09C156.551 111.567 157.04 111.954 157.594 112.225C158.148 112.496 158.754 112.644 159.37 112.66C160.048 112.672 160.724 112.574 161.37 112.37C161.853 112.226 162.312 112.01 162.73 111.73C163.187 111.273 163.746 110.931 164.36 110.73C164.474 110.724 164.587 110.742 164.694 110.781C164.8 110.821 164.898 110.881 164.98 110.96C165.055 111.034 165.114 111.123 165.154 111.221C165.193 111.319 165.212 111.424 165.21 111.53C165.21 112.11 164.617 112.776 163.43 113.53C162.277 114.265 160.937 114.654 159.57 114.65C158.6 114.691 157.634 114.509 156.746 114.117C155.858 113.725 155.073 113.134 154.45 112.39C153.194 110.843 152.49 108.922 152.45 106.93C151.357 106.596 150.81 106.06 150.81 105.32C150.803 105.187 150.822 105.054 150.866 104.929C150.911 104.803 150.98 104.688 151.07 104.59C151.153 104.505 151.253 104.438 151.363 104.394C151.473 104.349 151.591 104.327 151.71 104.33C152.037 104.352 152.355 104.448 152.64 104.61C153.033 102.858 153.934 101.262 155.23 100.02C156.38 98.8872 157.926 98.2454 159.54 98.2297V98.2297ZM158.36 105.86C159.519 105.915 160.673 105.67 161.71 105.15C162.08 104.982 162.395 104.712 162.618 104.372C162.841 104.032 162.963 103.636 162.97 103.23C162.978 102.453 162.684 101.704 162.15 101.14C161.846 100.833 161.48 100.596 161.076 100.444C160.672 100.293 160.24 100.23 159.81 100.26C159.16 100.249 158.515 100.381 157.921 100.645C157.327 100.909 156.798 101.3 156.37 101.79C155.449 102.793 154.826 104.032 154.57 105.37C155.804 105.711 157.08 105.876 158.36 105.86V105.86Z" fill="white"/>
<path d="M189.72 106.1C189.748 108.234 189.041 110.313 187.72 111.99C187.148 112.777 186.395 113.416 185.525 113.853C184.655 114.289 183.693 114.511 182.72 114.5C181.232 114.512 179.798 113.946 178.72 112.92C178.72 113.973 178.327 114.5 177.54 114.5C176.587 114.5 176.11 113.77 176.11 112.31C176.167 110.257 176.374 108.212 176.73 106.19C176.73 104.783 176.637 102.116 176.45 98.1895C176.263 94.2629 176.17 92.1595 176.17 91.8795C176.177 91.5572 176.293 91.2469 176.5 90.9995C176.607 90.8679 176.742 90.7617 176.895 90.6888C177.048 90.6159 177.215 90.5781 177.385 90.5781C177.555 90.5781 177.722 90.6159 177.875 90.6888C178.028 90.7617 178.163 90.8679 178.27 90.9995C178.504 91.3286 178.62 91.7265 178.6 92.1295V102C179.135 100.971 179.906 100.084 180.85 99.4095C181.792 98.7397 182.924 98.3892 184.08 98.4095C185.252 98.3939 186.383 98.8392 187.23 99.6495C188.085 100.482 188.751 101.489 189.18 102.602C189.61 103.715 189.794 104.908 189.72 106.1ZM182.57 112.49C183.255 112.482 183.928 112.312 184.535 111.993C185.141 111.675 185.664 111.218 186.06 110.66C187.043 109.411 187.56 107.858 187.52 106.27C187.576 104.804 187.248 103.35 186.57 102.05C186.321 101.551 185.939 101.132 185.466 100.839C184.992 100.546 184.447 100.39 183.89 100.39C183.283 100.407 182.687 100.554 182.142 100.821C181.596 101.089 181.115 101.47 180.73 101.94C179.712 103.095 178.961 104.461 178.53 105.94L178.69 110.71C179.189 111.248 179.79 111.682 180.458 111.987C181.125 112.293 181.846 112.463 182.58 112.49H182.57Z" fill="white"/>
<path d="M204.17 106.691L204.08 99.9609C204.08 98.9075 204.473 98.3809 205.26 98.3809C206.213 98.3809 206.69 99.1575 206.69 100.711C206.611 102.723 206.394 104.728 206.04 106.711C206.287 109.231 206.41 111.111 206.41 112.351C206.522 114.694 205.815 117.002 204.41 118.881C203.739 119.701 202.884 120.352 201.915 120.781C200.945 121.21 199.889 121.405 198.83 121.351C197.577 121.358 196.337 121.088 195.2 120.561C194.06 120.034 193.49 119.508 193.49 118.981C193.49 118.454 193.727 118.191 194.2 118.191C194.794 118.31 195.372 118.502 195.92 118.761C196.84 119.138 197.826 119.332 198.82 119.331C199.605 119.366 200.386 119.216 201.102 118.893C201.818 118.57 202.448 118.083 202.94 117.471C203.998 116.097 204.536 114.393 204.46 112.661C204.46 111.934 204.43 111.231 204.37 110.551C202.843 113.218 200.92 114.551 198.6 114.551C197.856 114.587 197.115 114.437 196.443 114.116C195.771 113.795 195.189 113.312 194.75 112.711C193.816 111.396 193.339 109.812 193.39 108.201L193.58 103.521C193.585 102.744 193.501 101.969 193.33 101.211C193.196 100.71 193.112 100.198 193.08 99.6808C193.083 99.5218 193.117 99.3649 193.18 99.219C193.244 99.0732 193.336 98.9413 193.45 98.8309C193.578 98.6968 193.734 98.5924 193.907 98.525C194.08 98.4576 194.265 98.4289 194.45 98.4409C195.403 98.4409 195.88 99.2875 195.88 100.981L195.63 107.801C195.578 109.009 195.891 110.204 196.53 111.231C196.797 111.649 197.167 111.99 197.606 112.221C198.044 112.453 198.535 112.566 199.03 112.551C199.645 112.504 200.242 112.32 200.777 112.012C201.312 111.704 201.771 111.28 202.12 110.771C203.1 109.582 203.801 108.187 204.17 106.691V106.691Z" fill="white"/>
<path d="M230 111C230.513 111 230.773 111.274 230.78 111.82C230.787 112.367 230.187 112.977 228.98 113.65C227.828 114.306 226.525 114.651 225.2 114.65C224.174 114.673 223.156 114.469 222.218 114.054C221.28 113.64 220.444 113.024 219.77 112.25C218.365 110.639 217.591 108.573 217.591 106.435C217.591 104.297 218.365 102.232 219.77 100.62C220.497 99.8268 221.387 99.2011 222.38 98.7866C223.373 98.3721 224.445 98.1789 225.52 98.2203C226.732 98.1953 227.927 98.4995 228.98 99.1003C229.98 99.687 230.48 100.29 230.48 100.91C230.485 101.061 230.46 101.211 230.407 101.351C230.354 101.492 230.273 101.621 230.17 101.73C230.08 101.83 229.971 101.911 229.849 101.968C229.727 102.024 229.594 102.056 229.46 102.06C229.104 102.019 228.774 101.852 228.53 101.59C227.634 100.754 226.465 100.271 225.24 100.23C224.522 100.236 223.815 100.4 223.168 100.711C222.522 101.022 221.952 101.473 221.5 102.03C220.433 103.232 219.861 104.794 219.9 106.4C219.864 108.017 220.439 109.588 221.51 110.8C221.999 111.383 222.612 111.85 223.303 112.167C223.995 112.483 224.749 112.642 225.51 112.63C226.802 112.607 228.052 112.173 229.08 111.39C229.345 111.179 229.663 111.044 230 111Z" fill="white"/>
<path d="M247.27 104.431L247.12 109.301C247.12 109.881 247.12 110.321 247.12 110.621C247.135 110.939 247.199 111.253 247.31 111.551C247.337 111.672 247.389 111.787 247.461 111.888C247.533 111.99 247.624 112.076 247.73 112.141C247.892 112.213 248.064 112.26 248.24 112.281C248.368 112.289 248.493 112.32 248.61 112.371C248.65 112.399 248.681 112.436 248.7 112.481C248.72 112.525 248.727 112.573 248.72 112.621C248.735 113.121 248.552 113.606 248.21 113.971C248.061 114.14 247.878 114.276 247.673 114.369C247.468 114.462 247.245 114.511 247.02 114.511C246.686 114.54 246.351 114.467 246.06 114.301C245.769 114.134 245.535 113.884 245.39 113.581C245.045 112.714 244.892 111.783 244.94 110.851L245.06 105.141C245.115 103.939 244.801 102.749 244.16 101.731C243.89 101.318 243.518 100.981 243.081 100.753C242.643 100.526 242.153 100.415 241.66 100.431C241.047 100.479 240.453 100.662 239.92 100.968C239.387 101.274 238.929 101.696 238.58 102.201C237.596 103.362 236.885 104.729 236.5 106.201L236.59 112.931C236.59 113.985 236.197 114.511 235.41 114.511C234.457 114.511 233.98 113.781 233.98 112.321C234.037 110.269 234.244 108.223 234.6 106.201C234.6 104.795 234.507 102.128 234.32 98.2012C234.133 94.2746 234.04 92.1713 234.04 91.8913C234.047 91.569 234.163 91.2586 234.37 91.0112C234.477 90.8796 234.612 90.7735 234.765 90.7006C234.918 90.6277 235.085 90.5898 235.255 90.5898C235.425 90.5898 235.592 90.6277 235.745 90.7006C235.898 90.7735 236.033 90.8796 236.14 91.0112C236.374 91.3403 236.49 91.7382 236.47 92.1413V102.281C237.977 99.6546 239.837 98.3412 242.05 98.3412C242.785 98.306 243.518 98.4485 244.186 98.7566C244.855 99.0647 245.439 99.5294 245.89 100.111C246.831 101.351 247.318 102.876 247.27 104.431V104.431Z" fill="white"/>
<path d="M258.57 98.2305C259.562 98.2069 260.547 98.4078 261.451 98.8182C262.355 99.2285 263.155 99.8378 263.79 100.601C265.125 102.25 265.853 104.308 265.853 106.431C265.853 108.553 265.125 110.611 263.79 112.261C263.141 113.01 262.339 113.611 261.437 114.023C260.536 114.435 259.556 114.649 258.565 114.649C257.574 114.649 256.594 114.435 255.693 114.023C254.791 113.611 253.989 113.01 253.34 112.261C252.011 110.608 251.286 108.551 251.286 106.431C251.286 104.31 252.011 102.253 253.34 100.601C253.977 99.837 254.778 99.2274 255.684 98.817C256.589 98.4066 257.576 98.2061 258.57 98.2305V98.2305ZM262.14 110.821C263.103 109.565 263.631 108.028 263.641 106.446C263.652 104.863 263.146 103.32 262.2 102.051C261.787 101.49 261.248 101.034 260.626 100.722C260.004 100.409 259.316 100.247 258.62 100.251C257.913 100.252 257.216 100.419 256.584 100.736C255.953 101.054 255.403 101.514 254.98 102.081C254.017 103.336 253.489 104.873 253.479 106.455C253.468 108.038 253.974 109.581 254.92 110.851C255.333 111.411 255.872 111.867 256.494 112.179C257.116 112.492 257.804 112.654 258.5 112.651C259.207 112.649 259.904 112.482 260.536 112.165C261.167 111.847 261.717 111.387 262.14 110.821V110.821Z" fill="white"/>
<path d="M276 98.2305C276.992 98.2069 277.977 98.4078 278.881 98.8182C279.785 99.2285 280.585 99.8378 281.22 100.601C282.555 102.25 283.283 104.308 283.283 106.431C283.283 108.553 282.555 110.611 281.22 112.261C280.571 113.01 279.769 113.611 278.867 114.023C277.966 114.435 276.986 114.649 275.995 114.649C275.004 114.649 274.024 114.435 273.123 114.023C272.221 113.611 271.419 113.01 270.77 112.261C269.441 110.608 268.716 108.551 268.716 106.431C268.716 104.31 269.441 102.253 270.77 100.601C271.407 99.837 272.208 99.2274 273.114 98.817C274.019 98.4066 275.006 98.2061 276 98.2305V98.2305ZM279.57 110.821C280.533 109.565 281.061 108.028 281.071 106.446C281.082 104.863 280.576 103.32 279.63 102.051C279.217 101.49 278.678 101.034 278.056 100.722C277.434 100.409 276.746 100.247 276.05 100.251C275.343 100.252 274.646 100.419 274.014 100.736C273.383 101.054 272.833 101.514 272.41 102.081C271.447 103.336 270.92 104.873 270.909 106.455C270.898 108.038 271.404 109.581 272.35 110.851C272.763 111.411 273.302 111.867 273.924 112.179C274.547 112.492 275.234 112.654 275.93 112.651C276.635 112.647 277.33 112.48 277.96 112.162C278.59 111.845 279.138 111.386 279.56 110.821H279.57Z" fill="white"/>
<path d="M297.59 109.731C297.601 110.401 297.451 111.063 297.151 111.662C296.852 112.261 296.412 112.779 295.87 113.171C294.688 114.07 293.235 114.539 291.75 114.501C290.284 114.538 288.837 114.156 287.58 113.401C286.4 112.668 285.81 111.938 285.81 111.211C285.799 110.931 285.9 110.657 286.09 110.451C286.17 110.36 286.268 110.287 286.379 110.237C286.489 110.187 286.609 110.161 286.73 110.161C286.93 110.15 287.128 110.199 287.3 110.301C287.516 110.458 287.714 110.639 287.89 110.841C288.137 111.108 288.36 111.334 288.56 111.521C288.924 111.797 289.333 112.007 289.77 112.141C290.309 112.354 290.881 112.469 291.46 112.481C292.444 112.521 293.419 112.278 294.27 111.781C294.614 111.575 294.898 111.282 295.091 110.93C295.284 110.579 295.381 110.182 295.37 109.781C295.37 108.708 294.337 107.808 292.27 107.081C291.423 106.794 290.57 106.478 289.71 106.131C288.891 105.817 288.145 105.337 287.52 104.721C287.232 104.445 287.003 104.113 286.848 103.744C286.693 103.376 286.616 102.98 286.62 102.581C286.631 102.009 286.774 101.447 287.037 100.938C287.301 100.43 287.678 99.9896 288.14 99.6511C289.189 98.7998 290.509 98.3528 291.86 98.3912C293.07 98.3314 294.274 98.5936 295.35 99.1511C296.21 99.6578 296.64 100.191 296.64 100.751C296.64 101.418 296.28 101.751 295.56 101.751C295.221 101.741 294.895 101.622 294.63 101.411C293.826 100.798 292.851 100.448 291.84 100.411C291.071 100.375 290.311 100.586 289.67 101.011C289.425 101.157 289.22 101.361 289.073 101.605C288.927 101.849 288.843 102.126 288.83 102.411C288.846 102.696 288.938 102.971 289.096 103.209C289.254 103.446 289.473 103.637 289.73 103.761C290.424 104.169 291.158 104.504 291.92 104.761C292.78 105.074 293.643 105.408 294.51 105.761C295.349 106.123 296.099 106.662 296.71 107.341C297.301 107.994 297.616 108.851 297.59 109.731V109.731Z" fill="white"/>
<path d="M302.43 91.7213C302.619 91.7009 302.809 91.7288 302.984 91.8022C303.159 91.8757 303.313 91.9924 303.43 92.1413C303.644 92.4486 303.753 92.817 303.74 93.1914C303.73 93.6487 303.58 94.0919 303.31 94.4614C303.2 94.6518 303.043 94.8107 302.854 94.9228C302.665 95.0349 302.45 95.0964 302.23 95.1014C302.041 95.1187 301.85 95.0885 301.675 95.0134C301.501 94.9383 301.348 94.8207 301.23 94.6713C300.996 94.3348 300.88 93.9306 300.9 93.5214C300.893 93.0608 301.053 92.6133 301.35 92.2613C301.477 92.0954 301.641 91.9605 301.828 91.867C302.015 91.7734 302.221 91.7236 302.43 91.7213V91.7213ZM303.3 106.451L303.45 112.961C303.45 113.995 303.057 114.511 302.27 114.511C301.483 114.511 301.093 114.008 301.1 113.001L301.26 106.491L301.1 99.9813C301.1 98.948 301.493 98.4313 302.28 98.4313C303.067 98.4313 303.46 98.948 303.46 99.9813L303.3 106.451Z" fill="white"/>
<path d="M321.13 104.431L321 109.301C321 109.881 321 110.321 321 110.621C321.015 110.939 321.079 111.253 321.19 111.551C321.218 111.672 321.269 111.787 321.341 111.888C321.413 111.99 321.504 112.076 321.61 112.141C321.772 112.213 321.944 112.26 322.12 112.281C322.248 112.289 322.373 112.32 322.49 112.371C322.53 112.399 322.561 112.436 322.58 112.481C322.6 112.525 322.607 112.573 322.6 112.621C322.615 113.121 322.432 113.606 322.09 113.971C321.941 114.14 321.758 114.276 321.553 114.369C321.348 114.462 321.125 114.511 320.9 114.511C320.566 114.54 320.231 114.467 319.94 114.301C319.649 114.134 319.415 113.884 319.27 113.581C318.925 112.714 318.772 111.783 318.82 110.851L318.94 105.141C318.995 103.939 318.681 102.749 318.04 101.731C317.77 101.318 317.398 100.981 316.961 100.753C316.523 100.526 316.033 100.415 315.54 100.431C314.927 100.479 314.333 100.662 313.8 100.968C313.267 101.274 312.809 101.696 312.46 102.201C311.476 103.362 310.765 104.729 310.38 106.201L310.47 112.931C310.47 113.985 310.077 114.511 309.29 114.511C308.337 114.511 307.86 113.781 307.86 112.321C307.917 110.269 308.124 108.223 308.48 106.201C308.458 104.997 308.371 103.796 308.22 102.601C308.047 101.075 307.96 100.128 307.96 99.7612C307.947 99.3992 308.064 99.0446 308.29 98.7612C308.397 98.6296 308.532 98.5235 308.685 98.4506C308.838 98.3777 309.005 98.3398 309.175 98.3398C309.345 98.3398 309.512 98.3777 309.665 98.4506C309.818 98.5235 309.953 98.6296 310.06 98.7612C310.276 99.0305 310.393 99.3661 310.39 99.7113C310.39 100.065 310.39 100.495 310.39 101.001C310.39 101.508 310.39 101.938 310.39 102.291C311.897 99.6646 313.757 98.3513 315.97 98.3513C316.705 98.316 317.438 98.4585 318.106 98.7666C318.775 99.0747 319.359 99.5394 319.81 100.121C320.727 101.366 321.193 102.886 321.13 104.431Z" fill="white"/>
<path d="M336.29 99.841C336.33 98.8677 336.723 98.381 337.47 98.381C338.423 98.381 338.9 99.111 338.9 100.571C338.843 102.623 338.635 104.669 338.28 106.691C338.527 109.211 338.65 111.091 338.65 112.331C338.765 114.66 338.092 116.961 336.74 118.861C336.113 119.673 335.299 120.322 334.368 120.752C333.436 121.182 332.415 121.381 331.39 121.331C330.137 121.338 328.897 121.068 327.76 120.541C326.62 120.014 326.05 119.488 326.05 118.961C326.05 118.434 326.287 118.171 326.76 118.171C327.315 118.293 327.853 118.484 328.36 118.741C329.31 119.134 330.332 119.328 331.36 119.311C332.114 119.341 332.863 119.187 333.544 118.863C334.225 118.539 334.817 118.054 335.27 117.451C336.272 116.053 336.775 114.359 336.7 112.641C336.703 111.895 336.649 111.149 336.54 110.411C336.067 111.55 335.301 112.543 334.32 113.291C333.437 114.045 332.321 114.472 331.16 114.501C330.185 114.532 329.221 114.286 328.38 113.791C327.624 113.324 326.987 112.687 326.52 111.931C325.564 110.291 325.08 108.419 325.12 106.521C325.121 104.461 325.863 102.47 327.21 100.911C327.817 100.12 328.598 99.4795 329.493 99.0406C330.388 98.6017 331.373 98.3759 332.37 98.381C333.811 98.3707 335.206 98.8903 336.29 99.841V99.841ZM336.35 106.941V102.201C335.883 101.653 335.307 101.209 334.657 100.899C334.007 100.589 333.3 100.419 332.58 100.401C331.878 100.412 331.188 100.585 330.564 100.906C329.94 101.227 329.398 101.687 328.98 102.251C327.961 103.476 327.417 105.028 327.45 106.621C327.409 108.085 327.754 109.533 328.45 110.821C328.689 111.321 329.065 111.743 329.534 112.038C330.003 112.334 330.546 112.491 331.1 112.491C331.703 112.469 332.295 112.317 332.834 112.044C333.372 111.771 333.845 111.385 334.22 110.911C335.209 109.758 335.936 108.403 336.35 106.941V106.941Z" fill="white"/>
<path d="M51.33 143.9C51.303 145.175 51.4171 146.45 51.67 147.7C51.8966 148.68 52.1666 149.233 52.48 149.36C52.6219 149.426 52.7742 149.466 52.93 149.48C53.0577 149.488 53.1829 149.518 53.3 149.57C53.3397 149.597 53.371 149.635 53.3904 149.679C53.4099 149.724 53.4166 149.772 53.41 149.82C53.433 150.313 53.2727 150.798 52.96 151.18C52.7893 151.364 52.5792 151.507 52.3455 151.599C52.1118 151.691 51.8604 151.729 51.61 151.71C51.01 151.71 50.5433 151.327 50.21 150.56C49.8461 149.62 49.676 148.617 49.71 147.61C49.2021 148.754 48.4188 149.753 47.43 150.52C46.4726 151.291 45.2789 151.707 44.05 151.7C42.8505 151.72 41.6896 151.276 40.81 150.46C39.9578 149.624 39.2953 148.614 38.8675 147.5C38.4396 146.385 38.2563 145.192 38.33 144C38.3025 141.866 39.0085 139.786 40.33 138.11C40.9021 137.323 41.6547 136.684 42.5247 136.247C43.3946 135.81 44.3566 135.588 45.33 135.6C46.8179 135.587 48.2524 136.154 49.33 137.18C49.33 136.127 49.7233 135.6 50.51 135.6C51.4633 135.6 51.94 136.33 51.94 137.79C51.8855 139.839 51.6816 141.881 51.33 143.9ZM49.53 144.18L49.37 139.41C48.8722 138.868 48.2723 138.431 47.6047 138.122C46.9371 137.813 46.215 137.639 45.48 137.61C44.7968 137.62 44.1256 137.79 43.5209 138.108C42.9161 138.426 42.395 138.883 42 139.44C41.0167 140.689 40.5003 142.241 40.54 143.83C40.4842 145.295 40.8117 146.75 41.49 148.05C41.7387 148.548 42.121 148.967 42.5944 149.26C43.0677 149.554 43.6132 149.709 44.17 149.71C44.777 149.693 45.3732 149.546 45.9184 149.278C46.4636 149.011 46.945 148.63 47.33 148.16C48.3452 147.01 49.0962 145.651 49.53 144.18V144.18Z" fill="white"/>
<path d="M67.6001 137.791L67.5401 145.141C67.4899 146.375 67.5669 147.612 67.7701 148.831C67.83 149.101 67.9879 149.339 68.2131 149.5C68.4384 149.66 68.7152 149.732 68.9901 149.701C69.3865 149.676 69.7724 149.563 70.1201 149.371C70.3894 149.197 70.6873 149.071 71.0001 149.001C71.0876 148.988 71.177 148.995 71.2612 149.022C71.3454 149.05 71.422 149.096 71.4851 149.158C71.5482 149.22 71.5959 149.296 71.6246 149.38C71.6532 149.464 71.6619 149.553 71.6501 149.641C71.6501 150.067 71.2667 150.511 70.5001 150.971C69.8261 151.409 69.0437 151.651 68.2401 151.671C66.4401 151.671 65.5401 150.337 65.5401 147.671V137.671C64.8734 137.731 64.3967 137.761 64.1101 137.761C63.0767 137.761 62.5601 137.427 62.5601 136.761C62.5601 136.094 63.0767 135.761 64.1101 135.761L65.4701 135.821L65.4101 132.351C65.4101 131.317 65.8034 130.801 66.5901 130.801C67.3767 130.801 67.7701 131.317 67.7701 132.351L67.6801 135.851L70.1901 135.731C71.2234 135.731 71.7401 136.081 71.7401 136.781C71.7401 137.481 71.2234 137.814 70.1901 137.781L67.6001 137.791Z" fill="white"/>
<path d="M81.6 135.441C83.0814 135.379 84.5315 135.879 85.66 136.841C86.1735 137.292 86.5806 137.852 86.8521 138.48C87.1235 139.107 87.2526 139.787 87.23 140.471C87.2534 141.162 87.0844 141.845 86.7418 142.446C86.3993 143.046 85.8966 143.539 85.29 143.871C83.8392 144.685 82.1928 145.086 80.53 145.031C79.2046 145.001 77.8851 144.844 76.59 144.561C76.6911 145.957 77.2662 147.276 78.22 148.301C78.6112 148.777 79.1003 149.164 79.6541 149.435C80.208 149.706 80.8136 149.854 81.43 149.871C82.1079 149.883 82.7834 149.785 83.43 149.581C83.9129 149.437 84.3715 149.221 84.79 148.941C85.2473 148.484 85.8057 148.142 86.42 147.941C86.5335 147.935 86.647 147.953 86.7535 147.992C86.8601 148.032 86.9576 148.092 87.04 148.171C87.1149 148.245 87.1739 148.334 87.2135 148.432C87.253 148.53 87.2722 148.635 87.27 148.741C87.27 149.321 86.6766 149.987 85.49 150.741C84.3371 151.476 82.9973 151.865 81.63 151.861C80.6603 151.902 79.6941 151.72 78.8062 151.328C77.9183 150.936 77.1326 150.345 76.51 149.601C75.2535 148.054 74.5496 146.133 74.51 144.141C73.4166 143.807 72.87 143.271 72.87 142.531C72.8625 142.398 72.8817 142.265 72.9264 142.139C72.971 142.014 73.0402 141.899 73.13 141.801C73.2132 141.716 73.313 141.649 73.423 141.604C73.5331 141.56 73.6512 141.538 73.77 141.541C74.097 141.563 74.4148 141.659 74.7 141.821C75.0928 140.069 75.9937 138.472 77.29 137.231C78.4404 136.098 79.9856 135.456 81.6 135.441V135.441ZM80.42 143.071C81.5791 143.125 82.7327 142.881 83.77 142.361C84.14 142.192 84.4548 141.923 84.6778 141.583C84.9008 141.243 85.0229 140.847 85.03 140.441C85.0374 139.664 84.7435 138.915 84.21 138.351C83.9061 138.044 83.5398 137.807 83.136 137.655C82.7322 137.503 82.3003 137.44 81.87 137.471C81.2198 137.46 80.5752 137.592 79.981 137.856C79.3869 138.12 78.8576 138.511 78.43 139.001C77.5091 140.004 76.8858 141.243 76.63 142.581C77.8675 142.92 79.147 143.081 80.43 143.061L80.42 143.071Z" fill="white"/>
<path d="M113.37 141.64L113.21 146.51C113.21 147.09 113.21 147.53 113.21 147.83C113.225 148.147 113.289 148.461 113.4 148.76C113.428 148.881 113.479 148.995 113.551 149.097C113.623 149.198 113.714 149.284 113.82 149.35C113.982 149.421 114.154 149.469 114.33 149.49C114.458 149.497 114.583 149.528 114.7 149.58C114.74 149.607 114.771 149.645 114.79 149.689C114.81 149.733 114.817 149.782 114.81 149.83C114.825 150.329 114.642 150.815 114.3 151.18C114.151 151.349 113.968 151.484 113.763 151.577C113.558 151.671 113.335 151.719 113.11 151.72C112.776 151.748 112.441 151.675 112.15 151.509C111.859 151.343 111.625 151.092 111.48 150.79C111.135 149.923 110.982 148.991 111.03 148.06L111.15 142.35C111.204 141.158 110.92 139.976 110.33 138.94C110.1 138.537 109.766 138.204 109.363 137.975C108.96 137.747 108.503 137.631 108.04 137.64C107.458 137.695 106.896 137.883 106.399 138.19C105.901 138.497 105.48 138.914 105.17 139.41C104.223 140.583 103.541 141.948 103.17 143.41L103.26 150.14C103.26 151.193 102.867 151.72 102.08 151.72C101.127 151.72 100.65 150.99 100.65 149.53C100.707 147.477 100.914 145.432 101.27 143.41C101.27 139.563 100.217 137.64 98.11 137.64C97.5312 137.697 96.9732 137.886 96.4791 138.193C95.985 138.5 95.5679 138.916 95.26 139.41C94.3133 140.583 93.6311 141.948 93.26 143.41L93.35 150.14C93.35 151.193 92.9567 151.72 92.17 151.72C91.2167 151.72 90.74 150.99 90.74 149.53C90.7972 147.477 91.0044 145.432 91.36 143.41C91.3378 142.206 91.251 141.004 91.1 139.81C91.0333 138.276 91 137.34 91 137C90.9873 136.638 91.1044 136.283 91.33 136C91.4369 135.868 91.5718 135.762 91.7249 135.689C91.878 135.616 92.0454 135.578 92.215 135.578C92.3846 135.578 92.552 135.616 92.7051 135.689C92.8582 135.762 92.9931 135.868 93.1 136C93.316 136.269 93.4326 136.604 93.43 136.95C93.43 137.303 93.43 137.733 93.43 138.24C93.43 138.746 93.43 139.176 93.43 139.53C94.8367 136.903 96.5933 135.59 98.7 135.59C99.8009 135.544 100.876 135.927 101.7 136.66C102.511 137.433 103.069 138.433 103.3 139.53C104.707 136.903 106.463 135.59 108.57 135.59C109.272 135.56 109.969 135.707 110.6 136.016C111.23 136.325 111.774 136.787 112.18 137.36C113.026 138.622 113.443 140.122 113.37 141.64Z" fill="white"/>
<path d="M118.55 145.51V144.33V143.83C118.521 142.556 118.428 141.284 118.27 140.02C118.09 138.346 118 137.34 118 137C117.987 136.638 118.104 136.283 118.33 136C118.437 135.868 118.572 135.762 118.725 135.689C118.878 135.616 119.045 135.578 119.215 135.578C119.385 135.578 119.552 135.616 119.705 135.689C119.858 135.762 119.993 135.868 120.1 136C120.316 136.269 120.433 136.604 120.43 136.95C120.43 137.303 120.43 137.743 120.43 138.27C120.43 138.796 120.43 139.236 120.43 139.59C120.998 138.469 121.776 137.468 122.72 136.64C123.657 135.91 124.823 135.538 126.01 135.59C127.29 135.562 128.532 136.028 129.48 136.89C130.413 137.7 131.128 138.732 131.56 139.89C131.965 140.981 132.175 142.135 132.18 143.3C132.235 145.438 131.525 147.526 130.18 149.19C129.563 149.988 128.768 150.631 127.858 151.067C126.948 151.503 125.949 151.719 124.94 151.7C123.347 151.684 121.803 151.151 120.54 150.18C120.5 152.68 120.48 154.536 120.48 155.75C120.551 156.526 120.445 157.309 120.17 158.04C120.064 158.204 119.914 158.336 119.738 158.421C119.561 158.506 119.365 158.54 119.17 158.52C118.961 158.522 118.755 158.474 118.569 158.38C118.383 158.286 118.222 158.149 118.1 157.98C117.79 157.517 117.643 156.965 117.68 156.41C117.68 155.743 117.72 154.933 117.8 153.98C117.88 153.026 118.003 151.786 118.17 150.26C118.337 148.72 118.47 147.33 118.57 146.09L118.55 145.51ZM128.36 147.87C129.355 146.664 129.887 145.143 129.86 143.58C129.905 142.099 129.53 140.636 128.78 139.36C128.494 138.827 128.068 138.382 127.548 138.074C127.029 137.766 126.434 137.605 125.83 137.61C123.657 137.61 121.87 139.396 120.47 142.97V147.9C121.046 148.478 121.732 148.935 122.488 149.244C123.244 149.553 124.054 149.708 124.87 149.7C125.553 149.684 126.224 149.511 126.83 149.194C127.435 148.876 127.959 148.423 128.36 147.87Z" fill="white"/>
<path d="M138.11 139.78L138.27 150.17C138.27 151.203 137.877 151.72 137.09 151.72C136.303 151.72 135.91 151.203 135.91 150.17L136.07 139.78L135.91 129.39C135.91 128.357 136.303 127.84 137.09 127.84C137.877 127.84 138.27 128.357 138.27 129.39L138.11 139.78Z" fill="white"/>
<path d="M155 143.901C154.973 145.176 155.087 146.45 155.34 147.701C155.567 148.681 155.837 149.234 156.15 149.361C156.292 149.426 156.444 149.467 156.6 149.481C156.728 149.488 156.853 149.519 156.97 149.571C157.01 149.598 157.041 149.636 157.06 149.68C157.08 149.724 157.087 149.773 157.08 149.821C157.103 150.314 156.943 150.798 156.63 151.181C156.459 151.364 156.249 151.507 156.015 151.599C155.782 151.69 155.53 151.729 155.28 151.711C154.68 151.711 154.213 151.327 153.88 150.561C153.516 149.621 153.346 148.618 153.38 147.611C152.872 148.754 152.089 149.754 151.1 150.521C150.143 151.291 148.949 151.708 147.72 151.701C146.52 151.721 145.36 151.276 144.48 150.461C143.625 149.622 142.961 148.609 142.533 147.491C142.105 146.373 141.923 145.175 142 143.981C141.972 141.846 142.678 139.767 144 138.091C144.572 137.303 145.325 136.664 146.195 136.227C147.065 135.791 148.027 135.569 149 135.581C150.488 135.568 151.922 136.134 153 137.161C153 136.107 153.393 135.581 154.18 135.581C155.133 135.581 155.61 136.311 155.61 137.771C155.556 139.826 155.352 141.875 155 143.901V143.901ZM153.2 144.181L153.05 139.411C152.552 138.869 151.952 138.431 151.285 138.122C150.617 137.813 149.895 137.639 149.16 137.611C148.475 137.619 147.802 137.789 147.195 138.107C146.589 138.425 146.066 138.882 145.67 139.441C144.687 140.689 144.17 142.242 144.21 143.831C144.154 145.296 144.482 146.75 145.16 148.051C145.409 148.549 145.791 148.968 146.264 149.261C146.738 149.554 147.283 149.71 147.84 149.711C148.447 149.694 149.043 149.546 149.588 149.279C150.134 149.011 150.615 148.63 151 148.161C152.03 147.014 152.795 145.656 153.24 144.181H153.2Z" fill="white"/>
<path d="M163.94 137.79L163.88 145.14C163.83 146.374 163.907 147.611 164.11 148.83C164.17 149.102 164.329 149.342 164.557 149.503C164.784 149.663 165.064 149.734 165.34 149.7C165.736 149.675 166.122 149.562 166.47 149.37C166.742 149.21 167.04 149.098 167.35 149.04C167.438 149.027 167.527 149.034 167.611 149.061C167.695 149.089 167.772 149.135 167.835 149.197C167.898 149.259 167.946 149.335 167.975 149.419C168.003 149.503 168.012 149.592 168 149.68C168 150.107 167.617 150.55 166.85 151.01C166.176 151.448 165.394 151.69 164.59 151.71C162.79 151.71 161.89 150.377 161.89 147.71V137.71C161.223 137.77 160.747 137.8 160.46 137.8C159.427 137.8 158.91 137.467 158.91 136.8C158.91 136.133 159.427 135.8 160.46 135.8L161.82 135.86L161.76 132.39C161.76 131.357 162.153 130.84 162.94 130.84C163.727 130.84 164.12 131.357 164.12 132.39L164.03 135.89L166.54 135.77C167.573 135.77 168.09 136.12 168.09 136.82C168.09 137.52 167.573 137.853 166.54 137.82L163.94 137.79Z" fill="white"/>
<path d="M177.94 135.441C179.421 135.379 180.872 135.879 182 136.841C182.514 137.292 182.921 137.852 183.192 138.48C183.464 139.107 183.593 139.787 183.57 140.471C183.593 141.162 183.424 141.845 183.082 142.446C182.739 143.046 182.237 143.539 181.63 143.871C180.179 144.685 178.533 145.086 176.87 145.031C175.545 145.001 174.225 144.844 172.93 144.561C173.03 145.957 173.606 147.277 174.56 148.301C174.951 148.778 175.44 149.165 175.994 149.436C176.548 149.707 177.154 149.855 177.77 149.871C178.448 149.883 179.124 149.785 179.77 149.581C180.253 149.437 180.712 149.221 181.13 148.941C181.587 148.484 182.146 148.142 182.76 147.941C182.874 147.935 182.987 147.953 183.094 147.992C183.2 148.032 183.298 148.092 183.38 148.171C183.455 148.245 183.514 148.334 183.554 148.432C183.593 148.53 183.612 148.635 183.61 148.741C183.61 149.321 183.017 149.987 181.83 150.741C180.677 151.476 179.337 151.865 177.97 151.861C177 151.902 176.034 151.72 175.146 151.328C174.258 150.936 173.473 150.345 172.85 149.601C171.594 148.054 170.89 146.133 170.85 144.141C169.757 143.807 169.21 143.271 169.21 142.531C169.203 142.398 169.222 142.265 169.266 142.139C169.311 142.014 169.38 141.899 169.47 141.801C169.553 141.716 169.653 141.649 169.763 141.604C169.873 141.56 169.991 141.538 170.11 141.541C170.437 141.563 170.755 141.659 171.04 141.821C171.433 140.069 172.334 138.472 173.63 137.231C174.781 136.098 176.326 135.456 177.94 135.441V135.441ZM176.76 143.071C177.919 143.125 179.073 142.881 180.11 142.361C180.48 142.192 180.795 141.923 181.018 141.583C181.241 141.243 181.363 140.847 181.37 140.441C181.378 139.664 181.084 138.915 180.55 138.351C180.246 138.044 179.88 137.807 179.476 137.655C179.072 137.503 178.64 137.44 178.21 137.471C177.56 137.46 176.915 137.592 176.321 137.856C175.727 138.12 175.198 138.511 174.77 139.001C173.849 140.004 173.226 141.243 172.97 142.581C174.204 142.919 175.48 143.08 176.76 143.061V143.071Z" fill="white"/>
<path d="M201.2 135.439C202.192 135.416 203.177 135.617 204.081 136.027C204.985 136.438 205.785 137.047 206.42 137.809C207.755 139.459 208.483 141.517 208.483 143.639C208.483 145.762 207.755 147.82 206.42 149.469C205.771 150.219 204.969 150.82 204.067 151.232C203.166 151.644 202.186 151.858 201.195 151.858C200.204 151.858 199.224 151.644 198.323 151.232C197.421 150.82 196.619 150.219 195.97 149.469C194.641 147.817 193.916 145.76 193.916 143.639C193.916 141.519 194.641 139.462 195.97 137.809C196.607 137.046 197.408 136.436 198.314 136.026C199.219 135.616 200.206 135.415 201.2 135.439V135.439ZM204.76 147.999C205.723 146.744 206.251 145.207 206.261 143.625C206.272 142.042 205.766 140.499 204.82 139.229C204.407 138.669 203.868 138.213 203.246 137.9C202.624 137.588 201.936 137.426 201.24 137.429C200.533 137.431 199.836 137.598 199.204 137.915C198.573 138.233 198.023 138.693 197.6 139.259C196.637 140.515 196.109 142.052 196.099 143.634C196.088 145.217 196.594 146.76 197.54 148.029C197.953 148.59 198.492 149.046 199.114 149.358C199.736 149.671 200.424 149.833 201.12 149.829C201.827 149.828 202.524 149.661 203.156 149.344C203.787 149.026 204.337 148.566 204.76 147.999V147.999Z" fill="white"/>
<path d="M217.2 148.601C217.31 148.821 217.4 148.931 217.46 148.931C217.52 148.931 217.61 148.821 217.72 148.601C217.83 148.381 217.98 148.041 218.17 147.601C218.36 147.161 218.52 146.701 218.65 146.331L219.25 144.691L219.78 143.171C220.113 142.265 220.527 141.028 221.02 139.461C221.513 137.895 221.813 136.991 221.92 136.751C222.207 136.005 222.61 135.631 223.13 135.631C223.421 135.624 223.703 135.727 223.92 135.921C224.023 136.009 224.106 136.117 224.163 136.24C224.22 136.363 224.25 136.496 224.25 136.631C224.228 137.017 224.14 137.396 223.99 137.751C223.817 138.218 223.483 139.045 222.99 140.231C222.497 141.418 221.83 143.211 220.99 145.611C220.432 147.269 219.784 148.894 219.05 150.481C218.919 150.838 218.687 151.149 218.381 151.375C218.075 151.6 217.71 151.731 217.33 151.751C216.977 151.749 216.633 151.642 216.343 151.442C216.052 151.242 215.828 150.96 215.7 150.631C215.553 150.345 215.017 148.975 214.09 146.521C213.163 144.068 212.543 142.451 212.23 141.671L211.5 139.841C211.327 139.408 211.167 138.975 211.02 138.541C210.781 137.963 210.626 137.354 210.56 136.731C210.552 136.582 210.575 136.433 210.628 136.293C210.682 136.154 210.764 136.027 210.87 135.921C211.078 135.727 211.355 135.623 211.64 135.631C212.2 135.631 212.623 135.991 212.91 136.711C213.01 136.958 213.313 137.861 213.82 139.421C214.327 140.981 214.693 142.068 214.92 142.681C215.147 143.288 215.383 143.955 215.63 144.681L216.2 146.321C216.333 146.715 216.493 147.148 216.68 147.621C216.867 148.095 217.04 148.421 217.2 148.601Z" fill="white"/>
<path d="M234.5 135.441C235.981 135.379 237.432 135.879 238.56 136.841C239.073 137.292 239.481 137.852 239.752 138.48C240.024 139.107 240.153 139.787 240.13 140.471C240.153 141.162 239.984 141.845 239.642 142.446C239.299 143.046 238.797 143.539 238.19 143.871C236.739 144.685 235.093 145.086 233.43 145.031C232.105 145.001 230.785 144.844 229.49 144.561C229.59 145.957 230.166 147.277 231.12 148.301C231.511 148.778 232 149.165 232.554 149.436C233.108 149.707 233.714 149.855 234.33 149.871C235.008 149.883 235.683 149.785 236.33 149.581C236.813 149.437 237.271 149.221 237.69 148.941C238.147 148.484 238.706 148.142 239.32 147.941C239.434 147.935 239.547 147.953 239.654 147.992C239.76 148.032 239.858 148.092 239.94 148.171C240.015 148.245 240.074 148.334 240.114 148.432C240.153 148.53 240.172 148.635 240.17 148.741C240.17 149.321 239.577 149.987 238.39 150.741C237.237 151.476 235.897 151.865 234.53 151.861C233.56 151.902 232.594 151.72 231.706 151.328C230.818 150.936 230.033 150.345 229.41 149.601C228.154 148.054 227.45 146.133 227.41 144.141C226.317 143.807 225.77 143.271 225.77 142.531C225.763 142.398 225.782 142.265 225.826 142.139C225.871 142.014 225.94 141.899 226.03 141.801C226.113 141.716 226.213 141.649 226.323 141.604C226.433 141.56 226.551 141.538 226.67 141.541C226.997 141.563 227.315 141.659 227.6 141.821C227.993 140.069 228.894 138.472 230.19 137.231C231.34 136.098 232.886 135.456 234.5 135.441V135.441ZM233.32 143.071C234.479 143.125 235.633 142.881 236.67 142.361C237.04 142.192 237.355 141.923 237.578 141.583C237.801 141.243 237.923 140.847 237.93 140.441C237.937 139.664 237.644 138.915 237.11 138.351C236.806 138.044 236.44 137.807 236.036 137.655C235.632 137.503 235.2 137.44 234.77 137.471C234.12 137.46 233.475 137.592 232.881 137.856C232.287 138.12 231.758 138.511 231.33 139.001C230.409 140.004 229.786 141.243 229.53 142.581C230.764 142.919 232.04 143.08 233.32 143.061V143.071Z" fill="white"/>
<path d="M246.26 144.301L246.35 150.131C246.35 151.184 245.957 151.711 245.17 151.711C244.217 151.711 243.74 150.981 243.74 149.521C243.797 147.469 244.004 145.423 244.36 143.401C244.339 142.207 244.252 141.015 244.1 139.831C243.927 138.324 243.84 137.384 243.84 137.011C243.835 136.65 243.951 136.298 244.17 136.011C244.275 135.876 244.409 135.767 244.562 135.692C244.716 135.617 244.884 135.577 245.055 135.577C245.226 135.577 245.394 135.617 245.548 135.692C245.701 135.767 245.835 135.876 245.94 136.011C246.153 136.282 246.269 136.616 246.27 136.961C246.27 137.301 246.27 137.734 246.27 138.261C246.27 138.788 246.27 139.228 246.27 139.581C246.693 138.514 247.357 137.559 248.21 136.791C248.925 136.055 249.895 135.622 250.92 135.581C251.679 135.534 252.434 135.734 253.07 136.151C253.284 136.28 253.465 136.458 253.597 136.67C253.729 136.882 253.809 137.122 253.83 137.371C253.845 137.735 253.724 138.092 253.49 138.371C253.379 138.493 253.243 138.589 253.091 138.653C252.939 138.716 252.775 138.747 252.61 138.741C252.16 138.702 251.74 138.499 251.43 138.171C251.169 137.876 250.817 137.676 250.43 137.601C249.763 137.601 248.967 138.334 248.04 139.801C247.153 141.167 246.547 142.697 246.26 144.301V144.301Z" fill="white"/>
<path d="M267.35 137.79L267.29 145.14C267.24 146.374 267.317 147.611 267.52 148.83C267.58 149.102 267.739 149.342 267.967 149.503C268.194 149.663 268.474 149.734 268.75 149.7C269.146 149.675 269.532 149.562 269.88 149.37C270.152 149.21 270.45 149.098 270.76 149.04C270.848 149.027 270.937 149.034 271.021 149.061C271.105 149.089 271.182 149.135 271.245 149.197C271.308 149.259 271.356 149.335 271.385 149.419C271.413 149.503 271.422 149.592 271.41 149.68C271.41 150.107 271.027 150.55 270.26 151.01C269.586 151.448 268.804 151.69 268 151.71C266.2 151.71 265.3 150.377 265.3 147.71V137.71C264.633 137.77 264.157 137.8 263.87 137.8C262.837 137.8 262.32 137.467 262.32 136.8C262.32 136.133 262.837 135.8 263.87 135.8L265.23 135.86L265.17 132.39C265.17 131.357 265.563 130.84 266.35 130.84C267.137 130.84 267.53 131.357 267.53 132.39L267.44 135.89L269.95 135.77C270.983 135.77 271.5 136.12 271.5 136.82C271.5 137.52 270.983 137.853 269.95 137.82L267.35 137.79Z" fill="white"/>
<path d="M287.44 141.64L287.29 146.51C287.29 147.09 287.29 147.53 287.29 147.83C287.305 148.148 287.369 148.462 287.48 148.76C287.508 148.881 287.559 148.996 287.631 149.097C287.703 149.199 287.794 149.285 287.9 149.35C288.062 149.422 288.234 149.469 288.41 149.49C288.538 149.498 288.663 149.529 288.78 149.58C288.82 149.608 288.851 149.645 288.871 149.69C288.89 149.734 288.897 149.782 288.89 149.83C288.905 150.33 288.722 150.815 288.38 151.18C288.231 151.349 288.048 151.485 287.843 151.578C287.638 151.671 287.415 151.72 287.19 151.72C286.856 151.749 286.521 151.676 286.23 151.51C285.939 151.343 285.705 151.092 285.56 150.79C285.215 149.923 285.062 148.992 285.11 148.06L285.23 142.35C285.285 141.148 284.971 139.958 284.33 138.94C284.06 138.527 283.688 138.19 283.251 137.962C282.813 137.735 282.323 137.624 281.83 137.64C281.217 137.688 280.623 137.871 280.09 138.177C279.557 138.483 279.099 138.905 278.75 139.41C277.766 140.571 277.055 141.938 276.67 143.41L276.76 150.14C276.76 151.194 276.367 151.72 275.58 151.72C274.627 151.72 274.15 150.99 274.15 149.53C274.207 147.478 274.414 145.432 274.77 143.41C274.77 142.004 274.677 139.337 274.49 135.41C274.303 131.484 274.21 129.38 274.21 129.1C274.217 128.778 274.333 128.468 274.54 128.22C274.647 128.089 274.782 127.982 274.935 127.91C275.088 127.837 275.255 127.799 275.425 127.799C275.595 127.799 275.762 127.837 275.915 127.91C276.068 127.982 276.203 128.089 276.31 128.22C276.544 128.549 276.66 128.947 276.64 129.35V139.49C278.147 136.864 280.007 135.55 282.22 135.55C282.955 135.515 283.688 135.657 284.357 135.966C285.025 136.274 285.609 136.738 286.06 137.32C287.001 138.56 287.488 140.085 287.44 141.64Z" fill="white"/>
<path d="M299.58 135.441C301.061 135.379 302.512 135.879 303.64 136.841C304.153 137.292 304.561 137.852 304.832 138.48C305.103 139.107 305.233 139.787 305.21 140.471C305.233 141.162 305.064 141.845 304.722 142.446C304.379 143.046 303.877 143.539 303.27 143.871C301.819 144.685 300.173 145.086 298.51 145.031C297.185 145.001 295.865 144.844 294.57 144.561C294.67 145.957 295.246 147.277 296.2 148.301C296.591 148.778 297.08 149.165 297.634 149.436C298.188 149.707 298.793 149.855 299.41 149.871C300.088 149.883 300.763 149.785 301.41 149.581C301.893 149.437 302.351 149.221 302.77 148.941C303.227 148.484 303.786 148.142 304.4 147.941C304.513 147.935 304.627 147.953 304.734 147.992C304.84 148.032 304.938 148.092 305.02 148.171C305.095 148.245 305.154 148.334 305.193 148.432C305.233 148.53 305.252 148.635 305.25 148.741C305.25 149.321 304.657 149.987 303.47 150.741C302.317 151.476 300.977 151.865 299.61 151.861C298.64 151.902 297.674 151.72 296.786 151.328C295.898 150.936 295.113 150.345 294.49 149.601C293.233 148.054 292.53 146.133 292.49 144.141C291.397 143.807 290.85 143.271 290.85 142.531C290.843 142.398 290.862 142.265 290.906 142.139C290.951 142.014 291.02 141.899 291.11 141.801C291.193 141.716 291.293 141.649 291.403 141.604C291.513 141.56 291.631 141.538 291.75 141.541C292.077 141.563 292.395 141.659 292.68 141.821C293.073 140.069 293.974 138.472 295.27 137.231C296.42 136.098 297.966 135.456 299.58 135.441V135.441ZM298.4 143.071C299.559 143.125 300.713 142.881 301.75 142.361C302.12 142.192 302.435 141.923 302.658 141.583C302.881 141.243 303.003 140.847 303.01 140.441C303.017 139.664 302.723 138.915 302.19 138.351C301.886 138.044 301.52 137.807 301.116 137.655C300.712 137.503 300.28 137.44 299.85 137.471C299.198 137.459 298.552 137.589 297.956 137.854C297.36 138.118 296.829 138.509 296.4 139.001C295.479 140.004 294.856 141.243 294.6 142.581C295.838 142.92 297.117 143.081 298.4 143.061V143.071Z" fill="white"/>
<path d="M311.35 144.301L311.44 150.131C311.44 151.184 311.047 151.711 310.26 151.711C309.307 151.711 308.83 150.981 308.83 149.521C308.887 147.469 309.095 145.423 309.45 143.401C309.429 142.207 309.342 141.015 309.19 139.831C309.017 138.324 308.93 137.384 308.93 137.011C308.925 136.65 309.041 136.298 309.26 136.011C309.365 135.876 309.499 135.767 309.652 135.692C309.806 135.617 309.974 135.577 310.145 135.577C310.316 135.577 310.484 135.617 310.638 135.692C310.791 135.767 310.925 135.876 311.03 136.011C311.243 136.282 311.359 136.616 311.36 136.961C311.36 137.301 311.36 137.734 311.36 138.261C311.36 138.788 311.36 139.228 311.36 139.581C311.783 138.514 312.447 137.559 313.3 136.791C314.015 136.055 314.985 135.622 316.01 135.581C316.77 135.534 317.524 135.734 318.16 136.151C318.374 136.28 318.555 136.458 318.687 136.67C318.819 136.882 318.899 137.122 318.92 137.371C318.936 137.735 318.814 138.092 318.58 138.371C318.469 138.493 318.333 138.589 318.181 138.653C318.029 138.716 317.865 138.747 317.7 138.741C317.25 138.702 316.83 138.499 316.52 138.171C316.259 137.876 315.907 137.676 315.52 137.601C314.853 137.601 314.057 138.334 313.13 139.801C312.243 141.167 311.638 142.697 311.35 144.301V144.301Z" fill="white"/>
<path d="M328 135.441C329.481 135.379 330.932 135.879 332.06 136.841C332.574 137.292 332.981 137.852 333.252 138.48C333.524 139.107 333.653 139.787 333.63 140.471C333.653 141.162 333.484 141.845 333.142 142.446C332.799 143.046 332.297 143.539 331.69 143.871C330.239 144.685 328.593 145.086 326.93 145.031C325.605 145.001 324.285 144.844 322.99 144.561C323.09 145.957 323.666 147.277 324.62 148.301C325.011 148.778 325.5 149.165 326.054 149.436C326.608 149.707 327.214 149.855 327.83 149.871C328.508 149.883 329.183 149.785 329.83 149.581C330.313 149.437 330.772 149.221 331.19 148.941C331.647 148.484 332.206 148.142 332.82 147.941C332.934 147.935 333.047 147.953 333.154 147.992C333.26 148.032 333.358 148.092 333.44 148.171C333.515 148.245 333.574 148.334 333.614 148.432C333.653 148.53 333.672 148.635 333.67 148.741C333.67 149.321 333.077 149.987 331.89 150.741C330.737 151.476 329.397 151.865 328.03 151.861C327.06 151.902 326.094 151.72 325.206 151.328C324.318 150.936 323.533 150.345 322.91 149.601C321.654 148.054 320.95 146.133 320.91 144.141C319.817 143.807 319.27 143.271 319.27 142.531C319.263 142.398 319.282 142.265 319.326 142.139C319.371 142.014 319.44 141.899 319.53 141.801C319.613 141.716 319.713 141.649 319.823 141.604C319.933 141.56 320.051 141.538 320.17 141.541C320.497 141.563 320.815 141.659 321.1 141.821C321.493 140.069 322.394 138.472 323.69 137.231C324.84 136.098 326.386 135.456 328 135.441V135.441ZM326.82 143.071C327.979 143.125 329.133 142.881 330.17 142.361C330.54 142.192 330.855 141.923 331.078 141.583C331.301 141.243 331.423 140.847 331.43 140.441C331.437 139.664 331.144 138.915 330.61 138.351C330.306 138.044 329.94 137.807 329.536 137.655C329.132 137.503 328.7 137.44 328.27 137.471C327.62 137.46 326.975 137.592 326.381 137.856C325.787 138.12 325.258 138.511 324.83 139.001C323.909 140.004 323.286 141.243 323.03 142.581C324.268 142.92 325.547 143.081 326.83 143.061L326.82 143.071Z" fill="white"/>
<g style="mix-blend-mode:multiply" opacity="0.2">
<g style="mix-blend-mode:multiply" opacity="0.2">
<path d="M552.32 90.0013C555.748 88.7276 559.011 87.049 562.04 85.0013C569.04 80.3213 573.62 74.6213 574.65 69.3713C576.378 61.0488 576.514 52.4743 575.05 44.1013C573.457 34.9846 568.99 26.6166 562.3 20.2213C553.38 11.7913 537.35 6.5313 513.3 4.1413C497.3 2.5613 467.59 -0.388695 452.96 19.0013C444.81 29.7913 440.58 45.5913 442.19 59.2313C444 74.3513 457.77 81.0913 471 85.7013C477.7 88.0213 480.72 97.3113 482 101.281C482.65 103.281 482.94 104.181 484 103.851L484.25 103.771L484.43 103.591C489.15 98.8613 497.43 91.1613 499.43 90.5913C506.87 88.6813 513.06 89.3713 521.63 90.3213C527.3 90.9513 533.73 91.6613 542.26 91.8813C545.701 91.8814 549.112 91.244 552.32 90.0013V90.0013ZM470.86 8.4513C485 3.2713 502.24 5.0013 513 6.0013C536.63 8.3413 552.29 13.4313 560.88 21.5613C567.53 27.8513 577.88 42.3913 572.69 69.0513C571 78.0013 555 90.3313 542.44 90.0013C534 89.7813 527.62 89.0813 521.99 88.4513C513.21 87.4513 506.86 86.7713 499.06 88.7713C496.24 89.5013 487.55 97.8713 484.14 101.241L483.94 100.641C482.57 96.4113 479.35 86.5113 471.75 83.8813C449.08 76.0213 445.07 66.8813 444.13 58.9613C442.57 45.7713 446.65 30.5113 454.52 20.0913C458.709 14.6948 464.391 10.6474 470.86 8.4513V8.4513Z" fill="black"/>
</g>
</g>
<path d="M553.53 87.5608C556.958 86.2871 560.221 84.6086 563.25 82.5608C570.25 77.8808 574.83 72.1808 575.86 66.9308C577.588 58.6084 577.724 50.0338 576.26 41.6608C574.678 32.5311 570.213 24.1481 563.52 17.7408C554.6 9.31083 538.57 4.05084 514.52 1.66084C498.52 0.0808358 468.81 -2.86917 454.18 16.5208C446.03 27.3108 441.8 43.1108 443.41 56.7508C445.19 71.8608 459 78.6108 472.28 83.2108C478.98 85.5308 482 94.8208 483.28 98.7908C483.93 100.791 484.22 101.691 485.28 101.361L485.53 101.281L485.71 101.101C490.43 96.3708 498.71 88.6708 500.71 88.1008C508.15 86.1908 514.34 86.8808 522.91 87.8308C528.58 88.4608 535.01 89.1708 543.54 89.3908C546.954 89.3983 550.34 88.778 553.53 87.5608ZM472.07 6.00084C486.26 0.830836 503.46 2.53083 514.23 3.60083C537.86 5.94083 553.52 11.0308 562.11 19.1608C568.76 25.4508 579.11 39.9908 573.92 66.6508C572.17 75.5608 556.22 87.8708 543.65 87.5508C535.21 87.3308 528.83 86.6308 523.2 86.0008C514.42 85.0008 508.07 84.3208 500.27 86.3208C497.45 87.0408 488.76 95.4208 485.35 98.7908L485.15 98.1908C483.78 93.9608 480.56 84.0608 472.96 81.4308C450.29 73.5708 446.28 64.4308 445.34 56.5108C443.78 43.3208 447.86 28.0608 455.73 17.6408C459.919 12.2444 465.601 8.19692 472.07 6.00084Z" fill="#FFAE00"/>
<path d="M474.57 55.6905L474.68 45.4305C474.68 44.0972 474.68 42.1705 474.68 39.6505C474.68 37.1305 474.68 35.7205 474.68 35.4205C474.488 35.4568 474.295 35.4802 474.1 35.4905C473.38 35.4905 473.02 35.0938 473.02 34.3005C473.044 33.9986 473.143 33.7073 473.307 33.4526C473.471 33.198 473.695 32.9877 473.96 32.8405C474.652 32.3758 475.42 32.0373 476.23 31.8405C477.863 31.4142 479.542 31.1859 481.23 31.1605C482.636 31.1501 484.035 31.3696 485.37 31.8105C486.472 32.1561 487.492 32.7207 488.37 33.4705C489.015 33.997 489.541 34.6543 489.913 35.3989C490.286 36.1436 490.496 36.9587 490.53 37.7905C490.559 39.0975 490.202 40.3841 489.502 41.4888C488.803 42.5935 487.794 43.4673 486.6 44.0005C488.258 44.4511 489.731 45.4135 490.81 46.7505C491.88 48.0135 492.469 49.6149 492.47 51.2705C492.513 52.4409 492.246 53.602 491.697 54.6363C491.147 55.6706 490.334 56.5413 489.34 57.1605C486.82 58.6543 483.916 59.3741 480.99 59.2305C478.962 59.2865 476.938 59.0268 474.99 58.4605C473.417 57.9472 472.63 57.2805 472.63 56.4605C472.625 56.3286 472.647 56.1971 472.693 56.0735C472.739 55.9499 472.81 55.8368 472.9 55.7405C472.997 55.6442 473.113 55.5687 473.24 55.5188C473.367 55.469 473.503 55.4457 473.64 55.4505C473.965 55.4538 474.284 55.5362 474.57 55.6905V55.6905ZM480.87 33.5905C479.69 33.6069 478.517 33.775 477.38 34.0905C477.307 35.3638 477.27 38.3638 477.27 43.0905C478.058 42.7939 478.9 42.6711 479.74 42.7305C480.843 42.724 481.945 42.8211 483.03 43.0205C483.668 42.9573 484.287 42.7668 484.85 42.4605C485.642 42.0254 486.326 41.4169 486.85 40.6805C487.505 39.8563 487.857 38.833 487.85 37.7805C487.821 37.1908 487.65 36.6167 487.353 36.1067C487.055 35.5967 486.639 35.1659 486.14 34.8505C484.561 33.8822 482.716 33.4409 480.87 33.5905ZM480.87 56.8105C483.091 56.9209 485.298 56.4045 487.24 55.3205C487.986 54.8905 488.601 54.2663 489.02 53.5144C489.439 52.7624 489.647 51.9109 489.62 51.0505C489.63 50.3224 489.463 49.6028 489.133 48.9532C488.804 48.3037 488.323 47.7435 487.73 47.3205C486.553 46.3851 485.161 45.7594 483.68 45.5005C482.271 45.7803 480.844 45.9608 479.41 46.0405C478.689 46.0453 477.97 45.9614 477.27 45.7905C477.27 51.0705 477.317 54.6338 477.41 56.4805C478.55 56.6998 479.709 56.8103 480.87 56.8105V56.8105Z" fill="black"/>
<path d="M505.3 40.1414C507.022 40.0657 508.708 40.6445 510.02 41.7614C510.615 42.2856 511.087 42.9349 511.401 43.6627C511.716 44.3905 511.866 45.1789 511.84 45.9714C511.866 46.7719 511.67 47.5641 511.272 48.2597C510.875 48.9552 510.293 49.527 509.59 49.9114C507.905 50.8586 505.992 51.3255 504.06 51.2614C502.523 51.2281 500.993 51.0473 499.49 50.7214C499.607 52.3412 500.274 53.8726 501.38 55.0613C501.835 55.6141 502.404 56.0627 503.047 56.3766C503.691 56.6906 504.394 56.8628 505.11 56.8813C505.88 56.8896 506.646 56.7748 507.38 56.5414C507.941 56.3763 508.474 56.1268 508.96 55.8014C509.495 55.2866 510.142 54.9032 510.85 54.6814C510.982 54.6766 511.113 54.698 511.237 54.7444C511.361 54.7907 511.474 54.8611 511.57 54.9513C511.658 55.0387 511.728 55.1432 511.774 55.2584C511.821 55.3736 511.843 55.4972 511.84 55.6214C511.84 56.288 511.15 57.0547 509.77 57.9213C508.432 58.7746 506.877 59.2258 505.29 59.2214C504.164 59.2682 503.043 59.0553 502.013 58.5993C500.983 58.1432 500.072 57.4561 499.35 56.5913C497.87 54.8039 497.032 52.5715 496.97 50.2514C495.697 49.8647 495.06 49.2413 495.06 48.3813C495.051 48.226 495.074 48.0705 495.127 47.9243C495.18 47.7781 495.263 47.6444 495.37 47.5314C495.465 47.4314 495.58 47.3522 495.708 47.2989C495.835 47.2455 495.972 47.2191 496.11 47.2214C496.489 47.2462 496.858 47.3555 497.19 47.5414C497.644 45.5083 498.688 43.6543 500.19 42.2114C501.553 40.8735 503.39 40.1293 505.3 40.1414ZM503.93 49.0014C505.276 49.0632 506.616 48.7774 507.82 48.1713C508.249 47.9752 508.614 47.6617 508.872 47.2672C509.13 46.8726 509.272 46.4129 509.28 45.9414C509.28 45.0312 508.921 44.1577 508.28 43.5114C507.923 43.1617 507.496 42.8917 507.027 42.7194C506.559 42.547 506.058 42.4761 505.56 42.5114C504.804 42.4987 504.054 42.6515 503.363 42.9589C502.672 43.2664 502.057 43.7211 501.56 44.2914C500.49 45.4568 499.766 46.8974 499.47 48.4513C500.923 48.8466 502.425 49.0319 503.93 49.0014Z" fill="black"/>
<path d="M518.82 45.1803L519 57.2403C519 58.4403 518.543 59.0403 517.63 59.0403C516.717 59.0403 516.26 58.4403 516.26 57.2403L516.44 45.1803L516.26 33.1203C516.26 31.9203 516.717 31.3203 517.63 31.3203C518.543 31.3203 519 31.9203 519 33.1203L518.82 45.1803Z" fill="black"/>
<path d="M526.88 45.1803L527.06 57.2403C527.06 58.4403 526.603 59.0403 525.69 59.0403C524.777 59.0403 524.32 58.4403 524.32 57.2403L524.5 45.1803L524.32 33.1203C524.32 31.9203 524.777 31.3203 525.69 31.3203C526.603 31.3203 527.06 31.9203 527.06 33.1203L526.88 45.1803Z" fill="black"/>
<path d="M539.86 40.141C541.014 40.1126 542.159 40.3451 543.21 40.8213C544.261 41.2975 545.191 42.005 545.93 42.891C547.481 44.8066 548.327 47.1964 548.327 49.661C548.327 52.1256 547.481 54.5154 545.93 56.431C545.179 57.3041 544.248 58.0048 543.202 58.4851C542.155 58.9655 541.017 59.2141 539.865 59.2141C538.713 59.2141 537.575 58.9655 536.528 58.4851C535.482 58.0048 534.551 57.3041 533.8 56.431C532.255 54.5131 531.412 52.1241 531.412 49.661C531.412 47.1979 532.255 44.8089 533.8 42.891C534.539 42.0069 535.467 41.3006 536.516 40.8245C537.565 40.3485 538.708 40.1148 539.86 40.141ZM544 54.761C545.121 53.3022 545.734 51.5172 545.746 49.6778C545.759 47.8383 545.17 46.0451 544.07 44.571C543.591 43.9193 542.964 43.3902 542.241 43.0269C541.518 42.6637 540.719 42.4766 539.91 42.481C539.089 42.4825 538.279 42.6749 537.545 43.0428C536.811 43.4107 536.173 43.9441 535.68 44.601C534.559 46.0598 533.946 47.8448 533.934 49.6842C533.921 51.5237 534.51 53.3169 535.61 54.791C536.089 55.4427 536.716 55.9718 537.439 56.3351C538.162 56.6983 538.961 56.8854 539.77 56.881C540.591 56.8794 541.401 56.6871 542.135 56.3192C542.869 55.9513 543.507 55.4179 544 54.761V54.761Z" fill="black"/>
<g clip-path="url(#clip0)">
<path fill-rule="evenodd" clip-rule="evenodd" d="M506.348 267.751C488.632 285.622 477.24 283.928 466.571 273.144C462.621 269.2 459.329 264.633 456.822 259.62L440.109 271.986C443.607 278.75 448.096 284.937 453.423 290.337C473.674 310.778 496.432 315.464 524.398 287.232L590.554 220.462L589.384 219.248C581.479 216.128 574.891 210.319 570.749 202.816L506.348 267.751ZM381 268.598C381 304.637 395.125 339.199 420.267 364.682C445.41 390.166 479.51 404.482 515.067 404.482C550.624 404.482 584.724 390.166 609.866 364.682C635.009 339.199 649.134 304.637 649.134 268.598C649.168 246.43 643.79 224.597 633.479 205.047C630.437 209.774 626.368 213.733 621.583 216.62C616.798 219.507 611.425 221.246 605.875 221.704C617.428 244.17 620.582 270.11 614.756 294.747C608.929 319.383 594.515 341.056 574.169 355.772C553.823 370.489 528.915 377.257 504.035 374.831C479.154 372.404 455.976 360.947 438.772 342.568C421.567 324.19 411.495 300.13 410.41 274.819C409.325 249.509 417.301 224.653 432.869 204.832C448.436 185.011 470.546 171.56 495.126 166.956C519.705 162.352 545.098 166.906 566.627 179.778C567.407 174.198 569.437 168.872 572.561 164.208C575.685 159.545 579.82 155.667 584.649 152.873C564.342 140.417 541.139 133.643 517.407 133.243C493.674 132.844 470.262 138.832 449.558 150.597C428.854 162.362 411.6 179.483 399.556 200.213C387.512 220.944 381.109 244.541 381 268.598V268.598Z" fill="#010101"/>
<path fill-rule="evenodd" clip-rule="evenodd" d="M576.571 183.928C576.637 178.514 578.281 173.241 581.298 168.772C584.314 164.303 588.567 160.839 593.521 158.815C598.475 156.79 603.91 156.297 609.141 157.396C614.371 158.495 619.164 161.137 622.916 164.991C626.668 168.845 629.212 173.738 630.226 179.053C631.241 184.369 630.682 189.87 628.619 194.864C626.556 199.858 623.081 204.123 618.633 207.12C614.184 210.117 608.96 211.714 603.618 211.708C600.042 211.686 596.505 210.95 593.21 209.541C589.915 208.133 586.926 206.08 584.414 203.5C581.902 200.92 579.916 197.863 578.57 194.505C577.225 191.146 576.545 187.552 576.571 183.928V183.928Z" fill="#F8991D"/>
<path fill-rule="evenodd" clip-rule="evenodd" d="M659.552 180.23C658.827 165.838 652.737 152.262 642.514 142.246C632.291 132.231 618.698 126.523 604.482 126.277L599.134 140.704C600.695 140.495 602.267 140.382 603.841 140.365C615.015 140.492 625.683 145.099 633.514 153.178C641.344 161.258 645.698 172.152 645.624 183.477C645.624 184.352 645.624 185.171 645.624 186.046L659.552 180.23Z" fill="#F8991D"/>
<path fill-rule="evenodd" clip-rule="evenodd" d="M612.783 104L607.685 117.693C623.002 118.74 637.45 125.283 648.44 136.147C659.429 147.012 666.242 161.488 667.657 176.981L681 171.335C678.468 154.091 670.423 138.165 658.1 126.002C645.777 113.838 629.857 106.109 612.783 104V104Z" fill="#F8991D"/>
</g>
<defs>
<clipPath id="clip0">
<rect width="300" height="300" fill="white" transform="translate(381 104)"/>
</clipPath>
</defs>
</svg>
