<svg width="148" height="80" viewBox="0 0 148 80" fill="none" xmlns="http://www.w3.org/2000/svg">
<rect width="148" height="80" rx="2" fill="#D1D5DB"/>
<rect x="1" y="1" width="146" height="78" rx="1" fill="#FAFBFB"/>
<path fill-rule="evenodd" clip-rule="evenodd" d="M16 26C18.2091 26 20 24.2091 20 22C20 19.7909 18.2091 18 16 18C13.7909 18 12 19.7909 12 22C12 24.2091 13.7909 26 16 26ZM136 18H24V26H136V18ZM24 30H136V38H24V30ZM136 42H24V50H136V42ZM136 54H24V62H136V54ZM20 34C20 36.2091 18.2091 38 16 38C13.7909 38 12 36.2091 12 34C12 31.7909 13.7909 30 16 30C18.2091 30 20 31.7909 20 34ZM16 50C18.2091 50 20 48.2091 20 46C20 43.7909 18.2091 42 16 42C13.7909 42 12 43.7909 12 46C12 48.2091 13.7909 50 16 50ZM20 58C20 60.2091 18.2091 62 16 62C13.7909 62 12 60.2091 12 58C12 55.7909 13.7909 54 16 54C18.2091 54 20 55.7909 20 58Z" fill="#5D6B82"/>
</svg>
