<svg width="148" height="80" viewBox="0 0 148 80" fill="none" xmlns="http://www.w3.org/2000/svg">
<rect width="148" height="80" rx="2" fill="#D1D5DB"/>
<rect x="1" y="1" width="146" height="78" rx="1" fill="#FAFBFB"/>
<path fill-rule="evenodd" clip-rule="evenodd" d="M15.7451 25H14.5635V19.292L12.8203 19.8877V18.8867L15.5938 17.8662H15.7451V25ZM136 18H24V26H136V18ZM24 30H136V38H24V30ZM136 42H24V50H136V42ZM136 54H24V62H136V54ZM12.5322 37H17.3125V36.0527H14.0117L15.75 34.1924C16.2057 33.6976 16.5329 33.2565 16.7314 32.8691C16.9333 32.4785 17.0342 32.1058 17.0342 31.751C17.0342 31.139 16.834 30.6605 16.4336 30.3154C16.0365 29.9671 15.4928 29.793 14.8027 29.793C14.3242 29.793 13.901 29.889 13.5332 30.0811C13.1686 30.2731 12.887 30.5433 12.6885 30.8916C12.4932 31.2367 12.3955 31.6257 12.3955 32.0586H13.582C13.582 31.6517 13.6878 31.3311 13.8994 31.0967C14.111 30.8623 14.4089 30.7451 14.793 30.7451C15.1152 30.7451 15.3708 30.8493 15.5596 31.0576C15.7516 31.266 15.8477 31.5394 15.8477 31.8779C15.8477 32.1351 15.7744 32.3923 15.6279 32.6494C15.4847 32.9033 15.2422 33.2207 14.9004 33.6016L12.5322 36.1846V37ZM13.9043 44.9033H14.627C14.9915 44.9001 15.2796 44.8057 15.4912 44.6201C15.7061 44.4346 15.8135 44.166 15.8135 43.8145C15.8135 43.4759 15.724 43.2139 15.5449 43.0283C15.3691 42.8395 15.099 42.7451 14.7344 42.7451C14.4154 42.7451 14.1533 42.8379 13.9482 43.0234C13.7432 43.2057 13.6406 43.445 13.6406 43.7412H12.4541C12.4541 43.3766 12.5501 43.0446 12.7422 42.7451C12.9375 42.4456 13.2077 42.2129 13.5527 42.0469C13.901 41.8776 14.29 41.793 14.7197 41.793C15.4294 41.793 15.986 41.972 16.3896 42.3301C16.7965 42.6849 17 43.1797 17 43.8145C17 44.1335 16.8975 44.4346 16.6924 44.7178C16.4906 44.9977 16.2285 45.2093 15.9062 45.3525C16.2969 45.486 16.5931 45.696 16.7949 45.9824C17 46.2689 17.1025 46.6107 17.1025 47.0078C17.1025 47.6458 16.8828 48.1536 16.4434 48.5312C16.0072 48.9089 15.4326 49.0977 14.7197 49.0977C14.0361 49.0977 13.4762 48.9154 13.04 48.5508C12.6038 48.1862 12.3857 47.7012 12.3857 47.0957H13.5723C13.5723 47.4082 13.6764 47.6621 13.8848 47.8574C14.0964 48.0527 14.3796 48.1504 14.7344 48.1504C15.1022 48.1504 15.3919 48.0527 15.6035 47.8574C15.8151 47.6621 15.9209 47.3789 15.9209 47.0078C15.9209 46.6335 15.8102 46.3454 15.5889 46.1436C15.3675 45.9417 15.0387 45.8408 14.6025 45.8408H13.9043V44.9033ZM17.4297 58.4658H16.5459V53.8906H15.3203L12.2539 58.6953L12.2881 59.418H15.3594V61H16.5459V59.418H17.4297V58.4658ZM15.3594 58.4658H13.499L15.2715 55.6533L15.3594 55.4971V58.4658Z" fill="#5D6B82"/>
</svg>
