<svg width="148" height="80" viewBox="0 0 148 80" fill="none" xmlns="http://www.w3.org/2000/svg">
<rect width="148" height="80" rx="2" fill="#D1D5DB"/>
<rect x="1" y="1" width="146" height="78" rx="1" fill="#FAFBFB"/>
<path fill-rule="evenodd" clip-rule="evenodd" d="M136 18H24V26H136V18ZM24 30H136V38H24V30ZM136 42H24V50H136V42ZM136 54H24V62H136V54ZM16 26C18.2091 26 20 24.2091 20 22C20 19.7909 18.2091 18 16 18C13.7909 18 12 19.7909 12 22C12 24.2091 13.7909 26 16 26ZM17.7696 25C17.7399 25 17.7105 24.9911 17.685 24.9732L15.9227 23.74L14.1566 24.9732C14.1311 24.9911 14.1014 25 14.072 25C14.0429 25 14.0135 24.9914 13.9883 24.9738C13.9376 24.9387 13.9127 24.8753 13.9256 24.8137L14.3726 22.6823L13.0439 21.3183C13.001 21.2742 12.9881 21.208 13.0115 21.1505C13.0346 21.0932 13.0892 21.0553 13.1501 21.0553H14.9027L15.7868 19.0893C15.8114 19.0348 15.8645 19 15.923 19C15.9815 19 16.0347 19.0348 16.0593 19.0893L16.9434 21.0553H18.8502C18.9108 21.0553 18.9654 21.0932 18.9885 21.1505C19.0119 21.208 18.999 21.2742 18.9561 21.3183L17.6226 22.687L17.9181 24.8245C17.9265 24.8848 17.8992 24.9446 17.8488 24.9769C17.8245 24.9923 17.7969 25 17.7696 25ZM16 38C18.2091 38 20 36.2091 20 34C20 31.7909 18.2091 30 16 30C13.7909 30 12 31.7909 12 34C12 36.2091 13.7909 38 16 38ZM17.7696 37C17.7399 37 17.7105 36.9911 17.685 36.9732L15.9227 35.74L14.1566 36.9732C14.1311 36.9911 14.1014 37 14.072 37C14.0429 37 14.0135 36.9914 13.9883 36.9738C13.9376 36.9387 13.9127 36.8753 13.9256 36.8137L14.3726 34.6823L13.0439 33.3183C13.001 33.2742 12.9881 33.208 13.0115 33.1505C13.0346 33.0932 13.0892 33.0553 13.1501 33.0553H14.9027L15.7868 31.0893C15.8114 31.0348 15.8645 31 15.923 31C15.9815 31 16.0347 31.0348 16.0593 31.0893L16.9434 33.0553H18.8502C18.9108 33.0553 18.9654 33.0932 18.9885 33.1505C19.0119 33.208 18.999 33.2742 18.9561 33.3183L17.6226 34.687L17.9181 36.8245C17.9265 36.8848 17.8992 36.9446 17.8488 36.9769C17.8245 36.9923 17.7969 37 17.7696 37ZM16 50C18.2091 50 20 48.2091 20 46C20 43.7909 18.2091 42 16 42C13.7909 42 12 43.7909 12 46C12 48.2091 13.7909 50 16 50ZM17.7696 49C17.7399 49 17.7105 48.9911 17.685 48.9732L15.9227 47.74L14.1566 48.9732C14.1311 48.9911 14.1014 49 14.072 49C14.0429 49 14.0135 48.9914 13.9883 48.9738C13.9376 48.9387 13.9127 48.8753 13.9256 48.8137L14.3726 46.6823L13.0439 45.3183C13.001 45.2742 12.9881 45.208 13.0115 45.1505C13.0346 45.0932 13.0892 45.0553 13.1501 45.0553H14.9027L15.7868 43.0893C15.8114 43.0348 15.8645 43 15.923 43C15.9815 43 16.0347 43.0348 16.0593 43.0893L16.9434 45.0553H18.8502C18.9108 45.0553 18.9654 45.0932 18.9885 45.1505C19.0119 45.208 18.999 45.2742 18.9561 45.3183L17.6226 46.687L17.9181 48.8245C17.9265 48.8848 17.8992 48.9446 17.8488 48.9769C17.8245 48.9923 17.7969 49 17.7696 49ZM16 62C18.2091 62 20 60.2091 20 58C20 55.7909 18.2091 54 16 54C13.7909 54 12 55.7909 12 58C12 60.2091 13.7909 62 16 62ZM17.7696 61C17.7399 61 17.7105 60.9911 17.685 60.9732L15.9227 59.74L14.1566 60.9732C14.1311 60.9911 14.1014 61 14.072 61C14.0429 61 14.0135 60.9914 13.9883 60.9738C13.9376 60.9387 13.9127 60.8753 13.9256 60.8137L14.3726 58.6823L13.0439 57.3183C13.001 57.2742 12.9881 57.208 13.0115 57.1505C13.0346 57.0932 13.0892 57.0553 13.1501 57.0553H14.9027L15.7868 55.0893C15.8114 55.0348 15.8645 55 15.923 55C15.9815 55 16.0347 55.0348 16.0593 55.0893L16.9434 57.0553H18.8502C18.9108 57.0553 18.9654 57.0932 18.9885 57.1505C19.0119 57.208 18.999 57.2742 18.9561 57.3183L17.6226 58.687L17.9181 60.8245C17.9265 60.8848 17.8992 60.9446 17.8488 60.9769C17.8245 60.9923 17.7969 61 17.7696 61Z" fill="#5D6B82"/>
</svg>
