<svg width="148" height="80" viewBox="0 0 148 80" fill="none" xmlns="http://www.w3.org/2000/svg">
<rect width="148" height="80" rx="2" fill="#D1D5DB"/>
<rect x="1" y="1" width="146" height="78" rx="1" fill="#FAFBFB"/>
<path d="M49.7344 47H47.2734V40.6816H40.916V47H38.4453V32.7812H40.916V38.6992H47.2734V32.7812H49.7344V47ZM57.0879 47.1953C55.584 47.1953 54.3633 46.7233 53.4258 45.7793C52.4948 44.8288 52.0293 43.5658 52.0293 41.9902V41.6973C52.0293 40.6426 52.2311 39.7018 52.6348 38.875C53.0449 38.0417 53.6178 37.3939 54.3535 36.9316C55.0892 36.4694 55.9095 36.2383 56.8145 36.2383C58.2533 36.2383 59.3633 36.6973 60.1445 37.6152C60.9323 38.5332 61.3262 39.832 61.3262 41.5117V42.4688H54.4219C54.4935 43.3411 54.7832 44.0312 55.291 44.5391C55.8053 45.0469 56.4499 45.3008 57.2246 45.3008C58.3118 45.3008 59.1973 44.8613 59.8809 43.9824L61.1602 45.2031C60.737 45.8346 60.1706 46.3262 59.4609 46.6777C58.7578 47.0228 57.9668 47.1953 57.0879 47.1953ZM56.8047 38.1426C56.1536 38.1426 55.6263 38.3704 55.2227 38.8262C54.8255 39.2819 54.5716 39.9167 54.4609 40.7305H58.9824V40.5547C58.9303 39.7604 58.7188 39.1615 58.3477 38.7578C57.9766 38.3477 57.4622 38.1426 56.8047 38.1426ZM69.4902 47C69.3861 46.7982 69.2949 46.4694 69.2168 46.0137C68.4616 46.8014 67.5371 47.1953 66.4434 47.1953C65.3822 47.1953 64.5163 46.8926 63.8457 46.2871C63.1751 45.6816 62.8398 44.9329 62.8398 44.041C62.8398 42.9147 63.2565 42.0521 64.0898 41.4531C64.9297 40.8477 66.1276 40.5449 67.6836 40.5449H69.1387V39.8516C69.1387 39.3047 68.9857 38.8685 68.6797 38.543C68.3737 38.2109 67.9082 38.0449 67.2832 38.0449C66.7428 38.0449 66.3001 38.1816 65.9551 38.4551C65.61 38.722 65.4375 39.0638 65.4375 39.4805H63.0645C63.0645 38.901 63.2565 38.3607 63.6406 37.8594C64.0247 37.3516 64.5456 36.9544 65.2031 36.668C65.8672 36.3815 66.6061 36.2383 67.4199 36.2383C68.6569 36.2383 69.6432 36.5508 70.3789 37.1758C71.1146 37.7943 71.4922 38.6667 71.5117 39.793V44.5586C71.5117 45.5091 71.6452 46.2676 71.9121 46.834V47H69.4902ZM66.8828 45.291C67.3516 45.291 67.791 45.1771 68.2012 44.9492C68.6178 44.7214 68.9303 44.4154 69.1387 44.0312V42.0391H67.8594C66.9805 42.0391 66.3197 42.1921 65.877 42.498C65.4342 42.804 65.2129 43.237 65.2129 43.7969C65.2129 44.2526 65.3626 44.6172 65.6621 44.8906C65.9681 45.1576 66.375 45.291 66.8828 45.291ZM73.5527 41.6387C73.5527 40.0111 73.9303 38.7057 74.6855 37.7227C75.4408 36.7331 76.4531 36.2383 77.7227 36.2383C78.8424 36.2383 79.7474 36.6289 80.4375 37.4102V32H82.8105V47H80.6621L80.5449 45.9062C79.8353 46.7656 78.888 47.1953 77.7031 47.1953C76.4661 47.1953 75.4635 46.6973 74.6953 45.7012C73.9336 44.7051 73.5527 43.3509 73.5527 41.6387ZM75.9258 41.8438C75.9258 42.918 76.1309 43.7578 76.541 44.3633C76.9577 44.9622 77.5469 45.2617 78.3086 45.2617C79.2786 45.2617 79.9883 44.8288 80.4375 43.9629V39.4512C80.0013 38.6048 79.2982 38.1816 78.3281 38.1816C77.5599 38.1816 76.9674 38.4876 76.5508 39.0996C76.1341 39.7051 75.9258 40.6198 75.9258 41.8438ZM87.8105 47H85.4375V36.4336H87.8105V47ZM85.291 33.6895C85.291 33.3249 85.4049 33.0221 85.6328 32.7812C85.8672 32.5404 86.1992 32.4199 86.6289 32.4199C87.0586 32.4199 87.3906 32.5404 87.625 32.7812C87.8594 33.0221 87.9766 33.3249 87.9766 33.6895C87.9766 34.0475 87.8594 34.347 87.625 34.5879C87.3906 34.8223 87.0586 34.9395 86.6289 34.9395C86.1992 34.9395 85.8672 34.8223 85.6328 34.5879C85.4049 34.347 85.291 34.0475 85.291 33.6895ZM92.6055 36.4336L92.6738 37.6543C93.4551 36.7103 94.4805 36.2383 95.75 36.2383C97.9505 36.2383 99.0703 37.498 99.1094 40.0176V47H96.7363V40.1543C96.7363 39.4837 96.5898 38.9889 96.2969 38.6699C96.0104 38.3444 95.5384 38.1816 94.8809 38.1816C93.9238 38.1816 93.2109 38.6146 92.7422 39.4805V47H90.3691V36.4336H92.6055ZM101.121 41.6387C101.121 39.998 101.505 38.6895 102.273 37.7129C103.048 36.7298 104.074 36.2383 105.35 36.2383C106.554 36.2383 107.501 36.6582 108.191 37.498L108.299 36.4336H110.438V46.6777C110.438 48.0645 110.005 49.1582 109.139 49.959C108.279 50.7598 107.117 51.1602 105.652 51.1602C104.878 51.1602 104.119 50.9974 103.377 50.6719C102.641 50.3529 102.081 49.9329 101.697 49.4121L102.82 47.9863C103.549 48.8522 104.448 49.2852 105.516 49.2852C106.303 49.2852 106.925 49.0703 107.381 48.6406C107.837 48.2174 108.064 47.5924 108.064 46.7656V46.0527C107.381 46.8145 106.469 47.1953 105.33 47.1953C104.093 47.1953 103.081 46.7038 102.293 45.7207C101.512 44.7376 101.121 43.377 101.121 41.6387ZM103.484 41.8438C103.484 42.9049 103.699 43.7415 104.129 44.3535C104.565 44.959 105.167 45.2617 105.936 45.2617C106.893 45.2617 107.602 44.8516 108.064 44.0312V39.3828C107.615 38.582 106.912 38.1816 105.955 38.1816C105.174 38.1816 104.565 38.4909 104.129 39.1094C103.699 39.7279 103.484 40.6393 103.484 41.8438Z" fill="#5D6B82"/>
</svg>
