<svg width="148" height="80" viewBox="0 0 148 80" fill="none" xmlns="http://www.w3.org/2000/svg">
<rect width="148" height="80" rx="2" fill="#D1D5DB"/>
<rect x="1" y="1" width="146" height="78" rx="1" fill="#FAFBFB"/>
<path fill-rule="evenodd" clip-rule="evenodd" d="M40.6165 49.9107C40.7015 49.9702 40.7995 50 40.8985 50C40.9895 50 41.0815 49.9743 41.1625 49.923C41.3305 49.8153 41.4215 49.6161 41.3935 49.415L40.4085 42.2898L44.8536 37.7276C44.9966 37.5808 45.0396 37.3602 44.9616 37.1682C44.8846 36.9773 44.7026 36.8511 44.5006 36.8511H38.1445L35.1975 30.2976C35.1155 30.116 34.9385 30 34.7435 30C34.5485 30 34.3715 30.116 34.2895 30.2976L31.3425 36.8511H25.5004C25.2974 36.8511 25.1154 36.9773 25.0384 37.1682C24.9604 37.3602 25.0034 37.5808 25.1464 37.7276L29.5755 42.2745L28.0855 49.379C28.0425 49.5843 28.1255 49.7958 28.2945 49.9128C28.3785 49.9713 28.4765 50 28.5735 50C28.6715 50 28.7705 49.9702 28.8555 49.9107L34.7425 45.8001L40.6165 49.9107ZM59.2734 47H61.7344V32.7812H59.2734V38.6992H52.916V32.7812H50.4453V47H52.916V40.6816H59.2734V47ZM65.4258 45.7793C66.3633 46.7233 67.584 47.1953 69.0879 47.1953C69.9668 47.1953 70.7578 47.0228 71.4609 46.6777C72.1706 46.3262 72.737 45.8346 73.1602 45.2031L71.8809 43.9824C71.1973 44.8613 70.3118 45.3008 69.2246 45.3008C68.4499 45.3008 67.8053 45.0469 67.291 44.5391C66.7832 44.0312 66.4935 43.3411 66.4219 42.4688H73.3262V41.5117C73.3262 39.832 72.9323 38.5332 72.1445 37.6152C71.3633 36.6973 70.2533 36.2383 68.8145 36.2383C67.9095 36.2383 67.0892 36.4694 66.3535 36.9316C65.6178 37.3939 65.0449 38.0417 64.6348 38.875C64.2311 39.7018 64.0293 40.6426 64.0293 41.6973V41.9902C64.0293 43.5658 64.4948 44.8288 65.4258 45.7793ZM67.2227 38.8262C67.6263 38.3704 68.1536 38.1426 68.8047 38.1426C69.4622 38.1426 69.9766 38.3477 70.3477 38.7578C70.7188 39.1615 70.9303 39.7604 70.9824 40.5547V40.7305H66.4609C66.5716 39.9167 66.8255 39.2819 67.2227 38.8262ZM81.2168 46.0137C81.2949 46.4694 81.3861 46.7982 81.4902 47H83.9121V46.834C83.6452 46.2676 83.5117 45.5091 83.5117 44.5586V39.793C83.4922 38.6667 83.1146 37.7943 82.3789 37.1758C81.6432 36.5508 80.6569 36.2383 79.4199 36.2383C78.6061 36.2383 77.8672 36.3815 77.2031 36.668C76.5456 36.9544 76.0247 37.3516 75.6406 37.8594C75.2565 38.3607 75.0645 38.901 75.0645 39.4805H77.4375C77.4375 39.0638 77.61 38.722 77.9551 38.4551C78.3001 38.1816 78.7428 38.0449 79.2832 38.0449C79.9082 38.0449 80.3737 38.2109 80.6797 38.543C80.9857 38.8685 81.1387 39.3047 81.1387 39.8516V40.5449H79.6836C78.1276 40.5449 76.9297 40.8477 76.0898 41.4531C75.2565 42.0521 74.8398 42.9147 74.8398 44.041C74.8398 44.9329 75.1751 45.6816 75.8457 46.2871C76.5163 46.8926 77.3822 47.1953 78.4434 47.1953C79.5371 47.1953 80.4616 46.8014 81.2168 46.0137ZM80.2012 44.9492C79.791 45.1771 79.3516 45.291 78.8828 45.291C78.375 45.291 77.9681 45.1576 77.6621 44.8906C77.3626 44.6172 77.2129 44.2526 77.2129 43.7969C77.2129 43.237 77.4342 42.804 77.877 42.498C78.3197 42.1921 78.9805 42.0391 79.8594 42.0391H81.1387V44.0312C80.9303 44.4154 80.6178 44.7214 80.2012 44.9492ZM86.6855 37.7227C85.9303 38.7057 85.5527 40.0111 85.5527 41.6387C85.5527 43.3509 85.9336 44.7051 86.6953 45.7012C87.4635 46.6973 88.4661 47.1953 89.7031 47.1953C90.888 47.1953 91.8353 46.7656 92.5449 45.9062L92.6621 47H94.8105V32H92.4375V37.4102C91.7474 36.6289 90.8424 36.2383 89.7227 36.2383C88.4531 36.2383 87.4408 36.7331 86.6855 37.7227ZM88.541 44.3633C88.1309 43.7578 87.9258 42.918 87.9258 41.8438C87.9258 40.6198 88.1341 39.7051 88.5508 39.0996C88.9674 38.4876 89.5599 38.1816 90.3281 38.1816C91.2982 38.1816 92.0013 38.6048 92.4375 39.4512V43.9629C91.9883 44.8288 91.2786 45.2617 90.3086 45.2617C89.5469 45.2617 88.9577 44.9622 88.541 44.3633ZM97.4375 47H99.8105V36.4336H97.4375V47ZM97.6328 32.7812C97.4049 33.0221 97.291 33.3249 97.291 33.6895C97.291 34.0475 97.4049 34.347 97.6328 34.5879C97.8672 34.8223 98.1992 34.9395 98.6289 34.9395C99.0586 34.9395 99.3906 34.8223 99.625 34.5879C99.8594 34.347 99.9766 34.0475 99.9766 33.6895C99.9766 33.3249 99.8594 33.0221 99.625 32.7812C99.3906 32.5404 99.0586 32.4199 98.6289 32.4199C98.1992 32.4199 97.8672 32.5404 97.6328 32.7812ZM104.674 37.6543L104.605 36.4336H102.369V47H104.742V39.4805C105.211 38.6146 105.924 38.1816 106.881 38.1816C107.538 38.1816 108.01 38.3444 108.297 38.6699C108.59 38.9889 108.736 39.4837 108.736 40.1543V47H111.109V40.0176C111.07 37.498 109.951 36.2383 107.75 36.2383C106.48 36.2383 105.455 36.7103 104.674 37.6543ZM114.273 37.7129C113.505 38.6895 113.121 39.998 113.121 41.6387C113.121 43.377 113.512 44.7376 114.293 45.7207C115.081 46.7038 116.093 47.1953 117.33 47.1953C118.469 47.1953 119.381 46.8145 120.064 46.0527V46.7656C120.064 47.5924 119.837 48.2174 119.381 48.6406C118.925 49.0703 118.303 49.2852 117.516 49.2852C116.448 49.2852 115.549 48.8522 114.82 47.9863L113.697 49.4121C114.081 49.9329 114.641 50.3529 115.377 50.6719C116.119 50.9974 116.878 51.1602 117.652 51.1602C119.117 51.1602 120.279 50.7598 121.139 49.959C122.005 49.1582 122.438 48.0645 122.438 46.6777V36.4336H120.299L120.191 37.498C119.501 36.6582 118.554 36.2383 117.35 36.2383C116.074 36.2383 115.048 36.7298 114.273 37.7129ZM116.129 44.3535C115.699 43.7415 115.484 42.9049 115.484 41.8438C115.484 40.6393 115.699 39.7279 116.129 39.1094C116.565 38.4909 117.174 38.1816 117.955 38.1816C118.912 38.1816 119.615 38.582 120.064 39.3828V44.0312C119.602 44.8516 118.893 45.2617 117.936 45.2617C117.167 45.2617 116.565 44.959 116.129 44.3535Z" fill="#5D6B82"/>
</svg>
