<svg width="148" height="80" viewBox="0 0 148 80" fill="none" xmlns="http://www.w3.org/2000/svg">
<rect width="148" height="80" rx="2" fill="#D1D5DB"/>
<rect x="1" y="1" width="146" height="78" rx="1" fill="#FAFBFB"/>
<path fill-rule="evenodd" clip-rule="evenodd" d="M119.617 49.9107C119.702 49.9702 119.8 50 119.899 50C119.99 50 120.082 49.9743 120.163 49.923C120.331 49.8153 120.422 49.6161 120.394 49.415L119.409 42.2898L123.854 37.7276C123.997 37.5808 124.04 37.3602 123.962 37.1682C123.885 36.9773 123.703 36.8511 123.501 36.8511H117.145L114.198 30.2976C114.116 30.116 113.938 30 113.743 30C113.549 30 113.371 30.116 113.289 30.2976L110.342 36.8511H104.5C104.297 36.8511 104.115 36.9773 104.038 37.1682C103.96 37.3602 104.003 37.5808 104.146 37.7276L108.575 42.2745L107.085 49.379C107.042 49.5843 107.125 49.7958 107.294 49.9128C107.378 49.9713 107.476 50 107.573 50C107.671 50 107.77 49.9702 107.855 49.9107L113.743 45.8001L119.617 49.9107ZM35.2734 46H37.7344V31.7812H35.2734V37.6992H28.916V31.7812H26.4453V46H28.916V39.6816H35.2734V46ZM41.4258 44.7793C42.3633 45.7233 43.584 46.1953 45.0879 46.1953C45.9668 46.1953 46.7578 46.0228 47.4609 45.6777C48.1706 45.3262 48.737 44.8346 49.1602 44.2031L47.8809 42.9824C47.1973 43.8613 46.3118 44.3008 45.2246 44.3008C44.4499 44.3008 43.8053 44.0469 43.291 43.5391C42.7832 43.0312 42.4935 42.3411 42.4219 41.4688H49.3262V40.5117C49.3262 38.832 48.9323 37.5332 48.1445 36.6152C47.3633 35.6973 46.2533 35.2383 44.8145 35.2383C43.9095 35.2383 43.0892 35.4694 42.3535 35.9316C41.6178 36.3939 41.0449 37.0417 40.6348 37.875C40.2311 38.7018 40.0293 39.6426 40.0293 40.6973V40.9902C40.0293 42.5658 40.4948 43.8288 41.4258 44.7793ZM43.2227 37.8262C43.6263 37.3704 44.1536 37.1426 44.8047 37.1426C45.4622 37.1426 45.9766 37.3477 46.3477 37.7578C46.7188 38.1615 46.9303 38.7604 46.9824 39.5547V39.7305H42.4609C42.5716 38.9167 42.8255 38.2819 43.2227 37.8262ZM57.2168 45.0137C57.2949 45.4694 57.3861 45.7982 57.4902 46H59.9121V45.834C59.6452 45.2676 59.5117 44.5091 59.5117 43.5586V38.793C59.4922 37.6667 59.1146 36.7943 58.3789 36.1758C57.6432 35.5508 56.6569 35.2383 55.4199 35.2383C54.6061 35.2383 53.8672 35.3815 53.2031 35.668C52.5456 35.9544 52.0247 36.3516 51.6406 36.8594C51.2565 37.3607 51.0645 37.901 51.0645 38.4805H53.4375C53.4375 38.0638 53.61 37.722 53.9551 37.4551C54.3001 37.1816 54.7428 37.0449 55.2832 37.0449C55.9082 37.0449 56.3737 37.2109 56.6797 37.543C56.9857 37.8685 57.1387 38.3047 57.1387 38.8516V39.5449H55.6836C54.1276 39.5449 52.9297 39.8477 52.0898 40.4531C51.2565 41.0521 50.8398 41.9147 50.8398 43.041C50.8398 43.9329 51.1751 44.6816 51.8457 45.2871C52.5163 45.8926 53.3822 46.1953 54.4434 46.1953C55.5371 46.1953 56.4616 45.8014 57.2168 45.0137ZM56.2012 43.9492C55.791 44.1771 55.3516 44.291 54.8828 44.291C54.375 44.291 53.9681 44.1576 53.6621 43.8906C53.3626 43.6172 53.2129 43.2526 53.2129 42.7969C53.2129 42.237 53.4342 41.804 53.877 41.498C54.3197 41.1921 54.9805 41.0391 55.8594 41.0391H57.1387V43.0312C56.9303 43.4154 56.6178 43.7214 56.2012 43.9492ZM62.6855 36.7227C61.9303 37.7057 61.5527 39.0111 61.5527 40.6387C61.5527 42.3509 61.9336 43.7051 62.6953 44.7012C63.4635 45.6973 64.4661 46.1953 65.7031 46.1953C66.888 46.1953 67.8353 45.7656 68.5449 44.9062L68.6621 46H70.8105V31H68.4375V36.4102C67.7474 35.6289 66.8424 35.2383 65.7227 35.2383C64.4531 35.2383 63.4408 35.7331 62.6855 36.7227ZM64.541 43.3633C64.1309 42.7578 63.9258 41.918 63.9258 40.8438C63.9258 39.6198 64.1341 38.7051 64.5508 38.0996C64.9674 37.4876 65.5599 37.1816 66.3281 37.1816C67.2982 37.1816 68.0013 37.6048 68.4375 38.4512V42.9629C67.9883 43.8288 67.2786 44.2617 66.3086 44.2617C65.5469 44.2617 64.9577 43.9622 64.541 43.3633ZM73.4375 46H75.8105V35.4336H73.4375V46ZM73.6328 31.7812C73.4049 32.0221 73.291 32.3249 73.291 32.6895C73.291 33.0475 73.4049 33.347 73.6328 33.5879C73.8672 33.8223 74.1992 33.9395 74.6289 33.9395C75.0586 33.9395 75.3906 33.8223 75.625 33.5879C75.8594 33.347 75.9766 33.0475 75.9766 32.6895C75.9766 32.3249 75.8594 32.0221 75.625 31.7812C75.3906 31.5404 75.0586 31.4199 74.6289 31.4199C74.1992 31.4199 73.8672 31.5404 73.6328 31.7812ZM80.6738 36.6543L80.6055 35.4336H78.3691V46H80.7422V38.4805C81.2109 37.6146 81.9238 37.1816 82.8809 37.1816C83.5384 37.1816 84.0104 37.3444 84.2969 37.6699C84.5898 37.9889 84.7363 38.4837 84.7363 39.1543V46H87.1094V39.0176C87.0703 36.498 85.9505 35.2383 83.75 35.2383C82.4805 35.2383 81.4551 35.7103 80.6738 36.6543ZM90.2734 36.7129C89.5052 37.6895 89.1211 38.998 89.1211 40.6387C89.1211 42.377 89.5117 43.7376 90.293 44.7207C91.0807 45.7038 92.0931 46.1953 93.3301 46.1953C94.4694 46.1953 95.3809 45.8145 96.0645 45.0527V45.7656C96.0645 46.5924 95.8366 47.2174 95.3809 47.6406C94.9251 48.0703 94.3034 48.2852 93.5156 48.2852C92.4479 48.2852 91.5495 47.8522 90.8203 46.9863L89.6973 48.4121C90.0814 48.9329 90.6413 49.3529 91.377 49.6719C92.1191 49.9974 92.8776 50.1602 93.6523 50.1602C95.1172 50.1602 96.2793 49.7598 97.1387 48.959C98.0046 48.1582 98.4375 47.0645 98.4375 45.6777V35.4336H96.2988L96.1914 36.498C95.5013 35.6582 94.554 35.2383 93.3496 35.2383C92.0736 35.2383 91.0482 35.7298 90.2734 36.7129ZM92.1289 43.3535C91.6992 42.7415 91.4844 41.9049 91.4844 40.8438C91.4844 39.6393 91.6992 38.7279 92.1289 38.1094C92.5651 37.4909 93.1738 37.1816 93.9551 37.1816C94.9121 37.1816 95.6152 37.582 96.0645 38.3828V43.0312C95.6022 43.8516 94.8926 44.2617 93.9355 44.2617C93.1673 44.2617 92.5651 43.959 92.1289 43.3535Z" fill="#5D6B82"/>
</svg>
