<svg width="148" height="80" viewBox="0 0 148 80" fill="none" xmlns="http://www.w3.org/2000/svg">
<rect width="148" height="80" rx="2" fill="#D1D5DB"/>
<rect x="1" y="1" width="146" height="78" rx="1" fill="#FAFBFB"/>
<path fill-rule="evenodd" clip-rule="evenodd" d="M79.6165 37.9107C79.7015 37.9702 79.7995 38 79.8985 38C79.9895 38 80.0815 37.9743 80.1625 37.923C80.3305 37.8153 80.4215 37.6161 80.3935 37.415L79.4085 30.2898L83.8536 25.7276C83.9966 25.5808 84.0396 25.3602 83.9616 25.1682C83.8846 24.9773 83.7026 24.8511 83.5005 24.8511H77.1445L74.1975 18.2976C74.1155 18.116 73.9385 18 73.7435 18C73.5485 18 73.3715 18.116 73.2895 18.2976L70.3425 24.8511H64.5004C64.2974 24.8511 64.1154 24.9773 64.0384 25.1682C63.9604 25.3602 64.0034 25.5808 64.1464 25.7276L68.5755 30.2745L67.0855 37.379C67.0425 37.5843 67.1255 37.7958 67.2945 37.9128C67.3785 37.9713 67.4765 38 67.5735 38C67.6715 38 67.7705 37.9702 67.8555 37.9107L73.7425 33.8001L79.6165 37.9107ZM47.2734 57H49.7344V42.7812H47.2734V48.6992H40.916V42.7812H38.4453V57H40.916V50.6816H47.2734V57ZM53.4258 55.7793C54.3633 56.7233 55.584 57.1953 57.0879 57.1953C57.9668 57.1953 58.7578 57.0228 59.4609 56.6777C60.1706 56.3262 60.737 55.8346 61.1602 55.2031L59.8809 53.9824C59.1973 54.8613 58.3118 55.3008 57.2246 55.3008C56.4499 55.3008 55.8053 55.0469 55.291 54.5391C54.7832 54.0312 54.4935 53.3411 54.4219 52.4688H61.3262V51.5117C61.3262 49.832 60.9323 48.5332 60.1445 47.6152C59.3633 46.6973 58.2533 46.2383 56.8145 46.2383C55.9095 46.2383 55.0892 46.4694 54.3535 46.9316C53.6178 47.3939 53.0449 48.0417 52.6348 48.875C52.2311 49.7018 52.0293 50.6426 52.0293 51.6973V51.9902C52.0293 53.5658 52.4948 54.8288 53.4258 55.7793ZM55.2227 48.8262C55.6263 48.3704 56.1536 48.1426 56.8047 48.1426C57.4622 48.1426 57.9766 48.3477 58.3477 48.7578C58.7188 49.1615 58.9303 49.7604 58.9824 50.5547V50.7305H54.4609C54.5716 49.9167 54.8255 49.2819 55.2227 48.8262ZM69.2168 56.0137C69.2949 56.4694 69.3861 56.7982 69.4902 57H71.9121V56.834C71.6452 56.2676 71.5117 55.5091 71.5117 54.5586V49.793C71.4922 48.6667 71.1146 47.7943 70.3789 47.1758C69.6432 46.5508 68.6569 46.2383 67.4199 46.2383C66.6061 46.2383 65.8672 46.3815 65.2031 46.668C64.5456 46.9544 64.0247 47.3516 63.6406 47.8594C63.2565 48.3607 63.0645 48.901 63.0645 49.4805H65.4375C65.4375 49.0638 65.61 48.722 65.9551 48.4551C66.3001 48.1816 66.7428 48.0449 67.2832 48.0449C67.9082 48.0449 68.3737 48.2109 68.6797 48.543C68.9857 48.8685 69.1387 49.3047 69.1387 49.8516V50.5449H67.6836C66.1276 50.5449 64.9297 50.8477 64.0898 51.4531C63.2565 52.0521 62.8398 52.9147 62.8398 54.041C62.8398 54.9329 63.1751 55.6816 63.8457 56.2871C64.5163 56.8926 65.3822 57.1953 66.4434 57.1953C67.5371 57.1953 68.4616 56.8014 69.2168 56.0137ZM68.2012 54.9492C67.791 55.1771 67.3516 55.291 66.8828 55.291C66.375 55.291 65.9681 55.1576 65.6621 54.8906C65.3626 54.6172 65.2129 54.2526 65.2129 53.7969C65.2129 53.237 65.4342 52.804 65.877 52.498C66.3197 52.1921 66.9805 52.0391 67.8594 52.0391H69.1387V54.0312C68.9303 54.4154 68.6178 54.7214 68.2012 54.9492ZM74.6855 47.7227C73.9303 48.7057 73.5527 50.0111 73.5527 51.6387C73.5527 53.3509 73.9336 54.7051 74.6953 55.7012C75.4635 56.6973 76.4661 57.1953 77.7031 57.1953C78.888 57.1953 79.8353 56.7656 80.5449 55.9062L80.6621 57H82.8105V42H80.4375V47.4102C79.7474 46.6289 78.8424 46.2383 77.7227 46.2383C76.4531 46.2383 75.4408 46.7331 74.6855 47.7227ZM76.541 54.3633C76.1309 53.7578 75.9258 52.918 75.9258 51.8438C75.9258 50.6198 76.1341 49.7051 76.5508 49.0996C76.9674 48.4876 77.5599 48.1816 78.3281 48.1816C79.2982 48.1816 80.0013 48.6048 80.4375 49.4512V53.9629C79.9883 54.8288 79.2786 55.2617 78.3086 55.2617C77.5469 55.2617 76.9577 54.9622 76.541 54.3633ZM85.4375 57H87.8105V46.4336H85.4375V57ZM85.6328 42.7812C85.4049 43.0221 85.291 43.3249 85.291 43.6895C85.291 44.0475 85.4049 44.347 85.6328 44.5879C85.8672 44.8223 86.1992 44.9395 86.6289 44.9395C87.0586 44.9395 87.3906 44.8223 87.625 44.5879C87.8594 44.347 87.9766 44.0475 87.9766 43.6895C87.9766 43.3249 87.8594 43.0221 87.625 42.7812C87.3906 42.5404 87.0586 42.4199 86.6289 42.4199C86.1992 42.4199 85.8672 42.5404 85.6328 42.7812ZM92.6738 47.6543L92.6055 46.4336H90.3691V57H92.7422V49.4805C93.2109 48.6146 93.9238 48.1816 94.8809 48.1816C95.5384 48.1816 96.0104 48.3444 96.2969 48.6699C96.5898 48.9889 96.7363 49.4837 96.7363 50.1543V57H99.1094V50.0176C99.0703 47.498 97.9505 46.2383 95.75 46.2383C94.4805 46.2383 93.4551 46.7103 92.6738 47.6543ZM102.273 47.7129C101.505 48.6895 101.121 49.998 101.121 51.6387C101.121 53.377 101.512 54.7376 102.293 55.7207C103.081 56.7038 104.093 57.1953 105.33 57.1953C106.469 57.1953 107.381 56.8145 108.064 56.0527V56.7656C108.064 57.5924 107.837 58.2174 107.381 58.6406C106.925 59.0703 106.303 59.2852 105.516 59.2852C104.448 59.2852 103.549 58.8522 102.82 57.9863L101.697 59.4121C102.081 59.9329 102.641 60.3529 103.377 60.6719C104.119 60.9974 104.878 61.1602 105.652 61.1602C107.117 61.1602 108.279 60.7598 109.139 59.959C110.005 59.1582 110.438 58.0645 110.438 56.6777V46.4336H108.299L108.191 47.498C107.501 46.6582 106.554 46.2383 105.35 46.2383C104.074 46.2383 103.048 46.7298 102.273 47.7129ZM104.129 54.3535C103.699 53.7415 103.484 52.9049 103.484 51.8438C103.484 50.6393 103.699 49.7279 104.129 49.1094C104.565 48.4909 105.174 48.1816 105.955 48.1816C106.912 48.1816 107.615 48.582 108.064 49.3828V54.0312C107.602 54.8516 106.893 55.2617 105.936 55.2617C105.167 55.2617 104.565 54.959 104.129 54.3535Z" fill="#5D6B82"/>
</svg>
