<?xml version="1.0" encoding="UTF-8"?>
<svg width="148px" height="80px" viewBox="0 0 148 80" version="1.1" xmlns="http://www.w3.org/2000/svg" xmlns:xlink="http://www.w3.org/1999/xlink">
    <!-- Generator: Sketch 50.2 (55047) - http://www.bohemiancoding.com/sketch -->
    <title>Article Date Copy</title>
    <desc>Created with Sketch.</desc>
    <defs></defs>
    <g id="Article-Date-Copy" stroke="none" stroke-width="1" fill="none" fill-rule="evenodd">
        <rect id="Rectangle-4" fill="#D1D5DB" x="0" y="0" width="148" height="80" rx="2"></rect>
        <rect id="Rectangle-3" fill="#FAFBFB" x="1" y="1" width="146" height="78" rx="1"></rect>
        <path d="M39.3828125,43.3515625 L34.9765625,43.3515625 L34.0546875,46 L32,46 L36.296875,34.625 L38.0703125,34.625 L42.375,46 L40.3125,46 L39.3828125,43.3515625 Z M35.53125,41.7578125 L38.828125,41.7578125 L37.1796875,37.0390625 L35.53125,41.7578125 Z M47.90625,39.28125 C47.6562488,39.2395831 47.3984388,39.21875 47.1328125,39.21875 C46.2630165,39.21875 45.6770848,39.55208 45.375,40.21875 L45.375,46 L43.4765625,46 L43.4765625,37.546875 L45.2890625,37.546875 L45.3359375,38.4921875 C45.7942731,37.7578088 46.4296834,37.390625 47.2421875,37.390625 C47.5130222,37.390625 47.7369783,37.427083 47.9140625,37.5 L47.90625,39.28125 Z M51.875,35.4921875 L51.875,37.546875 L53.3671875,37.546875 L53.3671875,38.953125 L51.875,38.953125 L51.875,43.671875 C51.875,43.9947933 51.9388014,44.2278639 52.0664062,44.3710938 C52.1940111,44.5143236 52.4218734,44.5859375 52.75,44.5859375 C52.9687511,44.5859375 53.190103,44.5598961 53.4140625,44.5078125 L53.4140625,45.9765625 C52.9817687,46.0963548 52.5651062,46.15625 52.1640625,46.15625 C50.7057219,46.15625 49.9765625,45.3515705 49.9765625,43.7421875 L49.9765625,38.953125 L48.5859375,38.953125 L48.5859375,37.546875 L49.9765625,37.546875 L49.9765625,35.4921875 L51.875,35.4921875 Z M56.8359375,46 L54.9375,46 L54.9375,37.546875 L56.8359375,37.546875 L56.8359375,46 Z M54.8203125,35.3515625 C54.8203125,35.0598944 54.9127595,34.8177093 55.0976562,34.625 C55.282553,34.4322907 55.5468733,34.3359375 55.890625,34.3359375 C56.2343767,34.3359375 56.4999991,34.4322907 56.6875,34.625 C56.8750009,34.8177093 56.96875,35.0598944 56.96875,35.3515625 C56.96875,35.6380223 56.8750009,35.8763011 56.6875,36.0664062 C56.4999991,36.2565114 56.2343767,36.3515625 55.890625,36.3515625 C55.5468733,36.3515625 55.282553,36.2565114 55.0976562,36.0664062 C54.9127595,35.8763011 54.8203125,35.6380223 54.8203125,35.3515625 Z M62.375,44.640625 C62.8489607,44.640625 63.2421859,44.5026055 63.5546875,44.2265625 C63.8671891,43.9505195 64.0338541,43.609377 64.0546875,43.203125 L65.84375,43.203125 C65.8229166,43.7291693 65.6588557,44.2200498 65.3515625,44.6757812 C65.0442693,45.1315127 64.6276068,45.4921862 64.1015625,45.7578125 C63.5755182,46.0234388 63.0078155,46.15625 62.3984375,46.15625 C61.2161399,46.15625 60.2786493,45.7734413 59.5859375,45.0078125 C58.8932257,44.2421837 58.546875,43.1849026 58.546875,41.8359375 L58.546875,41.640625 C58.546875,40.3541602 58.8906216,39.3242226 59.578125,38.5507812 C60.2656284,37.7773399 61.2031191,37.390625 62.390625,37.390625 C63.3958384,37.390625 64.2148406,37.6835908 64.8476562,38.2695312 C65.4804719,38.8554717 65.8124998,39.6249952 65.84375,40.578125 L64.0546875,40.578125 C64.0338541,40.0937476 63.8684911,39.6953141 63.5585938,39.3828125 C63.2486964,39.0703109 62.8541691,38.9140625 62.375,38.9140625 C61.7604136,38.9140625 61.28646,39.1367165 60.953125,39.5820312 C60.61979,40.027346 60.4505209,40.7031205 60.4453125,41.609375 L60.4453125,41.9140625 C60.4453125,42.8307338 60.6106754,43.5143207 60.9414062,43.9648438 C61.2721371,44.4153668 61.7499969,44.640625 62.375,44.640625 Z M69.296875,46 L67.3984375,46 L67.3984375,34 L69.296875,34 L69.296875,46 Z M75.0859375,46.15625 C73.8828065,46.15625 72.9075558,45.7773475 72.1601562,45.0195312 C71.4127567,44.261715 71.0390625,43.2526105 71.0390625,41.9921875 L71.0390625,41.7578125 C71.0390625,40.9140583 71.2018213,40.1601596 71.5273438,39.4960938 C71.8528662,38.8320279 72.3098929,38.315106 72.8984375,37.9453125 C73.4869821,37.575519 74.1432255,37.390625 74.8671875,37.390625 C76.0182349,37.390625 76.9075489,37.7578088 77.5351562,38.4921875 C78.1627636,39.2265662 78.4765625,40.2656183 78.4765625,41.609375 L78.4765625,42.375 L72.953125,42.375 C73.010417,43.0729202 73.2434875,43.624998 73.6523438,44.03125 C74.0612,44.437502 74.5755177,44.640625 75.1953125,44.640625 C76.0651085,44.640625 76.7734348,44.289066 77.3203125,43.5859375 L78.34375,44.5625 C78.0052066,45.0677109 77.5533882,45.459634 76.9882812,45.7382812 C76.4231743,46.0169285 75.789066,46.15625 75.0859375,46.15625 Z M74.859375,38.9140625 C74.3385391,38.9140625 73.9179704,39.0963523 73.5976562,39.4609375 C73.2773421,39.8255227 73.0729171,40.3333301 72.984375,40.984375 L76.6015625,40.984375 L76.6015625,40.84375 C76.5598956,40.2083302 76.3906265,39.7278662 76.09375,39.4023438 C75.7968735,39.0768213 75.3854193,38.9140625 74.859375,38.9140625 Z M84.1171875,46 L84.1171875,34.625 L87.4765625,34.625 C88.4817759,34.625 89.373694,34.8489561 90.1523438,35.296875 C90.9309935,35.7447939 91.533852,36.3802042 91.9609375,37.203125 C92.388023,38.0260458 92.6015625,38.9687447 92.6015625,40.03125 L92.6015625,40.6015625 C92.6015625,41.6796929 92.3867209,42.6276001 91.9570312,43.4453125 C91.5273416,44.2630249 90.9153686,44.893227 90.1210938,45.3359375 C89.3268189,45.778648 88.4166718,46 87.390625,46 L84.1171875,46 Z M86.09375,36.21875 L86.09375,44.421875 L87.3828125,44.421875 C88.419276,44.421875 89.214841,44.0976595 89.7695312,43.4492188 C90.3242215,42.800778 90.6067708,41.8697977 90.6171875,40.65625 L90.6171875,40.0234375 C90.6171875,38.7890563 90.348961,37.8463574 89.8125,37.1953125 C89.276039,36.5442676 88.4974009,36.21875 87.4765625,36.21875 L86.09375,36.21875 Z M99.4375,46 C99.3541663,45.8385409 99.2812503,45.5755227 99.21875,45.2109375 C98.6145803,45.841149 97.8750044,46.15625 97,46.15625 C96.1510374,46.15625 95.458336,45.9140649 94.921875,45.4296875 C94.385414,44.9453101 94.1171875,44.3463577 94.1171875,43.6328125 C94.1171875,42.7317663 94.4518196,42.040367 95.1210938,41.5585938 C95.7903679,41.0768205 96.7473896,40.8359375 97.9921875,40.8359375 L99.15625,40.8359375 L99.15625,40.28125 C99.15625,39.8437478 99.0338554,39.4934909 98.7890625,39.2304688 C98.5442696,38.9674466 98.1718775,38.8359375 97.671875,38.8359375 C97.2395812,38.8359375 96.885418,38.9440093 96.609375,39.1601562 C96.333332,39.3763032 96.1953125,39.65104 96.1953125,39.984375 L94.296875,39.984375 C94.296875,39.520831 94.4505193,39.0872416 94.7578125,38.6835938 C95.0651057,38.2799459 95.4830703,37.9635428 96.0117188,37.734375 C96.5403672,37.5052072 97.1302051,37.390625 97.78125,37.390625 C98.7708383,37.390625 99.5598929,37.6393204 100.148438,38.1367188 C100.736982,38.6341171 101.039062,39.3333288 101.054688,40.234375 L101.054688,44.046875 C101.054688,44.8072955 101.161457,45.4140602 101.375,45.8671875 L101.375,46 L99.4375,46 Z M97.3515625,44.6328125 C97.7265644,44.6328125 98.0794254,44.5416676 98.4101562,44.359375 C98.7408871,44.1770824 98.9895825,43.9322932 99.15625,43.625 L99.15625,42.03125 L98.1328125,42.03125 C97.429684,42.03125 96.9010434,42.1536446 96.546875,42.3984375 C96.1927066,42.6432304 96.015625,42.9895811 96.015625,43.4375 C96.015625,43.8020852 96.1367175,44.0924468 96.3789062,44.3085938 C96.621095,44.5247407 96.9453105,44.6328125 97.3515625,44.6328125 Z M105.421875,35.4921875 L105.421875,37.546875 L106.914062,37.546875 L106.914062,38.953125 L105.421875,38.953125 L105.421875,43.671875 C105.421875,43.9947933 105.485676,44.2278639 105.613281,44.3710938 C105.740886,44.5143236 105.968748,44.5859375 106.296875,44.5859375 C106.515626,44.5859375 106.736978,44.5598961 106.960938,44.5078125 L106.960938,45.9765625 C106.528644,46.0963548 106.111981,46.15625 105.710938,46.15625 C104.252597,46.15625 103.523438,45.3515705 103.523438,43.7421875 L103.523438,38.953125 L102.132812,38.953125 L102.132812,37.546875 L103.523438,37.546875 L103.523438,35.4921875 L105.421875,35.4921875 Z M112.085938,46.15625 C110.882806,46.15625 109.907556,45.7773475 109.160156,45.0195312 C108.412757,44.261715 108.039062,43.2526105 108.039062,41.9921875 L108.039062,41.7578125 C108.039062,40.9140583 108.201821,40.1601596 108.527344,39.4960938 C108.852866,38.8320279 109.309893,38.315106 109.898438,37.9453125 C110.486982,37.575519 111.143226,37.390625 111.867188,37.390625 C113.018235,37.390625 113.907549,37.7578088 114.535156,38.4921875 C115.162764,39.2265662 115.476562,40.2656183 115.476562,41.609375 L115.476562,42.375 L109.953125,42.375 C110.010417,43.0729202 110.243488,43.624998 110.652344,44.03125 C111.0612,44.437502 111.575518,44.640625 112.195312,44.640625 C113.065109,44.640625 113.773435,44.289066 114.320312,43.5859375 L115.34375,44.5625 C115.005207,45.0677109 114.553388,45.459634 113.988281,45.7382812 C113.423174,46.0169285 112.789066,46.15625 112.085938,46.15625 Z M111.859375,38.9140625 C111.338539,38.9140625 110.91797,39.0963523 110.597656,39.4609375 C110.277342,39.8255227 110.072917,40.3333301 109.984375,40.984375 L113.601562,40.984375 L113.601562,40.84375 C113.559896,40.2083302 113.390626,39.7278662 113.09375,39.4023438 C112.796874,39.0768213 112.385419,38.9140625 111.859375,38.9140625 Z" id="Article-Date" fill="#5D6B82"></path>
    </g>
</svg>