<?xml version="1.0" encoding="UTF-8"?>
<svg width="148px" height="80px" viewBox="0 0 148 80" version="1.1" xmlns="http://www.w3.org/2000/svg" xmlns:xlink="http://www.w3.org/1999/xlink">
    <!-- Generator: Sketch 50.2 (55047) - http://www.bohemiancoding.com/sketch -->
    <title>Article list 3</title>
    <desc>Created with Sketch.</desc>
    <defs></defs>
    <g id="Article-list-3" stroke="none" stroke-width="1" fill="none" fill-rule="evenodd">
        <rect id="Rectangle-4" fill="#D1D5DB" x="0" y="0" width="148" height="80" rx="2"></rect>
        <rect id="Rectangle-3" fill="#FAFBFB" x="1" y="1" width="146" height="78" rx="1"></rect>
        <g id="Group-4" transform="translate(12.000000, 31.000000)">
            <g id="Group">
                <g id="1-copy" fill-rule="nonzero">
                    <polygon id="Shape" fill="#D2D8DE" points="0 0 18 0 18 18 0 18"></polygon>
                    <path d="M5.57829009,4.82108129 C5.80509913,5.02111777 6.10237557,5.14285714 6.42844514,5.14285714 C6.75426214,5.14285714 7.05179115,5.02111777 7.27860019,4.82133386 C7.54556807,4.58593739 7.71428571,4.24143011 7.71428571,3.85726914 C7.71428571,3.74613776 7.70039429,3.63854238 7.6738743,3.53574586 C7.53117151,2.98109925 7.02779688,2.57142857 6.42869771,2.57142857 C5.82959855,2.57142857 5.32597135,2.98084668 5.18326855,3.53549329 C5.15674857,3.63828981 5.14285714,3.74588519 5.14285714,3.85701657 C5.14285714,4.24092497 5.31132221,4.58568482 5.57829009,4.82133386 L5.57829009,4.82108129 Z" id="Shape" fill="#FFFFFF"></path>
                    <path d="M15.543603,10.8212144 L14.6226986,9.96001263 L14.3157304,9.67273493 L13.9559715,9.33652531 C13.7161323,9.11238556 13.401995,9 13.0875319,9 C12.7730688,9 12.4586056,9.11238556 12.2190923,9.336841 L11.8593334,9.67305062 L11.5523653,9.96032832 L10.6311349,10.8221614 L10.3241668,11.1088077 L9.40326231,11.9706409 L9.09564241,12.2572872 L8.17473795,13.1191203 L7.86744392,13.406398 L7.71428571,13.5497211 L12.4732697,18 L18,18 L18,13.1184889 L16.7714756,11.9700095 L15.850897,11.1081764 L15.543603,10.8208987 L15.543603,10.8212144 Z" id="Shape" fill="#717F8E"></path>
                    <path d="M8.11230879,13.9069043 L7.95919871,13.7746168 L7.34675838,13.2466694 L6.73431806,12.7184214 L6.12250911,12.1901733 L5.76388426,11.8805003 C5.65402383,11.7860951 5.52837886,11.713337 5.39452592,11.6622259 C5.23668048,11.6020952 5.06747016,11.5714286 4.89794415,11.5714286 C4.72873383,11.5714286 4.55952352,11.6014939 4.40230945,11.6622259 C4.26782514,11.713337 4.14218016,11.7860951 4.03231973,11.8808009 L3.67337919,12.190474 L3.06093886,12.7184214 L2.44849854,13.2466694 L1.8366896,13.7746168 L1.22424927,14.3028649 L0,15.359361 L0,18 L12.8571429,18 L8.11230879,13.9069043 Z" id="Shape" fill="#919DA9"></path>
                </g>
                <rect id="Rectangle-9-Copy" fill="#5D6B82" x="20" y="0" width="12" height="2"></rect>
                <rect id="Rectangle-7-Copy-3" fill="#D1D5DB" x="20" y="4" width="16" height="2"></rect>
                <rect id="Rectangle-7-Copy-5" fill="#D1D5DB" x="20" y="10" width="16" height="2"></rect>
                <rect id="Rectangle-7-Copy-4" fill="#D1D5DB" x="20" y="7" width="14" height="2"></rect>
                <rect id="Rectangle-7-Copy-6" fill="#D1D5DB" x="20" y="13" width="14" height="2"></rect>
            </g>
            <g id="Group-2" transform="translate(44.000000, 0.000000)">
                <g id="1-copy" fill-rule="nonzero">
                    <polygon id="Shape" fill="#D2D8DE" points="0 0 18 0 18 18 0 18"></polygon>
                    <path d="M5.57829009,4.82108129 C5.80509913,5.02111777 6.10237557,5.14285714 6.42844514,5.14285714 C6.75426214,5.14285714 7.05179115,5.02111777 7.27860019,4.82133386 C7.54556807,4.58593739 7.71428571,4.24143011 7.71428571,3.85726914 C7.71428571,3.74613776 7.70039429,3.63854238 7.6738743,3.53574586 C7.53117151,2.98109925 7.02779688,2.57142857 6.42869771,2.57142857 C5.82959855,2.57142857 5.32597135,2.98084668 5.18326855,3.53549329 C5.15674857,3.63828981 5.14285714,3.74588519 5.14285714,3.85701657 C5.14285714,4.24092497 5.31132221,4.58568482 5.57829009,4.82133386 L5.57829009,4.82108129 Z" id="Shape" fill="#FFFFFF"></path>
                    <path d="M15.543603,10.8212144 L14.6226986,9.96001263 L14.3157304,9.67273493 L13.9559715,9.33652531 C13.7161323,9.11238556 13.401995,9 13.0875319,9 C12.7730688,9 12.4586056,9.11238556 12.2190923,9.336841 L11.8593334,9.67305062 L11.5523653,9.96032832 L10.6311349,10.8221614 L10.3241668,11.1088077 L9.40326231,11.9706409 L9.09564241,12.2572872 L8.17473795,13.1191203 L7.86744392,13.406398 L7.71428571,13.5497211 L12.4732697,18 L18,18 L18,13.1184889 L16.7714756,11.9700095 L15.850897,11.1081764 L15.543603,10.8208987 L15.543603,10.8212144 Z" id="Shape" fill="#717F8E"></path>
                    <path d="M8.11230879,13.9069043 L7.95919871,13.7746168 L7.34675838,13.2466694 L6.73431806,12.7184214 L6.12250911,12.1901733 L5.76388426,11.8805003 C5.65402383,11.7860951 5.52837886,11.713337 5.39452592,11.6622259 C5.23668048,11.6020952 5.06747016,11.5714286 4.89794415,11.5714286 C4.72873383,11.5714286 4.55952352,11.6014939 4.40230945,11.6622259 C4.26782514,11.713337 4.14218016,11.7860951 4.03231973,11.8808009 L3.67337919,12.190474 L3.06093886,12.7184214 L2.44849854,13.2466694 L1.8366896,13.7746168 L1.22424927,14.3028649 L0,15.359361 L0,18 L12.8571429,18 L8.11230879,13.9069043 Z" id="Shape" fill="#919DA9"></path>
                </g>
                <rect id="Rectangle-9-Copy" fill="#5D6B82" x="20" y="0" width="12" height="2"></rect>
                <rect id="Rectangle-7-Copy-3" fill="#D1D5DB" x="20" y="4" width="16" height="2"></rect>
                <rect id="Rectangle-7-Copy-7" fill="#D1D5DB" x="20" y="10" width="16" height="2"></rect>
                <rect id="Rectangle-7-Copy-4" fill="#D1D5DB" x="20" y="7" width="14" height="2"></rect>
                <rect id="Rectangle-7-Copy-8" fill="#D1D5DB" x="20" y="13" width="14" height="2"></rect>
            </g>
            <g id="Group-3" transform="translate(88.000000, 0.000000)">
                <g id="1-copy" fill-rule="nonzero">
                    <polygon id="Shape" fill="#D2D8DE" points="0 0 18 0 18 18 0 18"></polygon>
                    <path d="M5.57829009,4.82108129 C5.80509913,5.02111777 6.10237557,5.14285714 6.42844514,5.14285714 C6.75426214,5.14285714 7.05179115,5.02111777 7.27860019,4.82133386 C7.54556807,4.58593739 7.71428571,4.24143011 7.71428571,3.85726914 C7.71428571,3.74613776 7.70039429,3.63854238 7.6738743,3.53574586 C7.53117151,2.98109925 7.02779688,2.57142857 6.42869771,2.57142857 C5.82959855,2.57142857 5.32597135,2.98084668 5.18326855,3.53549329 C5.15674857,3.63828981 5.14285714,3.74588519 5.14285714,3.85701657 C5.14285714,4.24092497 5.31132221,4.58568482 5.57829009,4.82133386 L5.57829009,4.82108129 Z" id="Shape" fill="#FFFFFF"></path>
                    <path d="M15.543603,10.8212144 L14.6226986,9.96001263 L14.3157304,9.67273493 L13.9559715,9.33652531 C13.7161323,9.11238556 13.401995,9 13.0875319,9 C12.7730688,9 12.4586056,9.11238556 12.2190923,9.336841 L11.8593334,9.67305062 L11.5523653,9.96032832 L10.6311349,10.8221614 L10.3241668,11.1088077 L9.40326231,11.9706409 L9.09564241,12.2572872 L8.17473795,13.1191203 L7.86744392,13.406398 L7.71428571,13.5497211 L12.4732697,18 L18,18 L18,13.1184889 L16.7714756,11.9700095 L15.850897,11.1081764 L15.543603,10.8208987 L15.543603,10.8212144 Z" id="Shape" fill="#717F8E"></path>
                    <path d="M8.11230879,13.9069043 L7.95919871,13.7746168 L7.34675838,13.2466694 L6.73431806,12.7184214 L6.12250911,12.1901733 L5.76388426,11.8805003 C5.65402383,11.7860951 5.52837886,11.713337 5.39452592,11.6622259 C5.23668048,11.6020952 5.06747016,11.5714286 4.89794415,11.5714286 C4.72873383,11.5714286 4.55952352,11.6014939 4.40230945,11.6622259 C4.26782514,11.713337 4.14218016,11.7860951 4.03231973,11.8808009 L3.67337919,12.190474 L3.06093886,12.7184214 L2.44849854,13.2466694 L1.8366896,13.7746168 L1.22424927,14.3028649 L0,15.359361 L0,18 L12.8571429,18 L8.11230879,13.9069043 Z" id="Shape" fill="#919DA9"></path>
                </g>
                <rect id="Rectangle-9-Copy" fill="#5D6B82" x="20" y="0" width="12" height="2"></rect>
                <rect id="Rectangle-7-Copy-3" fill="#D1D5DB" x="20" y="4" width="16" height="2"></rect>
                <rect id="Rectangle-7-Copy-9" fill="#D1D5DB" x="20" y="10" width="16" height="2"></rect>
                <rect id="Rectangle-7-Copy-4" fill="#D1D5DB" x="20" y="7" width="14" height="2"></rect>
                <rect id="Rectangle-7-Copy-10" fill="#D1D5DB" x="20" y="13" width="14" height="2"></rect>
            </g>
        </g>
    </g>
</svg>