<svg width="148" height="80" viewBox="0 0 148 80" fill="none" xmlns="http://www.w3.org/2000/svg">
<rect width="148" height="80" rx="2" fill="#D1D5DB"/>
<path fill-rule="evenodd" clip-rule="evenodd" d="M2 1C1.44772 1 1 1.44771 1 2V78C1 78.5523 1.44771 79 2 79H146C146.552 79 147 78.5523 147 78V2C147 1.44772 146.552 1 146 1H2ZM12 20H136V28H12V20ZM136 40H12V48H136V40ZM136 60H12V68H136V60Z" fill="#FAFBFB"/>
<path fill-rule="evenodd" clip-rule="evenodd" d="M12 12H28V16H12V12ZM12 20V28H44V20H12ZM28 32H12V36H28V32ZM12 48V40H60V48H12ZM12 52H28V56H12V52ZM12 68V60H76V68H12ZM76 52H68V56H76V52ZM52 32H60V36H52V32ZM44 12H36V16H44V12Z" fill="#5D6B82"/>
</svg>
