<svg width="148" height="80" viewBox="0 0 148 80" fill="none" xmlns="http://www.w3.org/2000/svg">
<rect width="148" height="80" rx="2" fill="#D1D5DB"/>
<path fill-rule="evenodd" clip-rule="evenodd" d="M2 1C1.44772 1 1 1.44771 1 2V78C1 78.5523 1.44771 79 2 79H146C146.552 79 147 78.5523 147 78V2C147 1.44772 146.552 1 146 1H2ZM32 20H136V28H32V20ZM136 40H32V48H136V40ZM136 60H32V68H136V60Z" fill="#FAFBFB"/>
<path fill-rule="evenodd" clip-rule="evenodd" d="M12 12H28V28H12V12ZM12 52H28V68H12V52ZM96 60V68H32V60H96ZM48 52H32V56H48V52ZM28 32H12V48H28V32ZM32 20H64V28H32V20ZM48.0005 12H32.0005V16H48.0005V12ZM32 40H80V48H32V40ZM48 32H32V36H48V32Z" fill="#5D6B82"/>
</svg>
