<svg width="148" height="80" viewBox="0 0 148 80" fill="none" xmlns="http://www.w3.org/2000/svg">
<rect width="148" height="80" rx="2" fill="#D1D5DB"/>
<path fill-rule="evenodd" clip-rule="evenodd" d="M2 1C1.44772 1 1 1.44771 1 2V78C1 78.5523 1.44771 79 2 79H146C146.552 79 147 78.5523 147 78V2C147 1.44772 146.552 1 146 1H2ZM12 20H136V28H12V20ZM136 40H12V48H136V40ZM136 60H12V68H136V60Z" fill="#FAFBFB"/>
<path fill-rule="evenodd" clip-rule="evenodd" d="M28 12H12V16H28V12ZM12 32H28V36H12V32ZM28 52H12V56H28V52ZM76 60V68H12V60H76ZM126 62H134V66H126V62ZM12 40H60V48H12V40ZM134 42H126V46H134V42ZM12 20H44V28H12V20ZM134 22H126V26H134V22Z" fill="#5D6B82"/>
</svg>
