<svg width="148" height="80" viewBox="0 0 148 80" fill="none" xmlns="http://www.w3.org/2000/svg">
<rect width="148" height="80" rx="2" fill="#D1D5DB"/>
<path fill-rule="evenodd" clip-rule="evenodd" d="M2 1C1.44772 1 1 1.44771 1 2V78C1 78.5523 1.44771 79 2 79H146C146.552 79 147 78.5523 147 78V2C147 1.44772 146.552 1 146 1H2ZM48 40C48 30.6112 40.3888 23 31 23V25C39.2843 25 46 31.7157 46 40C46 48.2843 39.2843 55 31 55V57C40.3888 57 48 49.3888 48 40ZM91 40C91 30.6112 83.3888 23 74 23V25C82.2843 25 89 31.7157 89 40C89 48.2843 82.2843 55 74 55V57C83.3888 57 91 49.3888 91 40ZM117 23C126.389 23 134 30.6112 134 40C134 49.3888 126.389 57 117 57V55C125.284 55 132 48.2843 132 40C132 31.7157 125.284 25 117 25V23Z" fill="#FAFBFB"/>
<path fill-rule="evenodd" clip-rule="evenodd" d="M14 40C14 30.6112 21.6112 23 31 23V25C22.7157 25 16 31.7157 16 40C16 48.2843 22.7157 55 31 55V57C21.6112 57 14 49.3888 14 40ZM74 23C64.6112 23 57 30.6112 57 40C57 49.3888 64.6112 57 74 57C83.3888 57 91 49.3888 91 40H89C89 48.2843 82.2843 55 74 55C65.7157 55 59 48.2843 59 40C59 31.7157 65.7157 25 74 25V23ZM117 23C107.611 23 100 30.6112 100 40C100 49.3888 107.611 57 117 57V55C108.716 55 102 48.2843 102 40C102 31.7157 108.716 25 117 25V23ZM112.047 46.9856L116.661 44.5661L121.275 46.9856L120.394 41.8611L124.127 38.2318L118.968 37.4842L116.661 32.8217L114.354 37.4842L109.195 38.2318L112.928 41.8611L112.047 46.9856ZM69.324 47.0808L73.9441 44.6519L78.5642 47.0808L77.6818 41.9363L81.4195 38.2929L76.2541 37.5423L73.9441 32.8617L71.6341 37.5423L66.4687 38.2929L70.2064 41.9363L69.324 47.0808ZM35.784 47.0808L31.1639 44.6519L26.5438 47.0808L27.4262 41.9363L23.6885 38.2929L28.8539 37.5423L31.1639 32.8617L33.4739 37.5423L38.6393 38.2929L34.9016 41.9363L35.784 47.0808Z" fill="#5D6B82"/>
</svg>
