<?xml version="1.0" encoding="UTF-8"?>
<svg width="148px" height="80px" viewBox="0 0 148 80" version="1.1" xmlns="http://www.w3.org/2000/svg" xmlns:xlink="http://www.w3.org/1999/xlink">
    <!-- Generator: Sketch 50.2 (55047) - http://www.bohemiancoding.com/sketch -->
    <title>EasyBlog Intro Text Copy</title>
    <desc>Created with Sketch.</desc>
    <defs></defs>
    <g id="EasyBlog-Intro-Text-Copy" stroke="none" stroke-width="1" fill="none" fill-rule="evenodd">
        <rect id="Rectangle-4" fill="#D1D5DB" x="0" y="0" width="148" height="80" rx="2"></rect>
        <rect id="Rectangle-3" fill="#FAFBFB" x="1" y="1" width="146" height="78" rx="1"></rect>
        <path d="M48.3125,28.921875 L43.640625,28.921875 L43.640625,32.421875 L49.1015625,32.421875 L49.1015625,34 L41.6640625,34 L41.6640625,22.625 L49.046875,22.625 L49.046875,24.21875 L43.640625,24.21875 L43.640625,27.359375 L48.3125,27.359375 L48.3125,28.921875 Z M55.578125,34 C55.4947912,33.8385409 55.4218753,33.5755227 55.359375,33.2109375 C54.7552053,33.841149 54.0156294,34.15625 53.140625,34.15625 C52.2916624,34.15625 51.598961,33.9140649 51.0625,33.4296875 C50.526039,32.9453101 50.2578125,32.3463577 50.2578125,31.6328125 C50.2578125,30.7317663 50.5924446,30.040367 51.2617188,29.5585938 C51.9309929,29.0768205 52.8880146,28.8359375 54.1328125,28.8359375 L55.296875,28.8359375 L55.296875,28.28125 C55.296875,27.8437478 55.1744804,27.4934909 54.9296875,27.2304688 C54.6848946,26.9674466 54.3125025,26.8359375 53.8125,26.8359375 C53.3802062,26.8359375 53.026043,26.9440093 52.75,27.1601562 C52.473957,27.3763032 52.3359375,27.65104 52.3359375,27.984375 L50.4375,27.984375 C50.4375,27.520831 50.5911443,27.0872416 50.8984375,26.6835938 C51.2057307,26.2799459 51.6236953,25.9635428 52.1523438,25.734375 C52.6809922,25.5052072 53.2708301,25.390625 53.921875,25.390625 C54.9114633,25.390625 55.7005179,25.6393204 56.2890625,26.1367188 C56.8776071,26.6341171 57.1796874,27.3333288 57.1953125,28.234375 L57.1953125,32.046875 C57.1953125,32.8072955 57.3020823,33.4140602 57.515625,33.8671875 L57.515625,34 L55.578125,34 Z M53.4921875,32.6328125 C53.8671894,32.6328125 54.2200504,32.5416676 54.5507812,32.359375 C54.8815121,32.1770824 55.1302075,31.9322932 55.296875,31.625 L55.296875,30.03125 L54.2734375,30.03125 C53.570309,30.03125 53.0416684,30.1536446 52.6875,30.3984375 C52.3333316,30.6432304 52.15625,30.9895811 52.15625,31.4375 C52.15625,31.8020852 52.2773425,32.0924468 52.5195312,32.3085938 C52.76172,32.5247407 53.0859355,32.6328125 53.4921875,32.6328125 Z M63.921875,31.703125 C63.921875,31.3645816 63.7825535,31.1067717 63.5039062,30.9296875 C63.225259,30.7526033 62.7630241,30.5963548 62.1171875,30.4609375 C61.4713509,30.3255202 60.9322938,30.1536469 60.5,29.9453125 C59.5520786,29.4869769 59.078125,28.822921 59.078125,27.953125 C59.078125,27.2239547 59.3854136,26.6145858 60,26.125 C60.6145864,25.6354142 61.3958286,25.390625 62.34375,25.390625 C63.3541717,25.390625 64.1705698,25.6406225 64.7929688,26.140625 C65.4153677,26.6406275 65.7265625,27.2890585 65.7265625,28.0859375 L63.828125,28.0859375 C63.828125,27.7213523 63.6927097,27.41797 63.421875,27.1757812 C63.1510403,26.9335925 62.7916689,26.8125 62.34375,26.8125 C61.9270813,26.8125 61.5872409,26.9088532 61.3242188,27.1015625 C61.0611966,27.2942718 60.9296875,27.5520817 60.9296875,27.875 C60.9296875,28.1666681 61.0520821,28.3932284 61.296875,28.5546875 C61.5416679,28.7161466 62.0364546,28.8789054 62.78125,29.0429688 C63.5260454,29.2070321 64.110675,29.4023426 64.5351562,29.6289062 C64.9596375,29.8554699 65.2747386,30.1276026 65.4804688,30.4453125 C65.6861989,30.7630224 65.7890625,31.1484352 65.7890625,31.6015625 C65.7890625,32.361983 65.4739615,32.9778622 64.84375,33.4492188 C64.2135385,33.9205753 63.3880259,34.15625 62.3671875,34.15625 C61.6744757,34.15625 61.0572944,34.0312512 60.515625,33.78125 C59.9739556,33.5312488 59.5520848,33.1875022 59.25,32.75 C58.9479152,32.3124978 58.796875,31.8411484 58.796875,31.3359375 L60.640625,31.3359375 C60.6666668,31.7838564 60.8359359,32.128905 61.1484375,32.3710938 C61.4609391,32.6132825 61.8749974,32.734375 62.390625,32.734375 C62.8906275,32.734375 63.270832,32.6393239 63.53125,32.4492188 C63.791668,32.2591136 63.921875,32.0104182 63.921875,31.703125 Z M70.3984375,31.28125 L72.1171875,25.546875 L74.140625,25.546875 L70.78125,35.28125 C70.2656224,36.7031321 69.3906312,37.4140625 68.15625,37.4140625 C67.880207,37.4140625 67.5755225,37.367188 67.2421875,37.2734375 L67.2421875,35.8046875 L67.6015625,35.828125 C68.0807316,35.828125 68.441405,35.7408863 68.6835938,35.5664062 C68.9257825,35.3919262 69.1171868,35.0989604 69.2578125,34.6875 L69.53125,33.9609375 L66.5625,25.546875 L68.609375,25.546875 L70.3984375,31.28125 Z M75.4140625,34 L75.4140625,22.625 L79.3125,22.625 C80.5989648,22.625 81.5781216,22.8828099 82.25,23.3984375 C82.9218784,23.9140651 83.2578125,24.6822866 83.2578125,25.703125 C83.2578125,26.2239609 83.1171889,26.6927063 82.8359375,27.109375 C82.5546861,27.5260437 82.1432319,27.8489572 81.6015625,28.078125 C82.2161489,28.2447925 82.6914046,28.5585914 83.0273438,29.0195312 C83.3632829,29.4804711 83.53125,30.0338509 83.53125,30.6796875 C83.53125,31.7474012 83.1888055,32.5677055 82.5039062,33.140625 C81.819007,33.7135445 80.838548,34 79.5625,34 L75.4140625,34 Z M77.390625,28.8671875 L77.390625,32.421875 L79.5859375,32.421875 C80.2057323,32.421875 80.6901024,32.2682307 81.0390625,31.9609375 C81.3880226,31.6536443 81.5625,31.2265652 81.5625,30.6796875 C81.5625,29.4973899 80.9583394,28.8932293 79.75,28.8671875 L77.390625,28.8671875 Z M77.390625,27.4140625 L79.328125,27.4140625 C79.9427114,27.4140625 80.4231754,27.274741 80.7695312,26.9960938 C81.1158871,26.7174465 81.2890625,26.3229192 81.2890625,25.8125 C81.2890625,25.2499972 81.1289079,24.8437512 80.8085938,24.59375 C80.4882796,24.3437488 79.9895867,24.21875 79.3125,24.21875 L77.390625,24.21875 L77.390625,27.4140625 Z M87.34375,34 L85.4453125,34 L85.4453125,22 L87.34375,22 L87.34375,34 Z M89.0546875,29.6953125 C89.0546875,28.8671834 89.2187484,28.1210971 89.546875,27.4570312 C89.8750016,26.7929654 90.3359345,26.2825539 90.9296875,25.9257812 C91.5234405,25.5690086 92.2057253,25.390625 92.9765625,25.390625 C94.1171932,25.390625 95.0429652,25.7578088 95.7539062,26.4921875 C96.4648473,27.2265662 96.848958,28.2005148 96.90625,29.4140625 L96.9140625,29.859375 C96.9140625,30.6927125 96.7539079,31.4374967 96.4335938,32.09375 C96.1132796,32.7500033 95.6549509,33.2578107 95.0585938,33.6171875 C94.4622366,33.9765643 93.7734414,34.15625 92.9921875,34.15625 C91.7994732,34.15625 90.8450557,33.7591186 90.1289062,32.9648438 C89.4127568,32.1705689 89.0546875,31.1119858 89.0546875,29.7890625 L89.0546875,29.6953125 Z M90.953125,29.859375 C90.953125,30.729171 91.1328107,31.4101538 91.4921875,31.9023438 C91.8515643,32.3945337 92.3515593,32.640625 92.9921875,32.640625 C93.6328157,32.640625 94.1315086,32.3906275 94.4882812,31.890625 C94.8450539,31.3906225 95.0234375,30.658859 95.0234375,29.6953125 C95.0234375,28.8411416 94.8398456,28.164065 94.4726562,27.6640625 C94.1054669,27.16406 93.606774,26.9140625 92.9765625,26.9140625 C92.3567677,26.9140625 91.8645852,27.1601538 91.5,27.6523438 C91.1354148,28.1445337 90.953125,28.8802034 90.953125,29.859375 Z M98.1875,29.7109375 C98.1875,28.3984309 98.4960907,27.3502643 99.1132812,26.5664062 C99.7304718,25.7825482 100.549474,25.390625 101.570312,25.390625 C102.533859,25.390625 103.291664,25.7265591 103.84375,26.3984375 L103.929688,25.546875 L105.640625,25.546875 L105.640625,33.7421875 C105.640625,34.851568 105.295576,35.7265593 104.605469,36.3671875 C103.915361,37.0078157 102.984381,37.328125 101.8125,37.328125 C101.192705,37.328125 100.587243,37.19922 99.9960938,36.9414062 C99.404945,36.6835925 98.9557307,36.3463562 98.6484375,35.9296875 L99.546875,34.7890625 C100.130211,35.4817743 100.848954,35.828125 101.703125,35.828125 C102.333336,35.828125 102.830727,35.6575538 103.195312,35.3164062 C103.559898,34.9752587 103.742188,34.4739616 103.742188,33.8125 L103.742188,33.2421875 C103.19531,33.8515655 102.46615,34.15625 101.554688,34.15625 C100.565099,34.15625 99.7565136,33.7630248 99.1289062,32.9765625 C98.5012989,32.1901002 98.1875,31.1015695 98.1875,29.7109375 Z M100.078125,29.875 C100.078125,30.7239626 100.2513,31.3919246 100.597656,31.8789062 C100.944012,32.3658879 101.424476,32.609375 102.039062,32.609375 C102.804691,32.609375 103.372394,32.2812533 103.742188,31.625 L103.742188,27.90625 C103.382811,27.2656218 102.820316,26.9453125 102.054688,26.9453125 C101.429684,26.9453125 100.944012,27.1927059 100.597656,27.6875 C100.2513,28.1822941 100.078125,28.9114535 100.078125,29.875 Z M42.96875,58 L41,58 L41,46.625 L42.96875,46.625 L42.96875,58 Z M46.9765625,49.546875 L47.03125,50.5234375 C47.6562531,49.7682254 48.4765574,49.390625 49.4921875,49.390625 C51.252613,49.390625 52.1484373,50.3984274 52.1796875,52.4140625 L52.1796875,58 L50.28125,58 L50.28125,52.5234375 C50.28125,51.9869765 50.1653657,51.589845 49.9335938,51.3320312 C49.7018218,51.0742175 49.3229193,50.9453125 48.796875,50.9453125 C48.0312462,50.9453125 47.4609394,51.2916632 47.0859375,51.984375 L47.0859375,58 L45.1875,58 L45.1875,49.546875 L46.9765625,49.546875 Z M56.4921875,47.4921875 L56.4921875,49.546875 L57.984375,49.546875 L57.984375,50.953125 L56.4921875,50.953125 L56.4921875,55.671875 C56.4921875,55.9947933 56.5559889,56.2278639 56.6835938,56.3710938 C56.8111986,56.5143236 57.0390609,56.5859375 57.3671875,56.5859375 C57.5859386,56.5859375 57.8072905,56.5598961 58.03125,56.5078125 L58.03125,57.9765625 C57.5989562,58.0963548 57.1822937,58.15625 56.78125,58.15625 C55.3229094,58.15625 54.59375,57.3515705 54.59375,55.7421875 L54.59375,50.953125 L53.203125,50.953125 L53.203125,49.546875 L54.59375,49.546875 L54.59375,47.4921875 L56.4921875,47.4921875 Z M63.859375,51.28125 C63.6093738,51.2395831 63.3515638,51.21875 63.0859375,51.21875 C62.2161415,51.21875 61.6302098,51.55208 61.328125,52.21875 L61.328125,58 L59.4296875,58 L59.4296875,49.546875 L61.2421875,49.546875 L61.2890625,50.4921875 C61.7473981,49.7578088 62.3828084,49.390625 63.1953125,49.390625 C63.4661472,49.390625 63.6901033,49.427083 63.8671875,49.5 L63.859375,51.28125 Z M64.421875,53.6953125 C64.421875,52.8671834 64.5859359,52.1210971 64.9140625,51.4570312 C65.2421891,50.7929654 65.703122,50.2825539 66.296875,49.9257812 C66.890628,49.5690086 67.5729128,49.390625 68.34375,49.390625 C69.4843807,49.390625 70.4101527,49.7578088 71.1210938,50.4921875 C71.8320348,51.2265662 72.2161455,52.2005148 72.2734375,53.4140625 L72.28125,53.859375 C72.28125,54.6927125 72.1210954,55.4374967 71.8007812,56.09375 C71.4804671,56.7500033 71.0221384,57.2578107 70.4257812,57.6171875 C69.8294241,57.9765643 69.1406289,58.15625 68.359375,58.15625 C67.1666607,58.15625 66.2122432,57.7591186 65.4960938,56.9648438 C64.7799443,56.1705689 64.421875,55.1119858 64.421875,53.7890625 L64.421875,53.6953125 Z M66.3203125,53.859375 C66.3203125,54.729171 66.4999982,55.4101538 66.859375,55.9023438 C67.2187518,56.3945337 67.7187468,56.640625 68.359375,56.640625 C69.0000032,56.640625 69.4986961,56.3906275 69.8554688,55.890625 C70.2122414,55.3906225 70.390625,54.658859 70.390625,53.6953125 C70.390625,52.8411416 70.2070331,52.164065 69.8398438,51.6640625 C69.4726544,51.16406 68.9739615,50.9140625 68.34375,50.9140625 C67.7239552,50.9140625 67.2317727,51.1601538 66.8671875,51.6523438 C66.5026023,52.1445337 66.3203125,52.8802034 66.3203125,53.859375 Z M85.8046875,48.21875 L82.2578125,48.21875 L82.2578125,58 L80.296875,58 L80.296875,48.21875 L76.78125,48.21875 L76.78125,46.625 L85.8046875,46.625 L85.8046875,48.21875 Z M90.140625,58.15625 C88.937494,58.15625 87.9622433,57.7773475 87.2148438,57.0195312 C86.4674442,56.261715 86.09375,55.2526105 86.09375,53.9921875 L86.09375,53.7578125 C86.09375,52.9140583 86.2565088,52.1601596 86.5820312,51.4960938 C86.9075537,50.8320279 87.3645804,50.315106 87.953125,49.9453125 C88.5416696,49.575519 89.197913,49.390625 89.921875,49.390625 C91.0729224,49.390625 91.9622364,49.7578088 92.5898438,50.4921875 C93.2174511,51.2265662 93.53125,52.2656183 93.53125,53.609375 L93.53125,54.375 L88.0078125,54.375 C88.0651045,55.0729202 88.298175,55.624998 88.7070312,56.03125 C89.1158875,56.437502 89.6302052,56.640625 90.25,56.640625 C91.119796,56.640625 91.8281223,56.289066 92.375,55.5859375 L93.3984375,56.5625 C93.0598941,57.0677109 92.6080757,57.459634 92.0429688,57.7382812 C91.4778618,58.0169285 90.8437535,58.15625 90.140625,58.15625 Z M89.9140625,50.9140625 C89.3932266,50.9140625 88.9726579,51.0963523 88.6523438,51.4609375 C88.3320296,51.8255227 88.1276046,52.3333301 88.0390625,52.984375 L91.65625,52.984375 L91.65625,52.84375 C91.6145831,52.2083302 91.445314,51.7278662 91.1484375,51.4023438 C90.851561,51.0768213 90.4401068,50.9140625 89.9140625,50.9140625 Z M98.0390625,52.328125 L99.6484375,49.546875 L101.757812,49.546875 L99.171875,53.7109375 L101.84375,58 L99.75,58 L98.0625,55.109375 L96.3828125,58 L94.2734375,58 L96.9453125,53.7109375 L94.3671875,49.546875 L96.4609375,49.546875 L98.0390625,52.328125 Z M105.429688,47.4921875 L105.429688,49.546875 L106.921875,49.546875 L106.921875,50.953125 L105.429688,50.953125 L105.429688,55.671875 C105.429688,55.9947933 105.493489,56.2278639 105.621094,56.3710938 C105.748699,56.5143236 105.976561,56.5859375 106.304688,56.5859375 C106.523439,56.5859375 106.744791,56.5598961 106.96875,56.5078125 L106.96875,57.9765625 C106.536456,58.0963548 106.119794,58.15625 105.71875,58.15625 C104.260409,58.15625 103.53125,57.3515705 103.53125,55.7421875 L103.53125,50.953125 L102.140625,50.953125 L102.140625,49.546875 L103.53125,49.546875 L103.53125,47.4921875 L105.429688,47.4921875 Z" id="EasyBlog-Intro-Text" fill="#5D6B82"></path>
    </g>
</svg>