<?xml version="1.0" encoding="UTF-8"?>
<svg width="148px" height="80px" viewBox="0 0 148 80" version="1.1" xmlns="http://www.w3.org/2000/svg" xmlns:xlink="http://www.w3.org/1999/xlink">
    <!-- Generator: Sketch 50.2 (55047) - http://www.bohemiancoding.com/sketch -->
    <title>K2 Category Copy</title>
    <desc>Created with Sketch.</desc>
    <defs></defs>
    <g id="K2-Category-Copy" stroke="none" stroke-width="1" fill="none" fill-rule="evenodd">
        <rect id="Rectangle-4" fill="#D1D5DB" x="0" y="0" width="148" height="80" rx="2"></rect>
        <rect id="Rectangle-3" fill="#FAFBFB" x="1" y="1" width="146" height="78" rx="1"></rect>
        <path d="M34.265625,39.6171875 L32.9765625,40.984375 L32.9765625,44.53125 L31,44.53125 L31,33.15625 L32.9765625,33.15625 L32.9765625,38.4921875 L34.0703125,37.140625 L37.3984375,33.15625 L39.7890625,33.15625 L35.5625,38.1953125 L40.03125,44.53125 L37.6875,44.53125 L34.265625,39.6171875 Z M48.4296875,44.53125 L40.78125,44.53125 L40.78125,43.2265625 L44.5703125,39.09375 C45.1171902,38.484372 45.5065093,37.9752625 45.7382812,37.5664062 C45.9700532,37.15755 46.0859375,36.7473979 46.0859375,36.3359375 C46.0859375,35.7942681 45.9335953,35.3567725 45.6289062,35.0234375 C45.3242172,34.6901025 44.9140651,34.5234375 44.3984375,34.5234375 C43.7838511,34.5234375 43.3072934,34.7109356 42.96875,35.0859375 C42.6302066,35.4609394 42.4609375,35.9739551 42.4609375,36.625 L40.5625,36.625 C40.5625,35.9322882 40.7200505,35.3085965 41.0351562,34.7539062 C41.350262,34.199216 41.8007783,33.7682307 42.3867188,33.4609375 C42.9726592,33.1536443 43.6484337,33 44.4140625,33 C45.5182347,33 46.3893197,33.277341 47.0273438,33.8320312 C47.6653678,34.3867215 47.984375,35.1536409 47.984375,36.1328125 C47.984375,36.7005237 47.8242204,37.2955698 47.5039062,37.9179688 C47.1835921,38.5403677 46.6588578,39.2473919 45.9296875,40.0390625 L43.1484375,43.015625 L48.4296875,43.015625 L48.4296875,44.53125 Z M62.84375,40.828125 C62.7291661,42.0416727 62.2812539,42.9882779 61.5,43.6679688 C60.7187461,44.3476596 59.679694,44.6875 58.3828125,44.6875 C57.476558,44.6875 56.6783889,44.4726584 55.9882812,44.0429688 C55.2981736,43.6132791 54.7656269,43.0026081 54.390625,42.2109375 C54.0156231,41.4192669 53.8203126,40.5000052 53.8046875,39.453125 L53.8046875,38.390625 C53.8046875,37.317703 53.9947898,36.3723999 54.375,35.5546875 C54.7552102,34.7369751 55.3007777,34.106773 56.0117188,33.6640625 C56.7226598,33.221352 57.5442662,33 58.4765625,33 C59.7317771,33 60.7421837,33.3411424 61.5078125,34.0234375 C62.2734413,34.7057326 62.7187494,35.6692646 62.84375,36.9140625 L60.875,36.9140625 C60.7812495,36.0963501 60.5429707,35.5065122 60.1601562,35.1445312 C59.7773418,34.7825503 59.2161495,34.6015625 58.4765625,34.6015625 C57.6171832,34.6015625 56.9570336,34.9153614 56.4960938,35.5429688 C56.0351539,36.1705761 55.7994792,37.0911398 55.7890625,38.3046875 L55.7890625,39.3125 C55.7890625,40.5416728 56.0091124,41.4791634 56.4492188,42.125 C56.8893251,42.7708366 57.5338499,43.09375 58.3828125,43.09375 C59.158858,43.09375 59.7421855,42.9192726 60.1328125,42.5703125 C60.5234395,42.2213524 60.7708328,41.6406291 60.875,40.828125 L62.84375,40.828125 Z M69.4765625,44.53125 C69.3932287,44.3697909 69.3203128,44.1067727 69.2578125,43.7421875 C68.6536428,44.372399 67.9140669,44.6875 67.0390625,44.6875 C66.1900999,44.6875 65.4973985,44.4453149 64.9609375,43.9609375 C64.4244765,43.4765601 64.15625,42.8776077 64.15625,42.1640625 C64.15625,41.2630163 64.4908821,40.571617 65.1601562,40.0898438 C65.8294304,39.6080705 66.7864521,39.3671875 68.03125,39.3671875 L69.1953125,39.3671875 L69.1953125,38.8125 C69.1953125,38.3749978 69.0729179,38.0247409 68.828125,37.7617188 C68.5833321,37.4986966 68.21094,37.3671875 67.7109375,37.3671875 C67.2786437,37.3671875 66.9244805,37.4752593 66.6484375,37.6914062 C66.3723945,37.9075532 66.234375,38.18229 66.234375,38.515625 L64.3359375,38.515625 C64.3359375,38.052081 64.4895818,37.6184916 64.796875,37.2148438 C65.1041682,36.8111959 65.5221328,36.4947928 66.0507812,36.265625 C66.5794297,36.0364572 67.1692676,35.921875 67.8203125,35.921875 C68.8099008,35.921875 69.5989554,36.1705704 70.1875,36.6679688 C70.7760446,37.1653671 71.0781249,37.8645788 71.09375,38.765625 L71.09375,42.578125 C71.09375,43.3385455 71.2005198,43.9453102 71.4140625,44.3984375 L71.4140625,44.53125 L69.4765625,44.53125 Z M67.390625,43.1640625 C67.7656269,43.1640625 68.1184879,43.0729176 68.4492188,42.890625 C68.7799496,42.7083324 69.028645,42.4635432 69.1953125,42.15625 L69.1953125,40.5625 L68.171875,40.5625 C67.4687465,40.5625 66.9401059,40.6848946 66.5859375,40.9296875 C66.2317691,41.1744804 66.0546875,41.5208311 66.0546875,41.96875 C66.0546875,42.3333352 66.17578,42.6236968 66.4179688,42.8398438 C66.6601575,43.0559907 66.984373,43.1640625 67.390625,43.1640625 Z M75.4609375,34.0234375 L75.4609375,36.078125 L76.953125,36.078125 L76.953125,37.484375 L75.4609375,37.484375 L75.4609375,42.203125 C75.4609375,42.5260433 75.5247389,42.7591139 75.6523438,42.9023438 C75.7799486,43.0455736 76.0078109,43.1171875 76.3359375,43.1171875 C76.5546886,43.1171875 76.7760405,43.0911461 77,43.0390625 L77,44.5078125 C76.5677062,44.6276048 76.1510437,44.6875 75.75,44.6875 C74.2916594,44.6875 73.5625,43.8828205 73.5625,42.2734375 L73.5625,37.484375 L72.171875,37.484375 L72.171875,36.078125 L73.5625,36.078125 L73.5625,34.0234375 L75.4609375,34.0234375 Z M82.125,44.6875 C80.921869,44.6875 79.9466183,44.3085975 79.1992188,43.5507812 C78.4518192,42.792965 78.078125,41.7838605 78.078125,40.5234375 L78.078125,40.2890625 C78.078125,39.4453083 78.2408838,38.6914096 78.5664062,38.0273438 C78.8919287,37.3632779 79.3489554,36.846356 79.9375,36.4765625 C80.5260446,36.106769 81.182288,35.921875 81.90625,35.921875 C83.0572974,35.921875 83.9466114,36.2890588 84.5742188,37.0234375 C85.2018261,37.7578162 85.515625,38.7968683 85.515625,40.140625 L85.515625,40.90625 L79.9921875,40.90625 C80.0494795,41.6041702 80.28255,42.156248 80.6914062,42.5625 C81.1002625,42.968752 81.6145802,43.171875 82.234375,43.171875 C83.104171,43.171875 83.8124973,42.820316 84.359375,42.1171875 L85.3828125,43.09375 C85.0442691,43.5989609 84.5924507,43.990884 84.0273438,44.2695312 C83.4622368,44.5481785 82.8281285,44.6875 82.125,44.6875 Z M81.8984375,37.4453125 C81.3776016,37.4453125 80.9570329,37.6276023 80.6367188,37.9921875 C80.3164046,38.3567727 80.1119796,38.8645801 80.0234375,39.515625 L83.640625,39.515625 L83.640625,39.375 C83.5989581,38.7395802 83.429689,38.2591162 83.1328125,37.9335938 C82.835936,37.6080713 82.4244818,37.4453125 81.8984375,37.4453125 Z M86.65625,40.2421875 C86.65625,38.9296809 86.9648407,37.8815143 87.5820312,37.0976562 C88.1992218,36.3137982 89.0182241,35.921875 90.0390625,35.921875 C91.002609,35.921875 91.7604139,36.2578091 92.3125,36.9296875 L92.3984375,36.078125 L94.109375,36.078125 L94.109375,44.2734375 C94.109375,45.382818 93.7643264,46.2578093 93.0742188,46.8984375 C92.3841111,47.5390657 91.4531309,47.859375 90.28125,47.859375 C89.6614552,47.859375 89.0559925,47.73047 88.4648438,47.4726562 C87.873695,47.2148425 87.4244807,46.8776062 87.1171875,46.4609375 L88.015625,45.3203125 C88.5989613,46.0130243 89.3177041,46.359375 90.171875,46.359375 C90.8020865,46.359375 91.2994773,46.1888038 91.6640625,45.8476562 C92.0286477,45.5065087 92.2109375,45.0052116 92.2109375,44.34375 L92.2109375,43.7734375 C91.6640598,44.3828155 90.9349004,44.6875 90.0234375,44.6875 C89.0338492,44.6875 88.2252636,44.2942748 87.5976562,43.5078125 C86.9700489,42.7213502 86.65625,41.6328195 86.65625,40.2421875 Z M88.546875,40.40625 C88.546875,41.2552126 88.7200504,41.9231746 89.0664062,42.4101562 C89.4127621,42.8971379 89.8932261,43.140625 90.5078125,43.140625 C91.2734413,43.140625 91.841144,42.8125033 92.2109375,42.15625 L92.2109375,38.4375 C91.8515607,37.7968718 91.2890663,37.4765625 90.5234375,37.4765625 C89.8984344,37.4765625 89.4127621,37.7239559 89.0664062,38.21875 C88.7200504,38.7135441 88.546875,39.4427035 88.546875,40.40625 Z M95.703125,40.2265625 C95.703125,39.3984334 95.8671859,38.6523471 96.1953125,37.9882812 C96.5234391,37.3242154 96.984372,36.8138039 97.578125,36.4570312 C98.171878,36.1002586 98.8541628,35.921875 99.625,35.921875 C100.765631,35.921875 101.691403,36.2890588 102.402344,37.0234375 C103.113285,37.7578162 103.497396,38.7317648 103.554688,39.9453125 L103.5625,40.390625 C103.5625,41.2239625 103.402345,41.9687467 103.082031,42.625 C102.761717,43.2812533 102.303388,43.7890607 101.707031,44.1484375 C101.110674,44.5078143 100.421879,44.6875 99.640625,44.6875 C98.4479107,44.6875 97.4934932,44.2903686 96.7773438,43.4960938 C96.0611943,42.7018189 95.703125,41.6432358 95.703125,40.3203125 L95.703125,40.2265625 Z M97.6015625,40.390625 C97.6015625,41.260421 97.7812482,41.9414038 98.140625,42.4335938 C98.5000018,42.9257837 98.9999968,43.171875 99.640625,43.171875 C100.281253,43.171875 100.779946,42.9218775 101.136719,42.421875 C101.493491,41.9218725 101.671875,41.190109 101.671875,40.2265625 C101.671875,39.3723916 101.488283,38.695315 101.121094,38.1953125 C100.753904,37.69531 100.255211,37.4453125 99.625,37.4453125 C99.0052052,37.4453125 98.5130227,37.6914038 98.1484375,38.1835938 C97.7838523,38.6757837 97.6015625,39.4114534 97.6015625,40.390625 Z M109.59375,37.8125 C109.343749,37.7708331 109.085939,37.75 108.820312,37.75 C107.950516,37.75 107.364585,38.08333 107.0625,38.75 L107.0625,44.53125 L105.164062,44.53125 L105.164062,36.078125 L106.976562,36.078125 L107.023438,37.0234375 C107.481773,36.2890588 108.117183,35.921875 108.929688,35.921875 C109.200522,35.921875 109.424478,35.958333 109.601562,36.03125 L109.59375,37.8125 Z M113.890625,41.8125 L115.609375,36.078125 L117.632812,36.078125 L114.273438,45.8125 C113.75781,47.2343821 112.882819,47.9453125 111.648438,47.9453125 C111.372394,47.9453125 111.06771,47.898438 110.734375,47.8046875 L110.734375,46.3359375 L111.09375,46.359375 C111.572919,46.359375 111.933593,46.2721363 112.175781,46.0976562 C112.41797,45.9231762 112.609374,45.6302104 112.75,45.21875 L113.023438,44.4921875 L110.054688,36.078125 L112.101562,36.078125 L113.890625,41.8125 Z" id="K2-Category" fill="#5D6B82"></path>
    </g>
</svg>