<svg width="148" height="80" viewBox="0 0 148 80" fill="none" xmlns="http://www.w3.org/2000/svg">
	<rect x="0.5" y="0.5" width="147" height="79" rx="1.5" fill="#FAFBFB" stroke="#D1D5DB"/>
	<path fill-rule="evenodd" clip-rule="evenodd" d="M24.0005 49.2098L37.3459 63L54.0005 45.7906L40.6551 32L24.0005 49.2098Z" fill="#5D6B82"/>
	<path fill-rule="evenodd" clip-rule="evenodd" d="M36.4622 29.0354L12.0004 54L12.0002 30.4048L12 12H57.0001L60.5398 15.7506L45.9925 30.5967L34.211 18.5728L30.2107 22.6555L36.4622 29.0354ZM43 68L41.0002 66.1142L57.6617 49L75.5 68H43ZM12.0002 68V61.8583L20.1694 54L34.5 68H12.0002ZM65.5553 19L113.5 68H84.5L51.0002 33.8431L65.5553 19ZM100.983 17.3776L95.5 12L136 12V68H121L105.904 52.8988L112.575 46.2482L108.525 42.2107L101.853 48.8616C101.853 48.8616 89.1328 36.1814 89.1304 36.1793L80.0002 27.0779L90.8568 16.2559L96.4825 21.8637L100.983 17.3776ZM66 12L77.1711 23L88 12H66Z" fill="#D1D5DB"/>
</svg>
