<svg width="148" height="80" viewBox="0 0 148 80" fill="none" xmlns="http://www.w3.org/2000/svg">
	<rect x="0.5" y="0.5" width="147" height="79" rx="1.5" fill="#FAFBFB" stroke="#D1D5DB"/>
	<path fill-rule="evenodd" clip-rule="evenodd" d="M50.6852 25.8076C49.3292 20.0867 43.8357 17 39 17C33.4355 17 27 21.0873 27 28.5721C27 30.7316 27.7809 32.7692 28.6098 34.3811C28.9057 34.9564 29.2304 35.5208 29.5715 36.0677L12.0004 54L12.0002 30.4048L12 12H57.0001L60.5398 15.7506L50.6852 25.8076ZM41.0002 66.1142L43 68H75.5L57.6617 49L41.0002 66.1142ZM12.0002 61.8583V68H34.5L20.1694 54L12.0002 61.8583ZM113.5 68L65.5553 19L51.0002 33.8431L84.5 68H113.5ZM95.5 12L100.983 17.3776L96.4825 21.8637L90.8568 16.2559L80.0002 27.0779L89.1304 36.1793C89.1328 36.1814 101.853 48.8616 101.853 48.8616L108.525 42.2107L112.575 46.2482L105.904 52.8988L121 68H136V12L95.5 12ZM77.1711 23L66 12H88L77.1711 23Z" fill="#D1D5DB"/>
	<path fill-rule="evenodd" clip-rule="evenodd" d="M30.9998 28.5721C30.9998 23.8325 35.0672 21 38.9998 21C42.9323 21 46.9998 23.8325 46.9998 28.5721C46.9998 33.5377 39.5622 40.6056 39.2457 40.9039C39.1806 40.9656 39.0919 41 38.9998 41C38.9076 41 38.8189 40.9656 38.7538 40.9039C38.4373 40.6056 30.9998 33.5377 30.9998 28.5721ZM36.2171 28.541C36.2171 29.9895 37.4631 31.1639 38.9998 31.1639C40.5365 31.1639 41.7824 29.9895 41.7824 28.541C41.7824 27.0925 40.5365 25.918 38.9998 25.918C37.4631 25.918 36.2171 27.0925 36.2171 28.541ZM24 49.2098L32.6678 40.253C34.34 42.2263 35.808 43.6239 36.0063 43.811C36.8445 44.6034 37.9286 45 38.9998 45C40.0693 45 41.1517 44.6046 41.9894 43.8147C42.2092 43.6074 44.3125 41.6083 46.3907 38.9544C46.5363 38.7684 46.6833 38.5775 46.8306 38.382L54 45.7906L37.3454 63L24 49.2098Z" fill="#5D6B82"/>
</svg>
