<svg width="148" height="80" viewBox="0 0 148 80" fill="none" xmlns="http://www.w3.org/2000/svg">
<rect width="148" height="80" rx="2" fill="#D1D5DB"/>
<rect x="1" y="1" width="146" height="78" rx="1" fill="#FAFBFB"/>
<path fill-rule="evenodd" clip-rule="evenodd" d="M13.1621 28.9814C13.5299 29.3167 14.1159 29.5999 14.9199 29.8311C15.5612 30.0166 16.0039 30.2054 16.248 30.3975C16.4922 30.5863 16.6143 30.8548 16.6143 31.2031C16.6143 31.5514 16.4824 31.8265 16.2188 32.0283C15.9551 32.2301 15.5758 32.3311 15.0811 32.3311C14.5505 32.3311 14.1257 32.2074 13.8066 31.96C13.4909 31.7093 13.333 31.3691 13.333 30.9395H12.3906C12.3906 31.3529 12.5046 31.7223 12.7324 32.0479C12.9635 32.3734 13.2907 32.6305 13.7139 32.8193C14.137 33.0049 14.5928 33.0977 15.0811 33.0977C15.833 33.0977 16.4336 32.9251 16.8828 32.5801C17.332 32.2318 17.5566 31.7695 17.5566 31.1934C17.5566 30.832 17.4753 30.5179 17.3125 30.251C17.153 29.984 16.9056 29.7513 16.5703 29.5527C16.2383 29.3509 15.776 29.167 15.1836 29.001C14.5944 28.835 14.1761 28.6527 13.9287 28.4541C13.6846 28.2523 13.5625 28.0065 13.5625 27.7168C13.5625 27.3555 13.6911 27.0739 13.9482 26.8721C14.2087 26.667 14.57 26.5645 15.0322 26.5645C15.5303 26.5645 15.916 26.6882 16.1895 26.9355C16.4629 27.1797 16.5996 27.5166 16.5996 27.9463H17.542C17.542 27.5524 17.4362 27.1895 17.2246 26.8574C17.0163 26.5254 16.7201 26.265 16.3359 26.0762C15.9551 25.8874 15.5205 25.793 15.0322 25.793C14.3161 25.793 13.7334 25.9769 13.2842 26.3447C12.8382 26.7093 12.6152 27.1715 12.6152 27.7314C12.6152 28.2262 12.7975 28.6429 13.1621 28.9814ZM18.6992 33H19.6025V27.7168H18.6992V33ZM18.7578 25.9443C18.6699 26.0452 18.626 26.1689 18.626 26.3154C18.626 26.4619 18.6699 26.584 18.7578 26.6816C18.849 26.7793 18.9824 26.8281 19.1582 26.8281C19.334 26.8281 19.4674 26.7793 19.5586 26.6816C19.6497 26.584 19.6953 26.4619 19.6953 26.3154C19.6953 26.1689 19.6497 26.0452 19.5586 25.9443C19.4674 25.8434 19.334 25.793 19.1582 25.793C18.9824 25.793 18.849 25.8434 18.7578 25.9443ZM21.9365 28.3809L21.9072 27.7168H21.0527V33H21.9561V29.2354C22.0798 28.9814 22.2523 28.7764 22.4736 28.6201C22.695 28.4639 22.9521 28.3857 23.2451 28.3857C23.6064 28.3857 23.8717 28.4769 24.041 28.6592C24.2135 28.8415 24.3014 29.123 24.3047 29.5039V33H25.208V29.5088C25.1982 28.249 24.6351 27.6191 23.5186 27.6191C22.8675 27.6191 22.3402 27.873 21.9365 28.3809ZM26.9268 28.3516C26.5459 28.8366 26.3555 29.4909 26.3555 30.3145C26.3555 31.1738 26.5459 31.8525 26.9268 32.3506C27.3109 32.8486 27.8122 33.0977 28.4307 33.0977C29.0557 33.0977 29.5488 32.8893 29.9102 32.4727V32.9268C29.9102 33.376 29.7865 33.7243 29.5391 33.9717C29.2949 34.2191 28.9531 34.3428 28.5137 34.3428C27.9538 34.3428 27.4801 34.1035 27.0928 33.625L26.624 34.167C26.8161 34.4502 27.0944 34.6732 27.459 34.8359C27.8236 34.9987 28.1963 35.0801 28.5771 35.0801C29.2607 35.0801 29.8044 34.8831 30.208 34.4893C30.6149 34.0954 30.8184 33.5566 30.8184 32.873V27.7168H29.9932L29.9492 28.3027C29.5879 27.847 29.085 27.6191 28.4404 27.6191C27.8122 27.6191 27.3076 27.8633 26.9268 28.3516ZM27.6299 31.8232C27.3857 31.4814 27.2637 31.0127 27.2637 30.417C27.2637 29.7464 27.3874 29.2402 27.6348 28.8984C27.8822 28.5566 28.2256 28.3857 28.665 28.3857C29.2184 28.3857 29.6335 28.638 29.9102 29.1426V31.5547C29.6432 32.0723 29.2249 32.3311 28.6553 32.3311C28.2158 32.3311 27.874 32.1618 27.6299 31.8232ZM32.2637 33H33.167V25.5H32.2637V33ZM35.0615 32.3945C35.5107 32.8633 36.0934 33.0977 36.8096 33.0977C37.695 33.0977 38.359 32.7575 38.8018 32.0771L38.25 31.6475C38.084 31.8623 37.8903 32.0348 37.6689 32.165C37.4476 32.2952 37.1774 32.3604 36.8584 32.3604C36.4092 32.3604 36.0381 32.2008 35.7451 31.8818C35.4554 31.5596 35.304 31.138 35.291 30.6172H38.8701V30.2412C38.8701 29.3981 38.6797 28.7503 38.2988 28.2979C37.918 27.8454 37.3841 27.6191 36.6973 27.6191C36.2773 27.6191 35.8867 27.7363 35.5254 27.9707C35.1673 28.2018 34.8874 28.5241 34.6855 28.9375C34.487 29.3477 34.3877 29.8148 34.3877 30.3389V30.5049C34.3877 31.2926 34.6123 31.9225 35.0615 32.3945ZM35.7793 28.7617C36.0267 28.4948 36.3327 28.3613 36.6973 28.3613C37.0749 28.3613 37.3743 28.4883 37.5957 28.7422C37.8171 28.9928 37.9408 29.3477 37.9668 29.8066V29.875H35.3203C35.3789 29.3965 35.5319 29.0254 35.7793 28.7617ZM46.8535 32.2334H43.4844V25.8906H42.542V33H46.8535V32.2334ZM47.8594 33H48.7627V27.7168H47.8594V33ZM47.918 25.9443C47.8301 26.0452 47.7861 26.1689 47.7861 26.3154C47.7861 26.4619 47.8301 26.584 47.918 26.6816C48.0091 26.7793 48.1426 26.8281 48.3184 26.8281C48.4941 26.8281 48.6276 26.7793 48.7188 26.6816C48.8099 26.584 48.8555 26.4619 48.8555 26.3154C48.8555 26.1689 48.8099 26.0452 48.7188 25.9443C48.6276 25.8434 48.4941 25.793 48.3184 25.793C48.1426 25.793 48.0091 25.8434 47.918 25.9443ZM51.0967 28.3809L51.0674 27.7168H50.2129V33H51.1162V29.2354C51.2399 28.9814 51.4124 28.7764 51.6338 28.6201C51.8551 28.4639 52.1123 28.3857 52.4053 28.3857C52.7666 28.3857 53.0319 28.4769 53.2012 28.6592C53.3737 28.8415 53.4616 29.123 53.4648 29.5039V33H54.3682V29.5088C54.3584 28.249 53.7952 27.6191 52.6787 27.6191C52.0277 27.6191 51.5003 27.873 51.0967 28.3809ZM56.1748 32.3945C56.624 32.8633 57.2067 33.0977 57.9229 33.0977C58.8083 33.0977 59.4723 32.7575 59.915 32.0771L59.3633 31.6475C59.1973 31.8623 59.0036 32.0348 58.7822 32.165C58.5609 32.2952 58.2907 32.3604 57.9717 32.3604C57.5225 32.3604 57.1514 32.2008 56.8584 31.8818C56.5687 31.5596 56.4173 31.138 56.4043 30.6172H59.9834V30.2412C59.9834 29.3981 59.793 28.7503 59.4121 28.2979C59.0312 27.8454 58.4974 27.6191 57.8105 27.6191C57.3906 27.6191 57 27.7363 56.6387 27.9707C56.2806 28.2018 56.0007 28.5241 55.7988 28.9375C55.6003 29.3477 55.501 29.8148 55.501 30.3389V30.5049C55.501 31.2926 55.7256 31.9225 56.1748 32.3945ZM56.8926 28.7617C57.14 28.4948 57.446 28.3613 57.8105 28.3613C58.1882 28.3613 58.4876 28.4883 58.709 28.7422C58.9303 28.9928 59.054 29.3477 59.0801 29.8066V29.875H56.4336C56.4922 29.3965 56.6452 29.0254 56.8926 28.7617ZM66.0869 26.6621H68.3721V25.8906H62.874V26.6621H65.1543V33H66.0869V26.6621ZM69.2412 32.3945C69.6904 32.8633 70.2731 33.0977 70.9893 33.0977C71.8747 33.0977 72.5387 32.7575 72.9814 32.0771L72.4297 31.6475C72.2637 31.8623 72.07 32.0348 71.8486 32.165C71.6273 32.2952 71.3571 32.3604 71.0381 32.3604C70.5889 32.3604 70.2178 32.2008 69.9248 31.8818C69.6351 31.5596 69.4837 31.138 69.4707 30.6172H73.0498V30.2412C73.0498 29.3981 72.8594 28.7503 72.4785 28.2979C72.0977 27.8454 71.5638 27.6191 70.877 27.6191C70.457 27.6191 70.0664 27.7363 69.7051 27.9707C69.347 28.2018 69.0671 28.5241 68.8652 28.9375C68.6667 29.3477 68.5674 29.8148 68.5674 30.3389V30.5049C68.5674 31.2926 68.792 31.9225 69.2412 32.3945ZM69.959 28.7617C70.2064 28.4948 70.5124 28.3613 70.877 28.3613C71.2546 28.3613 71.554 28.4883 71.7754 28.7422C71.9967 28.9928 72.1204 29.3477 72.1465 29.8066V29.875H69.5C69.5586 29.3965 69.7116 29.0254 69.959 28.7617ZM77.0439 27.7168L75.8721 29.6455L74.7148 27.7168H73.6699L75.3984 30.3291L73.6162 33H74.666L75.8867 31.0225L77.1074 33H78.1523L76.3701 30.3291L78.0986 27.7168H77.0439ZM80.2861 27.7168V26.4375H79.3828V27.7168H78.4209V28.415H79.3828V31.6914C79.3828 32.1406 79.4854 32.4873 79.6904 32.7314C79.8955 32.9756 80.1999 33.0977 80.6035 33.0977C80.8281 33.0977 81.0592 33.0651 81.2969 33V32.2676C81.1146 32.3066 80.9714 32.3262 80.8672 32.3262C80.6556 32.3262 80.5059 32.2741 80.418 32.1699C80.3301 32.0625 80.2861 31.903 80.2861 31.6914V28.415H81.2725V27.7168H80.2861ZM136 38H12V54H136V38Z" fill="#5D6B82"/>
</svg>
