<svg width="148" height="80" viewBox="0 0 148 80" fill="none" xmlns="http://www.w3.org/2000/svg">
<rect width="148" height="80" rx="2" fill="#D1D5DB"/>
<rect x="1" y="1" width="146" height="78" rx="1" fill="#FAFBFB"/>
<path fill-rule="evenodd" clip-rule="evenodd" d="M16.3604 17.6914L14.0361 11.8906H12.8252V19H13.7627V16.2314L13.6699 13.2578L15.999 19H16.7168L19.0508 13.2432L18.9629 16.2314V19H19.9004V11.8906H18.6846L16.3604 17.6914ZM23.1279 19.0977C23.8083 19.0977 24.3242 18.891 24.6758 18.4775L24.6953 19H25.5547V13.7168H24.6514V17.5596C24.4235 18.0739 23.9645 18.3311 23.2744 18.3311C22.6234 18.3311 22.2979 17.9307 22.2979 17.1299V13.7168H21.3945V17.1543C21.3978 17.7956 21.5459 18.2806 21.8389 18.6094C22.1351 18.9349 22.5648 19.0977 23.1279 19.0977ZM27.0098 19H27.9131V11.5H27.0098V19ZM30.5889 13.7168V12.4375H29.6855V13.7168H28.7236V14.415H29.6855V17.6914C29.6855 18.1406 29.7881 18.4873 29.9932 18.7314C30.1982 18.9756 30.5026 19.0977 30.9062 19.0977C31.1309 19.0977 31.362 19.0651 31.5996 19V18.2676C31.4173 18.3066 31.2741 18.3262 31.1699 18.3262C30.9583 18.3262 30.8086 18.2741 30.7207 18.1699C30.6328 18.0625 30.5889 17.903 30.5889 17.6914V14.415H31.5752V13.7168H30.5889ZM32.7129 19H33.6162V13.7168H32.7129V19ZM32.7715 11.9443C32.6836 12.0452 32.6396 12.1689 32.6396 12.3154C32.6396 12.4619 32.6836 12.584 32.7715 12.6816C32.8626 12.7793 32.9961 12.8281 33.1719 12.8281C33.3477 12.8281 33.4811 12.7793 33.5723 12.6816C33.6634 12.584 33.709 12.4619 33.709 12.3154C33.709 12.1689 33.6634 12.0452 33.5723 11.9443C33.4811 11.8434 33.3477 11.793 33.1719 11.793C32.9961 11.793 32.8626 11.8434 32.7715 11.9443ZM38.9775 18.3604C39.3454 17.8688 39.5293 17.221 39.5293 16.417V16.334C39.5293 15.4811 39.3438 14.8154 38.9727 14.3369C38.6048 13.8584 38.1035 13.6191 37.4688 13.6191C36.8145 13.6191 36.3034 13.847 35.9355 14.3027L35.8916 13.7168H35.0664V21.0312H35.9697V18.4873C36.3376 18.8942 36.8421 19.0977 37.4834 19.0977C38.1117 19.0977 38.6097 18.8519 38.9775 18.3604ZM38.2451 14.9033C38.499 15.2484 38.626 15.7188 38.626 16.3145C38.626 16.9915 38.4974 17.5026 38.2402 17.8477C37.9863 18.1895 37.6429 18.3604 37.21 18.3604C36.6533 18.3604 36.2399 18.1195 35.9697 17.6377V15.1133C36.2432 14.6283 36.6533 14.3857 37.2002 14.3857C37.6429 14.3857 37.9912 14.5583 38.2451 14.9033ZM40.7598 19H41.6631V11.5H40.7598V19ZM43.5576 18.3945C44.0068 18.8633 44.5895 19.0977 45.3057 19.0977C46.1911 19.0977 46.8551 18.7575 47.2979 18.0771L46.7461 17.6475C46.5801 17.8623 46.3864 18.0348 46.165 18.165C45.9437 18.2952 45.6735 18.3604 45.3545 18.3604C44.9053 18.3604 44.5342 18.2008 44.2412 17.8818C43.9515 17.5596 43.8001 17.138 43.7871 16.6172H47.3662V16.2412C47.3662 15.3981 47.1758 14.7503 46.7949 14.2979C46.4141 13.8454 45.8802 13.6191 45.1934 13.6191C44.7734 13.6191 44.3828 13.7363 44.0215 13.9707C43.6634 14.2018 43.3835 14.5241 43.1816 14.9375C42.9831 15.3477 42.8838 15.8148 42.8838 16.3389V16.5049C42.8838 17.2926 43.1084 17.9225 43.5576 18.3945ZM44.2754 14.7617C44.5228 14.4948 44.8288 14.3613 45.1934 14.3613C45.571 14.3613 45.8704 14.4883 46.0918 14.7422C46.3132 14.9928 46.4368 15.3477 46.4629 15.8066V15.875H43.8164C43.875 15.3965 44.028 15.0254 44.2754 14.7617ZM55.3496 18.2334H51.9805V11.8906H51.0381V19H55.3496V18.2334ZM56.3555 19H57.2588V13.7168H56.3555V19ZM56.4141 11.9443C56.3262 12.0452 56.2822 12.1689 56.2822 12.3154C56.2822 12.4619 56.3262 12.584 56.4141 12.6816C56.5052 12.7793 56.6387 12.8281 56.8145 12.8281C56.9902 12.8281 57.1237 12.7793 57.2148 12.6816C57.306 12.584 57.3516 12.4619 57.3516 12.3154C57.3516 12.1689 57.306 12.0452 57.2148 11.9443C57.1237 11.8434 56.9902 11.793 56.8145 11.793C56.6387 11.793 56.5052 11.8434 56.4141 11.9443ZM59.5928 14.3809L59.5635 13.7168H58.709V19H59.6123V15.2354C59.736 14.9814 59.9085 14.7764 60.1299 14.6201C60.3512 14.4639 60.6084 14.3857 60.9014 14.3857C61.2627 14.3857 61.528 14.4769 61.6973 14.6592C61.8698 14.8415 61.9577 15.123 61.9609 15.5039V19H62.8643V15.5088C62.8545 14.249 62.2913 13.6191 61.1748 13.6191C60.5238 13.6191 59.9964 13.873 59.5928 14.3809ZM64.6709 18.3945C65.1201 18.8633 65.7028 19.0977 66.4189 19.0977C67.3044 19.0977 67.9684 18.7575 68.4111 18.0771L67.8594 17.6475C67.6934 17.8623 67.4997 18.0348 67.2783 18.165C67.057 18.2952 66.7868 18.3604 66.4678 18.3604C66.0186 18.3604 65.6475 18.2008 65.3545 17.8818C65.0648 17.5596 64.9134 17.138 64.9004 16.6172H68.4795V16.2412C68.4795 15.3981 68.2891 14.7503 67.9082 14.2979C67.5273 13.8454 66.9935 13.6191 66.3066 13.6191C65.8867 13.6191 65.4961 13.7363 65.1348 13.9707C64.7767 14.2018 64.4967 14.5241 64.2949 14.9375C64.0964 15.3477 63.9971 15.8148 63.9971 16.3389V16.5049C63.9971 17.2926 64.2217 17.9225 64.6709 18.3945ZM65.3887 14.7617C65.6361 14.4948 65.9421 14.3613 66.3066 14.3613C66.6842 14.3613 66.9837 14.4883 67.2051 14.7422C67.4264 14.9928 67.5501 15.3477 67.5762 15.8066V15.875H64.9297C64.9883 15.3965 65.1413 15.0254 65.3887 14.7617ZM72.3271 17.0322C72.5127 17.1657 72.6055 17.3545 72.6055 17.5986C72.6055 17.8298 72.5013 18.0153 72.293 18.1553C72.0879 18.292 71.8145 18.3604 71.4727 18.3604C71.1016 18.3604 70.8021 18.2725 70.5742 18.0967C70.3496 17.9176 70.2292 17.6768 70.2129 17.374H69.3096C69.3096 17.6865 69.4007 17.9779 69.583 18.248C69.7686 18.515 70.0241 18.7233 70.3496 18.873C70.6751 19.0228 71.0495 19.0977 71.4727 19.0977C72.0749 19.0977 72.5648 18.9561 72.9424 18.6729C73.32 18.3864 73.5088 18.0072 73.5088 17.5352C73.5088 17.252 73.4404 17.0127 73.3037 16.8174C73.1702 16.6188 72.9635 16.4495 72.6836 16.3096C72.4036 16.1696 72.0374 16.0492 71.585 15.9482C71.1357 15.8473 70.8249 15.7415 70.6523 15.6309C70.4798 15.5202 70.3936 15.3558 70.3936 15.1377C70.3936 14.9066 70.4863 14.7194 70.6719 14.5762C70.8574 14.4329 71.1146 14.3613 71.4434 14.3613C71.7624 14.3613 72.026 14.4508 72.2344 14.6299C72.446 14.8089 72.5518 15.0221 72.5518 15.2695H73.46C73.46 14.7878 73.2728 14.3923 72.8984 14.083C72.5273 13.7738 72.0423 13.6191 71.4434 13.6191C70.8737 13.6191 70.4049 13.7689 70.0371 14.0684C69.6725 14.3678 69.4902 14.734 69.4902 15.167C69.4902 15.4274 69.5537 15.652 69.6807 15.8408C69.8109 16.0296 70.0094 16.1924 70.2764 16.3291C70.5466 16.4658 70.9095 16.583 71.3652 16.6807C71.8242 16.7783 72.1449 16.8955 72.3271 17.0322ZM79.7393 12.6621H82.0244V11.8906H76.5264V12.6621H78.8066V19H79.7393V12.6621ZM82.8936 18.3945C83.3428 18.8633 83.9255 19.0977 84.6416 19.0977C85.527 19.0977 86.1911 18.7575 86.6338 18.0771L86.082 17.6475C85.916 17.8623 85.7223 18.0348 85.501 18.165C85.2796 18.2952 85.0094 18.3604 84.6904 18.3604C84.2412 18.3604 83.8701 18.2008 83.5771 17.8818C83.2874 17.5596 83.1361 17.138 83.123 16.6172H86.7021V16.2412C86.7021 15.3981 86.5117 14.7503 86.1309 14.2979C85.75 13.8454 85.2161 13.6191 84.5293 13.6191C84.1094 13.6191 83.7188 13.7363 83.3574 13.9707C82.9994 14.2018 82.7194 14.5241 82.5176 14.9375C82.319 15.3477 82.2197 15.8148 82.2197 16.3389V16.5049C82.2197 17.2926 82.4443 17.9225 82.8936 18.3945ZM83.6113 14.7617C83.8587 14.4948 84.1647 14.3613 84.5293 14.3613C84.9069 14.3613 85.2064 14.4883 85.4277 14.7422C85.6491 14.9928 85.7728 15.3477 85.7988 15.8066V15.875H83.1523C83.2109 15.3965 83.3639 15.0254 83.6113 14.7617ZM90.6963 13.7168L89.5244 15.6455L88.3672 13.7168H87.3223L89.0508 16.3291L87.2686 19H88.3184L89.5391 17.0225L90.7598 19H91.8047L90.0225 16.3291L91.751 13.7168H90.6963ZM93.9385 13.7168V12.4375H93.0352V13.7168H92.0732V14.415H93.0352V17.6914C93.0352 18.1406 93.1377 18.4873 93.3428 18.7314C93.5479 18.9756 93.8522 19.0977 94.2559 19.0977C94.4805 19.0977 94.7116 19.0651 94.9492 19V18.2676C94.7669 18.3066 94.6237 18.3262 94.5195 18.3262C94.3079 18.3262 94.1582 18.2741 94.0703 18.1699C93.9824 18.0625 93.9385 17.903 93.9385 17.6914V14.415H94.9248V13.7168H93.9385ZM136 24H12V60H136V24Z" fill="#5D6B82"/>
</svg>
