<svg width="148" height="80" viewBox="0 0 148 80" fill="none" xmlns="http://www.w3.org/2000/svg">
<rect width="148" height="80" rx="2" fill="#D1D5DB"/>
<rect x="1" y="1" width="146" height="78" rx="1" fill="#FAFBFB"/>
<path fill-rule="evenodd" clip-rule="evenodd" d="M13.1621 14.9814C13.5299 15.3167 14.1159 15.5999 14.9199 15.8311C15.5612 16.0166 16.0039 16.2054 16.248 16.3975C16.4922 16.5863 16.6143 16.8548 16.6143 17.2031C16.6143 17.5514 16.4824 17.8265 16.2188 18.0283C15.9551 18.2301 15.5758 18.3311 15.0811 18.3311C14.5505 18.3311 14.1257 18.2074 13.8066 17.96C13.4909 17.7093 13.333 17.3691 13.333 16.9395H12.3906C12.3906 17.3529 12.5046 17.7223 12.7324 18.0479C12.9635 18.3734 13.2907 18.6305 13.7139 18.8193C14.137 19.0049 14.5928 19.0977 15.0811 19.0977C15.833 19.0977 16.4336 18.9251 16.8828 18.5801C17.332 18.2318 17.5566 17.7695 17.5566 17.1934C17.5566 16.832 17.4753 16.5179 17.3125 16.251C17.153 15.984 16.9056 15.7513 16.5703 15.5527C16.2383 15.3509 15.776 15.167 15.1836 15.001C14.5944 14.835 14.1761 14.6527 13.9287 14.4541C13.6846 14.2523 13.5625 14.0065 13.5625 13.7168C13.5625 13.3555 13.6911 13.0739 13.9482 12.8721C14.2087 12.667 14.57 12.5645 15.0322 12.5645C15.5303 12.5645 15.916 12.6882 16.1895 12.9355C16.4629 13.1797 16.5996 13.5166 16.5996 13.9463H17.542C17.542 13.5524 17.4362 13.1895 17.2246 12.8574C17.0163 12.5254 16.7201 12.265 16.3359 12.0762C15.9551 11.8874 15.5205 11.793 15.0322 11.793C14.3161 11.793 13.7334 11.9769 13.2842 12.3447C12.8382 12.7093 12.6152 13.1715 12.6152 13.7314C12.6152 14.2262 12.7975 14.6429 13.1621 14.9814ZM18.6992 19H19.6025V13.7168H18.6992V19ZM18.7578 11.9443C18.6699 12.0452 18.626 12.1689 18.626 12.3154C18.626 12.4619 18.6699 12.584 18.7578 12.6816C18.849 12.7793 18.9824 12.8281 19.1582 12.8281C19.334 12.8281 19.4674 12.7793 19.5586 12.6816C19.6497 12.584 19.6953 12.4619 19.6953 12.3154C19.6953 12.1689 19.6497 12.0452 19.5586 11.9443C19.4674 11.8434 19.334 11.793 19.1582 11.793C18.9824 11.793 18.849 11.8434 18.7578 11.9443ZM21.9365 14.3809L21.9072 13.7168H21.0527V19H21.9561V15.2354C22.0798 14.9814 22.2523 14.7764 22.4736 14.6201C22.695 14.4639 22.9521 14.3857 23.2451 14.3857C23.6064 14.3857 23.8717 14.4769 24.041 14.6592C24.2135 14.8415 24.3014 15.123 24.3047 15.5039V19H25.208V15.5088C25.1982 14.249 24.6351 13.6191 23.5186 13.6191C22.8675 13.6191 22.3402 13.873 21.9365 14.3809ZM26.9268 14.3516C26.5459 14.8366 26.3555 15.4909 26.3555 16.3145C26.3555 17.1738 26.5459 17.8525 26.9268 18.3506C27.3109 18.8486 27.8122 19.0977 28.4307 19.0977C29.0557 19.0977 29.5488 18.8893 29.9102 18.4727V18.9268C29.9102 19.376 29.7865 19.7243 29.5391 19.9717C29.2949 20.2191 28.9531 20.3428 28.5137 20.3428C27.9538 20.3428 27.4801 20.1035 27.0928 19.625L26.624 20.167C26.8161 20.4502 27.0944 20.6732 27.459 20.8359C27.8236 20.9987 28.1963 21.0801 28.5771 21.0801C29.2607 21.0801 29.8044 20.8831 30.208 20.4893C30.6149 20.0954 30.8184 19.5566 30.8184 18.873V13.7168H29.9932L29.9492 14.3027C29.5879 13.847 29.085 13.6191 28.4404 13.6191C27.8122 13.6191 27.3076 13.8633 26.9268 14.3516ZM27.6299 17.8232C27.3857 17.4814 27.2637 17.0127 27.2637 16.417C27.2637 15.7464 27.3874 15.2402 27.6348 14.8984C27.8822 14.5566 28.2256 14.3857 28.665 14.3857C29.2184 14.3857 29.6335 14.638 29.9102 15.1426V17.5547C29.6432 18.0723 29.2249 18.3311 28.6553 18.3311C28.2158 18.3311 27.874 18.1618 27.6299 17.8232ZM32.2637 19H33.167V11.5H32.2637V19ZM35.0615 18.3945C35.5107 18.8633 36.0934 19.0977 36.8096 19.0977C37.695 19.0977 38.359 18.7575 38.8018 18.0771L38.25 17.6475C38.084 17.8623 37.8903 18.0348 37.6689 18.165C37.4476 18.2952 37.1774 18.3604 36.8584 18.3604C36.4092 18.3604 36.0381 18.2008 35.7451 17.8818C35.4554 17.5596 35.304 17.138 35.291 16.6172H38.8701V16.2412C38.8701 15.3981 38.6797 14.7503 38.2988 14.2979C37.918 13.8454 37.3841 13.6191 36.6973 13.6191C36.2773 13.6191 35.8867 13.7363 35.5254 13.9707C35.1673 14.2018 34.8874 14.5241 34.6855 14.9375C34.487 15.3477 34.3877 15.8148 34.3877 16.3389V16.5049C34.3877 17.2926 34.6123 17.9225 35.0615 18.3945ZM35.7793 14.7617C36.0267 14.4948 36.3327 14.3613 36.6973 14.3613C37.0749 14.3613 37.3743 14.4883 37.5957 14.7422C37.8171 14.9928 37.9408 15.3477 37.9668 15.8066V15.875H35.3203C35.3789 15.3965 35.5319 15.0254 35.7793 14.7617ZM46.9365 18.4873C47.4053 18.0771 47.6836 17.4961 47.7715 16.7441H46.8291C46.738 17.3301 46.5524 17.7419 46.2725 17.9795C45.9958 18.2139 45.597 18.3311 45.0762 18.3311C44.4967 18.3311 44.0459 18.1032 43.7236 17.6475C43.4014 17.1917 43.2402 16.5781 43.2402 15.8066V15.1182C43.2402 14.3011 43.4095 13.6712 43.748 13.2285C44.0898 12.7858 44.5602 12.5645 45.1592 12.5645C45.6475 12.5645 46.0267 12.6914 46.2969 12.9453C46.5703 13.1992 46.7477 13.6094 46.8291 14.1758H47.7715C47.6966 13.4303 47.4313 12.8477 46.9756 12.4277C46.5199 12.0046 45.9144 11.793 45.1592 11.793C44.5895 11.793 44.0882 11.9281 43.6553 12.1982C43.2223 12.4652 42.887 12.8493 42.6494 13.3506C42.415 13.8519 42.2979 14.4329 42.2979 15.0938V15.7773C42.2979 16.7865 42.5501 17.5921 43.0547 18.1943C43.5625 18.7965 44.2363 19.0977 45.0762 19.0977C45.8509 19.0977 46.471 18.8942 46.9365 18.4873ZM51.3799 13.6191C50.7386 13.6191 50.2178 13.8649 49.8174 14.3564V11.5H48.9141V19H49.8174V15.2354C49.9411 14.9814 50.1136 14.7764 50.335 14.6201C50.5563 14.4639 50.8135 14.3857 51.1064 14.3857C51.4678 14.3857 51.7331 14.4769 51.9023 14.6592C52.0749 14.8415 52.1628 15.123 52.166 15.5039V19H53.0693V15.5088C53.0596 14.249 52.4964 13.6191 51.3799 13.6191ZM54.4854 14.9131C54.2835 15.3265 54.1826 15.792 54.1826 16.3096V16.373C54.1826 17.1934 54.404 17.8525 54.8467 18.3506C55.2926 18.8486 55.8737 19.0977 56.5898 19.0977C57.0651 19.0977 57.485 18.9837 57.8496 18.7559C58.2174 18.528 58.499 18.2106 58.6943 17.8037C58.8929 17.3936 58.9922 16.9313 58.9922 16.417V16.3535C58.9922 15.5267 58.7692 14.8643 58.3232 14.3662C57.8805 13.8682 57.2995 13.6191 56.5801 13.6191C56.1146 13.6191 55.6995 13.7314 55.335 13.9561C54.9736 14.1807 54.6904 14.4997 54.4854 14.9131ZM55.4961 17.8281C55.2259 17.4733 55.0908 17.0029 55.0908 16.417C55.0908 15.7562 55.2275 15.2484 55.501 14.8936C55.7744 14.5387 56.1341 14.3613 56.5801 14.3613C57.0358 14.3613 57.4004 14.542 57.6738 14.9033C57.9505 15.2614 58.0889 15.7301 58.0889 16.3096C58.0889 16.9574 57.9538 17.4619 57.6836 17.8232C57.4134 18.1813 57.0488 18.3604 56.5898 18.3604C56.1341 18.3604 55.7695 18.1829 55.4961 17.8281ZM60.2031 19H61.1064V13.7168H60.2031V19ZM60.2617 11.9443C60.1738 12.0452 60.1299 12.1689 60.1299 12.3154C60.1299 12.4619 60.1738 12.584 60.2617 12.6816C60.3529 12.7793 60.4863 12.8281 60.6621 12.8281C60.8379 12.8281 60.9714 12.7793 61.0625 12.6816C61.1536 12.584 61.1992 12.4619 61.1992 12.3154C61.1992 12.1689 61.1536 12.0452 61.0625 11.9443C60.9714 11.8434 60.8379 11.793 60.6621 11.793C60.4863 11.793 60.3529 11.8434 60.2617 11.9443ZM65.5205 18.0674C65.2796 18.2627 64.998 18.3604 64.6758 18.3604C64.2103 18.3604 63.8522 18.196 63.6016 17.8672C63.3509 17.5384 63.2256 17.0697 63.2256 16.4609V16.29C63.2256 15.665 63.3509 15.1882 63.6016 14.8594C63.8555 14.5273 64.2119 14.3613 64.6709 14.3613C65.0127 14.3613 65.2992 14.472 65.5303 14.6934C65.7646 14.9115 65.8949 15.1914 65.9209 15.5332H66.7754C66.7493 14.9668 66.5394 14.5062 66.1455 14.1514C65.7549 13.7965 65.2633 13.6191 64.6709 13.6191C64.1891 13.6191 63.7708 13.7298 63.416 13.9512C63.0645 14.1725 62.7943 14.4834 62.6055 14.8838C62.4167 15.2842 62.3223 15.7415 62.3223 16.2559V16.4072C62.3223 17.2406 62.5339 17.8981 62.957 18.3799C63.3835 18.8584 63.9564 19.0977 64.6758 19.0977C65.0339 19.0977 65.3724 19.0163 65.6914 18.8535C66.0137 18.6908 66.2708 18.4727 66.4629 18.1992C66.6549 17.9258 66.7591 17.6377 66.7754 17.335H65.9209C65.8949 17.6279 65.7614 17.8721 65.5205 18.0674ZM68.2354 18.3945C68.6846 18.8633 69.2673 19.0977 69.9834 19.0977C70.8688 19.0977 71.5329 18.7575 71.9756 18.0771L71.4238 17.6475C71.2578 17.8623 71.0641 18.0348 70.8428 18.165C70.6214 18.2952 70.3512 18.3604 70.0322 18.3604C69.583 18.3604 69.2119 18.2008 68.9189 17.8818C68.6292 17.5596 68.4779 17.138 68.4648 16.6172H72.0439V16.2412C72.0439 15.3981 71.8535 14.7503 71.4727 14.2979C71.0918 13.8454 70.5579 13.6191 69.8711 13.6191C69.4512 13.6191 69.0605 13.7363 68.6992 13.9707C68.3411 14.2018 68.0612 14.5241 67.8594 14.9375C67.6608 15.3477 67.5615 15.8148 67.5615 16.3389V16.5049C67.5615 17.2926 67.7861 17.9225 68.2354 18.3945ZM68.9531 14.7617C69.2005 14.4948 69.5065 14.3613 69.8711 14.3613C70.2487 14.3613 70.5482 14.4883 70.7695 14.7422C70.9909 14.9928 71.1146 15.3477 71.1406 15.8066V15.875H68.4941C68.5527 15.3965 68.7057 15.0254 68.9531 14.7617ZM18 36C21.3137 36 24 33.3137 24 30C24 26.6863 21.3137 24 18 24C14.6863 24 12 26.6863 12 30C12 33.3137 14.6863 36 18 36ZM18 32C19.1046 32 20 31.1046 20 30C20 28.8954 19.1046 28 18 28C16.8954 28 16 28.8954 16 30C16 31.1046 16.8954 32 18 32ZM28 26H136V34H28V26ZM18 52C21.3137 52 24 49.3137 24 46C24 42.6863 21.3137 40 18 40C14.6863 40 12 42.6863 12 46C12 49.3137 14.6863 52 18 52ZM28 42H136V50H28V42ZM18 68C21.3137 68 24 65.3137 24 62C24 58.6863 21.3137 56 18 56C14.6863 56 12 58.6863 12 62C12 65.3137 14.6863 68 18 68ZM28 58H136V66H28V58Z" fill="#5D6B82"/>
</svg>
