<svg width="148" height="80" viewBox="0 0 148 80" fill="none" xmlns="http://www.w3.org/2000/svg">
<rect width="148" height="80" rx="2" fill="#D1D5DB"/>
<rect x="1" y="1" width="146" height="78" rx="1" fill="#FAFBFB"/>
<path fill-rule="evenodd" clip-rule="evenodd" d="M17.2197 34.4873C17.6885 34.0771 17.9668 33.4961 18.0547 32.7441H17.1123C17.0212 33.3301 16.8356 33.7419 16.5557 33.9795C16.279 34.2139 15.8802 34.3311 15.3594 34.3311C14.7799 34.3311 14.3291 34.1032 14.0068 33.6475C13.6846 33.1917 13.5234 32.5781 13.5234 31.8066V31.1182C13.5234 30.3011 13.6927 29.6712 14.0312 29.2285C14.373 28.7858 14.8434 28.5645 15.4424 28.5645C15.9307 28.5645 16.3099 28.6914 16.5801 28.9453C16.8535 29.1992 17.0309 29.6094 17.1123 30.1758H18.0547C17.9798 29.4303 17.7145 28.8477 17.2588 28.4277C16.8031 28.0046 16.1976 27.793 15.4424 27.793C14.8727 27.793 14.3714 27.9281 13.9385 28.1982C13.5055 28.4652 13.1702 28.8493 12.9326 29.3506C12.6982 29.8519 12.5811 30.4329 12.5811 31.0938V31.7773C12.5811 32.7865 12.8333 33.5921 13.3379 34.1943C13.8457 34.7965 14.5195 35.0977 15.3594 35.0977C16.1341 35.0977 16.7542 34.8942 17.2197 34.4873ZM21.6631 29.6191C21.0218 29.6191 20.501 29.8649 20.1006 30.3564V27.5H19.1973V35H20.1006V31.2354C20.2243 30.9814 20.3968 30.7764 20.6182 30.6201C20.8395 30.4639 21.0967 30.3857 21.3896 30.3857C21.751 30.3857 22.0163 30.4769 22.1855 30.6592C22.3581 30.8415 22.446 31.123 22.4492 31.5039V35H23.3525V31.5088C23.3428 30.249 22.7796 29.6191 21.6631 29.6191ZM25.1494 34.3945C25.5986 34.8633 26.1813 35.0977 26.8975 35.0977C27.7829 35.0977 28.4469 34.7575 28.8896 34.0771L28.3379 33.6475C28.1719 33.8623 27.9782 34.0348 27.7568 34.165C27.5355 34.2952 27.2653 34.3604 26.9463 34.3604C26.4971 34.3604 26.126 34.2008 25.833 33.8818C25.5433 33.5596 25.3919 33.138 25.3789 32.6172H28.958V32.2412C28.958 31.3981 28.7676 30.7503 28.3867 30.2979C28.0059 29.8454 27.472 29.6191 26.7852 29.6191C26.3652 29.6191 25.9746 29.7363 25.6133 29.9707C25.2552 30.2018 24.9753 30.5241 24.7734 30.9375C24.5749 31.3477 24.4756 31.8148 24.4756 32.3389V32.5049C24.4756 33.2926 24.7002 33.9225 25.1494 34.3945ZM25.8672 30.7617C26.1146 30.4948 26.4206 30.3613 26.7852 30.3613C27.1628 30.3613 27.4622 30.4883 27.6836 30.7422C27.9049 30.9928 28.0286 31.3477 28.0547 31.8066V31.875H25.4082C25.4668 31.3965 25.6198 31.0254 25.8672 30.7617ZM32.9717 34.0674C32.7308 34.2627 32.4492 34.3604 32.127 34.3604C31.6615 34.3604 31.3034 34.196 31.0527 33.8672C30.8021 33.5384 30.6768 33.0697 30.6768 32.4609V32.29C30.6768 31.665 30.8021 31.1882 31.0527 30.8594C31.3066 30.5273 31.6631 30.3613 32.1221 30.3613C32.4639 30.3613 32.7503 30.472 32.9814 30.6934C33.2158 30.9115 33.346 31.1914 33.3721 31.5332H34.2266C34.2005 30.9668 33.9906 30.5062 33.5967 30.1514C33.2061 29.7965 32.7145 29.6191 32.1221 29.6191C31.6403 29.6191 31.222 29.7298 30.8672 29.9512C30.5156 30.1725 30.2454 30.4834 30.0566 30.8838C29.8678 31.2842 29.7734 31.7415 29.7734 32.2559V32.4072C29.7734 33.2406 29.985 33.8981 30.4082 34.3799C30.8346 34.8584 31.4076 35.0977 32.127 35.0977C32.485 35.0977 32.8236 35.0163 33.1426 34.8535C33.4648 34.6908 33.722 34.4727 33.9141 34.1992C34.1061 33.9258 34.2103 33.6377 34.2266 33.335H33.3721C33.346 33.6279 33.2126 33.8721 32.9717 34.0674ZM36.1504 33.1445L36.7168 32.5537L38.5576 35H39.6172L37.3223 31.9238L39.3779 29.7168H38.2793L36.6338 31.4551L36.1504 32.0361V27.5H35.2471V35H36.1504V33.1445ZM44.2266 34.3652C44.5977 33.8737 44.7832 33.2243 44.7832 32.417V32.3389C44.7832 31.4958 44.5993 30.8317 44.2314 30.3467C43.8669 29.8617 43.3639 29.6191 42.7227 29.6191C42.0814 29.6191 41.5785 29.8454 41.2139 30.2979V27.5H40.3105V35H41.1406L41.1846 34.3896C41.5492 34.8617 42.0651 35.0977 42.7324 35.0977C43.3574 35.0977 43.8555 34.8535 44.2266 34.3652ZM43.5234 30.8887C43.7611 31.224 43.8799 31.6992 43.8799 32.3145C43.8799 32.9883 43.7594 33.4928 43.5186 33.8281C43.2777 34.1634 42.9408 34.3311 42.5078 34.3311C41.9219 34.3311 41.4906 34.0544 41.2139 33.501V31.2158C41.4743 30.6624 41.9023 30.3857 42.498 30.3857C42.944 30.3857 43.2858 30.5534 43.5234 30.8887ZM45.9893 30.9131C45.7874 31.3265 45.6865 31.792 45.6865 32.3096V32.373C45.6865 33.1934 45.9079 33.8525 46.3506 34.3506C46.7966 34.8486 47.3776 35.0977 48.0938 35.0977C48.569 35.0977 48.9889 34.9837 49.3535 34.7559C49.7214 34.528 50.0029 34.2106 50.1982 33.8037C50.3968 33.3936 50.4961 32.9313 50.4961 32.417V32.3535C50.4961 31.5267 50.2731 30.8643 49.8271 30.3662C49.3844 29.8682 48.8034 29.6191 48.084 29.6191C47.6185 29.6191 47.2034 29.7314 46.8389 29.9561C46.4775 30.1807 46.1943 30.4997 45.9893 30.9131ZM47 33.8281C46.7298 33.4733 46.5947 33.0029 46.5947 32.417C46.5947 31.7562 46.7314 31.2484 47.0049 30.8936C47.2783 30.5387 47.638 30.3613 48.084 30.3613C48.5397 30.3613 48.9043 30.542 49.1777 30.9033C49.4544 31.2614 49.5928 31.7301 49.5928 32.3096C49.5928 32.9574 49.4577 33.4619 49.1875 33.8232C48.9173 34.1813 48.5527 34.3604 48.0938 34.3604C47.638 34.3604 47.2734 34.1829 47 33.8281ZM54.4658 29.7168L53.2939 31.6455L52.1367 29.7168H51.0918L52.8203 32.3291L51.0381 35H52.0879L53.3086 33.0225L54.5293 35H55.5742L53.792 32.3291L55.5205 29.7168H54.4658ZM14 40C12.8954 40 12 40.8954 12 42V50C12 51.1046 12.8954 52 14 52H22C23.1046 52 24 51.1046 24 50V42C24 40.8954 23.1046 40 22 40H14ZM21.7295 44.6839C22.1073 44.281 22.0869 43.6482 21.6839 43.2705C21.281 42.8927 20.6482 42.9131 20.2705 43.3161L17.1865 46.6056L15.6644 45.2526C15.2516 44.8857 14.6195 44.9229 14.2526 45.3356C13.8857 45.7484 13.9229 46.3805 14.3356 46.7474L16.5856 48.7474C16.9907 49.1075 17.6089 49.0793 17.9795 48.6839L21.7295 44.6839ZM28 42H136V50H28V42Z" fill="#5D6B82"/>
</svg>
