<svg width="148" height="80" viewBox="0 0 148 80" fill="none" xmlns="http://www.w3.org/2000/svg">
<rect width="148" height="80" rx="2" fill="#D1D5DB"/>
<path d="M146 1H2C1.44772 1 1 1.44771 1 2V78C1 78.5523 1.44771 79 2 79H146C146.552 79 147 78.5523 147 78V2C147 1.44772 146.552 1 146 1Z" fill="#FAFBFB"/>
<path fill-rule="evenodd" clip-rule="evenodd" d="M12.8252 21.8906V29H14.793C15.431 28.9935 15.9893 28.8551 16.4678 28.585C16.9495 28.3148 17.319 27.9274 17.5762 27.4229C17.8366 26.9183 17.9668 26.3307 17.9668 25.6602V25.2061C17.9635 24.5518 17.8317 23.9723 17.5713 23.4678C17.3141 22.9632 16.9479 22.5742 16.4727 22.3008C15.9974 22.0273 15.4505 21.8906 14.832 21.8906H12.8252ZM13.7627 28.2334V22.6621H14.8564C15.5531 22.6686 16.0902 22.8965 16.4678 23.3457C16.8486 23.7917 17.0391 24.4183 17.0391 25.2256V25.6406C17.0391 26.4707 16.8372 27.1104 16.4336 27.5596C16.0332 28.0088 15.4717 28.2334 14.749 28.2334H13.7627ZM21.3555 24.4932C21.515 24.4932 21.6631 24.5046 21.7998 24.5273V23.6875C21.7087 23.6419 21.5752 23.6191 21.3994 23.6191C20.8558 23.6191 20.4359 23.8551 20.1396 24.3271L20.125 23.7168H19.2461V29H20.1494V25.25C20.361 24.7454 20.763 24.4932 21.3555 24.4932ZM22.6006 24.9131C22.3988 25.3265 22.2979 25.792 22.2979 26.3096V26.373C22.2979 27.1934 22.5192 27.8525 22.9619 28.3506C23.4079 28.8486 23.9889 29.0977 24.7051 29.0977C25.1803 29.0977 25.6003 28.9837 25.9648 28.7559C26.3327 28.528 26.6143 28.2106 26.8096 27.8037C27.0081 27.3936 27.1074 26.9313 27.1074 26.417V26.3535C27.1074 25.5267 26.8844 24.8643 26.4385 24.3662C25.9958 23.8682 25.4147 23.6191 24.6953 23.6191C24.2298 23.6191 23.8148 23.7314 23.4502 23.9561C23.0889 24.1807 22.8057 24.4997 22.6006 24.9131ZM23.6113 27.8281C23.3411 27.4733 23.2061 27.0029 23.2061 26.417C23.2061 25.7562 23.3428 25.2484 23.6162 24.8936C23.8896 24.5387 24.2493 24.3613 24.6953 24.3613C25.151 24.3613 25.5156 24.542 25.7891 24.9033C26.0658 25.2614 26.2041 25.7301 26.2041 26.3096C26.2041 26.9574 26.069 27.4619 25.7988 27.8232C25.5286 28.1813 25.1641 28.3604 24.7051 28.3604C24.2493 28.3604 23.8848 28.1829 23.6113 27.8281ZM32.1514 28.3604C32.5192 27.8688 32.7031 27.221 32.7031 26.417V26.334C32.7031 25.4811 32.5176 24.8154 32.1465 24.3369C31.7786 23.8584 31.2773 23.6191 30.6426 23.6191C29.9883 23.6191 29.4772 23.847 29.1094 24.3027L29.0654 23.7168H28.2402V31.0312H29.1436V28.4873C29.5114 28.8942 30.016 29.0977 30.6572 29.0977C31.2855 29.0977 31.7835 28.8519 32.1514 28.3604ZM31.4189 24.9033C31.6729 25.2484 31.7998 25.7188 31.7998 26.3145C31.7998 26.9915 31.6712 27.5026 31.4141 27.8477C31.1602 28.1895 30.8167 28.3604 30.3838 28.3604C29.8271 28.3604 29.4137 28.1195 29.1436 27.6377V25.1133C29.417 24.6283 29.8271 24.3857 30.374 24.3857C30.8167 24.3857 31.165 24.5583 31.4189 24.9033ZM34.2119 24.3613C33.8278 24.8529 33.6357 25.5039 33.6357 26.3145V26.3828C33.6357 27.1901 33.8278 27.8444 34.2119 28.3457C34.5993 28.847 35.099 29.0977 35.7109 29.0977C36.3555 29.0977 36.8584 28.8763 37.2197 28.4336L37.2637 29H38.0938V21.5H37.1904V24.2539C36.8291 23.8307 36.3392 23.6191 35.7207 23.6191C35.099 23.6191 34.596 23.8665 34.2119 24.3613ZM34.9102 27.8232C34.6628 27.4847 34.5391 27.016 34.5391 26.417C34.5391 25.7464 34.6628 25.2402 34.9102 24.8984C35.1576 24.5566 35.5026 24.3857 35.9453 24.3857C36.5052 24.3857 36.9202 24.6348 37.1904 25.1328V27.5596C36.9268 28.0739 36.5085 28.3311 35.9355 28.3311C35.4993 28.3311 35.1576 28.1618 34.9102 27.8232ZM39.5635 24.9131C39.3617 25.3265 39.2607 25.792 39.2607 26.3096V26.373C39.2607 27.1934 39.4821 27.8525 39.9248 28.3506C40.3708 28.8486 40.9518 29.0977 41.668 29.0977C42.1432 29.0977 42.5632 28.9837 42.9277 28.7559C43.2956 28.528 43.5771 28.2106 43.7725 27.8037C43.971 27.3936 44.0703 26.9313 44.0703 26.417V26.3535C44.0703 25.5267 43.8473 24.8643 43.4014 24.3662C42.9587 23.8682 42.3776 23.6191 41.6582 23.6191C41.1927 23.6191 40.7777 23.7314 40.4131 23.9561C40.0518 24.1807 39.7686 24.4997 39.5635 24.9131ZM40.5742 27.8281C40.304 27.4733 40.1689 27.0029 40.1689 26.417C40.1689 25.7562 40.3057 25.2484 40.5791 24.8936C40.8525 24.5387 41.2122 24.3613 41.6582 24.3613C42.1139 24.3613 42.4785 24.542 42.752 24.9033C43.0286 25.2614 43.167 25.7301 43.167 26.3096C43.167 26.9574 43.0319 27.4619 42.7617 27.8232C42.4915 28.1813 42.127 28.3604 41.668 28.3604C41.2122 28.3604 40.8477 28.1829 40.5742 27.8281ZM50.8965 23.7168L49.8809 27.7549L48.626 23.7168H47.8984L46.668 27.6719L45.6279 23.7168H44.7295L46.2627 29H46.9951L48.2451 24.9961L49.5293 29H50.2617L51.7998 23.7168H50.8965ZM53.6064 24.3809L53.5771 23.7168H52.7227V29H53.626V25.2354C53.7497 24.9814 53.9222 24.7764 54.1436 24.6201C54.3649 24.4639 54.6221 24.3857 54.915 24.3857C55.2764 24.3857 55.5417 24.4769 55.7109 24.6592C55.8835 24.8415 55.9714 25.123 55.9746 25.5039V29H56.8779V25.5088C56.8682 24.249 56.305 23.6191 55.1885 23.6191C54.5374 23.6191 54.0101 23.873 53.6064 24.3809ZM12 34H136V50H12V34ZM124 44L120 40L128 40L124 44Z" fill="#5D6B82"/>
</svg>
