<svg width="148" height="80" viewBox="0 0 148 80" fill="none" xmlns="http://www.w3.org/2000/svg">
<rect width="148" height="80" rx="2" fill="#D1D5DB"/>
<path d="M146 1H2C1.44772 1 1 1.44771 1 2V78C1 78.5523 1.44771 79 2 79H146C146.552 79 147 78.5523 147 78V2C147 1.44772 146.552 1 146 1Z" fill="#FAFBFB"/>
<path fill-rule="evenodd" clip-rule="evenodd" d="M17.3467 29H18.2891V21.8906H17.3564V27.3936L13.7676 21.8906H12.8252V29H13.7676V23.5215L17.3467 29ZM21.5264 29.0977C22.2067 29.0977 22.7227 28.891 23.0742 28.4775L23.0938 29H23.9531V23.7168H23.0498V27.5596C22.8219 28.0739 22.363 28.3311 21.6729 28.3311C21.0218 28.3311 20.6963 27.9307 20.6963 27.1299V23.7168H19.793V27.1543C19.7962 27.7956 19.9443 28.2806 20.2373 28.6094C20.5335 28.9349 20.9632 29.0977 21.5264 29.0977ZM26.2041 24.3027L26.1797 23.7168H25.3252V29H26.2285V25.1426C26.4466 24.638 26.8519 24.3857 27.4443 24.3857C28.1963 24.3857 28.5723 24.7699 28.5723 25.5381V29H29.4805V25.4941C29.5163 25.1556 29.6449 24.887 29.8662 24.6885C30.0876 24.4867 30.3659 24.3857 30.7012 24.3857C31.1081 24.3857 31.3978 24.4801 31.5703 24.6689C31.7428 24.8545 31.8291 25.1361 31.8291 25.5137V29H32.7324V25.46C32.7129 24.2327 32.1237 23.6191 30.9648 23.6191C30.5807 23.6191 30.2471 23.6973 29.9639 23.8535C29.6839 24.0098 29.4561 24.2148 29.2803 24.4688C29.0133 23.9023 28.5104 23.6191 27.7715 23.6191C27.1139 23.6191 26.5915 23.847 26.2041 24.3027ZM38.0156 28.3652C38.3867 27.8737 38.5723 27.2243 38.5723 26.417V26.3389C38.5723 25.4958 38.3883 24.8317 38.0205 24.3467C37.6559 23.8617 37.153 23.6191 36.5117 23.6191C35.8704 23.6191 35.3675 23.8454 35.0029 24.2979V21.5H34.0996V29H34.9297L34.9736 28.3896C35.3382 28.8617 35.8542 29.0977 36.5215 29.0977C37.1465 29.0977 37.6445 28.8535 38.0156 28.3652ZM37.3125 24.8887C37.5501 25.224 37.6689 25.6992 37.6689 26.3145C37.6689 26.9883 37.5485 27.4928 37.3076 27.8281C37.0667 28.1634 36.7298 28.3311 36.2969 28.3311C35.7109 28.3311 35.2796 28.0544 35.0029 27.501V25.2158C35.2633 24.6624 35.6914 24.3857 36.2871 24.3857C36.7331 24.3857 37.0749 24.5534 37.3125 24.8887ZM40.1592 28.3945C40.6084 28.8633 41.1911 29.0977 41.9072 29.0977C42.7926 29.0977 43.4567 28.7575 43.8994 28.0771L43.3477 27.6475C43.1816 27.8623 42.988 28.0348 42.7666 28.165C42.5452 28.2952 42.2751 28.3604 41.9561 28.3604C41.5068 28.3604 41.1357 28.2008 40.8428 27.8818C40.5531 27.5596 40.4017 27.138 40.3887 26.6172H43.9678V26.2412C43.9678 25.3981 43.7773 24.7503 43.3965 24.2979C43.0156 23.8454 42.4818 23.6191 41.7949 23.6191C41.375 23.6191 40.9844 23.7363 40.623 23.9707C40.265 24.2018 39.985 24.5241 39.7832 24.9375C39.5846 25.3477 39.4854 25.8148 39.4854 26.3389V26.5049C39.4854 27.2926 39.71 27.9225 40.1592 28.3945ZM40.877 24.7617C41.1243 24.4948 41.4303 24.3613 41.7949 24.3613C42.1725 24.3613 42.472 24.4883 42.6934 24.7422C42.9147 24.9928 43.0384 25.3477 43.0645 25.8066V25.875H40.418C40.4766 25.3965 40.6296 25.0254 40.877 24.7617ZM47.127 24.4932C47.2865 24.4932 47.4346 24.5046 47.5713 24.5273V23.6875C47.4801 23.6419 47.3467 23.6191 47.1709 23.6191C46.6273 23.6191 46.2074 23.8551 45.9111 24.3271L45.8965 23.7168H45.0176V29H45.9209V25.25C46.1325 24.7454 46.5345 24.4932 47.127 24.4932ZM12 34H136V50H12V34ZM113.289 42.2803C113.289 42.7327 113.237 43.1348 113.133 43.4863C113.029 43.8346 112.879 44.1292 112.684 44.3701C112.488 44.6077 112.249 44.7884 111.966 44.9121C111.683 45.0358 111.359 45.0977 110.994 45.0977C110.633 45.0977 110.309 45.0358 110.022 44.9121C109.739 44.7884 109.498 44.6077 109.3 44.3701C109.101 44.1292 108.948 43.8346 108.841 43.4863C108.737 43.1348 108.685 42.7327 108.685 42.2803V40.6152C108.685 40.1628 108.737 39.7624 108.841 39.4141C108.945 39.0625 109.095 38.7663 109.29 38.5254C109.489 38.2845 109.729 38.1022 110.013 37.9785C110.299 37.8516 110.623 37.7881 110.984 37.7881C111.349 37.7881 111.673 37.8516 111.956 37.9785C112.243 38.1022 112.483 38.2845 112.679 38.5254C112.877 38.7663 113.029 39.0625 113.133 39.4141C113.237 39.7624 113.289 40.1628 113.289 40.6152V42.2803ZM109.593 42.0996L112.361 39.9756C112.309 39.5036 112.171 39.1455 111.946 38.9014C111.725 38.654 111.404 38.5303 110.984 38.5303C110.509 38.5303 110.158 38.6914 109.93 39.0137C109.705 39.3327 109.593 39.7998 109.593 40.415V42.0996ZM112.381 40.8398L109.617 42.9541C109.673 43.4131 109.814 43.763 110.042 44.0039C110.27 44.2448 110.587 44.3652 110.994 44.3652C111.473 44.3652 111.823 44.2025 112.044 43.877C112.269 43.5514 112.381 43.0827 112.381 42.4707V40.8398ZM119.295 42.2803C119.295 42.7327 119.243 43.1348 119.139 43.4863C119.035 43.8346 118.885 44.1292 118.689 44.3701C118.494 44.6077 118.255 44.7884 117.972 44.9121C117.688 45.0358 117.365 45.0977 117 45.0977C116.639 45.0977 116.315 45.0358 116.028 44.9121C115.745 44.7884 115.504 44.6077 115.306 44.3701C115.107 44.1292 114.954 43.8346 114.847 43.4863C114.743 43.1348 114.69 42.7327 114.69 42.2803V40.6152C114.69 40.1628 114.743 39.7624 114.847 39.4141C114.951 39.0625 115.101 38.7663 115.296 38.5254C115.494 38.2845 115.735 38.1022 116.019 37.9785C116.305 37.8516 116.629 37.7881 116.99 37.7881C117.355 37.7881 117.679 37.8516 117.962 37.9785C118.248 38.1022 118.489 38.2845 118.685 38.5254C118.883 38.7663 119.035 39.0625 119.139 39.4141C119.243 39.7624 119.295 40.1628 119.295 40.6152V42.2803ZM115.599 42.0996L118.367 39.9756C118.315 39.5036 118.177 39.1455 117.952 38.9014C117.731 38.654 117.41 38.5303 116.99 38.5303C116.515 38.5303 116.163 38.6914 115.936 39.0137C115.711 39.3327 115.599 39.7998 115.599 40.415V42.0996ZM118.387 40.8398L115.623 42.9541C115.678 43.4131 115.82 43.763 116.048 44.0039C116.276 44.2448 116.593 44.3652 117 44.3652C117.479 44.3652 117.828 44.2025 118.05 43.877C118.274 43.5514 118.387 43.0827 118.387 42.4707V40.8398ZM125.301 42.2803C125.301 42.7327 125.249 43.1348 125.145 43.4863C125.04 43.8346 124.891 44.1292 124.695 44.3701C124.5 44.6077 124.261 44.7884 123.978 44.9121C123.694 45.0358 123.37 45.0977 123.006 45.0977C122.645 45.0977 122.321 45.0358 122.034 44.9121C121.751 44.7884 121.51 44.6077 121.312 44.3701C121.113 44.1292 120.96 43.8346 120.853 43.4863C120.748 43.1348 120.696 42.7327 120.696 42.2803V40.6152C120.696 40.1628 120.748 39.7624 120.853 39.4141C120.957 39.0625 121.106 38.7663 121.302 38.5254C121.5 38.2845 121.741 38.1022 122.024 37.9785C122.311 37.8516 122.635 37.7881 122.996 37.7881C123.361 37.7881 123.685 37.8516 123.968 37.9785C124.254 38.1022 124.495 38.2845 124.69 38.5254C124.889 38.7663 125.04 39.0625 125.145 39.4141C125.249 39.7624 125.301 40.1628 125.301 40.6152V42.2803ZM121.604 42.0996L124.373 39.9756C124.321 39.5036 124.183 39.1455 123.958 38.9014C123.737 38.654 123.416 38.5303 122.996 38.5303C122.521 38.5303 122.169 38.6914 121.941 39.0137C121.717 39.3327 121.604 39.7998 121.604 40.415V42.0996ZM124.393 40.8398L121.629 42.9541C121.684 43.4131 121.826 43.763 122.054 44.0039C122.282 44.2448 122.599 44.3652 123.006 44.3652C123.484 44.3652 123.834 44.2025 124.056 43.877C124.28 43.5514 124.393 43.0827 124.393 42.4707V40.8398ZM131.307 42.2803C131.307 42.7327 131.255 43.1348 131.15 43.4863C131.046 43.8346 130.896 44.1292 130.701 44.3701C130.506 44.6077 130.267 44.7884 129.983 44.9121C129.7 45.0358 129.376 45.0977 129.012 45.0977C128.65 45.0977 128.326 45.0358 128.04 44.9121C127.757 44.7884 127.516 44.6077 127.317 44.3701C127.119 44.1292 126.966 43.8346 126.858 43.4863C126.754 43.1348 126.702 42.7327 126.702 42.2803V40.6152C126.702 40.1628 126.754 39.7624 126.858 39.4141C126.963 39.0625 127.112 38.7663 127.308 38.5254C127.506 38.2845 127.747 38.1022 128.03 37.9785C128.317 37.8516 128.641 37.7881 129.002 37.7881C129.367 37.7881 129.69 37.8516 129.974 37.9785C130.26 38.1022 130.501 38.2845 130.696 38.5254C130.895 38.7663 131.046 39.0625 131.15 39.4141C131.255 39.7624 131.307 40.1628 131.307 40.6152V42.2803ZM127.61 42.0996L130.379 39.9756C130.327 39.5036 130.188 39.1455 129.964 38.9014C129.743 38.654 129.422 38.5303 129.002 38.5303C128.527 38.5303 128.175 38.6914 127.947 39.0137C127.723 39.3327 127.61 39.7998 127.61 40.415V42.0996ZM130.398 40.8398L127.635 42.9541C127.69 43.4131 127.832 43.763 128.06 44.0039C128.287 44.2448 128.605 44.3652 129.012 44.3652C129.49 44.3652 129.84 44.2025 130.062 43.877C130.286 43.5514 130.398 43.0827 130.398 42.4707V40.8398Z" fill="#5D6B82"/>
</svg>
