<svg width="148" height="80" viewBox="0 0 148 80" fill="none" xmlns="http://www.w3.org/2000/svg">
<rect width="148" height="80" rx="2" fill="#D1D5DB"/>
<path d="M146 1H2C1.44772 1 1 1.44771 1 2V78C1 78.5523 1.44771 79 2 79H146C146.552 79 147 78.5523 147 78V2C147 1.44772 146.552 1 146 1Z" fill="#FAFBFB"/>
<path fill-rule="evenodd" clip-rule="evenodd" d="M12.8252 21.8906V29H14.793C15.431 28.9935 15.9893 28.8551 16.4678 28.585C16.9495 28.3148 17.319 27.9274 17.5762 27.4229C17.8366 26.9183 17.9668 26.3307 17.9668 25.6602V25.2061C17.9635 24.5518 17.8317 23.9723 17.5713 23.4678C17.3141 22.9632 16.9479 22.5742 16.4727 22.3008C15.9974 22.0273 15.4505 21.8906 14.832 21.8906H12.8252ZM13.7627 28.2334V22.6621H14.8564C15.5531 22.6686 16.0902 22.8965 16.4678 23.3457C16.8486 23.7917 17.0391 24.4183 17.0391 25.2256V25.6406C17.0391 26.4707 16.8372 27.1104 16.4336 27.5596C16.0332 28.0088 15.4717 28.2334 14.749 28.2334H13.7627ZM22.3809 28.4434C22.4134 28.7103 22.4557 28.8958 22.5078 29H23.4551V28.9219C23.3314 28.6354 23.2695 28.2497 23.2695 27.7646V25.333C23.2565 24.7992 23.0775 24.3809 22.7324 24.0781C22.3874 23.7721 21.9105 23.6191 21.3018 23.6191C20.9176 23.6191 20.5645 23.6908 20.2422 23.834C19.9232 23.9772 19.6693 24.1725 19.4805 24.4199C19.2949 24.6641 19.2021 24.918 19.2021 25.1816H20.1104C20.1104 24.9505 20.2194 24.7536 20.4375 24.5908C20.6556 24.4281 20.9258 24.3467 21.248 24.3467C21.6159 24.3467 21.8942 24.4411 22.083 24.6299C22.2718 24.8154 22.3662 25.0661 22.3662 25.3818V25.7969H21.4873C20.7288 25.7969 20.1396 25.9499 19.7197 26.2559C19.3031 26.5586 19.0947 26.985 19.0947 27.5352C19.0947 27.9876 19.2607 28.362 19.5928 28.6582C19.9281 28.9512 20.3561 29.0977 20.877 29.0977C21.4596 29.0977 21.9609 28.8796 22.3809 28.4434ZM21.8145 28.0918C21.5605 28.2383 21.292 28.3115 21.0088 28.3115C20.7126 28.3115 20.4701 28.2318 20.2812 28.0723C20.0924 27.9128 19.998 27.6914 19.998 27.4082C19.998 26.7604 20.5514 26.4365 21.6582 26.4365H22.3662V27.5205C22.2523 27.7549 22.0684 27.9453 21.8145 28.0918ZM25.9111 23.7168V22.4375H25.0078V23.7168H24.0459V24.415H25.0078V27.6914C25.0078 28.1406 25.1104 28.4873 25.3154 28.7314C25.5205 28.9756 25.8249 29.0977 26.2285 29.0977C26.4531 29.0977 26.6842 29.0651 26.9219 29V28.2676C26.7396 28.3066 26.5964 28.3262 26.4922 28.3262C26.2806 28.3262 26.1309 28.2741 26.043 28.1699C25.9551 28.0625 25.9111 27.903 25.9111 27.6914V24.415H26.8975V23.7168H25.9111ZM28.4014 28.3945C28.8506 28.8633 29.4333 29.0977 30.1494 29.0977C31.0348 29.0977 31.6989 28.7575 32.1416 28.0771L31.5898 27.6475C31.4238 27.8623 31.2301 28.0348 31.0088 28.165C30.7874 28.2952 30.5173 28.3604 30.1982 28.3604C29.749 28.3604 29.3779 28.2008 29.085 27.8818C28.7952 27.5596 28.6439 27.138 28.6309 26.6172H32.21V26.2412C32.21 25.3981 32.0195 24.7503 31.6387 24.2979C31.2578 23.8454 30.724 23.6191 30.0371 23.6191C29.6172 23.6191 29.2266 23.7363 28.8652 23.9707C28.5072 24.2018 28.2272 24.5241 28.0254 24.9375C27.8268 25.3477 27.7275 25.8148 27.7275 26.3389V26.5049C27.7275 27.2926 27.9521 27.9225 28.4014 28.3945ZM29.1191 24.7617C29.3665 24.4948 29.6725 24.3613 30.0371 24.3613C30.4147 24.3613 30.7142 24.4883 30.9355 24.7422C31.1569 24.9928 31.2806 25.3477 31.3066 25.8066V25.875H28.6602C28.7188 25.3965 28.8717 25.0254 29.1191 24.7617ZM136 34H12V50H136V34ZM17.2891 40.2148L17.2646 39.7168H16.4541V45H17.3135V40.7959C17.3623 40.6722 17.4388 40.5729 17.543 40.498C17.6471 40.4232 17.7936 40.3857 17.9824 40.3857C18.1875 40.3825 18.3372 40.4378 18.4316 40.5518C18.526 40.6657 18.5732 40.8285 18.5732 41.04V45H19.4326V40.9326C19.4424 40.861 19.4619 40.7926 19.4912 40.7275C19.5205 40.6592 19.5612 40.6006 19.6133 40.5518C19.6654 40.4997 19.7305 40.459 19.8086 40.4297C19.8867 40.4004 19.9795 40.3857 20.0869 40.3857C20.4938 40.3825 20.6973 40.6022 20.6973 41.0449V45H21.5566V41.0547C21.5566 40.5729 21.4525 40.2132 21.2441 39.9756C21.0358 39.738 20.738 39.6191 20.3506 39.6191C20.1064 39.6224 19.8981 39.6761 19.7256 39.7803C19.5563 39.8812 19.4196 40.0163 19.3154 40.1855C19.1527 39.8079 18.8288 39.6191 18.3438 39.6191C18.0964 39.6224 17.8848 39.6761 17.709 39.7803C17.5365 39.8844 17.3965 40.0293 17.2891 40.2148ZM23.2949 40.2148L23.2705 39.7168H22.46V45H23.3193V40.7959C23.3682 40.6722 23.4447 40.5729 23.5488 40.498C23.653 40.4232 23.7995 40.3857 23.9883 40.3857C24.1934 40.3825 24.3431 40.4378 24.4375 40.5518C24.5319 40.6657 24.5791 40.8285 24.5791 41.04V45H25.4385V40.9326C25.4482 40.861 25.4678 40.7926 25.4971 40.7275C25.5264 40.6592 25.5671 40.6006 25.6191 40.5518C25.6712 40.4997 25.7363 40.459 25.8145 40.4297C25.8926 40.4004 25.9854 40.3857 26.0928 40.3857C26.4997 40.3825 26.7031 40.6022 26.7031 41.0449V45H27.5625V41.0547C27.5625 40.5729 27.4583 40.2132 27.25 39.9756C27.0417 39.738 26.7438 39.6191 26.3564 39.6191C26.1123 39.6224 25.904 39.6761 25.7314 39.7803C25.5622 39.8812 25.4255 40.0163 25.3213 40.1855C25.1585 39.8079 24.8346 39.6191 24.3496 39.6191C24.1022 39.6224 23.8906 39.6761 23.7148 39.7803C23.5423 39.8844 23.4023 40.0293 23.2949 40.2148ZM29.2422 45.6104H30.0527L33.0166 37.8906H32.2109L29.2422 45.6104ZM34.8428 41.2305C34.7451 41.5592 34.6963 41.9206 34.6963 42.3145V42.417C34.6963 42.7946 34.7467 43.1478 34.8477 43.4766C34.9486 43.8021 35.0902 44.0853 35.2725 44.3262C35.4548 44.5671 35.6745 44.7559 35.9316 44.8926C36.1921 45.0293 36.4818 45.0977 36.8008 45.0977C37.1263 45.0977 37.4111 45.0423 37.6553 44.9316C37.8994 44.821 38.1094 44.6582 38.2852 44.4434L38.3242 45H39.1543V37.5H38.251V40.2393C38.0785 40.0374 37.8734 39.8844 37.6357 39.7803C37.4014 39.6729 37.1263 39.6191 36.8105 39.6191C36.4883 39.6191 36.1969 39.6859 35.9365 39.8193C35.6761 39.9528 35.4531 40.1383 35.2676 40.376C35.0853 40.6136 34.9437 40.8984 34.8428 41.2305ZM35.6826 43.1494C35.6273 42.9183 35.5996 42.6742 35.5996 42.417V42.3145C35.5996 42.0573 35.6273 41.8132 35.6826 41.582C35.738 41.3477 35.8226 41.1426 35.9365 40.9668C36.0537 40.7878 36.2018 40.6462 36.3809 40.542C36.5632 40.4378 36.7812 40.3857 37.0352 40.3857C37.3314 40.3857 37.5788 40.4557 37.7773 40.5957C37.9759 40.7324 38.1338 40.9082 38.251 41.123V43.5742C38.1924 43.6882 38.124 43.7923 38.0459 43.8867C37.9678 43.9779 37.8783 44.0576 37.7773 44.126C37.6764 44.1911 37.5641 44.2415 37.4404 44.2773C37.3167 44.3132 37.1784 44.3311 37.0254 44.3311C36.7747 44.3311 36.5599 44.2806 36.3809 44.1797C36.2018 44.0755 36.0537 43.9355 35.9365 43.7598C35.8226 43.584 35.738 43.3805 35.6826 43.1494ZM40.8486 41.2305C40.751 41.5592 40.7021 41.9206 40.7021 42.3145V42.417C40.7021 42.7946 40.7526 43.1478 40.8535 43.4766C40.9544 43.8021 41.096 44.0853 41.2783 44.3262C41.4606 44.5671 41.6803 44.7559 41.9375 44.8926C42.1979 45.0293 42.4876 45.0977 42.8066 45.0977C43.1322 45.0977 43.417 45.0423 43.6611 44.9316C43.9053 44.821 44.1152 44.6582 44.291 44.4434L44.3301 45H45.1602V37.5H44.2568V40.2393C44.0843 40.0374 43.8792 39.8844 43.6416 39.7803C43.4072 39.6729 43.1322 39.6191 42.8164 39.6191C42.4941 39.6191 42.2028 39.6859 41.9424 39.8193C41.682 39.9528 41.459 40.1383 41.2734 40.376C41.0911 40.6136 40.9495 40.8984 40.8486 41.2305ZM41.6885 43.1494C41.6331 42.9183 41.6055 42.6742 41.6055 42.417V42.3145C41.6055 42.0573 41.6331 41.8132 41.6885 41.582C41.7438 41.3477 41.8285 41.1426 41.9424 40.9668C42.0596 40.7878 42.2077 40.6462 42.3867 40.542C42.569 40.4378 42.7871 40.3857 43.041 40.3857C43.3372 40.3857 43.5846 40.4557 43.7832 40.5957C43.9818 40.7324 44.1396 40.9082 44.2568 41.123V43.5742C44.1982 43.6882 44.1299 43.7923 44.0518 43.8867C43.9736 43.9779 43.8841 44.0576 43.7832 44.126C43.6823 44.1911 43.57 44.2415 43.4463 44.2773C43.3226 44.3132 43.1842 44.3311 43.0312 44.3311C42.7806 44.3311 42.5658 44.2806 42.3867 44.1797C42.2077 44.0755 42.0596 43.9355 41.9424 43.7598C41.8285 43.584 41.7438 43.3805 41.6885 43.1494ZM47.2598 45.6104H48.0703L51.0342 37.8906H50.2285L47.2598 45.6104ZM55.0625 43.7646L54.8281 43.125L53.3779 39.7168H52.3672L54.6426 44.751L54.2812 45.4541C54.2487 45.5192 54.2031 45.6022 54.1445 45.7031C54.0892 45.804 54.0208 45.9017 53.9395 45.9961C53.8613 46.0905 53.7702 46.1719 53.666 46.2402C53.5651 46.3086 53.4528 46.3428 53.3291 46.3428C53.3063 46.3428 53.2754 46.3411 53.2363 46.3379C53.1973 46.3379 53.1566 46.3363 53.1143 46.333C53.0911 46.3312 53.0685 46.3294 53.0463 46.3277C53.0279 46.3262 53.0099 46.3247 52.9922 46.3232C52.9531 46.32 52.9222 46.3184 52.8994 46.3184L52.7529 47.0557C52.7822 47.0622 52.8197 47.0703 52.8652 47.0801C52.9108 47.0898 52.9596 47.098 53.0117 47.1045C53.0638 47.1143 53.1159 47.1208 53.168 47.124C53.2201 47.1305 53.2673 47.1338 53.3096 47.1338C53.5472 47.1338 53.7572 47.0898 53.9395 47.002C54.1217 46.9141 54.2812 46.805 54.418 46.6748C54.5547 46.5446 54.6702 46.403 54.7646 46.25C54.8623 46.097 54.9421 45.9521 55.0039 45.8154L57.6846 39.7168H56.6738L55.0625 43.7646ZM61.0684 43.7646L60.834 43.125L59.3838 39.7168H58.373L60.6484 44.751L60.2871 45.4541C60.2546 45.5192 60.209 45.6022 60.1504 45.7031C60.0951 45.804 60.0267 45.9017 59.9453 45.9961C59.8672 46.0905 59.776 46.1719 59.6719 46.2402C59.571 46.3086 59.4587 46.3428 59.335 46.3428C59.3122 46.3428 59.2812 46.3411 59.2422 46.3379C59.2031 46.3379 59.1624 46.3363 59.1201 46.333C59.0778 46.3298 59.0371 46.3265 58.998 46.3232C58.959 46.32 58.9281 46.3184 58.9053 46.3184L58.7588 47.0557C58.7881 47.0622 58.8255 47.0703 58.8711 47.0801C58.9167 47.0898 58.9655 47.098 59.0176 47.1045C59.0697 47.1143 59.1217 47.1208 59.1738 47.124C59.2259 47.1305 59.2731 47.1338 59.3154 47.1338C59.5531 47.1338 59.763 47.0898 59.9453 47.002C60.1276 46.9141 60.2871 46.805 60.4238 46.6748C60.5605 46.5446 60.6761 46.403 60.7705 46.25C60.8682 46.097 60.9479 45.9521 61.0098 45.8154L63.6904 39.7168H62.6797L61.0684 43.7646ZM67.0742 43.7646L66.8398 43.125L65.3896 39.7168H64.3789L66.6543 44.751L66.293 45.4541C66.2604 45.5192 66.2148 45.6022 66.1562 45.7031C66.1009 45.804 66.0326 45.9017 65.9512 45.9961C65.873 46.0905 65.7819 46.1719 65.6777 46.2402C65.5768 46.3086 65.4645 46.3428 65.3408 46.3428C65.318 46.3428 65.2871 46.3411 65.248 46.3379C65.209 46.3379 65.1683 46.3363 65.126 46.333C65.1023 46.3312 65.0791 46.3294 65.0564 46.3275C65.0386 46.3261 65.0211 46.3247 65.0039 46.3232C64.9648 46.32 64.9339 46.3184 64.9111 46.3184L64.7646 47.0557C64.7939 47.0622 64.8314 47.0703 64.877 47.0801C64.9225 47.0898 64.9714 47.098 65.0234 47.1045C65.0755 47.1143 65.1276 47.1208 65.1797 47.124C65.2318 47.1305 65.279 47.1338 65.3213 47.1338C65.5589 47.1338 65.7689 47.0898 65.9512 47.002C66.1335 46.9141 66.293 46.805 66.4297 46.6748C66.5664 46.5446 66.682 46.403 66.7764 46.25C66.874 46.097 66.9538 45.9521 67.0156 45.8154L69.6963 39.7168H68.6855L67.0742 43.7646ZM73.0801 43.7646L72.8457 43.125L71.3955 39.7168H70.3848L72.6602 44.751L72.2988 45.4541C72.2663 45.5192 72.2207 45.6022 72.1621 45.7031C72.1068 45.804 72.0384 45.9017 71.957 45.9961C71.8789 46.0905 71.7878 46.1719 71.6836 46.2402C71.5827 46.3086 71.4704 46.3428 71.3467 46.3428C71.3239 46.3428 71.293 46.3411 71.2539 46.3379C71.2148 46.3379 71.1742 46.3363 71.1318 46.333C71.1175 46.3319 71.1033 46.3308 71.0892 46.3297C71.062 46.3275 71.0355 46.3254 71.0098 46.3232C70.9707 46.32 70.9398 46.3184 70.917 46.3184L70.7705 47.0557C70.7998 47.0622 70.8372 47.0703 70.8828 47.0801C70.9284 47.0898 70.9772 47.098 71.0293 47.1045C71.0814 47.1143 71.1335 47.1208 71.1855 47.124C71.2376 47.1305 71.2848 47.1338 71.3271 47.1338C71.5648 47.1338 71.7747 47.0898 71.957 47.002C72.1393 46.9141 72.2988 46.805 72.4355 46.6748C72.5723 46.5446 72.6878 46.403 72.7822 46.25C72.8799 46.097 72.9596 45.9521 73.0215 45.8154L75.7021 39.7168H74.6914L73.0801 43.7646ZM124 44L120 40L128 40L124 44Z" fill="#5D6B82"/>
</svg>
