<svg width="148" height="80" viewBox="0 0 148 80" fill="none" xmlns="http://www.w3.org/2000/svg">
<rect width="148" height="80" rx="2" fill="#D1D5DB"/>
<path d="M146 1H2C1.44772 1 1 1.44771 1 2V78C1 78.5523 1.44771 79 2 79H146C146.552 79 147 78.5523 147 78V2C147 1.44772 146.552 1 146 1Z" fill="#FAFBFB"/>
<path fill-rule="evenodd" clip-rule="evenodd" d="M15.4521 22.6621H17.7373V21.8906H12.2393V22.6621H14.5195V29H15.4521V22.6621ZM18.7285 29H19.6318V23.7168H18.7285V29ZM18.7871 21.9443C18.6992 22.0452 18.6553 22.1689 18.6553 22.3154C18.6553 22.4619 18.6992 22.584 18.7871 22.6816C18.8783 22.7793 19.0117 22.8281 19.1875 22.8281C19.3633 22.8281 19.4967 22.7793 19.5879 22.6816C19.679 22.584 19.7246 22.4619 19.7246 22.3154C19.7246 22.1689 19.679 22.0452 19.5879 21.9443C19.4967 21.8434 19.3633 21.793 19.1875 21.793C19.0117 21.793 18.8783 21.8434 18.7871 21.9443ZM21.9561 24.3027L21.9316 23.7168H21.0771V29H21.9805V25.1426C22.1986 24.638 22.6038 24.3857 23.1963 24.3857C23.9482 24.3857 24.3242 24.7699 24.3242 25.5381V29H25.2324V25.4941C25.2682 25.1556 25.3968 24.887 25.6182 24.6885C25.8395 24.4867 26.1178 24.3857 26.4531 24.3857C26.86 24.3857 27.1497 24.4801 27.3223 24.6689C27.4948 24.8545 27.5811 25.1361 27.5811 25.5137V29H28.4844V25.46C28.4648 24.2327 27.8757 23.6191 26.7168 23.6191C26.3327 23.6191 25.999 23.6973 25.7158 23.8535C25.4359 24.0098 25.208 24.2148 25.0322 24.4688C24.7653 23.9023 24.2624 23.6191 23.5234 23.6191C22.8659 23.6191 22.3434 23.847 21.9561 24.3027ZM30.2959 28.3945C30.7451 28.8633 31.3278 29.0977 32.0439 29.0977C32.9294 29.0977 33.5934 28.7575 34.0361 28.0771L33.4844 27.6475C33.3184 27.8623 33.1247 28.0348 32.9033 28.165C32.682 28.2952 32.4118 28.3604 32.0928 28.3604C31.6436 28.3604 31.2725 28.2008 30.9795 27.8818C30.6898 27.5596 30.5384 27.138 30.5254 26.6172H34.1045V26.2412C34.1045 25.3981 33.9141 24.7503 33.5332 24.2979C33.1523 23.8454 32.6185 23.6191 31.9316 23.6191C31.5117 23.6191 31.1211 23.7363 30.7598 23.9707C30.4017 24.2018 30.1217 24.5241 29.9199 24.9375C29.7214 25.3477 29.6221 25.8148 29.6221 26.3389V26.5049C29.6221 27.2926 29.8467 27.9225 30.2959 28.3945ZM31.0137 24.7617C31.2611 24.4948 31.5671 24.3613 31.9316 24.3613C32.3092 24.3613 32.6087 24.4883 32.8301 24.7422C33.0514 24.9928 33.1751 25.3477 33.2012 25.8066V25.875H30.5547C30.6133 25.3965 30.7663 25.0254 31.0137 24.7617ZM136 34H12V50H136V34ZM18.4512 39.8584C18.1745 40.0114 17.9417 40.2262 17.7529 40.5029V37.5H16.8496V45H17.7529V41.1621C17.8994 40.9277 18.0898 40.7406 18.3242 40.6006C18.5618 40.4574 18.8255 40.3857 19.1152 40.3857C19.4993 40.3825 19.7939 40.4867 19.999 40.6982C20.2074 40.9098 20.3115 41.2321 20.3115 41.665V45H21.2148V41.6748C21.2148 41.32 21.1709 41.014 21.083 40.7568C20.9984 40.4964 20.8763 40.2816 20.7168 40.1123C20.5573 39.943 20.3636 39.8193 20.1357 39.7412C19.9111 39.6598 19.6605 39.6191 19.3838 39.6191C19.0387 39.6224 18.7279 39.7021 18.4512 39.8584ZM24.457 39.8584C24.1803 40.0114 23.9476 40.2262 23.7588 40.5029V37.5H22.8555V45H23.7588V41.1621C23.9053 40.9277 24.0957 40.7406 24.3301 40.6006C24.5677 40.4574 24.8314 40.3857 25.1211 40.3857C25.5052 40.3825 25.7998 40.4867 26.0049 40.6982C26.2132 40.9098 26.3174 41.2321 26.3174 41.665V45H27.2207V41.6748C27.2207 41.32 27.1768 41.014 27.0889 40.7568C27.0042 40.4964 26.8822 40.2816 26.7227 40.1123C26.5632 39.943 26.3695 39.8193 26.1416 39.7412C25.917 39.6598 25.6663 39.6191 25.3896 39.6191C25.0446 39.6224 24.7337 39.7021 24.457 39.8584ZM30.7217 44.1406C30.6924 44.2253 30.6777 44.3164 30.6777 44.4141C30.6777 44.5085 30.6924 44.598 30.7217 44.6826C30.7542 44.764 30.7998 44.8356 30.8584 44.8975C30.917 44.9593 30.9902 45.0065 31.0781 45.0391C31.166 45.0749 31.2686 45.0928 31.3857 45.0928C31.5029 45.0928 31.6055 45.0749 31.6934 45.0391C31.7845 45.0065 31.8594 44.9593 31.918 44.8975C31.9798 44.8356 32.0254 44.764 32.0547 44.6826C32.0872 44.598 32.1035 44.5085 32.1035 44.4141C32.1035 44.3164 32.0872 44.2253 32.0547 44.1406C32.0254 44.056 31.9798 43.9827 31.918 43.9209C31.8594 43.8558 31.7845 43.8053 31.6934 43.7695C31.6055 43.7337 31.5029 43.7158 31.3857 43.7158C31.2686 43.7158 31.166 43.7337 31.0781 43.7695C30.9902 43.8053 30.917 43.8558 30.8584 43.9209C30.7998 43.9827 30.7542 44.056 30.7217 44.1406ZM30.7217 39.8633C30.6924 39.9479 30.6777 40.0391 30.6777 40.1367C30.6777 40.2311 30.6924 40.3206 30.7217 40.4053C30.7542 40.4867 30.7998 40.5583 30.8584 40.6201C30.917 40.682 30.9902 40.7308 31.0781 40.7666C31.166 40.7992 31.2686 40.8154 31.3857 40.8154C31.5029 40.8154 31.6055 40.7992 31.6934 40.7666C31.7845 40.7308 31.8594 40.682 31.918 40.6201C31.9798 40.5583 32.0254 40.4867 32.0547 40.4053C32.0872 40.3206 32.1035 40.2311 32.1035 40.1367C32.1035 40.0391 32.0872 39.9479 32.0547 39.8633C32.0254 39.7786 31.9798 39.7054 31.918 39.6436C31.8594 39.5785 31.7845 39.528 31.6934 39.4922C31.6055 39.4564 31.5029 39.4385 31.3857 39.4385C31.2686 39.4385 31.166 39.4564 31.0781 39.4922C30.9902 39.528 30.917 39.5785 30.8584 39.6436C30.7998 39.7054 30.7542 39.7786 30.7217 39.8633ZM35.3066 40.2148L35.2822 39.7168H34.4717V45H35.3311V40.7959C35.3799 40.6722 35.4564 40.5729 35.5605 40.498C35.6647 40.4232 35.8112 40.3857 36 40.3857C36.2051 40.3825 36.3548 40.4378 36.4492 40.5518C36.5436 40.6657 36.5908 40.8285 36.5908 41.04V45H37.4502V40.9326C37.46 40.861 37.4795 40.7926 37.5088 40.7275C37.5381 40.6592 37.5788 40.6006 37.6309 40.5518C37.6829 40.4997 37.748 40.459 37.8262 40.4297C37.9043 40.4004 37.9971 40.3857 38.1045 40.3857C38.5114 40.3825 38.7148 40.6022 38.7148 41.0449V45H39.5742V41.0547C39.5742 40.5729 39.4701 40.2132 39.2617 39.9756C39.0534 39.738 38.7555 39.6191 38.3682 39.6191C38.124 39.6224 37.9157 39.6761 37.7432 39.7803C37.5739 39.8812 37.4372 40.0163 37.333 40.1855C37.1702 39.8079 36.8464 39.6191 36.3613 39.6191C36.1139 39.6224 35.9023 39.6761 35.7266 39.7803C35.554 39.8844 35.4141 40.0293 35.3066 40.2148ZM41.3125 40.2148L41.2881 39.7168H40.4775V45H41.3369V40.7959C41.3857 40.6722 41.4622 40.5729 41.5664 40.498C41.6706 40.4232 41.8171 40.3857 42.0059 40.3857C42.2109 40.3825 42.3607 40.4378 42.4551 40.5518C42.5495 40.6657 42.5967 40.8285 42.5967 41.04V45H43.4561V40.9326C43.4658 40.861 43.4854 40.7926 43.5146 40.7275C43.5439 40.6592 43.5846 40.6006 43.6367 40.5518C43.6888 40.4997 43.7539 40.459 43.832 40.4297C43.9102 40.4004 44.0029 40.3857 44.1104 40.3857C44.5173 40.3825 44.7207 40.6022 44.7207 41.0449V45H45.5801V41.0547C45.5801 40.5729 45.4759 40.2132 45.2676 39.9756C45.0592 39.738 44.7614 39.6191 44.374 39.6191C44.1299 39.6224 43.9215 39.6761 43.749 39.7803C43.5798 39.8812 43.443 40.0163 43.3389 40.1855C43.1761 39.8079 42.8522 39.6191 42.3672 39.6191C42.1198 39.6224 41.9082 39.6761 41.7324 39.7803C41.5599 39.8844 41.4199 40.0293 41.3125 40.2148ZM124 44L120 40L128 40L124 44Z" fill="#5D6B82"/>
</svg>
