<svg width="148" height="80" viewBox="0 0 148 80" fill="none" xmlns="http://www.w3.org/2000/svg">
<rect width="148" height="80" rx="2" fill="#D1D5DB"/>
<rect x="1" y="1" width="146" height="78" rx="1" fill="#FAFBFB"/>
<path fill-rule="evenodd" clip-rule="evenodd" d="M15.7969 12.2539H13.4102V14.7656H12.6602V9.07812H16.1836V9.69531H13.4102V11.6406H15.7969V12.2539ZM17.7539 14.7656H17.0312V10.5391H17.7539V14.7656ZM16.9727 9.41797C16.9727 9.30078 17.0078 9.20182 17.0781 9.12109C17.151 9.04036 17.2578 9 17.3984 9C17.5391 9 17.6458 9.04036 17.7188 9.12109C17.7917 9.20182 17.8281 9.30078 17.8281 9.41797C17.8281 9.53516 17.7917 9.63281 17.7188 9.71094C17.6458 9.78906 17.5391 9.82812 17.3984 9.82812C17.2578 9.82812 17.151 9.78906 17.0781 9.71094C17.0078 9.63281 16.9727 9.53516 16.9727 9.41797ZM20.957 11.1875C20.8477 11.1693 20.7292 11.1602 20.6016 11.1602C20.1276 11.1602 19.806 11.362 19.6367 11.7656V14.7656H18.9141V10.5391H19.6172L19.6289 11.0273C19.8659 10.6497 20.2018 10.4609 20.6367 10.4609C20.7773 10.4609 20.8841 10.4792 20.957 10.5156V11.1875ZM24.0859 13.6445C24.0859 13.4492 24.0117 13.2982 23.8633 13.1914C23.7174 13.082 23.4609 12.9883 23.0938 12.9102C22.7292 12.832 22.4388 12.7383 22.2227 12.6289C22.0091 12.5195 21.8503 12.3893 21.7461 12.2383C21.6445 12.0872 21.5938 11.9076 21.5938 11.6992C21.5938 11.3529 21.7396 11.0599 22.0312 10.8203C22.3255 10.5807 22.7005 10.4609 23.1562 10.4609C23.6354 10.4609 24.0234 10.5846 24.3203 10.832C24.6198 11.0794 24.7695 11.3958 24.7695 11.7812H24.043C24.043 11.5833 23.9583 11.4128 23.7891 11.2695C23.6224 11.1263 23.4115 11.0547 23.1562 11.0547C22.8932 11.0547 22.6875 11.112 22.5391 11.2266C22.3906 11.3411 22.3164 11.4909 22.3164 11.6758C22.3164 11.8503 22.3854 11.9818 22.5234 12.0703C22.6615 12.1589 22.9102 12.2435 23.2695 12.3242C23.6315 12.4049 23.9245 12.5013 24.1484 12.6133C24.3724 12.7253 24.5378 12.8607 24.6445 13.0195C24.7539 13.1758 24.8086 13.3672 24.8086 13.5938C24.8086 13.9714 24.6576 14.2747 24.3555 14.5039C24.0534 14.7305 23.6615 14.8438 23.1797 14.8438C22.8411 14.8438 22.5417 14.7839 22.2812 14.6641C22.0208 14.5443 21.8164 14.3776 21.668 14.1641C21.5221 13.9479 21.4492 13.7148 21.4492 13.4648H22.1719C22.1849 13.707 22.2812 13.8997 22.4609 14.043C22.6432 14.1836 22.8828 14.2539 23.1797 14.2539C23.4531 14.2539 23.6719 14.1992 23.8359 14.0898C24.0026 13.9779 24.0859 13.8294 24.0859 13.6445ZM26.7305 9.51562V10.5391H27.5195V11.0977H26.7305V13.7188C26.7305 13.888 26.7656 14.0156 26.8359 14.1016C26.9062 14.1849 27.026 14.2266 27.1953 14.2266C27.2786 14.2266 27.3932 14.2109 27.5391 14.1797V14.7656C27.349 14.8177 27.1641 14.8438 26.9844 14.8438C26.6615 14.8438 26.418 14.7461 26.2539 14.5508C26.0898 14.3555 26.0078 14.0781 26.0078 13.7188V11.0977H25.2383V10.5391H26.0078V9.51562H26.7305ZM34.8359 14.7656H34.082L31.2188 10.3828V14.7656H30.4648V9.07812H31.2188L34.0898 13.4805V9.07812H34.8359V14.7656ZM38.6641 14.7656C38.6224 14.6823 38.5885 14.5339 38.5625 14.3203C38.2266 14.6693 37.8255 14.8438 37.3594 14.8438C36.9427 14.8438 36.6003 14.7266 36.332 14.4922C36.0664 14.2552 35.9336 13.9557 35.9336 13.5938C35.9336 13.1536 36.1003 12.8125 36.4336 12.5703C36.7695 12.3255 37.2409 12.2031 37.8477 12.2031H38.5508V11.8711C38.5508 11.6185 38.4753 11.418 38.3242 11.2695C38.1732 11.1185 37.9505 11.043 37.6562 11.043C37.3984 11.043 37.1823 11.1081 37.0078 11.2383C36.8333 11.3685 36.7461 11.526 36.7461 11.7109H36.0195C36.0195 11.5 36.0938 11.2969 36.2422 11.1016C36.3932 10.9036 36.5964 10.7474 36.8516 10.6328C37.1094 10.5182 37.3919 10.4609 37.6992 10.4609C38.1862 10.4609 38.5677 10.5833 38.8438 10.8281C39.1198 11.0703 39.263 11.4049 39.2734 11.832V13.7773C39.2734 14.1654 39.3229 14.474 39.4219 14.7031V14.7656H38.6641ZM37.4648 14.2148C37.6914 14.2148 37.9062 14.1562 38.1094 14.0391C38.3125 13.9219 38.4596 13.7695 38.5508 13.582V12.7148H37.9844C37.099 12.7148 36.6562 12.974 36.6562 13.4922C36.6562 13.7188 36.7318 13.8958 36.8828 14.0234C37.0339 14.151 37.2279 14.2148 37.4648 14.2148ZM41.0859 10.5391L41.1055 11.0078C41.4154 10.6432 41.8333 10.4609 42.3594 10.4609C42.9505 10.4609 43.3529 10.6875 43.5664 11.1406C43.707 10.9375 43.8893 10.7734 44.1133 10.6484C44.3398 10.5234 44.6068 10.4609 44.9141 10.4609C45.8411 10.4609 46.3125 10.9518 46.3281 11.9336V14.7656H45.6055V11.9766C45.6055 11.6745 45.5365 11.4492 45.3984 11.3008C45.2604 11.1497 45.0286 11.0742 44.7031 11.0742C44.4349 11.0742 44.2122 11.1549 44.0352 11.3164C43.8581 11.4753 43.7552 11.6901 43.7266 11.9609V14.7656H43V11.9961C43 11.3815 42.6992 11.0742 42.0977 11.0742C41.6237 11.0742 41.2995 11.276 41.125 11.6797V14.7656H40.4023V10.5391H41.0859ZM49.1758 14.8438C48.6029 14.8438 48.1367 14.6562 47.7773 14.2812C47.418 13.9036 47.2383 13.3997 47.2383 12.7695V12.6367C47.2383 12.2174 47.3177 11.8438 47.4766 11.5156C47.638 11.1849 47.862 10.9271 48.1484 10.7422C48.4375 10.5547 48.75 10.4609 49.0859 10.4609C49.6354 10.4609 50.0625 10.6419 50.3672 11.0039C50.6719 11.3659 50.8242 11.8841 50.8242 12.5586V12.8594H47.9609C47.9714 13.276 48.0924 13.6133 48.3242 13.8711C48.5586 14.1263 48.8555 14.2539 49.2148 14.2539C49.4701 14.2539 49.6862 14.2018 49.8633 14.0977C50.0404 13.9935 50.1953 13.8555 50.3281 13.6836L50.7695 14.0273C50.4154 14.5716 49.8841 14.8438 49.1758 14.8438ZM49.0859 11.0547C48.7943 11.0547 48.5495 11.1615 48.3516 11.375C48.1536 11.5859 48.0312 11.8828 47.9844 12.2656H50.1016V12.2109C50.0807 11.8438 49.9818 11.5599 49.8047 11.3594C49.6276 11.1562 49.388 11.0547 49.0859 11.0547ZM70 18H12V24H70V18ZM136 38H12V44H136V38ZM136 18H78V24H136V18ZM79.4141 14.1523H82.1094V14.7656H78.6602V9.07812H79.4141V14.1523ZM85.4609 14.7656C85.4193 14.6823 85.3854 14.5339 85.3594 14.3203C85.0234 14.6693 84.6224 14.8438 84.1562 14.8438C83.7396 14.8438 83.3971 14.7266 83.1289 14.4922C82.8633 14.2552 82.7305 13.9557 82.7305 13.5938C82.7305 13.1536 82.8971 12.8125 83.2305 12.5703C83.5664 12.3255 84.0378 12.2031 84.6445 12.2031H85.3477V11.8711C85.3477 11.6185 85.2721 11.418 85.1211 11.2695C84.9701 11.1185 84.7474 11.043 84.4531 11.043C84.1953 11.043 83.9792 11.1081 83.8047 11.2383C83.6302 11.3685 83.543 11.526 83.543 11.7109H82.8164C82.8164 11.5 82.8906 11.2969 83.0391 11.1016C83.1901 10.9036 83.3932 10.7474 83.6484 10.6328C83.9062 10.5182 84.1888 10.4609 84.4961 10.4609C84.9831 10.4609 85.3646 10.5833 85.6406 10.8281C85.9167 11.0703 86.0599 11.4049 86.0703 11.832V13.7773C86.0703 14.1654 86.1198 14.474 86.2188 14.7031V14.7656H85.4609ZM84.2617 14.2148C84.4883 14.2148 84.7031 14.1562 84.9062 14.0391C85.1094 13.9219 85.2565 13.7695 85.3477 13.582V12.7148H84.7812C83.8958 12.7148 83.4531 12.974 83.4531 13.4922C83.4531 13.7188 83.5286 13.8958 83.6797 14.0234C83.8307 14.151 84.0247 14.2148 84.2617 14.2148ZM89.6641 13.6445C89.6641 13.4492 89.5898 13.2982 89.4414 13.1914C89.2956 13.082 89.0391 12.9883 88.6719 12.9102C88.3073 12.832 88.0169 12.7383 87.8008 12.6289C87.5872 12.5195 87.4284 12.3893 87.3242 12.2383C87.2227 12.0872 87.1719 11.9076 87.1719 11.6992C87.1719 11.3529 87.3177 11.0599 87.6094 10.8203C87.9036 10.5807 88.2786 10.4609 88.7344 10.4609C89.2135 10.4609 89.6016 10.5846 89.8984 10.832C90.1979 11.0794 90.3477 11.3958 90.3477 11.7812H89.6211C89.6211 11.5833 89.5365 11.4128 89.3672 11.2695C89.2005 11.1263 88.9896 11.0547 88.7344 11.0547C88.4714 11.0547 88.2656 11.112 88.1172 11.2266C87.9688 11.3411 87.8945 11.4909 87.8945 11.6758C87.8945 11.8503 87.9635 11.9818 88.1016 12.0703C88.2396 12.1589 88.4883 12.2435 88.8477 12.3242C89.2096 12.4049 89.5026 12.5013 89.7266 12.6133C89.9505 12.7253 90.1159 12.8607 90.2227 13.0195C90.332 13.1758 90.3867 13.3672 90.3867 13.5938C90.3867 13.9714 90.2357 14.2747 89.9336 14.5039C89.6315 14.7305 89.2396 14.8438 88.7578 14.8438C88.4193 14.8438 88.1198 14.7839 87.8594 14.6641C87.599 14.5443 87.3945 14.3776 87.2461 14.1641C87.1003 13.9479 87.0273 13.7148 87.0273 13.4648H87.75C87.763 13.707 87.8594 13.8997 88.0391 14.043C88.2214 14.1836 88.4609 14.2539 88.7578 14.2539C89.0312 14.2539 89.25 14.1992 89.4141 14.0898C89.5807 13.9779 89.6641 13.8294 89.6641 13.6445ZM92.3086 9.51562V10.5391H93.0977V11.0977H92.3086V13.7188C92.3086 13.888 92.3438 14.0156 92.4141 14.1016C92.4844 14.1849 92.6042 14.2266 92.7734 14.2266C92.8568 14.2266 92.9714 14.2109 93.1172 14.1797V14.7656C92.9271 14.8177 92.7422 14.8438 92.5625 14.8438C92.2396 14.8438 91.9961 14.7461 91.832 14.5508C91.668 14.3555 91.5859 14.0781 91.5859 13.7188V11.0977H90.8164V10.5391H91.5859V9.51562H92.3086ZM100.414 14.7656H99.6602L96.7969 10.3828V14.7656H96.043V9.07812H96.7969L99.668 13.4805V9.07812H100.414V14.7656ZM104.242 14.7656C104.201 14.6823 104.167 14.5339 104.141 14.3203C103.805 14.6693 103.404 14.8438 102.938 14.8438C102.521 14.8438 102.178 14.7266 101.91 14.4922C101.645 14.2552 101.512 13.9557 101.512 13.5938C101.512 13.1536 101.678 12.8125 102.012 12.5703C102.348 12.3255 102.819 12.2031 103.426 12.2031H104.129V11.8711C104.129 11.6185 104.053 11.418 103.902 11.2695C103.751 11.1185 103.529 11.043 103.234 11.043C102.977 11.043 102.76 11.1081 102.586 11.2383C102.411 11.3685 102.324 11.526 102.324 11.7109H101.598C101.598 11.5 101.672 11.2969 101.82 11.1016C101.971 10.9036 102.174 10.7474 102.43 10.6328C102.688 10.5182 102.97 10.4609 103.277 10.4609C103.764 10.4609 104.146 10.5833 104.422 10.8281C104.698 11.0703 104.841 11.4049 104.852 11.832V13.7773C104.852 14.1654 104.901 14.474 105 14.7031V14.7656H104.242ZM103.043 14.2148C103.27 14.2148 103.484 14.1562 103.688 14.0391C103.891 13.9219 104.038 13.7695 104.129 13.582V12.7148H103.562C102.677 12.7148 102.234 12.974 102.234 13.4922C102.234 13.7188 102.31 13.8958 102.461 14.0234C102.612 14.151 102.806 14.2148 103.043 14.2148ZM106.664 10.5391L106.684 11.0078C106.993 10.6432 107.411 10.4609 107.938 10.4609C108.529 10.4609 108.931 10.6875 109.145 11.1406C109.285 10.9375 109.467 10.7734 109.691 10.6484C109.918 10.5234 110.185 10.4609 110.492 10.4609C111.419 10.4609 111.891 10.9518 111.906 11.9336V14.7656H111.184V11.9766C111.184 11.6745 111.115 11.4492 110.977 11.3008C110.839 11.1497 110.607 11.0742 110.281 11.0742C110.013 11.0742 109.79 11.1549 109.613 11.3164C109.436 11.4753 109.333 11.6901 109.305 11.9609V14.7656H108.578V11.9961C108.578 11.3815 108.277 11.0742 107.676 11.0742C107.202 11.0742 106.878 11.276 106.703 11.6797V14.7656H105.98V10.5391H106.664ZM114.754 14.8438C114.181 14.8438 113.715 14.6562 113.355 14.2812C112.996 13.9036 112.816 13.3997 112.816 12.7695V12.6367C112.816 12.2174 112.896 11.8438 113.055 11.5156C113.216 11.1849 113.44 10.9271 113.727 10.7422C114.016 10.5547 114.328 10.4609 114.664 10.4609C115.214 10.4609 115.641 10.6419 115.945 11.0039C116.25 11.3659 116.402 11.8841 116.402 12.5586V12.8594H113.539C113.549 13.276 113.671 13.6133 113.902 13.8711C114.137 14.1263 114.434 14.2539 114.793 14.2539C115.048 14.2539 115.264 14.2018 115.441 14.0977C115.618 13.9935 115.773 13.8555 115.906 13.6836L116.348 14.0273C115.993 14.5716 115.462 14.8438 114.754 14.8438ZM114.664 11.0547C114.372 11.0547 114.128 11.1615 113.93 11.375C113.732 11.5859 113.609 11.8828 113.562 12.2656H115.68V12.2109C115.659 11.8438 115.56 11.5599 115.383 11.3594C115.206 11.1562 114.966 11.0547 114.664 11.0547ZM13.4102 32.3711H15.875V31.7578H13.4102V29.9297H16.2344V29.3125H12.6602V35H16.2734V34.3867H13.4102V32.3711ZM17.793 31.2422L17.7734 30.7734H17.0898V35H17.8125V31.9141C17.987 31.5104 18.3112 31.3086 18.7852 31.3086C19.3867 31.3086 19.6875 31.6159 19.6875 32.2305V35H20.4141V32.1953C20.4427 31.9245 20.5456 31.7096 20.7227 31.5508C20.8997 31.3893 21.1224 31.3086 21.3906 31.3086C21.7161 31.3086 21.9479 31.3841 22.0859 31.5352C22.224 31.6836 22.293 31.9089 22.293 32.2109V35H23.0156V32.168C23 31.1862 22.5286 30.6953 21.6016 30.6953C21.2943 30.6953 21.0273 30.7578 20.8008 30.8828C20.5768 31.0078 20.3945 31.1719 20.2539 31.375C20.0404 30.9219 19.638 30.6953 19.0469 30.6953C18.5208 30.6953 18.1029 30.8776 17.793 31.2422ZM26.6172 34.5547C26.6432 34.7682 26.6771 34.9167 26.7188 35H27.4766V34.9375C27.3776 34.7083 27.3281 34.3997 27.3281 34.0117V32.0664C27.3177 31.6393 27.1745 31.3047 26.8984 31.0625C26.6224 30.8177 26.2409 30.6953 25.7539 30.6953C25.4466 30.6953 25.1641 30.7526 24.9062 30.8672C24.651 30.9818 24.4479 31.138 24.2969 31.3359C24.1484 31.5312 24.0742 31.7344 24.0742 31.9453H24.8008C24.8008 31.7604 24.888 31.6029 25.0625 31.4727C25.237 31.3424 25.4531 31.2773 25.7109 31.2773C26.0052 31.2773 26.2279 31.3529 26.3789 31.5039C26.5299 31.6523 26.6055 31.8529 26.6055 32.1055V32.4375H25.9023C25.2956 32.4375 24.8242 32.5599 24.4883 32.8047C24.1549 33.0469 23.9883 33.388 23.9883 33.8281C23.9883 34.1901 24.1211 34.4896 24.3867 34.7266C24.6549 34.9609 24.9974 35.0781 25.4141 35.0781C25.8802 35.0781 26.2812 34.9036 26.6172 34.5547ZM26.1641 34.2734C25.9609 34.3906 25.7461 34.4492 25.5195 34.4492C25.2826 34.4492 25.0885 34.3854 24.9375 34.2578C24.7865 34.1302 24.7109 33.9531 24.7109 33.7266C24.7109 33.2083 25.1536 32.9492 26.0391 32.9492H26.6055V33.8164C26.5143 34.0039 26.3672 34.1562 26.1641 34.2734ZM28.5234 35H29.2461V30.7734H28.5234V35ZM28.5703 29.3555C28.5 29.4362 28.4648 29.5352 28.4648 29.6523C28.4648 29.7695 28.5 29.8672 28.5703 29.9453C28.6432 30.0234 28.75 30.0625 28.8906 30.0625C29.0312 30.0625 29.138 30.0234 29.2109 29.9453C29.2839 29.8672 29.3203 29.7695 29.3203 29.6523C29.3203 29.5352 29.2839 29.4362 29.2109 29.3555C29.138 29.2747 29.0312 29.2344 28.8906 29.2344C28.75 29.2344 28.6432 29.2747 28.5703 29.3555ZM30.4688 35H31.1914V29H30.4688V35ZM12 58H136V70H12V58ZM15.4883 53.9531L13.6289 49.3125H12.6602V55H13.4102V52.7852L13.3359 50.4062L15.1992 55H15.7734L17.6406 50.3945L17.5703 52.7852V55H18.3203V49.3125H17.3477L15.4883 53.9531ZM19.8867 54.5156C20.2461 54.8906 20.7122 55.0781 21.2852 55.0781C21.9935 55.0781 22.5247 54.806 22.8789 54.2617L22.4375 53.918C22.3047 54.0898 22.1497 54.2279 21.9727 54.332C21.7956 54.4362 21.5794 54.4883 21.3242 54.4883C20.9648 54.4883 20.668 54.3607 20.4336 54.1055C20.2018 53.8477 20.0807 53.5104 20.0703 53.0938H22.9336V52.793C22.9336 52.1185 22.7812 51.6003 22.4766 51.2383C22.1719 50.8763 21.7448 50.6953 21.1953 50.6953C20.8594 50.6953 20.5469 50.7891 20.2578 50.9766C19.9714 51.1615 19.7474 51.4193 19.5859 51.75C19.4271 52.0781 19.3477 52.4518 19.3477 52.8711V53.0039C19.3477 53.6341 19.5273 54.138 19.8867 54.5156ZM20.4609 51.6094C20.6589 51.3958 20.9036 51.2891 21.1953 51.2891C21.4974 51.2891 21.737 51.3906 21.9141 51.5938C22.0911 51.7943 22.1901 52.0781 22.2109 52.4453V52.5H20.0938C20.1406 52.1172 20.263 51.8203 20.4609 51.6094ZM26.0117 53.4258C26.1602 53.5326 26.2344 53.6836 26.2344 53.8789C26.2344 54.0638 26.151 54.2122 25.9844 54.3242C25.8203 54.4336 25.6016 54.4883 25.3281 54.4883C25.0312 54.4883 24.7917 54.418 24.6094 54.2773C24.4297 54.1341 24.3333 53.9414 24.3203 53.6992H23.5977C23.5977 53.9492 23.6706 54.1823 23.8164 54.3984C23.9648 54.612 24.1693 54.7786 24.4297 54.8984C24.6901 55.0182 24.9896 55.0781 25.3281 55.0781C25.8099 55.0781 26.2018 54.9648 26.5039 54.7383C26.806 54.5091 26.957 54.2057 26.957 53.8281C26.957 53.6016 26.9023 53.4102 26.793 53.2539C26.6862 53.0951 26.5208 52.9596 26.2969 52.8477C26.0729 52.7357 25.7799 52.6393 25.418 52.5586C25.0586 52.4779 24.8099 52.3932 24.6719 52.3047C24.5339 52.2161 24.4648 52.0846 24.4648 51.9102C24.4648 51.7253 24.5391 51.5755 24.6875 51.4609C24.8359 51.3464 25.0417 51.2891 25.3047 51.2891C25.5599 51.2891 25.7708 51.3607 25.9375 51.5039C26.1068 51.6471 26.1914 51.8177 26.1914 52.0156H26.918C26.918 51.6302 26.7682 51.3138 26.4688 51.0664C26.1719 50.819 25.7839 50.6953 25.3047 50.6953C24.849 50.6953 24.474 50.8151 24.1797 51.0547C23.888 51.2943 23.7422 51.5872 23.7422 51.9336C23.7422 52.1419 23.793 52.3216 23.8945 52.4727C23.9987 52.6237 24.1576 52.7539 24.3711 52.8633C24.5872 52.9727 24.8776 53.0664 25.2422 53.1445C25.6094 53.2227 25.8659 53.3164 26.0117 53.4258ZM30.1367 53.4258C30.2852 53.5326 30.3594 53.6836 30.3594 53.8789C30.3594 54.0638 30.276 54.2122 30.1094 54.3242C29.9453 54.4336 29.7266 54.4883 29.4531 54.4883C29.1562 54.4883 28.9167 54.418 28.7344 54.2773C28.5547 54.1341 28.4583 53.9414 28.4453 53.6992H27.7227C27.7227 53.9492 27.7956 54.1823 27.9414 54.3984C28.0898 54.612 28.2943 54.7786 28.5547 54.8984C28.8151 55.0182 29.1146 55.0781 29.4531 55.0781C29.9349 55.0781 30.3268 54.9648 30.6289 54.7383C30.931 54.5091 31.082 54.2057 31.082 53.8281C31.082 53.6016 31.0273 53.4102 30.918 53.2539C30.8112 53.0951 30.6458 52.9596 30.4219 52.8477C30.1979 52.7357 29.9049 52.6393 29.543 52.5586C29.1836 52.4779 28.9349 52.3932 28.7969 52.3047C28.6589 52.2161 28.5898 52.0846 28.5898 51.9102C28.5898 51.7253 28.6641 51.5755 28.8125 51.4609C28.9609 51.3464 29.1667 51.2891 29.4297 51.2891C29.6849 51.2891 29.8958 51.3607 30.0625 51.5039C30.2318 51.6471 30.3164 51.8177 30.3164 52.0156H31.043C31.043 51.6302 30.8932 51.3138 30.5938 51.0664C30.2969 50.819 29.9089 50.6953 29.4297 50.6953C28.974 50.6953 28.599 50.8151 28.3047 51.0547C28.013 51.2943 27.8672 51.5872 27.8672 51.9336C27.8672 52.1419 27.918 52.3216 28.0195 52.4727C28.1237 52.6237 28.2826 52.7539 28.4961 52.8633C28.7122 52.9727 29.0026 53.0664 29.3672 53.1445C29.7344 53.2227 29.9909 53.3164 30.1367 53.4258ZM34.5312 54.5547C34.5573 54.7682 34.5911 54.9167 34.6328 55H35.3906V54.9375C35.2917 54.7083 35.2422 54.3997 35.2422 54.0117V52.0664C35.2318 51.6393 35.0885 51.3047 34.8125 51.0625C34.5365 50.8177 34.1549 50.6953 33.668 50.6953C33.3607 50.6953 33.0781 50.7526 32.8203 50.8672C32.5651 50.9818 32.362 51.138 32.2109 51.3359C32.0625 51.5312 31.9883 51.7344 31.9883 51.9453H32.7148C32.7148 51.7604 32.8021 51.6029 32.9766 51.4727C33.151 51.3424 33.3672 51.2773 33.625 51.2773C33.9193 51.2773 34.1419 51.3529 34.293 51.5039C34.444 51.6523 34.5195 51.8529 34.5195 52.1055V52.4375H33.8164C33.2096 52.4375 32.7383 52.5599 32.4023 52.8047C32.069 53.0469 31.9023 53.388 31.9023 53.8281C31.9023 54.1901 32.0352 54.4896 32.3008 54.7266C32.569 54.9609 32.9115 55.0781 33.3281 55.0781C33.7943 55.0781 34.1953 54.9036 34.5312 54.5547ZM34.0781 54.2734C33.875 54.3906 33.6602 54.4492 33.4336 54.4492C33.1966 54.4492 33.0026 54.3854 32.8516 54.2578C32.7005 54.1302 32.625 53.9531 32.625 53.7266C32.625 53.2083 33.0677 52.9492 33.9531 52.9492H34.5195V53.8164C34.4284 54.0039 34.2812 54.1562 34.0781 54.2734ZM36.6602 51.2812C36.3555 51.6693 36.2031 52.1927 36.2031 52.8516C36.2031 53.5391 36.3555 54.082 36.6602 54.4805C36.9674 54.8789 37.3685 55.0781 37.8633 55.0781C38.3633 55.0781 38.7578 54.9115 39.0469 54.5781V54.9414C39.0469 55.3008 38.9479 55.5794 38.75 55.7773C38.5547 55.9753 38.2812 56.0742 37.9297 56.0742C37.4818 56.0742 37.1029 55.8828 36.793 55.5L36.418 55.9336C36.5716 56.1602 36.7943 56.3385 37.0859 56.4688C37.3776 56.599 37.6758 56.6641 37.9805 56.6641C38.5273 56.6641 38.9622 56.5065 39.2852 56.1914C39.6107 55.8763 39.7734 55.4453 39.7734 54.8984V50.7734H39.1133L39.0781 51.2422C38.7891 50.8776 38.3867 50.6953 37.8711 50.6953C37.3685 50.6953 36.9648 50.8906 36.6602 51.2812ZM37.2227 54.0586C37.0273 53.7852 36.9297 53.4102 36.9297 52.9336C36.9297 52.3971 37.0286 51.9922 37.2266 51.7188C37.4245 51.4453 37.6992 51.3086 38.0508 51.3086C38.4935 51.3086 38.8255 51.5104 39.0469 51.9141V53.8438C38.8333 54.2578 38.4987 54.4648 38.043 54.4648C37.6914 54.4648 37.418 54.3294 37.2227 54.0586ZM41.2227 54.5156C41.582 54.8906 42.0482 55.0781 42.6211 55.0781C43.3294 55.0781 43.8607 54.806 44.2148 54.2617L43.7734 53.918C43.6406 54.0898 43.4857 54.2279 43.3086 54.332C43.1315 54.4362 42.9154 54.4883 42.6602 54.4883C42.3008 54.4883 42.0039 54.3607 41.7695 54.1055C41.5378 53.8477 41.4167 53.5104 41.4062 53.0938H44.2695V52.793C44.2695 52.1185 44.1172 51.6003 43.8125 51.2383C43.5078 50.8763 43.0807 50.6953 42.5312 50.6953C42.1953 50.6953 41.8828 50.7891 41.5938 50.9766C41.3073 51.1615 41.0833 51.4193 40.9219 51.75C40.763 52.0781 40.6836 52.4518 40.6836 52.8711V53.0039C40.6836 53.6341 40.8633 54.138 41.2227 54.5156ZM41.7969 51.6094C41.9948 51.3958 42.2396 51.2891 42.5312 51.2891C42.8333 51.2891 43.0729 51.3906 43.25 51.5938C43.4271 51.7943 43.526 52.0781 43.5469 52.4453V52.5H41.4297C41.4766 52.1172 41.599 51.8203 41.7969 51.6094Z" fill="#5D6B82"/>
</svg>
