<svg width="148" height="80" viewBox="0 0 148 80" fill="none" xmlns="http://www.w3.org/2000/svg">
<rect width="148" height="80" rx="2" fill="#D1D5DB"/>
<rect x="1" y="1" width="146" height="78" rx="1" fill="#FAFBFB"/>
<path fill-rule="evenodd" clip-rule="evenodd" d="M15.7969 13.4883H13.4102V16H12.6602V10.3125H16.1836V10.9297H13.4102V12.875H15.7969V13.4883ZM19.4922 15.582C19.2109 15.9128 18.7982 16.0781 18.2539 16.0781C17.8034 16.0781 17.4596 15.9479 17.2227 15.6875C16.9883 15.4245 16.8698 15.0365 16.8672 14.5234V11.7734H17.5898V14.5039C17.5898 15.1445 17.8503 15.4648 18.3711 15.4648C18.9232 15.4648 19.2904 15.2591 19.4727 14.8477V11.7734H20.1953V16H19.5078L19.4922 15.582ZM22.082 16H21.3594V10H22.082V16ZM24.0273 16H23.3047V10H24.0273V16ZM31.6562 16H30.9023L28.0391 11.6172V16H27.2852V10.3125H28.0391L30.9102 14.7148V10.3125H31.6562V16ZM35.4844 16C35.4427 15.9167 35.4089 15.7682 35.3828 15.5547C35.0469 15.9036 34.6458 16.0781 34.1797 16.0781C33.763 16.0781 33.4206 15.9609 33.1523 15.7266C32.8867 15.4896 32.7539 15.1901 32.7539 14.8281C32.7539 14.388 32.9206 14.0469 33.2539 13.8047C33.5898 13.5599 34.0612 13.4375 34.668 13.4375H35.3711V13.1055C35.3711 12.8529 35.2956 12.6523 35.1445 12.5039C34.9935 12.3529 34.7708 12.2773 34.4766 12.2773C34.2188 12.2773 34.0026 12.3424 33.8281 12.4727C33.6536 12.6029 33.5664 12.7604 33.5664 12.9453H32.8398C32.8398 12.7344 32.9141 12.5312 33.0625 12.3359C33.2135 12.138 33.4167 11.9818 33.6719 11.8672C33.9297 11.7526 34.2122 11.6953 34.5195 11.6953C35.0065 11.6953 35.388 11.8177 35.6641 12.0625C35.9401 12.3047 36.0833 12.6393 36.0938 13.0664V15.0117C36.0938 15.3997 36.1432 15.7083 36.2422 15.9375V16H35.4844ZM34.2852 15.4492C34.5117 15.4492 34.7266 15.3906 34.9297 15.2734C35.1328 15.1562 35.2799 15.0039 35.3711 14.8164V13.9492H34.8047C33.9193 13.9492 33.4766 14.2083 33.4766 14.7266C33.4766 14.9531 33.5521 15.1302 33.7031 15.2578C33.8542 15.3854 34.0482 15.4492 34.2852 15.4492ZM37.9062 11.7734L37.9258 12.2422C38.2357 11.8776 38.6536 11.6953 39.1797 11.6953C39.7708 11.6953 40.1732 11.9219 40.3867 12.375C40.5273 12.1719 40.7096 12.0078 40.9336 11.8828C41.1602 11.7578 41.4271 11.6953 41.7344 11.6953C42.6615 11.6953 43.1328 12.1862 43.1484 13.168V16H42.4258V13.2109C42.4258 12.9089 42.3568 12.6836 42.2188 12.5352C42.0807 12.3841 41.849 12.3086 41.5234 12.3086C41.2552 12.3086 41.0326 12.3893 40.8555 12.5508C40.6784 12.7096 40.5755 12.9245 40.5469 13.1953V16H39.8203V13.2305C39.8203 12.6159 39.5195 12.3086 38.918 12.3086C38.444 12.3086 38.1198 12.5104 37.9453 12.9141V16H37.2227V11.7734H37.9062ZM45.9961 16.0781C45.4232 16.0781 44.957 15.8906 44.5977 15.5156C44.2383 15.138 44.0586 14.6341 44.0586 14.0039V13.8711C44.0586 13.4518 44.138 13.0781 44.2969 12.75C44.4583 12.4193 44.6823 12.1615 44.9688 11.9766C45.2578 11.7891 45.5703 11.6953 45.9062 11.6953C46.4557 11.6953 46.8828 11.8763 47.1875 12.2383C47.4922 12.6003 47.6445 13.1185 47.6445 13.793V14.0938H44.7812C44.7917 14.5104 44.9128 14.8477 45.1445 15.1055C45.3789 15.3607 45.6758 15.4883 46.0352 15.4883C46.2904 15.4883 46.5065 15.4362 46.6836 15.332C46.8607 15.2279 47.0156 15.0898 47.1484 14.918L47.5898 15.2617C47.2357 15.806 46.7044 16.0781 45.9961 16.0781ZM45.9062 12.2891C45.6146 12.2891 45.3698 12.3958 45.1719 12.6094C44.974 12.8203 44.8516 13.1172 44.8047 13.5H46.9219V13.4453C46.901 13.0781 46.8021 12.7943 46.625 12.5938C46.4479 12.3906 46.2083 12.2891 45.9062 12.2891ZM136 19.2344H12V25.2344H136V19.2344ZM136 39.2344H12V45.2344H136V39.2344ZM13.4102 33.6055H15.875V32.9922H13.4102V31.1641H16.2344V30.5469H12.6602V36.2344H16.2734V35.6211H13.4102V33.6055ZM17.793 32.4766L17.7734 32.0078H17.0898V36.2344H17.8125V33.1484C17.987 32.7448 18.3112 32.543 18.7852 32.543C19.3867 32.543 19.6875 32.8503 19.6875 33.4648V36.2344H20.4141V33.4297C20.4427 33.1589 20.5456 32.944 20.7227 32.7852C20.8997 32.6237 21.1224 32.543 21.3906 32.543C21.7161 32.543 21.9479 32.6185 22.0859 32.7695C22.224 32.918 22.293 33.1432 22.293 33.4453V36.2344H23.0156V33.4023C23 32.4206 22.5286 31.9297 21.6016 31.9297C21.2943 31.9297 21.0273 31.9922 20.8008 32.1172C20.5768 32.2422 20.3945 32.4062 20.2539 32.6094C20.0404 32.1562 19.638 31.9297 19.0469 31.9297C18.5208 31.9297 18.1029 32.112 17.793 32.4766ZM26.6172 35.7891C26.6432 36.0026 26.6771 36.151 26.7188 36.2344H27.4766V36.1719C27.3776 35.9427 27.3281 35.6341 27.3281 35.2461V33.3008C27.3177 32.8737 27.1745 32.5391 26.8984 32.2969C26.6224 32.0521 26.2409 31.9297 25.7539 31.9297C25.4466 31.9297 25.1641 31.987 24.9062 32.1016C24.651 32.2161 24.4479 32.3724 24.2969 32.5703C24.1484 32.7656 24.0742 32.9688 24.0742 33.1797H24.8008C24.8008 32.9948 24.888 32.8372 25.0625 32.707C25.237 32.5768 25.4531 32.5117 25.7109 32.5117C26.0052 32.5117 26.2279 32.5872 26.3789 32.7383C26.5299 32.8867 26.6055 33.0872 26.6055 33.3398V33.6719H25.9023C25.2956 33.6719 24.8242 33.7943 24.4883 34.0391C24.1549 34.2812 23.9883 34.6224 23.9883 35.0625C23.9883 35.4245 24.1211 35.724 24.3867 35.9609C24.6549 36.1953 24.9974 36.3125 25.4141 36.3125C25.8802 36.3125 26.2812 36.138 26.6172 35.7891ZM26.1641 35.5078C25.9609 35.625 25.7461 35.6836 25.5195 35.6836C25.2826 35.6836 25.0885 35.6198 24.9375 35.4922C24.7865 35.3646 24.7109 35.1875 24.7109 34.9609C24.7109 34.4427 25.1536 34.1836 26.0391 34.1836H26.6055V35.0508C26.5143 35.2383 26.3672 35.3906 26.1641 35.5078ZM28.5234 36.2344H29.2461V32.0078H28.5234V36.2344ZM28.5703 30.5898C28.5 30.6706 28.4648 30.7695 28.4648 30.8867C28.4648 31.0039 28.5 31.1016 28.5703 31.1797C28.6432 31.2578 28.75 31.2969 28.8906 31.2969C29.0312 31.2969 29.138 31.2578 29.2109 31.1797C29.2839 31.1016 29.3203 31.0039 29.3203 30.8867C29.3203 30.7695 29.2839 30.6706 29.2109 30.5898C29.138 30.5091 29.0312 30.4688 28.8906 30.4688C28.75 30.4688 28.6432 30.5091 28.5703 30.5898ZM30.4688 36.2344H31.1914V30.2344H30.4688V36.2344ZM12 58.7656H136V70.7656H12V58.7656ZM15.4883 54.9531L13.6289 50.3125H12.6602V56H13.4102V53.7852L13.3359 51.4062L15.1992 56H15.7734L17.6406 51.3945L17.5703 53.7852V56H18.3203V50.3125H17.3477L15.4883 54.9531ZM19.8867 55.5156C20.2461 55.8906 20.7122 56.0781 21.2852 56.0781C21.9935 56.0781 22.5247 55.806 22.8789 55.2617L22.4375 54.918C22.3047 55.0898 22.1497 55.2279 21.9727 55.332C21.7956 55.4362 21.5794 55.4883 21.3242 55.4883C20.9648 55.4883 20.668 55.3607 20.4336 55.1055C20.2018 54.8477 20.0807 54.5104 20.0703 54.0938H22.9336V53.793C22.9336 53.1185 22.7812 52.6003 22.4766 52.2383C22.1719 51.8763 21.7448 51.6953 21.1953 51.6953C20.8594 51.6953 20.5469 51.7891 20.2578 51.9766C19.9714 52.1615 19.7474 52.4193 19.5859 52.75C19.4271 53.0781 19.3477 53.4518 19.3477 53.8711V54.0039C19.3477 54.6341 19.5273 55.138 19.8867 55.5156ZM20.4609 52.6094C20.6589 52.3958 20.9036 52.2891 21.1953 52.2891C21.4974 52.2891 21.737 52.3906 21.9141 52.5938C22.0911 52.7943 22.1901 53.0781 22.2109 53.4453V53.5H20.0938C20.1406 53.1172 20.263 52.8203 20.4609 52.6094ZM26.0117 54.4258C26.1602 54.5326 26.2344 54.6836 26.2344 54.8789C26.2344 55.0638 26.151 55.2122 25.9844 55.3242C25.8203 55.4336 25.6016 55.4883 25.3281 55.4883C25.0312 55.4883 24.7917 55.418 24.6094 55.2773C24.4297 55.1341 24.3333 54.9414 24.3203 54.6992H23.5977C23.5977 54.9492 23.6706 55.1823 23.8164 55.3984C23.9648 55.612 24.1693 55.7786 24.4297 55.8984C24.6901 56.0182 24.9896 56.0781 25.3281 56.0781C25.8099 56.0781 26.2018 55.9648 26.5039 55.7383C26.806 55.5091 26.957 55.2057 26.957 54.8281C26.957 54.6016 26.9023 54.4102 26.793 54.2539C26.6862 54.0951 26.5208 53.9596 26.2969 53.8477C26.0729 53.7357 25.7799 53.6393 25.418 53.5586C25.0586 53.4779 24.8099 53.3932 24.6719 53.3047C24.5339 53.2161 24.4648 53.0846 24.4648 52.9102C24.4648 52.7253 24.5391 52.5755 24.6875 52.4609C24.8359 52.3464 25.0417 52.2891 25.3047 52.2891C25.5599 52.2891 25.7708 52.3607 25.9375 52.5039C26.1068 52.6471 26.1914 52.8177 26.1914 53.0156H26.918C26.918 52.6302 26.7682 52.3138 26.4688 52.0664C26.1719 51.819 25.7839 51.6953 25.3047 51.6953C24.849 51.6953 24.474 51.8151 24.1797 52.0547C23.888 52.2943 23.7422 52.5872 23.7422 52.9336C23.7422 53.1419 23.793 53.3216 23.8945 53.4727C23.9987 53.6237 24.1576 53.7539 24.3711 53.8633C24.5872 53.9727 24.8776 54.0664 25.2422 54.1445C25.6094 54.2227 25.8659 54.3164 26.0117 54.4258ZM30.1367 54.4258C30.2852 54.5326 30.3594 54.6836 30.3594 54.8789C30.3594 55.0638 30.276 55.2122 30.1094 55.3242C29.9453 55.4336 29.7266 55.4883 29.4531 55.4883C29.1562 55.4883 28.9167 55.418 28.7344 55.2773C28.5547 55.1341 28.4583 54.9414 28.4453 54.6992H27.7227C27.7227 54.9492 27.7956 55.1823 27.9414 55.3984C28.0898 55.612 28.2943 55.7786 28.5547 55.8984C28.8151 56.0182 29.1146 56.0781 29.4531 56.0781C29.9349 56.0781 30.3268 55.9648 30.6289 55.7383C30.931 55.5091 31.082 55.2057 31.082 54.8281C31.082 54.6016 31.0273 54.4102 30.918 54.2539C30.8112 54.0951 30.6458 53.9596 30.4219 53.8477C30.1979 53.7357 29.9049 53.6393 29.543 53.5586C29.1836 53.4779 28.9349 53.3932 28.7969 53.3047C28.6589 53.2161 28.5898 53.0846 28.5898 52.9102C28.5898 52.7253 28.6641 52.5755 28.8125 52.4609C28.9609 52.3464 29.1667 52.2891 29.4297 52.2891C29.6849 52.2891 29.8958 52.3607 30.0625 52.5039C30.2318 52.6471 30.3164 52.8177 30.3164 53.0156H31.043C31.043 52.6302 30.8932 52.3138 30.5938 52.0664C30.2969 51.819 29.9089 51.6953 29.4297 51.6953C28.974 51.6953 28.599 51.8151 28.3047 52.0547C28.013 52.2943 27.8672 52.5872 27.8672 52.9336C27.8672 53.1419 27.918 53.3216 28.0195 53.4727C28.1237 53.6237 28.2826 53.7539 28.4961 53.8633C28.7122 53.9727 29.0026 54.0664 29.3672 54.1445C29.7344 54.2227 29.9909 54.3164 30.1367 54.4258ZM34.5312 55.5547C34.5573 55.7682 34.5911 55.9167 34.6328 56H35.3906V55.9375C35.2917 55.7083 35.2422 55.3997 35.2422 55.0117V53.0664C35.2318 52.6393 35.0885 52.3047 34.8125 52.0625C34.5365 51.8177 34.1549 51.6953 33.668 51.6953C33.3607 51.6953 33.0781 51.7526 32.8203 51.8672C32.5651 51.9818 32.362 52.138 32.2109 52.3359C32.0625 52.5312 31.9883 52.7344 31.9883 52.9453H32.7148C32.7148 52.7604 32.8021 52.6029 32.9766 52.4727C33.151 52.3424 33.3672 52.2773 33.625 52.2773C33.9193 52.2773 34.1419 52.3529 34.293 52.5039C34.444 52.6523 34.5195 52.8529 34.5195 53.1055V53.4375H33.8164C33.2096 53.4375 32.7383 53.5599 32.4023 53.8047C32.069 54.0469 31.9023 54.388 31.9023 54.8281C31.9023 55.1901 32.0352 55.4896 32.3008 55.7266C32.569 55.9609 32.9115 56.0781 33.3281 56.0781C33.7943 56.0781 34.1953 55.9036 34.5312 55.5547ZM34.0781 55.2734C33.875 55.3906 33.6602 55.4492 33.4336 55.4492C33.1966 55.4492 33.0026 55.3854 32.8516 55.2578C32.7005 55.1302 32.625 54.9531 32.625 54.7266C32.625 54.2083 33.0677 53.9492 33.9531 53.9492H34.5195V54.8164C34.4284 55.0039 34.2812 55.1562 34.0781 55.2734ZM36.6602 52.2812C36.3555 52.6693 36.2031 53.1927 36.2031 53.8516C36.2031 54.5391 36.3555 55.082 36.6602 55.4805C36.9674 55.8789 37.3685 56.0781 37.8633 56.0781C38.3633 56.0781 38.7578 55.9115 39.0469 55.5781V55.9414C39.0469 56.3008 38.9479 56.5794 38.75 56.7773C38.5547 56.9753 38.2812 57.0742 37.9297 57.0742C37.4818 57.0742 37.1029 56.8828 36.793 56.5L36.418 56.9336C36.5716 57.1602 36.7943 57.3385 37.0859 57.4688C37.3776 57.599 37.6758 57.6641 37.9805 57.6641C38.5273 57.6641 38.9622 57.5065 39.2852 57.1914C39.6107 56.8763 39.7734 56.4453 39.7734 55.8984V51.7734H39.1133L39.0781 52.2422C38.7891 51.8776 38.3867 51.6953 37.8711 51.6953C37.3685 51.6953 36.9648 51.8906 36.6602 52.2812ZM37.2227 55.0586C37.0273 54.7852 36.9297 54.4102 36.9297 53.9336C36.9297 53.3971 37.0286 52.9922 37.2266 52.7188C37.4245 52.4453 37.6992 52.3086 38.0508 52.3086C38.4935 52.3086 38.8255 52.5104 39.0469 52.9141V54.8438C38.8333 55.2578 38.4987 55.4648 38.043 55.4648C37.6914 55.4648 37.418 55.3294 37.2227 55.0586ZM41.2227 55.5156C41.582 55.8906 42.0482 56.0781 42.6211 56.0781C43.3294 56.0781 43.8607 55.806 44.2148 55.2617L43.7734 54.918C43.6406 55.0898 43.4857 55.2279 43.3086 55.332C43.1315 55.4362 42.9154 55.4883 42.6602 55.4883C42.3008 55.4883 42.0039 55.3607 41.7695 55.1055C41.5378 54.8477 41.4167 54.5104 41.4062 54.0938H44.2695V53.793C44.2695 53.1185 44.1172 52.6003 43.8125 52.2383C43.5078 51.8763 43.0807 51.6953 42.5312 51.6953C42.1953 51.6953 41.8828 51.7891 41.5938 51.9766C41.3073 52.1615 41.0833 52.4193 40.9219 52.75C40.763 53.0781 40.6836 53.4518 40.6836 53.8711V54.0039C40.6836 54.6341 40.8633 55.138 41.2227 55.5156ZM41.7969 52.6094C41.9948 52.3958 42.2396 52.2891 42.5312 52.2891C42.8333 52.2891 43.0729 52.3906 43.25 52.5938C43.4271 52.7943 43.526 53.0781 43.5469 53.4453V53.5H41.4297C41.4766 53.1172 41.599 52.8203 41.7969 52.6094Z" fill="#5D6B82"/>
</svg>
