<svg width="148" height="80" viewBox="0 0 148 80" fill="none" xmlns="http://www.w3.org/2000/svg">
<rect width="148" height="80" rx="2" fill="#D1D5DB"/>
<rect x="1" y="1" width="146" height="78" rx="1" fill="#FAFBFB"/>
<path fill-rule="evenodd" clip-rule="evenodd" d="M135.688 9H55.6875V17H135.688V9ZM13.0977 13.4883H15.4844V12.875H13.0977V10.9297H15.8711V10.3125H12.3477V16H13.0977V13.4883ZM16.7188 16H17.4414V11.7734H16.7188V16ZM16.7656 10.3555C16.6953 10.4362 16.6602 10.5352 16.6602 10.6523C16.6602 10.7695 16.6953 10.8672 16.7656 10.9453C16.8385 11.0234 16.9453 11.0625 17.0859 11.0625C17.2266 11.0625 17.3333 11.0234 17.4062 10.9453C17.4792 10.8672 17.5156 10.7695 17.5156 10.6523C17.5156 10.5352 17.4792 10.4362 17.4062 10.3555C17.3333 10.2747 17.2266 10.2344 17.0859 10.2344C16.9453 10.2344 16.8385 10.2747 16.7656 10.3555ZM20.2891 12.3945C20.4167 12.3945 20.5352 12.4036 20.6445 12.4219V11.75C20.5716 11.7135 20.4648 11.6953 20.3242 11.6953C19.8893 11.6953 19.5534 11.8841 19.3164 12.2617L19.3047 11.7734H18.6016V16H19.3242V13C19.4935 12.5964 19.8151 12.3945 20.2891 12.3945ZM23.5508 14.4258C23.6992 14.5326 23.7734 14.6836 23.7734 14.8789C23.7734 15.0638 23.6901 15.2122 23.5234 15.3242C23.3594 15.4336 23.1406 15.4883 22.8672 15.4883C22.5703 15.4883 22.3307 15.418 22.1484 15.2773C21.9688 15.1341 21.8724 14.9414 21.8594 14.6992H21.1367C21.1367 14.9492 21.2096 15.1823 21.3555 15.3984C21.5039 15.612 21.7083 15.7786 21.9688 15.8984C22.2292 16.0182 22.5286 16.0781 22.8672 16.0781C23.349 16.0781 23.7409 15.9648 24.043 15.7383C24.3451 15.5091 24.4961 15.2057 24.4961 14.8281C24.4961 14.6016 24.4414 14.4102 24.332 14.2539C24.2253 14.0951 24.0599 13.9596 23.8359 13.8477C23.612 13.7357 23.319 13.6393 22.957 13.5586C22.5977 13.4779 22.349 13.3932 22.2109 13.3047C22.0729 13.2161 22.0039 13.0846 22.0039 12.9102C22.0039 12.7253 22.0781 12.5755 22.2266 12.4609C22.375 12.3464 22.5807 12.2891 22.8438 12.2891C23.099 12.2891 23.3099 12.3607 23.4766 12.5039C23.6458 12.6471 23.7305 12.8177 23.7305 13.0156H24.457C24.457 12.6302 24.3073 12.3138 24.0078 12.0664C23.7109 11.819 23.3229 11.6953 22.8438 11.6953C22.388 11.6953 22.013 11.8151 21.7188 12.0547C21.4271 12.2943 21.2812 12.5872 21.2812 12.9336C21.2812 13.1419 21.332 13.3216 21.4336 13.4727C21.5378 13.6237 21.6966 13.7539 21.9102 13.8633C22.1263 13.9727 22.4167 14.0664 22.7812 14.1445C23.1484 14.2227 23.4049 14.3164 23.5508 14.4258ZM26.418 11.7734V10.75H25.6953V11.7734H24.9258V12.332H25.6953V14.9531C25.6953 15.3125 25.7773 15.5898 25.9414 15.7852C26.1055 15.9805 26.349 16.0781 26.6719 16.0781C26.8516 16.0781 27.0365 16.0521 27.2266 16V15.4141C27.0807 15.4453 26.9661 15.4609 26.8828 15.4609C26.7135 15.4609 26.5938 15.4193 26.5234 15.3359C26.4531 15.25 26.418 15.1224 26.418 14.9531V12.332H27.207V11.7734H26.418ZM33.7695 16H34.5234V10.3125H33.7773V14.7148L30.9062 10.3125H30.1523V16H30.9062V11.6172L33.7695 16ZM38.25 15.5547C38.276 15.7682 38.3099 15.9167 38.3516 16H39.1094V15.9375C39.0104 15.7083 38.9609 15.3997 38.9609 15.0117V13.0664C38.9505 12.6393 38.8073 12.3047 38.5312 12.0625C38.2552 11.8177 37.8737 11.6953 37.3867 11.6953C37.0794 11.6953 36.7969 11.7526 36.5391 11.8672C36.2839 11.9818 36.0807 12.138 35.9297 12.3359C35.7812 12.5312 35.707 12.7344 35.707 12.9453H36.4336C36.4336 12.7604 36.5208 12.6029 36.6953 12.4727C36.8698 12.3424 37.0859 12.2773 37.3438 12.2773C37.638 12.2773 37.8607 12.3529 38.0117 12.5039C38.1628 12.6523 38.2383 12.8529 38.2383 13.1055V13.4375H37.5352C36.9284 13.4375 36.457 13.5599 36.1211 13.8047C35.7878 14.0469 35.6211 14.388 35.6211 14.8281C35.6211 15.1901 35.7539 15.4896 36.0195 15.7266C36.2878 15.9609 36.6302 16.0781 37.0469 16.0781C37.513 16.0781 37.9141 15.9036 38.25 15.5547ZM37.7969 15.2734C37.5938 15.3906 37.3789 15.4492 37.1523 15.4492C36.9154 15.4492 36.7214 15.3854 36.5703 15.2578C36.4193 15.1302 36.3438 14.9531 36.3438 14.7266C36.3438 14.2083 36.7865 13.9492 37.6719 13.9492H38.2383V14.8164C38.1471 15.0039 38 15.1562 37.7969 15.2734ZM40.793 12.2422L40.7734 11.7734H40.0898V16H40.8125V12.9141C40.987 12.5104 41.3112 12.3086 41.7852 12.3086C42.3867 12.3086 42.6875 12.6159 42.6875 13.2305V16H43.4141V13.1953C43.4427 12.9245 43.5456 12.7096 43.7227 12.5508C43.8997 12.3893 44.1224 12.3086 44.3906 12.3086C44.7161 12.3086 44.9479 12.3841 45.0859 12.5352C45.224 12.6836 45.293 12.9089 45.293 13.2109V16H46.0156V13.168C46 12.1862 45.5286 11.6953 44.6016 11.6953C44.2943 11.6953 44.0273 11.7578 43.8008 11.8828C43.5768 12.0078 43.3945 12.1719 43.2539 12.375C43.0404 11.9219 42.638 11.6953 42.0469 11.6953C41.5208 11.6953 41.1029 11.8776 40.793 12.2422ZM47.4648 15.5156C47.8242 15.8906 48.2904 16.0781 48.8633 16.0781C49.5716 16.0781 50.1029 15.806 50.457 15.2617L50.0156 14.918C49.8828 15.0898 49.7279 15.2279 49.5508 15.332C49.3737 15.4362 49.1576 15.4883 48.9023 15.4883C48.543 15.4883 48.2461 15.3607 48.0117 15.1055C47.7799 14.8477 47.6589 14.5104 47.6484 14.0938H50.5117V13.793C50.5117 13.1185 50.3594 12.6003 50.0547 12.2383C49.75 11.8763 49.3229 11.6953 48.7734 11.6953C48.4375 11.6953 48.125 11.7891 47.8359 11.9766C47.5495 12.1615 47.3255 12.4193 47.1641 12.75C47.0052 13.0781 46.9258 13.4518 46.9258 13.8711V14.0039C46.9258 14.6341 47.1055 15.138 47.4648 15.5156ZM48.0391 12.6094C48.237 12.3958 48.4818 12.2891 48.7734 12.2891C49.0755 12.2891 49.3151 12.3906 49.4922 12.5938C49.6693 12.7943 49.7682 13.0781 49.7891 13.4453V13.5H47.6719C47.7188 13.1172 47.8411 12.8203 48.0391 12.6094ZM55.6875 23H135.688V31H55.6875V23ZM15.7969 29.3867H13.1016V24.3125H12.3477V30H15.7969V29.3867ZM19.0469 29.5547C19.0729 29.7682 19.1068 29.9167 19.1484 30H19.9062V29.9375C19.8073 29.7083 19.7578 29.3997 19.7578 29.0117V27.0664C19.7474 26.6393 19.6042 26.3047 19.3281 26.0625C19.0521 25.8177 18.6706 25.6953 18.1836 25.6953C17.8763 25.6953 17.5938 25.7526 17.3359 25.8672C17.0807 25.9818 16.8776 26.138 16.7266 26.3359C16.5781 26.5312 16.5039 26.7344 16.5039 26.9453H17.2305C17.2305 26.7604 17.3177 26.6029 17.4922 26.4727C17.6667 26.3424 17.8828 26.2773 18.1406 26.2773C18.4349 26.2773 18.6576 26.3529 18.8086 26.5039C18.9596 26.6523 19.0352 26.8529 19.0352 27.1055V27.4375H18.332C17.7253 27.4375 17.2539 27.5599 16.918 27.8047C16.5846 28.0469 16.418 28.388 16.418 28.8281C16.418 29.1901 16.5508 29.4896 16.8164 29.7266C17.0846 29.9609 17.4271 30.0781 17.8438 30.0781C18.3099 30.0781 18.7109 29.9036 19.0469 29.5547ZM18.5938 29.2734C18.3906 29.3906 18.1758 29.4492 17.9492 29.4492C17.7122 29.4492 17.5182 29.3854 17.3672 29.2578C17.2161 29.1302 17.1406 28.9531 17.1406 28.7266C17.1406 28.2083 17.5833 27.9492 18.4688 27.9492H19.0352V28.8164C18.944 29.0039 18.7969 29.1562 18.5938 29.2734ZM23.1289 28.4258C23.2773 28.5326 23.3516 28.6836 23.3516 28.8789C23.3516 29.0638 23.2682 29.2122 23.1016 29.3242C22.9375 29.4336 22.7188 29.4883 22.4453 29.4883C22.1484 29.4883 21.9089 29.418 21.7266 29.2773C21.5469 29.1341 21.4505 28.9414 21.4375 28.6992H20.7148C20.7148 28.9492 20.7878 29.1823 20.9336 29.3984C21.082 29.612 21.2865 29.7786 21.5469 29.8984C21.8073 30.0182 22.1068 30.0781 22.4453 30.0781C22.9271 30.0781 23.319 29.9648 23.6211 29.7383C23.9232 29.5091 24.0742 29.2057 24.0742 28.8281C24.0742 28.6016 24.0195 28.4102 23.9102 28.2539C23.8034 28.0951 23.638 27.9596 23.4141 27.8477C23.1901 27.7357 22.8971 27.6393 22.5352 27.5586C22.1758 27.4779 21.9271 27.3932 21.7891 27.3047C21.651 27.2161 21.582 27.0846 21.582 26.9102C21.582 26.7253 21.6562 26.5755 21.8047 26.4609C21.9531 26.3464 22.1589 26.2891 22.4219 26.2891C22.6771 26.2891 22.888 26.3607 23.0547 26.5039C23.224 26.6471 23.3086 26.8177 23.3086 27.0156H24.0352C24.0352 26.6302 23.8854 26.3138 23.5859 26.0664C23.2891 25.819 22.901 25.6953 22.4219 25.6953C21.9661 25.6953 21.5911 25.8151 21.2969 26.0547C21.0052 26.2943 20.8594 26.5872 20.8594 26.9336C20.8594 27.1419 20.9102 27.3216 21.0117 27.4727C21.1159 27.6237 21.2747 27.7539 21.4883 27.8633C21.7044 27.9727 21.9948 28.0664 22.3594 28.1445C22.7266 28.2227 22.9831 28.3164 23.1289 28.4258ZM25.9961 25.7734V24.75H25.2734V25.7734H24.5039V26.332H25.2734V28.9531C25.2734 29.3125 25.3555 29.5898 25.5195 29.7852C25.6836 29.9805 25.9271 30.0781 26.25 30.0781C26.4297 30.0781 26.6146 30.0521 26.8047 30V29.4141C26.6589 29.4453 26.5443 29.4609 26.4609 29.4609C26.2917 29.4609 26.1719 29.4193 26.1016 29.3359C26.0312 29.25 25.9961 29.1224 25.9961 28.9531V26.332H26.7852V25.7734H25.9961ZM33.3477 30H34.1016V24.3125H33.3555V28.7148L30.4844 24.3125H29.7305V30H30.4844V25.6172L33.3477 30ZM37.8281 29.5547C37.8542 29.7682 37.888 29.9167 37.9297 30H38.6875V29.9375C38.5885 29.7083 38.5391 29.3997 38.5391 29.0117V27.0664C38.5286 26.6393 38.3854 26.3047 38.1094 26.0625C37.8333 25.8177 37.4518 25.6953 36.9648 25.6953C36.6576 25.6953 36.375 25.7526 36.1172 25.8672C35.862 25.9818 35.6589 26.138 35.5078 26.3359C35.3594 26.5312 35.2852 26.7344 35.2852 26.9453H36.0117C36.0117 26.7604 36.099 26.6029 36.2734 26.4727C36.4479 26.3424 36.6641 26.2773 36.9219 26.2773C37.2161 26.2773 37.4388 26.3529 37.5898 26.5039C37.7409 26.6523 37.8164 26.8529 37.8164 27.1055V27.4375H37.1133C36.5065 27.4375 36.0352 27.5599 35.6992 27.8047C35.3659 28.0469 35.1992 28.388 35.1992 28.8281C35.1992 29.1901 35.332 29.4896 35.5977 29.7266C35.8659 29.9609 36.2083 30.0781 36.625 30.0781C37.0911 30.0781 37.4922 29.9036 37.8281 29.5547ZM37.375 29.2734C37.1719 29.3906 36.957 29.4492 36.7305 29.4492C36.4935 29.4492 36.2995 29.3854 36.1484 29.2578C35.9974 29.1302 35.9219 28.9531 35.9219 28.7266C35.9219 28.2083 36.3646 27.9492 37.25 27.9492H37.8164V28.8164C37.7253 29.0039 37.5781 29.1562 37.375 29.2734ZM40.3711 26.2422L40.3516 25.7734H39.668V30H40.3906V26.9141C40.5651 26.5104 40.8893 26.3086 41.3633 26.3086C41.9648 26.3086 42.2656 26.6159 42.2656 27.2305V30H42.9922V27.1953C43.0208 26.9245 43.1237 26.7096 43.3008 26.5508C43.4779 26.3893 43.7005 26.3086 43.9688 26.3086C44.2943 26.3086 44.526 26.3841 44.6641 26.5352C44.8021 26.6836 44.8711 26.9089 44.8711 27.2109V30H45.5938V27.168C45.5781 26.1862 45.1068 25.6953 44.1797 25.6953C43.8724 25.6953 43.6055 25.7578 43.3789 25.8828C43.1549 26.0078 42.9727 26.1719 42.832 26.375C42.6185 25.9219 42.2161 25.6953 41.625 25.6953C41.099 25.6953 40.681 25.8776 40.3711 26.2422ZM47.043 29.5156C47.4023 29.8906 47.8685 30.0781 48.4414 30.0781C49.1497 30.0781 49.681 29.806 50.0352 29.2617L49.5938 28.918C49.4609 29.0898 49.306 29.2279 49.1289 29.332C48.9518 29.4362 48.7357 29.4883 48.4805 29.4883C48.1211 29.4883 47.8242 29.3607 47.5898 29.1055C47.3581 28.8477 47.237 28.5104 47.2266 28.0938H50.0898V27.793C50.0898 27.1185 49.9375 26.6003 49.6328 26.2383C49.3281 25.8763 48.901 25.6953 48.3516 25.6953C48.0156 25.6953 47.7031 25.7891 47.4141 25.9766C47.1276 26.1615 46.9036 26.4193 46.7422 26.75C46.5833 27.0781 46.5039 27.4518 46.5039 27.8711V28.0039C46.5039 28.6341 46.6836 29.138 47.043 29.5156ZM47.6172 26.6094C47.8151 26.3958 48.0599 26.2891 48.3516 26.2891C48.6536 26.2891 48.8932 26.3906 49.0703 26.5938C49.2474 26.7943 49.3464 27.0781 49.3672 27.4453V27.5H47.25C47.2969 27.1172 47.4193 26.8203 47.6172 26.6094ZM55.6875 37H135.688V45H55.6875V37ZM13.0977 41.3711H15.5625V40.7578H13.0977V38.9297H15.9219V38.3125H12.3477V44H15.9609V43.3867H13.0977V41.3711ZM17.4805 40.2422L17.4609 39.7734H16.7773V44H17.5V40.9141C17.6745 40.5104 17.9987 40.3086 18.4727 40.3086C19.0742 40.3086 19.375 40.6159 19.375 41.2305V44H20.1016V41.1953C20.1302 40.9245 20.2331 40.7096 20.4102 40.5508C20.5872 40.3893 20.8099 40.3086 21.0781 40.3086C21.4036 40.3086 21.6354 40.3841 21.7734 40.5352C21.9115 40.6836 21.9805 40.9089 21.9805 41.2109V44H22.7031V41.168C22.6875 40.1862 22.2161 39.6953 21.2891 39.6953C20.9818 39.6953 20.7148 39.7578 20.4883 39.8828C20.2643 40.0078 20.082 40.1719 19.9414 40.375C19.7279 39.9219 19.3255 39.6953 18.7344 39.6953C18.2083 39.6953 17.7904 39.8776 17.4805 40.2422ZM26.3047 43.5547C26.3307 43.7682 26.3646 43.9167 26.4062 44H27.1641V43.9375C27.0651 43.7083 27.0156 43.3997 27.0156 43.0117V41.0664C27.0052 40.6393 26.862 40.3047 26.5859 40.0625C26.3099 39.8177 25.9284 39.6953 25.4414 39.6953C25.1341 39.6953 24.8516 39.7526 24.5938 39.8672C24.3385 39.9818 24.1354 40.138 23.9844 40.3359C23.8359 40.5312 23.7617 40.7344 23.7617 40.9453H24.4883C24.4883 40.7604 24.5755 40.6029 24.75 40.4727C24.9245 40.3424 25.1406 40.2773 25.3984 40.2773C25.6927 40.2773 25.9154 40.3529 26.0664 40.5039C26.2174 40.6523 26.293 40.8529 26.293 41.1055V41.4375H25.5898C24.9831 41.4375 24.5117 41.5599 24.1758 41.8047C23.8424 42.0469 23.6758 42.388 23.6758 42.8281C23.6758 43.1901 23.8086 43.4896 24.0742 43.7266C24.3424 43.9609 24.6849 44.0781 25.1016 44.0781C25.5677 44.0781 25.9688 43.9036 26.3047 43.5547ZM25.8516 43.2734C25.6484 43.3906 25.4336 43.4492 25.207 43.4492C24.9701 43.4492 24.776 43.3854 24.625 43.2578C24.474 43.1302 24.3984 42.9531 24.3984 42.7266C24.3984 42.2083 24.8411 41.9492 25.7266 41.9492H26.293V42.8164C26.2018 43.0039 26.0547 43.1562 25.8516 43.2734ZM28.2109 44H28.9336V39.7734H28.2109V44ZM28.2578 38.3555C28.1875 38.4362 28.1523 38.5352 28.1523 38.6523C28.1523 38.7695 28.1875 38.8672 28.2578 38.9453C28.3307 39.0234 28.4375 39.0625 28.5781 39.0625C28.7188 39.0625 28.8255 39.0234 28.8984 38.9453C28.9714 38.8672 29.0078 38.7695 29.0078 38.6523C29.0078 38.5352 28.9714 38.4362 28.8984 38.3555C28.8255 38.2747 28.7188 38.2344 28.5781 38.2344C28.4375 38.2344 28.3307 38.2747 28.2578 38.3555ZM30.1562 44H30.8789V38H30.1562V44ZM55.3477 51H135.348V71H55.3477V51ZM15.1758 56.9531L13.3164 52.3125H12.3477V58H13.0977V55.7852L13.0234 53.4062L14.8867 58H15.4609L17.3281 53.3945L17.2578 55.7852V58H18.0078V52.3125H17.0352L15.1758 56.9531ZM19.5742 57.5156C19.9336 57.8906 20.3997 58.0781 20.9727 58.0781C21.681 58.0781 22.2122 57.806 22.5664 57.2617L22.125 56.918C21.9922 57.0898 21.8372 57.2279 21.6602 57.332C21.4831 57.4362 21.2669 57.4883 21.0117 57.4883C20.6523 57.4883 20.3555 57.3607 20.1211 57.1055C19.8893 56.8477 19.7682 56.5104 19.7578 56.0938H22.6211V55.793C22.6211 55.1185 22.4688 54.6003 22.1641 54.2383C21.8594 53.8763 21.4323 53.6953 20.8828 53.6953C20.5469 53.6953 20.2344 53.7891 19.9453 53.9766C19.6589 54.1615 19.4349 54.4193 19.2734 54.75C19.1146 55.0781 19.0352 55.4518 19.0352 55.8711V56.0039C19.0352 56.6341 19.2148 57.138 19.5742 57.5156ZM20.1484 54.6094C20.3464 54.3958 20.5911 54.2891 20.8828 54.2891C21.1849 54.2891 21.4245 54.3906 21.6016 54.5938C21.7786 54.7943 21.8776 55.0781 21.8984 55.4453V55.5H19.7812C19.8281 55.1172 19.9505 54.8203 20.1484 54.6094ZM25.6992 56.4258C25.8477 56.5326 25.9219 56.6836 25.9219 56.8789C25.9219 57.0638 25.8385 57.2122 25.6719 57.3242C25.5078 57.4336 25.2891 57.4883 25.0156 57.4883C24.7188 57.4883 24.4792 57.418 24.2969 57.2773C24.1172 57.1341 24.0208 56.9414 24.0078 56.6992H23.2852C23.2852 56.9492 23.3581 57.1823 23.5039 57.3984C23.6523 57.612 23.8568 57.7786 24.1172 57.8984C24.3776 58.0182 24.6771 58.0781 25.0156 58.0781C25.4974 58.0781 25.8893 57.9648 26.1914 57.7383C26.4935 57.5091 26.6445 57.2057 26.6445 56.8281C26.6445 56.6016 26.5898 56.4102 26.4805 56.2539C26.3737 56.0951 26.2083 55.9596 25.9844 55.8477C25.7604 55.7357 25.4674 55.6393 25.1055 55.5586C24.7461 55.4779 24.4974 55.3932 24.3594 55.3047C24.2214 55.2161 24.1523 55.0846 24.1523 54.9102C24.1523 54.7253 24.2266 54.5755 24.375 54.4609C24.5234 54.3464 24.7292 54.2891 24.9922 54.2891C25.2474 54.2891 25.4583 54.3607 25.625 54.5039C25.7943 54.6471 25.8789 54.8177 25.8789 55.0156H26.6055C26.6055 54.6302 26.4557 54.3138 26.1562 54.0664C25.8594 53.819 25.4714 53.6953 24.9922 53.6953C24.5365 53.6953 24.1615 53.8151 23.8672 54.0547C23.5755 54.2943 23.4297 54.5872 23.4297 54.9336C23.4297 55.1419 23.4805 55.3216 23.582 55.4727C23.6862 55.6237 23.8451 55.7539 24.0586 55.8633C24.2747 55.9727 24.5651 56.0664 24.9297 56.1445C25.2969 56.2227 25.5534 56.3164 25.6992 56.4258ZM29.8242 56.4258C29.9727 56.5326 30.0469 56.6836 30.0469 56.8789C30.0469 57.0638 29.9635 57.2122 29.7969 57.3242C29.6328 57.4336 29.4141 57.4883 29.1406 57.4883C28.8438 57.4883 28.6042 57.418 28.4219 57.2773C28.2422 57.1341 28.1458 56.9414 28.1328 56.6992H27.4102C27.4102 56.9492 27.4831 57.1823 27.6289 57.3984C27.7773 57.612 27.9818 57.7786 28.2422 57.8984C28.5026 58.0182 28.8021 58.0781 29.1406 58.0781C29.6224 58.0781 30.0143 57.9648 30.3164 57.7383C30.6185 57.5091 30.7695 57.2057 30.7695 56.8281C30.7695 56.6016 30.7148 56.4102 30.6055 56.2539C30.4987 56.0951 30.3333 55.9596 30.1094 55.8477C29.8854 55.7357 29.5924 55.6393 29.2305 55.5586C28.8711 55.4779 28.6224 55.3932 28.4844 55.3047C28.3464 55.2161 28.2773 55.0846 28.2773 54.9102C28.2773 54.7253 28.3516 54.5755 28.5 54.4609C28.6484 54.3464 28.8542 54.2891 29.1172 54.2891C29.3724 54.2891 29.5833 54.3607 29.75 54.5039C29.9193 54.6471 30.0039 54.8177 30.0039 55.0156H30.7305C30.7305 54.6302 30.5807 54.3138 30.2812 54.0664C29.9844 53.819 29.5964 53.6953 29.1172 53.6953C28.6615 53.6953 28.2865 53.8151 27.9922 54.0547C27.7005 54.2943 27.5547 54.5872 27.5547 54.9336C27.5547 55.1419 27.6055 55.3216 27.707 55.4727C27.8112 55.6237 27.9701 55.7539 28.1836 55.8633C28.3997 55.9727 28.6901 56.0664 29.0547 56.1445C29.4219 56.2227 29.6784 56.3164 29.8242 56.4258ZM34.2188 57.5547C34.2448 57.7682 34.2786 57.9167 34.3203 58H35.0781V57.9375C34.9792 57.7083 34.9297 57.3997 34.9297 57.0117V55.0664C34.9193 54.6393 34.776 54.3047 34.5 54.0625C34.224 53.8177 33.8424 53.6953 33.3555 53.6953C33.0482 53.6953 32.7656 53.7526 32.5078 53.8672C32.2526 53.9818 32.0495 54.138 31.8984 54.3359C31.75 54.5312 31.6758 54.7344 31.6758 54.9453H32.4023C32.4023 54.7604 32.4896 54.6029 32.6641 54.4727C32.8385 54.3424 33.0547 54.2773 33.3125 54.2773C33.6068 54.2773 33.8294 54.3529 33.9805 54.5039C34.1315 54.6523 34.207 54.8529 34.207 55.1055V55.4375H33.5039C32.8971 55.4375 32.4258 55.5599 32.0898 55.8047C31.7565 56.0469 31.5898 56.388 31.5898 56.8281C31.5898 57.1901 31.7227 57.4896 31.9883 57.7266C32.2565 57.9609 32.599 58.0781 33.0156 58.0781C33.4818 58.0781 33.8828 57.9036 34.2188 57.5547ZM33.7656 57.2734C33.5625 57.3906 33.3477 57.4492 33.1211 57.4492C32.8841 57.4492 32.6901 57.3854 32.5391 57.2578C32.388 57.1302 32.3125 56.9531 32.3125 56.7266C32.3125 56.2083 32.7552 55.9492 33.6406 55.9492H34.207V56.8164C34.1159 57.0039 33.9688 57.1562 33.7656 57.2734ZM36.3477 54.2812C36.043 54.6693 35.8906 55.1927 35.8906 55.8516C35.8906 56.5391 36.043 57.082 36.3477 57.4805C36.6549 57.8789 37.056 58.0781 37.5508 58.0781C38.0508 58.0781 38.4453 57.9115 38.7344 57.5781V57.9414C38.7344 58.3008 38.6354 58.5794 38.4375 58.7773C38.2422 58.9753 37.9688 59.0742 37.6172 59.0742C37.1693 59.0742 36.7904 58.8828 36.4805 58.5L36.1055 58.9336C36.2591 59.1602 36.4818 59.3385 36.7734 59.4688C37.0651 59.599 37.3633 59.6641 37.668 59.6641C38.2148 59.6641 38.6497 59.5065 38.9727 59.1914C39.2982 58.8763 39.4609 58.4453 39.4609 57.8984V53.7734H38.8008L38.7656 54.2422C38.4766 53.8776 38.0742 53.6953 37.5586 53.6953C37.056 53.6953 36.6523 53.8906 36.3477 54.2812ZM36.9102 57.0586C36.7148 56.7852 36.6172 56.4102 36.6172 55.9336C36.6172 55.3971 36.7161 54.9922 36.9141 54.7188C37.112 54.4453 37.3867 54.3086 37.7383 54.3086C38.181 54.3086 38.513 54.5104 38.7344 54.9141V56.8438C38.5208 57.2578 38.1862 57.4648 37.7305 57.4648C37.3789 57.4648 37.1055 57.3294 36.9102 57.0586ZM40.9102 57.5156C41.2695 57.8906 41.7357 58.0781 42.3086 58.0781C43.0169 58.0781 43.5482 57.806 43.9023 57.2617L43.4609 56.918C43.3281 57.0898 43.1732 57.2279 42.9961 57.332C42.819 57.4362 42.6029 57.4883 42.3477 57.4883C41.9883 57.4883 41.6914 57.3607 41.457 57.1055C41.2253 56.8477 41.1042 56.5104 41.0938 56.0938H43.957V55.793C43.957 55.1185 43.8047 54.6003 43.5 54.2383C43.1953 53.8763 42.7682 53.6953 42.2188 53.6953C41.8828 53.6953 41.5703 53.7891 41.2812 53.9766C40.9948 54.1615 40.7708 54.4193 40.6094 54.75C40.4505 55.0781 40.3711 55.4518 40.3711 55.8711V56.0039C40.3711 56.6341 40.5508 57.138 40.9102 57.5156ZM41.4844 54.6094C41.6823 54.3958 41.9271 54.2891 42.2188 54.2891C42.5208 54.2891 42.7604 54.3906 42.9375 54.5938C43.1146 54.7943 43.2135 55.0781 43.2344 55.4453V55.5H41.1172C41.1641 55.1172 41.2865 54.8203 41.4844 54.6094Z" fill="#5D6B82"/>
</svg>
